<?xml version="1.0" encoding="UTF-8" standalone="no"?>
<svg width="72px" height="72px" viewBox="0 0 72 72" version="1.1" xmlns="http://www.w3.org/2000/svg" xmlns:xlink="http://www.w3.org/1999/xlink" xmlns:sketch="http://www.bohemiancoding.com/sketch/ns">
    <title>Slice 1</title>
    <description>Created with Sketch (http://www.bohemiancoding.com/sketch)</description>
    <defs></defs>
    <g id="Page-1" stroke="none" stroke-width="1" fill="none" fill-rule="evenodd" sketch:type="MSPage">
        <path d="M62.0603678,62.1697493 C61.6013347,62.6132974 50.7065352,64.8717926 50.7065352,64.8717926 C46.6670967,65.7997718 42.1637361,66.2637544 37.1963185,66.2637544 C26.8247872,66.2637544 18.8006175,62.96129 13.1235688,56.3562621 C8.37449918,50.7883874 6,44.2107518 6,36.6231578 C6,28.2713457 8.89306797,21.1751413 14.6792907,15.3343315 C20.9022095,9.11141272 29.0355515,6 39.0795608,6 C43.3373474,6 47.5131908,6.57315498 51.6072163,7.71948212 C55.3737198,8.75663525 62.4153878,12.2198502 62.4153896,12.7960484 C62.4153915,13.3722465 54.3782255,21.2433712 53.9232534,20.796904 C53.4682813,20.3504367 53.8005402,16.6444131 53.8005402,16.6444131 C48.5056005,11.5132345 43.6648784,8.94768364 37.2781986,8.94768364 C30.7277578,8.94768364 25.3100786,11.1993639 21.0249985,15.702792 C16.7399185,20.20622 14.5974106,26.0060025 14.5974106,33.1023134 C14.5974106,41.1811905 17.1902545,48.0863433 22.3760202,53.817979 C27.9438949,59.9317238 35.0128063,62.9885503 43.5829664,62.9885503 C47.1311218,62.9885503 53.1852755,61.5465875 53.6858877,60.9415478 C54.1864999,60.3365081 53.9817392,48.3437094 53.9817392,48.3437094 C53.9817392,48.3437094 42.0407256,48.5094677 41.617844,48.1772111 C41.1949622,47.8449546 48.168252,44.893048 48.168252,44.893048 C48.168252,44.893048 64.9686413,44.8930457 65.822685,44.893048 C66.6767287,44.8930503 63.3979508,46.9400505 63.3979508,46.9400505 C62.9612548,47.3767466 62.6883238,47.8134361 62.5791498,48.2501321 C62.4699758,49.2326983 62.4153896,50.5427668 62.4153896,52.180377 C62.4153896,52.180377 62.5194009,61.7262013 62.0603678,62.1697493 Z" id="G" stroke="#F26522" stroke-width="1.5" sketch:type="MSShapeGroup"></path>
    </g>
</svg>