<?xml version="1.0" encoding="UTF-8" standalone="no"?>
<svg width="72px" height="72px" viewBox="0 0 72 72" version="1.1" xmlns="http://www.w3.org/2000/svg" xmlns:xlink="http://www.w3.org/1999/xlink" xmlns:sketch="http://www.bohemiancoding.com/sketch/ns">
    <title>Slice 1</title>
    <description>Created with Sketch (http://www.bohemiancoding.com/sketch)</description>
    <defs></defs>
    <g id="Page-1" stroke="none" stroke-width="1" fill="none" fill-rule="evenodd" sketch:type="MSPage">
        <g id="FB-Fun-Page" sketch:type="MSLayerGroup" transform="translate(6.000000, 8.000000)" stroke="#5B5B5B" stroke-width="1.5">
            <path d="M49.7777865,46.0100785 L49.7740175,0.676066969 C49.7740175,0.259447922 47.7776938,0.0843639124 46.779532,0.0843639124 C45.8099729,0.084365348 43.8827006,0.248757975 43.8708549,0.676066969 L43.8708549,48.5965656" id="Path-15" sketch:type="MSShapeGroup"></path>
            <path d="M43.6689026,36.3922087 C43.1679117,36.2353371 37.5103914,33.2778974 30.8744947,32.0807348 C24.2385981,30.8835718 20.1016951,30.8045389 20.1016951,30.8045389 C19.0060775,30.7491766 18.1030582,29.8064 18.0854252,28.7111526 C18.0854252,28.7111526 18.0001792,23.7581185 17.9115515,16.3159838 C17.8402863,10.3317998 17.8919428,7.37515798 17.8919428,7.37515798 C17.9027724,6.27341921 18.8155323,5.37436109 19.9093181,5.35959823 C19.9093181,5.35959823 24.2357201,5.38028347 30.8744949,4.87103176 C37.9871149,4.32543202 43.6689018,2.43702686 43.6689018,2.43702686" id="Path-16" sketch:type="MSShapeGroup"></path>
            <path d="M18.2303493,11.7441513 C18.2303493,11.7441513 10.1631247,14.5276906 7.64769148,15.2251451 C5.23520035,15.8940567 2.66916528,16.3781754 1.92683528,16.5742401 C1.18450528,16.7703047 8.46724891,22.7451188 8.46724891,23.4846031 C8.46724888,24.115205 1.0742848,28.9603422 1.0742848,28.9603422 C0.157185637,29.5701023 0.282629631,30.2643474 1.36815377,30.5170679 C1.36815377,30.5170679 5.75257859,31.5073387 11.7389906,33.0645528 C19.6035513,35.1103201 23.3707834,36.2990637 23.3707834,36.2990637 C24.4270942,36.6183597 25.2821069,35.988285 25.2804781,34.8714514 L25.2751066,31.1881426" id="Path-17" sketch:type="MSShapeGroup"></path>
            <path d="M55.9985734,52.9925132 C55.5735495,54.7808922 55.6809167,56.6673565 55.6809167,56.6673565 L39.4231339,56.6673565 C39.4231339,56.6673565 39.2637291,55.7709313 38.6783888,54.1662675 C38.0930485,52.5616037 37.5127038,50.8923497 37.5127038,50.8923497 C37.5127038,50.8923497 38.2855692,51.5989454 39.4231339,52.1581319 C40.5606986,52.7173184 41.5707198,52.885659 41.5707198,52.885659 C41.5707198,52.885659 42.2948321,51.3957284 41.885995,49.6993497 C41.4771579,48.002971 40.2941979,46.4212734 40.2941979,46.4212734 C40.2941979,46.4212734 42.8975402,47.174517 44.3779384,48.584115 C45.8583366,49.993713 46.2591342,51.2348992 46.2591342,51.2348992 C46.2591342,51.2348992 47.0716117,49.4817365 48.2902914,47.7254727 C49.5089709,45.9692089 51.7825051,44.4603615 51.7825051,44.4603615 C51.7825051,44.4603615 51.1390208,47.0167155 51.2390219,48.9334803 C51.3390228,50.850245 52.1118246,52.552865 52.1118246,52.552865 C52.1118246,52.552865 54.1099935,51.6740811 55.1473858,50.8923497 C56.184778,50.1106182 57.1273135,49.301116 57.1273135,49.301116 C57.1273135,49.301116 56.4235973,51.2041342 55.9985734,52.9925132 Z" id="Path-18" sketch:type="MSShapeGroup"></path>
        </g>
    </g>
</svg>