<?xml version="1.0" encoding="UTF-8" standalone="no"?>
<svg width="72px" height="72px" viewBox="0 0 72 72" version="1.1" xmlns="http://www.w3.org/2000/svg" xmlns:xlink="http://www.w3.org/1999/xlink" xmlns:sketch="http://www.bohemiancoding.com/sketch/ns">
    <title>Untitled 2</title>
    <description>Created with Sketch (http://www.bohemiancoding.com/sketch)</description>
    <defs></defs>
    <g id="Page-1" stroke="none" stroke-width="1" fill="none" fill-rule="evenodd" sketch:type="MSPage">
        <g id="layer1" sketch:type="MSLayerGroup" transform="translate(6.000000, 6.000000)" stroke-width="1.5" stroke="#5B5B5B">
            <g sketch:type="MSShapeGroup">
                <path d="M2.27966554,24.7556524 C0.841463648,22.3249701 0.0171428571,19.4957154 0.0171428571,16.4760714 C0.0171428571,7.41035714 7.44714286,0.0610714286 16.6125,0.0610714286 C19.1184492,0.0610714286 21.4946701,0.610474228 23.6247676,1.59414748 C25.7725968,1.0638054 28.0151951,0.782857143 30.3217857,0.782857143 C46.0621429,0.782857143 58.8225,13.8660714 58.8225,30.005 C58.8225,32.3649784 58.5496465,34.6596168 58.0345208,36.8575612 C59.2294608,39.1245724 59.905,41.7020854 59.905,44.4357143 C59.905,53.5014286 52.4746429,60.8507143 43.3096429,60.8507143 C40.3865718,60.8507143 37.6400331,60.1032486 35.2547231,58.7910212 C33.6524132,59.077688 32.0041203,59.2271429 30.3217857,59.2271429 C14.5814286,59.2271429 1.82107143,46.1439286 1.82107143,30.005 C1.82107143,28.2129662 1.97839935,26.4586077 2.27966554,24.7556524 Z" id="path24965"></path>
                <path d="M31.035988,8.97627087 L30.8714758,8.95470468 L30.7057602,8.94647898 C27.7466875,8.79959822 24.596681,9.45000082 22.0422312,10.8748786 C18.7431152,12.7151328 16.5898752,15.7377053 16.3043858,19.6004907 C16.0655789,23.684089 17.321521,26.8749917 20.169271,29.1858648 C22.3664644,30.9688285 25.2322339,32.0909751 29.8520559,33.2640312 C30.2584462,33.3702867 31.801929,33.7668058 31.6818978,33.7358283 C35.0318902,34.6003888 36.6160408,35.1493673 37.6760815,35.8618173 C38.4997304,36.4153891 38.7396309,36.8824341 38.6686048,38.0534976 L38.662248,38.2038416 C38.6324045,39.4503828 38.1255791,40.2837554 37.0306373,40.9574648 C35.7113307,41.7692241 33.6800344,42.2130067 31.3626335,42.1344978 C27.5302984,41.9586725 24.6681039,40.2913266 22.5586761,37.5825759 C21.164988,35.7929183 18.5843764,35.4719215 16.7947188,36.8656096 C15.0050611,38.2592977 14.6840644,40.8399093 16.0777525,42.629567 C19.5816739,47.1290097 24.5906134,50.0469228 31.0356475,50.3421271 C34.9117795,50.473734 38.5207209,49.6852793 41.3352555,47.9535174 C44.7380977,45.8597743 46.7758136,42.5091598 46.8741806,38.4004441 L46.8678238,38.5507882 C47.118137,34.423678 45.4605006,31.196546 42.258145,29.0442529 C40.1510845,27.6281043 38.0034522,26.8838543 33.7345705,25.7821483 C33.8396572,25.809269 32.3155369,25.4177242 31.9008831,25.3094095 C28.3372418,24.4044374 26.3582936,23.6295426 25.3451933,22.8074388 C24.6533857,22.2460554 24.4133521,21.6362153 24.5005239,20.1424952 C24.5655613,19.2691893 25.0337423,18.6119886 26.0437509,18.0486036 C27.184159,17.4124814 28.8100234,17.0767785 30.2985255,17.1506639 L29.9682978,17.120872 C33.626818,17.6004739 36.5535424,19.0534127 39.0968607,21.6787916 C40.6751359,23.3079902 43.2753073,23.3492718 44.9045059,21.7709965 C46.5337045,20.1927212 46.574986,17.5925499 44.9967108,15.9633513 C41.1528098,11.9954261 36.5190667,9.69505738 31.035988,8.97627087 Z" id="path24997"></path>
            </g>
        </g>
    </g>
</svg>