<?xml version="1.0" encoding="UTF-8" standalone="no"?>
<svg width="72px" height="72px" viewBox="0 0 72 72" version="1.1" xmlns="http://www.w3.org/2000/svg" xmlns:xlink="http://www.w3.org/1999/xlink" xmlns:sketch="http://www.bohemiancoding.com/sketch/ns">
    <title>Slice 1</title>
    <description>Created with Sketch (http://www.bohemiancoding.com/sketch)</description>
    <defs></defs>
    <g id="Page-1" stroke="none" stroke-width="1" fill="none" fill-rule="evenodd" sketch:type="MSPage">
        <g id="FB-Ads" sketch:type="MSLayerGroup" transform="translate(3.000000, 10.000000)" stroke="#5B5B5B" stroke-width="1.5">
            <path d="M-3.28461179e-17,23.6681223 C-3.28461179e-17,23.6681223 -7.88306829e-16,11.8340611 11.8340611,11.8340611 C35.2063319,11.8340611 41.1233624,0.295851528 59.3737036,-8.41791507e-14 C64.7914847,-0.0198775246 66.3055808,17.4390383 66.3302594,23.6681223 C66.3525123,29.2849757 64.7914847,47.305966 58.6606261,47.2415087 C41.1233624,47.1867008 35.2063319,35.5021834 11.8340611,35.5021834 C4.07291862e-13,35.5021803 -3.28461179e-17,23.6681223 -3.28461179e-17,23.6681223 Z M21.30131,55.7325328 C21.30131,55.7325328 22.8802442,55.9896693 23.2260785,54.2235166 C23.5719127,52.4573639 25.1511358,44.2500842 25.1511358,42.8257209 C25.1511358,41.4013576 24.1511923,40.9428455 23.5719127,40.5906551 C22.9926331,40.2384647 19.8125181,39.3289518 18.4765636,39.3289523 C17.140609,39.3289528 15.4377293,39.3289523 15.4377292,42.4775753 C15.4377292,45.6261983 18.4508499,52.6763633 19.2208151,54.2044481 C19.9907802,55.7325328 21.30131,55.7325328 21.30131,55.7325328 Z" id="Path-3" sketch:type="MSShapeGroup"></path>
            <path d="M18.3427948,11.4790393 C17.5258233,11.4790393 14.7925764,16.9689562 14.7925764,23.6681223 C14.7925764,30.3672884 17.5258233,35.8572052 18.3427948,35.8572052" id="Oval-3" sketch:type="MSShapeGroup"></path>
        </g>
    </g>
</svg>