<?xml version="1.0" encoding="UTF-8" standalone="no"?>
<svg width="72px" height="72px" viewBox="0 0 72 72" version="1.1" xmlns="http://www.w3.org/2000/svg" xmlns:xlink="http://www.w3.org/1999/xlink" xmlns:sketch="http://www.bohemiancoding.com/sketch/ns">
    <title>Slice 1</title>
    <description>Created with Sketch (http://www.bohemiancoding.com/sketch)</description>
    <defs></defs>
    <g id="Page-1" stroke="none" stroke-width="1" fill="none" fill-rule="evenodd" sketch:type="MSPage">
        <path d="M5.82908048,13.8836357 C12.8795342,13.2958515 12.4672492,12.9985052 36.1353713,12.9979589 C59.8034934,12.9974126 59.8034934,13.5457652 66.7814291,13.5915604 C69.0326743,13.8156141 69.1285949,15.9585153 69.1285949,15.9585153 C69.1285949,15.9585153 69.720298,24.8340613 69.720298,36.6681223 C69.7202973,48.5021833 69.1285949,57.3778566 69.1285949,57.3778566 C69.1285949,57.3778566 69.1043259,59.5001173 66.9588245,59.7446688 C59.8034934,59.9031572 59.8034934,60.3363745 36.1353712,60.3363719 C12.4672489,60.3363693 12.8653772,59.9150028 5.9059323,59.7446688 C3.63417393,59.5434549 3.50098296,57.3778566 3.50098296,57.3778566 C3.50098296,57.3778566 2.90927917,48.5021833 2.9092799,36.6681223 C2.90928116,24.8340613 3.50098296,16.2503065 3.50098296,16.2503065 C3.50098296,16.2503065 3.5841912,14.0305688 5.82908048,13.8836357 Z M42.3901463,36.6681223 L30.2062061,30.5621397 L30.2062061,42.8818057 L42.3901463,36.6681223 Z" id="Youtube" stroke="#F26522" stroke-width="1.5" sketch:type="MSShapeGroup"></path>
    </g>
</svg>