<?xml version="1.0" encoding="UTF-8" standalone="no"?>
<svg width="72px" height="72px" viewBox="0 0 72 72" version="1.1" xmlns="http://www.w3.org/2000/svg" xmlns:xlink="http://www.w3.org/1999/xlink" xmlns:sketch="http://www.bohemiancoding.com/sketch/ns">
    <title>Slice 1</title>
    <description>Created with Sketch (http://www.bohemiancoding.com/sketch)</description>
    <defs></defs>
    <g id="Page-1" stroke="none" stroke-width="1" fill="none" fill-rule="evenodd" sketch:type="MSPage">
        <path d="M44.4979524,2.10300016 C44.4979524,2.10300016 35.0157847,1.79866001 30.352966,15.9353164 C26.2295058,30.2886923 32.5952683,46.145591 32.5952683,46.145591 C32.5952683,46.145591 34.9078196,51.2806869 38.9011544,51.2806852 C42.8944892,51.2806836 47.5808824,42.8118345 47.5808824,42.8118345 C47.5808824,42.8118345 53.773144,31.3336078 55.0616671,21.3873342 C56.3501902,11.4410606 52.8179503,2.55787872 44.4979524,2.10300016 Z M11.2478205,17.8037674 C11.2478205,17.8037674 6.41338734,20.4160561 13.658437,33.5832994 C20.9034875,46.7505422 26.7520495,49.9901537 26.7520495,49.9901537 C26.7520495,49.9901537 29.2626183,51.4288936 29.2626173,47.3540952 C29.2626162,43.2792968 23.225468,29.6734877 23.225468,29.6734877 C23.225468,29.6734877 16.0676391,15.8402393 11.2478205,17.8037674 Z M30.6533854,51.6308858 C30.6533854,51.6308858 29.7409677,52.9121531 28.3196808,53.2041628 C26.7374338,53.5292425 24.2966436,52.6488164 21.8827268,49.6583162 C21.8110637,55.4006919 25.4107229,61.5045779 27.8642428,63.8097309 C30.3177629,66.1148839 32.9938165,64.8984567 32.993816,60.9042874 C32.9938154,56.9101181 30.6533854,51.6308858 30.6533854,51.6308858 Z M49.206033,45.2309247 C49.206033,45.2309247 45.102846,52.299579 40.9048939,53.7770022 C36.7069418,55.2544254 34.2364488,52.4405634 33.9172649,52.1077937 C37.8480517,66.4268847 48.9104225,74.4460123 56.5665933,68.1637017 C62.1930938,63.3590466 56.267211,53.2762163 55.6401584,52.4568757 C53.8108621,49.1823093 49.206033,45.2309247 49.206033,45.2309247 Z" id="MSN" stroke="#777777" stroke-width="1.5" sketch:type="MSShapeGroup"></path>
    </g>
</svg>