<?xml version="1.0" encoding="UTF-8" standalone="no"?>
<svg width="72px" height="72px" viewBox="0 0 72 72" version="1.1" xmlns="http://www.w3.org/2000/svg" xmlns:xlink="http://www.w3.org/1999/xlink" xmlns:sketch="http://www.bohemiancoding.com/sketch/ns">
    <title>Slice 1</title>
    <description>Created with Sketch (http://www.bohemiancoding.com/sketch)</description>
    <defs></defs>
    <g id="Page-1" stroke="none" stroke-width="1" fill="none" fill-rule="evenodd" sketch:type="MSPage">
        <path d="M20.4505215,62.0485128 L8.77974116,55.3718383 C7.55518102,54.6712862 6.56617804,52.9588142 6.5717643,51.5475102 L6.67675535,25.0227409 C6.68233952,23.6119647 7.67994364,23.0354712 8.90496185,23.7362853 L31.9285814,36.907745 C33.1531415,37.6082971 34.1421445,39.3207692 34.1365583,40.7320731 L34.0315672,67.2568424 C34.025983,68.6676187 33.0283789,69.2441122 31.8033607,68.5432981 L24.1042823,64.1387733 L24.2125327,52.9568291 L27.9584372,54.9023479 L27.9584372,50.1195531 L24.3612976,48.2470915 L24.3612976,44.6219947 C24.3612976,44.6219947 24.2513813,43.0179715 25.3743836,43.6159831 C26.3729379,44.0825995 28.0568182,44.9546045 28.0568182,44.9546045 L28.1247038,40.6197276 C28.1247038,40.6197276 24.462463,38.5429962 24.0812696,38.3799009 C21.8705696,37.4349134 20.6404449,38.6139569 20.7097965,40.816763 L20.6572912,46.523833 L18.1396913,45.2064117 L18.1396913,49.8331839 L20.558645,51.179527 L20.4505215,62.0485128 Z M33.6405248,2.56606007 L9.28972527,16.7538098 C7.99409177,17.5086977 7.99457625,18.732895 9.28972527,19.4875007 L33.6405248,33.6752503 C34.9361583,34.4301382 37.0372798,34.429856 38.3324288,33.6752503 L62.6832283,19.4875007 C63.9788618,18.7326128 63.9783774,17.5084154 62.6832283,16.7538098 L38.3324288,2.56606007 C37.0367953,1.81117218 34.9356739,1.81145445 33.6405248,2.56606007 Z M37.7426285,40.7690858 L37.8476195,67.2938551 C37.8532058,68.705159 38.8512659,69.2808628 40.075826,68.5803107 L63.0994456,55.408851 C64.3244638,54.7080368 65.3130066,52.9952991 65.3074225,51.5845229 L65.2024314,25.0597536 C65.1968451,23.6484496 64.198785,23.0727459 62.9742249,23.773298 L39.9506053,36.9447577 C38.7255871,37.6455718 37.7370443,39.3583096 37.7426285,40.7690858 Z" id="FB-App" stroke="#5B5B5B" stroke-width="1.5" sketch:type="MSShapeGroup"></path>
    </g>
</svg>