<?xml version="1.0" encoding="UTF-8" standalone="no"?>
<svg width="65px" height="1000px" viewBox="0 0 65 1000" version="1.1" xmlns="http://www.w3.org/2000/svg" xmlns:xlink="http://www.w3.org/1999/xlink" xmlns:sketch="http://www.bohemiancoding.com/sketch/ns">
    <title>Untitled</title>
    <description>Created with Sketch (http://www.bohemiancoding.com/sketch)</description>
    <defs></defs>
    <g id="Page-1" stroke="none" stroke-width="1" fill="none" fill-rule="evenodd" sketch:type="MSPage">
        <g id="ad-flow-step-mobile" sketch:type="MSLayerGroup">
            <g id="Page-1" transform="translate(2.000000, 117.000000)" sketch:type="MSShapeGroup">
                <g id="ad-flow-step-mobile">
                    <g id="Page-1">
                        <path d="M391.770389,356.260861 L391.770389,393.706508 C391.770389,400.334627 386.401691,405.707779 379.770838,405.707779 L-321.352011,405.707779 C-327.97918,405.707779 -333.351562,400.330551 -333.351562,393.714039 L-333.351562,367.470061" id="Path-1" stroke="#9FBB39" stroke-width="10" stroke-linecap="round" transform="translate(29.148438, 380.760861) scale(-1, 1) rotate(90.000000) translate(-29.148438, -380.760861) "></path>
                        <path d="M2.65119839,14.424401 L31.0279241,0.236038 C33.4977834,-0.998892 35.5,0.236284 35.5,3.005322 L35.5,32.994678 C35.5,35.759041 33.4889812,36.994491 31.0279241,35.763962 L2.65119839,21.575599 C-1.29829942,19.60085 -1.29424822,16.397124 2.65119839,14.424401 L2.65119839,14.424401 L2.65119839,14.424401 Z" id="Triangle-1" fill="#9FBB39"></path>
                        <path d="M9.136,212.656 L11.728,212.656 C11.4399986,211.791996 11.1120018,210.984004 10.744,210.232 L12.904,209.944 C13.2240016,210.760004 13.5279986,211.663995 13.816,212.656 L15.496,212.656 C15.7840014,211.583995 16.0079992,210.488006 16.168,209.368 L18.232,209.656 C18.023999,210.696005 17.8000012,211.695995 17.56,212.656 L26.968,212.656 C26.7919991,214.320008 26.5760013,215.727994 26.32,216.88 L28.552,216.88 C28.3759991,218.528008 28.1680012,219.935994 27.928,221.104 L29.776,221.104 C29.7119997,226.480027 29.2400044,229.551996 28.36,230.32 C27.8799976,230.992003 26.2560138,231.328 23.488,231.328 L23.008,228.976 C23.7280036,229.104001 24.3279976,229.168 24.808,229.168 C25.7040045,229.168 26.3999975,228.960002 26.896,228.544 C27.3120021,228.143998 27.5839994,226.288017 27.712,222.976 L13.24,222.976 C12.1999948,224.528008 11.0560062,225.839995 9.808,226.912 L7.936,225.592 C11.1680162,222.615985 13.487993,218.992021 14.896,214.72 L9.136,214.72 L9.136,212.656 L9.136,212.656 Z M16.984,214.72 C16.7599989,215.488004 16.5200013,216.207997 16.264,216.88 L24.136,216.88 C24.2800007,216.271997 24.4079994,215.552004 24.52,214.72 L16.984,214.72 L16.984,214.72 Z M15.472,218.848 C15.1199982,219.648004 14.7520019,220.399996 14.368,221.104 L25.72,221.104 C25.8640007,220.463997 25.9919994,219.712004 26.104,218.848 L15.472,218.848 L15.472,218.848 Z M12.808,224.56 L14.872,224.944 C14.2479969,227.264012 13.3680057,229.263992 12.232,230.944 L10.36,229.72 C11.5280058,228.119992 12.3439977,226.400009 12.808,224.56 L12.808,224.56 L12.808,224.56 Z M17.68,224.752 C18.0960021,226.192007 18.3759993,228.127988 18.52,230.56 L16.264,230.848 C16.2159998,228.303987 16.0640013,226.336007 15.808,224.944 L17.68,224.752 L17.68,224.752 Z M21.04,224.2 C21.6160029,225.592007 22.1199978,227.183991 22.552,228.976 L20.488,229.432 C20.1519983,227.815992 19.7120027,226.256008 19.168,224.752 L21.04,224.2 L21.04,224.2 Z M24.424,223.816 C25.1120034,225.144007 25.6399982,226.359994 26.008,227.464 L24.136,228.136 C23.7839982,226.791993 23.3520026,225.480006 22.84,224.2 L24.424,223.816 L24.424,223.816 Z M8.2,234.496 L29.776,234.496 L29.776,236.656 L18.904,236.656 L18.904,240.544 C21.6720138,242.128008 24.4799858,243.92799 27.328,245.944 L25.84,248.2 C23.0079858,246.007989 20.696009,244.344006 18.904,243.208 L18.904,255.136 L16.456,255.136 L16.456,236.656 L8.2,236.656 L8.2,234.496 L8.2,234.496 Z M9.424,258.232 C11.1040084,259.096004 12.6319931,260.127994 14.008,261.328 L12.616,263.56 C11.1919929,262.087993 9.7200076,260.936004 8.2,260.104 L9.424,258.232 L9.424,258.232 Z M13,268.36 L14.872,269.752 C13.3839926,272.504014 11.6960094,274.91199 9.808,276.976 L8.008,275.008 C9.608008,273.439992 11.2719914,271.224014 13,268.36 L13,268.36 L13,268.36 Z M17.968,257.368 L20.2,257.752 C19.9599988,258.872006 19.6800016,259.903995 19.36,260.848 L29.392,260.848 L29.392,263.008 C28.2879945,265.760014 27.0720066,268.007991 25.744,269.752 L23.968,268.36 C25.0240053,267.079994 25.9999955,265.296011 26.896,263.008 L18.472,263.008 C17.5599954,264.896009 16.4160069,266.391994 15.04,267.496 L13,266.104 C15.7040135,263.879989 17.359997,260.968018 17.968,257.368 L17.968,257.368 L17.968,257.368 Z M19.552,264.88 L21.808,264.88 L21.808,266.752 C22.4640033,269.296013 23.4559934,271.383992 24.784,273.016 C25.8720054,274.360007 27.6239879,275.743993 30.04,277.168 L28.552,279.136 C26.5679901,277.935994 25.0640051,276.768006 24.04,275.632 C22.7119934,274.223993 21.6560039,272.51201 20.872,270.496 C20.279997,272.640011 19.4640052,274.287994 18.424,275.44 C17.3679947,276.736006 15.744011,277.999994 13.552,279.232 L12.136,277.264 C14.9200139,275.663992 16.8399947,273.920009 17.896,272.032 C18.9520053,270.239991 19.5039998,268.480009 19.552,266.752 L19.552,264.88 L19.552,264.88 Z M13,281.368 L15.136,281.656 C14.8479986,282.904006 14.4480026,284.063995 13.936,285.136 L17.392,285.136 L17.392,290.152 C18.0960035,288.983994 18.6399981,287.832006 19.024,286.696 C19.5040024,285.351993 19.8959985,283.552011 20.2,281.296 L22.552,281.656 C22.343999,282.952006 22.1280011,284.079995 21.904,285.04 L29.296,285.04 C29.296,293.472042 29.1680013,298.463992 28.912,300.016 C28.6719988,301.232006 28.2640029,302.031998 27.688,302.416 C27.0159966,302.896002 25.776009,303.136 23.968,303.136 C23.4399974,303.136 22.8400034,303.104 22.168,303.04 L21.808,300.688 C22.5120035,300.816001 23.2319963,300.88 23.968,300.88 C25.4880076,300.88 26.3359991,300.376005 26.512,299.368 C26.8160015,298.119994 26.9919998,294.064034 27.04,287.2 L21.328,287.2 C21.2639997,287.360001 21.2160002,287.495999 21.184,287.608 C20.6719974,289.336009 19.7840063,291.16799 18.52,293.104 L17.392,291.712 L17.392,301.528 L15.328,301.528 L15.328,300.4 L10.936,300.4 L10.936,302.2 L8.872,302.2 L8.872,285.136 L11.848,285.136 C12.3600026,283.967994 12.7439987,282.712007 13,281.368 L13,281.368 L13,281.368 Z M10.936,298.432 L15.328,298.432 L15.328,293.656 L10.936,293.656 L10.936,298.432 L10.936,298.432 Z M10.936,291.784 L15.328,291.784 L15.328,287.104 L10.936,287.104 L10.936,291.784 L10.936,291.784 Z M22.072,290.368 C23.4320068,292.592011 24.4959962,294.503992 25.264,296.104 L23.008,297.592 C22.3359966,295.847991 21.400006,293.848011 20.2,291.592 L22.072,290.368 L22.072,290.368 Z M20.104,305.296 C20.4080015,305.744002 20.6959986,306.239997 20.968,306.784 L29.872,306.784 L29.872,308.656 L26.104,308.656 L26.104,309.784 L28.84,309.784 L28.84,311.368 L26.104,311.368 L26.104,313.912 L15.808,313.912 L15.808,311.368 L12.904,311.368 L12.904,309.784 L15.808,309.784 L15.808,308.656 L11.776,308.656 L11.776,314.104 C11.776,316.08801 11.6240015,318.167989 11.32,320.344 C10.9679982,322.616011 10.3680042,324.847989 9.52,327.04 L7.744,325.432 C8.5280039,323.639991 9.0639986,321.75201 9.352,319.768 C9.5920012,317.73599 9.712,315.848009 9.712,314.104 L9.712,306.784 L18.64,306.784 C18.3679986,306.351998 18.0800015,305.944002 17.776,305.56 L20.104,305.296 L20.104,305.296 Z M17.968,308.656 L17.968,309.784 L23.968,309.784 L23.968,308.656 L17.968,308.656 L17.968,308.656 Z M17.968,311.368 L17.968,312.496 L23.968,312.496 L23.968,311.368 L17.968,311.368 L17.968,311.368 Z M12.04,314.752 L29.776,314.752 L29.776,316.36 L21.808,316.36 L21.808,317.296 L28.264,317.296 L28.264,324.04 L13.36,324.04 L13.36,317.296 L19.84,317.296 L19.84,316.36 L12.04,316.36 L12.04,314.752 L12.04,314.752 Z M26.296,322.528 L26.296,321.232 L21.808,321.232 L21.808,322.528 L26.296,322.528 L26.296,322.528 Z M19.84,322.528 L19.84,321.232 L15.328,321.232 L15.328,322.528 L19.84,322.528 L19.84,322.528 Z M15.328,320.008 L19.84,320.008 L19.84,318.784 L15.328,318.784 L15.328,320.008 L15.328,320.008 Z M21.808,318.784 L21.808,320.008 L26.296,320.008 L26.296,318.784 L21.808,318.784 L21.808,318.784 Z M18.04,324.136 L19.264,325.528 C16.9919886,326.376004 14.7120114,326.999998 12.424,327.4 L11.488,325.432 C14.0000126,325.159999 16.1839907,324.728003 18.04,324.136 L18.04,324.136 L18.04,324.136 Z M22.936,324.136 C25.2560116,324.520002 27.3759904,324.983997 29.296,325.528 L28.168,327.328 C26.1359898,326.607996 24.0480107,326.040002 21.904,325.624 L22.936,324.136 L22.936,324.136 Z M13,329.752 L15.232,330.232 C14.831998,331.080004 14.432002,331.855996 14.032,332.56 L17.776,332.56 L17.776,329.368 L20.2,329.368 L20.2,332.56 L28,332.56 L28,334.624 L20.2,334.624 L20.2,337.816 L29.68,337.816 L29.68,339.976 L20.2,339.976 L20.2,341.848 L17.776,341.848 L17.776,339.976 L8.2,339.976 L8.2,337.816 L17.776,337.816 L17.776,334.624 L12.76,334.624 C11.9759961,335.776006 11.1760041,336.743996 10.36,337.528 L8.776,335.56 C10.6320093,333.815991 12.0399952,331.880011 13,329.752 L13,329.752 L13,329.752 Z M27.424,342.496 L27.424,351.232 L25.168,351.232 L25.168,349.912 L12.904,349.912 L12.904,351.232 L10.648,351.232 L10.648,342.496 L27.424,342.496 L27.424,342.496 Z M12.904,347.848 L25.168,347.848 L25.168,344.56 L12.904,344.56 L12.904,347.848 L12.904,347.848 Z M13.36,353.2 L14.872,354.496 C13.4159927,356.43201 11.6000109,358.183992 9.424,359.752 L8.008,357.88 C9.9920099,356.615994 11.7759921,355.056009 13.36,353.2 L13.36,353.2 L13.36,353.2 Z M13.552,358.816 L15.136,360.232 C14.5919973,361.160005 14.0000032,362.047996 13.36,362.896 L13.36,375.328 L11.2,375.328 L11.2,365.488 C10.5759969,366.160003 9.9200034,366.807997 9.232,367.432 L7.744,365.464 C9.9040108,363.687991 11.8399914,361.472013 13.552,358.816 L13.552,358.816 L13.552,358.816 Z M16.84,354.496 L28.744,354.496 L28.744,356.656 L16.84,356.656 L16.84,354.496 L16.84,354.496 Z M15.616,360.784 L29.968,360.784 L29.968,362.848 L26.488,362.848 L26.488,372.88 C26.488,373.696004 26.288002,374.271998 25.888,374.608 C25.5199982,374.960002 24.8480049,375.136 23.872,375.136 L19.84,375.136 L19.36,372.88 C20.9120078,373.008001 22.191995,373.072 23.2,373.072 C23.8240031,373.072 24.136,372.880002 24.136,372.496 L24.136,362.848 L15.616,362.848 L15.616,360.784 L15.616,360.784 Z M13,377.368 L13.744,377.368 C15.1840072,378.648006 16.4639944,379.991993 17.584,381.4 L16,382.912 C14.8159941,381.327992 13.8400038,380.144004 13.072,379.36 C12.2879961,380.640006 11.4080049,381.887994 10.432,383.104 L16.36,383.104 L16.36,385.072 L13.744,385.072 L13.744,387.04 L17.008,387.04 L17.008,389.008 L13.744,389.008 L13.744,395.944 C14.8800057,395.655999 16.0319942,395.312002 17.2,394.912 L17.2,396.976 C14.6239871,397.840004 11.7520158,398.527997 8.584,399.04 L8.296,396.88 C9.4320057,396.8 10.5919941,396.640001 11.776,396.4 L11.776,389.008 L8.296,389.008 L8.296,387.04 L11.776,387.04 L11.776,385.072 L9.424,385.072 L9.424,384.304 C9.1839988,384.592001 8.9360013,384.879999 8.68,385.168 L7.936,382.816 C9.4240074,381.327993 10.7919938,379.512011 12.04,377.368 L13,377.368 L13,377.368 Z M10,390.232 C10.4640023,391.432006 10.7759992,393.05599 10.936,395.104 L9.04,395.296 C8.9759997,393.183989 8.7600018,391.552006 8.392,390.4 L10,390.232 L10,390.232 Z M15.328,390.136 L16.936,390.496 C16.7919993,391.856007 16.5360018,393.167994 16.168,394.432 L14.488,393.88 C14.9200022,392.711994 15.1999994,391.464007 15.328,390.136 L15.328,390.136 L15.328,390.136 Z M22.36,377.296 L24.52,377.296 L24.52,383.368 L29.104,383.368 L29.104,396.784 C29.104,397.536004 28.9120019,398.111998 28.528,398.512 C28.2079984,398.864002 27.744003,399.04 27.136,399.04 L23.776,399.04 L23.296,396.976 L26.296,397.072 C26.7440022,397.04 26.968,396.760003 26.968,396.232 L26.968,393.976 L20.008,393.976 L20.008,399.328 L17.872,399.328 L17.872,383.368 L22.36,383.368 L22.36,377.296 L22.36,377.296 Z M20.008,392.2 L26.968,392.2 L26.968,389.56 L20.008,389.56 L20.008,392.2 L20.008,392.2 Z M20.008,387.784 L26.968,387.784 L26.968,385.264 L20.008,385.264 L20.008,387.784 L20.008,387.784 Z M18.712,378.136 C19.720005,379.416006 20.5919963,380.791993 21.328,382.264 L19.36,383.104 C18.5759961,381.487992 17.7040048,380.048006 16.744,378.784 L18.712,378.136 L18.712,378.136 Z M28.072,377.848 L29.872,378.688 C29.1679965,380.432009 28.3520046,381.935994 27.424,383.2 L25.456,381.784 C26.4160048,380.647994 27.2879961,379.336007 28.072,377.848 L28.072,377.848 L28.072,377.848 Z M13,401.2 L14.968,402.04 C14.3279968,403.97601 13.6720034,405.623993 13,406.984 L13,423.136 L10.84,423.136 L10.84,410.512 C10.1839967,411.440005 9.4640039,412.367995 8.68,413.296 L7.936,410.656 C8.9760052,409.343993 9.8879961,408.000007 10.672,406.624 C11.472004,405.375994 12.2479962,403.568012 13,401.2 L13,401.2 L13,401.2 Z M18.712,401.2 L21.04,401.656 C20.6559981,402.728005 20.2720019,403.727995 19.888,404.656 L29.776,404.656 L29.776,406.816 L21.424,406.816 L21.424,410.104 L29.2,410.104 L29.2,412.264 L21.424,412.264 L21.424,415.912 L29.2,415.912 L29.2,418.072 L21.424,418.072 L21.424,423.136 L19.168,423.136 L19.168,406.816 L18.928,406.816 C17.919995,408.928011 16.8800054,410.679993 15.808,412.072 L14.104,410.104 C16.1360102,407.431987 17.6719948,404.464016 18.712,401.2 L18.712,401.2 L18.712,401.2 Z M12.52,425.296 C12.728001,426.064004 12.9199991,426.935995 13.096,427.912 L16.168,427.912 L16.168,429.88 L7.84,429.88 L7.84,427.912 L10.912,427.912 C10.719999,427.079996 10.5040012,426.296004 10.264,425.56 L12.52,425.296 L12.52,425.296 Z M8.584,431.368 L15.328,431.368 L15.328,433.264 L8.584,433.264 L8.584,431.368 L8.584,431.368 Z M8.584,434.752 L15.424,434.752 L15.424,436.624 L8.584,436.624 L8.584,434.752 L8.584,434.752 Z M15.232,438.328 L15.232,445.168 L10.744,445.168 L10.744,446.752 L8.584,446.752 L8.584,438.328 L15.232,438.328 L15.232,438.328 Z M10.744,443.2 L13.072,443.2 L13.072,440.296 L10.744,440.296 L10.744,443.2 L10.744,443.2 Z M17.68,425.944 L29.584,425.944 L29.584,444.88 C29.584,445.680004 29.3760021,446.279998 28.96,446.68 C28.5919982,447.048002 27.9840042,447.232 27.136,447.232 L24.808,447.232 L24.328,445.072 L26.68,445.168 C27.2240027,445.152 27.5039999,444.840003 27.52,444.232 L27.52,427.816 L18.712,427.816 L18.712,436.264 C18.712,437.928008 18.616001,439.679991 18.424,441.52 C18.1999989,443.408009 17.8240026,445.279991 17.296,447.136 L15.52,445.528 C15.9680022,444.055993 16.2799991,442.512008 16.456,440.896 C16.5840006,439.215992 16.648,437.672007 16.648,436.264 L16.648,425.944 L17.68,425.944 L17.68,425.944 Z M19.456,429.976 L22.072,429.976 L22.072,428.464 L24.04,428.464 L24.04,429.976 L26.68,429.976 L26.68,431.752 L24.04,431.752 L24.04,433.528 L26.872,433.528 L26.872,435.328 L24.04,435.328 L24.04,436.912 L22.072,436.912 L22.072,435.328 L19.264,435.328 L19.264,433.528 L22.072,433.528 L22.072,431.752 L19.456,431.752 L19.456,429.976 L19.456,429.976 Z M19.84,437.464 L26.104,437.464 L26.104,444.232 L19.84,444.232 L19.84,437.464 L19.84,437.464 Z M24.328,442.36 L24.328,439.36 L21.616,439.36 L21.616,442.36 L24.328,442.36 L24.328,442.36 Z M7.936,450.496 L12.904,450.496 L12.904,449.296 L14.776,449.296 L14.776,450.496 L19.648,450.496 L19.648,452.104 L14.776,452.104 L14.776,453.232 L19,453.232 L19,455.032 C19.9120046,454.247996 20.6799969,453.432004 21.304,452.584 C21.8480027,451.863996 22.3599976,450.792007 22.84,449.368 L24.904,449.56 C24.6479987,450.392004 24.3600016,451.143997 24.04,451.816 L30.04,451.816 L30.04,453.592 L28.84,453.592 C28.3599976,455.000007 27.7760034,456.207995 27.088,457.216 C26.8159986,457.616002 26.5280015,457.983998 26.224,458.32 C27.2640052,459.024004 28.5679922,459.639997 30.136,460.168 L29.008,461.848 C27.2639913,461.159997 25.8800051,460.432004 24.856,459.664 C24.8239998,459.696 24.7840002,459.728 24.736,459.76 C23.5679942,460.576004 22.1520083,461.271997 20.488,461.848 L19.456,460.072 C21.1680086,459.591998 22.4799954,459.040003 23.392,458.416 C23.4240002,458.4 23.44,458.384 23.44,458.368 C22.639996,457.535996 21.9520029,456.608005 21.376,455.584 C20.9279978,456.032002 20.4480026,456.463998 19.936,456.88 L19,455.68 L19,457.72 L14.824,457.72 C16.232007,458.392003 17.6479929,459.143996 19.072,459.976 L18.136,461.464 C16.7759932,460.583996 15.6560044,459.904002 14.776,459.424 L14.776,461.944 L12.904,461.944 L12.904,459.448 C11.7999945,460.344004 10.544007,461.111997 9.136,461.752 L8.104,460.168 C10.0240096,459.463996 11.5599942,458.648005 12.712,457.72 L8.68,457.72 L8.68,453.232 L12.904,453.232 L12.904,452.104 L7.936,452.104 L7.936,450.496 L7.936,450.496 Z M22.648,454.12 C23.256003,455.320006 23.9839958,456.327996 24.832,457.144 C25.1360015,456.807998 25.4239986,456.440002 25.696,456.04 C26.1440022,455.367997 26.5279984,454.552005 26.848,453.592 L23.008,453.592 L22.984,453.64 C22.8719994,453.816001 22.7600006,453.975999 22.648,454.12 L22.648,454.12 L22.648,454.12 Z M17.2,456.232 L17.2,454.72 L14.776,454.72 L14.776,456.232 L17.2,456.232 L17.2,456.232 Z M12.904,456.232 L12.904,454.72 L10.456,454.72 L10.456,456.232 L12.904,456.232 L12.904,456.232 Z M9.328,462.592 L29.2,462.592 L29.2,464.464 L20.296,464.464 L20.296,465.784 L28.36,465.784 L28.36,467.56 L20.296,467.56 L20.296,468.976 L30.04,468.976 L30.04,470.848 L7.936,470.848 L7.936,468.976 L12.232,468.976 L12.232,465.4 L14.392,465.4 L14.392,468.976 L18.136,468.976 L18.136,464.464 L9.328,464.464 L9.328,462.592 L9.328,462.592 Z M14.296,473.464 L15.136,475.624 C14.3039958,476.040002 12.9680092,476.487998 11.128,476.968 L11.176,478.816 L14.68,478.816 L14.68,480.784 L11.248,480.784 L11.344,483.592 L14.488,483.592 L14.488,485.464 L11.392,485.464 L11.464,488.104 L15.208,488.104 L16.072,481.912 L18.232,481.912 L17.368,488.104 L19.456,488.104 L20.104,480.688 L17.464,480.688 L17.392,481.264 L15.328,481.264 L16.36,473.2 L18.424,473.2 L18.208,474.88 L22.072,474.88 L22.072,476.752 L17.968,476.752 L17.704,478.816 L22.36,478.816 L21.616,488.104 L26.512,488.104 L26.584,485.56 L23.2,485.56 L23.2,483.592 L26.632,483.592 L26.728,480.784 L23.2,480.784 L23.2,478.816 L26.8,478.816 L26.872,476.368 L23.2,476.368 L23.2,474.4 L29.008,474.4 L28.576,488.104 L29.968,488.104 L29.968,490.168 L7.84,490.168 L7.84,488.104 L9.4,488.104 L9.04,475.168 C10.6880082,474.959999 12.4399907,474.392005 14.296,473.464 L14.296,473.464 L14.296,473.464 Z M15.136,490.528 L16.744,491.944 C14.8239904,493.192006 12.4160145,494.319995 9.52,495.328 L8.008,493.36 C10.6640133,492.591996 13.0399895,491.648006 15.136,490.528 L15.136,490.528 L15.136,490.528 Z M22.552,490.432 C25.144013,491.248004 27.5199892,492.223994 29.68,493.36 L28.264,495.496 C26.0239888,494.103993 23.7120119,493.016004 21.328,492.232 L22.552,490.432 L22.552,490.432 Z M10.456,497.752 C11.9920077,498.296003 13.3999936,498.951996 14.68,499.72 L13.36,501.688 C12.0639935,500.743995 10.720007,499.992003 9.328,499.432 L10.456,497.752 L10.456,497.752 Z M8.968,502.072 C10.360007,502.584003 11.6399942,503.207996 12.808,503.944 L11.488,506.008 C10.3039941,505.095995 9.0880062,504.376003 7.84,503.848 L8.968,502.072 L8.968,502.072 Z M12.424,505.816 L13.84,507.496 C12.8639951,509.368009 11.6400074,511.119992 10.168,512.752 L8.584,510.88 C10.0560074,509.359992 11.3359946,507.672009 12.424,505.816 L12.424,505.816 L12.424,505.816 Z M17.488,497.368 L19.648,497.848 C19.3279984,498.552004 19.0080016,499.207997 18.688,499.816 L21.88,499.816 C21.5439983,499.079996 21.176002,498.392003 20.776,497.752 L23.104,497.464 C23.4720018,498.168004 23.8239983,498.951996 24.16,499.816 L29.392,499.816 L29.392,501.688 L24.136,501.688 L24.136,503.104 L28.744,503.104 L28.744,504.88 L24.136,504.88 L24.136,506.296 L28.744,506.296 L28.744,508.072 L24.136,508.072 L24.136,509.56 L29.776,509.56 L29.776,511.528 L20.008,511.528 L20.008,513.136 L30.04,513.136 L30.04,515.2 L20.008,515.2 L20.008,519.328 L17.776,519.328 L17.776,515.2 L7.84,515.2 L7.84,513.136 L17.776,513.136 L17.776,511.528 L15.232,511.528 L15.232,505.192 C14.9439986,505.512002 14.6640014,505.815999 14.392,506.104 L12.904,504.232 C14.9360102,502.16799 16.4639949,499.880013 17.488,497.368 L17.488,497.368 L17.488,497.368 Z M22,509.56 L22,508.072 L17.488,508.072 L17.488,509.56 L22,509.56 L22,509.56 Z M22,506.296 L22,504.88 L17.488,504.88 L17.488,506.296 L22,506.296 L22,506.296 Z M22,503.104 L22,501.688 L17.68,501.688 C17.6159997,501.800001 17.5520003,501.904 17.488,502 L17.488,503.104 L22,503.104 L22,503.104 Z M12.52,521.368 L14.488,522.232 C13.895997,524.18401 13.2720033,525.839993 12.616,527.2 L12.616,543.136 L10.456,543.136 L10.456,530.824 C9.9119973,531.608004 9.3200032,532.399996 8.68,533.2 L7.936,530.56 C8.8640046,529.295994 9.6879964,527.992007 10.408,526.648 C11.1440037,525.431994 11.8479966,523.672012 12.52,521.368 L12.52,521.368 L12.52,521.368 Z M14.584,523.264 L17.68,523.264 L17.68,521.296 L19.744,521.296 L19.744,523.264 L23.68,523.264 L23.68,521.296 L25.744,521.296 L25.744,523.264 L29.392,523.264 L29.392,525.136 L25.744,525.136 L25.744,527.296 L29.968,527.296 L29.968,529.264 L17.008,529.264 L17.008,530.464 C17.008,533.152013 16.8400017,535.375991 16.504,537.136 C16.1679983,538.880009 15.5280047,540.655991 14.584,542.464 L12.808,540.88 C13.5760038,539.503993 14.1199984,538.008008 14.44,536.392 C14.7280014,535.095994 14.872,533.120013 14.872,530.464 L14.872,529.264 L13.36,529.264 L13.36,527.296 L17.68,527.296 L17.68,525.136 L14.584,525.136 L14.584,523.264 L14.584,523.264 Z M23.68,527.296 L23.68,525.136 L19.744,525.136 L19.744,527.296 L23.68,527.296 L23.68,527.296 Z M28.84,530.464 L28.84,541.168 C28.84,541.888004 28.640002,542.439998 28.24,542.824 C27.9199984,543.160002 27.464003,543.328 26.872,543.328 L25.36,543.328 L24.904,541.36 L26.104,541.432 C26.5520022,541.4 26.776,541.120003 26.776,540.592 L26.776,539.368 L24.232,539.368 L24.232,543.136 L22.264,543.136 L22.264,539.368 L19.744,539.368 L19.744,543.136 L17.68,543.136 L17.68,530.464 L28.84,530.464 L28.84,530.464 Z M19.744,537.688 L22.264,537.688 L22.264,535.816 L19.744,535.816 L19.744,537.688 L19.744,537.688 Z M24.232,535.816 L24.232,537.688 L26.776,537.688 L26.776,535.816 L24.232,535.816 L24.232,535.816 Z M19.744,534.136 L22.264,534.136 L22.264,532.36 L19.744,532.36 L19.744,534.136 L19.744,534.136 Z M24.232,532.36 L24.232,534.136 L26.776,534.136 L26.776,532.36 L24.232,532.36 L24.232,532.36 Z" id="為" fill="#9FBB39"></path>
                    </g>
                </g>
            </g>
        </g>
    </g>
</svg>