<?xml version="1.0" encoding="UTF-8" standalone="no"?>
<svg width="65px" height="1040px" viewBox="0 0 65 1040" version="1.1" xmlns="http://www.w3.org/2000/svg" xmlns:xlink="http://www.w3.org/1999/xlink" xmlns:sketch="http://www.bohemiancoding.com/sketch/ns">
    <title>Untitled 2</title>
    <description>Created with Sketch (http://www.bohemiancoding.com/sketch)</description>
    <defs></defs>
    <g id="Page-1" stroke="none" stroke-width="1" fill="none" fill-rule="evenodd" sketch:type="MSPage">
        <g id="ad-flow-step-mobile" sketch:type="MSLayerGroup" transform="translate(1.000000, 149.000000)">
            <g id="Page-1" sketch:type="MSShapeGroup">
                <path d="M390.770389,356.260861 L390.770389,405.707779 L-334.351562,405.707779 L-334.351562,367.470061" id="Path-1" stroke="#8E9C57" stroke-width="8" stroke-linecap="round" transform="translate(28.148438, 380.760861) scale(-1, 1) rotate(90.000000) translate(-28.148438, -380.760861) "></path>
                <path d="M2.65119839,14.424401 L31.0279241,0.236038 C33.4977834,-0.998892 35.5,0.236284 35.5,3.005322 L35.5,32.994678 C35.5,35.759041 33.4889812,36.994491 31.0279241,35.763962 L2.65119839,21.575599 C-1.29829942,19.60085 -1.29424822,16.397124 2.65119839,14.424401 L2.65119839,14.424401 Z" id="Triangle-1" fill="#8E9C57"></path>
                <path d="M8.136,212.656 L10.728,212.656 C10.4399986,211.791996 10.1120018,210.984004 9.744,210.232 L11.904,209.944 C12.2240016,210.760004 12.5279986,211.663995 12.816,212.656 L14.496,212.656 C14.7840014,211.583995 15.0079992,210.488006 15.168,209.368 L17.232,209.656 C17.023999,210.696005 16.8000012,211.695995 16.56,212.656 L25.968,212.656 C25.7919991,214.320008 25.5760013,215.727994 25.32,216.88 L27.552,216.88 C27.3759991,218.528008 27.1680012,219.935994 26.928,221.104 L28.776,221.104 C28.7119997,226.480027 28.2400044,229.551996 27.36,230.32 C26.8799976,230.992003 25.2560138,231.328 22.488,231.328 L22.008,228.976 C22.7280036,229.104001 23.3279976,229.168 23.808,229.168 C24.7040045,229.168 25.3999975,228.960002 25.896,228.544 C26.3120021,228.143998 26.5839994,226.288017 26.712,222.976 L12.24,222.976 C11.1999948,224.528008 10.0560062,225.839995 8.808,226.912 L6.936,225.592 C10.1680162,222.615985 12.487993,218.992021 13.896,214.72 L8.136,214.72 L8.136,212.656 L8.136,212.656 Z M15.984,214.72 C15.7599989,215.488004 15.5200013,216.207997 15.264,216.88 L23.136,216.88 C23.2800007,216.271997 23.4079994,215.552004 23.52,214.72 L15.984,214.72 L15.984,214.72 Z M14.472,218.848 C14.1199982,219.648004 13.7520019,220.399996 13.368,221.104 L24.72,221.104 C24.8640007,220.463997 24.9919994,219.712004 25.104,218.848 L14.472,218.848 L14.472,218.848 Z M11.808,224.56 L13.872,224.944 C13.2479969,227.264012 12.3680057,229.263992 11.232,230.944 L9.36,229.72 C10.5280058,228.119992 11.3439977,226.400009 11.808,224.56 L11.808,224.56 Z M16.68,224.752 C17.0960021,226.192007 17.3759993,228.127988 17.52,230.56 L15.264,230.848 C15.2159998,228.303987 15.0640013,226.336007 14.808,224.944 L16.68,224.752 L16.68,224.752 Z M20.04,224.2 C20.6160029,225.592007 21.1199978,227.183991 21.552,228.976 L19.488,229.432 C19.1519983,227.815992 18.7120027,226.256008 18.168,224.752 L20.04,224.2 L20.04,224.2 Z M23.424,223.816 C24.1120034,225.144007 24.6399982,226.359994 25.008,227.464 L23.136,228.136 C22.7839982,226.791993 22.3520026,225.480006 21.84,224.2 L23.424,223.816 L23.424,223.816 Z M7.2,234.496 L28.776,234.496 L28.776,236.656 L17.904,236.656 L17.904,240.544 C20.6720138,242.128008 23.4799858,243.92799 26.328,245.944 L24.84,248.2 C22.0079858,246.007989 19.696009,244.344006 17.904,243.208 L17.904,255.136 L15.456,255.136 L15.456,236.656 L7.2,236.656 L7.2,234.496 L7.2,234.496 Z M8.424,258.232 C10.1040084,259.096004 11.6319931,260.127994 13.008,261.328 L11.616,263.56 C10.1919929,262.087993 8.7200076,260.936004 7.2,260.104 L8.424,258.232 L8.424,258.232 Z M12,268.36 L13.872,269.752 C12.3839926,272.504014 10.6960094,274.91199 8.808,276.976 L7.008,275.008 C8.608008,273.439992 10.2719914,271.224014 12,268.36 L12,268.36 Z M16.968,257.368 L19.2,257.752 C18.9599988,258.872006 18.6800016,259.903995 18.36,260.848 L28.392,260.848 L28.392,263.008 C27.2879945,265.760014 26.0720066,268.007991 24.744,269.752 L22.968,268.36 C24.0240053,267.079994 24.9999955,265.296011 25.896,263.008 L17.472,263.008 C16.5599954,264.896009 15.4160069,266.391994 14.04,267.496 L12,266.104 C14.7040135,263.879989 16.359997,260.968018 16.968,257.368 L16.968,257.368 Z M18.552,264.88 L20.808,264.88 L20.808,266.752 C21.4640033,269.296013 22.4559934,271.383992 23.784,273.016 C24.8720054,274.360007 26.6239879,275.743993 29.04,277.168 L27.552,279.136 C25.5679901,277.935994 24.0640051,276.768006 23.04,275.632 C21.7119934,274.223993 20.6560039,272.51201 19.872,270.496 C19.279997,272.640011 18.4640052,274.287994 17.424,275.44 C16.3679947,276.736006 14.744011,277.999994 12.552,279.232 L11.136,277.264 C13.9200139,275.663992 15.8399947,273.920009 16.896,272.032 C17.9520053,270.239991 18.5039998,268.480009 18.552,266.752 L18.552,264.88 L18.552,264.88 Z M12,281.368 L14.136,281.656 C13.8479986,282.904006 13.4480026,284.063995 12.936,285.136 L16.392,285.136 L16.392,290.152 C17.0960035,288.983994 17.6399981,287.832006 18.024,286.696 C18.5040024,285.351993 18.8959985,283.552011 19.2,281.296 L21.552,281.656 C21.343999,282.952006 21.1280011,284.079995 20.904,285.04 L28.296,285.04 C28.296,293.472042 28.1680013,298.463992 27.912,300.016 C27.6719988,301.232006 27.2640029,302.031998 26.688,302.416 C26.0159966,302.896002 24.776009,303.136 22.968,303.136 C22.4399974,303.136 21.8400034,303.104 21.168,303.04 L20.808,300.688 C21.5120035,300.816001 22.2319963,300.88 22.968,300.88 C24.4880076,300.88 25.3359991,300.376005 25.512,299.368 C25.8160015,298.119994 25.9919998,294.064034 26.04,287.2 L20.328,287.2 C20.2639997,287.360001 20.2160002,287.495999 20.184,287.608 C19.6719974,289.336009 18.7840063,291.16799 17.52,293.104 L16.392,291.712 L16.392,301.528 L14.328,301.528 L14.328,300.4 L9.936,300.4 L9.936,302.2 L7.872,302.2 L7.872,285.136 L10.848,285.136 C11.3600026,283.967994 11.7439987,282.712007 12,281.368 L12,281.368 Z M9.936,298.432 L14.328,298.432 L14.328,293.656 L9.936,293.656 L9.936,298.432 L9.936,298.432 Z M9.936,291.784 L14.328,291.784 L14.328,287.104 L9.936,287.104 L9.936,291.784 L9.936,291.784 Z M21.072,290.368 C22.4320068,292.592011 23.4959962,294.503992 24.264,296.104 L22.008,297.592 C21.3359966,295.847991 20.400006,293.848011 19.2,291.592 L21.072,290.368 L21.072,290.368 Z M19.104,305.296 C19.4080015,305.744002 19.6959986,306.239997 19.968,306.784 L28.872,306.784 L28.872,308.656 L25.104,308.656 L25.104,309.784 L27.84,309.784 L27.84,311.368 L25.104,311.368 L25.104,313.912 L14.808,313.912 L14.808,311.368 L11.904,311.368 L11.904,309.784 L14.808,309.784 L14.808,308.656 L10.776,308.656 L10.776,314.104 C10.776,316.08801 10.6240015,318.167989 10.32,320.344 C9.9679982,322.616011 9.3680042,324.847989 8.52,327.04 L6.744,325.432 C7.5280039,323.639991 8.0639986,321.75201 8.352,319.768 C8.5920012,317.73599 8.712,315.848009 8.712,314.104 L8.712,306.784 L17.64,306.784 C17.3679986,306.351998 17.0800015,305.944002 16.776,305.56 L19.104,305.296 L19.104,305.296 Z M16.968,308.656 L16.968,309.784 L22.968,309.784 L22.968,308.656 L16.968,308.656 L16.968,308.656 Z M16.968,311.368 L16.968,312.496 L22.968,312.496 L22.968,311.368 L16.968,311.368 L16.968,311.368 Z M11.04,314.752 L28.776,314.752 L28.776,316.36 L20.808,316.36 L20.808,317.296 L27.264,317.296 L27.264,324.04 L12.36,324.04 L12.36,317.296 L18.84,317.296 L18.84,316.36 L11.04,316.36 L11.04,314.752 L11.04,314.752 Z M25.296,322.528 L25.296,321.232 L20.808,321.232 L20.808,322.528 L25.296,322.528 L25.296,322.528 Z M18.84,322.528 L18.84,321.232 L14.328,321.232 L14.328,322.528 L18.84,322.528 L18.84,322.528 Z M14.328,320.008 L18.84,320.008 L18.84,318.784 L14.328,318.784 L14.328,320.008 L14.328,320.008 Z M20.808,318.784 L20.808,320.008 L25.296,320.008 L25.296,318.784 L20.808,318.784 L20.808,318.784 Z M17.04,324.136 L18.264,325.528 C15.9919886,326.376004 13.7120114,326.999998 11.424,327.4 L10.488,325.432 C13.0000126,325.159999 15.1839907,324.728003 17.04,324.136 L17.04,324.136 Z M21.936,324.136 C24.2560116,324.520002 26.3759904,324.983997 28.296,325.528 L27.168,327.328 C25.1359898,326.607996 23.0480107,326.040002 20.904,325.624 L21.936,324.136 L21.936,324.136 Z M12,329.752 L14.232,330.232 C13.831998,331.080004 13.432002,331.855996 13.032,332.56 L16.776,332.56 L16.776,329.368 L19.2,329.368 L19.2,332.56 L27,332.56 L27,334.624 L19.2,334.624 L19.2,337.816 L28.68,337.816 L28.68,339.976 L19.2,339.976 L19.2,341.848 L16.776,341.848 L16.776,339.976 L7.2,339.976 L7.2,337.816 L16.776,337.816 L16.776,334.624 L11.76,334.624 C10.9759961,335.776006 10.1760041,336.743996 9.36,337.528 L7.776,335.56 C9.6320093,333.815991 11.0399952,331.880011 12,329.752 L12,329.752 Z M26.424,342.496 L26.424,351.232 L24.168,351.232 L24.168,349.912 L11.904,349.912 L11.904,351.232 L9.648,351.232 L9.648,342.496 L26.424,342.496 L26.424,342.496 Z M11.904,347.848 L24.168,347.848 L24.168,344.56 L11.904,344.56 L11.904,347.848 L11.904,347.848 Z M12.36,353.2 L13.872,354.496 C12.4159927,356.43201 10.6000109,358.183992 8.424,359.752 L7.008,357.88 C8.9920099,356.615994 10.7759921,355.056009 12.36,353.2 L12.36,353.2 Z M12.552,358.816 L14.136,360.232 C13.5919973,361.160005 13.0000032,362.047996 12.36,362.896 L12.36,375.328 L10.2,375.328 L10.2,365.488 C9.5759969,366.160003 8.9200034,366.807997 8.232,367.432 L6.744,365.464 C8.9040108,363.687991 10.8399914,361.472013 12.552,358.816 L12.552,358.816 Z M15.84,354.496 L27.744,354.496 L27.744,356.656 L15.84,356.656 L15.84,354.496 L15.84,354.496 Z M14.616,360.784 L28.968,360.784 L28.968,362.848 L25.488,362.848 L25.488,372.88 C25.488,373.696004 25.288002,374.271998 24.888,374.608 C24.5199982,374.960002 23.8480049,375.136 22.872,375.136 L18.84,375.136 L18.36,372.88 C19.9120078,373.008001 21.191995,373.072 22.2,373.072 C22.8240031,373.072 23.136,372.880002 23.136,372.496 L23.136,362.848 L14.616,362.848 L14.616,360.784 L14.616,360.784 Z M12,377.368 L12.744,377.368 C14.1840072,378.648006 15.4639944,379.991993 16.584,381.4 L15,382.912 C13.8159941,381.327992 12.8400038,380.144004 12.072,379.36 C11.2879961,380.640006 10.4080049,381.887994 9.432,383.104 L15.36,383.104 L15.36,385.072 L12.744,385.072 L12.744,387.04 L16.008,387.04 L16.008,389.008 L12.744,389.008 L12.744,395.944 C13.8800057,395.655999 15.0319942,395.312002 16.2,394.912 L16.2,396.976 C13.6239871,397.840004 10.7520158,398.527997 7.584,399.04 L7.296,396.88 C8.4320057,396.8 9.5919941,396.640001 10.776,396.4 L10.776,389.008 L7.296,389.008 L7.296,387.04 L10.776,387.04 L10.776,385.072 L8.424,385.072 L8.424,384.304 C8.1839988,384.592001 7.9360013,384.879999 7.68,385.168 L6.936,382.816 C8.4240074,381.327993 9.7919938,379.512011 11.04,377.368 L12,377.368 L12,377.368 Z M9,390.232 C9.4640023,391.432006 9.7759992,393.05599 9.936,395.104 L8.04,395.296 C7.9759997,393.183989 7.7600018,391.552006 7.392,390.4 L9,390.232 L9,390.232 Z M14.328,390.136 L15.936,390.496 C15.7919993,391.856007 15.5360018,393.167994 15.168,394.432 L13.488,393.88 C13.9200022,392.711994 14.1999994,391.464007 14.328,390.136 L14.328,390.136 Z M21.36,377.296 L23.52,377.296 L23.52,383.368 L28.104,383.368 L28.104,396.784 C28.104,397.536004 27.9120019,398.111998 27.528,398.512 C27.2079984,398.864002 26.744003,399.04 26.136,399.04 L22.776,399.04 L22.296,396.976 L25.296,397.072 C25.7440022,397.04 25.968,396.760003 25.968,396.232 L25.968,393.976 L19.008,393.976 L19.008,399.328 L16.872,399.328 L16.872,383.368 L21.36,383.368 L21.36,377.296 L21.36,377.296 Z M19.008,392.2 L25.968,392.2 L25.968,389.56 L19.008,389.56 L19.008,392.2 L19.008,392.2 Z M19.008,387.784 L25.968,387.784 L25.968,385.264 L19.008,385.264 L19.008,387.784 L19.008,387.784 Z M17.712,378.136 C18.720005,379.416006 19.5919963,380.791993 20.328,382.264 L18.36,383.104 C17.5759961,381.487992 16.7040048,380.048006 15.744,378.784 L17.712,378.136 L17.712,378.136 Z M27.072,377.848 L28.872,378.688 C28.1679965,380.432009 27.3520046,381.935994 26.424,383.2 L24.456,381.784 C25.4160048,380.647994 26.2879961,379.336007 27.072,377.848 L27.072,377.848 Z M12,401.2 L13.968,402.04 C13.3279968,403.97601 12.6720034,405.623993 12,406.984 L12,423.136 L9.84,423.136 L9.84,410.512 C9.1839967,411.440005 8.4640039,412.367995 7.68,413.296 L6.936,410.656 C7.9760052,409.343993 8.8879961,408.000007 9.672,406.624 C10.472004,405.375994 11.2479962,403.568012 12,401.2 L12,401.2 Z M17.712,401.2 L20.04,401.656 C19.6559981,402.728005 19.2720019,403.727995 18.888,404.656 L28.776,404.656 L28.776,406.816 L20.424,406.816 L20.424,410.104 L28.2,410.104 L28.2,412.264 L20.424,412.264 L20.424,415.912 L28.2,415.912 L28.2,418.072 L20.424,418.072 L20.424,423.136 L18.168,423.136 L18.168,406.816 L17.928,406.816 C16.919995,408.928011 15.8800054,410.679993 14.808,412.072 L13.104,410.104 C15.1360102,407.431987 16.6719948,404.464016 17.712,401.2 L17.712,401.2 Z M11.52,425.296 C11.728001,426.064004 11.9199991,426.935995 12.096,427.912 L15.168,427.912 L15.168,429.88 L6.84,429.88 L6.84,427.912 L9.912,427.912 C9.719999,427.079996 9.5040012,426.296004 9.264,425.56 L11.52,425.296 L11.52,425.296 Z M7.584,431.368 L14.328,431.368 L14.328,433.264 L7.584,433.264 L7.584,431.368 L7.584,431.368 Z M7.584,434.752 L14.424,434.752 L14.424,436.624 L7.584,436.624 L7.584,434.752 L7.584,434.752 Z M14.232,438.328 L14.232,445.168 L9.744,445.168 L9.744,446.752 L7.584,446.752 L7.584,438.328 L14.232,438.328 L14.232,438.328 Z M9.744,443.2 L12.072,443.2 L12.072,440.296 L9.744,440.296 L9.744,443.2 L9.744,443.2 Z M16.68,425.944 L28.584,425.944 L28.584,444.88 C28.584,445.680004 28.3760021,446.279998 27.96,446.68 C27.5919982,447.048002 26.9840042,447.232 26.136,447.232 L23.808,447.232 L23.328,445.072 L25.68,445.168 C26.2240027,445.152 26.5039999,444.840003 26.52,444.232 L26.52,427.816 L17.712,427.816 L17.712,436.264 C17.712,437.928008 17.616001,439.679991 17.424,441.52 C17.1999989,443.408009 16.8240026,445.279991 16.296,447.136 L14.52,445.528 C14.9680022,444.055993 15.2799991,442.512008 15.456,440.896 C15.5840006,439.215992 15.648,437.672007 15.648,436.264 L15.648,425.944 L16.68,425.944 L16.68,425.944 Z M18.456,429.976 L21.072,429.976 L21.072,428.464 L23.04,428.464 L23.04,429.976 L25.68,429.976 L25.68,431.752 L23.04,431.752 L23.04,433.528 L25.872,433.528 L25.872,435.328 L23.04,435.328 L23.04,436.912 L21.072,436.912 L21.072,435.328 L18.264,435.328 L18.264,433.528 L21.072,433.528 L21.072,431.752 L18.456,431.752 L18.456,429.976 L18.456,429.976 Z M18.84,437.464 L25.104,437.464 L25.104,444.232 L18.84,444.232 L18.84,437.464 L18.84,437.464 Z M23.328,442.36 L23.328,439.36 L20.616,439.36 L20.616,442.36 L23.328,442.36 L23.328,442.36 Z M6.936,450.496 L11.904,450.496 L11.904,449.296 L13.776,449.296 L13.776,450.496 L18.648,450.496 L18.648,452.104 L13.776,452.104 L13.776,453.232 L18,453.232 L18,455.032 C18.9120046,454.247996 19.6799969,453.432004 20.304,452.584 C20.8480027,451.863996 21.3599976,450.792007 21.84,449.368 L23.904,449.56 C23.6479987,450.392004 23.3600016,451.143997 23.04,451.816 L29.04,451.816 L29.04,453.592 L27.84,453.592 C27.3599976,455.000007 26.7760034,456.207995 26.088,457.216 C25.8159986,457.616002 25.5280015,457.983998 25.224,458.32 C26.2640052,459.024004 27.5679922,459.639997 29.136,460.168 L28.008,461.848 C26.2639913,461.159997 24.8800051,460.432004 23.856,459.664 C23.8239998,459.696 23.7840002,459.728 23.736,459.76 C22.5679942,460.576004 21.1520083,461.271997 19.488,461.848 L18.456,460.072 C20.1680086,459.591998 21.4799954,459.040003 22.392,458.416 C22.4240002,458.4 22.44,458.384 22.44,458.368 C21.639996,457.535996 20.9520029,456.608005 20.376,455.584 C19.9279978,456.032002 19.4480026,456.463998 18.936,456.88 L18,455.68 L18,457.72 L13.824,457.72 C15.232007,458.392003 16.6479929,459.143996 18.072,459.976 L17.136,461.464 C15.7759932,460.583996 14.6560044,459.904002 13.776,459.424 L13.776,461.944 L11.904,461.944 L11.904,459.448 C10.7999945,460.344004 9.544007,461.111997 8.136,461.752 L7.104,460.168 C9.0240096,459.463996 10.5599942,458.648005 11.712,457.72 L7.68,457.72 L7.68,453.232 L11.904,453.232 L11.904,452.104 L6.936,452.104 L6.936,450.496 L6.936,450.496 Z M21.648,454.12 C22.256003,455.320006 22.9839958,456.327996 23.832,457.144 C24.1360015,456.807998 24.4239986,456.440002 24.696,456.04 C25.1440022,455.367997 25.5279984,454.552005 25.848,453.592 L22.008,453.592 L21.984,453.64 C21.8719994,453.816001 21.7600006,453.975999 21.648,454.12 L21.648,454.12 Z M16.2,456.232 L16.2,454.72 L13.776,454.72 L13.776,456.232 L16.2,456.232 L16.2,456.232 Z M11.904,456.232 L11.904,454.72 L9.456,454.72 L9.456,456.232 L11.904,456.232 L11.904,456.232 Z M8.328,462.592 L28.2,462.592 L28.2,464.464 L19.296,464.464 L19.296,465.784 L27.36,465.784 L27.36,467.56 L19.296,467.56 L19.296,468.976 L29.04,468.976 L29.04,470.848 L6.936,470.848 L6.936,468.976 L11.232,468.976 L11.232,465.4 L13.392,465.4 L13.392,468.976 L17.136,468.976 L17.136,464.464 L8.328,464.464 L8.328,462.592 L8.328,462.592 Z M13.296,473.464 L14.136,475.624 C13.3039958,476.040002 11.9680092,476.487998 10.128,476.968 L10.176,478.816 L13.68,478.816 L13.68,480.784 L10.248,480.784 L10.344,483.592 L13.488,483.592 L13.488,485.464 L10.392,485.464 L10.464,488.104 L14.208,488.104 L15.072,481.912 L17.232,481.912 L16.368,488.104 L18.456,488.104 L19.104,480.688 L16.464,480.688 L16.392,481.264 L14.328,481.264 L15.36,473.2 L17.424,473.2 L17.208,474.88 L21.072,474.88 L21.072,476.752 L16.968,476.752 L16.704,478.816 L21.36,478.816 L20.616,488.104 L25.512,488.104 L25.584,485.56 L22.2,485.56 L22.2,483.592 L25.632,483.592 L25.728,480.784 L22.2,480.784 L22.2,478.816 L25.8,478.816 L25.872,476.368 L22.2,476.368 L22.2,474.4 L28.008,474.4 L27.576,488.104 L28.968,488.104 L28.968,490.168 L6.84,490.168 L6.84,488.104 L8.4,488.104 L8.04,475.168 C9.6880082,474.959999 11.4399907,474.392005 13.296,473.464 L13.296,473.464 Z M14.136,490.528 L15.744,491.944 C13.8239904,493.192006 11.4160145,494.319995 8.52,495.328 L7.008,493.36 C9.6640133,492.591996 12.0399895,491.648006 14.136,490.528 L14.136,490.528 Z M21.552,490.432 C24.144013,491.248004 26.5199892,492.223994 28.68,493.36 L27.264,495.496 C25.0239888,494.103993 22.7120119,493.016004 20.328,492.232 L21.552,490.432 L21.552,490.432 Z M9.456,497.752 C10.9920077,498.296003 12.3999936,498.951996 13.68,499.72 L12.36,501.688 C11.0639935,500.743995 9.720007,499.992003 8.328,499.432 L9.456,497.752 L9.456,497.752 Z M7.968,502.072 C9.360007,502.584003 10.6399942,503.207996 11.808,503.944 L10.488,506.008 C9.3039941,505.095995 8.0880062,504.376003 6.84,503.848 L7.968,502.072 L7.968,502.072 Z M11.424,505.816 L12.84,507.496 C11.8639951,509.368009 10.6400074,511.119992 9.168,512.752 L7.584,510.88 C9.0560074,509.359992 10.3359946,507.672009 11.424,505.816 L11.424,505.816 Z M16.488,497.368 L18.648,497.848 C18.3279984,498.552004 18.0080016,499.207997 17.688,499.816 L20.88,499.816 C20.5439983,499.079996 20.176002,498.392003 19.776,497.752 L22.104,497.464 C22.4720018,498.168004 22.8239983,498.951996 23.16,499.816 L28.392,499.816 L28.392,501.688 L23.136,501.688 L23.136,503.104 L27.744,503.104 L27.744,504.88 L23.136,504.88 L23.136,506.296 L27.744,506.296 L27.744,508.072 L23.136,508.072 L23.136,509.56 L28.776,509.56 L28.776,511.528 L19.008,511.528 L19.008,513.136 L29.04,513.136 L29.04,515.2 L19.008,515.2 L19.008,519.328 L16.776,519.328 L16.776,515.2 L6.84,515.2 L6.84,513.136 L16.776,513.136 L16.776,511.528 L14.232,511.528 L14.232,505.192 C13.9439986,505.512002 13.6640014,505.815999 13.392,506.104 L11.904,504.232 C13.9360102,502.16799 15.4639949,499.880013 16.488,497.368 L16.488,497.368 Z M21,509.56 L21,508.072 L16.488,508.072 L16.488,509.56 L21,509.56 L21,509.56 Z M21,506.296 L21,504.88 L16.488,504.88 L16.488,506.296 L21,506.296 L21,506.296 Z M21,503.104 L21,501.688 L16.68,501.688 C16.6159997,501.800001 16.5520003,501.904 16.488,502 L16.488,503.104 L21,503.104 L21,503.104 Z M11.52,521.368 L13.488,522.232 C12.895997,524.18401 12.2720033,525.839993 11.616,527.2 L11.616,543.136 L9.456,543.136 L9.456,530.824 C8.9119973,531.608004 8.3200032,532.399996 7.68,533.2 L6.936,530.56 C7.8640046,529.295994 8.6879964,527.992007 9.408,526.648 C10.1440037,525.431994 10.8479966,523.672012 11.52,521.368 L11.52,521.368 Z M13.584,523.264 L16.68,523.264 L16.68,521.296 L18.744,521.296 L18.744,523.264 L22.68,523.264 L22.68,521.296 L24.744,521.296 L24.744,523.264 L28.392,523.264 L28.392,525.136 L24.744,525.136 L24.744,527.296 L28.968,527.296 L28.968,529.264 L16.008,529.264 L16.008,530.464 C16.008,533.152013 15.8400017,535.375991 15.504,537.136 C15.1679983,538.880009 14.5280047,540.655991 13.584,542.464 L11.808,540.88 C12.5760038,539.503993 13.1199984,538.008008 13.44,536.392 C13.7280014,535.095994 13.872,533.120013 13.872,530.464 L13.872,529.264 L12.36,529.264 L12.36,527.296 L16.68,527.296 L16.68,525.136 L13.584,525.136 L13.584,523.264 L13.584,523.264 Z M22.68,527.296 L22.68,525.136 L18.744,525.136 L18.744,527.296 L22.68,527.296 L22.68,527.296 Z M27.84,530.464 L27.84,541.168 C27.84,541.888004 27.640002,542.439998 27.24,542.824 C26.9199984,543.160002 26.464003,543.328 25.872,543.328 L24.36,543.328 L23.904,541.36 L25.104,541.432 C25.5520022,541.4 25.776,541.120003 25.776,540.592 L25.776,539.368 L23.232,539.368 L23.232,543.136 L21.264,543.136 L21.264,539.368 L18.744,539.368 L18.744,543.136 L16.68,543.136 L16.68,530.464 L27.84,530.464 L27.84,530.464 Z M18.744,537.688 L21.264,537.688 L21.264,535.816 L18.744,535.816 L18.744,537.688 L18.744,537.688 Z M23.232,535.816 L23.232,537.688 L25.776,537.688 L25.776,535.816 L23.232,535.816 L23.232,535.816 Z M18.744,534.136 L21.264,534.136 L21.264,532.36 L18.744,532.36 L18.744,534.136 L18.744,534.136 Z M23.232,532.36 L23.232,534.136 L25.776,534.136 L25.776,532.36 L23.232,532.36 L23.232,532.36 Z" id="為" fill="#8E9C57"></path>
            </g>
        </g>
    </g>
</svg>