<?xml version="1.0" encoding="UTF-8" standalone="no"?>
<svg width="1040px" height="100px" viewBox="0 0 1040 100" version="1.1" xmlns="http://www.w3.org/2000/svg" xmlns:xlink="http://www.w3.org/1999/xlink" xmlns:sketch="http://www.bohemiancoding.com/sketch/ns">
    <title>Untitled</title>
    <description>Created with Sketch (http://www.bohemiancoding.com/sketch)</description>
    <defs></defs>
    <g id="Page-1" stroke="none" stroke-width="1" fill="none" fill-rule="evenodd" sketch:type="MSPage">
        <g id="ad-flow-step" sketch:type="MSLayerGroup">
            <g id="Page-1" sketch:type="MSShapeGroup">
                <g id="Path-1-+-Triangle-1-+-為下次的廣告行銷作調整與準備" transform="translate(149.000000, 5.000000)">
                    <path d="M743.382812,3.6484375 L743.382812,69.0953561 L18.260861,69.0953561 L18.260861,13.8576381" id="Path-1" stroke="#8E9C57" stroke-width="8" stroke-linecap="round"></path>
                    <path d="M21.575599,3.15119839 L35.763962,31.5279241 C36.998892,33.9977834 35.763716,36 32.994678,36 L3.005322,36 C0.240959,36 -0.994491,33.9889812 0.236038,31.5279241 L14.424401,3.15119839 C16.39915,-0.79829942 19.602876,-0.79424822 21.575599,3.15119839 L21.575599,3.15119839 Z" id="Triangle-1" fill="#8E9C57"></path>
                    <path d="M214.136,24.656 L216.728,24.656 C216.439999,23.7919957 216.112002,22.9840038 215.744,22.232 L217.904,21.944 C218.224002,22.7600041 218.527999,23.663995 218.816,24.656 L220.496,24.656 C220.784001,23.5839946 221.007999,22.4880056 221.168,21.368 L223.232,21.656 C223.023999,22.6960052 222.800001,23.6959952 222.56,24.656 L231.968,24.656 C231.791999,26.3200083 231.576001,27.7279942 231.32,28.88 L233.552,28.88 C233.375999,30.5280082 233.168001,31.9359942 232.928,33.104 L234.776,33.104 C234.712,38.4800269 234.240004,41.5519962 233.36,42.32 C232.879998,42.9920034 231.256014,43.328 228.488,43.328 L228.008,40.976 C228.728004,41.1040006 229.327998,41.168 229.808,41.168 C230.704004,41.168 231.399998,40.9600021 231.896,40.544 C232.312002,40.143998 232.583999,38.2880166 232.712,34.976 L218.24,34.976 C217.199995,36.5280078 216.056006,37.8399946 214.808,38.912 L212.936,37.592 C216.168016,34.6159851 218.487993,30.9920214 219.896,26.72 L214.136,26.72 L214.136,24.656 L214.136,24.656 Z M221.984,26.72 C221.759999,27.4880038 221.520001,28.2079966 221.264,28.88 L229.136,28.88 C229.280001,28.271997 229.407999,27.5520042 229.52,26.72 L221.984,26.72 L221.984,26.72 Z M220.472,30.848 C220.119998,31.648004 219.752002,32.3999965 219.368,33.104 L230.72,33.104 C230.864001,32.4639968 230.991999,31.7120043 231.104,30.848 L220.472,30.848 L220.472,30.848 Z M217.808,36.56 L219.872,36.944 C219.247997,39.2640116 218.368006,41.2639916 217.232,42.944 L215.36,41.72 C216.528006,40.119992 217.343998,38.4000092 217.808,36.56 L217.808,36.56 Z M222.68,36.752 C223.096002,38.1920072 223.375999,40.1279878 223.52,42.56 L221.264,42.848 C221.216,40.3039873 221.064001,38.336007 220.808,36.944 L222.68,36.752 L222.68,36.752 Z M226.04,36.2 C226.616003,37.592007 227.119998,39.183991 227.552,40.976 L225.488,41.432 C225.151998,39.8159919 224.712003,38.2560075 224.168,36.752 L226.04,36.2 L226.04,36.2 Z M229.424,35.816 C230.112003,37.1440066 230.639998,38.3599945 231.008,39.464 L229.136,40.136 C228.783998,38.7919933 228.352003,37.4800064 227.84,36.2 L229.424,35.816 L229.424,35.816 Z M237.2,22.496 L258.776,22.496 L258.776,24.656 L247.904,24.656 L247.904,28.544 C250.672014,30.1280079 253.479986,31.9279899 256.328,33.944 L254.84,36.2 C252.007986,34.007989 249.696009,32.3440057 247.904,31.208 L247.904,43.136 L245.456,43.136 L245.456,24.656 L237.2,24.656 L237.2,22.496 L237.2,22.496 Z M262.424,22.232 C264.104008,23.0960043 265.631993,24.127994 267.008,25.328 L265.616,27.56 C264.191993,26.0879926 262.720008,24.9360042 261.2,24.104 L262.424,22.232 L262.424,22.232 Z M266,32.36 L267.872,33.752 C266.383993,36.5040138 264.696009,38.9119897 262.808,40.976 L261.008,39.008 C262.608008,37.4399922 264.271991,35.2240143 266,32.36 L266,32.36 Z M270.968,21.368 L273.2,21.752 C272.959999,22.8720056 272.680002,23.9039953 272.36,24.848 L282.392,24.848 L282.392,27.008 C281.287994,29.7600138 280.072007,32.0079913 278.744,33.752 L276.968,32.36 C278.024005,31.0799936 278.999996,29.2960114 279.896,27.008 L271.472,27.008 C270.559995,28.8960094 269.416007,30.3919945 268.04,31.496 L266,30.104 C268.704014,27.8799889 270.359997,24.968018 270.968,21.368 L270.968,21.368 Z M272.552,28.88 L274.808,28.88 L274.808,30.752 C275.464003,33.2960127 276.455993,35.3839918 277.784,37.016 C278.872005,38.3600067 280.623988,39.7439929 283.04,41.168 L281.552,43.136 C279.56799,41.935994 278.064005,40.7680057 277.04,39.632 C275.711993,38.223993 274.656004,36.5120101 273.872,34.496 C273.279997,36.6400107 272.464005,38.2879942 271.424,39.44 C270.367995,40.7360065 268.744011,41.9999938 266.552,43.232 L265.136,41.264 C267.920014,39.663992 269.839995,37.9200094 270.896,36.032 C271.952005,34.239991 272.504,32.4800086 272.552,30.752 L272.552,28.88 L272.552,28.88 Z M290,21.368 L292.136,21.656 C291.847999,22.9040062 291.448003,24.0639946 290.936,25.136 L294.392,25.136 L294.392,30.152 C295.096004,28.9839942 295.639998,27.8320057 296.024,26.696 C296.504002,25.3519933 296.895998,23.5520113 297.2,21.296 L299.552,21.656 C299.343999,22.9520065 299.128001,24.0799952 298.904,25.04 L306.296,25.04 C306.296,33.4720422 306.168001,38.4639922 305.912,40.016 C305.671999,41.2320061 305.264003,42.0319981 304.688,42.416 C304.015997,42.8960024 302.776009,43.136 300.968,43.136 C300.439997,43.136 299.840003,43.1040003 299.168,43.04 L298.808,40.688 C299.512004,40.8160006 300.231996,40.88 300.968,40.88 C302.488008,40.88 303.335999,40.376005 303.512,39.368 C303.816002,38.1199938 303.992,34.0640343 304.04,27.2 L298.328,27.2 C298.264,27.3600008 298.216,27.4959994 298.184,27.608 C297.671997,29.3360086 296.784006,31.1679903 295.52,33.104 L294.392,31.712 L294.392,41.528 L292.328,41.528 L292.328,40.4 L287.936,40.4 L287.936,42.2 L285.872,42.2 L285.872,25.136 L288.848,25.136 C289.360003,23.9679942 289.743999,22.7120067 290,21.368 L290,21.368 Z M287.936,38.432 L292.328,38.432 L292.328,33.656 L287.936,33.656 L287.936,38.432 L287.936,38.432 Z M287.936,31.784 L292.328,31.784 L292.328,27.104 L287.936,27.104 L287.936,31.784 L287.936,31.784 Z M299.072,30.368 C300.432007,32.5920111 301.495996,34.503992 302.264,36.104 L300.008,37.592 C299.335997,35.8479913 298.400006,33.8480113 297.2,31.592 L299.072,30.368 L299.072,30.368 Z M321.104,21.296 C321.408002,21.7440022 321.695999,22.2399973 321.968,22.784 L330.872,22.784 L330.872,24.656 L327.104,24.656 L327.104,25.784 L329.84,25.784 L329.84,27.368 L327.104,27.368 L327.104,29.912 L316.808,29.912 L316.808,27.368 L313.904,27.368 L313.904,25.784 L316.808,25.784 L316.808,24.656 L312.776,24.656 L312.776,30.104 C312.776,32.0880099 312.624002,34.1679891 312.32,36.344 C311.967998,38.6160114 311.368004,40.847989 310.52,43.04 L308.744,41.432 C309.528004,39.639991 310.063999,37.7520099 310.352,35.768 C310.592001,33.7359898 310.712,31.8480087 310.712,30.104 L310.712,22.784 L319.64,22.784 C319.367999,22.3519978 319.080002,21.9440019 318.776,21.56 L321.104,21.296 L321.104,21.296 Z M318.968,24.656 L318.968,25.784 L324.968,25.784 L324.968,24.656 L318.968,24.656 L318.968,24.656 Z M318.968,27.368 L318.968,28.496 L324.968,28.496 L324.968,27.368 L318.968,27.368 L318.968,27.368 Z M313.04,30.752 L330.776,30.752 L330.776,32.36 L322.808,32.36 L322.808,33.296 L329.264,33.296 L329.264,40.04 L314.36,40.04 L314.36,33.296 L320.84,33.296 L320.84,32.36 L313.04,32.36 L313.04,30.752 L313.04,30.752 Z M327.296,38.528 L327.296,37.232 L322.808,37.232 L322.808,38.528 L327.296,38.528 L327.296,38.528 Z M320.84,38.528 L320.84,37.232 L316.328,37.232 L316.328,38.528 L320.84,38.528 L320.84,38.528 Z M316.328,36.008 L320.84,36.008 L320.84,34.784 L316.328,34.784 L316.328,36.008 L316.328,36.008 Z M322.808,34.784 L322.808,36.008 L327.296,36.008 L327.296,34.784 L322.808,34.784 L322.808,34.784 Z M319.04,40.136 L320.264,41.528 C317.991989,42.3760042 315.712011,42.999998 313.424,43.4 L312.488,41.432 C315.000013,41.1599986 317.183991,40.728003 319.04,40.136 L319.04,40.136 Z M323.936,40.136 C326.256012,40.5200019 328.37599,40.9839973 330.296,41.528 L329.168,43.328 C327.13599,42.6079964 325.048011,42.0400021 322.904,41.624 L323.936,40.136 L323.936,40.136 Z M338,21.752 L340.232,22.232 C339.831998,23.0800042 339.432002,23.8559965 339.032,24.56 L342.776,24.56 L342.776,21.368 L345.2,21.368 L345.2,24.56 L353,24.56 L353,26.624 L345.2,26.624 L345.2,29.816 L354.68,29.816 L354.68,31.976 L345.2,31.976 L345.2,33.848 L342.776,33.848 L342.776,31.976 L333.2,31.976 L333.2,29.816 L342.776,29.816 L342.776,26.624 L337.76,26.624 C336.975996,27.7760058 336.176004,28.7439961 335.36,29.528 L333.776,27.56 C335.632009,25.8159913 337.039995,23.8800106 338,21.752 L338,21.752 Z M352.424,34.496 L352.424,43.232 L350.168,43.232 L350.168,41.912 L337.904,41.912 L337.904,43.232 L335.648,43.232 L335.648,34.496 L352.424,34.496 L352.424,34.496 Z M337.904,39.848 L350.168,39.848 L350.168,36.56 L337.904,36.56 L337.904,39.848 L337.904,39.848 Z M362.36,21.2 L363.872,22.496 C362.415993,24.4320097 360.600011,26.1839922 358.424,27.752 L357.008,25.88 C358.99201,24.6159937 360.775992,23.0560093 362.36,21.2 L362.36,21.2 Z M362.552,26.816 L364.136,28.232 C363.591997,29.1600046 363.000003,30.0479958 362.36,30.896 L362.36,43.328 L360.2,43.328 L360.2,33.488 C359.575997,34.1600034 358.920003,34.8079969 358.232,35.432 L356.744,33.464 C358.904011,31.6879911 360.839991,29.4720133 362.552,26.816 L362.552,26.816 Z M365.84,22.496 L377.744,22.496 L377.744,24.656 L365.84,24.656 L365.84,22.496 L365.84,22.496 Z M364.616,28.784 L378.968,28.784 L378.968,30.848 L375.488,30.848 L375.488,40.88 C375.488,41.6960041 375.288002,42.2719983 374.888,42.608 C374.519998,42.9600018 373.848005,43.136 372.872,43.136 L368.84,43.136 L368.36,40.88 C369.912008,41.0080006 371.191995,41.072 372.2,41.072 C372.824003,41.072 373.136,40.8800019 373.136,40.496 L373.136,30.848 L364.616,30.848 L364.616,28.784 L364.616,28.784 Z M386,21.368 L386.744,21.368 C388.184007,22.6480064 389.463994,23.991993 390.584,25.4 L389,26.912 C387.815994,25.3279921 386.840004,24.1440039 386.072,23.36 C385.287996,24.6400064 384.408005,25.8879939 383.432,27.104 L389.36,27.104 L389.36,29.072 L386.744,29.072 L386.744,31.04 L390.008,31.04 L390.008,33.008 L386.744,33.008 L386.744,39.944 C387.880006,39.6559986 389.031994,39.312002 390.2,38.912 L390.2,40.976 C387.623987,41.8400043 384.752016,42.5279974 381.584,43.04 L381.296,40.88 C382.432006,40.7999996 383.591994,40.6400012 384.776,40.4 L384.776,33.008 L381.296,33.008 L381.296,31.04 L384.776,31.04 L384.776,29.072 L382.424,29.072 L382.424,28.304 C382.183999,28.5920014 381.936001,28.8799986 381.68,29.168 L380.936,26.816 C382.424007,25.3279926 383.791994,23.5120107 385.04,21.368 L386,21.368 L386,21.368 Z M383,34.232 C383.464002,35.432006 383.775999,37.0559898 383.936,39.104 L382.04,39.296 C381.976,37.1839894 381.760002,35.5520058 381.392,34.4 L383,34.232 L383,34.232 Z M388.328,34.136 L389.936,34.496 C389.791999,35.8560068 389.536002,37.1679937 389.168,38.432 L387.488,37.88 C387.920002,36.7119942 388.199999,35.4640066 388.328,34.136 L388.328,34.136 Z M395.36,21.296 L397.52,21.296 L397.52,27.368 L402.104,27.368 L402.104,40.784 C402.104,41.5360038 401.912002,42.111998 401.528,42.512 C401.207998,42.8640018 400.744003,43.04 400.136,43.04 L396.776,43.04 L396.296,40.976 L399.296,41.072 C399.744002,41.0399998 399.968,40.7600026 399.968,40.232 L399.968,37.976 L393.008,37.976 L393.008,43.328 L390.872,43.328 L390.872,27.368 L395.36,27.368 L395.36,21.296 L395.36,21.296 Z M393.008,36.2 L399.968,36.2 L399.968,33.56 L393.008,33.56 L393.008,36.2 L393.008,36.2 Z M393.008,31.784 L399.968,31.784 L399.968,29.264 L393.008,29.264 L393.008,31.784 L393.008,31.784 Z M391.712,22.136 C392.720005,23.4160064 393.591996,24.7919926 394.328,26.264 L392.36,27.104 C391.575996,25.4879919 390.704005,24.0480063 389.744,22.784 L391.712,22.136 L391.712,22.136 Z M401.072,21.848 L402.872,22.688 C402.167996,24.4320087 401.352005,25.9359937 400.424,27.2 L398.456,25.784 C399.416005,24.6479943 400.287996,23.3360074 401.072,21.848 L401.072,21.848 Z M410,21.2 L411.968,22.04 C411.327997,23.9760097 410.672003,25.6239932 410,26.984 L410,43.136 L407.84,43.136 L407.84,30.512 C407.183997,31.4400046 406.464004,32.3679954 405.68,33.296 L404.936,30.656 C405.976005,29.3439934 406.887996,28.0000069 407.672,26.624 C408.472004,25.3759938 409.247996,23.5680118 410,21.2 L410,21.2 Z M415.712,21.2 L418.04,21.656 C417.655998,22.7280054 417.272002,23.7279954 416.888,24.656 L426.776,24.656 L426.776,26.816 L418.424,26.816 L418.424,30.104 L426.2,30.104 L426.2,32.264 L418.424,32.264 L418.424,35.912 L426.2,35.912 L426.2,38.072 L418.424,38.072 L418.424,43.136 L416.168,43.136 L416.168,26.816 L415.928,26.816 C414.919995,28.9280106 413.880005,30.679993 412.808,32.072 L411.104,30.104 C413.13601,27.4319866 414.671995,24.4640163 415.712,21.2 L415.712,21.2 Z M433.52,21.296 C433.728001,22.0640038 433.919999,22.9359951 434.096,23.912 L437.168,23.912 L437.168,25.88 L428.84,25.88 L428.84,23.912 L431.912,23.912 C431.719999,23.0799958 431.504001,22.2960037 431.264,21.56 L433.52,21.296 L433.52,21.296 Z M429.584,27.368 L436.328,27.368 L436.328,29.264 L429.584,29.264 L429.584,27.368 L429.584,27.368 Z M429.584,30.752 L436.424,30.752 L436.424,32.624 L429.584,32.624 L429.584,30.752 L429.584,30.752 Z M436.232,34.328 L436.232,41.168 L431.744,41.168 L431.744,42.752 L429.584,42.752 L429.584,34.328 L436.232,34.328 L436.232,34.328 Z M431.744,39.2 L434.072,39.2 L434.072,36.296 L431.744,36.296 L431.744,39.2 L431.744,39.2 Z M438.68,21.944 L450.584,21.944 L450.584,40.88 C450.584,41.680004 450.376002,42.279998 449.96,42.68 C449.591998,43.0480018 448.984004,43.232 448.136,43.232 L445.808,43.232 L445.328,41.072 L447.68,41.168 C448.224003,41.1519999 448.504,40.840003 448.52,40.232 L448.52,23.816 L439.712,23.816 L439.712,32.264 C439.712,33.9280083 439.616001,35.6799908 439.424,37.52 C439.199999,39.4080094 438.824003,41.2799907 438.296,43.136 L436.52,41.528 C436.968002,40.0559926 437.279999,38.5120081 437.456,36.896 C437.584001,35.2159916 437.648,33.672007 437.648,32.264 L437.648,21.944 L438.68,21.944 L438.68,21.944 Z M440.456,25.976 L443.072,25.976 L443.072,24.464 L445.04,24.464 L445.04,25.976 L447.68,25.976 L447.68,27.752 L445.04,27.752 L445.04,29.528 L447.872,29.528 L447.872,31.328 L445.04,31.328 L445.04,32.912 L443.072,32.912 L443.072,31.328 L440.264,31.328 L440.264,29.528 L443.072,29.528 L443.072,27.752 L440.456,27.752 L440.456,25.976 L440.456,25.976 Z M440.84,33.464 L447.104,33.464 L447.104,40.232 L440.84,40.232 L440.84,33.464 L440.84,33.464 Z M445.328,38.36 L445.328,35.36 L442.616,35.36 L442.616,38.36 L445.328,38.36 L445.328,38.36 Z M452.936,22.496 L457.904,22.496 L457.904,21.296 L459.776,21.296 L459.776,22.496 L464.648,22.496 L464.648,24.104 L459.776,24.104 L459.776,25.232 L464,25.232 L464,27.032 C464.912005,26.2479961 465.679997,25.4320042 466.304,24.584 C466.848003,23.8639964 467.359998,22.7920071 467.84,21.368 L469.904,21.56 C469.647999,22.3920042 469.360002,23.1439966 469.04,23.816 L475.04,23.816 L475.04,25.592 L473.84,25.592 C473.359998,27.000007 472.776003,28.207995 472.088,29.216 C471.815999,29.616002 471.528002,29.9839983 471.224,30.32 C472.264005,31.0240035 473.567992,31.6399974 475.136,32.168 L474.008,33.848 C472.263991,33.1599966 470.880005,32.4320038 469.856,31.664 C469.824,31.6960002 469.784,31.7279998 469.736,31.76 C468.567994,32.5760041 467.152008,33.2719971 465.488,33.848 L464.456,32.072 C466.168009,31.5919976 467.479995,31.0400031 468.392,30.416 C468.424,30.3999999 468.44,30.3840001 468.44,30.368 C467.639996,29.5359958 466.952003,28.6080051 466.376,27.584 C465.927998,28.0320022 465.448003,28.4639979 464.936,28.88 L464,27.68 L464,29.72 L459.824,29.72 C461.232007,30.3920034 462.647993,31.1439958 464.072,31.976 L463.136,33.464 C461.775993,32.5839956 460.656004,31.9040024 459.776,31.424 L459.776,33.944 L457.904,33.944 L457.904,31.448 C456.799994,32.3440045 455.544007,33.1119968 454.136,33.752 L453.104,32.168 C455.02401,31.4639965 456.559994,30.6480046 457.712,29.72 L453.68,29.72 L453.68,25.232 L457.904,25.232 L457.904,24.104 L452.936,24.104 L452.936,22.496 L452.936,22.496 Z M467.648,26.12 C468.256003,27.320006 468.983996,28.3279959 469.832,29.144 C470.136002,28.8079983 470.423999,28.440002 470.696,28.04 C471.144002,27.3679966 471.527998,26.5520048 471.848,25.592 L468.008,25.592 L467.984,25.64 C467.871999,25.8160009 467.760001,25.9759993 467.648,26.12 L467.648,26.12 Z M462.2,28.232 L462.2,26.72 L459.776,26.72 L459.776,28.232 L462.2,28.232 L462.2,28.232 Z M457.904,28.232 L457.904,26.72 L455.456,26.72 L455.456,28.232 L457.904,28.232 L457.904,28.232 Z M454.328,34.592 L474.2,34.592 L474.2,36.464 L465.296,36.464 L465.296,37.784 L473.36,37.784 L473.36,39.56 L465.296,39.56 L465.296,40.976 L475.04,40.976 L475.04,42.848 L452.936,42.848 L452.936,40.976 L457.232,40.976 L457.232,37.4 L459.392,37.4 L459.392,40.976 L463.136,40.976 L463.136,36.464 L454.328,36.464 L454.328,34.592 L454.328,34.592 Z M483.296,21.464 L484.136,23.624 C483.303996,24.0400021 481.968009,24.4879976 480.128,24.968 L480.176,26.816 L483.68,26.816 L483.68,28.784 L480.248,28.784 L480.344,31.592 L483.488,31.592 L483.488,33.464 L480.392,33.464 L480.464,36.104 L484.208,36.104 L485.072,29.912 L487.232,29.912 L486.368,36.104 L488.456,36.104 L489.104,28.688 L486.464,28.688 L486.392,29.264 L484.328,29.264 L485.36,21.2 L487.424,21.2 L487.208,22.88 L491.072,22.88 L491.072,24.752 L486.968,24.752 L486.704,26.816 L491.36,26.816 L490.616,36.104 L495.512,36.104 L495.584,33.56 L492.2,33.56 L492.2,31.592 L495.632,31.592 L495.728,28.784 L492.2,28.784 L492.2,26.816 L495.8,26.816 L495.872,24.368 L492.2,24.368 L492.2,22.4 L498.008,22.4 L497.576,36.104 L498.968,36.104 L498.968,38.168 L476.84,38.168 L476.84,36.104 L478.4,36.104 L478.04,23.168 C479.688008,22.959999 481.439991,22.3920046 483.296,21.464 L483.296,21.464 Z M484.136,38.528 L485.744,39.944 C483.82399,41.1920062 481.416014,42.319995 478.52,43.328 L477.008,41.36 C479.664013,40.5919962 482.03999,39.6480056 484.136,38.528 L484.136,38.528 Z M491.552,38.432 C494.144013,39.2480041 496.519989,40.2239943 498.68,41.36 L497.264,43.496 C495.023989,42.103993 492.712012,41.0160039 490.328,40.232 L491.552,38.432 L491.552,38.432 Z M503.456,21.752 C504.992008,22.2960027 506.399994,22.9519962 507.68,23.72 L506.36,25.688 C505.063994,24.7439953 503.720007,23.9920028 502.328,23.432 L503.456,21.752 L503.456,21.752 Z M501.968,26.072 C503.360007,26.5840026 504.639994,27.2079963 505.808,27.944 L504.488,30.008 C503.303994,29.0959954 502.088006,28.3760026 500.84,27.848 L501.968,26.072 L501.968,26.072 Z M505.424,29.816 L506.84,31.496 C505.863995,33.3680094 504.640007,35.1199918 503.168,36.752 L501.584,34.88 C503.056007,33.3599924 504.335995,31.6720093 505.424,29.816 L505.424,29.816 Z M510.488,21.368 L512.648,21.848 C512.327998,22.5520035 512.008002,23.207997 511.688,23.816 L514.88,23.816 C514.543998,23.0799963 514.176002,22.3920032 513.776,21.752 L516.104,21.464 C516.472002,22.1680035 516.823998,22.9519957 517.16,23.816 L522.392,23.816 L522.392,25.688 L517.136,25.688 L517.136,27.104 L521.744,27.104 L521.744,28.88 L517.136,28.88 L517.136,30.296 L521.744,30.296 L521.744,32.072 L517.136,32.072 L517.136,33.56 L522.776,33.56 L522.776,35.528 L513.008,35.528 L513.008,37.136 L523.04,37.136 L523.04,39.2 L513.008,39.2 L513.008,43.328 L510.776,43.328 L510.776,39.2 L500.84,39.2 L500.84,37.136 L510.776,37.136 L510.776,35.528 L508.232,35.528 L508.232,29.192 C507.943999,29.5120016 507.664001,29.8159986 507.392,30.104 L505.904,28.232 C507.93601,26.1679897 509.463995,23.8800126 510.488,21.368 L510.488,21.368 Z M515,33.56 L515,32.072 L510.488,32.072 L510.488,33.56 L515,33.56 L515,33.56 Z M515,30.296 L515,28.88 L510.488,28.88 L510.488,30.296 L515,30.296 L515,30.296 Z M515,27.104 L515,25.688 L510.68,25.688 C510.616,25.8000006 510.552,25.9039995 510.488,26 L510.488,27.104 L515,27.104 L515,27.104 Z M529.52,21.368 L531.488,22.232 C530.895997,24.1840098 530.272003,25.8399932 529.616,27.2 L529.616,43.136 L527.456,43.136 L527.456,30.824 C526.911997,31.6080039 526.320003,32.399996 525.68,33.2 L524.936,30.56 C525.864005,29.2959937 526.687996,27.9920067 527.408,26.648 C528.144004,25.4319939 528.847997,23.6720115 529.52,21.368 L529.52,21.368 Z M531.584,23.264 L534.68,23.264 L534.68,21.296 L536.744,21.296 L536.744,23.264 L540.68,23.264 L540.68,21.296 L542.744,21.296 L542.744,23.264 L546.392,23.264 L546.392,25.136 L542.744,25.136 L542.744,27.296 L546.968,27.296 L546.968,29.264 L534.008,29.264 L534.008,30.464 C534.008,33.1520134 533.840002,35.3759912 533.504,37.136 C533.167998,38.8800087 532.528005,40.655991 531.584,42.464 L529.808,40.88 C530.576004,39.5039931 531.119998,38.0080081 531.44,36.392 C531.728001,35.0959935 531.872,33.1200133 531.872,30.464 L531.872,29.264 L530.36,29.264 L530.36,27.296 L534.68,27.296 L534.68,25.136 L531.584,25.136 L531.584,23.264 L531.584,23.264 Z M540.68,27.296 L540.68,25.136 L536.744,25.136 L536.744,27.296 L540.68,27.296 L540.68,27.296 Z M545.84,30.464 L545.84,41.168 C545.84,41.8880036 545.640002,42.4399981 545.24,42.824 C544.919998,43.1600017 544.464003,43.328 543.872,43.328 L542.36,43.328 L541.904,41.36 L543.104,41.432 C543.552002,41.3999998 543.776,41.1200026 543.776,40.592 L543.776,39.368 L541.232,39.368 L541.232,43.136 L539.264,43.136 L539.264,39.368 L536.744,39.368 L536.744,43.136 L534.68,43.136 L534.68,30.464 L545.84,30.464 L545.84,30.464 Z M536.744,37.688 L539.264,37.688 L539.264,35.816 L536.744,35.816 L536.744,37.688 L536.744,37.688 Z M541.232,35.816 L541.232,37.688 L543.776,37.688 L543.776,35.816 L541.232,35.816 L541.232,35.816 Z M536.744,34.136 L539.264,34.136 L539.264,32.36 L536.744,32.36 L536.744,34.136 L536.744,34.136 Z M541.232,32.36 L541.232,34.136 L543.776,34.136 L543.776,32.36 L541.232,32.36 L541.232,32.36 Z" id="為下次的廣告行銷作調整與準備" fill="#8E9C57"></path>
                </g>
            </g>
        </g>
    </g>
</svg>