<?xml version="1.0" encoding="UTF-8" standalone="no"?>
<svg width="128px" height="128px" viewBox="0 0 128 128" version="1.1" xmlns="http://www.w3.org/2000/svg" xmlns:xlink="http://www.w3.org/1999/xlink" xmlns:sketch="http://www.bohemiancoding.com/sketch/ns">
    <title>Untitled</title>
    <description>Created with Sketch (http://www.bohemiancoding.com/sketch)</description>
    <defs></defs>
    <g id="Page-1" stroke="none" stroke-width="1" fill="none" fill-rule="evenodd" sketch:type="MSPage">
        <g id="core-pro" sketch:type="MSLayerGroup" transform="translate(19.529851, 14.500000)" fill="#F26522">
            <g id="Page-1" sketch:type="MSShapeGroup">
                <g id="Group">
                    <path d="M30.7715266,43.7955436 C30.3685966,42.1808908 28.8457382,41.4933466 27.3759339,42.2568539 L4.02041951,54.3891568 C1.80000313,55.5425789 0.359436085,58.4800683 0.796653024,60.9158498 L7.20671217,96.6269629 C7.64669147,99.0781339 10.0221668,101.065201 12.529056,101.065201 L45.0629359,101.065201 L30.7715266,43.7955436 L30.7715266,43.7955436 Z" id="Path-12"></path>
                    <path d="M37.5524466,40.8719561 L52.5734252,40.8719561 L45.0629359,55.7344857 L37.5524466,40.8719561 L37.5524466,40.8719561 Z" id="Triangle-1"></path>
                    <path d="M75.7440289,43.7955436 C75.3410989,42.1808908 73.8182405,41.4933466 72.3484362,42.2568539 L48.9929218,54.3891568 C46.7725054,55.5425789 45.3319384,58.4800683 45.7691553,60.9158498 L52.1792144,96.6269629 C52.6191937,99.0781339 54.9946691,101.065201 57.5015583,101.065201 L90.0354382,101.065201 L75.7440289,43.7955436 L75.7440289,43.7955436 Z" id="Path-12" transform="translate(67.549187, 71.340779) scale(-1, 1) translate(-67.549187, -71.340779) "></path>
                    <path d="M31.3949354,52.9733362 L32.457079,63.6321076 L58.6305652,79.9216705 L42.1673397,54.0242759 L31.3949354,52.9733362 L31.3949354,52.9733362 Z" id="Rectangle-1" transform="translate(44.962100, 66.540500) rotate(45.000000) translate(-44.962100, -66.540500) "></path>
                    <path d="M60.0839146,18.5625591 C60.0839146,8.31074029 53.3587938,0 45.0629359,0 C36.7670781,0 30.0419574,8.31074029 30.0419574,18.5625591 C30.0419574,28.8143779 36.7670781,37.1251183 45.0629359,37.1251183 C53.3587938,37.1251183 60.0839146,28.8143779 60.0839146,18.5625591 L60.0839146,18.5625591 Z" id="Oval-8"></path>
                </g>
            </g>
        </g>
    </g>
</svg>