<?xml version="1.0" encoding="UTF-8" standalone="no"?>
<svg width="72px" height="72px" viewBox="0 0 72 72" version="1.1" xmlns="http://www.w3.org/2000/svg" xmlns:xlink="http://www.w3.org/1999/xlink" xmlns:sketch="http://www.bohemiancoding.com/sketch/ns">
    <title>Untitled</title>
    <description>Created with Sketch (http://www.bohemiancoding.com/sketch)</description>
    <defs></defs>
    <g id="Page-1" stroke="none" stroke-width="1" fill="none" fill-rule="evenodd" sketch:type="MSPage">
        <g id="Group" sketch:type="MSLayerGroup" transform="translate(4.000000, -4.000000)" fill="#F26522">
            <path d="M34.0917336,38.1962293 L20.4927675,51.7951953 C15.4632479,46.7656756 14.202728,45.0506304 14.202728,45.0506304 C13.1195946,43.7821001 13.1520277,41.739175 14.2422094,40.4944328 C14.2422094,40.4944328 31.0994897,21.1942478 35.9916254,16.302112 C40.8837611,11.4099763 41.9634288,10.0030149 48.8673154,8.61653547 C55.7712024,7.23005553 62.4377514,9.85021147 62.4377514,9.85021147 L44.7678622,27.5201006 C43.3837241,25.9775118 41.374697,25.007099 39.1390177,25.007099 C34.963587,25.007099 31.578732,28.391954 31.578732,32.5673847 C31.578732,34.803064 32.5491448,36.8120911 34.0917336,38.1962293 Z M34.0917336,38.1962293 L20.4927675,51.7951953 C25.5222872,56.824715 27.2373324,58.0852349 27.2373324,58.0852349 C28.5058627,59.1683683 30.5487878,59.1359351 31.79353,58.0457535 C31.79353,58.0457535 51.093715,41.1884731 55.9858508,36.2963374 C60.8779866,31.4042017 62.2849479,30.324534 63.6714274,23.4206474 C65.0579073,16.5167604 62.4377514,9.85021147 62.4377514,9.85021147 L44.7678622,27.5201006 C45.9687875,28.8585031 46.6993034,30.6276333 46.6993034,32.5673847 C46.6993034,36.7428154 43.3144484,40.1276704 39.1390177,40.1276704 C37.1992663,40.1276704 35.4301361,39.3971546 34.0917336,38.1962293 Z" id="Path-3" sketch:type="MSShapeGroup"></path>
            <path d="M1.5534964,33.2669451 C-0.666206051,33.9006123 -0.8386397,35.5182322 1.20057238,36.6036479 L8.7828159,40.6394648 C9.98909852,41.2815354 11.6673524,40.9888411 12.5731093,39.9805 L21.2667445,30.3022408 C22.8295857,28.5623953 22.0861191,27.405417 19.8237166,28.0512739 L1.5534964,33.2669451 Z" id="Triangle-1" sketch:type="MSShapeGroup"></path>
            <path d="M28.8512642,60.5170123 C26.6315617,61.1506794 26.4591281,62.7682993 28.4983402,63.853715 L36.0805837,67.8895319 C37.2868663,68.5316025 38.9651202,68.2389083 39.8708771,67.2305671 L48.5645123,57.5523079 C50.1273535,55.8124625 49.3838869,54.6554842 47.1214844,55.3013411 L28.8512642,60.5170123 Z" id="Triangle-1" sketch:type="MSShapeGroup" transform="translate(38.266677, 61.517236) scale(1, -1) rotate(-270.000000) translate(-38.266677, -61.517236) "></path>
            <path d="M7.83797467,51.26235 L9.12825184,53.9759336 L10.5515582,51.0924861 L11.7841982,56.4930208 L13.2651417,51.26235 L14.4696919,56.5071982 L15.9787252,51.26235 L17.2394551,53.9759336 L18.6923088,51.0442564 C18.6923088,51.0442564 20.103425,53.9759336 20.1034252,56.6895171 C20.1034252,59.4031006 17.3459844,62.79508 17.3459844,62.79508 L15.9787252,59.4031006 L13.2651417,67.5438512 L10.5515582,59.4031006 L9.07392717,63.8083014 C9.07392717,63.8083014 6.33039874,59.0639027 6.33039882,56.5199181 C6.33039895,53.9759336 7.83797467,51.26235 7.83797467,51.26235 Z" id="Path-7" sketch:type="MSShapeGroup" transform="translate(13.324229, 59.132838) rotate(-315.000000) translate(-13.324229, -59.132838) "></path>
        </g>
    </g>
</svg>