<?xml version="1.0" encoding="UTF-8" standalone="no"?>
<svg width="128px" height="128px" viewBox="0 0 128 128" version="1.1" xmlns="http://www.w3.org/2000/svg" xmlns:xlink="http://www.w3.org/1999/xlink" xmlns:sketch="http://www.bohemiancoding.com/sketch/ns">
    <title>Untitled</title>
    <description>Created with Sketch (http://www.bohemiancoding.com/sketch)</description>
    <defs></defs>
    <g id="Page-1" stroke="none" stroke-width="1" fill="none" fill-rule="evenodd" sketch:type="MSPage">
        <g id="core-speed" sketch:type="MSLayerGroup" transform="translate(16.000000, 16.000000)" fill="#F26522">
            <g id="Page-1" sketch:type="MSShapeGroup">
                <g id="core-speed" transform="translate(-0.153846, 0.093750)">
                    <g id="Page-1">
                        <g id="Group">
                            <path d="M51.301503,45.4395181 L30.8376742,65.9033468 C23.2692144,58.3348868 21.3723743,55.7540736 21.3723743,55.7540736 C19.7424669,53.8451795 19.7912725,50.7709701 21.4317863,48.8978724 C21.4317863,48.8978724 46.7987513,19.8548056 54.1604748,12.493082 C61.5221982,5.13135857 63.1468905,3.01415223 73.5359121,0.927767318 C83.9249344,-1.15861836 93.9568086,2.78421245 93.9568086,2.78421245 L67.3670234,29.3739975 C65.2841617,27.052698 62.2609623,25.5924134 58.8966949,25.5924134 C52.6134747,25.5924134 47.5199188,30.6859692 47.5199188,36.9691895 C47.5199188,40.3334569 48.9802035,43.3566563 51.301503,45.4395181 L51.301503,45.4395181 L51.301503,45.4395181 Z M51.301503,45.4395181 L30.8376742,65.9033468 C38.4061341,73.4718067 40.9869473,75.3686467 40.9869473,75.3686467 C42.8958415,76.9985542 45.9700509,76.9497485 47.8431485,75.3092348 C47.8431485,75.3092348 76.8862154,49.9422696 84.2479389,42.5805462 C91.6096625,35.2188228 93.7268687,33.5941305 95.8132537,23.2051088 C97.8996394,12.8160866 93.9568086,2.78421245 93.9568086,2.78421245 L67.3670234,29.3739975 C69.174185,31.3880359 70.273471,34.0502366 70.273471,36.9691895 C70.273471,43.2524097 65.1799151,48.3459656 58.8966949,48.3459656 C55.9777421,48.3459656 53.3155413,47.2466798 51.301503,45.4395181 L51.301503,45.4395181 L51.301503,45.4395181 Z" id="Path-3"></path>
                            <path d="M2.33771333,38.0218933 C-1.00251199,38.9754406 -1.26199147,41.4096475 1.80663055,43.0429894 L13.2164489,49.1161177 C15.0316723,50.0823105 17.5571216,49.6418618 18.9201116,48.1245024 L32.0023607,33.5605835 C34.3541362,30.9424506 33.2353619,29.2014208 29.8308812,30.1733112 L2.33771333,38.0218933 L2.33771333,38.0218933 Z" id="Triangle-1"></path>
                            <path d="M42.8884876,78.5008874 C39.5482622,79.4544345 39.2887828,81.8886414 42.3574048,83.5219833 L53.7672232,89.5951116 C55.5824465,90.5613044 58.1078959,90.1208559 59.4708859,88.6034963 L72.553135,74.0395774 C74.9049104,71.4214447 73.7861362,69.6804148 70.3816555,70.6523052 L42.8884876,78.5008874 L42.8884876,78.5008874 Z" id="Triangle-1" transform="translate(57.210493, 80.379528) scale(-1, 1) rotate(-90.000000) translate(-57.210493, -80.379528) "></path>
                            <path d="M11.5696813,64.9881463 L13.5113003,69.0715678 L15.6531026,64.7325338 L17.5079888,72.8592999 L19.7365239,64.9881463 L21.5491404,72.8806342 L23.8199453,64.9881463 L25.7171013,69.0715678 L27.9033667,64.6599574 C27.9033667,64.6599574 30.0268253,69.0715678 30.0268256,73.1549891 C30.0268256,77.2384104 25.8774074,82.3426871 25.8774074,82.3426871 L23.8199453,77.2384104 L19.7365239,89.4886745 L15.6531026,77.2384104 L13.4295521,83.8673905 C13.4295521,83.8673905 9.30106941,76.7279828 9.30106953,72.8997752 C9.30106972,69.0715678 11.5696813,64.9881463 11.5696813,64.9881463 L11.5696813,64.9881463 L11.5696813,64.9881463 Z" id="Path-7" transform="translate(19.801070, 77.159957) rotate(45.000000) translate(-19.801070, -77.159957) "></path>
                        </g>
                    </g>
                </g>
            </g>
        </g>
    </g>
</svg>