<?xml version="1.0" encoding="UTF-8" standalone="no"?>
<svg width="72px" height="72px" viewBox="0 0 72 72" version="1.1" xmlns="http://www.w3.org/2000/svg" xmlns:xlink="http://www.w3.org/1999/xlink" xmlns:sketch="http://www.bohemiancoding.com/sketch/ns">
    <title>Untitled</title>
    <description>Created with Sketch (http://www.bohemiancoding.com/sketch)</description>
    <defs></defs>
    <g id="Page-1" stroke="none" stroke-width="1" fill="none" fill-rule="evenodd" sketch:type="MSPage">
        <path d="M47.8360055,10.1677429 C42.4039679,10.2367268 37.6953765,13.6929956 35.1412044,18.8031085 C32.4579087,13.7602107 27.6679517,10.4206838 22.2359141,10.4914365 C13.9755378,10.5957967 7.3796184,18.5165601 7.50166679,28.1778397 C7.52466141,30.0687053 7.80944098,31.8888182 8.31001625,33.5868827 C9.47566679,39.128587 17.8952367,48.2096945 25.6373496,55.4972214 C29.397855,59.0366246 35.71607,64.0087698 35.71607,64.0087698 C38.3763711,62.0772214 41.908699,58.8791999 45.5736883,55.2478182 C53.1265378,47.7621838 61.3143926,38.470587 62.345613,32.9041193 C62.800199,31.1954419 63.0389894,29.3682537 63.0142259,27.4738505 C62.8921775,17.8178773 56.094613,10.0616139 47.8360055,10.1677429" id="Imported-Layers" fill="#FFFFFF" sketch:type="MSShapeGroup"></path>
    </g>
</svg>