<?xml version="1.0" encoding="UTF-8" standalone="no"?>
<svg width="600px" height="450px" viewBox="0 0 600 450" version="1.1" xmlns="http://www.w3.org/2000/svg" xmlns:xlink="http://www.w3.org/1999/xlink" xmlns:sketch="http://www.bohemiancoding.com/sketch/ns">
    <title>Untitled</title>
    <description>Created with Sketch (http://www.bohemiancoding.com/sketch)</description>
    <defs></defs>
    <g id="Page-1" stroke="none" stroke-width="1" fill="none" fill-rule="evenodd" sketch:type="MSPage">
        <g id="Group" sketch:type="MSLayerGroup" transform="translate(200.333598, 41.361596)">
            <g transform="translate(91.224434, 334.109825)" sketch:type="MSShapeGroup">
                <rect id="Rectangle-20" fill="#E0E0E0" x="0.00774604196" y="14.0876684" width="62.0077728" height="12.7195431" rx="3"></rect>
                <path d="M34.8627853,1.26079463 C23.244438,-1.35333281 3.00357764,-0.333966894 3.00357764,-0.333966894 C1.34902554,-0.27202856 0.00774604196,1.12874837 0.00774604196,2.77454432 L0.00774604196,20.6309638 C0.00774604196,22.2858088 1.36053351,23.6273258 2.99850981,23.6273258 L59.0247551,23.6273258 C60.6765083,23.6273258 62.2365936,22.3008773 62.5098713,20.6612112 L63.1111093,17.053783 C63.3841327,15.4156432 62.4083035,13.4581569 60.9378146,12.6948373 C60.9378146,12.6948373 42.8934357,3.06769098 34.8627853,1.26079463 Z" id="Rectangle-19" fill="#2DA1EE"></path>
                <path d="M34.8627853,2.05576608 C23.244438,-0.558361367 3.00357764,0.461004552 3.00357764,0.461004552 C1.34902554,0.522942887 0.00774604196,1.91647525 0.00774604196,3.57968403 L0.00774604196,15.0559955 C0.00774604196,16.7164562 1.28232179,17.6355477 2.85639133,17.1016289 C2.85639133,17.1016289 42.8934357,3.86266242 34.8627853,2.05576608 Z" id="Rectangle-19" fill="#1589D5"></path>
                <rect id="Rectangle-21" fill="#FFFFFF" transform="translate(43.731176, 9.317840) rotate(25.000000) translate(-43.731176, -9.317840) " x="41.3462613" y="4.54801106" width="4.76982868" height="9.53965736"></rect>
                <rect id="Rectangle-21" fill="#FFFFFF" transform="translate(50.090947, 12.497726) rotate(25.000000) translate(-50.090947, -12.497726) " x="47.7060328" y="7.72789685" width="4.76982868" height="9.53965736"></rect>
            </g>
            <g transform="translate(46.698287, 0.000000)" sketch:type="MSShapeGroup">
                <rect id="Rectangle-14" fill="#FFCC62" x="16.0990879" y="61.4398917" width="28.4677855" height="5.33770979"></rect>
                <rect id="Rectangle-15" fill="#FFD682" x="-0.721995552" y="-0.543220683" width="61.9831124" height="61.9831124" rx="9"></rect>
                <path d="M1.32118175,1.04672221 C0.220982225,1.04672221 -0.670905711,1.94765657 -0.670905711,3.05027473 L-0.670905711,33.466761 C-0.670905711,33.466761 33.4818129,24.1379416 41.428422,15.9773892 C44.2744819,23.8429327 61.3122067,33.466761 61.3122067,33.466761 L61.3122067,3.05027473 C61.3122067,1.94374323 60.4121009,1.04672221 59.3201192,1.04672221 L1.32118175,1.04672221 Z" id="Rectangle-16" fill="#7B7B7B"></path>
                <path d="M1.27009191,-0.543220683 C0.169892383,-0.543220683 -0.721995552,0.357713677 -0.721995552,1.46033183 L-0.721995552,31.8768181 C-0.721995552,31.8768181 33.4307231,25.7278845 41.3773322,17.567332 C44.2233921,25.4328756 61.2611169,31.8768181 61.2611169,31.8768181 L61.2611169,1.46033183 C61.2611169,0.353800333 60.3610111,-0.543220683 59.2690294,-0.543220683 L1.27009191,-0.543220683 Z" id="Rectangle-16" fill="#656565"></path>
                <path d="M44.5764299,61.4980992 L16.1373137,65.2355386 L16.1373137,61.4980992 L44.5764299,61.4980992 Z" id="Path-8" fill="#FFB829"></path>
            </g>
            <g transform="translate(30.798858, 335.477951)" sketch:type="MSShapeGroup">
                <path d="M0.191496918,21.4287982 C0.191496918,29.8378247 13.2255001,32.0206755 18.7082245,32.0206755 C24.3735386,32.0206755 43.4212444,27.1703228 43.1700141,21.4287982 L43.4212444,10.8136949 C42.7440656,6.72016502 39.3825145,3.40170341 35.8459024,3.40170341 L11.9770394,3.40170341 C8.45324147,3.40170341 4.07299508,6.73413063 2.17119187,10.8136949 L0.191496918,21.4287982 Z" id="Rectangle-53" fill="#DFDFDF"></path>
                <path d="M0.191496918,18.2489124 C0.191496918,26.6579389 13.2255001,28.8407897 18.7082245,28.8407897 C24.3735386,28.8407897 43.4212444,23.990437 43.1700141,18.2489124 L43.4212444,7.63380908 C42.7440656,3.54027923 39.3825145,0.221817619 35.8459024,0.221817619 L11.9770394,0.221817619 C8.45324147,0.221817619 4.07299508,3.55424484 2.17119187,7.63380908 L0.191496918,18.2489124 Z" id="Rectangle-53" fill="#2DA1EE"></path>
                <path d="M43.1700141,13.4790838 L43.4212444,7.63380908 C42.7440656,3.54027923 39.3825145,0.221817619 35.8459024,0.221817619 L16.7468681,0.221817619 C13.2230702,0.221817619 43.4212444,19.2206084 43.1700141,13.4790838 Z" id="Rectangle-53" fill="#1589D6"></path>
                <path d="M17.4893718,12.968233 L25.3919112,10.7022163 L26.7066541,15.2872699 L17.5365469,17.9167558 L17.4893718,17.7522367 L17.4421967,17.9167558 L8.2720895,15.2872699 L9.58683247,10.7022163 L17.4893718,12.968233 Z" id="Rectangle-21" fill="#FFFFFF" transform="translate(17.489372, 14.309486) rotate(6.000000) translate(-17.489372, -14.309486) "></path>
                <path d="M15.8994289,19.5498222 L23.8019683,17.2838055 L25.1167113,21.8688591 L15.946604,24.498345 L15.8994289,24.3338258 L15.8522538,24.498345 L6.68214661,21.8688591 L7.99688958,17.2838055 L15.8994289,19.5498222 Z" id="Rectangle-21" fill="#FFFFFF" transform="translate(15.899429, 20.891075) rotate(6.000000) translate(-15.899429, -20.891075) "></path>
            </g>
            <path d="M78.8527081,65.1876586 C63.8947199,65.187662 33.9787437,66.7776015 33.9787437,66.7776015 C33.9787437,66.7776015 37.9942218,103.879044 38.4538856,138.342801 C38.6282869,151.418713 35.5686865,164.114925 35.5686865,174.261002 C35.5686865,177.47427 33.9787437,177.507653 33.9787437,180.720921 C33.9787435,185.138292 35.5686865,200.332805 35.5686865,200.332805 L121.425603,200.332805 C121.425603,200.332805 123.015546,188.284536 123.015546,182.260402 C123.015546,180.722215 121.425603,177.594085 121.425603,176.055898 C121.425602,165.738082 118.369649,152.663555 118.548312,139.175866 C119.00958,104.353708 123.015546,66.7776015 123.015546,66.7776015 C123.015546,66.7776015 93.5736539,65.1876586 78.8527081,65.1876586 Z" id="Rectangle-8" fill="#6C87BC" sketch:type="MSShapeGroup"></path>
            <rect id="Rectangle-9" fill="#6C86BC" sketch:type="MSShapeGroup" transform="translate(128.821495, 109.820279) rotate(-286.000000) translate(-128.821495, -109.820279) " x="85.5101768" y="97.7859243" width="86.4608017" height="24.3268866" rx="5"></rect>
            <rect id="Rectangle-9" fill="#6C86BC" sketch:type="MSShapeGroup" transform="translate(31.838817, 105.552441) rotate(-263.000000) translate(-31.838817, -105.552441) " x="-7.11478419" y="94.1998937" width="77.9072018" height="22.7050941" rx="5"></rect>
            <path d="M171.337117,207.91543 C176.401627,209.367655 195.439646,210.383548 196.891871,205.319037 C198.344096,200.254527 181.660599,191.02744 176.596089,189.575215 C171.531578,188.12299 166.248721,191.051326 164.796496,196.115836 C163.344271,201.180347 166.272606,206.463204 171.337117,207.91543 Z" id="Oval-2" fill="#FFE1A4" sketch:type="MSShapeGroup" transform="translate(180.702791, 199.150759) rotate(-153.000000) translate(-180.702791, -199.150759) "></path>
            <rect id="Rectangle-9" fill="#637CB1" sketch:type="MSShapeGroup" transform="translate(153.257667, 166.944004) rotate(-121.000000) translate(-153.257667, -166.944004) " x="109.534238" y="154.224461" width="87.4468591" height="25.948679" rx="5"></rect>
            <path d="M119.674958,104.609392 L119.672629,166.621047 L109.212685,166.621047 L119.674958,104.609392 Z" id="Path-27" fill="#5871A7" sketch:type="MSShapeGroup"></path>
            <path d="M41.2710883,106.971766 L52.3981989,156.264145 L41.2168804,156.264145 L41.2710883,106.971766 Z" id="Path-27" fill="#5871A7" sketch:type="MSShapeGroup"></path>
            <path d="M34.3944705,186.663948 C33.2867697,186.663948 32.3888008,187.550396 32.3888008,188.657593 L32.3888008,204.698931 C32.3888008,205.799991 33.2700293,206.494346 34.3312648,206.255623 L119.483139,187.100901 C120.555932,186.859578 120.529929,186.663948 119.419933,186.663948 L34.3944705,186.663948 Z" id="Rectangle-52" fill="#5A5A5A" sketch:type="MSShapeGroup"></path>
            <path d="M82.1249528,236.102602 L91.3915089,342.019823 C91.5357608,343.66863 92.9994596,344.887425 94.647523,344.743239 L129.839087,341.664376 C131.493082,341.51967 132.716982,340.065868 132.572719,338.416934 L123.015546,229.177947 L123.015546,193.431395 C123.015546,192.328141 122.119872,191.433776 121.009876,191.433776 L35.9844134,191.433776 C34.8767126,191.433776 33.9787437,192.321624 33.9787437,193.431395 L33.9787437,231.836298 L33.9787437,340.430832 C33.9787437,342.085937 35.3306476,343.427665 36.9850063,343.427665 L72.3109962,343.427665 C73.9713092,343.427665 75.3172589,342.086065 75.3172589,340.430832 L75.3172589,235.902546 C76.0731512,233.724483 77.5387446,232.131662 78.534409,232.131662 C79.3232854,232.131663 81.2980421,233.804001 82.1249528,236.102602 Z" id="Rectangle-17" fill="#535353" sketch:type="MSShapeGroup"></path>
            <g id="Line-+-Oval-4" transform="translate(75.317259, 195.562976)" stroke="#979797" sketch:type="MSShapeGroup">
                <path d="M3.17988579,7.15474302 L3.17988481,26.4328006" id="Line" stroke-linecap="square"></path>
                <ellipse id="Oval-4" cx="3.17988579" cy="3.17988579" rx="3.17988579" ry="3.17988579"></ellipse>
            </g>
            <g id="Group-+-Rectangle-54-+-Your" transform="translate(27.618972, 132.965260)" sketch:type="MSShapeGroup">
                <g id="Group" transform="translate(0.000000, -0.391238)">
                    <path d="M36.5686865,26.4202673 L36.5686865,39.1398104 L158.994289,39.1398104 L158.084045,32.5956016 L151.044575,26.4202673 L36.5686865,26.4202673 Z" id="Rectangle-116" fill="#FFD284"></path>
                    <rect id="Rectangle-113" fill="#FFC25A" x="42.9714296" y="32.2285722" width="116.02286" height="100.982859"></rect>
                    <path d="M0,0 L0,100.982859 L42.9714296,133.211432 L42.9714296,32.2285722 L0,0 Z" id="Rectangle-113" fill="#EA9C18"></path>
                    <path d="M116.636141,0.0104910717 L159.116674,32.5223222 L42.9249941,32.2453579 L-0.354598222,-0.423839295 L116.636141,0.0104910717 Z" id="Path-43" fill="#FFD284"></path>
                    <path d="M139.719043,17.8547549 L23.9617489,17.8547549 L15.1795316,11.5139512 L131.516147,11.5139512 L139.719043,17.8547549 Z" id="Path-44" fill="#BA7500"></path>
                    <path d="M24.0371434,17.7414513 L24.0371434,40.8855422 L22.9938063,38.2381203 L21.6121322,39.5783547 L21.6121322,37.3135618 L20.235179,38.7469373 L19.9513955,36.5600734 L18.364044,37.6864528 L18.2018164,35.4697203 L16.6163102,37.3135623 L16.6635307,34.8192023 L15.620684,36.901694 L14.9833486,33.5703802 L15.2036611,11.4499556 L24.0371434,17.7414513 Z" id="Path-45" fill="#B97500"></path>
                </g>
                <g id="Rectangle-54-+-Your" transform="translate(53.263087, 45.638325)">
                    <rect id="Rectangle-54" fill="#C73131" x="-0.094713395" y="0.183216076" width="95.3965736" height="75.3446906" rx="3"></rect>
                    <path d="M18.1642604,18.0945549 L13.0162604,26.5425549 L13.0162604,34.1985549 L11.1682604,34.1985549 L11.1682604,26.5425549 L5.93226042,18.0945549 L8.13226042,18.0945549 L12.0702604,24.4525549 L15.9642604,18.0945549 L18.1642604,18.0945549 Z M25.7762604,21.9005549 C27.5069357,21.9005549 28.9772544,22.523882 30.1872604,23.7705549 C31.3972665,25.0172278 32.0022604,26.5132128 32.0022604,28.2585549 C32.0022604,30.003897 31.4045997,31.4962154 30.2092604,32.7355549 C29.0139211,33.9748944 27.5362692,34.5945549 25.7762604,34.5945549 C24.0162516,34.5945549 22.5349331,33.9748944 21.3322604,32.7355549 C20.1295877,31.4962154 19.5282604,30.003897 19.5282604,28.2585549 C19.5282604,26.5132128 20.1332544,25.0172278 21.3432604,23.7705549 C22.5532665,22.523882 24.0309184,21.9005549 25.7762604,21.9005549 Z M25.7762604,32.8565549 C26.9935998,32.8565549 28.0312561,32.4128927 28.8892604,31.5255549 C29.7472647,30.6382171 30.1762604,29.5675612 30.1762604,28.3135549 C30.1762604,27.0595486 29.7399314,25.9742262 28.8672604,25.0575549 C27.9945894,24.1408837 26.9605997,23.6825549 25.7652604,23.6825549 C24.5699211,23.6825549 23.5395981,24.1408837 22.6742604,25.0575549 C21.8089228,25.9742262 21.3762604,27.0632153 21.3762604,28.3245549 C21.3762604,29.5858945 21.7942562,30.6565505 22.6302604,31.5365549 C23.4662646,32.4165593 24.5149208,32.8565549 25.7762604,32.8565549 Z M44.8282604,34.1985549 L43.0022604,34.1985549 L43.0022604,32.3945549 C41.8142545,33.8025619 40.4062686,34.5065549 38.7782604,34.5065549 C37.9129228,34.5065549 37.1282639,34.2828905 36.4242604,33.8355549 C35.7202569,33.3882193 35.1922622,32.7722255 34.8402604,31.9875549 C34.4882587,31.2028843 34.3122604,29.996563 34.3122604,28.3685549 L34.3122604,22.2085549 L36.1162604,22.2085549 L36.1162604,27.9285549 C36.1162604,29.2485615 36.1785931,30.1468859 36.3032604,30.6235549 C36.4279277,31.100224 36.6112592,31.5035533 36.8532604,31.8335549 C37.0952616,32.1635566 37.4032585,32.4092208 37.7772604,32.5705549 C38.1512623,32.731889 38.6059244,32.8125549 39.1412604,32.8125549 C39.6765964,32.8125549 40.2009245,32.6805562 40.7142604,32.4165549 C41.2275963,32.1525536 41.6675919,31.7858906 42.0342604,31.3165549 C42.4009289,30.8472192 42.6539264,30.3485575 42.7932604,29.8205549 C42.9325944,29.2925523 43.0022604,28.2365628 43.0022604,26.6525549 L43.0022604,22.2085549 L44.8282604,22.2085549 L44.8282604,34.1985549 Z M52.9242604,22.3845549 L51.9782604,23.9245549 C51.7289258,23.7925542 51.4869283,23.7265549 51.2522604,23.7265549 C50.7975915,23.7265549 50.3869289,23.9502193 50.0202604,24.3975549 C49.6535919,24.8448905 49.3785947,25.4315513 49.1952604,26.1575549 C49.0119262,26.8835585 48.9202604,28.1925454 48.9202604,30.0845549 L48.9202604,34.1985549 L47.0722604,34.1985549 L47.0722604,22.2085549 L48.9202604,22.2085549 L48.9202604,23.5065549 C49.2869289,22.9638855 49.6572585,22.5605562 50.0312604,22.2965549 C50.4052623,22.0325536 50.8305914,21.9005549 51.3072604,21.9005549 C51.7839295,21.9005549 52.3229241,22.0618866 52.9242604,22.3845549 Z M7.29626042,41.0945549 L10.5962604,41.0945549 C12.4736031,41.0945549 13.7055908,41.1678875 14.2922604,41.3145549 C14.87893,41.4612223 15.4179246,41.7252197 15.9092604,42.1065549 C16.4005962,42.4878901 16.7855924,42.964552 17.0642604,43.5365549 C17.3429285,44.1085578 17.4822604,44.7538846 17.4822604,45.4725549 C17.4822604,46.1912252 17.3465951,46.836552 17.0752604,47.4085549 C16.8039257,47.9805578 16.4152629,48.453553 15.9092604,48.8275549 C15.4032579,49.2015568 14.7835974,49.4655541 14.0502604,49.6195549 C13.3169234,49.7735557 12.0189364,49.8505549 10.1562604,49.8505549 L9.18826042,49.8505549 L9.18826042,57.1985549 L7.29626042,57.1985549 L7.29626042,41.0945549 Z M9.18826042,48.0245549 L11.6962604,48.0245549 C13.1776012,48.0538884 14.1859244,47.8192241 14.7212604,47.3205549 C15.2565964,46.8218857 15.5242604,46.1985586 15.5242604,45.4505549 C15.5242604,43.7785465 14.2922727,42.9425549 11.8282604,42.9425549 L9.18826042,42.9425549 L9.18826042,48.0245549 Z M25.1382604,45.3845549 L24.1922604,46.9245549 C23.9429258,46.7925542 23.7009283,46.7265549 23.4662604,46.7265549 C23.0115915,46.7265549 22.6009289,46.9502193 22.2342604,47.3975549 C21.8675919,47.8448905 21.5925947,48.4315513 21.4092604,49.1575549 C21.2259262,49.8835585 21.1342604,51.1925454 21.1342604,53.0845549 L21.1342604,57.1985549 L19.2862604,57.1985549 L19.2862604,45.2085549 L21.1342604,45.2085549 L21.1342604,46.5065549 C21.5009289,45.9638855 21.8712585,45.5605562 22.2452604,45.2965549 C22.6192623,45.0325536 23.0445914,44.9005549 23.5212604,44.9005549 C23.9979295,44.9005549 24.5369241,45.0618866 25.1382604,45.3845549 Z M32.3982604,44.9005549 C34.1289357,44.9005549 35.5992544,45.523882 36.8092604,46.7705549 C38.0192665,48.0172278 38.6242604,49.5132128 38.6242604,51.2585549 C38.6242604,53.003897 38.0265997,54.4962154 36.8312604,55.7355549 C35.6359211,56.9748944 34.1582692,57.5945549 32.3982604,57.5945549 C30.6382516,57.5945549 29.1569331,56.9748944 27.9542604,55.7355549 C26.7515877,54.4962154 26.1502604,53.003897 26.1502604,51.2585549 C26.1502604,49.5132128 26.7552544,48.0172278 27.9652604,46.7705549 C29.1752665,45.523882 30.6529184,44.9005549 32.3982604,44.9005549 Z M32.3982604,55.8565549 C33.6155998,55.8565549 34.6532561,55.4128927 35.5112604,54.5255549 C36.3692647,53.6382171 36.7982604,52.5675612 36.7982604,51.3135549 C36.7982604,50.0595486 36.3619314,48.9742262 35.4892604,48.0575549 C34.6165894,47.1408837 33.5825997,46.6825549 32.3872604,46.6825549 C31.1919211,46.6825549 30.1615981,47.1408837 29.2962604,48.0575549 C28.4309228,48.9742262 27.9982604,50.0632153 27.9982604,51.3245549 C27.9982604,52.5858945 28.4162562,53.6565505 29.2522604,54.5365549 C30.0882646,55.4165593 31.1369208,55.8565549 32.3982604,55.8565549 Z M53.0782604,57.1985549 L51.2962604,57.1985549 L51.2962604,55.4385549 C49.9909206,56.8758954 48.4839356,57.5945549 46.7752604,57.5945549 C45.0665852,57.5945549 43.6109331,56.9712278 42.4082604,55.7245549 C41.2055877,54.477882 40.6042604,52.981897 40.6042604,51.2365549 C40.6042604,49.4912128 41.212921,47.9988944 42.4302604,46.7595549 C43.6475998,45.5202154 45.132585,44.9005549 46.8852604,44.9005549 C48.6379358,44.9005549 50.1082545,45.6118811 51.2962604,47.0345549 L51.2962604,40.6985549 L53.0782604,40.6985549 L53.0782604,57.1985549 Z M46.9182604,55.9005549 C48.0769329,55.9005549 49.1109225,55.4678926 50.0202604,54.6025549 C50.9295983,53.7372172 51.3842604,52.6408949 51.3842604,51.3135549 C51.3842604,49.9862149 50.962598,48.8788927 50.1192604,47.9915549 C49.2759229,47.1042171 48.2126002,46.6605549 46.9292604,46.6605549 C45.6459207,46.6605549 44.5752647,47.1188837 43.7172604,48.0355549 C42.8592561,48.9522262 42.4302604,50.0302154 42.4302604,51.2695549 C42.4302604,52.5088944 42.870256,53.5905503 43.7502604,54.5145549 C44.6302648,55.4385595 45.6862543,55.9005549 46.9182604,55.9005549 Z M66.5202604,57.1985549 L64.6942604,57.1985549 L64.6942604,55.3945549 C63.5062545,56.8025619 62.0982686,57.5065549 60.4702604,57.5065549 C59.6049228,57.5065549 58.8202639,57.2828905 58.1162604,56.8355549 C57.4122569,56.3882193 56.8842622,55.7722255 56.5322604,54.9875549 C56.1802587,54.2028843 56.0042604,52.996563 56.0042604,51.3685549 L56.0042604,45.2085549 L57.8082604,45.2085549 L57.8082604,50.9285549 C57.8082604,52.2485615 57.8705931,53.1468859 57.9952604,53.6235549 C58.1199277,54.100224 58.3032592,54.5035533 58.5452604,54.8335549 C58.7872616,55.1635566 59.0952585,55.4092208 59.4692604,55.5705549 C59.8432623,55.731889 60.2979244,55.8125549 60.8332604,55.8125549 C61.3685964,55.8125549 61.8929245,55.6805562 62.4062604,55.4165549 C62.9195963,55.1525536 63.3595919,54.7858906 63.7262604,54.3165549 C64.0929289,53.8472192 64.3459264,53.3485575 64.4852604,52.8205549 C64.6245944,52.2925523 64.6942604,51.2365628 64.6942604,49.6525549 L64.6942604,45.2085549 L66.5202604,45.2085549 L66.5202604,57.1985549 Z M81.2822604,54.7565549 C80.6515906,55.6805595 79.8265988,56.3845525 78.8072604,56.8685549 C77.787922,57.3525573 76.6842664,57.5945549 75.4962604,57.5945549 C73.6482512,57.5945549 72.1045999,56.9858943 70.8652604,55.7685549 C69.6259209,54.5512155 69.0062604,53.0625637 69.0062604,51.3025549 C69.0062604,49.5425461 69.6295875,48.0355612 70.8762604,46.7815549 C72.1229333,45.5275486 73.7362505,44.9005549 75.7162604,44.9005549 C76.8895996,44.9005549 77.9712555,45.157219 78.9612604,45.6705549 C79.9512654,46.1838908 80.7249243,46.9025503 81.2822604,47.8265549 L79.8522604,48.7285549 C78.7815884,47.3352146 77.3809357,46.6385549 75.6502604,46.6385549 C74.2862536,46.6385549 73.142265,47.0748839 72.2182604,47.9475549 C71.2942558,48.8202259 70.8322604,49.9018818 70.8322604,51.1925549 C70.8322604,52.483228 71.2869225,53.5905503 72.1962604,54.5145549 C73.1055983,55.4385595 74.2569201,55.9005549 75.6502604,55.9005549 C77.3222688,55.9005549 78.7302547,55.1965619 79.8742604,53.7885549 L81.2822604,54.7565549 Z M89.3122604,46.7925549 L86.9362604,46.7925549 L86.9362604,55.1965549 C86.9362604,55.5045564 86.98026,55.6915546 87.0682604,55.7575549 C87.1562609,55.8235552 87.3762587,55.8565549 87.7282604,55.8565549 L88.7842604,55.8565549 L88.7842604,57.4185549 C88.0802569,57.5358888 87.5449289,57.5945549 87.1782604,57.5945549 C86.4742569,57.5945549 85.9535954,57.4222233 85.6162604,57.0775549 C85.2789254,56.7328865 85.1102604,56.1865586 85.1102604,55.4385549 L85.1102604,46.7925549 L83.0422604,46.7925549 L83.0422604,45.2085549 L85.1102604,45.2085549 L85.1102604,40.6985549 L86.9362604,40.6985549 L86.9362604,45.2085549 L89.3122604,45.2085549 L89.3122604,46.7925549 Z" id="Your" fill="#FFFFFF"></path>
                </g>
            </g>
            <path d="M67.3675444,205.102633 C72.636152,205.102633 76.9072018,200.831583 76.9072018,195.562976 C76.9072018,190.294368 72.636152,186.023319 67.3675444,186.023319 C62.0989369,186.023319 43.518401,190.294368 43.518401,195.562976 C43.518401,200.831583 62.0989369,205.102633 67.3675444,205.102633 Z" id="Oval-2" fill="#FFE1A4" sketch:type="MSShapeGroup" transform="translate(60.212801, 195.562976) rotate(56.000000) translate(-60.212801, -195.562976) "></path>
            <path d="M24.9135406,196.390618 L34.2641593,198.556707 C38.3655157,199.506795 42.5809561,197.403366 43.6780337,193.86365 L61.5575499,136.175474 C62.6553328,132.633482 60.2306937,128.994305 56.119099,128.041846 L46.7684802,125.875757 C42.6671238,124.92567 38.4516834,127.029099 37.3546058,130.568815 L19.4750896,188.256991 C18.3773067,191.798982 20.8019458,195.43816 24.9135406,196.390618 Z" id="Rectangle-9" fill="#637CB1" sketch:type="MSShapeGroup" transform="translate(40.675315, 162.216232) rotate(-45.000000) translate(-40.675315, -162.216232) "></path>
            <path d="M57.8278871,65.1876586 C57.8278871,75.7248737 66.3699867,84.2669734 76.9072018,84.2669734 C87.4444169,84.2669734 95.9865165,75.7248737 95.9865165,65.1876586" id="Oval-2" fill="#546A98" sketch:type="MSShapeGroup"></path>
            <path d="M62.5977157,64.1876586 C62.5977157,72.0905699 69.0042905,78.4971447 76.9072018,78.4971447 C84.8101131,78.4971447 91.2166878,72.0905699 91.2166878,64.1876586" id="Oval-2" fill="#FFCB62" sketch:type="MSShapeGroup"></path>
            <path d="M67.6073238,49.2882297 C67.6073238,49.2882297 71.4348956,54.2487693 76.9072018,54.2487701 C82.3795079,54.248771 86.2070798,49.2882297 86.2070798,49.2882297" id="Path-47" stroke="#FF6228" stroke-width="2" sketch:type="MSShapeGroup"></path>
        </g>
    </g>
</svg>