<?xml version="1.0" encoding="UTF-8" standalone="no"?>
<svg width="570px" height="360px" viewBox="0 0 570 360" version="1.1" xmlns="http://www.w3.org/2000/svg" xmlns:xlink="http://www.w3.org/1999/xlink" xmlns:sketch="http://www.bohemiancoding.com/sketch/ns">
    <title>facebook-editor-problem</title>
    <description>Created with Sketch (http://www.bohemiancoding.com/sketch)</description>
    <defs>
        <path id="path-1" d="M2.2919678,0.173941057 C0.843558144,0.173941057 -0.330604571,1.35167412 -0.330604571,2.81467615 L-0.330604571,8.73606165 C-0.330604571,10.1944978 0.855641671,11.3767941 2.2919678,11.3767941 L51.4207524,11.3767941 C52.8691094,11.3767941 54.0433511,10.1990663 54.0433511,8.73606165 L54.0433511,2.81467615 C54.0433511,1.35623645 52.8570961,0.173941057 51.4207524,0.173941057 L2.2919678,0.173941057 L2.2919678,0.173941057 Z"></path>
        <path id="path-3" d="M30.233368,1.20718564 C20.0454122,-1.09523238 2.29640485,-0.197413279 2.29640485,-0.197413279 C0.845548682,-0.142859079 -0.330604571,1.09088144 -0.330604571,2.54043428 L-0.330604571,18.2676335 C-0.330604571,19.7251484 0.855641671,20.9067039 2.2919678,20.9067039 L51.4207524,20.9067039 C52.8691094,20.9067039 54.2371435,19.7384214 54.4767971,18.2942764 L55.0039826,15.1170007 C55.2434609,13.6741944 54.3877052,11.9501179 53.0983281,11.2778171 C53.0983281,11.2778171 37.275398,2.79862873 30.233368,1.20718564 L30.233368,1.20718564 Z"></path>
        <path id="path-5" d="M30.233368,1.90736247 C20.0454122,-0.395055556 2.29640485,0.50276355 2.29640485,0.50276355 C0.845548682,0.557317751 -0.330604571,1.78468157 -0.330604571,3.24956843 L-0.330604571,13.3574295 C-0.330604571,14.8198943 0.787060207,15.6293909 2.16734438,15.1591362 C2.16734438,15.1591362 37.275398,3.49880556 30.233368,1.90736247 L30.233368,1.90736247 Z"></path>
        <path id="path-7" d="M3.68363398,0.0852750678 L0.148281876,7.70020122 L3.93907165,9.47565244 L7.47433607,1.86072629 L3.68363398,0.0852750678 L3.68363398,0.0852750678 Z"></path>
        <path id="path-9" d="M3.12216216,0.24371477 L-0.413102259,7.85864092 L3.37759983,9.63408333 L6.91295193,2.01916599 L3.12216216,0.24371477 L3.12216216,0.24371477 Z"></path>
        <path id="path-11" d="M0.165012912,0.387445799 L0.165012912,5.08867209 L25.128087,5.08867209 L25.128087,0.387445799 L0.165012912,0.387445799 L0.165012912,0.387445799 Z"></path>
        <path id="path-13" d="M8.2106595,0.402330623 C3.85382054,0.402330623 0.321897067,3.95266938 0.321897067,8.32590108 L0.321897067,47.0709214 C0.321897067,51.4469715 3.85667919,54.9944919 8.2106595,54.9944919 L46.7854311,54.9944919 C51.1422701,54.9944919 54.6741936,51.444065 54.6741936,47.0709214 L54.6741936,8.32590108 C54.6741936,3.94985095 51.1394114,0.402330623 46.7854311,0.402330623 L8.2106595,0.402330623 L8.2106595,0.402330623 Z"></path>
        <path id="path-15" d="M2.11353849,0.0411314363 C1.14878556,0.0411314363 0.36669731,0.834695122 0.36669731,1.80581978 L0.36669731,28.5954201 C0.36669731,28.5954201 30.314831,20.3789092 37.2831234,13.191477 C39.7788012,20.1190854 54.7189938,28.5954201 54.7189938,28.5954201 L54.7189938,1.80581978 C54.7189938,0.831172087 53.9296975,0.0411314363 52.9721526,0.0411314363 L2.11353849,0.0411314363 L2.11353849,0.0411314363 Z"></path>
        <path id="path-17" d="M2.06873824,0.402330623 C1.10398531,0.402330623 0.321897067,1.19580623 0.321897067,2.16693089 L0.321897067,28.9565312 C0.321897067,28.9565312 30.2700307,23.5408333 37.2383231,16.353313 C39.7340009,23.2810095 54.6741936,28.9565312 54.6741936,28.9565312 L54.6741936,2.16693089 C54.6741936,1.19237127 53.8848973,0.402330623 52.9273524,0.402330623 L2.06873824,0.402330623 L2.06873824,0.402330623 Z"></path>
        <path id="path-19" d="M25.1364701,0.438705962 L0.198527598,3.73045393 L0.198527598,0.438705962 L25.1364701,0.438705962 L25.1364701,0.438705962 Z"></path>
        <path id="path-21" d="M0.334234891,15.7715278 C0.334234891,23.1778506 11.763602,25.1004159 16.5713371,25.1004159 C21.5391921,25.1004159 38.2419047,20.8284247 38.0216039,15.7715278 L38.2419047,6.42218496 C37.648102,2.81677236 34.700388,-0.105999322 31.5991748,-0.105999322 L10.6688415,-0.105999322 C7.5788612,-0.105999322 3.73787831,2.82906775 2.07020265,6.42218496 L0.334234891,15.7715278 L0.334234891,15.7715278 Z"></path>
        <path id="path-23" d="M0.334234891,15.6130881 C0.334234891,23.0194144 11.763602,24.9419797 16.5713371,24.9419797 C21.5391921,24.9419797 38.2419047,20.6699894 38.0216039,15.6130881 L38.2419047,6.26374526 C37.648102,2.65833266 34.700388,-0.264430217 31.5991748,-0.264430217 L10.6688415,-0.264430217 C7.5788612,-0.264430217 3.73787831,2.67063686 2.07020265,6.26374526 L0.334234891,15.6130881 L0.334234891,15.6130881 Z"></path>
        <path id="path-25" d="M23.1144963,11.4120183 L23.3347971,6.26374526 C22.7409944,2.65833266 19.7932804,-0.264430217 16.6920671,-0.264430217 L-0.0556561247,-0.264430217 C-3.14563647,-0.264430217 23.3347971,16.4689214 23.1144963,11.4120183 L23.1144963,11.4120183 Z"></path>
        <path id="path-27" d="M8.61037167,3.04172696 L15.7097589,1.78439092 L16.4360595,5.92163211 L8.19793584,7.38065312 L8.17187471,7.23220122 L8.11564861,7.37196003 L0.359559436,4.22447154 L1.9263929,0.329306911 L8.61037167,3.04172696 L8.61037167,3.04172696 Z"></path>
        <path id="path-29" d="M8.09305996,2.67320867 L15.1924472,1.41587263 L15.9187478,5.55311558 L7.68061536,7.0121313 L7.65455423,6.86368028 L7.5983369,7.00344438 L-0.157761043,3.85594444 L1.40907243,-0.0392113821 L8.09305996,2.67320867 L8.09305996,2.67320867 Z"></path>
        <path id="path-31" d="M3.32405421,3.56563686 C0.399854853,7.68030063 3.84517441,34.2430217 4.24825384,64.5973171 C4.40118322,76.1140312 1.71825461,87.2963211 1.71825461,96.2325881 C1.71825461,99.0627304 0.324054213,99.0921477 0.324054213,101.922202 C0.324054213,105.812866 1.71825461,119.195556 1.71825461,119.195556 L77.0052074,119.195556 C77.0052074,119.195556 78.3993727,108.583909 78.3993727,103.27813 C78.3993727,101.923347 77.0052074,99.1682453 77.0052074,97.8134621 C77.0052074,88.7259688 74.3255232,77.2104878 74.4821356,65.3310772 C74.8866443,34.6611179 78.3993727,1.56563686 78.3993727,1.56563686 C78.3993727,1.56563686 52.5821564,0.165318428 39.6735219,0.165318428 C26.5570298,0.165318428 6.24825379,-0.54902655 3.32405421,3.56563686 Z"></path>
        <path id="path-33" d="M0.82090811,0.308441734 L9.18409362,40.922168 L0.0118818417,40.922168 L0.82090811,0.308441734 L0.82090811,0.308441734 Z"></path>
        <path id="path-35" d="M21.4073957,4.5200542 C21.23877,2.09840786 19.1382709,0.273211382 16.7315622,0.442228997 L4.19264155,1.32289973 C1.77885638,1.4924458 -0.0405122572,3.60336043 0.127359312,6.0147019 L4.80551659,73.2106978 C4.97411598,75.6323442 7.07465021,77.4576287 9.48135889,77.288523 L22.0202532,76.4078523 C24.4340647,76.2383062 26.2534334,74.1274797 26.0855092,71.7161382 L21.4073957,4.5200542 L21.4073957,4.5200542 Z"></path>
        <path id="path-37" d="M0.191766786,0.165318428 C0.191766786,9.44605014 7.68223761,16.9695799 16.9221978,16.9695799 C26.1621668,16.9695799 33.6526376,9.44605014 33.6526376,0.165318428 L0.191766786,0.165318428 Z"></path>
        <path id="path-39" d="M-0.0100666821,0.165318428 C-0.0100666821,7.12586721 5.60778205,12.7684485 12.5377544,12.7684485 C19.4677355,12.7684485 25.0855842,7.12586721 25.0855842,0.165318428 L-0.0100666821,0.165318428 Z"></path>
        <path id="path-41" d="M8.13401066,29.7698238 C12.7532849,29.6888821 16.432587,25.8619851 16.3519571,21.2223238 C16.2713272,16.5826626 12.2423131,0.285806233 7.62303008,0.366836043 C3.00375588,0.447777778 -0.456556477,16.8759553 -0.375926563,21.5156165 C-0.295296649,26.1552778 3.51472768,29.8508537 8.13401066,29.7698238 Z"></path>
        <path id="path-43" d="M5.77609394,18.7745879 C7.92052356,18.7235413 9.62858508,16.3100768 9.59115383,13.3840357 C9.55372259,10.4579946 7.68331247,0.180246087 5.53887878,0.231348213 C3.39444917,0.282394793 1.78805042,10.6429621 1.82548166,13.5690032 C1.86291291,16.4950443 3.63166026,18.82569 5.77609394,18.7745879 Z"></path>
        <path id="path-45" d="M8.13401066,29.7698238 C12.7532849,29.6888821 16.432587,25.8619851 16.3519571,21.2223238 C16.2713272,16.5826626 12.2423131,0.285806233 7.62303008,0.366836043 C3.00375588,0.447777778 -0.456556477,16.8759553 -0.375926563,21.5156165 C-0.295296649,26.1552778 3.51472768,29.8508537 8.13401066,29.7698238 Z"></path>
        <path id="path-47" d="M3.77609394,18.7745879 C5.92052356,18.7235413 7.62858508,16.3100768 7.59115383,13.3840357 C7.55372259,10.4579946 5.68331247,0.180246087 3.53887878,0.231348213 C1.39444917,0.282394793 -0.211949581,10.6429621 -0.174518338,13.5690032 C-0.137087094,16.4950443 1.63166026,18.82569 3.77609394,18.7745879 Z"></path>
        <path id="path-49" d="M27.2243157,6.22784553 C27.5189416,3.81773713 25.8088946,1.62359079 23.408824,1.32756775 L12.3453036,-0.0368157182 C9.94344415,-0.333102981 7.75615669,1.39159892 7.46287689,3.79078591 L0.204198437,63.1689024 C-0.0904293208,65.5790108 1.61961252,67.7731572 4.01968491,68.0691802 L15.0832044,69.4335637 C17.4850727,69.7297629 19.6723575,68.005061 19.9656329,65.6059621 L27.2243157,6.22784553 L27.2243157,6.22784553 Z"></path>
        <path id="path-51" d="M9.41333863,43.3421409 L-0.391434339,43.3421409 L10.4155221,-0.0725745257 L9.41333863,43.3421409 Z"></path>
        <path id="path-53" d="M14.2240373,69.3385104 C17.9391253,69.6983885 21.1957759,66.8681581 21.4975396,63.0226771 L25.4154382,8.35008225 C25.7173948,4.50204702 22.9597728,1.09174892 19.2354074,0.730990111 L10.7654344,-0.0894367181 C7.05034638,-0.449314767 3.79369405,2.38082751 3.49193385,6.22639662 L-0.425966546,60.8989915 C-0.727920358,64.7470267 2.02969883,68.1572367 5.75406341,68.5180836 L14.2240373,69.3385104 Z"></path>
        <path id="path-55" d="M19.5386057,17.0492886 C24.1136233,17.6951491 28.3436466,14.4935027 28.9866252,9.89831978 C29.6296039,5.30313686 26.4420521,1.05444444 21.8670345,0.408584011 C17.2920081,-0.237188347 0.636279198,1.21033875 -0.00669942954,5.80560976 C-0.649678057,10.4007927 14.963588,16.4035163 19.5386057,17.0492886 L19.5386057,17.0492886 Z"></path>
        <path id="path-57" d="M72.0155354,23.0974593 C74.4368881,23.0974593 76.3997157,21.1290515 76.3997157,18.6908469 L76.3997157,4.64943767 C76.3997157,2.21581301 74.4368881,0.242913279 72.0155354,0.242913279 L4.10271662,0.242913279 C1.68140774,0.242913279 -0.281454961,2.21123306 -0.281454961,4.64943767 L-0.281454961,18.6908469 C-0.281454961,21.1245596 1.68139897,23.0974593 4.10271662,23.0974593 L72.0155354,23.0974593 L72.0155354,23.0974593 Z"></path>
        <path id="path-59" d="M42.5429209,39.7245122 L50.6686537,133.012037 C50.7951449,134.464241 52.0786469,135.537709 53.5238208,135.410713 L84.3829103,132.69898 C85.8332842,132.571525 86.9065082,131.291078 86.7799732,129.838759 L78.3993727,33.6255217 L78.3993727,2.14147696 C78.3993727,1.16973577 77.6140312,0.382073171 76.6406847,0.382073171 L2.08280354,0.382073171 C1.11146517,0.382073171 0.324054213,1.16401084 0.324054213,2.14147696 L0.324054213,35.9669309 L0.324054213,131.61252 C0.324054213,133.070272 1.50952002,134.252004 2.96020959,134.252004 L33.9371704,134.252004 C35.3930775,134.252004 36.5733258,133.070378 36.5733258,131.61252 L36.5733258,39.5482724 C37.2361572,37.6299797 38.5213253,36.227107 39.3944082,36.227107 C40.0861682,36.227107 41.8178041,37.7 42.5429209,39.7245122 L42.5429209,39.7245122 Z"></path>
        <path id="path-61" d="M2.08280354,0.382073171 C1.11146517,0.382073171 0.324054213,1.16277778 0.324054213,2.13795393 L0.324054213,16.2665583 C0.324054213,17.2362737 1.09678606,17.8478726 2.0273754,17.6376355 L76.6961041,0.766876694 C77.6368303,0.554349593 77.6140312,0.382073171 76.6406847,0.382073171 L2.08280354,0.382073171 L2.08280354,0.382073171 Z"></path>
    </defs>
    <g id="Page-1" stroke="none" stroke-width="1" fill="none" fill-rule="evenodd" sketch:type="MSPage">
        <g id="Group" sketch:type="MSLayerGroup" transform="translate(9.000000, 21.000000)">
            <g id="Group-3" transform="translate(63.520429, 307.384824)">
                <mask id="mask-2" sketch:name="Clip 2" fill="white">
                    <use xlink:href="#path-1"></use>
                </mask>
                <g id="Clip-2"></g>
                <path d="M-4.71504799,-4.22985298 L58.4277945,-4.22985298 L58.4277945,15.7805881 L-4.71504799,15.7805881 L-4.71504799,-4.22985298 Z" id="Fill-1" fill="#E0E0E0" sketch:type="MSShapeGroup" mask="url(#mask-2)"></path>
            </g>
            <g id="Group-6" transform="translate(63.520429, 295.054201)">
                <mask id="mask-4" sketch:name="Clip 5" fill="white">
                    <use xlink:href="#path-3"></use>
                </mask>
                <g id="Clip-5"></g>
                <path d="M-4.71504799,-4.77358062 L59.4285875,-4.77358062 L59.4285875,25.3104988 L-4.71504799,25.3104988 L-4.71504799,-4.77358062 Z" id="Fill-4" fill="#2DA1EE" sketch:type="MSShapeGroup" mask="url(#mask-4)"></path>
            </g>
            <g id="Group-9" transform="translate(63.520429, 295.054201)">
                <mask id="mask-6" sketch:name="Clip 8" fill="white">
                    <use xlink:href="#path-5"></use>
                </mask>
                <g id="Clip-8"></g>
                <path d="M-4.71504799,-4.07340379 L35.5513471,-4.07340379 L35.5513471,19.6967087 L-4.71504799,19.6967087 L-4.71504799,-4.07340379 Z" id="Fill-7" fill="#1589D5" sketch:type="MSShapeGroup" mask="url(#mask-6)"></path>
            </g>
            <g id="Group-12" transform="translate(97.719087, 298.577236)">
                <mask id="mask-8" sketch:name="Clip 11" fill="white">
                    <use xlink:href="#path-7"></use>
                </mask>
                <g id="Clip-11"></g>
                <path d="M1.5628787,-5.76704133 L13.3009106,-0.269344851 L6.05973925,15.3279688 L-5.67829267,9.83027236 L1.5628787,-5.76704133 Z" id="Fill-10" fill="#FFFFFF" sketch:type="MSShapeGroup" mask="url(#mask-8)"></path>
            </g>
            <g id="Group-15" transform="translate(103.857308, 301.219512)">
                <mask id="mask-10" sketch:name="Clip 14" fill="white">
                    <use xlink:href="#path-9"></use>
                </mask>
                <g id="Clip-14"></g>
                <path d="M1.00149457,-5.60860163 L12.7395265,-0.110905149 L5.49835511,15.4864015 L-6.2396768,9.98870325 L1.00149457,-5.60860163 Z" id="Fill-13" fill="#FFFFFF" sketch:type="MSShapeGroup" mask="url(#mask-10)"></path>
            </g>
            <g id="Group-18" transform="translate(38.090657, 54.607046)">
                <mask id="mask-12" sketch:name="Clip 17" fill="white">
                    <use xlink:href="#path-11"></use>
                </mask>
                <g id="Clip-17"></g>
                <path d="M-4.2194305,-4.01634824 L29.5125305,-4.01634824 L29.5125305,9.49246612 L-4.2194305,9.49246612 L-4.2194305,-4.01634824 Z" id="Fill-16" fill="#FFCC62" sketch:type="MSShapeGroup" mask="url(#mask-12)"></path>
            </g>
            <g id="Group-21" transform="translate(23.183549, 0.000000)">
                <mask id="mask-14" sketch:name="Clip 20" fill="white">
                    <use xlink:href="#path-13"></use>
                </mask>
                <g id="Clip-20"></g>
                <path d="M-4.06254635,-4.00146341 L59.058637,-4.00146341 L59.058637,59.3982859 L-4.06254635,59.3982859 L-4.06254635,-4.00146341 Z" id="Fill-19" fill="#FFD682" sketch:type="MSShapeGroup" mask="url(#mask-14)"></path>
            </g>
            <g id="Group-24" transform="translate(23.183549, 1.761518)">
                <mask id="mask-16" sketch:name="Clip 23" fill="white">
                    <use xlink:href="#path-15"></use>
                </mask>
                <g id="Clip-23"></g>
                <path d="M-4.01774611,-4.3626626 L59.1034372,-4.3626626 L59.1034372,32.9992141 L-4.01774611,32.9992141 L-4.01774611,-4.3626626 Z" id="Fill-22" fill="#7B7B7B" sketch:type="MSShapeGroup" mask="url(#mask-16)"></path>
            </g>
            <g id="Group-27" transform="translate(23.183549, 0.000000)">
                <mask id="mask-18" sketch:name="Clip 26" fill="white">
                    <use xlink:href="#path-17"></use>
                </mask>
                <g id="Clip-26"></g>
                <path d="M-4.06254635,-4.00146341 L59.058637,-4.00146341 L59.058637,33.3603252 L-4.06254635,33.3603252 L-4.06254635,-4.00146341 Z" id="Fill-25" fill="#656565" sketch:type="MSShapeGroup" mask="url(#mask-18)"></path>
            </g>
            <g id="Group-30" transform="translate(38.090657, 54.607046)">
                <mask id="mask-20" sketch:name="Clip 29" fill="white">
                    <use xlink:href="#path-19"></use>
                </mask>
                <g id="Clip-29"></g>
                <path d="M-4.18591582,-3.96508808 L29.5209135,-3.96508808 L29.5209135,8.13424797 L-4.18591582,8.13424797 L-4.18591582,-3.96508808 Z" id="Fill-28" fill="#FFB829" sketch:type="MSShapeGroup" mask="url(#mask-20)"></path>
            </g>
            <g id="Group-33" transform="translate(10.030219, 299.457995)">
                <mask id="mask-22" sketch:name="Clip 32" fill="white">
                    <use xlink:href="#path-21"></use>
                </mask>
                <g id="Clip-32"></g>
                <path d="M-4.05020853,-4.50979336 L42.6263481,-4.50979336 L42.6263481,29.5042099 L-4.05020853,29.5042099 L-4.05020853,-4.50979336 Z" id="Fill-31" fill="#DFDFDF" sketch:type="MSShapeGroup" mask="url(#mask-22)"></path>
            </g>
            <g id="Group-36" transform="translate(10.030219, 296.815718)">
                <mask id="mask-24" sketch:name="Clip 35" fill="white">
                    <use xlink:href="#path-23"></use>
                </mask>
                <g id="Clip-35"></g>
                <path d="M-4.05020853,-4.66822425 L42.6263481,-4.66822425 L42.6263481,29.3457737 L-4.05020853,29.3457737 L-4.05020853,-4.66822425 Z" id="Fill-34" fill="#2DA1EE" sketch:type="MSShapeGroup" mask="url(#mask-24)"></path>
            </g>
            <g id="Group-39" transform="translate(24.937327, 296.815718)">
                <mask id="mask-26" sketch:name="Clip 38" fill="white">
                    <use xlink:href="#path-25"></use>
                </mask>
                <g id="Clip-38"></g>
                <path d="M-4.69095986,-4.66822425 L27.7192405,-4.66822425 L27.7192405,16.7679566 L-4.69095986,16.7679566 L-4.69095986,-4.66822425 Z" id="Fill-37" fill="#1589D6" sketch:type="MSShapeGroup" mask="url(#mask-26)"></path>
            </g>
            <g id="Group-42" transform="translate(17.045328, 304.742547)">
                <mask id="mask-28" sketch:name="Clip 41" fill="white">
                    <use xlink:href="#path-27"></use>
                </mask>
                <g id="Clip-41"></g>
                <path d="M-3.12230246,-4.63172561 L21.6750572,-2.01391667 L20.097175,13.0648811 L-4.70018472,10.4470678 L-3.12230246,-4.63172561 Z" id="Fill-40" fill="#FFFFFF" sketch:type="MSShapeGroup" mask="url(#mask-28)"></path>
            </g>
            <g id="Group-45" transform="translate(16.168440, 310.907859)">
                <mask id="mask-30" sketch:name="Clip 44" fill="white">
                    <use xlink:href="#path-29"></use>
                </mask>
                <g id="Clip-44"></g>
                <path d="M-3.63961417,-5.0002439 L21.1577368,-2.38243496 L19.5798545,12.6963628 L-5.21749643,10.0785521 L-3.63961417,-5.0002439 Z" id="Fill-43" fill="#FFFFFF" sketch:type="MSShapeGroup" mask="url(#mask-30)"></path>
            </g>
            <g id="Group-48" transform="translate(12.660885, 58.130081)">
                <mask id="mask-32" sketch:name="Clip 47" fill="white">
                    <use xlink:href="#path-31"></use>
                </mask>
                <g id="Clip-47"></g>
                <path d="M-4.0603892,-4.23847561 L82.7838161,-4.23847561 L82.7838161,123.59935 L-4.0603892,123.59935 L-4.0603892,-4.23847561 Z" id="Fill-46" fill="#6C87BC" sketch:type="MSShapeGroup" mask="url(#mask-32)"></path>
            </g>
            <g id="Group-51" transform="translate(77.550648, 73.102981)">
                <mask id="mask-34" sketch:name="Clip 50" fill="white">
                    <use xlink:href="#path-33"></use>
                </mask>
                <g id="Clip-50"></g>
                <path d="M-4.37256157,-4.0953523 L13.568537,-4.0953523 L13.568537,45.3259621 L-4.37256157,45.3259621 L-4.37256157,-4.0953523 Z" id="Fill-49" fill="#5871A7" sketch:type="MSShapeGroup" mask="url(#mask-34)"></path>
            </g>
            <g id="Group-57" transform="translate(77.550648, 59.010840)">
                <mask id="mask-36" sketch:name="Clip 56" fill="white">
                    <use xlink:href="#path-35"></use>
                </mask>
                <g id="Clip-56"></g>
                <path d="M25.1700374,-4.5649729 L31.0703583,80.186748 L1.04286617,82.295813 L-4.85751609,-2.45599593 L25.1700374,-4.5649729 Z" id="Fill-55" fill="#6C86BC" sketch:type="MSShapeGroup" mask="url(#mask-36)"></path>
            </g>
            <g id="Group-87" transform="translate(33.706213, 58.130081)">
                <mask id="mask-38" sketch:name="Clip 86" fill="white">
                    <use xlink:href="#path-37"></use>
                </mask>
                <g id="Clip-86"></g>
                <path d="M-4.19267663,-4.23847561 L38.037081,-4.23847561 L38.037081,21.373374 L-4.19267663,21.373374 L-4.19267663,-4.23847561 Z" id="Fill-85" fill="#546A98" sketch:type="MSShapeGroup" mask="url(#mask-38)"></path>
            </g>
            <g id="Group-90" transform="translate(38.090657, 58.130081)">
                <mask id="mask-40" sketch:name="Clip 89" fill="white">
                    <use xlink:href="#path-39"></use>
                </mask>
                <g id="Clip-89"></g>
                <path d="M-4.3945101,-4.23847561 L29.4700277,-4.23847561 L29.4700277,17.1722425 L-4.3945101,17.1722425 L-4.3945101,-4.23847561 Z" id="Fill-88" fill="#FFCB62" sketch:type="MSShapeGroup" mask="url(#mask-40)"></path>
            </g>
            <g id="Group-63-+-Group-63" transform="translate(31.000000, 45.460705)">
                <g id="Group-63" transform="translate(19.120876, 13.328936) rotate(74.000000) translate(-19.120876, -13.328936) translate(10.620876, -1.171064)">
                    <mask id="mask-42" sketch:name="Clip 62" fill="white">
                        <use xlink:href="#path-41"></use>
                    </mask>
                    <g id="Clip-62"></g>
                    <path d="M20.2942382,-4.25978997 L20.9582446,33.9494648 L-4.53719041,34.3964499 L-5.20120472,-3.81280488 L20.2942382,-4.25978997 Z" id="Fill-61" fill="#B28F45" sketch:type="MSShapeGroup" mask="url(#mask-42)"></path>
                </g>
                <g id="Group-63" transform="translate(7.313409, 10.441574) rotate(-15.000000) translate(-7.313409, -10.441574) translate(1.813409, 0.941574)">
                    <mask id="mask-44" sketch:name="Clip 62" fill="white">
                        <use xlink:href="#path-43"></use>
                    </mask>
                    <g id="Clip-62"></g>
                    <path d="M11.4212994,-2.6864721 L11.7295546,21.4105133 L-0.106323431,21.6924082 L-0.414582237,-2.40457722 L11.4212994,-2.6864721 Z" id="Fill-61" fill="#B38F45" sketch:type="MSShapeGroup" mask="url(#mask-44)"></path>
                </g>
            </g>
            <g id="Group-63-+-Group-63" transform="translate(30.000000, 46.000000)">
                <g id="Group-63" transform="translate(21.120876, 13.328936) rotate(69.000000) translate(-21.120876, -13.328936) translate(12.620876, -1.171064)">
                    <mask id="mask-46" sketch:name="Clip 62" fill="white">
                        <use xlink:href="#path-45"></use>
                    </mask>
                    <g id="Clip-62"></g>
                    <path d="M20.2942382,-4.25978997 L20.9582446,33.9494648 L-4.53719041,34.3964499 L-5.20120472,-3.81280488 L20.2942382,-4.25978997 Z" id="Fill-61" fill="#FFEABF" sketch:type="MSShapeGroup" mask="url(#mask-46)"></path>
                </g>
                <g id="Group-63" transform="translate(6.796372, 10.312164) rotate(-15.000000) translate(-6.796372, -10.312164) translate(2.796372, 0.812164)">
                    <mask id="mask-48" sketch:name="Clip 62" fill="white">
                        <use xlink:href="#path-47"></use>
                    </mask>
                    <g id="Clip-62"></g>
                    <path d="M9.42129942,-2.6864721 L9.72955456,21.4105133 L-2.10632343,21.6924082 L-2.41458224,-2.40457722 L9.42129942,-2.6864721 Z" id="Fill-61" fill="#FFEABF" sketch:type="MSShapeGroup" mask="url(#mask-48)"></path>
                </g>
            </g>
            <g id="Group-66" transform="translate(17.591775, 93.864431) rotate(-6.000000) translate(-17.591775, -93.864431) translate(4.000000, 59.074458)">
                <mask id="mask-50" sketch:name="Clip 65" fill="white">
                    <use xlink:href="#path-49"></use>
                </mask>
                <g id="Clip-65"></g>
                <path d="M32.6438736,-1.97034553 L23.2495986,74.8775339 L-5.21536384,71.3670935 L4.17891386,-5.48087398 L32.6438736,-1.97034553 Z" id="Fill-64" fill="#6C86BC" sketch:type="MSShapeGroup" mask="url(#mask-50)"></path>
            </g>
            <g id="Group-54" transform="translate(33.314215, 99.109160) rotate(15.000000) translate(-33.314215, -99.109160) translate(27.814215, 77.609160)">
                <mask id="mask-52" sketch:name="Clip 53" fill="white">
                    <use xlink:href="#path-51"></use>
                </mask>
                <g id="Clip-53"></g>
                <path d="M-4.77587776,-4.47636856 L13.7999655,-4.47636856 L13.7999655,47.745935 L-4.77587776,47.745935 L-4.77587776,-4.47636856 Z" id="Fill-52" fill="#5871A7" sketch:type="MSShapeGroup" mask="url(#mask-52)"></path>
            </g>
            <g id="Group-69" transform="translate(28.670487, 91.482799) rotate(19.000000) translate(-28.670487, -91.482799) translate(15.670487, 56.982799)">
                <mask id="mask-54" sketch:name="Clip 68" fill="white">
                    <use xlink:href="#path-53"></use>
                </mask>
                <g id="Clip-68"></g>
                <path d="M-18.0985401,-7.35854336 L27.3341061,-15.4048916 L42.1969834,69.2586653 L-3.23567154,77.3050136 L-18.0985401,-7.35854336 Z" id="Fill-67" fill="#637CB1" sketch:type="MSShapeGroup" mask="url(#mask-54)"></path>
            </g>
            <g id="Group-72" transform="translate(4.768887, 116.260163)">
                <mask id="mask-56" sketch:name="Clip 71" fill="white">
                    <use xlink:href="#path-55"></use>
                </mask>
                <g id="Clip-71"></g>
                <path d="M-2.57406639,-7.48865176 L35.1028098,-2.17010163 L31.5539887,23.1924932 L-6.12288575,17.8740312 L-2.57406639,-7.48865176 Z" id="Fill-70" fill="#FFEABF" sketch:type="MSShapeGroup" mask="url(#mask-56)"></path>
            </g>
            <g id="Group-75" transform="translate(25.814215, 113.617886)">
                <mask id="mask-58" sketch:name="Clip 74" fill="white">
                    <use xlink:href="#path-57"></use>
                </mask>
                <g id="Clip-74"></g>
                <path d="M80.7841592,27.5012534 L-4.66589838,27.5012534 L-4.66589838,-4.16088076 L80.7841592,-4.16088076 L80.7841592,27.5012534 Z" id="Fill-73" fill="#637CB1" sketch:type="MSShapeGroup" mask="url(#mask-58)"></path>
            </g>
            <g id="Group-78" transform="translate(12.660885, 169.105691)">
                <mask id="mask-60" sketch:name="Clip 77" fill="white">
                    <use xlink:href="#path-59"></use>
                </mask>
                <g id="Clip-77"></g>
                <path d="M-4.0603892,-4.02172087 L91.1745885,-4.02172087 L91.1745885,139.824706 L-4.0603892,139.824706 L-4.0603892,-4.02172087 Z" id="Fill-76" fill="#535353" sketch:type="MSShapeGroup" mask="url(#mask-60)"></path>
            </g>
            <g id="Group-81" transform="translate(12.660885, 169.105691)">
                <mask id="mask-62" sketch:name="Clip 80" fill="white">
                    <use xlink:href="#path-61"></use>
                </mask>
                <g id="Clip-80"></g>
                <path d="M-4.0603892,-4.02172087 L81.770922,-4.02172087 L81.770922,22.0827371 L-4.0603892,22.0827371 L-4.0603892,-4.02172087 Z" id="Fill-79" fill="#5A5A5A" sketch:type="MSShapeGroup" mask="url(#mask-62)"></path>
            </g>
            <g id="Group-84" transform="translate(49.490210, 173.509485)" stroke="#979797" sketch:type="MSShapeGroup">
                <path d="M2.53240541,5.91664825 L2.53240453,22.8959682" id="Stroke-82" stroke-linecap="square"></path>
                <path d="M2.53240717,5.2165336 C4.07240082,5.2165336 5.32081321,3.96261138 5.32081321,2.415821 C5.32081321,0.869029743 4.07240082,-0.384891599 2.53240717,-0.384891599 C0.992412629,-0.384891599 -0.255998882,0.869029743 -0.255998882,2.415821 C-0.255998882,3.96261138 0.992412629,5.2165336 2.53240717,5.2165336 L2.53240717,5.2165336 Z" id="Stroke-83"></path>
            </g>
        </g>
        <g id="Group" sketch:type="MSLayerGroup" transform="translate(151.000000, 24.000000)">
            <path d="M17.5,317.5 L17.5,0.485804737" id="Line" stroke="#D64038" stroke-width="5" stroke-linecap="round" sketch:type="MSShapeGroup"></path>
            <path d="M-0.0141952634,298 L397,298" id="Line" stroke="#D64038" stroke-width="5" stroke-linecap="round" sketch:type="MSShapeGroup"></path>
            <rect id="Rectangle-1" fill="#D64038" sketch:type="MSShapeGroup" x="38" y="218" width="40" height="60" rx="5"></rect>
            <rect id="Rectangle-1" fill="#D64038" sketch:type="MSShapeGroup" x="97" y="197" width="40" height="81" rx="5"></rect>
            <rect id="Rectangle-1" fill="#D64038" sketch:type="MSShapeGroup" x="157" y="177" width="40" height="101" rx="5"></rect>
            <rect id="Rectangle-1" fill="#D64038" sketch:type="MSShapeGroup" x="277" y="177" width="40" height="101" rx="5"></rect>
            <rect id="Rectangle-1" fill="#D64038" sketch:type="MSShapeGroup" x="337" y="156" width="40" height="122" rx="5"></rect>
            <rect id="Rectangle-1" fill="#D64038" sketch:type="MSShapeGroup" x="217" y="197" width="40" height="81" rx="5"></rect>
            <g id="Path-67-+-Path-68-+-Path-68" transform="translate(56.000000, 102.000000)" stroke="#D64038" stroke-width="5" sketch:type="MSShapeGroup" stroke-linecap="round">
                <path d="M0.38671875,83.796875 C0.38671875,83.796875 91.2519531,41.7831987 120.4375,41.7832031 C149.623047,41.7832108 149.978516,50.1113313 183,50.1113281 C216.021484,50.1113243 304.320312,1.54492188 304.320312,1.54492188" id="Path-67"></path>
                <path d="M304,2.47265625 C304,2.47265625 299.101562,3.95507812 284,3.95507812 C268.898438,3.95507812 264,1.97265625 264,1.97265625" id="Path-68" transform="translate(284.000000, 3.000000) rotate(-2.000000) translate(-284.000000, -3.000000) "></path>
                <path d="M313,17.4726562 C313,17.4726562 308.101562,18.9550781 293,18.9550781 C277.898438,18.9550781 273,16.9726562 273,16.9726562" id="Path-68" transform="translate(293.000000, 18.000000) rotate(121.000000) translate(-293.000000, -18.000000) "></path>
            </g>
        </g>
    </g>
</svg>