<?xml version="1.0" encoding="UTF-8" standalone="no"?>
<svg width="600px" height="450px" viewBox="0 0 600 450" version="1.1" xmlns="http://www.w3.org/2000/svg" xmlns:xlink="http://www.w3.org/1999/xlink" xmlns:sketch="http://www.bohemiancoding.com/sketch/ns">
    <title>Untitled</title>
    <description>Created with Sketch (http://www.bohemiancoding.com/sketch)</description>
    <defs></defs>
    <g id="Page-1" stroke="none" stroke-width="1" fill="none" fill-rule="evenodd" sketch:type="MSPage">
        <g id="Group" sketch:type="MSLayerGroup" transform="translate(29.000000, 24.000000)">
            <path d="M499.844508,189.787011 L186.867976,267.625895 L186.867976,187.377239 L499.844508,189.787011 Z" id="Path-9" fill="#FBFAFA" sketch:type="MSShapeGroup"></path>
            <rect id="Rectangle-58" fill="#FFFFFF" sketch:type="MSShapeGroup" x="329" y="48" width="156" height="93"></rect>
            <path d="M488.416762,47.2063095 L330.331676,91.2927173 L330.331676,45.9891284 L488.416762,47.2063095 Z" id="Path-9" fill="#F2F2F2" sketch:type="MSShapeGroup"></path>
            <g id="Rectangle-5-+-Rectangle-4-+-Path-4" transform="translate(327.528236, 46.108344)" sketch:type="MSShapeGroup">
                <path d="M52.6126351,98.3906555 L45.72088,120.502461 C44.8424713,123.320785 46.4263879,125.605489 49.239462,125.605489 L110.460781,125.605489 C113.282448,125.605489 114.901512,123.332959 114.069064,120.502461 L107.565993,98.3906555 C106.737125,95.5723311 104.39839,93.2876277 102.356217,93.2876277 L57.9121132,93.2876277 C55.8637009,93.2876277 53.4948381,95.560157 52.6126351,98.3906555 Z" id="Rectangle-5" fill="#D8D8D8"></path>
                <rect id="Rectangle-4" stroke="#979797" stroke-width="6" x="0" y="0" width="158.994289" height="95.3965736" rx="3"></rect>
                <path d="M108.116117,97.6824744 L49.2882297,110.296003 L53.1239158,97.5764594 L108.116117,97.6824744 Z" id="Path-4" fill="#C1C1C1"></path>
            </g>
            <g transform="translate(144.684803, 166.944004)" sketch:type="MSShapeGroup">
                <rect id="Rectangle-1" fill="#EB9C17" x="0" y="0" width="397.485723" height="23.8491434" rx="12"></rect>
                <rect id="Rectangle-2" fill="#EA9C18" x="345.017608" y="11.1296003" width="23.8491434" height="174.893718" rx="10"></rect>
                <rect id="Rectangle-2" fill="#EA9C18" x="27.0290292" y="11.1296003" width="23.8491434" height="174.893718" rx="10"></rect>
                <path d="M50.3471565,24.2435238 L26.9389559,24.2435238 L26.9389559,36.623718 L50.3471565,24.2435238 Z" id="Path-1" fill="#A77520"></path>
                <path d="M368.335735,24.2435238 L344.927535,24.2435238 L344.927535,36.623718 L368.335735,24.2435238 Z" id="Path-1" fill="#A77520"></path>
            </g>
            <path d="M480.162754,168.533947 C480.162754,160.631035 473.756179,154.224461 465.853268,154.224461 C457.950356,154.224461 451.543782,160.631035 451.543782,168.533947" id="Oval-2" fill="#606060" sketch:type="MSShapeGroup"></path>
            <g transform="translate(90.634491, 334.109825)" sketch:type="MSShapeGroup">
                <rect id="Rectangle-20" fill="#E0E0E0" x="0.00774604196" y="14.0876684" width="62.0077728" height="12.7195431" rx="3"></rect>
                <path d="M34.8627853,1.26079463 C23.244438,-1.35333281 3.00357764,-0.333966894 3.00357764,-0.333966894 C1.34902554,-0.27202856 0.00774604196,1.12874837 0.00774604196,2.77454432 L0.00774604196,20.6309638 C0.00774604196,22.2858088 1.36053351,23.6273258 2.99850981,23.6273258 L59.0247551,23.6273258 C60.6765083,23.6273258 62.2365936,22.3008773 62.5098713,20.6612112 L63.1111093,17.053783 C63.3841327,15.4156432 62.4083035,13.4581569 60.9378146,12.6948373 C60.9378146,12.6948373 42.8934357,3.06769098 34.8627853,1.26079463 Z" id="Rectangle-19" fill="#2DA1EE"></path>
                <path d="M34.8627853,2.05576608 C23.244438,-0.558361367 3.00357764,0.461004552 3.00357764,0.461004552 C1.34902554,0.522942887 0.00774604196,1.91647525 0.00774604196,3.57968403 L0.00774604196,15.0559955 C0.00774604196,16.7164562 1.28232179,17.6355477 2.85639133,17.1016289 C2.85639133,17.1016289 42.8934357,3.86266242 34.8627853,2.05576608 Z" id="Rectangle-19" fill="#1589D5"></path>
                <rect id="Rectangle-21" fill="#FFFFFF" transform="translate(43.731176, 9.317840) rotate(25.000000) translate(-43.731176, -9.317840) " x="41.3462613" y="4.54801106" width="4.76982868" height="9.53965736"></rect>
                <rect id="Rectangle-21" fill="#FFFFFF" transform="translate(50.090947, 12.497726) rotate(25.000000) translate(-50.090947, -12.497726) " x="47.7060328" y="7.72789685" width="4.76982868" height="9.53965736"></rect>
            </g>
            <g transform="translate(46.108344, 0.000000)" sketch:type="MSShapeGroup">
                <rect id="Rectangle-14" fill="#FFCC62" x="16.0990879" y="61.4398917" width="28.4677855" height="5.33770979"></rect>
                <rect id="Rectangle-15" fill="#FFD682" x="-0.721995552" y="-0.543220683" width="61.9831124" height="61.9831124" rx="9"></rect>
                <path d="M1.32118175,1.04672221 C0.220982225,1.04672221 -0.670905711,1.94765657 -0.670905711,3.05027473 L-0.670905711,33.466761 C-0.670905711,33.466761 33.4818129,24.1379416 41.428422,15.9773892 C44.2744819,23.8429327 61.3122067,33.466761 61.3122067,33.466761 L61.3122067,3.05027473 C61.3122067,1.94374323 60.4121009,1.04672221 59.3201192,1.04672221 L1.32118175,1.04672221 Z" id="Rectangle-16" fill="#7B7B7B"></path>
                <path d="M1.27009191,-0.543220683 C0.169892383,-0.543220683 -0.721995552,0.357713677 -0.721995552,1.46033183 L-0.721995552,31.8768181 C-0.721995552,31.8768181 33.4307231,25.7278845 41.3773322,17.567332 C44.2233921,25.4328756 61.2611169,31.8768181 61.2611169,31.8768181 L61.2611169,1.46033183 C61.2611169,0.353800333 60.3610111,-0.543220683 59.2690294,-0.543220683 L1.27009191,-0.543220683 Z" id="Rectangle-16" fill="#656565"></path>
                <path d="M44.5764299,61.4980992 L16.1373137,65.2355386 L16.1373137,61.4980992 L44.5764299,61.4980992 Z" id="Path-8" fill="#FFB829"></path>
            </g>
            <g transform="translate(30.208915, 335.477951)" sketch:type="MSShapeGroup">
                <path d="M0.191496918,21.4287982 C0.191496918,29.8378247 13.2255001,32.0206755 18.7082245,32.0206755 C24.3735386,32.0206755 43.4212444,27.1703228 43.1700141,21.4287982 L43.4212444,10.8136949 C42.7440656,6.72016502 39.3825145,3.40170341 35.8459024,3.40170341 L11.9770394,3.40170341 C8.45324147,3.40170341 4.07299508,6.73413063 2.17119187,10.8136949 L0.191496918,21.4287982 Z" id="Rectangle-53" fill="#DFDFDF"></path>
                <path d="M0.191496918,18.2489124 C0.191496918,26.6579389 13.2255001,28.8407897 18.7082245,28.8407897 C24.3735386,28.8407897 43.4212444,23.990437 43.1700141,18.2489124 L43.4212444,7.63380908 C42.7440656,3.54027923 39.3825145,0.221817619 35.8459024,0.221817619 L11.9770394,0.221817619 C8.45324147,0.221817619 4.07299508,3.55424484 2.17119187,7.63380908 L0.191496918,18.2489124 Z" id="Rectangle-53" fill="#2DA1EE"></path>
                <path d="M43.1700141,13.4790838 L43.4212444,7.63380908 C42.7440656,3.54027923 39.3825145,0.221817619 35.8459024,0.221817619 L16.7468681,0.221817619 C13.2230702,0.221817619 43.4212444,19.2206084 43.1700141,13.4790838 Z" id="Rectangle-53" fill="#1589D6"></path>
                <path d="M17.4893718,12.968233 L25.3919112,10.7022163 L26.7066541,15.2872699 L17.5365469,17.9167558 L17.4893718,17.7522367 L17.4421967,17.9167558 L8.2720895,15.2872699 L9.58683247,10.7022163 L17.4893718,12.968233 Z" id="Rectangle-21" fill="#FFFFFF" transform="translate(17.489372, 14.309486) rotate(6.000000) translate(-17.489372, -14.309486) "></path>
                <path d="M15.8994289,19.5498222 L23.8019683,17.2838055 L25.1167113,21.8688591 L15.946604,24.498345 L15.8994289,24.3338258 L15.8522538,24.498345 L6.68214661,21.8688591 L7.99688958,17.2838055 L15.8994289,19.5498222 Z" id="Rectangle-21" fill="#FFFFFF" transform="translate(15.899429, 20.891075) rotate(6.000000) translate(-15.899429, -20.891075) "></path>
            </g>
            <path d="M78.2627652,65.1876586 C63.304777,65.187662 33.3888008,66.7776015 33.3888008,66.7776015 C33.3888008,66.7776015 37.4042789,103.879044 37.8639427,138.342801 C38.038344,151.418713 34.9787437,164.114925 34.9787437,174.261002 C34.9787437,177.47427 33.3888008,177.507653 33.3888008,180.720921 C33.3888006,185.138292 34.9787437,200.332805 34.9787437,200.332805 L120.83566,200.332805 C120.83566,200.332805 122.425603,188.284536 122.425603,182.260402 C122.425603,180.722215 120.83566,177.594085 120.83566,176.055898 C120.83566,165.738082 117.779706,152.663555 117.958369,139.175866 C118.419637,104.353708 122.425603,66.7776015 122.425603,66.7776015 C122.425603,66.7776015 92.983711,65.1876586 78.2627652,65.1876586 Z" id="Rectangle-8" fill="#6C87BC" sketch:type="MSShapeGroup"></path>
            <path d="M107.955415,82.3501916 L117.492743,128.462417 L107.0328,128.462417 L107.955415,82.3501916 Z" id="Path-27" fill="#5871A7" sketch:type="MSShapeGroup"></path>
            <path d="M42.756673,83.9175939 L42.7541833,133.209973 L31.5728648,133.209973 L42.756673,83.9175939 Z" id="Path-27" fill="#5871A7" sketch:type="MSShapeGroup"></path>
            <rect id="Rectangle-9" fill="#6C86BC" sketch:type="MSShapeGroup" transform="translate(122.204075, 110.110525) rotate(-274.000000) translate(-122.204075, -110.110525) " x="78.9736746" y="98.1859535" width="86.4608017" height="24.3268866" rx="5"></rect>
            <rect id="Rectangle-52" fill="#454545" sketch:type="MSShapeGroup" transform="translate(42.133487, 41.338515) rotate(-12.000000) translate(-42.133487, -41.338515) " x="36.5686865" y="25.4390863" width="11.1296003" height="31.7988579"></rect>
            <path d="M38.1586294,55.6480013 C43.427237,55.6480013 47.6982868,51.3769514 47.6982868,46.1083439 C47.6982868,40.8397364 43.427237,36.5686865 38.1586294,36.5686865 C32.8900219,36.5686865 14.309486,40.8397364 14.309486,46.1083439 C14.309486,51.3769514 32.8900219,55.6480013 38.1586294,55.6480013 Z" id="Oval-2" fill="#FFE1A4" sketch:type="MSShapeGroup" transform="translate(31.003886, 46.108344) rotate(89.000000) translate(-31.003886, -46.108344) "></path>
            <rect id="Rectangle-9" fill="#6C86BC" sketch:type="MSShapeGroup" transform="translate(29.658931, 101.395985) rotate(-263.000000) translate(-29.658931, -101.395985) " x="-9.29466997" y="90.0434379" width="77.9072018" height="22.7050941" rx="5"></rect>
            <path d="M13.2977468,134.159574 L22.6483655,136.754253 C26.7497219,137.892328 30.9651623,135.372707 32.0622399,131.132611 L49.9417561,62.0300492 C51.039539,57.787227 48.6148999,53.4279891 44.5033052,52.2870733 L35.1526865,49.6923944 C31.05133,48.5543196 26.8358896,51.0739404 25.738812,55.3140369 L7.85929578,124.416598 C6.76151291,128.65942 9.18615204,133.018658 13.2977468,134.159574 Z" id="Rectangle-9" fill="#637CB1" sketch:type="MSShapeGroup" transform="translate(28.900526, 93.223324) rotate(-10.000000) translate(-28.900526, -93.223324) "></path>
            <path d="M47.6982868,149.454632 C52.9668943,149.454632 57.2379442,145.183582 57.2379442,139.914975 C57.2379442,134.646367 52.9668943,130.375317 47.6982868,130.375317 C42.4296793,130.375317 23.8491434,134.646367 23.8491434,139.914975 C23.8491434,145.183582 42.4296793,149.454632 47.6982868,149.454632 Z" id="Oval-2" fill="#FFE1A4" sketch:type="MSShapeGroup" transform="translate(40.543544, 139.914975) rotate(8.000000) translate(-40.543544, -139.914975) "></path>
            <rect id="Rectangle-9" fill="#637CB1" sketch:type="MSShapeGroup" transform="translate(91.421716, 141.504918) rotate(-180.000000) translate(-91.421716, -141.504918) " x="47.6982868" y="128.785374" width="87.4468591" height="25.948679" rx="5"></rect>
            <path d="M81.5350099,236.102602 L90.801566,342.019823 C90.9458179,343.66863 92.4095167,344.887425 94.0575801,344.743239 L129.249144,341.664376 C130.903139,341.51967 132.127039,340.065868 131.982776,338.416934 L122.425603,229.177947 L122.425603,193.431395 C122.425603,192.328141 121.529929,191.433776 120.419933,191.433776 L35.3944705,191.433776 C34.2867697,191.433776 33.3888008,192.321624 33.3888008,193.431395 L33.3888008,231.836298 L33.3888008,340.430832 C33.3888008,342.085937 34.7407047,343.427665 36.3950634,343.427665 L71.7210533,343.427665 C73.3813663,343.427665 74.727316,342.086065 74.727316,340.430832 L74.727316,235.902546 C75.4832083,233.724483 76.9488018,232.131662 77.9444661,232.131662 C78.7333425,232.131663 80.7080992,233.804001 81.5350099,236.102602 Z" id="Rectangle-17" fill="#535353" sketch:type="MSShapeGroup"></path>
            <g transform="translate(232.131662, 154.224461)" sketch:type="MSShapeGroup">
                <rect id="Rectangle-2" fill="#FFC25A" x="90.6267449" y="109.70606" width="15.8994289" height="111.296003" rx="5"></rect>
                <rect id="Rectangle-2" fill="#FFC25A" x="4.76982868" y="109.70606" width="15.8994289" height="111.296003" rx="5"></rect>
                <rect id="Rectangle-2" fill="#FFC25A" x="0" y="0" width="111.296003" height="119.245717" rx="5"></rect>
                <path d="M20.1382415,119.640097 L4.67975542,119.640097 L4.67975542,127.250463 L20.1382415,119.640097 Z" id="Path-1" fill="#A77520"></path>
                <path d="M105.995158,119.640097 L90.5366717,119.640097 L90.5366717,127.250463 L105.995158,119.640097 Z" id="Path-1" fill="#A77520"></path>
            </g>
            <path d="M35.3944705,191.433776 C34.2867697,191.433776 33.3888008,192.320225 33.3888008,193.427421 L33.3888008,209.46876 C33.3888008,210.56982 34.2700293,211.264174 35.3312648,211.025452 L120.483139,191.870729 C121.555932,191.629407 121.529929,191.433776 120.419933,191.433776 L35.3944705,191.433776 Z" id="Rectangle-52" fill="#5A5A5A" sketch:type="MSShapeGroup"></path>
            <g id="Line-+-Oval-4" transform="translate(74.727316, 195.562976)" stroke="#979797" sketch:type="MSShapeGroup">
                <path d="M3.17988579,7.15474302 L3.17988481,26.4328006" id="Line" stroke-linecap="square"></path>
                <ellipse id="Oval-4" cx="3.17988579" cy="3.17988579" rx="3.17988579" ry="3.17988579"></ellipse>
            </g>
            <path d="M57.2379442,65.1876586 C57.2379442,75.7248737 65.7800438,84.2669734 76.3172589,84.2669734 C86.854474,84.2669734 95.3965736,75.7248737 95.3965736,65.1876586" id="Oval-2" fill="#546A98" sketch:type="MSShapeGroup"></path>
            <path d="M62.0077728,64.1876586 C62.0077728,72.0905699 68.4143476,78.4971447 76.3172589,78.4971447 C84.2201702,78.4971447 90.6267449,72.0905699 90.6267449,64.1876586" id="Oval-2" fill="#FFCB62" sketch:type="MSShapeGroup"></path>
        </g>
    </g>
</svg>