<?xml version="1.0" encoding="UTF-8" standalone="no"?>
<svg width="600px" height="450px" viewBox="0 0 600 450" version="1.1" xmlns="http://www.w3.org/2000/svg" xmlns:xlink="http://www.w3.org/1999/xlink" xmlns:sketch="http://www.bohemiancoding.com/sketch/ns">
    <title>Untitled</title>
    <description>Created with Sketch (http://www.bohemiancoding.com/sketch)</description>
    <defs></defs>
    <g id="Page-1" stroke="none" stroke-width="1" fill="none" fill-rule="evenodd" sketch:type="MSPage">
        <g id="Rectangle-5-+-Rectangle-4-+-Path-4-+-Group" sketch:type="MSLayerGroup" transform="translate(96.000000, 64.000000)">
            <g id="Rectangle-5-+-Rectangle-4-+-Path-4" transform="translate(0.000000, 0.000000)" sketch:type="MSShapeGroup">
                <path d="M134.726224,251.950913 L117.078369,308.573054 C114.82901,315.789993 118.884977,321.640479 126.088472,321.640479 L282.859123,321.640479 C290.084624,321.640479 294.230594,315.821168 292.098927,308.573054 L275.446383,251.950913 C273.323885,244.733974 267.335039,238.883488 262.105605,238.883488 L148.296703,238.883488 C143.051293,238.883488 136.985299,244.702799 134.726224,251.950913 Z" id="Rectangle-5" fill="#D8D8D8"></path>
                <rect id="Rectangle-4" stroke="#979797" stroke-width="10" x="0" y="0" width="407.139847" height="244.283908" rx="3"></rect>
                <path d="M276.855096,249.69818 L126.213352,281.997893 L136.03547,249.426705 L276.855096,249.69818 Z" id="Path-4" fill="#C1C1C1"></path>
            </g>
            <g id="Group" transform="translate(7.949714, 7.949714)" sketch:type="MSShapeGroup">
                <rect id="Rectangle-1" fill="#F9F9F9" x="0" y="0" width="391.761929" height="228.951777"></rect>
                <rect id="Rectangle-1" fill="#2779B7" x="0" y="0" width="391.761929" height="20.5675013"></rect>
                <g transform="translate(10.773453, 39.176193)">
                    <rect id="Rectangle-3" fill="#9B9B9B" x="0" y="0" width="19.5880964" height="19.5880964"></rect>
                    <rect id="Rectangle-4" fill="#2779B7" x="25.4645254" y="6.85583376" width="44.073217" height="6.85583376"></rect>
                    <rect id="Rectangle-4" fill="#9B9B9B" x="25.4645254" y="32.3203591" width="44.073217" height="6.85583376"></rect>
                    <rect id="Rectangle-4" fill="#9B9B9B" x="8.8146434" y="32.3203591" width="9.79404822" height="6.85583376"></rect>
                    <rect id="Rectangle-4" fill="#9B9B9B" x="25.4645254" y="46.0320266" width="44.073217" height="6.85583376"></rect>
                    <rect id="Rectangle-4" fill="#9B9B9B" x="8.8146434" y="46.0320266" width="9.79404822" height="6.85583376"></rect>
                    <rect id="Rectangle-4" fill="#9B9B9B" x="25.4645254" y="58.7642893" width="44.073217" height="6.85583376"></rect>
                    <rect id="Rectangle-4" fill="#9B9B9B" x="8.8146434" y="58.7642893" width="9.79404822" height="6.85583376"></rect>
                    <rect id="Rectangle-4" fill="#9B9B9B" x="25.4645254" y="71.496552" width="44.073217" height="6.85583376"></rect>
                    <rect id="Rectangle-4" fill="#9B9B9B" x="8.8146434" y="71.496552" width="9.79404822" height="6.85583376"></rect>
                    <rect id="Rectangle-4" fill="#9B9B9B" x="25.4645254" y="85.2082195" width="44.073217" height="6.85583376"></rect>
                    <rect id="Rectangle-4" fill="#9B9B9B" x="8.8146434" y="85.2082195" width="9.79404822" height="6.85583376"></rect>
                </g>
                <g transform="translate(307.533114, 39.176193)" fill="#D4D4D4">
                    <rect id="Rectangle-3" x="0" y="0" width="19.5880964" height="19.5880964"></rect>
                    <rect id="Rectangle-4" x="25.4645254" y="6.85583376" width="44.073217" height="6.85583376"></rect>
                    <rect id="Rectangle-3" x="0" y="29.3821447" width="19.5880964" height="19.5880964"></rect>
                    <rect id="Rectangle-4" x="25.4645254" y="36.2379784" width="44.073217" height="6.85583376"></rect>
                    <rect id="Rectangle-3" x="0" y="58.7642893" width="19.5880964" height="19.5880964"></rect>
                    <rect id="Rectangle-4" x="25.4645254" y="65.6201231" width="44.073217" height="6.85583376"></rect>
                </g>
                <g transform="translate(307.533114, 132.219651)">
                    <rect id="Rectangle-4" fill="#D4D4D4" x="35.2585736" y="22.5263109" width="34.2791688" height="6.85583376"></rect>
                    <rect id="Rectangle-4" fill="#D4D4D4" x="35.2585736" y="11.7528579" width="23.5057157" height="6.85583376"></rect>
                    <rect id="Rectangle-4" fill="#D4D4D4" x="35.2585736" y="33.299764" width="29.3821447" height="6.85583376"></rect>
                    <rect id="Rectangle-4" fill="#2779B7" x="35.2585736" y="0" width="29.3821447" height="6.85583376"></rect>
                    <rect id="Rectangle-3" fill="#D4D4D4" x="0" y="0" width="29.3821447" height="29.3821447"></rect>
                </g>
                <g transform="translate(95.345695, 165.748367)">
                    <rect id="Rectangle-4" fill="#2779B7" x="27.423335" y="0" width="44.073217" height="6.85583376"></rect>
                    <rect id="Rectangle-3" fill="#9B9B9B" x="0" y="0" width="19.5880964" height="19.5880964"></rect>
                    <rect id="Rectangle-3" fill="#D4D4D4" x="27.423335" y="28.4027398" width="169.437034" height="28.1992272"></rect>
                    <rect id="Rectangle-4" fill="#9B9B9B" x="27.423335" y="12.7322627" width="146.910723" height="6.85583376"></rect>
                </g>
                <g transform="translate(95.981673, 40.155598)" id="Rectangle-4" fill="#D4D4D4">
                    <rect x="0" y="0" width="44.073217" height="6.85583376"></rect>
                    <rect x="0" y="11.7528579" width="195.880964" height="6.85583376"></rect>
                    <rect x="48.9702411" y="0" width="44.073217" height="6.85583376"></rect>
                    <rect x="97.9404822" y="0" width="44.073217" height="6.85583376"></rect>
                </g>
                <g id="Oval-4-+-Oval-5" transform="translate(12.732263, 44.073217)" fill="#4A4A4A">
                    <path d="M7.72530262,6.31007713 C9.5233652,6.31007713 10.9809828,4.85989639 10.9809828,3.0710076 C10.9809828,1.2821188 9.5233652,-0.168061932 7.72530262,-0.168061932 C5.92724004,-0.168061932 4.46962248,1.2821188 4.46962248,3.0710076 C4.46962248,4.85989639 5.92724004,6.31007713 7.72530262,6.31007713 Z" id="Oval-4"></path>
                    <path d="M14.8976964,14.8900893 C14.8976964,10.1402811 11.6691047,6.28980126 7.68643468,6.28980126 C3.70376462,6.28980126 0.475172974,10.1402811 0.475172974,14.8900893" id="Oval-5"></path>
                </g>
                <g id="Rectangle-54-+-Your" transform="translate(93.806631, 67.901505)">
                    <rect id="Rectangle-54" fill="#C73131" x="-2.84217094e-14" y="0" width="195.977549" height="89.036802" rx="3"></rect>
                    <path d="M27.0266091,15.6576161 L19.6723233,27.7261875 L19.6723233,38.6633303 L17.0323233,38.6633303 L17.0323233,27.7261875 L9.55232335,15.6576161 L12.6951805,15.6576161 L18.3208948,24.7404732 L23.8837519,15.6576161 L27.0266091,15.6576161 Z M37.9008948,21.0947589 C40.3732881,21.0947589 42.4737433,21.9852262 44.2023233,23.7661875 C45.9309034,25.5471488 46.7951805,27.6842703 46.7951805,30.1776161 C46.7951805,32.6709619 45.9413795,34.8028453 44.2337519,36.5733303 C42.5261243,38.3438154 40.4151931,39.2290446 37.9008948,39.2290446 C35.3865965,39.2290446 33.2704272,38.3438154 31.5523233,36.5733303 C29.8342195,34.8028453 28.9751805,32.6709619 28.9751805,30.1776161 C28.9751805,27.6842703 29.8394576,25.5471488 31.5680376,23.7661875 C33.2966177,21.9852262 35.407549,21.0947589 37.9008948,21.0947589 Z M37.9008948,36.7461875 C39.6399511,36.7461875 41.1223172,36.1123843 42.3480376,34.8447589 C43.573758,33.5771335 44.1866091,32.047625 44.1866091,30.2561875 C44.1866091,28.46475 43.563282,26.9142893 42.3166091,25.6047589 C41.0699362,24.2952286 39.5928081,23.6404732 37.8851805,23.6404732 C36.1775529,23.6404732 34.7056629,24.2952286 33.4694662,25.6047589 C32.2332695,26.9142893 31.6151805,28.469988 31.6151805,30.2719018 C31.6151805,32.0738155 32.2123174,33.6033241 33.4066091,34.8604732 C34.6009007,36.1176223 36.098981,36.7461875 37.9008948,36.7461875 Z M65.1180376,38.6633303 L62.5094662,38.6633303 L62.5094662,36.0861875 C60.8123149,38.0976261 58.8009064,39.1033303 56.4751805,39.1033303 C55.2389838,39.1033303 54.1180427,38.7838097 53.1123233,38.1447589 C52.106604,37.5057081 51.3523259,36.6257169 50.8494662,35.5047589 C50.3466065,34.3838009 50.0951805,32.6604848 50.0951805,30.3347589 L50.0951805,21.5347589 L52.6723233,21.5347589 L52.6723233,29.7061875 C52.6723233,31.5919112 52.7613701,32.8752317 52.9394662,33.5561875 C53.1175623,34.2371433 53.3794645,34.813328 53.7251805,35.2847589 C54.0708965,35.7561898 54.5108921,36.1071387 55.0451805,36.3376161 C55.5794689,36.5680934 56.2289862,36.6833303 56.9937519,36.6833303 C57.7585176,36.6833303 58.5075578,36.4947608 59.2408948,36.1176161 C59.9742318,35.7404713 60.6027969,35.216667 61.1266091,34.5461875 C61.6504212,33.8757079 62.0118462,33.1633341 62.2108948,32.4090446 C62.4099434,31.6547551 62.5094662,30.1461988 62.5094662,27.8833303 L62.5094662,21.5347589 L65.1180376,21.5347589 L65.1180376,38.6633303 Z M76.6837519,21.7861875 L75.3323233,23.9861875 C74.9761311,23.7976151 74.6304203,23.7033303 74.2951805,23.7033303 C73.6456534,23.7033303 73.0589926,24.022851 72.5351805,24.6619018 C72.0113683,25.3009526 71.6185151,26.1390394 71.3566091,27.1761875 C71.094703,28.2133355 70.9637519,30.0833168 70.9637519,32.7861875 L70.9637519,38.6633303 L68.3237519,38.6633303 L68.3237519,21.5347589 L70.9637519,21.5347589 L70.9637519,23.3890446 C71.4875641,22.6138027 72.0166064,22.0376179 72.5508948,21.6604732 C73.0851832,21.2833285 73.6927961,21.0947589 74.3737519,21.0947589 C75.0547077,21.0947589 75.8247,21.3252328 76.6837519,21.7861875 Z M11.5008948,47.6576161 L16.2151805,47.6576161 C18.8970987,47.6576161 20.6570811,47.7623769 21.4951805,47.9719018 C22.3332799,48.1814266 23.1032722,48.5585657 23.8051805,49.1033303 C24.5070888,49.648095 25.0570833,50.3290405 25.4551805,51.1461875 C25.8532777,51.9633344 26.0523233,52.88523 26.0523233,53.9119018 C26.0523233,54.9385736 25.8585158,55.8604691 25.4708948,56.6776161 C25.0832738,57.494763 24.5280412,58.1704705 23.8051805,58.7047589 C23.0823197,59.2390473 22.1970905,59.6161864 21.1494662,59.8361875 C20.1018419,60.0561886 18.2475747,60.1661875 15.5866091,60.1661875 L14.2037519,60.1661875 L14.2037519,70.6633303 L11.5008948,70.6633303 L11.5008948,47.6576161 Z M14.2037519,57.5576161 L17.7866091,57.5576161 C19.9028101,57.599521 21.3432719,57.2642863 22.1080376,56.5519018 C22.8728034,55.8395173 23.2551805,54.94905 23.2551805,53.8804732 C23.2551805,51.4918898 21.4951981,50.2976161 17.9751805,50.2976161 L14.2037519,50.2976161 L14.2037519,57.5576161 Z M36.9894662,53.7861875 L35.6380376,55.9861875 C35.2818454,55.7976151 34.9361345,55.7033303 34.6008948,55.7033303 C33.9513677,55.7033303 33.3647069,56.022851 32.8408948,56.6619018 C32.3170826,57.3009526 31.9242294,58.1390394 31.6623233,59.1761875 C31.4004173,60.2133355 31.2694662,62.0833168 31.2694662,64.7861875 L31.2694662,70.6633303 L28.6294662,70.6633303 L28.6294662,53.5347589 L31.2694662,53.5347589 L31.2694662,55.3890446 C31.7932783,54.6138027 32.3223207,54.0376179 32.8566091,53.6604732 C33.3908974,53.2833285 33.9985104,53.0947589 34.6794662,53.0947589 C35.360422,53.0947589 36.1304143,53.3252328 36.9894662,53.7861875 Z M47.3608948,53.0947589 C49.8332881,53.0947589 51.9337433,53.9852262 53.6623233,55.7661875 C55.3909034,57.5471488 56.2551805,59.6842703 56.2551805,62.1776161 C56.2551805,64.6709619 55.4013795,66.8028453 53.6937519,68.5733303 C51.9861243,70.3438154 49.8751931,71.2290446 47.3608948,71.2290446 C44.8465965,71.2290446 42.7304272,70.3438154 41.0123233,68.5733303 C39.2942195,66.8028453 38.4351805,64.6709619 38.4351805,62.1776161 C38.4351805,59.6842703 39.2994576,57.5471488 41.0280376,55.7661875 C42.7566177,53.9852262 44.867549,53.0947589 47.3608948,53.0947589 Z M47.3608948,68.7461875 C49.0999511,68.7461875 50.5823172,68.1123843 51.8080376,66.8447589 C53.033758,65.5771335 53.6466091,64.047625 53.6466091,62.2561875 C53.6466091,60.46475 53.023282,58.9142893 51.7766091,57.6047589 C50.5299362,56.2952286 49.0528081,55.6404732 47.3451805,55.6404732 C45.6375529,55.6404732 44.1656629,56.2952286 42.9294662,57.6047589 C41.6932695,58.9142893 41.0751805,60.469988 41.0751805,62.2719018 C41.0751805,64.0738155 41.6723174,65.6033241 42.8666091,66.8604732 C44.0609007,68.1176223 45.558981,68.7461875 47.3608948,68.7461875 Z M76.9037519,70.6633303 L74.3580376,70.6633303 L74.3580376,68.1490446 C72.4932664,70.2023882 70.3404308,71.2290446 67.8994662,71.2290446 C65.4585016,71.2290446 63.3789986,70.3385773 61.6608948,68.5576161 C59.9427909,66.7766548 59.0837519,64.6395333 59.0837519,62.1461875 C59.0837519,59.6528417 59.953267,57.5209582 61.6923233,55.7504732 C63.4313797,53.9799882 65.552787,53.0947589 68.0566091,53.0947589 C70.5604311,53.0947589 72.6608863,54.1109392 74.3580376,56.1433303 L74.3580376,47.0919018 L76.9037519,47.0919018 L76.9037519,70.6633303 Z M68.1037519,68.8090446 C69.7589983,68.8090446 71.2361264,68.1909556 72.5351805,66.9547589 C73.8342346,65.7185623 74.4837519,64.1523874 74.4837519,62.2561875 C74.4837519,60.3599875 73.881377,58.7780986 72.6766091,57.5104732 C71.4718411,56.2428478 69.9528087,55.6090446 68.1194662,55.6090446 C66.2861237,55.6090446 64.7566152,56.2638 63.5308948,57.5733303 C62.3051744,58.8828607 61.6923233,60.4228453 61.6923233,62.1933303 C61.6923233,63.9638154 62.3208885,65.509038 63.5780376,66.8290446 C64.8351868,68.1490512 66.3437431,68.8090446 68.1037519,68.8090446 Z M96.1066091,70.6633303 L93.4980376,70.6633303 L93.4980376,68.0861875 C91.8008863,70.0976261 89.7894778,71.1033303 87.4637519,71.1033303 C86.2275553,71.1033303 85.1066141,70.7838097 84.1008948,70.1447589 C83.0951755,69.5057081 82.3408973,68.6257169 81.8380376,67.5047589 C81.335178,66.3838009 81.0837519,64.6604848 81.0837519,62.3347589 L81.0837519,53.5347589 L83.6608948,53.5347589 L83.6608948,61.7061875 C83.6608948,63.5919112 83.7499415,64.8752317 83.9280376,65.5561875 C84.1061338,66.2371433 84.3680359,66.813328 84.7137519,67.2847589 C85.0594679,67.7561898 85.4994635,68.1071387 86.0337519,68.3376161 C86.5680403,68.5680934 87.2175576,68.6833303 87.9823233,68.6833303 C88.7470891,68.6833303 89.4961292,68.4947608 90.2294662,68.1176161 C90.9628032,67.7404713 91.5913683,67.216667 92.1151805,66.5461875 C92.6389926,65.8757079 93.0004176,65.1633341 93.1994662,64.4090446 C93.3985148,63.6547551 93.4980376,62.1461988 93.4980376,59.8833303 L93.4980376,53.5347589 L96.1066091,53.5347589 L96.1066091,70.6633303 Z M117.19518,67.1747589 C116.294224,68.4947655 115.115664,69.5004697 113.659466,70.1919018 C112.203268,70.8833338 110.626618,71.2290446 108.929466,71.2290446 C106.289453,71.2290446 104.084237,70.3595295 102.313752,68.6204732 C100.543267,66.8814169 99.6580376,64.7547715 99.6580376,62.2404732 C99.6580376,59.7261749 100.548505,57.5733393 102.329466,55.7819018 C104.110427,53.9904642 106.415166,53.0947589 109.243752,53.0947589 C110.919951,53.0947589 112.465173,53.4614219 113.879466,54.1947589 C115.293759,54.9280959 116.398986,55.9547523 117.19518,57.2747589 L115.152323,58.5633303 C113.622792,56.5728442 111.62186,55.5776161 109.149466,55.5776161 C107.200885,55.5776161 105.566616,56.2009432 104.246609,57.4476161 C102.926602,58.694289 102.266609,60.2395116 102.266609,62.0833303 C102.266609,63.9271491 102.916126,65.509038 104.21518,66.8290446 C105.514235,68.1490512 107.15898,68.8090446 109.149466,68.8090446 C111.53805,68.8090446 113.549458,67.8033404 115.183752,65.7919018 L117.19518,67.1747589 Z M128.666609,55.7976161 L125.272323,55.7976161 L125.272323,67.8033303 C125.272323,68.2433325 125.33518,68.5104727 125.460895,68.6047589 C125.58661,68.6990451 125.900892,68.7461875 126.403752,68.7461875 L127.912323,68.7461875 L127.912323,70.9776161 C126.906604,71.1452359 126.14185,71.2290446 125.618038,71.2290446 C124.612318,71.2290446 123.868516,70.9828566 123.386609,70.4904732 C122.904702,69.9980898 122.663752,69.2176214 122.663752,68.1490446 L122.663752,55.7976161 L119.709466,55.7976161 L119.709466,53.5347589 L122.663752,53.5347589 L122.663752,47.0919018 L125.272323,47.0919018 L125.272323,53.5347589 L128.666609,53.5347589 L128.666609,55.7976161 Z M159.938038,70.6633303 L157.078038,70.6633303 L153.526609,62.9633303 L144.03518,62.9633303 L140.51518,70.6633303 L137.529466,70.6633303 L148.403752,46.7461875 L149.220895,46.7461875 L159.938038,70.6633303 Z M152.300895,60.2290446 L148.812323,52.4661875 L145.292323,60.2290446 L152.300895,60.2290446 Z M162.892323,47.6576161 L167.79518,47.6576161 C171.105673,47.6576161 173.515173,47.9038041 175.023752,48.3961875 C176.532331,48.8885709 177.836604,49.6533252 178.936609,50.6904732 C180.036615,51.7276212 180.879939,52.9899896 181.466609,54.4776161 C182.053279,55.9652425 182.346609,57.6833206 182.346609,59.6319018 C182.346609,61.5804829 181.911852,63.419036 181.042323,65.1476161 C180.172795,66.8761961 178.936617,68.2276112 177.333752,69.2019018 C175.730887,70.1761924 173.389482,70.6633303 170.309466,70.6633303 L162.892323,70.6633303 L162.892323,47.6576161 Z M165.500895,68.0861875 L167.889466,68.0861875 C170.550432,68.0861875 172.488508,67.9499984 173.703752,67.6776161 C174.918996,67.4052337 175.977081,66.8814295 176.878038,66.1061875 C177.778995,65.3309455 178.465178,64.3828598 178.936609,63.2619018 C179.40804,62.1409438 179.643752,60.8471472 179.643752,59.3804732 C179.643752,57.9137992 179.366136,56.5571461 178.810895,55.3104732 C178.255654,54.0638003 177.464709,53.04762 176.438038,52.2619018 C175.411366,51.4761836 174.206616,50.9523793 172.823752,50.6904732 C171.440888,50.4285671 169.460908,50.2976161 166.883752,50.2976161 L165.500895,50.2976161 L165.500895,68.0861875 Z" id="Your" fill="#FFFFFF"></path>
                </g>
            </g>
        </g>
    </g>
</svg>