<?xml version="1.0" encoding="UTF-8" standalone="no"?>
<svg width="600px" height="450px" viewBox="0 0 600 450" version="1.1" xmlns="http://www.w3.org/2000/svg" xmlns:xlink="http://www.w3.org/1999/xlink" xmlns:sketch="http://www.bohemiancoding.com/sketch/ns">
    <title>Untitled</title>
    <description>Created with Sketch (http://www.bohemiancoding.com/sketch)</description>
    <defs></defs>
    <g id="Page-1" stroke="none" stroke-width="1" fill="none" fill-rule="evenodd" sketch:type="MSPage">
        <g id="Group" sketch:type="MSLayerGroup" transform="translate(102.000000, 52.000000)">
            <path d="M355.159705,161.168039 L42.1831724,239.006923 L42.1831724,158.758267 L355.159705,161.168039 Z" id="Path-9" fill="#FBFAFA" sketch:type="MSShapeGroup"></path>
            <g id="Rectangle-5-+-Rectangle-4-+-Path-4" transform="translate(182.843433, 17.489372)" sketch:type="MSShapeGroup">
                <path d="M52.6126351,98.3906555 L45.72088,120.502461 C44.8424713,123.320785 46.4263879,125.605489 49.239462,125.605489 L110.460781,125.605489 C113.282448,125.605489 114.901512,123.332959 114.069064,120.502461 L107.565993,98.3906555 C106.737125,95.5723311 104.39839,93.2876277 102.356217,93.2876277 L57.9121132,93.2876277 C55.8637009,93.2876277 53.4948381,95.560157 52.6126351,98.3906555 Z" id="Rectangle-5" fill="#D8D8D8"></path>
                <rect id="Rectangle-4" stroke="#979797" stroke-width="6" fill="#FFFFFF" x="0" y="0" width="158.994289" height="95.3965736" rx="3"></rect>
                <path d="M108.116117,97.6824744 L49.2882297,110.296003 L53.1239158,97.5764594 L108.116117,97.6824744 Z" id="Path-4" fill="#C1C1C1"></path>
            </g>
            <g transform="translate(0.000000, 138.325032)" sketch:type="MSShapeGroup">
                <rect id="Rectangle-1" fill="#EB9C17" x="0" y="0" width="397.485723" height="23.8491434" rx="12"></rect>
                <rect id="Rectangle-2" fill="#EA9C18" x="345.017608" y="11.1296003" width="23.8491434" height="174.893718" rx="10"></rect>
                <rect id="Rectangle-2" fill="#EA9C18" x="27.0290292" y="11.1296003" width="23.8491434" height="174.893718" rx="10"></rect>
                <path d="M50.3471565,24.2435238 L26.9389559,24.2435238 L26.9389559,36.623718 L50.3471565,24.2435238 Z" id="Path-1" fill="#A77520"></path>
                <path d="M368.335735,24.2435238 L344.927535,24.2435238 L344.927535,36.623718 L368.335735,24.2435238 Z" id="Path-1" fill="#A77520"></path>
            </g>
            <path d="M270.290292,138.325032 C270.290292,130.42212 263.883717,124.015546 255.980806,124.015546 C248.077895,124.015546 241.67132,130.42212 241.67132,138.325032" id="Oval-2" fill="#606060" sketch:type="MSShapeGroup"></path>
            <ellipse id="Oval-1" fill="#FFD682" sketch:type="MSShapeGroup" cx="248.031091" cy="127.195431" rx="9.53965736" ry="9.53965736"></ellipse>
            <g transform="translate(63.597716, 0.000000)" sketch:type="MSShapeGroup">
                <g transform="translate(133.562949, 317.415425) rotate(-4.000000) translate(-133.562949, -317.415425) translate(101.764091, 303.900910)">
                    <rect id="Rectangle-20" fill="#E0E0E0" x="0.00774604196" y="14.0876684" width="62.0077728" height="12.7195431" rx="3"></rect>
                    <path d="M34.8627853,1.26079463 C23.244438,-1.35333281 3.00357764,-0.333966894 3.00357764,-0.333966894 C1.34902554,-0.27202856 0.00774604196,1.12874837 0.00774604196,2.77454432 L0.00774604196,20.6309638 C0.00774604196,22.2858088 1.36053351,23.6273258 2.99850981,23.6273258 L59.0247551,23.6273258 C60.6765083,23.6273258 62.2365936,22.3008773 62.5098713,20.6612112 L63.1111093,17.053783 C63.3841327,15.4156432 62.4083035,13.4581569 60.9378146,12.6948373 C60.9378146,12.6948373 42.8934357,3.06769098 34.8627853,1.26079463 Z" id="Rectangle-19" fill="#2DA1EE"></path>
                    <rect id="Rectangle-21" fill="#FFFFFF" transform="translate(43.731176, 9.317840) rotate(25.000000) translate(-43.731176, -9.317840) " x="41.3462613" y="4.54801106" width="4.76982868" height="9.53965736"></rect>
                    <rect id="Rectangle-21" fill="#FFFFFF" transform="translate(50.090947, 12.497726) rotate(25.000000) translate(-50.090947, -12.497726) " x="47.7060328" y="7.72789685" width="4.76982868" height="9.53965736"></rect>
                </g>
                <g transform="translate(31.798858, 318.783550) scale(-1, 1) translate(-31.798858, -318.783550) translate(0.000000, 305.269036)">
                    <rect id="Rectangle-20" fill="#E0E0E0" x="0" y="14.309486" width="62.0077728" height="12.7195431" rx="3"></rect>
                    <path d="M34.8550392,1.48261225 C23.236692,-1.13151519 2.9958316,-0.112149275 2.9958316,-0.112149275 C1.34127949,-0.0502109407 0,1.35056599 0,2.99636194 L0,20.8527815 C0,22.5076265 1.35278747,23.8491434 2.99076377,23.8491434 L59.0170091,23.8491434 C60.6687623,23.8491434 62.2288476,22.5226949 62.5021253,20.8830288 L63.1033633,17.2756007 C63.3763866,15.6374608 62.4005575,13.6799745 60.9300686,12.9166549 C60.9300686,12.9166549 42.8856896,3.2895086 34.8550392,1.48261225 Z" id="Rectangle-19" fill="#2DA1EE"></path>
                    <rect id="Rectangle-21" fill="#FFFFFF" transform="translate(43.723430, 9.539657) rotate(25.000000) translate(-43.723430, -9.539657) " x="41.3385152" y="4.76982868" width="4.76982868" height="9.53965736"></rect>
                    <rect id="Rectangle-21" fill="#FFFFFF" transform="translate(50.083201, 12.719543) rotate(25.000000) translate(-50.083201, -12.719543) " x="47.6982868" y="7.94971447" width="4.76982868" height="9.53965736"></rect>
                </g>
                <g transform="translate(47.698287, 0.000000)">
                    <rect id="Rectangle-14" fill="#FFCC62" x="16.0990879" y="61.4398917" width="28.4677855" height="5.33770979"></rect>
                    <rect id="Rectangle-15" fill="#FFD682" x="-0.721995552" y="-0.543220683" width="61.9831124" height="61.9831124" rx="9"></rect>
                    <path d="M1.27009191,-0.543220683 C0.169892383,-0.543220683 -0.721995552,0.357657247 -0.721995552,1.45626812 L-0.721995552,36.6466468 C-0.721995552,36.6466468 12.8282306,44.5963629 30.77409,44.5963612 C48.7199493,44.5963609 61.2611169,36.6466468 61.2611169,36.6466468 L61.2611169,1.45626812 C61.2611169,0.351980945 60.3610111,-0.543220683 59.2690294,-0.543220683 L1.27009191,-0.543220683 Z" id="Rectangle-16" fill="#656565"></path>
                    <path d="M44.5764299,61.4980992 L16.1373137,65.2355386 L16.1373137,61.4980992 L44.5764299,61.4980992 Z" id="Path-8" fill="#FFB829"></path>
                </g>
                <rect id="Rectangle-17" fill="#535353" transform="translate(114.475888, 252.800920) rotate(-5.000000) translate(-114.475888, -252.800920) " x="93.8066307" y="193.973033" width="41.3385152" height="117.655774" rx="3"></rect>
                <rect id="Rectangle-17" fill="#535353" x="23.8491434" y="193.973033" width="41.3385152" height="117.655774" rx="3"></rect>
                <path d="M79.8527081,65.1876586 C64.8947199,65.187662 34.9787437,66.7776015 34.9787437,66.7776015 L34.9787437,200.332805 L124.015546,200.332805 L124.015546,66.7776015 C124.015546,66.7776015 94.5736539,65.1876586 79.8527081,65.1876586 Z" id="Rectangle-8" fill="#6C87BC"></path>
                <rect id="Rectangle-9" fill="#6C86BC" x="89.036802" y="66.7776015" width="50.8781726" height="28.6189721" rx="5"></rect>
                <rect id="Rectangle-9" fill="#6C86BC" x="17.4893718" y="66.7776015" width="50.8781726" height="28.6189721" rx="5"></rect>
                <rect id="Rectangle-9" fill="#6C86BC" transform="translate(138.069112, 106.506842) rotate(-285.000000) translate(-138.069112, -106.506842) " x="99.1155115" y="95.3772414" width="77.9072018" height="22.7050941" rx="5"></rect>
                <rect id="Rectangle-9" fill="#637CB1" transform="translate(159.623243, 132.230101) rotate(-189.000000) translate(-159.623243, -132.230101) " x="134.184156" y="120.877554" width="50.8781726" height="22.7050941" rx="5"></rect>
                <rect id="Rectangle-9" fill="#6C86BC" transform="translate(23.299159, 106.165814) rotate(-263.000000) translate(-23.299159, -106.165814) " x="-15.6544415" y="94.8132666" width="77.9072018" height="22.7050941" rx="5"></rect>
            </g>
            <g transform="translate(87.446859, 125.605489)" sketch:type="MSShapeGroup">
                <rect id="Rectangle-2" fill="#FFC25A" x="90.6267449" y="109.70606" width="15.8994289" height="111.296003" rx="5"></rect>
                <rect id="Rectangle-2" fill="#FFC25A" x="4.76982868" y="109.70606" width="15.8994289" height="111.296003" rx="5"></rect>
                <rect id="Rectangle-2" fill="#FFC25A" x="0" y="0" width="111.296003" height="119.245717" rx="5"></rect>
                <path d="M20.1382415,119.640097 L4.67975542,119.640097 L4.67975542,127.250463 L20.1382415,119.640097 Z" id="Path-1" fill="#A77520"></path>
                <path d="M105.995158,119.640097 L90.5366717,119.640097 L90.5366717,127.250463 L105.995158,119.640097 Z" id="Path-1" fill="#A77520"></path>
            </g>
            <g id="Rectangle-54-+-Your" transform="translate(230.541720, 28.618972)" sketch:type="MSShapeGroup">
                <rect id="Rectangle-54" fill="#C73131" x="0" y="7.10542736e-15" width="100.166402" height="73.1373731" rx="3"></rect>
                <path d="M23.5107431,18.5997718 L19.1115431,25.8189718 L19.1115431,32.3613718 L17.5323431,32.3613718 L17.5323431,25.8189718 L13.0579431,18.5997718 L14.9379431,18.5997718 L18.3031431,24.0329718 L21.6307431,18.5997718 L23.5107431,18.5997718 Z M30.0155431,21.8521718 C31.4944839,21.8521718 32.750938,22.3848332 33.7849431,23.4501718 C34.8189483,24.5155105 35.3359431,25.7938977 35.3359431,27.2853718 C35.3359431,28.776846 34.8252149,30.0520999 33.8037431,31.1111718 C32.7822714,32.1702438 31.5195507,32.6997718 30.0155431,32.6997718 C28.5115356,32.6997718 27.2456816,32.1702438 26.2179431,31.1111718 C25.1902047,30.0520999 24.6763431,28.776846 24.6763431,27.2853718 C24.6763431,25.7938977 25.193338,24.5155105 26.2273431,23.4501718 C27.2613483,22.3848332 28.524069,21.8521718 30.0155431,21.8521718 Z M30.0155431,31.2145718 C31.055815,31.2145718 31.9425395,30.8354423 32.6757431,30.0771718 C33.4089468,29.3189014 33.7755431,28.4039772 33.7755431,27.3323718 C33.7755431,26.2607665 33.4026802,25.3333091 32.6569431,24.5499718 C31.9112061,23.7666346 31.0276149,23.3749718 30.0061431,23.3749718 C28.9846714,23.3749718 28.1042135,23.7666346 27.3647431,24.5499718 C26.6252728,25.3333091 26.2555431,26.2638998 26.2555431,27.3417718 C26.2555431,28.4196439 26.6127396,29.3345681 27.3271431,30.0865718 C28.0415467,30.8385756 28.9376711,31.2145718 30.0155431,31.2145718 Z M46.2963431,32.3613718 L44.7359431,32.3613718 L44.7359431,30.8197718 C43.7207381,32.0229778 42.5175501,32.6245718 41.1263431,32.6245718 C40.3868728,32.6245718 39.7163462,32.4334404 39.1147431,32.0511718 C38.5131401,31.6689032 38.0619447,31.1425085 37.7611431,30.4719718 C37.4603416,29.8014351 37.3099431,28.7705788 37.3099431,27.3793718 L37.3099431,22.1153718 L38.8515431,22.1153718 L38.8515431,27.0033718 C38.8515431,28.1313775 38.9048093,28.8990365 39.0113431,29.3063718 C39.117877,29.7137072 39.2745421,30.0583704 39.4813431,30.3403718 C39.6881442,30.6223732 39.9513415,30.8323045 40.2709431,30.9701718 C40.5905447,31.1080392 40.9790742,31.1769718 41.4365431,31.1769718 C41.8940121,31.1769718 42.3420743,31.064173 42.7807431,30.8385718 C43.219412,30.6129707 43.5954082,30.2996405 43.9087431,29.8985718 C44.222078,29.4975032 44.4382759,29.0713741 44.5573431,28.6201718 C44.6764104,28.1689696 44.7359431,27.2665786 44.7359431,25.9129718 L44.7359431,22.1153718 L46.2963431,22.1153718 L46.2963431,32.3613718 Z M53.2147431,22.2657718 L52.4063431,23.5817718 C52.1932754,23.4689713 51.9864775,23.4125718 51.7859431,23.4125718 C51.3974079,23.4125718 51.046478,23.6037032 50.7331431,23.9859718 C50.4198082,24.3682404 50.1848106,24.8695687 50.0281431,25.4899718 C49.8714757,26.1103749 49.7931431,27.2289637 49.7931431,28.8457718 L49.7931431,32.3613718 L48.2139431,32.3613718 L48.2139431,22.1153718 L49.7931431,22.1153718 L49.7931431,23.2245718 C50.106478,22.7608362 50.4229415,22.416173 50.7425431,22.1905718 C51.0621447,21.9649707 51.4256078,21.8521718 51.8329431,21.8521718 C52.2402785,21.8521718 52.7008739,21.9900371 53.2147431,22.2657718 Z M14.2235431,38.5997718 L17.0435431,38.5997718 C18.6478178,38.5997718 19.7006073,38.6624379 20.2019431,38.7877718 C20.703279,38.9131058 21.1638744,39.1387035 21.5837431,39.4645718 C22.0036119,39.7904401 22.3326086,40.1977694 22.5707431,40.6865718 C22.8088777,41.1753743 22.9279431,41.7268354 22.9279431,42.3409718 C22.9279431,42.9551082 22.812011,43.5065694 22.5801431,43.9953718 C22.3482753,44.4841743 22.0161453,44.8883702 21.5837431,45.2079718 C21.151341,45.5275734 20.6218129,45.7531712 19.9951431,45.8847718 C19.3684733,46.0163725 18.2592844,46.0821718 16.6675431,46.0821718 L15.8403431,46.0821718 L15.8403431,52.3613718 L14.2235431,52.3613718 L14.2235431,38.5997718 Z M15.8403431,44.5217718 L17.9835431,44.5217718 C19.2494161,44.5468386 20.1110742,44.3463073 20.5685431,43.9201718 C21.0260121,43.4940364 21.2547431,42.961375 21.2547431,42.3221718 C21.2547431,40.8933647 20.2019537,40.1789718 18.0963431,40.1789718 L15.8403431,40.1789718 L15.8403431,44.5217718 Z M29.4703431,42.2657718 L28.6619431,43.5817718 C28.4488754,43.4689713 28.2420775,43.4125718 28.0415431,43.4125718 C27.6530079,43.4125718 27.302078,43.6037032 26.9887431,43.9859718 C26.6754082,44.3682404 26.4404106,44.8695687 26.2837431,45.4899718 C26.1270757,46.1103749 26.0487431,47.2289637 26.0487431,48.8457718 L26.0487431,52.3613718 L24.4695431,52.3613718 L24.4695431,42.1153718 L26.0487431,42.1153718 L26.0487431,43.2245718 C26.362078,42.7608362 26.6785415,42.416173 26.9981431,42.1905718 C27.3177447,41.9649707 27.6812078,41.8521718 28.0885431,41.8521718 C28.4958785,41.8521718 28.9564739,41.9900371 29.4703431,42.2657718 Z M35.6743431,41.8521718 C37.1532839,41.8521718 38.409738,42.3848332 39.4437431,43.4501718 C40.4777483,44.5155105 40.9947431,45.7938977 40.9947431,47.2853718 C40.9947431,48.776846 40.4840149,50.0520999 39.4625431,51.1111718 C38.4410714,52.1702438 37.1783507,52.6997718 35.6743431,52.6997718 C34.1703356,52.6997718 32.9044816,52.1702438 31.8767431,51.1111718 C30.8490047,50.0520999 30.3351431,48.776846 30.3351431,47.2853718 C30.3351431,45.7938977 30.852138,44.5155105 31.8861431,43.4501718 C32.9201483,42.3848332 34.182869,41.8521718 35.6743431,41.8521718 Z M35.6743431,51.2145718 C36.714615,51.2145718 37.6013395,50.8354423 38.3345431,50.0771718 C39.0677468,49.3189014 39.4343431,48.4039772 39.4343431,47.3323718 C39.4343431,46.2607665 39.0614802,45.3333091 38.3157431,44.5499718 C37.5700061,43.7666346 36.6864149,43.3749718 35.6649431,43.3749718 C34.6434714,43.3749718 33.7630135,43.7666346 33.0235431,44.5499718 C32.2840728,45.3333091 31.9143431,46.2638998 31.9143431,47.3417718 C31.9143431,48.4196439 32.2715396,49.3345681 32.9859431,50.0865718 C33.7003467,50.8385756 34.5964711,51.2145718 35.6743431,51.2145718 Z M53.3463431,52.3613718 L51.8235431,52.3613718 L51.8235431,50.8573718 C50.7080709,52.0856446 49.4202838,52.6997718 47.9601431,52.6997718 C46.5000025,52.6997718 45.2560816,52.1671105 44.2283431,51.1017718 C43.2006047,50.0364332 42.6867431,48.758046 42.6867431,47.2665718 C42.6867431,45.7750977 43.2068713,44.4998438 44.2471431,43.4407718 C45.287415,42.3816999 46.5564023,41.8521718 48.0541431,41.8521718 C49.551884,41.8521718 50.8083381,42.4600324 51.8235431,43.6757718 L51.8235431,38.2613718 L53.3463431,38.2613718 L53.3463431,52.3613718 Z M48.0823431,51.2521718 C49.0724814,51.2521718 49.9560726,50.8824422 50.7331431,50.1429718 C51.5102137,49.4035015 51.8987431,48.4666442 51.8987431,47.3323718 C51.8987431,46.1980995 51.5384134,45.2518423 50.8177431,44.4935718 C50.0970729,43.7353014 49.1884153,43.3561718 48.0917431,43.3561718 C46.995071,43.3561718 46.0801468,43.7478346 45.3469431,44.5311718 C44.6137395,45.3145091 44.2471431,46.2356999 44.2471431,47.2947718 C44.2471431,48.3538438 44.6231394,49.2781679 45.3751431,50.0677718 C46.1271469,50.8573758 47.0295379,51.2521718 48.0823431,51.2521718 Z M64.8331431,52.3613718 L63.2727431,52.3613718 L63.2727431,50.8197718 C62.2575381,52.0229778 61.0543501,52.6245718 59.6631431,52.6245718 C58.9236728,52.6245718 58.2531462,52.4334404 57.6515431,52.0511718 C57.0499401,51.6689032 56.5987447,51.1425085 56.2979431,50.4719718 C55.9971416,49.8014351 55.8467431,48.7705788 55.8467431,47.3793718 L55.8467431,42.1153718 L57.3883431,42.1153718 L57.3883431,47.0033718 C57.3883431,48.1313775 57.4416093,48.8990365 57.5481431,49.3063718 C57.654677,49.7137072 57.8113421,50.0583704 58.0181431,50.3403718 C58.2249442,50.6223732 58.4881415,50.8323045 58.8077431,50.9701718 C59.1273447,51.1080392 59.5158742,51.1769718 59.9733431,51.1769718 C60.4308121,51.1769718 60.8788743,51.064173 61.3175431,50.8385718 C61.756212,50.6129707 62.1322082,50.2996405 62.4455431,49.8985718 C62.758878,49.4975032 62.9750759,49.0713741 63.0941431,48.6201718 C63.2132104,48.1689696 63.2727431,47.2665786 63.2727431,45.9129718 L63.2727431,42.1153718 L64.8331431,42.1153718 L64.8331431,52.3613718 Z M77.4479431,50.2745718 C76.9090071,51.0641758 76.2040142,51.6657698 75.3329431,52.0793718 C74.4618721,52.4929739 73.5187482,52.6997718 72.5035431,52.6997718 C70.9243353,52.6997718 69.6052151,52.1796437 68.5461431,51.1393718 C67.4870712,50.0991 66.9575431,48.8269793 66.9575431,47.3229718 C66.9575431,45.8189643 67.4902045,44.5311772 68.5555431,43.4595718 C69.6208818,42.3879665 70.9995347,41.8521718 72.6915431,41.8521718 C73.6942148,41.8521718 74.6185389,42.071503 75.4645431,42.5101718 C76.3105474,42.9488407 76.9716741,43.5629679 77.4479431,44.3525718 L76.2259431,45.1233718 C75.3110052,43.9326992 74.1140839,43.3373718 72.6351431,43.3373718 C71.4695373,43.3373718 70.4919471,43.7102348 69.7023431,44.4559718 C68.9127392,45.2017089 68.5179431,46.126033 68.5179431,47.2289718 C68.5179431,48.3319107 68.9064726,49.2781679 69.6835431,50.0677718 C70.4606137,50.8573758 71.4444705,51.2521718 72.6351431,51.2521718 C74.0639503,51.2521718 75.2671383,50.6505778 76.2447431,49.4473718 L77.4479431,50.2745718 Z M84.3099431,43.4689718 L82.2795431,43.4689718 L82.2795431,50.6505718 C82.2795431,50.9137731 82.3171428,51.0735715 82.3923431,51.1299718 C82.4675435,51.1863721 82.6555416,51.2145718 82.9563431,51.2145718 L83.8587431,51.2145718 L83.8587431,52.5493718 C83.2571401,52.649639 82.799678,52.6997718 82.4863431,52.6997718 C81.8847401,52.6997718 81.4398113,52.5525066 81.1515431,52.2579718 C80.863275,51.963437 80.7191431,51.496575 80.7191431,50.8573718 L80.7191431,43.4689718 L78.9519431,43.4689718 L78.9519431,42.1153718 L80.7191431,42.1153718 L80.7191431,38.2613718 L82.2795431,38.2613718 L82.2795431,42.1153718 L84.3099431,42.1153718 L84.3099431,43.4689718 Z" id="Your" fill="#FFFFFF"></path>
            </g>
        </g>
    </g>
</svg>