<?xml version="1.0" encoding="UTF-8" standalone="no"?>
<svg width="72px" height="72px" viewBox="0 0 72 72" version="1.1" xmlns="http://www.w3.org/2000/svg" xmlns:xlink="http://www.w3.org/1999/xlink" xmlns:sketch="http://www.bohemiancoding.com/sketch/ns">
    <title>Untitled</title>
    <description>Created with Sketch (http://www.bohemiancoding.com/sketch)</description>
    <defs></defs>
    <g id="Page-1" stroke="none" stroke-width="1" fill="none" fill-rule="evenodd" sketch:type="MSPage">
        <g id="multi-screen" sketch:type="MSLayerGroup" transform="translate(1.000000, 12.000000)" fill="#FFFFFF">
            <g id="Rectangle-26-+-Rectangle-26" transform="translate(0.128798, 6.904726)" sketch:type="MSShapeGroup">
                <path d="M31.9662194,31.0207207 L32.2184783,31.0207207 L32.2184783,35.5859577 L4.9504498,35.5859577 C2.41401805,35.5859577 0.377566453,33.5420315 0.377566453,31.0207207 L18.8516607,31.0207207 C19.15706,31.7383559 19.8691967,32.2417435 20.6891993,32.2417435 L30.1278683,32.2417435 C30.9537952,32.2417435 31.6625732,31.7376112 31.9662194,31.0207207 Z" id="Rectangle-26"></path>
                <path d="M5.17481437,1.99421475 L5.17481437,27.9405973 C5.17481437,29.0424148 6.07181905,29.934812 7.17272901,29.934812 L32.0352649,29.934812 L32.0352652,12.9136333 L39.4212304,12.913633 L39.4212304,1.99525825 C39.4212304,0.893621852 38.5180411,0 37.420799,0 L7.17524573,0 C6.07059517,0 5.17481437,0.886295795 5.17481437,1.99421475 Z M37.420799,2 C37.4182112,2 37.4212304,12.913633 37.4212304,12.913633 L32.0352651,12.9136334 L32.0352649,27.934812 L7.17272901,27.934812 C7.17408953,27.934812 7.17481437,1.99421475 7.17481437,1.99421475 C7.17481437,1.99565908 37.420799,2 37.420799,2 Z" id="Rectangle-26"></path>
            </g>
            <path d="M46.7783203,42.5271529 L63.4706042,42.5271529 C64.9399841,42.5271529 66.1293945,41.3456001 66.1293945,39.8713041 L66.1293945,2.61566911 C66.1293945,1.14604824 64.9475554,-0.0401796961 63.4706042,-0.0401796961 L39.5231437,-0.0401796961 C38.0537638,-0.0401796961 36.8643534,1.14137314 36.8643534,2.61566911 L36.8643534,20.2241211 L46.7783205,20.2241216 L46.7783203,42.5271529 Z M39.5256563,20.200184 L39.5283206,3.94587777 C39.5283206,3.94491298 63.4707117,3.95030933 63.4707117,3.95030933 C63.4758349,3.95030933 63.4691317,37.2057262 63.4691317,37.2057262 C63.4691317,37.2063424 46.6450524,37.2028535 46.6450524,37.2028535 L46.5267406,20.2012946 C46.5241406,20.2012946 39.5256563,20.200184 39.5256563,20.200184 Z M51.496874,41.1969237 C52.2315393,41.1969237 52.8271031,40.6013599 52.8271031,39.8666946 C52.8271031,39.1320293 52.2315393,38.5364655 51.496874,38.5364655 C50.7622086,38.5364655 50.1666448,39.1320293 50.1666448,39.8666946 C50.1666448,40.6013599 50.7622086,41.1969237 51.496874,41.1969237 Z" id="Rectangle-26" sketch:type="MSShapeGroup"></path>
            <path d="M33.3422366,51.3027734 L45.4673337,51.3027734 C46.6043123,51.3027734 47.5246558,50.38851 47.5246558,49.2477274 L47.5246558,20.4200166 C47.5246558,19.2828516 46.6101708,18.3649707 45.4673337,18.3649707 L33.3422366,18.3649707 C32.205258,18.3649707 31.2849145,19.2792341 31.2849145,20.4200166 L31.2849145,49.2477274 C31.2849145,50.3848925 32.1993995,51.3027734 33.3422366,51.3027734 Z M32.888041,21.4493071 C32.888041,21.4485606 45.6951286,21.4527362 45.6951286,21.4527362 C45.697869,21.4527362 45.6942834,47.1851533 45.6942834,47.1851533 C45.6942834,47.1858998 32.8871959,47.1817242 32.8871959,47.1817242 C32.8844554,47.1817242 32.888041,21.4493071 32.888041,21.4493071 Z M39.4047852,50.273467 C39.9732554,50.273467 40.4340915,49.8126309 40.4340915,49.2441607 C40.4340915,48.6756905 39.9732554,48.2148544 39.4047852,48.2148544 C38.8363149,48.2148544 38.3754788,48.6756905 38.3754788,49.2441607 C38.3754788,49.8126309 38.8363149,50.273467 39.4047852,50.273467 Z" id="Rectangle-26" sketch:type="MSShapeGroup"></path>
        </g>
    </g>
</svg>