<?xml version="1.0" encoding="UTF-8" standalone="no"?>
<svg width="72px" height="72px" viewBox="0 0 72 72" version="1.1" xmlns="http://www.w3.org/2000/svg" xmlns:xlink="http://www.w3.org/1999/xlink" xmlns:sketch="http://www.bohemiancoding.com/sketch/ns">
    <title>Untitled</title>
    <description>Created with Sketch (http://www.bohemiancoding.com/sketch)</description>
    <defs></defs>
    <g id="Page-1" stroke="none" stroke-width="1" fill="none" fill-rule="evenodd" sketch:type="MSPage">
        <g id="feature-target" sketch:type="MSLayerGroup" transform="translate(3.000000, 3.000000)">
            <g id="Page-1" sketch:type="MSShapeGroup">
                <g id="target">
                    <path d="M32.5342466,60.4794521 C47.9679582,60.4794521 60.4794521,47.9679582 60.4794521,32.5342466 C60.4794521,17.100535 47.9679582,4.5890411 32.5342466,4.5890411 C17.100535,4.5890411 4.5890411,17.100535 4.5890411,32.5342466 C4.5890411,47.9679582 17.100535,60.4794521 32.5342466,60.4794521 L32.5342466,60.4794521 Z" id="Oval-16" stroke="#FFFFFF" stroke-width="4"></path>
                    <g id="Oval-4-+-Oval-5" transform="translate(18.561644, 18.561644)" fill="#FFFFFF">
                        <path d="M14.2868767,12.2223045 C17.7709679,12.2223045 20.5953815,9.48624863 20.5953815,6.11115226 C20.5953815,2.7360559 17.7709679,0 14.2868767,0 C10.8027856,0 7.97837193,2.7360559 7.97837193,6.11115226 C7.97837193,9.48624863 10.8027856,12.2223045 14.2868767,12.2223045 L14.2868767,12.2223045 Z" id="Oval-4"></path>
                        <path d="M27.9464057,28.0486211 C27.9464057,19.0871584 21.6903901,11.8224582 13.9732028,11.8224582 C6.25601562,11.8224582 0,19.0871584 0,28.0486211" id="Oval-5"></path>
                    </g>
                    <path d="M0.465753425,32.5890411 L11.6438356,32.5890411" id="Line" stroke="#FFFFFF" stroke-width="4" stroke-linecap="round"></path>
                    <path d="M54.3561644,32.5890411 L65.5342466,32.5890411" id="Line" stroke="#FFFFFF" stroke-width="4" stroke-linecap="round"></path>
                    <path d="M32.5890431,-0.0310159971 L32.5890411,11.1470662" id="Line" stroke="#FFFFFF" stroke-width="4" stroke-linecap="round"></path>
                    <path d="M32.5890431,54.8219178 L32.5890411,66.0248128" id="Line" stroke="#FFFFFF" stroke-width="4" stroke-linecap="round"></path>
                </g>
            </g>
        </g>
    </g>
</svg>