<?xml version="1.0" encoding="UTF-8" standalone="no"?>
<svg width="72px" height="72px" viewBox="0 0 72 72" version="1.1" xmlns="http://www.w3.org/2000/svg" xmlns:xlink="http://www.w3.org/1999/xlink" xmlns:sketch="http://www.bohemiancoding.com/sketch/ns">
    <title>Untitled</title>
    <description>Created with Sketch (http://www.bohemiancoding.com/sketch)</description>
    <defs></defs>
    <g id="Page-1" stroke="none" stroke-width="1" fill="none" fill-rule="evenodd" sketch:type="MSPage">
        <g id="like-button" sketch:type="MSLayerGroup" transform="translate(9.000000, 6.000000)" fill="#FFFFFF">
            <path d="M27.9186776,13.6951417 C27.8131998,13.8314013 27.757981,13.9993567 27.7626101,14.167312 C27.763602,14.2006417 27.8492408,17.5156365 27.8528779,18.3701177 C27.6154702,19.3533429 23.9558198,25.4806133 23.1318364,26.1746546 C22.8970739,26.3759396 22.5624546,26.6128417 22.1957621,26.8585663 C22.0750743,26.6183966 21.8244405,25.2218053 21.5361125,25.2218053 L11.1705199,25.2218053 C10.964524,25.2218053 10.763488,25.3087238 10.6219691,25.4587073 C10.479789,25.6060767 10.4103522,25.8142238 10.4252315,26.0164891 L11.4991874,40.4833715 C11.5305993,40.8692767 11.8552991,41.1692437 12.2431532,41.1692437 L21.5361125,41.1692437 C21.9481042,41.1692437 22.2790863,40.8369274 22.2790863,40.4271685 L22.2790863,39.1260044 L22.7476194,39.1260044 C22.8633474,39.134827 23.192015,39.3423205 23.408261,39.4782533 C23.9062221,39.7903105 24.5228871,40.1873256 25.2539575,40.1873256 L37.512199,40.1873256 C39.6115051,40.1873256 41.0220642,38.6146228 41.0220642,37.1441963 C41.0220642,36.6733331 40.8739324,36.2400474 40.6031288,35.8887788 C41.497541,35.2953801 42.0288979,34.3565944 42.0288979,33.4540793 C42.0288979,32.9819091 41.8807661,32.5440487 41.6099625,32.1980084 C42.5030521,31.6052631 43.0367236,30.6664775 43.0367236,29.7639624 C43.0367236,29.3205471 42.9001645,28.8732107 42.6154736,28.5072379 C43.5122004,27.9151462 44.0448799,26.9737464 44.0448799,26.0738454 C44.0448799,25.4722776 43.8051576,24.9314874 43.3733267,24.547216 C43.0621837,24.270449 42.4914793,23.9479355 41.5401951,23.9479355 L32.5749114,23.9479355 C32.9363135,22.1069615 33.3896366,19.0481477 33.4104677,18.8994712 C33.4174113,18.8465359 33.4197259,18.7932738 33.4174113,18.7390314 C33.2586986,16.4327491 31.7707671,13.6458008 31.7059594,13.531761 C31.6262724,13.3817775 31.4953344,13.266104 31.3359604,13.2000982 C30.8217974,12.9828018 30.3188765,12.8775846 29.8500127,12.8775846 C28.6014728,12.8775846 27.9834853,13.6150852 27.9186776,13.6951417 Z" id="Imported-Layers" sketch:type="MSShapeGroup"></path>
            <path d="M0,6.00957977 L0,53.9904202 C0,57.3120932 2.68476016,60 6.00957977,60 L47.9904202,60 C51.3120932,60 54,57.3152398 54,53.9904202 L54,6.00957977 C54,2.68790683 51.3152398,0 47.9904202,0 L6.00957977,0 C2.68790683,0 0,2.68476016 0,6.00957977 Z M47.9904202,2 C50.2101456,2 52,3.79195223 52,6.00957977 L52,47.9904202 C52,50.2101456 50.2080478,52 47.9904202,52 L6.00957977,52 C3.78985443,52 2,50.2080478 2,47.9904202 L2,6.00957977 C2,3.78985443 3.79195223,2 6.00957977,2 L47.9904202,2 Z" id="Rectangle-26" sketch:type="MSShapeGroup"></path>
        </g>
    </g>
</svg>