<?xml version="1.0" encoding="UTF-8" standalone="no"?>
<svg width="350px" height="350px" viewBox="0 0 350 350" version="1.1" xmlns="http://www.w3.org/2000/svg" xmlns:xlink="http://www.w3.org/1999/xlink" xmlns:sketch="http://www.bohemiancoding.com/sketch/ns">
    <title>Untitled</title>
    <description>Created with Sketch (http://www.bohemiancoding.com/sketch)</description>
    <defs></defs>
    <g id="Page-1" stroke="none" stroke-width="1" fill="none" fill-rule="evenodd" sketch:type="MSPage">
        <g id="Group" sketch:type="MSLayerGroup" transform="translate(13.000000, -7.000000)">
            <path d="M177.846689,242.105912 C189.392569,226.078882 196.358798,206.522899 196.358798,185.248968 C196.358798,131.176532 152.339682,87.154096 98.2008998,87.154096 C44.0621174,87.154096 0,131.176532 0,185.248968 C0,239.328562 44.0621174,283.308049 98.2008998,283.308049 C115.215127,283.308049 130.989479,278.576532 144.950606,270.93166 L217.227749,343.091596 C225.734862,351.616917 239.559818,351.616917 248.081265,343.091596 C256.588378,334.559117 256.588378,320.794053 248.081265,312.268733 L177.846689,242.105912 Z M27.0767012,185.556902 C27.0767012,146.56737 58.8129537,114.931874 97.8116128,114.931874 C136.794787,114.931874 168.523297,146.56737 168.523297,185.556902 C168.523297,224.507768 136.794787,256.150998 97.8116128,256.150998 C58.8129537,256.150998 27.0767012,224.507768 27.0767012,185.556902 L27.0767012,185.556902 Z" id="Imported-Layers" fill="#62A1D1" sketch:type="MSShapeGroup" transform="translate(127.239264, 218.404096) scale(-1, 1) translate(-127.239264, -218.404096) "></path>
            <path d="M156.67122,184.033604 C168.31188,184.033604 177.748498,174.60855 177.748498,162.982156 C177.748498,151.355762 168.31188,141.930708 156.67122,141.930708 C145.03056,141.930708 135.593942,151.355762 135.593942,162.982156 C135.593942,174.60855 145.03056,184.033604 156.67122,184.033604 Z" id="Oval-4" fill="#62A1D1" sketch:type="MSShapeGroup"></path>
            <path d="M192.360845,225.34854 C192.360845,201.749426 176.382056,182.618566 156.67122,182.618566 C136.960383,182.618566 120.981595,201.749426 120.981595,225.34854" id="Oval-5" fill="#62A1D1" sketch:type="MSShapeGroup"></path>
            <path d="M61.2705271,114.489561 C66.8762282,114.489561 72.1764722,113.196001 76.8827889,110.894207 C76.8827902,110.894209 99.2722672,117.822262 99.2722672,117.822262 L92.4475129,95.929112 C95.0595824,91.0585751 96.5391848,85.5028742 96.5391848,79.6053606 C96.5391848,60.3393479 80.7488698,44.7211605 61.2705271,44.7211605 C41.7921844,44.7211605 26.0018695,60.3393479 26.0018695,79.6053606 C26.0018695,98.8713732 41.7921844,114.489561 61.2705271,114.489561 Z" id="Oval-3" fill="#2779B7" sketch:type="MSShapeGroup" transform="translate(62.637068, 81.271711) rotate(1.000000) translate(-62.637068, -81.271711) "></path>
            <path d="M76.5671123,68.3334934 L46.6483805,68.3334934 L45.4583622,64.5422636 C45.4165686,64.3558464 45.348379,64.1817823 45.2537935,64.0211941 C45.2526936,64.0144561 45.2471945,64.0077181 45.2449948,64.0043491 C45.1933027,63.9133866 45.1317121,63.828039 45.0657222,63.7449374 C45.0371266,63.7090015 45.0063313,63.6753117 44.9733363,63.6416219 C44.9304428,63.6000711 44.8886492,63.5529053 44.8424563,63.5136005 C44.7797659,63.4574508 44.7126761,63.411408 44.6433867,63.3619962 C44.6235897,63.3496433 44.6026929,63.3350443 44.5795964,63.3215684 C44.1990545,63.0913545 43.7415244,63.0015149 43.2828944,63.0913545 L39.0892347,63.4495898 C38.0641912,63.5102315 37.2789111,64.4052582 37.3372022,65.4518892 C37.3932937,66.4973972 38.2720595,67.3003384 39.2982028,67.2453116 L42.316142,66.9858999 L49.7136125,90.7147762 C49.0658114,91.5087334 48.6599734,92.5183056 48.6599734,93.6323163 C48.6599734,96.1613002 50.6682667,98.2085194 53.1417891,98.2085194 C54.9488132,98.2085194 56.495177,97.1124766 57.2012692,95.5436531 L63.1865553,95.5223162 C63.8915477,97.1034927 65.4456104,98.2085194 67.2603333,98.2085194 C69.7338556,98.2085194 71.7410492,96.1613002 71.7410492,93.6323163 C71.7410492,91.1055784 69.7338556,89.0549902 67.2603333,89.0549902 C65.4544091,89.0549902 63.9080452,90.1532789 63.1975537,91.7221024 L57.2144672,91.7434393 C56.5072752,90.1600169 54.956512,89.0549902 53.1417891,89.0549902 C53.1296909,89.0549902 53.1175928,89.0572362 53.1032949,89.0606052 L52.2355274,86.2913004 L71.4924871,86.2913004 C73.7361445,86.2913004 74.1155866,84.7393219 75.5530671,82.1485733 L80.6276923,72.4762206 C82.5721954,68.6771298 78.8074702,68.3334934 76.5671123,68.3334934" id="Imported-Layers" fill="#FFFFFF" sketch:type="MSShapeGroup"></path>
            <path d="M269.494749,289.692509 C274.743926,289.692509 279.707073,288.479903 284.114066,286.32216 C284.114067,286.322162 305.079566,292.816644 305.079566,292.816644 C305.079566,292.816644 298.688868,272.29361 298.688869,272.293609 C301.13481,267.72788 302.520309,262.519865 302.520309,256.991429 C302.520309,238.93112 287.734263,224.290349 269.494749,224.290349 C251.255235,224.290349 236.46919,238.93112 236.46919,256.991429 C236.46919,275.051738 251.255235,289.692509 269.494749,289.692509 Z" id="Oval-3" fill="#2779B7" sketch:type="MSShapeGroup" transform="translate(270.886367, 258.665349) rotate(163.000000) translate(-270.886367, -258.665349) "></path>
            <path d="M249.610427,116.792368 C254.859603,116.792368 259.82275,115.579762 264.229744,113.422019 C264.229745,113.42202 285.195244,119.916503 285.195244,119.916503 C285.195244,119.916503 278.804546,99.3934682 278.804546,99.3934677 C281.250487,94.8277382 282.635986,89.6197236 282.635986,84.0912876 C282.635986,66.0309787 267.849941,51.3902072 249.610427,51.3902072 C231.370913,51.3902072 216.584867,66.0309787 216.584867,84.0912876 C216.584867,102.151597 231.370913,116.792368 249.610427,116.792368 Z" id="Oval-3" fill="#2779B7" sketch:type="MSShapeGroup" transform="translate(251.002045, 85.765207) rotate(-270.000000) translate(-251.002045, -85.765207) "></path>
            <path d="M155.279602,79.9854942 C160.528778,79.9854942 165.491925,78.7728879 169.898919,76.6151449 C169.89892,76.6151463 190.864419,83.1096288 190.864419,83.1096288 C190.864419,83.1096288 184.473721,62.5865944 184.473721,62.5865938 C186.919662,58.0208644 188.305161,52.8128498 188.305161,47.2844138 C188.305161,29.2241049 173.519116,14.5833333 155.279602,14.5833333 C137.040088,14.5833333 122.254042,29.2241049 122.254042,47.2844138 C122.254042,65.3447227 137.040088,79.9854942 155.279602,79.9854942 Z" id="Oval-3" fill="#2779B7" sketch:type="MSShapeGroup" transform="translate(156.671220, 48.958333) rotate(-315.000000) translate(-156.671220, -48.958333) "></path>
            <path d="M290.016832,204.970287 C295.266008,204.970287 300.229155,203.757681 304.636149,201.599938 C304.63615,201.599939 325.601649,208.094422 325.601649,208.094422 C325.601649,208.094422 319.210951,187.571387 319.210951,187.571387 C321.656892,183.005657 323.042391,177.797643 323.042391,172.269207 C323.042391,154.208898 308.256346,139.568126 290.016832,139.568126 C271.777318,139.568126 256.991272,154.208898 256.991272,172.269207 C256.991272,190.329516 271.777318,204.970287 290.016832,204.970287 Z" id="Oval-3" fill="#2779B7" sketch:type="MSShapeGroup" transform="translate(291.408450, 173.943126) rotate(-225.000000) translate(-291.408450, -173.943126) "></path>
            <path d="M280.120794,238.888889 L265.362532,238.888889 C263.575513,238.888889 262.126789,240.368222 262.126789,242.190777 L262.126789,278.221052 C262.126789,280.043607 263.575513,281.52294 265.362532,281.52294 L280.120794,281.52294 C281.906838,281.52294 283.355562,280.043607 283.355562,278.221052 L283.355562,242.190777 C283.355562,240.368222 281.906838,238.888889 280.120794,238.888889 L280.120794,238.888889 Z M269.958281,241.436685 L275.522121,241.436685 C275.678107,241.436685 275.805821,241.568005 275.805821,241.72718 C275.805821,241.88735 275.678107,242.017674 275.522121,242.017674 L269.958281,242.017674 C269.802295,242.017674 269.675556,241.88735 269.675556,241.72718 C269.675556,241.568005 269.802295,241.436685 269.958281,241.436685 L269.958281,241.436685 Z M272.738738,279.090546 C271.708253,279.090546 270.867877,278.23299 270.867877,277.178455 C270.867877,276.121931 271.708253,275.26736 272.738738,275.26736 C273.776048,275.26736 274.6135,276.121931 274.6135,277.178455 C274.6135,278.23299 273.776048,279.090546 272.738738,279.090546 L272.738738,279.090546 Z M264.954329,245.390489 L280.505794,245.390489 L280.505794,273.16894 L264.954329,273.16894 L264.954329,245.390489 Z" id="Fill-2" fill="#FFFFFF" sketch:type="MSShapeGroup"></path>
            <g transform="translate(235.705521, 67.361111)" id="Oval-5" fill="#FFFFFF" sketch:type="MSShapeGroup">
                <path d="M30.0047192,24.2025724 L30.0047192,5.75614693 L30.0047192,5.75614693 C30.1004866,5.37517897 30.1518012,4.98273816 30.1518012,4.58777436 L30.1518012,3.40616399 C30.1518012,1.13624632 28.4677635,-0.369580201 26.3865201,0.0435761122 L10.2368872,3.24950701 C8.21081718,3.65171061 6.55850509,5.73230774 6.47492373,7.93269231 L6.4716061,7.93269231 L6.4716061,9.69551282 L6.4716061,26.9236593 L6.4716061,26.9236593 C5.35796397,26.8337868 4.13181803,27.0878191 2.99103017,27.7193932 C0.396943809,29.1555564 -0.773443381,32.0000727 0.376897062,34.0727985 C1.5272375,36.1455243 4.56269485,36.6615601 7.15678122,35.2253969 C9.54479748,33.9033201 10.7263232,31.3877577 10.0015731,29.3794718 L10.0015731,29.0865385 L10.0015731,12.690046 L10.0015731,12.690046 C10.0793913,12.679828 10.1578529,12.6669058 10.2368872,12.6512164 L26.3865201,9.44528551 C26.4160112,9.4394311 26.4454232,9.43322109 26.4747522,9.42666027 L26.4747522,22.0365081 C25.3944294,21.9744101 24.2165088,22.232482 23.1177699,22.8407765 C20.5236835,24.2769399 19.3532963,27.1214563 20.5036368,29.1941821 C21.6539772,31.2669079 24.6894346,31.7829438 27.2835209,30.3467805 C29.7913688,28.9583614 30.9686037,26.253672 30.0047192,24.2025724 Z"></path>
            </g>
            <g id="Fill-1-+-Fill-2" transform="translate(144.351435, 30.208333)" fill="#FFFFFF" sketch:type="MSShapeGroup">
                <path d="M25.1807747,12.5754447 C25.1807747,5.62813702 19.5457319,0 12.5899,0 C5.63504271,0 0,5.62813702 0,12.5754447 C0,12.9892067 0.0818791883,13.3796034 0.120869278,13.7816827 C0.00584851345,13.9053245 0.30022369,18.7964784 5.04434285,24.8967909 C6.43141529,26.7407091 5.85631147,30.4382813 5.84363969,30.4382813 L11.6970269,30.4382813 L13.482773,30.4382813 L19.3361602,30.4382813 C19.3254379,30.4382813 18.7503341,26.7407091 20.1364318,24.8967909 C24.88445,18.7935577 25.1749261,13.9053245 25.0599054,13.7816827 C25.0988955,13.3796034 25.1807747,12.9892067 25.1807747,12.5754447 L25.1807747,12.5754447 Z M11.1219231,28.2701683 L11.1219231,22.2487139 C11.1219231,22.1270192 11.0936553,22.0062981 11.0380944,21.8972596 L8.62168358,17.1492188 C8.77569443,17.1316947 8.92970529,17.1122236 9.09151416,17.0577043 C9.48141505,16.9214063 9.87131595,16.6760697 10.2232015,16.3674519 C10.5975064,16.8269712 11.0780592,17.1278005 11.6112487,17.2144471 C12.3033228,17.3244591 13.0412102,17.0070793 13.7128145,16.3275361 C13.7644764,16.4151563 13.8180878,16.4979087 13.8755982,16.5777404 C14.242105,17.0839904 14.6982891,17.355613 15.1739681,17.355613 C15.2285543,17.355613 15.2850899,17.3517188 15.3416255,17.3449038 C15.5034344,17.322512 15.6554958,17.2864904 15.8036581,17.2446274 L13.4340354,21.8972596 C13.3784745,22.0062981 13.3502067,22.1270192 13.3502067,22.2487139 L13.3502067,28.2701683 L11.1219231,28.2701683 L11.1219231,28.2701683 Z M10.3791619,13.5470553 C10.3937832,13.5334255 10.4113287,13.5139543 10.4551925,13.5139543 C10.4756623,13.5139543 10.5019807,13.5178486 10.536097,13.5275841 C10.7310474,13.5830769 10.8090276,13.686274 10.8158509,13.8926683 C10.8236489,14.2061538 10.654042,14.6267308 10.3772124,15.0346514 C10.1413223,14.3122716 10.225151,13.7076923 10.3791619,13.5470553 L10.3791619,13.5470553 Z M13.9886694,13.331899 C14.0724981,13.1605529 14.1602258,13.1576322 14.2070139,13.1556851 C14.2138372,13.1547115 14.2206605,13.1547115 14.2274837,13.1547115 C14.3142367,13.1547115 14.3269084,13.1780769 14.3356812,13.1946274 C14.442904,13.3942067 14.328858,14.0182572 13.9418813,14.7240865 C13.8336838,14.1603966 13.8473303,13.6229928 13.9886694,13.331899 L13.9886694,13.331899 Z M22.9593143,13.0836418 L22.8053034,14.5410577 L22.8296723,14.5644231 C22.5996307,15.9157212 21.7155304,19.3338822 18.4228174,23.5669111 C17.4236963,24.8967909 17.0883815,26.7144231 17.0425682,28.2701683 L14.899088,28.2701683 L14.899088,22.4336899 L17.7219705,16.8921995 C17.9159462,16.5105649 17.7629101,16.0452043 17.381782,15.8504928 C17.0123509,15.6635697 16.5649396,15.8047356 16.3612164,16.1630048 C16.09121,16.3255889 15.6954606,16.5173798 15.2383018,16.5777404 C14.9341791,16.6196034 14.6700212,16.3538221 14.5033386,16.1240625 C14.4087876,15.9916587 14.3230094,15.8436779 14.2489283,15.6859615 C14.2528273,15.6810938 14.2567263,15.6752524 14.2616,15.6684375 C14.8893405,14.7863942 15.3932874,13.5207692 15.017033,12.8266226 C14.8532747,12.5238462 14.5433034,12.3739183 14.1758218,12.3817067 C13.7917695,12.3963101 13.4769245,12.614387 13.2926963,12.9940745 C12.9914979,13.6103365 13.0451092,14.6500962 13.3619037,15.5623197 C12.9008459,16.0948558 12.2974743,16.5495072 11.7350422,16.4502043 C11.3665859,16.3898438 11.0293216,16.1610577 10.7651638,15.803762 C11.2710602,15.1875 11.6063749,14.4641466 11.5898042,13.8702764 C11.5742081,13.3280048 11.2671612,12.9307933 10.748593,12.7837861 C10.3889094,12.6796154 10.0584684,12.7613942 9.81965408,13.0125721 C9.33910123,13.5139543 9.38881359,14.5245072 9.65004719,15.3033534 C9.6968353,15.4425721 9.75044667,15.574976 9.80990656,15.702512 C9.51455663,15.979976 9.17826711,16.2077885 8.83807857,16.3255889 C8.61388556,16.4044471 8.41406135,16.4151563 8.22885842,16.3791346 L8.1333327,16.1902644 C7.96372581,15.8573077 7.5884462,15.7141947 7.24045965,15.8086298 C7.20146956,15.812524 7.16345422,15.8242067 7.12543889,15.8417308 C7.11471661,15.8465986 7.10204483,15.8446514 7.09132256,15.8504928 C7.08352454,15.854387 7.07865078,15.8621755 7.07085276,15.8670433 C7.0640295,15.8709375 7.05720623,15.8719111 7.05038296,15.8767788 C7.04161019,15.8835938 7.03771118,15.8923558 7.02893841,15.8991707 C6.70044691,16.1123798 6.56983011,16.5349038 6.75210878,16.8921995 L9.57304176,22.4336899 L9.57304176,28.2701683 L8.14113072,28.2701683 C8.09921638,26.7163702 7.76877537,24.9084736 6.77842709,23.5961178 C3.47109273,19.3406971 2.58504294,15.9157212 2.35110241,14.5644231 L2.37547121,14.5410577 L2.22146036,13.0836418 C2.19709155,12.9171635 2.16979849,12.7477644 2.16979849,12.5754447 C2.16979849,6.83534856 6.84276074,2.16811298 12.5899,2.16811298 C18.3380139,2.16811298 23.0109762,6.83534856 23.0109762,12.5754447 C23.0109762,12.7477644 22.9836831,12.9171635 22.9593143,13.0836418 L22.9593143,13.0836418 Z" id="Fill-1"></path>
                <path d="M5.86656442,31.5328486 L6.43192072,31.5328486 L6.43192072,32.5005649 L5.86656442,32.5005649 L5.86656442,33.5159856 L6.43192072,33.5159856 L6.43192072,34.4837019 L5.89873124,34.4837019 C5.98255993,35.7532212 7.19027796,36.7696154 8.73331076,36.8640505 C9.01793841,37.5085457 9.65932539,37.9593029 10.4089099,37.9593029 L14.5915717,37.9593029 C15.3411562,37.9593029 15.9835179,37.5085457 16.2671708,36.8640505 C17.8102036,36.7696154 19.0179217,35.7532212 19.1017504,34.4837019 L18.634844,34.4837019 L18.634844,33.5159856 L19.1348919,33.5159856 L19.1348919,32.5005649 L18.634844,32.5005649 L18.634844,31.5328486 L19.1348919,31.5328486 L19.1348919,30.46875 L5.86656442,30.46875 L5.86656442,31.5328486" id="Fill-2"></path>
            </g>
            <path d="M292.717291,165.128181 C291.127713,162.144442 288.290155,160.16854 285.07223,160.210402 C280.178804,160.272149 276.271398,164.958639 276.343699,170.674942 C276.357321,171.793713 276.526024,172.870622 276.822563,173.875318 C277.513092,177.154187 282.500823,182.527219 287.087231,186.839041 C289.314945,188.933205 293.05784,191.875081 293.05784,191.875081 C294.633795,190.732239 296.726337,188.840061 298.897467,186.691476 C303.371756,182.26244 308.22222,176.764867 308.833113,173.471347 C309.102408,172.460371 309.243867,171.379276 309.229197,170.258412 C309.156896,164.545248 305.130036,159.956088 300.237658,160.018882 C297.019733,160.059697 294.230376,162.104673 292.717291,165.128181 Z" id="Imported-Layers" fill="#FFFFFF" sketch:type="MSShapeGroup"></path>
        </g>
    </g>
</svg>