<?xml version="1.0" encoding="UTF-8" standalone="no"?>
<svg width="72px" height="72px" viewBox="0 0 72 72" version="1.1" xmlns="http://www.w3.org/2000/svg" xmlns:xlink="http://www.w3.org/1999/xlink" xmlns:sketch="http://www.bohemiancoding.com/sketch/ns">
    <title>Untitled</title>
    <description>Created with Sketch (http://www.bohemiancoding.com/sketch)</description>
    <defs></defs>
    <g id="Page-1" stroke="none" stroke-width="1" fill="none" fill-rule="evenodd" sketch:type="MSPage">
        <g id="interactive" sketch:type="MSLayerGroup" transform="translate(7.000000, 11.000000)">
            <path d="M23.0053221,0 C20.240959,0 18,2.24425034 18,4.99095588 L18,11.9316406 L35.0108793,11.9316406 C37.7684519,11.9316406 40.0039062,14.1753213 40.0039062,16.9310507 L40.0039062,32 L42.3603516,32 C43.0348307,32 50.7093099,41 51.3837891,41 C52.922526,41 50.461263,32 52,32 L53.0037686,32 C55.763111,32 58,29.7625407 58,27 L58,5 C58,2.23857625 55.7637156,0 52.9946779,0 L23.0053221,0 Z" id="Rectangle-24" fill="#FFFFFF" sketch:type="MSShapeGroup"></path>
            <path d="M5.00532213,12 C2.24095905,12 0,14.2374593 0,17 L0,39 C0,41.7614237 2.23642686,44.0000001 5.0053942,44.0000002 C5.0053942,44.0000002 4.50585938,44.0000004 7.90820312,44 C9.99088542,44 6.07356771,54 8.15625,54 C9.47591146,54 16.7955729,44 18.1152344,44 L34.9957025,44 C37.7594997,44 40,41.7625407 40,39 L40,17 C40,14.2385763 37.7637156,12 34.9946779,12 L5.00532213,12 Z" id="Rectangle-24" stroke="#FFFFFF" stroke-width="2" sketch:type="MSShapeGroup"></path>
            <path d="M10.5,31 C11.8807119,31 13,29.8807119 13,28.5 C13,27.1192881 11.8807119,26 10.5,26 C9.11928806,26 8,27.1192881 8,28.5 C8,29.8807119 9.11928806,31 10.5,31 Z" id="Oval-11" fill="#FFFFFF" sketch:type="MSShapeGroup"></path>
            <path d="M19.5,31 C20.8807119,31 22,29.8807119 22,28.5 C22,27.1192881 20.8807119,26 19.5,26 C18.1192881,26 17,27.1192881 17,28.5 C17,29.8807119 18.1192881,31 19.5,31 Z" id="Oval-11" fill="#FFFFFF" sketch:type="MSShapeGroup"></path>
            <path d="M28.5,31 C29.8807119,31 31,29.8807119 31,28.5 C31,27.1192881 29.8807119,26 28.5,26 C27.1192881,26 26,27.1192881 26,28.5 C26,29.8807119 27.1192881,31 28.5,31 Z" id="Path" fill="#FFFFFF" sketch:type="MSShapeGroup"></path>
        </g>
    </g>
</svg>