<?xml version="1.0" encoding="UTF-8" standalone="no"?>
<svg width="72px" height="72px" viewBox="0 0 72 72" version="1.1" xmlns="http://www.w3.org/2000/svg" xmlns:xlink="http://www.w3.org/1999/xlink" xmlns:sketch="http://www.bohemiancoding.com/sketch/ns">
    <title>Untitled</title>
    <description>Created with Sketch (http://www.bohemiancoding.com/sketch)</description>
    <defs></defs>
    <g id="Page-1" stroke="none" stroke-width="1" fill="none" fill-rule="evenodd" sketch:type="MSPage">
        <g id="mouth-marketing" sketch:type="MSLayerGroup" transform="translate(12.000000, 7.000000)">
            <path d="M0,58.811849 L18.8888889,58.811849 C18.8888889,58.811849 16.4862738,53.839681 18.8888889,51.4407552 C21.2915039,49.0418294 29.8044159,50.6180556 29.8044162,47.8612739 C29.8044162,45.1044922 29.636556,43.8888889 28.0529514,43.8888889 C26.4693468,43.8888889 14.158827,42.3624674 15.6266819,37.8772786 C17.0945367,33.3920899 28.1590169,41.1219618 29.4539388,38.4952257 C30.7488607,35.8684896 29.3930664,32.1534288 29.3930664,32.1534288 C29.3930664,32.1534288 32.7382812,32.3475749 33.6421441,31.5585395 C34.5460069,30.7695041 29.1495768,19.1248915 29.1495768,19.1248915 L29.0960829,14.488444 C29.0960829,14.488444 29.4235026,0.196343316 15.1839735,0.196343316 C0.944444444,0.196343316 0.944444444,15.1515842 0.944444444,15.1515842 C0.944444444,15.1515842 1.62234157,34.8047355 1.62234158,35.2284071 C1.62234226,51.4407552 0,58.811849 0,58.811849 Z" id="Path-47" fill="#FFFFFF" sketch:type="MSShapeGroup"></path>
            <path d="M38.9132614,49.2093701 C41.0294016,47.0484731 42.3330485,44.0957613 42.3330485,40.8400291 C42.3330485,37.5936977 41.036919,34.6486393 38.9315719,32.4894263" id="Oval-8" stroke="#FFFFFF" stroke-width="3" stroke-linecap="round" sketch:type="MSShapeGroup"></path>
            <path d="M42.934287,54.0686772 C46.2061908,50.8132714 48.2299805,46.3155061 48.2299805,41.3473301 C48.2299805,36.4144884 46.2348754,31.9453899 43.0039081,28.6956299" id="Oval-9" stroke="#FFFFFF" stroke-width="3" stroke-linecap="round" sketch:type="MSShapeGroup"></path>
        </g>
    </g>
</svg>