<?xml version="1.0" encoding="UTF-8" standalone="no"?>
<svg width="72px" height="72px" viewBox="0 0 72 72" version="1.1" xmlns="http://www.w3.org/2000/svg" xmlns:xlink="http://www.w3.org/1999/xlink" xmlns:sketch="http://www.bohemiancoding.com/sketch/ns">
    <title>Untitled</title>
    <description>Created with Sketch (http://www.bohemiancoding.com/sketch)</description>
    <defs></defs>
    <g id="Page-1" stroke="none" stroke-width="1" fill="none" fill-rule="evenodd" sketch:type="MSPage">
        <g id="Multivariate" sketch:type="MSLayerGroup" transform="translate(-5.000000, -10.000000)">
            <g id="Group" transform="translate(43.500000, 43.500000) rotate(-315.000000) translate(-43.500000, -43.500000) translate(10.000000, 16.000000)" sketch:type="MSShapeGroup">
                <path d="M34.2695312,7.13362968 L34.2695312,51.3490459" id="Path-45" stroke="#FFFFFF" stroke-width="5" stroke-linecap="round"></path>
                <path d="M26.1822395,55.0501234 C26.1822395,55.0501234 26.0631967,41.8606304 26.0631963,36.687473 C26.063196,31.5143155 21.0268341,31.4626257 21.0268341,31.4626257 L7.9008713,31.4626257" id="Path-46" stroke="#FFFFFF" stroke-width="5" stroke-linecap="round"></path>
                <path d="M42.2570784,55.0501234 C42.2570784,55.0501234 42.3761212,41.8606304 42.3761216,36.687473 C42.3761219,31.5143155 47.4124838,31.4626257 47.4124838,31.4626257 L60.5384466,31.4626257" id="Path" stroke="#FFFFFF" stroke-width="5" stroke-linecap="round"></path>
                <path d="M10.7194995,21.5102703 C11.9789851,20.4307111 13,20.8973262 13,22.546646 L13,40.5644651 C13,42.2163988 11.9818774,42.682879 10.7194995,41.6008408 L0.524896175,32.8626094 C-0.317280728,32.1407435 -0.3247509,30.9767706 0.524896175,30.2485017 L10.7194995,21.5102703 Z" id="Path" fill="#FFFFFF"></path>
                <polygon id="Triangle-2" fill="#FFFFFF" points="34.0022222 -1 45.9488889 13 22.0555556 13 "></polygon>
                <path d="M56.2805005,41.3247939 C55.0210149,42.404353 54,41.937738 54,40.2884182 L54,22.270599 C54,20.6186654 55.0181226,20.1521851 56.2805005,21.2342233 L66.4751038,29.9724547 C67.3172807,30.6943206 67.3247509,31.8582935 66.4751038,32.5865625 L56.2805005,41.3247939 Z" id="Triangle-2" fill="#FFFFFF"></path>
            </g>
        </g>
    </g>
</svg>