<?xml version="1.0" encoding="UTF-8" standalone="no"?>
<svg width="128px" height="128px" viewBox="0 0 128 128" version="1.1" xmlns="http://www.w3.org/2000/svg" xmlns:xlink="http://www.w3.org/1999/xlink" xmlns:sketch="http://www.bohemiancoding.com/sketch/ns">
    <title>Untitled 3</title>
    <description>Created with Sketch (http://www.bohemiancoding.com/sketch)</description>
    <defs></defs>
    <g id="Page-1" stroke="none" stroke-width="1" fill="none" fill-rule="evenodd" sketch:type="MSPage">
        <g id="Group" sketch:type="MSLayerGroup" transform="translate(22.000000, 22.000000)" fill="#2779B7">
            <path d="M5.00532213,0 C2.24095905,0 0,2.23628439 0,5.00532213 L0,34.9946779 C0,37.759041 2.23628439,40 5.00532213,40 L34.9946779,40 C37.759041,40 40,37.7637156 40,34.9946779 L40,5.00532213 C40,2.24095905 37.7637156,0 34.9946779,0 L5.00532213,0 Z M29.108,21.314 L21.332,21.314 L21.332,29.09 L18.704,29.09 L18.704,21.314 L10.892,21.314 L10.892,18.686 L18.704,18.686 L18.704,10.91 L21.332,10.91 L21.332,18.686 L29.108,18.686 L29.108,21.314 Z" id="Rectangle-3" sketch:type="MSShapeGroup"></path>
            <path d="M49.0053221,0 C46.240959,0 44,2.23628439 44,5.00532213 L44,34.9946779 C44,37.759041 46.2362844,40 49.0053221,40 L78.9946779,40 C81.759041,40 84,37.7637156 84,34.9946779 L84,5.00532213 C84,2.24095905 81.7637156,0 78.9946779,0 L49.0053221,0 Z M73,21.35 L55,21.35 L55,18.65 L73,18.65 L73,21.35 Z" id="Rectangle-3" sketch:type="MSShapeGroup"></path>
            <path d="M5.00532213,44 C2.24095905,44 0,46.2362844 0,49.0053221 L0,78.9946779 C0,81.759041 2.23628439,84 5.00532213,84 L34.9946779,84 C37.759041,84 40,81.7637156 40,78.9946779 L40,49.0053221 C40,46.240959 37.7637156,44 34.9946779,44 L5.00532213,44 Z M25.5239182,71.509474 L20.0254558,66.0110117 L14.5269935,71.509474 L12.6687169,69.6511974 L18.1671792,64.1527351 L12.643261,58.6288169 L14.5015377,56.7705403 L20.0254558,62.2944584 L25.5239182,56.7959961 L27.3821948,58.6542727 L21.8837325,64.1527351 L27.3821948,69.6511974 L25.5239182,71.509474 Z" id="Rectangle-3" sketch:type="MSShapeGroup"></path>
            <path d="M49.0053221,44 C46.240959,44 44,46.2362844 44,49.0053221 L44,78.9946779 C44,81.759041 46.2362844,84 49.0053221,84 L78.9946779,84 C81.759041,84 84,81.7637156 84,78.9946779 L84,49.0053221 C84,46.240959 81.7637156,44 78.9946779,44 L49.0053221,44 Z M73.144,61.588 L54.856,61.588 L54.856,58.672 L73.144,58.672 L73.144,61.588 Z M73.144,69.328 L54.856,69.328 L54.856,66.412 L73.144,66.412 L73.144,69.328 Z" id="Rectangle-3" sketch:type="MSShapeGroup"></path>
        </g>
    </g>
</svg>