<?xml version="1.0" encoding="UTF-8" standalone="no"?>
<svg width="128px" height="128px" viewBox="0 0 128 128" version="1.1" xmlns="http://www.w3.org/2000/svg" xmlns:xlink="http://www.w3.org/1999/xlink" xmlns:sketch="http://www.bohemiancoding.com/sketch/ns">
    <title>Untitled 3</title>
    <description>Created with Sketch (http://www.bohemiancoding.com/sketch)</description>
    <defs></defs>
    <g id="Page-1" stroke="none" stroke-width="1" fill="none" fill-rule="evenodd" sketch:type="MSPage">
        <g id="Group" sketch:type="MSLayerGroup" transform="translate(15.500000, 14.754386)">
            <g id="target" fill="#2779B7" sketch:type="MSShapeGroup">
                <path d="M54.754386,53.7807982 C71.8635528,55.2475056 85.0923083,61.7988047 86.227447,70.5392396 L85.819724,68.6860089 L92.1336818,68.6860089 C94.3561956,68.6860089 96.3880678,69.5797331 96.3880678,71.7488532 C96.3880678,73.9179733 94.3561956,74.8116976 92.1336818,74.8116976 L85.819724,74.8116976 L86.227447,72.9584669 C84.9815547,82.5516919 69.1670099,89.5077605 49.6432535,89.998322 L51.7170147,89.9139058 L51.717014,91.6810318 C51.7170137,93.8501518 49.6851416,94.7438758 47.4626278,94.7438758 C45.2401139,94.7438757 43.2082417,93.8501513 43.2082421,91.681031 L43.2082428,89.9139051 L45.2820039,89.998322 C25.7582479,89.5077603 9.94370362,82.5516917 8.69781137,72.9584669 L9.10553433,74.8116976 L4.015441,74.8116976 C1.79292716,74.8116976 -0.238944965,73.9179733 -0.238944965,71.7488532 C-0.238944965,69.5797331 1.79292716,68.6860089 4.015441,68.6860089 L9.10553433,68.6860089 L8.69781137,70.5392396 C9.84596866,61.6985626 23.3667317,55.0975227 40.761055,53.732345 L40.761055,58.0034489 C25.3596613,59.2956853 13.7157807,64.9348444 12.9167661,71.0871641 L12.9167661,72.4105424 C13.7940545,79.1655612 27.7450735,85.3019533 45.3888676,85.7452784 L49.5363899,85.7452784 C67.1801844,85.3019535 81.1312038,79.1655614 82.0084923,72.4105424 L82.0084923,71.0871641 C81.219716,65.0136786 69.8622197,59.440287 54.754386,58.0552571 L54.754386,53.7807982 Z" id="Oval-16"></path>
            </g>
            <ellipse id="Oval-14" fill="#2779B7" sketch:type="MSShapeGroup" cx="47.6491228" cy="71.5175439" rx="8.50877193" ry="3.40350877"></ellipse>
            <path d="M47.6491228,69.3903509 L47.6491228,10.6243588" id="Line" stroke="#2779B7" stroke-width="8" stroke-linecap="round" sketch:type="MSShapeGroup"></path>
            <path d="M47.6491228,10.254386 L87.6403509,10.254386 L73.4188609,24.804386 L87.6403509,40.1201754 L47.6491228,40.1201754 L47.6491228,10.254386 Z" id="Path-27" fill="#2779B7" sketch:type="MSShapeGroup"></path>
        </g>
    </g>
</svg>