<?xml version="1.0" encoding="UTF-8" standalone="no"?>
<svg width="192px" height="192px" viewBox="0 0 192 192" version="1.1" xmlns="http://www.w3.org/2000/svg" xmlns:xlink="http://www.w3.org/1999/xlink" xmlns:sketch="http://www.bohemiancoding.com/sketch/ns">
    <title>Untitled</title>
    <description>Created with Sketch (http://www.bohemiancoding.com/sketch)</description>
    <defs></defs>
    <g id="Page-1" stroke="none" stroke-width="1" fill="none" fill-rule="evenodd" sketch:type="MSPage">
        <g id="Group" sketch:type="MSLayerGroup" transform="translate(19.500000, 9.500000)" stroke="#5E6A73" stroke-width="1.5">
            <path d="M114.668849,64.7539968 C121.574878,74.8409553 125.614679,87.0450346 125.614679,100.192661 C125.614679,134.880198 97.4948768,163 62.8073394,163 C28.1198021,163 0,134.880198 0,100.192661 C0,65.5051232 28.1198021,37.3853211 62.8073394,37.3853211 C75.7577672,37.3853211 87.7927401,41.3048471 97.7907024,48.0223434 L89.2540526,56.7595561 C81.5487441,52.0576968 72.4944109,49.3486239 62.8073394,49.3486239 C34.7269518,49.3486239 11.9633028,72.1122729 11.9633028,100.192661 C11.9633028,128.273048 34.7269518,151.036697 62.8073394,151.036697 C90.8877271,151.036697 113.651376,128.273048 113.651376,100.192661 C113.651376,90.317381 110.836013,81.0996653 105.964138,73.2983659 L114.668849,64.7539968 Z" id="Oval-7" sketch:type="MSShapeGroup"></path>
            <path d="M74.5102783,71.8497255 L81.1488757,65.0551587 C75.6645986,62.1865286 69.4254243,60.5642202 62.8073394,60.5642202 C40.9211552,60.5642202 23.1788991,78.3064763 23.1788991,100.192661 C23.1788991,122.078845 40.9211552,139.821101 62.8073394,139.821101 C84.6935237,139.821101 102.43578,122.078845 102.43578,100.192661 C102.43578,93.3938038 100.723635,86.9948402 97.7069909,81.4034155 L97.7069909,81.4034155 L90.9558888,88.0301615 C92.5691965,91.7588947 93.4633028,95.8713627 93.4633028,100.192661 C93.4633028,117.123483 79.7381614,130.848624 62.8073394,130.848624 C45.8765175,130.848624 32.1513761,117.123483 32.1513761,100.192661 C32.1513761,83.2618386 45.8765175,69.5366972 62.8073394,69.5366972 C66.9518461,69.5366972 70.9042605,70.3591414 74.5102783,71.8497255 Z" id="Oval-7" sketch:type="MSShapeGroup"></path>
            <path d="M74.3139912,96.9076612 L111.034404,59.8165138 L130.848624,59.8165138 L151.036697,39.6284404 L123.37156,39.6284404 L123.37156,11.9633028 L103.183486,32.1513761 L103.183486,51.9655963 L66.2211388,88.7234979 C65.1393616,88.401989 63.9935106,88.2293578 62.8073394,88.2293578 C56.2001895,88.2293578 50.8440367,93.5855106 50.8440367,100.192661 C50.8440367,106.799811 56.2001895,112.155963 62.8073394,112.155963 C69.4144894,112.155963 74.7706422,106.799811 74.7706422,100.192661 C74.7706422,99.0534562 74.6114111,97.9514424 74.3139912,96.9076612 Z" id="Path-11" sketch:type="MSShapeGroup"></path>
        </g>
    </g>
</svg>