<?xml version="1.0" encoding="UTF-8" standalone="no"?>
<svg width="64px" height="64px" viewBox="0 0 64 64" version="1.1" xmlns="http://www.w3.org/2000/svg" xmlns:xlink="http://www.w3.org/1999/xlink" xmlns:sketch="http://www.bohemiancoding.com/sketch/ns">
    <title>Untitled</title>
    <description>Created with Sketch (http://www.bohemiancoding.com/sketch)</description>
    <defs></defs>
    <g id="Page-1" stroke="none" stroke-width="1" fill="none" fill-rule="evenodd" sketch:type="MSPage">
        <g id="Rectangle-1-+-Group" sketch:type="MSLayerGroup" stroke="#FFFFFF">
            <g id="Group" transform="translate(6.500000, 3.166667)" sketch:type="MSShapeGroup">
                <path d="M38.6165208,22.1810635 C40.6776929,25.4233432 41.8715596,29.271027 41.8715596,33.3975535 C41.8715596,44.960066 32.4982923,54.3333333 20.9357798,54.3333333 C9.37326738,54.3333333 0,44.960066 0,33.3975535 C0,21.8350411 9.37326738,12.4617737 20.9357798,12.4617737 C24.9968531,12.4617737 28.7878594,13.6180676 31.9975312,15.6193881 L29.1242354,18.5553743 C26.6969963,17.2134038 23.9055929,16.4495413 20.9357798,16.4495413 C11.5756506,16.4495413 3.98776758,24.0374243 3.98776758,33.3975535 C3.98776758,42.7576827 11.5756506,50.3455657 20.9357798,50.3455657 C30.295909,50.3455657 37.883792,42.7576827 37.883792,33.3975535 C37.883792,30.3648869 37.0872544,27.5182617 35.691979,25.0554777 L38.6165208,22.1810635 Z" id="Oval-7"></path>
                <path d="M23.3274639,24.4786216 L25.9844423,21.7636723 C24.4374172,21.0913957 22.7301277,20.7186544 20.9357798,20.7186544 C13.9334169,20.7186544 8.25688073,26.3951906 8.25688073,33.3975535 C8.25688073,40.3999164 13.9334169,46.0764526 20.9357798,46.0764526 C27.9381427,46.0764526 33.6146789,40.3999164 33.6146789,33.3975535 C33.6146789,31.5424784 33.2162809,29.7804542 32.5003778,28.1923738 L32.5003778,28.1923738 L29.8082092,30.8383978 C30.0421791,31.6510185 30.1675295,32.5096474 30.1675295,33.3975535 C30.1675295,38.4961084 26.0343346,42.6293032 20.9357798,42.6293032 C15.837225,42.6293032 11.7040302,38.4961084 11.7040302,33.3975535 C11.7040302,28.2989987 15.837225,24.1658039 20.9357798,24.1658039 C21.7629237,24.1658039 22.5646603,24.2745851 23.3274639,24.4786216 Z" id="Oval-7"></path>
                <path d="M24.7713304,32.3025537 L37.0114679,19.9388379 L43.616208,19.9388379 L50.3455657,13.2094801 L41.1238532,13.2094801 L41.1238532,3.98776758 L34.3944954,10.7171254 L34.3944954,17.3218654 L22.0737129,29.5744993 C21.7131205,29.4673297 21.3311702,29.4097859 20.9357798,29.4097859 C18.7333965,29.4097859 16.9480122,31.1951702 16.9480122,33.3975535 C16.9480122,35.5999368 18.7333965,37.3853211 20.9357798,37.3853211 C23.1381631,37.3853211 24.9235474,35.5999368 24.9235474,33.3975535 C24.9235474,33.0178187 24.8704704,32.6504808 24.7713304,32.3025537 Z" id="Path-11"></path>
            </g>
        </g>
    </g>
</svg>