<?xml version="1.0" encoding="UTF-8" standalone="no"?>
<svg width="128px" height="128px" viewBox="0 0 128 128" version="1.1" xmlns="http://www.w3.org/2000/svg" xmlns:xlink="http://www.w3.org/1999/xlink" xmlns:sketch="http://www.bohemiancoding.com/sketch/ns">
    <!-- Generator: Sketch 3.0.1 (7597) - http://www.bohemiancoding.com/sketch -->
    <title>product-remarketing</title>
    <description>Created with Sketch.</description>
    <defs></defs>
    <g id="Page-1" stroke="none" stroke-width="1" fill="none" fill-rule="evenodd" sketch:type="MSPage">
        <g id="product-remarketing" sketch:type="MSLayerGroup" transform="translate(12.000000, 8.000000)" stroke-width="1.5" stroke="#FFFFFF">
            <g id="Page-1" sketch:type="MSShapeGroup">
                <g id="Group" transform="translate(-0.357616, -0.357616)">
                    <path d="M82.0148059,37.7313355 C86.9542174,44.9458488 89.8436115,53.6745943 89.8436115,63.0781946 C89.8436115,87.8878237 69.7314351,108 44.9218057,108 C20.1121763,108 0,87.8878237 0,63.0781946 C0,38.2685649 20.1121763,18.1563886 44.9218057,18.1563886 C54.1843633,18.1563886 62.7921585,20.9597582 69.9430189,25.7643251 L63.8373356,32.0134573 C58.3262541,28.6505381 51.8503071,26.7129231 44.9218057,26.7129231 C24.8378198,26.7129231 8.55653445,42.9942084 8.55653445,63.0781946 C8.55653445,83.16218 24.8378198,99.4434654 44.9218057,99.4434654 C65.0057916,99.4434654 81.2870769,83.16218 81.2870769,63.0781946 C81.2870769,56.0150805 79.2734398,49.4222772 75.7889199,43.8425398 L82.0148059,37.7313355 L82.0148059,37.7313355 Z" id="Oval-7"></path>
                    <path d="M53.2921196,42.8064262 L58.0402555,37.946736 C54.1177262,35.8950006 49.6552704,34.7346741 44.9218057,34.7346741 C29.268111,34.7346741 16.5782854,47.4244996 16.5782854,63.0781946 C16.5782854,78.7318891 29.268111,91.4217146 44.9218057,91.4217146 C60.5755004,91.4217146 73.2653261,78.7318891 73.2653261,63.0781946 C73.2653261,58.2154358 72.0407456,53.6386937 69.8831458,49.639529 L69.8831458,49.639529 L65.054543,54.3791884 C66.2084319,57.0460969 66.8479252,59.9874647 66.8479252,63.0781946 C66.8479252,75.1876567 57.0312678,85.0043139 44.9218057,85.0043139 C32.8123436,85.0043139 22.9956862,75.1876567 22.9956862,63.0781946 C22.9956862,50.9687322 32.8123436,41.1520748 44.9218057,41.1520748 C47.8860886,41.1520748 50.712981,41.7403131 53.2921196,42.8064262 L53.2921196,42.8064262 Z" id="Oval-7"></path>
                    <path d="M53.1517288,60.7286583 L79.4153353,34.1998907 L93.5870953,34.1998907 L108.026247,19.7607388 L88.2392615,19.7607388 L88.2392615,-0.026247004 L73.8001092,14.4129048 L73.8001092,28.5846649 L47.3634635,54.8750846 C46.5897421,54.6451312 45.770193,54.5216599 44.9218057,54.5216599 C40.196162,54.5216599 36.3652713,58.3525506 36.3652713,63.0781946 C36.3652713,67.8038383 40.196162,71.6347285 44.9218057,71.6347285 C49.6474494,71.6347285 53.4783401,67.8038383 53.4783401,63.0781946 C53.4783401,62.2633991 53.364453,61.4752038 53.1517288,60.7286583 L53.1517288,60.7286583 Z" id="Path-11"></path>
                </g>
            </g>
        </g>
    </g>
</svg>