<?xml version="1.0" encoding="UTF-8" standalone="no"?>
<svg width="192px" height="192px" viewBox="0 0 192 192" version="1.1" xmlns="http://www.w3.org/2000/svg" xmlns:xlink="http://www.w3.org/1999/xlink" xmlns:sketch="http://www.bohemiancoding.com/sketch/ns">
    <title>Untitled</title>
    <description>Created with Sketch (http://www.bohemiancoding.com/sketch)</description>
    <defs></defs>
    <g id="Page-1" stroke="none" stroke-width="1" fill="none" fill-rule="evenodd" sketch:type="MSPage">
        <g id="FB-Fun-Page" sketch:type="MSLayerGroup" transform="translate(24.750000, 26.000000)" stroke="#5E6A73" stroke-width="1.5">
            <path d="M124.444466,115.025196 L124.435044,1.69016742 C124.435044,0.648619806 119.444234,0.210909781 116.94883,0.210909781 C114.524932,0.21091337 109.706751,0.621894936 109.677137,1.69016742 L109.677137,121.491414" id="Path-15" sketch:type="MSShapeGroup"></path>
            <path d="M109.172256,90.9805216 C107.919779,90.5883429 93.7759785,83.1947436 77.1862368,80.201837 C60.5964952,77.2089296 47.2746746,76.8435945 47.2746746,76.8435945 C46.1811979,76.7978362 45.2798347,75.8668594 45.2617117,74.7650841 C45.2617117,74.7650841 45.0004479,59.3952962 44.7788789,40.7899595 C44.6007158,25.8294996 44.7554426,15.4581111 44.7554426,15.4581111 C44.7683861,14.3494533 45.6750704,13.4471682 46.783617,13.4384246 C46.783617,13.4384246 60.5893001,13.4507087 77.1862373,12.1775794 C94.9677873,10.8135801 109.172255,6.09256714 109.172255,6.09256714" id="Path-16" sketch:type="MSShapeGroup"></path>
            <path d="M45.5758734,29.3603782 C45.5758734,29.3603782 25.4078119,36.3192264 19.1192287,38.0628628 C13.0880009,39.7351416 6.67291319,40.9454385 4.81708819,41.4356002 C2.9612632,41.9257618 21.1681223,56.862797 21.1681223,58.7115079 C21.1681222,60.2880124 0.198641852,74.0601646 0.198641852,74.0601646 C-0.720535141,74.6681537 -0.596068348,75.3602738 0.492656007,75.6113702 C0.492656007,75.6113702 14.3814465,78.7683467 29.3474764,82.661382 C49.0088782,87.7758004 61.2953581,91.6080691 61.2953581,91.6080691 C62.3519616,91.9311179 63.2072105,91.3033107 63.2055802,90.1854086 L63.1877665,77.9703566" id="Path-17" sketch:type="MSShapeGroup"></path>
            <path d="M139.996433,132.481283 C138.933874,136.95223 139.202292,141.668391 139.202292,141.668391 L98.5578348,141.668391 C98.5578348,141.668391 98.1593226,139.427328 96.695972,135.415669 C95.2326213,131.404009 93.7817596,127.230874 93.7817596,127.230874 C93.7817596,127.230874 95.7139229,128.997363 98.5578348,130.39533 C101.401746,131.793296 103.926799,132.214148 103.926799,132.214148 C103.926799,132.214148 105.73708,128.489321 104.714988,124.248374 C103.692895,120.007427 100.735495,116.053183 100.735495,116.053183 C100.735495,116.053183 107.24385,117.936293 110.944846,121.460288 C114.645841,124.984282 115.647835,128.087248 115.647835,128.087248 C115.647835,128.087248 117.679029,123.704341 120.725728,119.313682 C123.772427,114.923022 129.456263,111.150904 129.456263,111.150904 C129.456263,111.150904 127.847552,117.541789 128.097555,122.333701 C128.347557,127.125613 130.279562,131.382163 130.279562,131.382163 C130.279562,131.382163 135.274984,129.185203 137.868464,127.230874 C140.461945,125.276545 142.818284,123.25279 142.818284,123.25279 C142.818284,123.25279 141.058993,128.010336 139.996433,132.481283 Z" id="Path-18" sketch:type="MSShapeGroup"></path>
        </g>
    </g>
</svg>