<?xml version="1.0" encoding="UTF-8" standalone="no"?>
<svg width="64px" height="64px" viewBox="0 0 64 64" version="1.1" xmlns="http://www.w3.org/2000/svg" xmlns:xlink="http://www.w3.org/1999/xlink" xmlns:sketch="http://www.bohemiancoding.com/sketch/ns">
    <title>Untitled</title>
    <description>Created with Sketch (http://www.bohemiancoding.com/sketch)</description>
    <defs></defs>
    <g id="Page-1" stroke="none" stroke-width="1" fill="none" fill-rule="evenodd" sketch:type="MSPage">
        <g id="Rectangle-1-+-FB-Fun-Page" sketch:type="MSLayerGroup" stroke="#FFFFFF">
            <g id="FB-Fun-Page" transform="translate(8.250000, 8.666667)" sketch:type="MSShapeGroup">
                <path d="M41.4814888,38.3417321 L41.4783479,0.563389141 C41.4783479,0.216206602 39.8147448,0.0703032603 38.9829433,0.0703032603 C38.1749775,0.0703044567 36.5689171,0.207298312 36.5590458,0.563389141 L36.5590458,40.497138" id="Path-15"></path>
                <path d="M36.3907521,30.3268405 C35.9732598,30.1961143 31.2586595,27.7315812 25.7287456,26.7339457 C20.1988317,25.7363099 17.0975068,25.6930736 17.0975068,25.6930736 C15.9933496,25.6344432 15.0834306,24.6879846 15.0659215,23.5936405 C15.0659215,23.5936405 15.0001493,19.7984321 14.926293,13.5966532 C14.8669053,8.6098332 14.9077462,6.47563741 14.9077462,6.47563741 C14.9179893,5.37544872 15.8226349,4.47709288 16.9237631,4.46048367 C16.9237631,4.46048367 20.1964334,4.48356956 25.7287458,4.05919313 C31.6559291,3.60452669 36.3907515,2.03085571 36.3907515,2.03085571" id="Path-16"></path>
                <path d="M15.1919578,9.78679274 C15.1919578,9.78679274 8.46927062,12.1064088 6.37307623,12.6876209 C4.36266696,13.2450472 2.2243044,13.6484795 1.60569606,13.8118667 C0.987087733,13.9752539 7.05604076,18.9542657 7.05604076,19.5705026 C7.05604073,20.0960041 1.16713587,23.9511133 1.16713587,23.9511133 C0.252721151,24.5600416 0.388071514,25.2556407 1.46454793,25.5069481 C1.46454793,25.5069481 4.79381549,26.2561156 9.78249214,27.553794 C16.3362927,29.2586001 19.1520083,30.1532428 19.1520083,30.1532428 C20.2110112,30.4723294 21.0682022,29.8392767 21.0665906,28.7341802 L21.0625888,25.9901189" id="Path-17"></path>
                <path d="M46.6654778,44.1604277 C46.3112912,45.6507435 46.4007639,47.2227971 46.4007639,47.2227971 L32.8526116,47.2227971 C32.8526116,47.2227971 32.7197742,46.4757761 32.2319907,45.1385562 C31.7442071,43.8013364 31.2605865,42.4102914 31.2605865,42.4102914 C31.2605865,42.4102914 31.904641,42.9991212 32.8526116,43.4651099 C33.8005822,43.9310987 34.6422665,44.0713825 34.6422665,44.0713825 C34.6422665,44.0713825 35.2456934,42.8297736 34.9049958,41.4161247 C34.5642983,40.0024758 33.5784982,38.6843945 33.5784982,38.6843945 C33.5784982,38.6843945 35.7479502,39.3120975 36.9816153,40.4867625 C38.2152805,41.6614275 38.5492785,42.6957493 38.5492785,42.6957493 C38.5492785,42.6957493 39.2263431,41.2347804 40.2419095,39.7712272 C41.2574758,38.3076741 43.1520876,37.0503012 43.1520876,37.0503012 C43.1520876,37.0503012 42.6158507,39.1805963 42.6991849,40.7779002 C42.782519,42.3752042 43.4265205,43.7940542 43.4265205,43.7940542 C43.4265205,43.7940542 45.0916613,43.0617343 45.9561548,42.4102914 C46.8206484,41.7588485 47.6060946,41.0842633 47.6060946,41.0842633 C47.6060946,41.0842633 47.0196644,42.6701119 46.6654778,44.1604277 Z" id="Path-18"></path>
            </g>
        </g>
    </g>
</svg>