<?xml version="1.0" encoding="UTF-8" standalone="no"?>
<svg width="192px" height="192px" viewBox="0 0 192 192" version="1.1" xmlns="http://www.w3.org/2000/svg" xmlns:xlink="http://www.w3.org/1999/xlink" xmlns:sketch="http://www.bohemiancoding.com/sketch/ns">
    <title>Untitled</title>
    <description>Created with Sketch (http://www.bohemiancoding.com/sketch)</description>
    <defs></defs>
    <g id="Page-1" stroke="none" stroke-width="1" fill="none" fill-rule="evenodd" sketch:type="MSPage">
        <g id="FB-Ads" sketch:type="MSLayerGroup" transform="translate(21.750000, 33.000000)" stroke="#5E6A73" stroke-width="1.5">
            <path d="M-7.39037652e-17,53.2532751 C-7.39037652e-17,53.2532751 -1.77369036e-15,26.6266376 26.6266376,26.6266376 C79.2142467,26.6266376 92.5275655,0.665665939 133.590833,-1.89403086e-13 C145.780841,-0.0447244303 149.187557,39.2378362 149.243084,53.2532751 C149.293153,65.8911953 145.780841,106.438423 131.986409,106.293395 C92.5275655,106.170077 79.2142467,79.8799127 26.6266376,79.8799127 C9.16406689e-13,79.8799058 -7.39037652e-17,53.2532751 -7.39037652e-17,53.2532751 Z M47.9279476,125.398199 C47.9279476,125.398199 51.4805494,125.976756 52.2586766,122.002912 C53.0368037,118.029069 56.5900556,99.5626895 56.5900556,96.357872 C56.5900556,93.1530546 54.3401828,92.1214024 53.0368037,91.3289739 C51.7334245,90.5365456 44.5781658,88.4901416 41.572268,88.4901427 C38.5663703,88.4901438 34.734891,88.4901427 34.7348907,95.5745444 C34.7348906,102.658946 41.5144123,118.521817 43.2468339,121.960008 C44.9792555,125.398199 47.9279476,125.398199 47.9279476,125.398199 Z" id="Path-3" sketch:type="MSShapeGroup"></path>
            <path d="M41.2712882,25.8278384 C39.4331024,25.8278384 33.2832969,38.1801514 33.2832969,53.2532751 C33.2832969,68.3263989 39.4331024,80.6787118 41.2712882,80.6787118" id="Oval-3" sketch:type="MSShapeGroup"></path>
        </g>
    </g>
</svg>