<?xml version="1.0" encoding="UTF-8" standalone="no"?>
<svg width="128px" height="128px" viewBox="0 0 128 128" version="1.1" xmlns="http://www.w3.org/2000/svg" xmlns:xlink="http://www.w3.org/1999/xlink" xmlns:sketch="http://www.bohemiancoding.com/sketch/ns">
    <!-- Generator: Sketch 3.0.1 (7597) - http://www.bohemiancoding.com/sketch -->
    <title>product-social</title>
    <description>Created with Sketch.</description>
    <defs></defs>
    <g id="Page-1" stroke="none" stroke-width="1" fill="none" fill-rule="evenodd" sketch:type="MSPage">
        <g id="product-social" sketch:type="MSLayerGroup" transform="translate(12.640845, 13.000000)" stroke-width="1.5" stroke="#FFFFFF">
            <g id="Page-1" sketch:type="MSShapeGroup">
                <g id="FB-Fun-Page" transform="translate(-0.179577, 0.000000)">
                    <path d="M89.3896868,82.6237323 L89.3829189,1.21406392 C89.3829189,0.465910001 85.7979709,0.151498575 84.0054976,0.151498575 C82.2643878,0.151501153 78.8034409,0.446713264 78.7821688,1.21406392 L78.7821688,87.2684805" id="Path-15"></path>
                    <path d="M78.4195078,65.3522057 C77.5198413,65.0704998 67.3602099,59.7596046 55.4436349,57.6097702 C43.5270599,55.4599353 33.9578649,55.1975115 33.9578649,55.1975115 C33.1724098,55.1646429 32.5249517,54.4959131 32.5119338,53.704497 C32.5119338,53.704497 32.3242654,42.6642268 32.1651102,29.2998301 C32.0371339,18.5535842 32.1482757,11.1037136 32.1482757,11.1037136 C32.1575731,10.3073538 32.8088534,9.6592335 33.6051333,9.65295288 C33.6051333,9.65295288 43.5218916,9.66177667 55.4436352,8.74727534 C68.2162979,7.7675012 78.4195071,4.37635104 78.4195071,4.37635104" id="Path-16"></path>
                    <path d="M32.7375992,21.0898491 C32.7375992,21.0898491 18.2506818,26.0884584 13.7335305,27.3409296 C9.40124008,28.542144 4.79321933,29.4115122 3.46016194,29.7636001 C2.12710455,30.1156881 15.2052709,40.8451077 15.2052709,42.173055 C15.2052709,43.3054737 0.142686401,53.1981464 0.142686401,53.1981464 C-0.517567496,53.634871 -0.428161771,54.1320277 0.353879667,54.3123927 C0.353879667,54.3123927 10.3303348,56.58008 21.0805816,59.3764857 C35.2035604,63.0502228 44.02906,65.8029792 44.02906,65.8029792 C44.7880288,66.0350284 45.4023625,65.5840682 45.4011914,64.7810681 L45.3883957,56.0068759" id="Path-17"></path>
                    <path d="M100.560818,95.1626117 C99.7975715,98.374137 99.9903788,101.761802 99.9903788,101.761802 L70.7950644,101.761802 C70.7950644,101.761802 70.5088092,100.152024 69.45767,97.2704101 C68.4065308,94.3887952 67.3643625,91.3911912 67.3643625,91.3911912 C67.3643625,91.3911912 68.7522545,92.6600776 70.7950644,93.6642511 C72.8378739,94.6684239 74.6516444,94.970726 74.6516444,94.970726 C74.6516444,94.970726 75.951987,92.2951461 75.2178083,89.248832 C74.4836288,86.202518 72.3592992,83.3621455 72.3592992,83.3621455 C72.3592992,83.3621455 77.0343148,84.714802 79.6927767,87.2461224 C82.3512379,89.777442 83.0709801,92.0063331 83.0709801,92.0063331 C83.0709801,92.0063331 84.5300067,88.8580478 86.7184807,85.7041941 C88.9069546,82.5503397 92.98971,79.8407902 92.98971,79.8407902 C92.98971,79.8407902 91.8341571,84.4314259 92.0137367,87.8735035 C92.1933156,91.3155812 93.5810938,94.373103 93.5810938,94.373103 C93.5810938,94.373103 97.1693547,92.795005 99.032277,91.3911912 C100.8952,89.9873774 102.587781,88.5336942 102.587781,88.5336942 C102.587781,88.5336942 101.324065,91.9510864 100.560818,95.1626117 L100.560818,95.1626117 Z" id="Path-18"></path>
                </g>
            </g>
        </g>
    </g>
</svg>