<?xml version="1.0" encoding="UTF-8" standalone="no"?>
<svg width="128px" height="128px" viewBox="0 0 128 128" version="1.1" xmlns="http://www.w3.org/2000/svg" xmlns:xlink="http://www.w3.org/1999/xlink" xmlns:sketch="http://www.bohemiancoding.com/sketch/ns">
    <!-- Generator: Sketch 3.0.1 (7597) - http://www.bohemiancoding.com/sketch -->
    <title>product-advertising</title>
    <description>Created with Sketch.</description>
    <defs></defs>
    <g id="Page-1" stroke="none" stroke-width="1" fill="none" fill-rule="evenodd" sketch:type="MSPage">
        <g id="product-advertising" sketch:type="MSLayerGroup" transform="translate(9.000000, 17.859060)" stroke-width="1.5" stroke="#FFFFFF">
            <g id="Page-1" sketch:type="MSShapeGroup">
                <g id="FB-Ads" transform="translate(-0.184564, 0.000000)">
                    <path d="M0,39.3144984 C0,39.3144984 -1.25487601e-15,19.6572492 19.6572492,19.6572492 C58.4803164,19.6572492 68.308941,0.49143123 98.6241049,-1.41209723e-13 C107.62344,-0.0330180358 110.138465,28.9675301 110.179458,39.3144984 C110.216422,48.6445066 107.62344,78.5787015 97.4396308,78.4716339 C68.308941,78.3805938 58.4803164,58.9717476 19.6572492,58.9717476 C6.76596411e-13,58.9717425 0,39.3144984 0,39.3144984 L0,39.3144984 Z M35.3830486,92.5758516 C35.3830486,92.5758516 38.0057747,93.0029742 38.580231,90.0692639 C39.1546873,87.1355543 41.7778934,73.5026567 41.7778934,71.136684 C41.7778934,68.7707114 40.1169135,68.009089 39.1546873,67.4240747 C38.192461,66.8390605 32.9100553,65.3282925 30.6909361,65.3282933 C28.471817,65.3282941 25.6432081,65.3282933 25.6432079,70.5583885 C25.6432078,75.7884836 30.6482238,87.499328 31.9271928,90.0375898 C33.2061618,92.5758516 35.3830486,92.5758516 35.3830486,92.5758516 L35.3830486,92.5758516 Z" id="Path-3"></path>
                    <path d="M30.4687363,19.0675317 C29.1116863,19.0675317 24.5715615,28.186689 24.5715615,39.3144984 C24.5715615,50.4423079 29.1116863,59.5614651 30.4687363,59.5614651" id="Oval-3"></path>
                </g>
            </g>
        </g>
    </g>
</svg>