<?xml version="1.0" encoding="UTF-8" standalone="no"?>
<svg width="64px" height="64px" viewBox="0 0 64 64" version="1.1" xmlns="http://www.w3.org/2000/svg" xmlns:xlink="http://www.w3.org/1999/xlink" xmlns:sketch="http://www.bohemiancoding.com/sketch/ns">
    <title>Untitled</title>
    <description>Created with Sketch (http://www.bohemiancoding.com/sketch)</description>
    <defs></defs>
    <g id="Page-1" stroke="none" stroke-width="1" fill="none" fill-rule="evenodd" sketch:type="MSPage">
        <g id="Rectangle-1-+-FB-Ads" sketch:type="MSLayerGroup" stroke="#FFFFFF">
            <g id="FB-Ads" transform="translate(7.250000, 11.000000)" sketch:type="MSShapeGroup">
                <path d="M-2.46345884e-17,17.7510917 C-2.46345884e-17,17.7510917 -5.91230122e-16,8.87554585 8.87554585,8.87554585 C26.4047489,8.87554585 30.8425218,0.221888646 44.5302777,-6.31343631e-14 C48.5936135,-0.0149081434 49.7291856,13.0792787 49.7476945,17.7510917 C49.7643843,21.9637318 48.5936135,35.4794745 43.9954695,35.4311316 C30.8425218,35.3900256 26.4047489,26.6266376 8.87554585,26.6266376 C3.05468896e-13,26.6266353 -2.46345884e-17,17.7510917 -2.46345884e-17,17.7510917 Z M15.9759825,41.7993996 C15.9759825,41.7993996 17.1601831,41.992252 17.4195589,40.6676375 C17.6789346,39.3430229 18.8633519,33.1875632 18.8633519,32.1192907 C18.8633519,31.0510182 18.1133943,30.7071341 17.6789346,30.4429913 C17.2444748,30.1788485 14.8593886,29.4967139 13.8574227,29.4967142 C12.8554568,29.4967146 11.578297,29.4967142 11.5782969,31.8581815 C11.5782969,34.2196487 13.8381374,39.5072725 14.4156113,40.653336 C14.9930852,41.7993996 15.9759825,41.7993996 15.9759825,41.7993996 Z" id="Path-3"></path>
                <path d="M13.7570961,8.60927947 C13.1443675,8.60927947 11.0944323,12.7267171 11.0944323,17.7510917 C11.0944323,22.7754663 13.1443675,26.8929039 13.7570961,26.8929039" id="Oval-3"></path>
            </g>
        </g>
    </g>
</svg>