<?xml version="1.0" encoding="UTF-8" standalone="no"?>
<svg width="400px" height="300px" viewBox="0 0 400 300" version="1.1" xmlns="http://www.w3.org/2000/svg" xmlns:xlink="http://www.w3.org/1999/xlink" xmlns:sketch="http://www.bohemiancoding.com/sketch/ns">
    <title>Untitled</title>
    <description>Created with Sketch (http://www.bohemiancoding.com/sketch)</description>
    <defs></defs>
    <g id="Page-1" stroke="none" stroke-width="1" fill="none" fill-rule="evenodd" sketch:type="MSPage">
        <g id="Rectangle-5-+-Rectangle-4-+-Path-4-+-Group" sketch:type="MSLayerGroup" transform="translate(58.000000, 38.000000)">
            <g id="Rectangle-5-+-Rectangle-4-+-Path-4" sketch:type="MSShapeGroup">
                <path d="M93.657825,175.149083 L81.3895401,214.511179 C79.8258502,219.528189 82.6454427,223.59528 87.6531067,223.59528 L196.635588,223.59528 C201.658551,223.59528 204.54071,219.549861 203.058836,214.511179 L191.482463,175.149083 C190.006963,170.132073 185.843689,166.064982 182.208335,166.064982 L103.091635,166.064982 C99.4451754,166.064982 95.2282694,170.110401 93.657825,175.149083 Z" id="Rectangle-5" fill="#D8D8D8"></path>
                <path d="M192.46176,174.583047 L87.73992,197.036886 L94.567976,174.394326 L192.46176,174.583047 Z" id="Path-4" fill="#C1C1C1"></path>
                <rect id="Rectangle-4" stroke="#979797" stroke-width="10" fill="#FFFFFF" x="0" y="0" width="283.032" height="169.8192" rx="3"></rect>
            </g>
            <g id="Group" transform="translate(94.000000, 38.000000)" sketch:type="MSShapeGroup">
                <path d="M126.032576,-0.12890625 L108.813704,-0.12890625 L84.8986041,71.733052 L11.9575499,71.733052 L0,40.5928701" id="Path-39" stroke="#2C7AB5" stroke-width="8" stroke-linecap="round"></path>
                <path d="M88.6239237,4.10316973 C91.3854327,4.10316973 92.9180851,6.22459216 92.0483838,8.83793858 L76.9043262,54.3439848 C76.0340944,56.9589254 73.0894194,59.0787536 70.3275478,59.0787536 L24.5286061,59.0787536 C21.7665836,59.0787536 18.8215291,56.9573312 17.9518277,54.3439848 L2.80777016,8.83793858 C1.93753829,6.22299795 3.47015643,4.10316973 6.2322303,4.10316973 L88.6239237,4.10316973 Z" id="Path-40" fill="#2C7AB5"></path>
                <path d="M13.464152,103.457905 C19.5392845,103.457905 24.464152,98.3091798 24.464152,91.9579049 C24.464152,85.6066299 19.5392845,80.4579049 13.464152,80.4579049 C7.3890194,80.4579049 2.46415195,85.6066299 2.46415195,91.9579049 C2.46415195,98.3091798 7.3890194,103.457905 13.464152,103.457905 Z" id="Oval-9" fill="#2C7AB5"></path>
                <path d="M83.6585072,103.457905 C89.7336398,103.457905 94.6585072,98.3091798 94.6585072,91.9579049 C94.6585072,85.6066299 89.7336398,80.4579049 83.6585072,80.4579049 C77.5833747,80.4579049 72.6585072,85.6066299 72.6585072,91.9579049 C72.6585072,98.3091798 77.5833747,103.457905 83.6585072,103.457905 Z" id="Oval-9" fill="#2C7AB5"></path>
            </g>
        </g>
    </g>
</svg>