<?xml version="1.0" encoding="UTF-8" standalone="no"?>
<svg width="400px" height="300px" viewBox="0 0 400 300" version="1.1" xmlns="http://www.w3.org/2000/svg" xmlns:xlink="http://www.w3.org/1999/xlink" xmlns:sketch="http://www.bohemiancoding.com/sketch/ns">
    <title>Untitled</title>
    <description>Created with Sketch (http://www.bohemiancoding.com/sketch)</description>
    <defs></defs>
    <g id="Page-1" stroke="none" stroke-width="1" fill="none" fill-rule="evenodd" sketch:type="MSPage">
        <g id="Rectangle-5-+-Rectangle-4-+-Path-4-+-Rectangle-1-+-Triangle-1-+-Group-+-Rectangle-15-+-Rectangle-15-+-Triangle-2" sketch:type="MSLayerGroup" transform="translate(58.000000, 38.000000)">
            <g id="Rectangle-5-+-Rectangle-4-+-Path-4" sketch:type="MSShapeGroup">
                <path d="M93.657825,175.149083 L81.3895401,214.511179 C79.8258502,219.528189 82.6454427,223.59528 87.6531067,223.59528 L196.635588,223.59528 C201.658551,223.59528 204.54071,219.549861 203.058836,214.511179 L191.482463,175.149083 C190.006963,170.132073 185.843689,166.064982 182.208335,166.064982 L103.091635,166.064982 C99.4451754,166.064982 95.2282694,170.110401 93.657825,175.149083 Z" id="Rectangle-5" fill="#D8D8D8"></path>
                <path d="M192.46176,174.583047 L87.73992,197.036886 L94.567976,174.394326 L192.46176,174.583047 Z" id="Path-4" fill="#C1C1C1"></path>
                <rect id="Rectangle-4" fill="#FFFFFF" stroke="#979797" stroke-width="10" x="0" y="0" width="283.032" height="169.8192" rx="3"></rect>
            </g>
            <g id="Rectangle-1-+-Triangle-1-+-Group" transform="translate(75.000000, 30.000000)" sketch:type="MSShapeGroup">
                <path d="M4.99978529,0 C2.23848012,0 0,2.24808624 0,4.99932785 L0,107.543529 C0,110.304582 2.2439992,112.542857 4.99535966,112.542857 L61.7416084,112.542857 C63.9514371,112.542857 65.7428571,110.745553 65.7428571,108.546842 L65.7428571,93.1388726 C65.7428571,90.9319342 67.5401613,89.1428571 69.7388726,89.1428571 L85.1468417,89.1428571 C87.3537801,89.1428571 89.1428571,87.3420504 89.1428571,85.1393962 L89.1428571,4.99978529 C89.1428571,2.23848012 86.8947296,0 84.1430719,0 L4.99978529,0 Z" id="Rectangle-1" fill="#2C7AB5"></path>
                <path d="M68.7142857,107.865602 C68.7142857,110.790169 71.0317733,111.711924 73.0378707,109.580693 L85.4898324,96.3520216 C87.4775674,94.2402987 86.4730733,91.9308036 83.5770441,91.9308036 L73.2862928,91.9308036 C70.7625993,91.9308036 68.7142857,93.9770281 68.7142857,96.500468 L68.7142857,107.865602 Z" id="Triangle-1" fill="#2C7AB5"></path>
                <g id="Group" transform="translate(21.182696, 32.716599)">
                    <path d="M56.7779281,-0.0580725241 L49.0207918,-0.0580725241 L38.2469914,32.3158838 L5.3869002,32.3158838 L0,18.2871694" id="Path-39" stroke="#FFFFFF" stroke-width="5" stroke-linecap="round"></path>
                    <path d="M39.6349291,2.64190763 C41.2881426,2.64190763 42.2025598,3.92131586 41.6828592,5.4829528 L35.3316795,24.5674733 C34.8095066,26.1365392 33.0346462,27.4085184 31.3788794,27.4085184 L12.2550122,27.4085184 C10.5941139,27.4085184 8.8219127,26.1291102 8.3022121,24.5674733 L1.9510324,5.4829528 C1.42885949,3.91388688 2.3432775,2.64190763 3.99896255,2.64190763 L39.6349291,2.64190763 Z" id="Path-40" fill="#FFFFFF"></path>
                    <path d="M6.51612946,47.5089976 C9.25298886,47.5089976 11.4716515,45.1894867 11.4716515,42.3282246 C11.4716515,39.4669625 9.25298886,37.1474515 6.51612946,37.1474515 C3.77927007,37.1474515 1.5606074,39.4669625 1.5606074,42.3282246 C1.5606074,45.1894867 3.77927007,47.5089976 6.51612946,47.5089976 Z" id="Oval-9" fill="#FFFFFF"></path>
                    <path d="M37.6883253,47.5089976 C40.4251847,47.5089976 42.6438473,45.1894867 42.6438473,42.3282246 C42.6438473,39.4669625 40.4251847,37.1474515 37.6883253,37.1474515 C34.9514659,37.1474515 32.7328032,39.4669625 32.7328032,42.3282246 C32.7328032,45.1894867 34.9514659,47.5089976 37.6883253,47.5089976 Z" id="Oval-9" fill="#FFFFFF"></path>
                </g>
            </g>
            <g id="Rectangle-15-+-Rectangle-15-+-Triangle-2" transform="translate(194.444003, 86.554387) rotate(-345.000000) translate(-194.444003, -86.554387) translate(185.944003, 36.054387)" fill="#2C7AB5" sketch:type="MSShapeGroup">
                <rect id="Rectangle-15" x="0" y="0" width="17.4467953" height="12.2127567" rx="3"></rect>
                <rect id="Rectangle-15" x="0" y="14.829776" width="17.4467953" height="66.0692647"></rect>
                <path d="M0,83.6240919 L17.4467953,83.6240919 L8.72339765,101.070887 L0,83.6240919 Z" id="Triangle-2"></path>
            </g>
        </g>
    </g>
</svg>