<?xml version="1.0" encoding="UTF-8" standalone="no"?>
<svg width="400px" height="300px" viewBox="0 0 400 300" version="1.1" xmlns="http://www.w3.org/2000/svg" xmlns:xlink="http://www.w3.org/1999/xlink" xmlns:sketch="http://www.bohemiancoding.com/sketch/ns">
    <title>Untitled</title>
    <description>Created with Sketch (http://www.bohemiancoding.com/sketch)</description>
    <defs></defs>
    <g id="Page-1" stroke="none" stroke-width="1" fill="none" fill-rule="evenodd" sketch:type="MSPage">
        <g id="Rectangle-5-+-Rectangle-4-+-Path-4-+-Rectangle-10-+-Rectangle-11-+-Triangle-1" sketch:type="MSLayerGroup" transform="translate(59.000000, 38.000000)">
            <g id="Rectangle-5-+-Rectangle-4-+-Path-4" transform="translate(0.000000, 0.154791)" sketch:type="MSShapeGroup">
                <path d="M93.657825,175.149083 L81.3895401,214.511179 C79.8258502,219.528189 82.6454427,223.59528 87.6531067,223.59528 L196.635588,223.59528 C201.658551,223.59528 204.54071,219.549861 203.058836,214.511179 L191.482463,175.149083 C190.006963,170.132073 185.843689,166.064982 182.208335,166.064982 L103.091635,166.064982 C99.4451754,166.064982 95.2282694,170.110401 93.657825,175.149083 Z" id="Rectangle-5" fill="#D8D8D8"></path>
                <path d="M192.46176,174.583047 L87.73992,197.036886 L94.567976,174.394326 L192.46176,174.583047 Z" id="Path-4" fill="#C1C1C1"></path>
                <rect id="Rectangle-4" stroke="#979797" stroke-width="10" fill="#FFFFFF" x="0" y="0" width="283.032" height="169.8192" rx="3"></rect>
            </g>
            <g id="Rectangle-10-+-Rectangle-11-+-Triangle-1" transform="translate(61.000000, 22.000000)" fill="#2C7AB5" sketch:type="MSShapeGroup">
                <path d="M95.4822504,35.7695091 C96.1680897,35.4962602 96.9161348,35.3458516 97.6992167,35.3458516 L112.659657,35.3458516 C112.987022,35.3458516 113.308221,35.3719863 113.621281,35.4222785 L113.621281,35.4222785 C114.371238,35.2613934 115.16962,35.2708837 115.961368,35.4830321 L127.131057,38.4759411 C127.856172,38.6702351 128.501927,39.014972 129.043313,39.4675952 L129.043313,39.4675952 C129.628919,39.7517653 130.177844,40.1367864 130.663907,40.6228495 L140.664771,50.6237134 L153.999754,50.6237134 C154.520235,50.6237134 155.02513,50.6897772 155.506511,50.8139585 L155.506511,0.296639244 L73.7250157,0.296639244 L73.7250157,112.633858 L155.506511,112.633858 L155.506511,61.2169145 C155.025046,61.3416658 154.520136,61.4080865 153.999754,61.4080865 L139.039313,61.4080865 C137.499316,61.4080865 136.095771,60.8297332 135.033995,59.8788534 L135.033995,59.8788534 C134.524588,59.6070483 134.046186,59.256535 133.616833,58.8271819 L128.285477,53.4958263 L122.710402,74.3022901 C122.880407,74.5199665 123.037321,74.752036 123.179348,74.9980329 L139.656559,103.537401 C141.313519,106.407338 140.328619,110.066311 137.462983,111.720787 L138.500827,111.121587 C135.644803,112.770514 131.971175,111.794671 130.317018,108.929587 L113.839807,80.3902194 C113.664557,80.0866778 113.51886,79.7743097 113.401816,79.4564202 L113.401816,79.4564202 L110.366469,78.6431015 L110.366469,78.6431015 L106.65447,92.4964689 C106.160735,94.3391128 104.863972,95.7498184 103.24309,96.452882 L103.24309,96.452882 C102.32428,97.0249525 101.239642,97.3559966 100.077889,97.3559966 L85.1174482,97.3559966 C81.8008869,97.3559966 79.1172022,94.6735616 79.1172022,91.3646103 L79.1172022,92.5630099 C79.1172022,89.2651574 81.8036038,86.5716236 85.1174482,86.5716236 L97.0772233,86.5716236 L100.109613,75.2545917 C100.321862,74.4624661 100.682512,73.7501633 101.153517,73.1395862 C101.039716,72.4591995 101.066138,71.7445452 101.256155,71.0353924 L107.929475,46.1302247 L98.9630582,46.1302247 L92.6286311,57.1017743 C90.9703504,59.9740006 87.3054512,60.9569222 84.4398154,59.3024466 L85.4776598,59.9016463 C82.6216358,58.2527201 81.6321679,54.5794611 83.2890901,51.7095877 L90.7693104,38.7534661 C91.7944216,36.9779214 93.586348,35.9243613 95.4822504,35.7695091 Z M124.501439,33.5484561 C129.712978,33.5484561 133.937765,29.3236691 133.937765,24.1121297 C133.937765,18.9005903 129.712978,14.6758033 124.501439,14.6758033 C119.289899,14.6758033 115.065112,18.9005903 115.065112,24.1121297 C115.065112,29.3236691 119.289899,33.5484561 124.501439,33.5484561 Z" id="Rectangle-10"></path>
                <path d="M119.607468,128.91172 L64.8398437,128.91172 L73.7250157,115.431254 L130.398068,115.431254 C128.344034,116.397726 126.358616,118.050827 125.191539,119.928359 L119.607468,128.91172 Z M130.391841,128.91172 L146.621339,128.91172 L155.506511,115.431254 L136.357253,115.431254 C137.210111,116.397847 137.142785,118.051155 135.975912,119.928359 L130.391841,128.91172 Z" id="Rectangle-11"></path>
                <path d="M30,35 L55,65 L5,65 L30,35 Z M18,65 L18,95 L42,95 L42,65 L18,65 Z" id="Triangle-1" transform="translate(30.000000, 65.000000) rotate(-270.000000) translate(-30.000000, -65.000000) "></path>
            </g>
        </g>
    </g>
</svg>