<?xml version="1.0" encoding="UTF-8" standalone="no"?>
<svg width="128px" height="128px" viewBox="0 0 128 128" version="1.1" xmlns="http://www.w3.org/2000/svg" xmlns:xlink="http://www.w3.org/1999/xlink" xmlns:sketch="http://www.bohemiancoding.com/sketch/ns">
    <title>Untitled</title>
    <description>Created with Sketch (http://www.bohemiancoding.com/sketch)</description>
    <defs></defs>
    <g id="Page-1" stroke="none" stroke-width="1" fill="none" fill-rule="evenodd" sketch:type="MSPage">
        <g id="Group" sketch:type="MSLayerGroup" transform="translate(25.738059, 15.449133)">
            <path d="M-0.303442916,97.5174245 L42.7318273,97.5174245 C42.7318273,97.5174245 37.2578585,86.189146 42.7318273,80.7235827 C48.205796,75.2580193 67.6010856,78.8491949 67.6010863,72.5683149 C67.6010863,66.2874349 65.9872645,67.4467843 67.6010894,64.1592112 C69.2149144,60.8716381 66.6638924,51.9790693 66.6638924,51.9790693 C66.6638924,51.9790693 74.285422,52.4213996 76.3447269,50.6237105 C78.4040318,48.8260213 65.9872637,32.8413385 65.9872637,32.8413385 C65.9872637,32.8413385 66.7332364,0.279104709 34.2907785,0.279104709 C1.8483206,0.279104709 1.8483206,34.3521959 1.8483206,34.3521959 C1.8483206,34.3521959 3.39279927,58.0196416 3.39279929,58.9849087 C3.39280083,95.9221148 -0.303442916,97.5174245 -0.303442916,97.5174245 Z" id="Path-47" fill="#2779B7" sketch:type="MSShapeGroup"></path>
            <path d="M20.9393129,41.072301 C22.343673,42.0519654 24.0516388,42.6265049 25.8937955,42.6265049 C26.9311643,42.6265049 27.9259794,42.4443113 28.8479878,42.1101773 C29.748393,43.1353745 31.0689471,43.7824779 32.5406403,43.7824779 C33.5895056,43.7824779 34.5616025,43.453794 35.35955,42.8938073 L35.35955,42.8938073 C36.5139961,43.4628185 37.8134104,43.7824779 39.1874852,43.7824779 C41.1942862,43.7824779 43.0418375,43.100649 44.5111187,41.9560116 L44.5111187,41.9560116 C45.2388544,42.382207 46.0860493,42.6265049 46.990303,42.6265049 C48.9963483,42.6265049 50.7215761,41.4241836 51.484687,39.7008408 C55.2883305,39.3303072 58.2610399,36.1236844 58.2610399,32.2227478 C58.2610399,30.7815971 57.8553133,29.4352089 57.1518531,28.2915763 L57.1518531,28.2915763 C57.8433842,27.4834231 58.2610399,26.4339408 58.2610399,25.2869097 C58.2610399,23.1073395 56.7530108,21.2799887 54.7234284,20.791333 C54.2502512,17.3315971 51.4219152,14.621866 47.9073197,14.3310391 C47.061114,12.6042044 45.286102,11.4152335 43.2333907,11.4152335 C42.62647,11.4152335 42.0438256,11.5191727 41.5022867,11.7102219 L41.5022867,11.7102219 C39.4351288,10.0776763 36.8241581,9.10328749 33.9856066,9.10328749 C31.4482562,9.10328749 29.0927516,9.88186096 27.1449616,11.2131389 L27.1449616,11.2131389 C26.5839644,10.9712549 25.9655363,10.837247 25.315809,10.837247 C23.8015429,10.837247 22.4572873,11.5651482 21.6138537,12.6901392 C17.8071899,13.3491611 14.9120519,16.6679913 14.9120519,20.6630176 C14.9120519,20.6783209 14.9120944,20.6936143 14.9121792,20.7088977 L14.9121792,20.7088977 C11.8598739,21.9610566 9.71017332,24.9624011 9.71017332,28.4658355 C9.71017332,31.5080018 11.3310722,34.1715866 13.75635,35.6400702 C13.7561694,35.6569143 13.7560789,35.67378 13.7560789,35.6906668 C13.7560789,36.7708258 14.1264553,37.7644786 14.7471376,38.5515547 L14.3340654,45.4334423 L20.9393129,41.072301 Z" id="Oval-13" stroke="#FFFFFF" stroke-width="3" sketch:type="MSShapeGroup"></path>
            <path d="M41.0868821,11.544462 C41.0868821,11.544462 39.0759801,18.9811841 30.2050161,19.0499329" id="Path-31" stroke="#FFFFFF" stroke-width="2" stroke-linecap="round" sketch:type="MSShapeGroup"></path>
            <path d="M39.1370243,15.0796905 C39.1370243,15.0796905 37.0087753,20.39409 40.9425689,22.5223393" id="Path-32" stroke="#FFFFFF" stroke-width="2" stroke-linecap="round" sketch:type="MSShapeGroup"></path>
            <path d="M48.369512,32.1785803 C48.369512,32.1785803 46.3586101,39.6153024 37.4876461,39.6840512" id="Path-31" stroke="#FFFFFF" stroke-width="2" stroke-linecap="round" sketch:type="MSShapeGroup" transform="translate(43.088894, 35.806264) rotate(-249.000000) translate(-43.088894, -35.806264) "></path>
            <path d="M23.4871929,27.9303795 C23.4871929,27.9303795 21.4762909,35.3671016 12.6053269,35.4358504" id="Path-31" stroke="#FFFFFF" stroke-width="2" stroke-linecap="round" sketch:type="MSShapeGroup" transform="translate(18.206575, 31.558063) rotate(-148.000000) translate(-18.206575, -31.558063) "></path>
            <path d="M37.1646453,33.2862655 C37.1646453,33.2862655 35.0363963,38.600665 38.9701899,40.7289142" id="Path-32" stroke="#FFFFFF" stroke-width="2" stroke-linecap="round" sketch:type="MSShapeGroup" transform="translate(37.626922, 37.020036) rotate(-249.000000) translate(-37.626922, -37.020036) "></path>
            <path d="M19.1097918,21.7554347 C19.1097918,21.7554347 16.9815428,27.0698342 20.9153364,29.1980834" id="Path-32" stroke="#FFFFFF" stroke-width="2" stroke-linecap="round" sketch:type="MSShapeGroup" transform="translate(19.572068, 25.489205) rotate(-148.000000) translate(-19.572068, -25.489205) "></path>
            <path d="M52.9436769,24.7898639 C52.9436769,24.7898639 50.815428,30.1042633 54.7492216,32.2325126" id="Path-32" stroke="#FFFFFF" stroke-width="2" stroke-linecap="round" sketch:type="MSShapeGroup" transform="translate(53.405953, 28.523634) rotate(-270.000000) translate(-53.405953, -28.523634) "></path>
        </g>
    </g>
</svg>