<?xml version="1.0" encoding="UTF-8" standalone="no"?>
<svg width="128px" height="128px" viewBox="0 0 128 128" version="1.1" xmlns="http://www.w3.org/2000/svg" xmlns:xlink="http://www.w3.org/1999/xlink" xmlns:sketch="http://www.bohemiancoding.com/sketch/ns">
    <title>Untitled</title>
    <description>Created with Sketch (http://www.bohemiancoding.com/sketch)</description>
    <defs></defs>
    <g id="Page-1" stroke="none" stroke-width="1" fill="none" fill-rule="evenodd" sketch:type="MSPage">
        <g id="Rectangle-26-+-Rectangle-26-+-Oval-4" sketch:type="MSLayerGroup" transform="translate(13.139535, 28.000000)">
            <rect id="Rectangle-26" stroke="#2779B7" stroke-width="4" sketch:type="MSShapeGroup" x="12.0185544" y="-0.0198946221" width="77.8677539" height="58.4008154" rx="1"></rect>
            <path d="M66.268531,63.3076353 L102.006097,63.3076353 C102.006097,68.570374 97.7258857,72.8517683 92.445978,72.8517683 L9.45888483,72.8517683 C4.15619361,72.8517683 -0.101233779,68.5787144 -0.101233779,63.3076353 L38.1890151,63.3076353 L38.1890151,63.858006 C38.1890151,64.9638527 39.0914682,65.8603186 40.1859143,65.8603186 L64.2716318,65.8603186 C65.3744888,65.8603186 66.268531,64.9706586 66.268531,63.858006 L66.268531,63.3076353 Z" id="Rectangle-26" fill="#2779B7" sketch:type="MSShapeGroup"></path>
            <path d="M60.1775432,39.78565 C57.6850315,37.9434617 54.7884287,36.7729169 51.6767221,36.493474 C55.7282807,35.9230351 58.8402056,32.5441705 58.8402056,28.4612142 C58.8402056,23.978279 55.0887088,20.3441424 50.4610024,20.3441424 C45.833296,20.3441424 42.0817992,23.978279 42.0817992,28.4612142 C42.0817992,32.4890505 45.1102691,35.8316773 49.0817151,36.4688407 C46.0043656,36.6861285 43.1295122,37.7741875 40.6375195,39.5235721 C38.0648231,37.5224796 35.0372274,36.2486809 31.7729116,35.9555332 L31.7729116,35.9555332 C35.8244703,35.3850943 38.9363952,32.0062296 38.9363952,27.9232734 C38.9363952,23.4403382 35.1848983,19.8062016 30.5571919,19.8062016 C25.9294856,19.8062016 22.1779887,23.4403382 22.1779887,27.9232734 C22.1779887,31.9511097 25.2064587,35.2937365 29.177903,35.9309 C19.4604054,36.6170401 11.762072,45.9859741 11.762072,57.4428575 L31.6715509,57.4428575 L31.6715509,57.4428575 C31.6677793,57.6216396 31.6658825,57.8009617 31.6658825,57.9807983 L60.1775432,57.9807983 L88.6892039,57.9807983 C88.6892039,46.6448969 81.1525973,37.3530812 71.5805326,36.493474 C75.6320912,35.9230351 78.7440161,32.5441705 78.7440161,28.4612142 C78.7440161,23.978279 74.9925192,20.3441424 70.3648129,20.3441424 C65.7371065,20.3441424 61.9856096,23.978279 61.9856096,28.4612142 C61.9856096,32.4890505 65.0140796,35.8316773 68.9855239,36.4688409 C65.7572844,36.6967827 62.7518842,37.8829826 60.1775432,39.78565 Z" id="Oval-4" fill="#2779B7" sketch:type="MSShapeGroup"></path>
        </g>
    </g>
</svg>