<?xml version="1.0" encoding="UTF-8" standalone="no"?>
<svg width="128px" height="128px" viewBox="0 0 128 128" version="1.1" xmlns="http://www.w3.org/2000/svg" xmlns:xlink="http://www.w3.org/1999/xlink" xmlns:sketch="http://www.bohemiancoding.com/sketch/ns">
    <title>Untitled</title>
    <description>Created with Sketch (http://www.bohemiancoding.com/sketch)</description>
    <defs></defs>
    <g id="Page-1" stroke="none" stroke-width="1" fill="none" fill-rule="evenodd" sketch:type="MSPage">
        <g id="Oval-29-+-Triangle-8-+-Oval-29-+-Triangle-8" sketch:type="MSLayerGroup" transform="translate(64.000000, 64.000000) rotate(-45.000000) translate(-64.000000, -64.000000) translate(12.232040, 19.875631)" fill="#2779B7">
            <g id="Oval-29-+-Triangle-8" transform="translate(45.118864, 61.266668) rotate(-180.000000) translate(-45.118864, -61.266668) translate(0.000000, 34.195350)" sketch:type="MSShapeGroup">
                <path d="M58.992269,33.4826874 C57.3630896,31.2532841 58.2730489,29.4459956 61.0422847,29.4459956 L87.1375644,29.4459956 C89.8989361,29.4459956 90.8177031,31.2519928 89.1875801,33.4826874 L77.0398147,50.1059454 C75.4106353,52.3353487 72.7701574,52.33664 71.1400344,50.1059454 L58.992269,33.4826874 Z" id="Triangle-8"></path>
                <path d="M38.4697685,0 C21.4676486,0 6.39201259,10.3652422 0.137687813,25.8680337 C-0.84366134,28.3005347 0.332729669,31.0680071 2.76523067,32.0493562 C5.19773168,33.0307054 7.96520403,31.8543144 8.94655318,29.4218134 C13.7635563,17.4817563 25.3744307,9.49870827 38.4697685,9.49870827 C56.0438418,9.49870827 70.2904412,23.7453077 70.2904412,41.319381 C70.2904412,43.9423769 72.4167995,46.0687351 75.0397954,46.0687351 C77.6627912,46.0687351 79.7891495,43.9423769 79.7891495,41.319381 C79.7891495,18.499316 61.2898335,0 38.4697685,0 Z" id="Oval-29"></path>
            </g>
            <g id="Triangle-8-+-Oval-29" transform="translate(13.202567, 0.000000)" sketch:type="MSShapeGroup">
                <path d="M59.0878935,33.4826874 C57.4587142,31.2532841 58.3686735,29.4459956 61.1379093,29.4459956 L87.233189,29.4459956 C89.9945607,29.4459956 90.9133277,31.2519928 89.2832047,33.4826874 L77.1354393,50.1059454 C75.5062599,52.3353487 72.865782,52.33664 71.235659,50.1059454 L59.0878935,33.4826874 Z" id="Triangle-8"></path>
                <path d="M38.5653931,0 C21.5632731,0 6.48763717,10.3652422 0.233312393,25.8680337 C-0.74803676,28.3005347 0.428354249,31.0680071 2.86085525,32.0493562 C5.29335626,33.0307054 8.06082861,31.8543144 9.04217776,29.4218134 C13.8591809,17.4817563 25.4700553,9.49870827 38.5653931,9.49870827 C56.1394664,9.49870827 70.3860658,23.7453077 70.3860658,41.319381 C70.3860658,43.9423769 72.5124241,46.0687351 75.1354199,46.0687351 C77.7584158,46.0687351 79.8847741,43.9423769 79.8847741,41.319381 C79.8847741,18.499316 61.3854581,0 38.5653931,0 Z" id="Oval-29"></path>
            </g>
        </g>
    </g>
</svg>