<?xml version="1.0" encoding="UTF-8" standalone="no"?>
<svg width="72px" height="72px" viewBox="0 0 72 72" version="1.1" xmlns="http://www.w3.org/2000/svg" xmlns:xlink="http://www.w3.org/1999/xlink" xmlns:sketch="http://www.bohemiancoding.com/sketch/ns">
    <title>Untitled</title>
    <description>Created with Sketch (http://www.bohemiancoding.com/sketch)</description>
    <defs></defs>
    <g id="Page-1" stroke="none" stroke-width="1" fill="none" fill-rule="evenodd" sketch:type="MSPage">
        <g id="Group" sketch:type="MSLayerGroup" transform="translate(7.000000, 2.000000)" fill="#FFFFFF">
            <rect id="Rectangle-42" sketch:type="MSShapeGroup" x="24.4189848" y="10.98" width="32.7411715" height="7.32" rx="2"></rect>
            <g id="Rectangle-2-+-Rectangle-1" transform="translate(0.066843, 0.012200)" sketch:type="MSShapeGroup">
                <path d="M2.257,10.472936 L2.257,10.1554244 C2.257,8.784755 3.3680611,7.6738 4.73862443,7.6738 L15.5743756,7.6738 C15.8133549,7.6738 16.0444392,7.70757482 16.2631169,7.77061113 L14.780028,9.2537 L5.09981613,9.2537 C4.53190017,9.2537 4.05158176,9.62847768 3.89268647,10.1442345 L3.71797598,9.969524 L3.23919397,9.490742 L2.76041197,9.969524 L2.257,10.472936 Z M2.257,15.079284 L2.257,20.9911756 C2.257,22.3617389 3.367955,23.4728 4.73862443,23.4728 L15.5743756,23.4728 C16.9449389,23.4728 18.056,22.361845 18.056,20.9911756 L18.056,12.548464 L16.4761,14.128364 L16.4761,20.6299839 C16.4761,21.3275311 15.9107144,21.8929 15.2131839,21.8929 L5.09981613,21.8929 C4.40226895,21.8929 3.8369,21.3275144 3.8369,20.6299839 L3.8369,16.659184 L2.257,15.079284 Z" id="Rectangle-1"></path>
                <path d="M16.9275,17.764194 L16.9275,19.4102 L5.6425,19.4102 L5.6425,16.118188 L13.635488,16.118188 L13.635488,1.3542 L16.9275,1.3542 L16.9275,17.764194 Z" id="Rectangle-2" transform="translate(11.285000, 10.382200) rotate(-315.000000) translate(-11.285000, -10.382200) "></path>
            </g>
            <rect id="Rectangle-42" sketch:type="MSShapeGroup" x="24.4189848" y="29.89" width="32.7411715" height="7.32" rx="2"></rect>
            <g id="Rectangle-2-+-Rectangle-1" transform="translate(0.066843, 18.922200)" sketch:type="MSShapeGroup">
                <path d="M2.257,10.472936 L2.257,10.1554244 C2.257,8.784755 3.3680611,7.6738 4.73862443,7.6738 L15.5743756,7.6738 C15.8133549,7.6738 16.0444392,7.70757482 16.2631169,7.77061113 L14.780028,9.2537 L5.09981613,9.2537 C4.53190017,9.2537 4.05158176,9.62847768 3.89268647,10.1442345 L3.71797598,9.969524 L3.23919397,9.490742 L2.76041197,9.969524 L2.257,10.472936 Z M2.257,15.079284 L2.257,20.9911756 C2.257,22.3617389 3.367955,23.4728 4.73862443,23.4728 L15.5743756,23.4728 C16.9449389,23.4728 18.056,22.361845 18.056,20.9911756 L18.056,12.548464 L16.4761,14.128364 L16.4761,20.6299839 C16.4761,21.3275311 15.9107144,21.8929 15.2131839,21.8929 L5.09981613,21.8929 C4.40226895,21.8929 3.8369,21.3275144 3.8369,20.6299839 L3.8369,16.659184 L2.257,15.079284 Z" id="Rectangle-1"></path>
                <path d="M16.9275,17.764194 L16.9275,19.4102 L5.6425,19.4102 L5.6425,16.118188 L13.635488,16.118188 L13.635488,1.3542 L16.9275,1.3542 L16.9275,17.764194 Z" id="Rectangle-2" transform="translate(11.285000, 10.382200) rotate(-315.000000) translate(-11.285000, -10.382200) "></path>
            </g>
            <rect id="Rectangle-42" sketch:type="MSShapeGroup" x="24.4189848" y="48.8" width="32.7411715" height="7.32" rx="2"></rect>
            <g id="Rectangle-2-+-Rectangle-1" transform="translate(0.066843, 37.832200)" sketch:type="MSShapeGroup">
                <path d="M2.257,10.472936 L2.257,10.1554244 C2.257,8.784755 3.3680611,7.6738 4.73862443,7.6738 L15.5743756,7.6738 C15.8133549,7.6738 16.0444392,7.70757482 16.2631169,7.77061113 L14.780028,9.2537 L5.09981613,9.2537 C4.53190017,9.2537 4.05158176,9.62847768 3.89268647,10.1442345 L3.71797598,9.969524 L3.23919397,9.490742 L2.76041197,9.969524 L2.257,10.472936 Z M2.257,15.079284 L2.257,20.9911756 C2.257,22.3617389 3.367955,23.4728 4.73862443,23.4728 L15.5743756,23.4728 C16.9449389,23.4728 18.056,22.361845 18.056,20.9911756 L18.056,12.548464 L16.4761,14.128364 L16.4761,20.6299839 C16.4761,21.3275311 15.9107144,21.8929 15.2131839,21.8929 L5.09981613,21.8929 C4.40226895,21.8929 3.8369,21.3275144 3.8369,20.6299839 L3.8369,16.659184 L2.257,15.079284 Z" id="Rectangle-1"></path>
                <path d="M16.9275,17.764194 L16.9275,19.4102 L5.6425,19.4102 L5.6425,16.118188 L13.635488,16.118188 L13.635488,1.3542 L16.9275,1.3542 L16.9275,17.764194 Z" id="Rectangle-2" transform="translate(11.285000, 10.382200) rotate(-315.000000) translate(-11.285000, -10.382200) "></path>
            </g>
        </g>
    </g>
</svg>