<?xml version="1.0" encoding="UTF-8" standalone="no"?>
<svg width="72px" height="72px" viewBox="0 0 72 72" version="1.1" xmlns="http://www.w3.org/2000/svg" xmlns:xlink="http://www.w3.org/1999/xlink" xmlns:sketch="http://www.bohemiancoding.com/sketch/ns">
    <title>Untitled</title>
    <description>Created with Sketch (http://www.bohemiancoding.com/sketch)</description>
    <defs></defs>
    <g id="Page-1" stroke="none" stroke-width="1" fill="none" fill-rule="evenodd" sketch:type="MSPage">
        <g id="Rectangle-50-+-Rectangle-49-+-Group" sketch:type="MSLayerGroup" transform="translate(6.000000, 11.185185)" fill="#FFFFFF">
            <path d="M40.9716479,44.1648988 C41.0395006,44.1151907 41.1045266,44.0619279 41.1665903,44.0051821 L41.1665903,44.0051821 L36.3029432,42.3304941 L35.6441497,42.3304941 L37.0289953,42.8073347 L40.9716479,44.1648988 L40.9716479,44.1648988 Z M34.8827856,44.663988 L2.6447355,44.663988 C1.03473324,44.663988 -0.069608226,43.5894191 -0.069608226,41.7698078 L-0.069608226,3.15985947 C-0.069608226,1.33374903 1.030436,0.265679253 2.6447355,0.265679253 L39.3102391,0.265679253 C40.9202413,0.265679253 42.0245828,1.34024811 42.0245828,3.15985947 L42.0245828,20.6438904 L39.7533197,27.2401175 L39.7533197,3.68751101 C39.7533197,2.8324322 39.4215077,2.50956579 38.7498782,2.50956579 L3.17162598,2.50956579 C2.49506103,2.50956579 2.16818451,2.82694115 2.16818451,3.68751101 L2.16818451,41.1525489 C2.16818451,42.0076277 2.49999644,42.3304941 3.17162598,42.3304941 L34.5764052,42.3304941 L34.8704826,44.5702844 L34.8827856,44.663988 L34.8827856,44.663988 Z" id="Rectangle-49" sketch:type="MSShapeGroup"></path>
            <g id="Group" transform="translate(4.140633, 4.615222)" sketch:type="MSShapeGroup">
                <path d="M16.9496867,18.00629 L16.9496867,20.3604132 L33.4285488,20.3604132 L33.4285488,18.00629 L16.9496867,18.00629 Z M16.9496867,12.8272191 L16.9496867,15.1813422 L28.2494779,15.1813422 L28.2494779,12.8272191 L16.9496867,12.8272191 Z M16.9496867,7.64814815 L16.9496867,10.0022713 L31.0744257,10.0022713 L31.0744257,7.64814815 L16.9496867,7.64814815 Z M-6.21724894e-14,7.64814815 L-6.21724894e-14,20.3604132 L14.1247389,20.3604132 L14.1247389,7.64814815 L-6.21724894e-14,7.64814815 Z M16.9496867,33.2129897 L16.9496867,35.5671128 L29.8765758,35.5671128 L29.8765758,33.2129897 L16.9496867,33.2129897 Z M16.9496867,28.0339187 L16.9496867,30.3880419 L28.2494779,30.3880419 L28.2494779,28.0339187 L16.9496867,28.0339187 Z M16.9496867,22.8548478 L16.9496867,25.2089709 L31.0744257,25.2089709 L31.0744257,22.8548478 L16.9496867,22.8548478 Z M-6.21724894e-14,22.8548478 L-6.21724894e-14,35.5671128 L14.1247389,35.5671128 L14.1247389,22.8548478 L-6.21724894e-14,22.8548478 Z M2.02111714,-0.197999127 C0.917677696,-0.197999127 0.0231632896,0.689722617 0.0231632896,1.80159815 L0.0231632896,2.89878415 C0.0231632896,4.00313123 0.914867959,4.89838143 2.02111714,4.89838143 L31.362974,4.89838143 C32.4664134,4.89838143 33.3609278,4.01065968 33.3609278,2.89878415 L33.3609278,1.80159815 C33.3609278,0.697251068 32.4692232,-0.197999127 31.362974,-0.197999127 L2.02111714,-0.197999127 Z" id="Rectangle-49"></path>
            </g>
            <path d="M48.8218947,49.3838236 L51.1266021,44.7744087 L39.8796296,44.7744087 L42.1843371,49.3838236 L48.8218947,49.3838236 Z M48.0843883,50.8588364 L45.5031159,56.0213812 L42.9218435,50.8588364 L48.0843883,50.8588364 Z M42.8788375,6.42407621 C41.2224207,6.42407621 39.8796296,7.77677661 39.8796296,9.42379704 L39.8796296,13.7991401 L51.1266021,13.7991401 L51.1266021,9.42379704 C51.1266021,7.76709697 49.7922606,6.42407621 48.1273943,6.42407621 L42.8788375,6.42407621 Z M39.8796296,15.4585295 L39.8796296,43.2993959 L51.1266021,43.2993959 L51.1266021,15.4585295 L39.8796296,15.4585295 Z" id="Rectangle-57" sketch:type="MSShapeGroup" transform="translate(45.615741, 31.280558) rotate(-341.000000) translate(-45.615741, -31.280558) "></path>
        </g>
    </g>
</svg>