<?xml version="1.0" encoding="UTF-8" standalone="no"?>
<svg width="72px" height="72px" viewBox="0 0 72 72" version="1.1" xmlns="http://www.w3.org/2000/svg" xmlns:xlink="http://www.w3.org/1999/xlink" xmlns:sketch="http://www.bohemiancoding.com/sketch/ns">
    <title>Untitled</title>
    <description>Created with Sketch (http://www.bohemiancoding.com/sketch)</description>
    <defs></defs>
    <g id="Page-1" stroke="none" stroke-width="1" fill="none" fill-rule="evenodd" sketch:type="MSPage">
        <g id="Rectangle-60-+-Rectangle-57-+-Rectangle-58-+-Triangle-8" sketch:type="MSLayerGroup" transform="translate(-4.000000, 0.000000)" fill="#FFFFFF">
            <path d="M27.8719041,44.8119318 L4.43652385,44.8119318 L4.43652385,28.4433552 L27.8719041,28.4433552 L27.8719041,44.8119318 Z M48.3815916,44.8119318 L72.2632605,44.8119318 L72.2632605,28.4433552 L48.3815916,28.4433552 L48.3815916,44.8119318 Z M8.20443012,29.261784 C7.90309294,29.261784 7.65881089,29.4978974 7.65881089,29.798778 L7.65881089,36.9090783 C7.65881089,37.2056519 7.91190575,37.4460723 8.20443012,37.4460723 C8.50576729,37.4460723 8.75004934,37.2099589 8.75004934,36.9090783 L8.75004934,29.798778 C8.75004934,29.5022044 8.49695448,29.261784 8.20443012,29.261784 Z M68.2225446,29.261784 C67.9212074,29.261784 67.6769254,29.4978974 67.6769254,29.798778 L67.6769254,36.9090783 C67.6769254,37.2056519 67.9300202,37.4460723 68.2225446,37.4460723 C68.5238818,37.4460723 68.7681638,37.2099589 68.7681638,36.9090783 L68.7681638,29.798778 C68.7681638,29.5022044 68.515069,29.261784 68.2225446,29.261784 Z M62.7663524,29.261784 C62.4650152,29.261784 62.2207332,29.4978974 62.2207332,29.798778 L62.2207332,36.9090783 C62.2207332,37.2056519 62.473828,37.4460723 62.7663524,37.4460723 C63.0676896,37.4460723 63.3119716,37.2099589 63.3119716,36.9090783 L63.3119716,29.798778 C63.3119716,29.5022044 63.0588768,29.261784 62.7663524,29.261784 Z M57.3101602,29.261784 C57.008823,29.261784 56.7645409,29.4978974 56.7645409,29.798778 L56.7645409,36.9090783 C56.7645409,37.2056519 57.0176358,37.4460723 57.3101602,37.4460723 C57.6114973,37.4460723 57.8557794,37.2099589 57.8557794,36.9090783 L57.8557794,29.798778 C57.8557794,29.5022044 57.6026845,29.261784 57.3101602,29.261784 Z M51.8539679,29.261784 C51.5526308,29.261784 51.3083487,29.4978974 51.3083487,29.798778 L51.3083487,36.9090783 C51.3083487,37.2056519 51.5614436,37.4460723 51.8539679,37.4460723 C52.1553051,37.4460723 52.3995872,37.2099589 52.3995872,36.9090783 L52.3995872,29.798778 C52.3995872,29.5022044 52.1464923,29.261784 51.8539679,29.261784 Z M24.5730068,29.261784 C24.2716696,29.261784 24.0273876,29.4978974 24.0273876,29.798778 L24.0273876,36.9090783 C24.0273876,37.2056519 24.2804824,37.4460723 24.5730068,37.4460723 C24.874344,37.4460723 25.118626,37.2099589 25.118626,36.9090783 L25.118626,29.798778 C25.118626,29.5022044 24.8655312,29.261784 24.5730068,29.261784 Z M19.1168146,29.261784 C18.8154774,29.261784 18.5711953,29.4978974 18.5711953,29.798778 L18.5711953,36.9090783 C18.5711953,37.2056519 18.8242902,37.4460723 19.1168146,37.4460723 C19.4181517,37.4460723 19.6624338,37.2099589 19.6624338,36.9090783 L19.6624338,29.798778 C19.6624338,29.5022044 19.4093389,29.261784 19.1168146,29.261784 Z M13.6606223,29.261784 C13.3592852,29.261784 13.1150031,29.4978974 13.1150031,29.798778 L13.1150031,36.9090783 C13.1150031,37.2056519 13.368098,37.4460723 13.6606223,37.4460723 C13.9619595,37.4460723 14.2062416,37.2099589 14.2062416,36.9090783 L14.2062416,29.798778 C14.2062416,29.5022044 13.9531467,29.261784 13.6606223,29.261784 Z" id="Rectangle-60" sketch:type="MSShapeGroup" transform="translate(38.305329, 38.631649) rotate(-315.000000) translate(-38.305329, -38.631649) "></path>
            <g id="Rectangle-57-+-Rectangle-58-+-Triangle-8" transform="translate(38.763185, 38.490393) rotate(-315.000000) translate(-38.763185, -38.490393) translate(30.263185, 1.990393)" sketch:type="MSShapeGroup">
                <rect id="Rectangle-57" x="8.52651283e-14" y="7.10542736e-14" width="16.6413863" height="10.9123845"></rect>
                <rect id="Rectangle-58" x="7.10542736e-15" y="13.367671" width="16.6413863" height="41.1942513"></rect>
                <path d="M13.2312661,63.5646394 L16.6413863,56.7443992 L-1.42108547e-14,56.7443992 L3.41012014,63.5646394 L13.2312661,63.5646394 Z M12.1400277,65.7471163 L8.32069315,73.3857854 L4.50135859,65.7471163 L12.1400277,65.7471163 Z" id="Triangle-8"></path>
            </g>
        </g>
    </g>
</svg>