<?xml version="1.0" encoding="UTF-8" standalone="no"?>
<svg width="72px" height="72px" viewBox="0 0 72 72" version="1.1" xmlns="http://www.w3.org/2000/svg" xmlns:xlink="http://www.w3.org/1999/xlink" xmlns:sketch="http://www.bohemiancoding.com/sketch/ns">
    <title>Untitled</title>
    <description>Created with Sketch (http://www.bohemiancoding.com/sketch)</description>
    <defs></defs>
    <g id="Page-1" stroke="none" stroke-width="1" fill="none" fill-rule="evenodd" sketch:type="MSPage">
        <g id="social-positive-fb-sup" sketch:type="MSLayerGroup" transform="translate(7.000000, 10.000000)" fill="#FFFFFF">
            <g id="Page-1" sketch:type="MSShapeGroup">
                <g id="Path-+-Rectangle-100" transform="translate(-0.161290, 0.000000)">
                    <path d="M16.2909947,53.1696691 L5.37875557,53.1696691 L5.37875557,26.7555329 L-0.0746229577,26.7555329 L-0.0746229577,17.6535743 L5.37875557,17.6535743 L5.37875557,12.1886226 C5.37875557,4.76293981 8.4565979,0.34748785 17.2034443,0.34748785 L24.4859858,0.34748785 L24.4859858,9.4512739 L19.9340927,9.4512739 C16.5285482,9.4512739 16.3043951,10.7230994 16.3043951,13.0974176 L16.2909946,17.6535744 L24.5371511,17.6535744 L23.5723179,26.7555331 L16.2909946,26.7555331 L16.2909946,53.1696691 L16.2909947,53.1696691 L16.2909947,53.1696691 Z" id="Path"></path>
                    <path d="M47.2329717,0.27011064 C51.8524503,2.44215707 55.0505255,7.1378262 55.0505255,12.5804462 C55.0505255,17.6127923 52.3164302,22.0065559 48.252652,24.3573245 L48.252652,47.3713053 C48.252652,50.6757488 45.5650763,53.3676872 42.2497836,53.3676872 L40.6597734,53.3676872 C37.3429871,53.3676872 34.656905,50.6830156 34.656905,47.3713053 L34.656905,24.3573245 C30.5931268,22.0065559 27.8590315,17.6127923 27.8590315,12.5804462 C27.8590315,7.0053221 31.2147206,2.2139616 36.0164797,0.11598399 L36.0164797,14.4678685 C36.0164797,15.5748461 36.9154119,16.4722288 38.0217635,16.4722288 L45.2276871,16.4722288 C46.3351748,16.4722288 47.232971,15.5803186 47.232971,14.4678685 L47.232971,0.27010699 L47.2329717,0.27011064 Z" id="Rectangle-100"></path>
                </g>
            </g>
        </g>
    </g>
</svg>