<?xml version="1.0" encoding="UTF-8" standalone="no"?>
<svg width="72px" height="72px" viewBox="0 0 72 72" version="1.1" xmlns="http://www.w3.org/2000/svg" xmlns:xlink="http://www.w3.org/1999/xlink" xmlns:sketch="http://www.bohemiancoding.com/sketch/ns">
    <title>Untitled</title>
    <description>Created with Sketch (http://www.bohemiancoding.com/sketch)</description>
    <defs></defs>
    <g id="Page-1" stroke="none" stroke-width="1" fill="none" fill-rule="evenodd" sketch:type="MSPage">
        <g id="Oval-70-+-Rectangle-74" sketch:type="MSLayerGroup" transform="translate(10.000000, 10.000000)" fill="#FFFFFF">
            <path d="M51.2569931,47.3666706 C51.7145615,46.5750957 52.0728238,45.7189216 52.3147484,44.81518 L52.3147484,44.81518 L55.8186736,44.81518 L55.8186736,39.3134333 L52.3147484,39.3134333 C52.0728238,38.4096916 51.7145615,37.5535176 51.2569931,36.7619426 L51.2569931,36.7619426 L53.735274,34.2836617 L49.8449515,30.3933393 L47.3666706,32.8716202 C46.5750957,32.4140517 45.7189216,32.0557895 44.81518,31.8138649 L44.81518,28.3099397 L39.3134333,28.3099397 L39.3134333,31.8138649 C38.4096916,32.0557895 37.5535176,32.4140517 36.7619426,32.8716202 L34.2836617,30.3933393 L30.3933393,34.2836617 L32.8716202,36.7619426 C32.4140517,37.5535176 32.0557895,38.4096916 31.8138649,39.3134333 L28.3099397,39.3134333 L28.3099397,44.81518 L31.8138649,44.81518 C32.0557895,45.7189216 32.4140517,46.5750957 32.8716202,47.3666706 L30.3933393,49.8449515 L34.2836617,53.735274 L36.7619426,51.2569931 C37.5535176,51.7145615 38.4096916,52.0728238 39.3134333,52.3147484 L39.3134333,55.8186736 L44.81518,55.8186736 L44.81518,52.3147484 L44.81518,52.3147484 C45.7189216,52.0728238 46.5750957,51.7145615 47.3666706,51.2569931 L49.8449515,53.735274 L53.735274,49.8449515 L51.2569931,47.3666706 L51.2569931,47.3666706 Z M42.0643066,49.334472 C46.0795083,49.334472 49.334472,46.0795083 49.334472,42.0643066 C49.334472,38.049105 46.0795083,34.7941413 42.0643066,34.7941413 C38.049105,34.7941413 34.7941413,38.049105 34.7941413,42.0643066 C34.7941413,46.0795083 38.049105,49.334472 42.0643066,49.334472 Z" id="Oval-70" sketch:type="MSShapeGroup"></path>
            <path d="M30.3857563,48 L5.0010033,48 C2.23479023,48 0,45.7609746 0,42.9989967 L0,5.0010033 C0,2.23479023 2.23902544,0 5.0010033,0 L42.9989967,0 C45.7652098,0 48,2.23902544 48,5.0010033 L48,30.3857563 L47.0953732,31.2903831 L46.1251197,30.8969071 L46.1251197,28.3099397 L46.1251197,27 L44.81518,27 L39.3134333,27 L38.0034935,27 L38.0034935,28.3099397 L38.0034935,30.8969071 L37.03324,31.2903831 L35.209929,29.467072 L34.2836617,28.5408048 L33.6266659,29.1978006 L33.2874832,27.2202133 L42.2749712,18.4595882 L29.8545727,16.6547909 L24.3000002,5.4 L18.7454311,16.6547881 L6.32503171,18.4595792 L15.312516,27.220211 L13.1908596,39.5904218 L24.2999996,33.75 L31.159408,37.3562052 L30.8969071,38.0034935 L28.3099397,38.0034935 L27,38.0034935 L27,39.3134333 L27,44.81518 L27,46.1251197 L28.3099397,46.1251197 L30.8969071,46.1251197 L31.2903831,47.0953732 L30.3857563,48 Z" id="Rectangle-74" sketch:type="MSShapeGroup"></path>
        </g>
    </g>
</svg>