<?xml version="1.0" encoding="UTF-8" standalone="no"?>
<svg width="128px" height="128px" viewBox="0 0 128 128" version="1.1" xmlns="http://www.w3.org/2000/svg" xmlns:xlink="http://www.w3.org/1999/xlink" xmlns:sketch="http://www.bohemiancoding.com/sketch/ns">
    <title>Untitled 2</title>
    <description>Created with Sketch (http://www.bohemiancoding.com/sketch)</description>
    <defs></defs>
    <g id="Page-1" stroke="none" stroke-width="1" fill="none" fill-rule="evenodd" sketch:type="MSPage">
        <g id="step-confirm" sketch:type="MSLayerGroup" transform="translate(0.000000, -4.000000)" fill="#2779B7">
            <g id="Page-1" sketch:type="MSShapeGroup">
                <g id="Rectangle-2-+-Rectangle-1" transform="translate(0.153846, 0.000000)">
                    <path d="M27.3846154,48.1867133 L27.3846154,46.7258204 C27.3846154,40.4192742 32.4966855,35.3076923 38.8027435,35.3076923 L88.6587949,35.3076923 C89.7583555,35.3076923 90.8215906,35.4630926 91.827742,35.7531271 L85.003946,42.5769231 L40.4646119,42.5769231 C37.8515907,42.5769231 35.641612,44.3013015 34.9105236,46.6743348 L34.1066684,45.8704795 L31.9037588,43.6675699 L29.7008492,45.8704795 L27.3846154,48.1867133 L27.3846154,48.1867133 Z M27.3846154,69.3808441 L27.3846154,96.5818719 C27.3846154,102.88793 32.4961973,108 38.8027435,108 L88.6587949,108 C94.964853,108 100.076923,102.888418 100.076923,96.5818719 L100.076923,57.7363636 L92.8076923,65.0055944 L92.8076923,94.9200035 C92.8076923,98.129467 90.2063133,100.730769 86.9969266,100.730769 L40.4646119,100.730769 C37.2551484,100.730769 34.6538462,98.1293902 34.6538462,94.9200035 L34.6538462,76.6500748 L27.3846154,69.3808441 L27.3846154,69.3808441 Z" id="Rectangle-1"></path>
                    <path d="M94.9005469,81.7727648 L94.9005469,89.3461539 L42.97747,89.3461539 L42.97747,74.1993757 L79.7537687,74.1993757 L79.7537687,6.26923081 L94.9005469,6.26923081 L94.9005469,81.7727648 L94.9005469,81.7727648 Z" id="Rectangle-2" transform="translate(68.977470, 47.769231) rotate(45.000000) translate(-68.977470, -47.769231) "></path>
                </g>
            </g>
        </g>
    </g>
</svg>