<?xml version="1.0" encoding="UTF-8" standalone="no"?>
<svg width="128px" height="128px" viewBox="0 0 128 128" version="1.1" xmlns="http://www.w3.org/2000/svg" xmlns:xlink="http://www.w3.org/1999/xlink" xmlns:sketch="http://www.bohemiancoding.com/sketch/ns">
    <title>Untitled 2</title>
    <description>Created with Sketch (http://www.bohemiancoding.com/sketch)</description>
    <defs></defs>
    <g id="Page-1" stroke="none" stroke-width="1" fill="none" fill-rule="evenodd" sketch:type="MSPage">
        <path d="M102.273077,93.8130769 L77.4192308,68.9546154 C81.1369231,63.7876923 83.38,57.4830769 83.38,50.6246154 C83.38,33.1923077 69.2061538,19 51.7738462,19 C34.3415385,19 20.1538462,33.1923077 20.1538462,50.6246154 C20.1538462,68.0592308 34.3415385,82.2376923 51.7738462,82.2376923 C57.2523077,82.2376923 62.3315385,80.7123077 66.8269231,78.2476923 L92.3384615,103.75 C95.0776923,106.498462 99.5292308,106.498462 102.273077,103.75 C105.012308,100.999231 105.012308,96.5615385 102.273077,93.8130769 L102.273077,93.8130769 Z M30.6907692,50.6246154 C30.6907692,38.9892308 40.15,29.5484615 51.7738462,29.5484615 C63.3930769,29.5484615 72.85,38.9892308 72.85,50.6246154 C72.85,62.2484615 63.3930769,71.6915385 51.7738462,71.6915385 C40.15,71.6915385 30.6907692,62.2484615 30.6907692,50.6246154 L30.6907692,50.6246154 Z" id="Imported-Layers" fill="#2779B7" sketch:type="MSShapeGroup"></path>
    </g>
</svg>