<?xml version="1.0" encoding="UTF-8" standalone="no"?>
<svg width="128px" height="128px" viewBox="0 0 128 128" version="1.1" xmlns="http://www.w3.org/2000/svg" xmlns:xlink="http://www.w3.org/1999/xlink" xmlns:sketch="http://www.bohemiancoding.com/sketch/ns">
    <title>Untitled 2</title>
    <description>Created with Sketch (http://www.bohemiancoding.com/sketch)</description>
    <defs></defs>
    <g id="Page-1" stroke="none" stroke-width="1" fill="none" fill-rule="evenodd" sketch:type="MSPage">
        <g id="Group" sketch:type="MSLayerGroup" transform="translate(16.000000, 4.000000)" fill="#2779B7">
            <path d="M76.2909182,42.7426407 C81.1462887,49.5938721 84,57.9636759 84,67 C84,90.1959605 65.1959605,109 42,109 C18.8040395,109 0,90.1959605 0,67 C0,43.8040395 18.8040395,25 42,25 C50.923489,25 59.1969992,27.7828886 66,32.5281351 L66,33.4926407 L60.767563,38.6445694 C55.3891493,35.0776166 48.9372015,33 42,33 C23.2223175,33 8,48.2223175 8,67 C8,85.7776825 23.2223175,101 42,101 C60.7776825,101 76,85.7776825 76,67 C76,59.935772 73.8456006,53.3747312 70.1579935,47.9380693 L75.25,42.7426407 L76.2909182,42.7426407 Z" id="Oval-7" sketch:type="MSShapeGroup"></path>
            <path d="M50.7962918,48.4778053 L55.2803048,44.062785 C51.3756669,41.7971745 46.8393192,40.5 42,40.5 C27.3644535,40.5 15.5,52.3644535 15.5,67 C15.5,81.6355465 27.3644535,93.5 42,93.5 C56.6355465,93.5 68.5,81.6355465 68.5,67 C68.5,62.0375649 67.1359838,57.393713 64.7624235,53.4229164 L64.7624235,53.4229164 L60.3745617,57.8998987 C61.7351077,60.6417898 62.5,63.7315698 62.5,67 C62.5,78.321838 53.321838,87.5 42,87.5 C30.678162,87.5 21.5,78.321838 21.5,67 C21.5,55.678162 30.678162,46.5 42,46.5 C45.1482702,46.5 48.1307844,47.2096854 50.7962918,48.4778053 Z" id="Oval-7" sketch:type="MSShapeGroup"></path>
            <path d="M81.8189655,9 L81.8189655,27.1810345 L100,27.1810345 L86.7327586,40.4482759 L73.7112069,40.4482759 L48.1594828,66.2579741 L43,66.2579741 L43,60.6991857 L68.5517241,35.2887931 L68.5517241,22.2672414 L81.8189655,9 Z" id="Path-11" sketch:type="MSShapeGroup"></path>
            <circle id="Oval-9" sketch:type="MSShapeGroup" cx="42" cy="67" r="8"></circle>
        </g>
    </g>
</svg>