<?xml version="1.0" encoding="UTF-8" standalone="no"?>
<svg width="128px" height="128px" viewBox="0 0 128 128" version="1.1" xmlns="http://www.w3.org/2000/svg" xmlns:xlink="http://www.w3.org/1999/xlink" xmlns:sketch="http://www.bohemiancoding.com/sketch/ns">
    <title>Untitled 3</title>
    <description>Created with Sketch (http://www.bohemiancoding.com/sketch)</description>
    <defs></defs>
    <g id="Page-1" stroke="none" stroke-width="1" fill="none" fill-rule="evenodd" sketch:type="MSPage">
        <g id="Rectangle-2-+-Rectangle-1" sketch:type="MSLayerGroup" transform="translate(16.153846, -5.000000)" fill="#2779B7">
            <path d="M10.3846154,48.1867133 L10.3846154,46.7258204 C10.3846154,40.4192742 15.4966855,35.3076923 21.8027435,35.3076923 L71.6587949,35.3076923 C72.7583555,35.3076923 73.8215906,35.4630926 74.827742,35.7531271 L68.003946,42.5769231 L23.4646119,42.5769231 C20.8515907,42.5769231 18.641612,44.3013015 17.9105236,46.6743348 L17.1066684,45.8704795 L14.9037588,43.6675699 L12.7008492,45.8704795 L10.3846154,48.1867133 Z M10.3846154,69.3808441 L10.3846154,96.5818719 C10.3846154,102.88793 15.4961973,108 21.8027435,108 L71.6587949,108 C77.964853,108 83.0769231,102.888418 83.0769231,96.5818719 L83.0769231,57.7363636 L75.8076923,65.0055944 L75.8076923,94.9200035 C75.8076923,98.129467 73.2063133,100.730769 69.9969266,100.730769 L23.4646119,100.730769 C20.2551484,100.730769 17.6538462,98.1293902 17.6538462,94.9200035 L17.6538462,76.6500748 L10.3846154,69.3808441 Z" id="Rectangle-1" sketch:type="MSShapeGroup"></path>
            <path d="M77.8846154,81.7343032 L77.8846154,89.3076923 L25.9615385,89.3076923 L25.9615385,74.1609141 L62.7378372,74.1609141 L62.7378372,6.23076923 L77.8846154,6.23076923 L77.8846154,81.7343032 Z" id="Rectangle-2" stroke="#FFFFFF" stroke-width="3" sketch:type="MSShapeGroup" transform="translate(51.923077, 47.769231) rotate(-315.000000) translate(-51.923077, -47.769231) "></path>
        </g>
    </g>
</svg>