<?xml version="1.0" encoding="UTF-8" standalone="no"?>
<svg width="128px" height="128px" viewBox="0 0 128 128" version="1.1" xmlns="http://www.w3.org/2000/svg" xmlns:xlink="http://www.w3.org/1999/xlink" xmlns:sketch="http://www.bohemiancoding.com/sketch/ns">
    <title>Untitled 2</title>
    <description>Created with Sketch (http://www.bohemiancoding.com/sketch)</description>
    <defs></defs>
    <g id="Page-1" stroke="none" stroke-width="1" fill="none" fill-rule="evenodd" sketch:type="MSPage">
        <g id="fb-app" sketch:type="MSLayerGroup" transform="translate(28.000000, 6.000000)">
            <g id="Imported-Layers" transform="translate(0.144278, 0.000000)" sketch:type="MSShapeGroup">
                <path d="M65.1873882,2.2125962 C63.9250039,1.63430291 64.0682217,1.73932235 61.6803958,1.2687941 C55.3832387,0.0288097329 44.5414978,-0.146909059 33.5609685,-0.146909059 C23.6892703,-0.146909059 13.941965,0.0288097329 8.28079856,1.2687941 C6.13400688,1.73932235 6.26319827,1.63430291 5.12815968,2.2125962 C2.52845993,3.38668602 -0.122178137,7.03456695 -0.122178137,9.7914987 C-0.122178137,10.1072434 -0.0967089784,10.4171537 -0.0516765534,10.7215728 L-0.122178137,105.748528 C-0.122178137,108.50546 2.82596923,112.153341 5.71764151,113.327431 C6.98002588,113.905724 6.83680801,113.800705 9.22426477,114.27089 C15.521791,115.511217 26.3635319,115.686936 37.3440613,115.686936 C47.2157594,115.686936 56.9626956,115.511217 62.6242312,114.27089 C64.7710229,113.800705 64.6422006,113.905724 65.7768701,113.327431 C68.3765698,112.153341 71.027577,108.50546 71.027577,105.748528 L71.027577,10.7215728 C70.9987858,10.4171537 71.027577,10.1072434 71.027577,9.7914987 C71.027577,7.03456695 68.0790605,3.38668602 65.1873882,2.2125962 Z" id="Fill-1" fill="#62A1D1"></path>
                <path d="M5.00561243,16.4463735 L66.4017872,16.4463735 L66.4017872,103 L5.00561243,103 L5.00561243,16.4463735 Z" id="Fill-2" fill="#FFFFFF"></path>
                <path d="M49,8.25665357 C49,9.10905827 48.309088,9.79947645 47.4566833,9.79947645 L24.1217342,9.79947645 C23.2693295,9.79947645 22.5784174,9.10905827 22.5784174,8.25665357 C22.5784174,7.40474273 23.2693295,6.71284297 24.1217342,6.71284297 L47.4566833,6.71284297 C48.309088,6.71284297 49,7.40474273 49,8.25665357" id="Fill-3" fill="#FFFFFF"></path>
            </g>
            <g id="Group" transform="translate(12.213616, 29.575967)" sketch:type="MSShapeGroup">
                <rect id="Rectangle-4" fill="#2779B7" x="10.3542758" y="-7.10542736e-15" width="16.6408004" height="2.63419617"></rect>
                <rect id="Rectangle-3" fill="#2779B7" x="0" y="-7.10542736e-15" width="7.3959113" height="7.52627476"></rect>
                <rect id="Rectangle-3" fill="#2779B7" x="29.2138496" y="58.5970217" width="18.8595738" height="7.52627476" rx="1"></rect>
                <rect id="Rectangle-3" fill="#62A1D1" x="0" y="10.9130984" width="48.0734235" height="44.0869016"></rect>
                <rect id="Rectangle-4" fill="#2779B7" x="10.3542758" y="4.8920786" width="37.7191476" height="2.63419617"></rect>
                <rect id="Rectangle-4" fill="#62A1D1" x="0" y="58.5970217" width="16.6408004" height="2.63419617"></rect>
                <rect id="Rectangle-4" fill="#62A1D1" x="0" y="63.4891003" width="25.8856896" height="2.63419617"></rect>
            </g>
            <rect id="Rectangle-39" fill="#2779B7" sketch:type="MSShapeGroup" x="5" y="16" width="61.6" height="7"></rect>
        </g>
    </g>
</svg>