<?xml version="1.0" encoding="UTF-8" standalone="no"?>
<svg width="128px" height="128px" viewBox="0 0 128 128" version="1.1" xmlns="http://www.w3.org/2000/svg" xmlns:xlink="http://www.w3.org/1999/xlink" xmlns:sketch="http://www.bohemiancoding.com/sketch/ns">
    <title>Untitled</title>
    <description>Created with Sketch (http://www.bohemiancoding.com/sketch)</description>
    <defs></defs>
    <g id="Page-1" stroke="none" stroke-width="1" fill="none" fill-rule="evenodd" sketch:type="MSPage">
        <g id="Imported-Layers-+-FB-App" sketch:type="MSLayerGroup" transform="translate(29.000000, 6.000000)">
            <g id="Imported-Layers" transform="translate(0.144278, 0.000000)" sketch:type="MSShapeGroup">
                <path d="M65.1873882,2.2125962 C63.9250039,1.63430291 64.0682217,1.73932235 61.6803958,1.2687941 C55.3832387,0.0288097329 44.5414978,-0.146909059 33.5609685,-0.146909059 C23.6892703,-0.146909059 13.941965,0.0288097329 8.28079856,1.2687941 C6.13400688,1.73932235 6.26319827,1.63430291 5.12815968,2.2125962 C2.52845993,3.38668602 -0.122178137,7.03456695 -0.122178137,9.7914987 C-0.122178137,10.1072434 -0.0967089784,10.4171537 -0.0516765534,10.7215728 L-0.122178137,105.748528 C-0.122178137,108.50546 2.82596923,112.153341 5.71764151,113.327431 C6.98002588,113.905724 6.83680801,113.800705 9.22426477,114.27089 C15.521791,115.511217 26.3635319,115.686936 37.3440613,115.686936 C47.2157594,115.686936 56.9626956,115.511217 62.6242312,114.27089 C64.7710229,113.800705 64.6422006,113.905724 65.7768701,113.327431 C68.3765698,112.153341 71.027577,108.50546 71.027577,105.748528 L71.027577,10.7215728 C70.9987858,10.4171537 71.027577,10.1072434 71.027577,9.7914987 C71.027577,7.03456695 68.0790605,3.38668602 65.1873882,2.2125962 Z" id="Fill-1" fill="#62A1D1"></path>
                <path d="M5.00561243,16.4463735 L66.4017872,16.4463735 L66.4017872,103 L5.00561243,103 L5.00561243,16.4463735 Z" id="Fill-2" fill="#FFFFFF"></path>
                <path d="M49,8.25665357 C49,9.10905827 48.309088,9.79947645 47.4566833,9.79947645 L24.1217342,9.79947645 C23.2693295,9.79947645 22.5784174,9.10905827 22.5784174,8.25665357 C22.5784174,7.40474273 23.2693295,6.71284297 24.1217342,6.71284297 L47.4566833,6.71284297 C48.309088,6.71284297 49,7.40474273 49,8.25665357" id="Fill-3" fill="#FFFFFF"></path>
            </g>
            <path d="M22.6107716,79.7513393 L15.2865343,75.5871495 C14.3435463,75.0510144 13.5842934,73.7363603 13.5914835,72.6512354 L13.7266167,52.2568422 C13.7338041,51.1721231 14.5043642,50.7268357 15.447705,51.2631714 L33.1773342,61.3433392 C34.1203222,61.8794743 34.879575,63.1941284 34.872385,64.2792533 L34.7372517,84.6736465 C34.7300644,85.7583657 33.9595043,86.203653 33.0161635,85.6673173 L26.1178096,81.7452632 L26.1939832,74.13079 L29.069692,75.6335276 L29.069692,71.5392506 L26.3081891,70.0929431 L26.3081891,67.2928833 C26.3081891,67.2928833 26.223807,66.0539202 27.0859293,66.5158302 C27.8525135,66.8762493 29.1452185,67.5497943 29.1452185,67.5497943 L29.1973339,63.7014935 C29.1973339,63.7014935 26.3858532,62.2974061 26.0932133,62.1714297 C24.3960719,61.4415122 22.7517124,62.8522168 22.8049533,64.5536855 L22.7646453,68.1618816 L20.8318987,67.1442927 L20.8318987,71.1180562 L22.6889152,72.1579847 L22.6107716,79.7513393 Z M34.4317972,34.8084727 L15.7378319,45.7672278 C14.7431817,46.3503105 14.7435537,47.2958924 15.7378319,47.8787571 L34.4317972,58.8375121 C35.4264474,59.4205948 37.0394659,59.4203768 38.0337442,58.8375121 L56.7277094,47.8787571 C57.7223596,47.2956743 57.7219877,46.3500925 56.7277094,45.7672278 L38.0337442,34.8084727 C37.039094,34.22539 35.4260754,34.2256081 34.4317972,34.8084727 Z M37.5211721,64.3078423 L37.6563053,84.7022355 C37.6634954,85.7873604 38.4344056,86.2320414 39.3773936,85.6959062 L57.1070228,75.6157385 C58.0503636,75.0794028 58.809261,73.7645435 58.8020736,72.6798243 L58.6669404,52.2854311 C58.6597503,51.2003062 57.8888401,50.7556252 56.9458521,51.2917604 L39.2162229,61.3719281 C38.2728822,61.9082638 37.5139847,63.2231231 37.5211721,64.3078423 Z" id="FB-App" stroke="#2779B7" stroke-width="1.8" sketch:type="MSShapeGroup"></path>
        </g>
    </g>
</svg>