<?xml version="1.0" encoding="UTF-8" standalone="no"?>
<svg width="128px" height="128px" viewBox="0 0 128 128" version="1.1" xmlns="http://www.w3.org/2000/svg" xmlns:xlink="http://www.w3.org/1999/xlink" xmlns:sketch="http://www.bohemiancoding.com/sketch/ns">
    <title>Untitled</title>
    <description>Created with Sketch (http://www.bohemiancoding.com/sketch)</description>
    <defs></defs>
    <g id="Page-1" stroke="none" stroke-width="1" fill="none" fill-rule="evenodd" sketch:type="MSPage">
        <path d="M67.139442,20.2571304 C66.800984,20.699566 66.6237976,21.2449184 66.6386515,21.7902708 C66.6418345,21.8984924 66.9166327,32.6623051 66.9283036,35.4368117 C66.1665079,38.6293511 54.4233953,58.5246432 51.7793912,60.7782005 C51.0260835,61.4317745 49.9523547,62.2009972 48.7757093,62.9988668 C48.3884454,62.2190341 47.5842098,57.6842917 46.6590206,57.6842917 L13.3978317,57.6842917 C12.7368307,57.6842917 12.0917447,57.9665169 11.637638,58.4535144 C11.1814094,58.932024 10.9586001,59.6078789 11.0063449,60.264636 L14.4524625,107.23871 C14.5532572,108.491747 15.5951561,109.465742 16.8397054,109.465742 L46.6590206,109.465742 C47.9810227,109.465742 49.0430805,108.386708 49.0430805,107.056218 L49.0430805,102.831329 L50.5465129,102.831329 C50.9178618,102.859976 51.9724926,103.533709 52.6663846,103.975083 C54.2642457,104.988335 56.2430048,106.277447 58.5888687,106.277447 L97.9232034,106.277447 C104.659472,106.277447 109.185684,101.170869 109.185684,96.3963833 C109.185684,94.8674869 108.710358,93.4606051 107.841402,92.3200335 C110.711398,90.3932633 112.41642,87.3450195 112.41642,84.4145463 C112.41642,82.8814059 111.941093,81.4596702 111.072137,80.3360746 C113.937889,78.4114264 115.650338,75.3631826 115.650338,72.4327094 C115.650338,70.9929367 115.212146,69.5404321 114.298628,68.3521157 C117.176051,66.4295894 118.885317,63.3728576 118.885317,60.4508724 C118.885317,58.4975773 118.116095,56.7416276 116.730433,55.4938953 C115.732035,54.5952311 113.900754,53.5480272 110.848266,53.5480272 L82.080399,53.5480272 C83.2400686,47.5703712 84.6946952,37.6383801 84.761538,37.1556265 C84.7838189,36.983745 84.7912459,36.8108026 84.7838189,36.6346771 C84.2745404,29.1461616 79.5000548,20.0969199 79.2920994,19.726632 C79.0363992,19.2396344 78.6162445,18.8640416 78.104844,18.6497202 C76.454994,17.9441573 74.8412178,17.6025164 73.3367244,17.6025164 C69.3304004,17.6025164 67.3473974,19.9971862 67.139442,20.2571304 Z" id="Imported-Layers" stroke="#2779B7" stroke-width="3" sketch:type="MSShapeGroup"></path>
    </g>
</svg>