<?xml version="1.0" encoding="UTF-8" standalone="no"?>
<svg width="128px" height="128px" viewBox="0 0 128 128" version="1.1" xmlns="http://www.w3.org/2000/svg" xmlns:xlink="http://www.w3.org/1999/xlink" xmlns:sketch="http://www.bohemiancoding.com/sketch/ns">
    <title>Untitled 2</title>
    <description>Created with Sketch (http://www.bohemiancoding.com/sketch)</description>
    <defs></defs>
    <g id="Page-1" stroke="none" stroke-width="1" fill="none" fill-rule="evenodd" sketch:type="MSPage">
        <g id="post" sketch:type="MSLayerGroup" transform="translate(25.000000, 15.000000)">
            <path d="M4.99790642,0 C2.23763892,0 0,2.24181083 0,5.00176098 L0,93.473239 C0,96.2356353 2.23739293,98.475 5.00433541,98.475 L53.5256253,98.475 C55.7344189,98.475 57.525,96.6937959 57.525,94.4786081 L57.525,81.9963919 C57.525,79.7892456 59.3062041,78 61.5213919,78 L74.0036081,78 C76.2107544,78 78,76.2055764 78,73.9977223 L78,4.99790642 C78,2.23763892 75.7705381,0 73.0020936,0 L4.99790642,0 Z" id="Rectangle-1" stroke="#2779B7" stroke-width="3" sketch:type="MSShapeGroup"></path>
            <rect id="Rectangle-2" fill="#2779B7" sketch:type="MSShapeGroup" x="8" y="11" width="20" height="18"></rect>
            <path d="M8,35 L8,41 L37.6124023,41 L69,41 L69,35 L8,35 Z" id="Rectangle-2" fill="#2779B7" sketch:type="MSShapeGroup"></path>
            <path d="M8,47 L8,53 L32.7579102,53 L59,53 L59,47 L8,47 Z" id="Rectangle-2" fill="#62A1D1" sketch:type="MSShapeGroup"></path>
            <path d="M8,59 L8,65 L37.6124023,65 L69,65 L69,59 L8,59 Z" id="Rectangle-2" fill="#62A1D1" sketch:type="MSShapeGroup"></path>
            <path d="M8,71 L8,77 L27.4179688,77 L48,77 L48,71 L8,71 Z" id="Path" fill="#62A1D1" sketch:type="MSShapeGroup"></path>
            <path d="M8,83 L8,89 L22.8062012,89 L38.5,89 L38.5,83 L8,83 Z" id="Path" fill="#62A1D1" sketch:type="MSShapeGroup"></path>
            <path d="M34,11 L34,17 L43.7089844,17 L54,17 L54,11 L34,11 Z" id="Path" fill="#2779B7" sketch:type="MSShapeGroup"></path>
            <path d="M34,23 L34,29 L50.9554884,29 L68.9274194,29 L68.9274194,23 L34,23 Z" id="Path" fill="#2779B7" sketch:type="MSShapeGroup"></path>
            <path d="M61,95.2574018 C61,97.8163983 63.0278016,98.6229331 64.7831368,96.7581063 L75.6786034,85.1830189 C77.4178715,83.3352613 76.5389391,81.3144531 74.0049135,81.3144531 L65.0005062,81.3144531 C62.7922744,81.3144531 61,83.1048996 61,85.3129095 L61,95.2574018 Z" id="Triangle-1" fill="#62A1D1" sketch:type="MSShapeGroup"></path>
        </g>
    </g>
</svg>