<?xml version="1.0" encoding="UTF-8" standalone="no"?>
<svg width="80px" height="1040px" viewBox="0 0 80 1040" version="1.1" xmlns="http://www.w3.org/2000/svg" xmlns:xlink="http://www.w3.org/1999/xlink" xmlns:sketch="http://www.bohemiancoding.com/sketch/ns">
    <title>Untitled</title>
    <description>Created with Sketch (http://www.bohemiancoding.com/sketch)</description>
    <defs></defs>
    <g id="Page-1" stroke="none" stroke-width="1" fill="none" fill-rule="evenodd" sketch:type="MSPage">
        <path d="M402.382812,479.648438 L402.382812,545.095356 L-322.739139,545.095356 L-322.739139,489.857638" id="Path-1" stroke="#3775A4" stroke-width="10" stroke-linecap="round" sketch:type="MSShapeGroup" transform="translate(39.500000, 512.500000) scale(1, -1) rotate(-90.000000) translate(-39.500000, -512.500000) "></path>
        <path d="M4.65119839,146.424401 L33.0279241,132.236038 C35.4977834,131.001108 37.5,132.236284 37.5,135.005322 L37.5,164.994678 C37.5,167.759041 35.4889812,168.994491 33.0279241,167.763962 L4.65119839,153.575599 C0.701700575,151.60085 0.705751777,148.397124 4.65119839,146.424401 Z" id="Triangle-1" fill="#3775A4" sketch:type="MSShapeGroup"></path>
        <path d="M28.136,344.656 L30.728,344.656 C30.4399986,343.791996 30.1120018,342.984004 29.744,342.232 L31.904,341.944 C32.2240016,342.760004 32.5279986,343.663995 32.816,344.656 L34.496,344.656 C34.7840014,343.583995 35.0079992,342.488006 35.168,341.368 L37.232,341.656 C37.023999,342.696005 36.8000012,343.695995 36.56,344.656 L45.968,344.656 C45.7919991,346.320008 45.5760013,347.727994 45.32,348.88 L47.552,348.88 C47.3759991,350.528008 47.1680012,351.935994 46.928,353.104 L48.776,353.104 C48.7119997,358.480027 48.2400044,361.551996 47.36,362.32 C46.8799976,362.992003 45.2560138,363.328 42.488,363.328 L42.008,360.976 C42.7280036,361.104001 43.3279976,361.168 43.808,361.168 C44.7040045,361.168 45.3999975,360.960002 45.896,360.544 C46.3120021,360.143998 46.5839994,358.288017 46.712,354.976 L32.24,354.976 C31.1999948,356.528008 30.0560062,357.839995 28.808,358.912 L26.936,357.592 C30.1680162,354.615985 32.487993,350.992021 33.896,346.72 L28.136,346.72 L28.136,344.656 Z M35.984,346.72 C35.7599989,347.488004 35.5200013,348.207997 35.264,348.88 L43.136,348.88 C43.2800007,348.271997 43.4079994,347.552004 43.52,346.72 L35.984,346.72 Z M34.472,350.848 C34.1199982,351.648004 33.7520019,352.399996 33.368,353.104 L44.72,353.104 C44.8640007,352.463997 44.9919994,351.712004 45.104,350.848 L34.472,350.848 Z M31.808,356.56 L33.872,356.944 C33.2479969,359.264012 32.3680057,361.263992 31.232,362.944 L29.36,361.72 C30.5280058,360.119992 31.3439977,358.400009 31.808,356.56 Z M36.68,356.752 C37.0960021,358.192007 37.3759993,360.127988 37.52,362.56 L35.264,362.848 C35.2159998,360.303987 35.0640013,358.336007 34.808,356.944 L36.68,356.752 Z M40.04,356.2 C40.6160029,357.592007 41.1199978,359.183991 41.552,360.976 L39.488,361.432 C39.1519983,359.815992 38.7120027,358.256008 38.168,356.752 L40.04,356.2 Z M43.424,355.816 C44.1120034,357.144007 44.6399982,358.359994 45.008,359.464 L43.136,360.136 C42.7839982,358.791993 42.3520026,357.480006 41.84,356.2 L43.424,355.816 Z M27.2,366.496 L48.776,366.496 L48.776,368.656 L37.904,368.656 L37.904,372.544 C40.6720138,374.128008 43.4799858,375.92799 46.328,377.944 L44.84,380.2 C42.0079858,378.007989 39.696009,376.344006 37.904,375.208 L37.904,387.136 L35.456,387.136 L35.456,368.656 L27.2,368.656 L27.2,366.496 Z M28.424,390.232 C30.1040084,391.096004 31.6319931,392.127994 33.008,393.328 L31.616,395.56 C30.1919929,394.087993 28.7200076,392.936004 27.2,392.104 L28.424,390.232 Z M32,400.36 L33.872,401.752 C32.3839926,404.504014 30.6960094,406.91199 28.808,408.976 L27.008,407.008 C28.608008,405.439992 30.2719914,403.224014 32,400.36 Z M36.968,389.368 L39.2,389.752 C38.9599988,390.872006 38.6800016,391.903995 38.36,392.848 L48.392,392.848 L48.392,395.008 C47.2879945,397.760014 46.0720066,400.007991 44.744,401.752 L42.968,400.36 C44.0240053,399.079994 44.9999955,397.296011 45.896,395.008 L37.472,395.008 C36.5599954,396.896009 35.4160069,398.391994 34.04,399.496 L32,398.104 C34.7040135,395.879989 36.359997,392.968018 36.968,389.368 Z M38.552,396.88 L40.808,396.88 L40.808,398.752 C41.4640033,401.296013 42.4559934,403.383992 43.784,405.016 C44.8720054,406.360007 46.6239879,407.743993 49.04,409.168 L47.552,411.136 C45.5679901,409.935994 44.0640051,408.768006 43.04,407.632 C41.7119934,406.223993 40.6560039,404.51201 39.872,402.496 C39.279997,404.640011 38.4640052,406.287994 37.424,407.44 C36.3679947,408.736006 34.744011,409.999994 32.552,411.232 L31.136,409.264 C33.9200139,407.663992 35.8399947,405.920009 36.896,404.032 C37.9520053,402.239991 38.5039998,400.480009 38.552,398.752 L38.552,396.88 Z M32,413.368 L34.136,413.656 C33.8479986,414.904006 33.4480026,416.063995 32.936,417.136 L36.392,417.136 L36.392,422.152 C37.0960035,420.983994 37.6399981,419.832006 38.024,418.696 C38.5040024,417.351993 38.8959985,415.552011 39.2,413.296 L41.552,413.656 C41.343999,414.952006 41.1280011,416.079995 40.904,417.04 L48.296,417.04 C48.296,425.472042 48.1680013,430.463992 47.912,432.016 C47.6719988,433.232006 47.2640029,434.031998 46.688,434.416 C46.0159966,434.896002 44.776009,435.136 42.968,435.136 C42.4399974,435.136 41.8400034,435.104 41.168,435.04 L40.808,432.688 C41.5120035,432.816001 42.2319963,432.88 42.968,432.88 C44.4880076,432.88 45.3359991,432.376005 45.512,431.368 C45.8160015,430.119994 45.9919998,426.064034 46.04,419.2 L40.328,419.2 C40.2639997,419.360001 40.2160002,419.495999 40.184,419.608 C39.6719974,421.336009 38.7840063,423.16799 37.52,425.104 L36.392,423.712 L36.392,433.528 L34.328,433.528 L34.328,432.4 L29.936,432.4 L29.936,434.2 L27.872,434.2 L27.872,417.136 L30.848,417.136 C31.3600026,415.967994 31.7439987,414.712007 32,413.368 Z M29.936,430.432 L34.328,430.432 L34.328,425.656 L29.936,425.656 L29.936,430.432 Z M29.936,423.784 L34.328,423.784 L34.328,419.104 L29.936,419.104 L29.936,423.784 Z M41.072,422.368 C42.4320068,424.592011 43.4959962,426.503992 44.264,428.104 L42.008,429.592 C41.3359966,427.847991 40.400006,425.848011 39.2,423.592 L41.072,422.368 Z M39.104,437.296 C39.4080015,437.744002 39.6959986,438.239997 39.968,438.784 L48.872,438.784 L48.872,440.656 L45.104,440.656 L45.104,441.784 L47.84,441.784 L47.84,443.368 L45.104,443.368 L45.104,445.912 L34.808,445.912 L34.808,443.368 L31.904,443.368 L31.904,441.784 L34.808,441.784 L34.808,440.656 L30.776,440.656 L30.776,446.104 C30.776,448.08801 30.6240015,450.167989 30.32,452.344 C29.9679982,454.616011 29.3680042,456.847989 28.52,459.04 L26.744,457.432 C27.5280039,455.639991 28.0639986,453.75201 28.352,451.768 C28.5920012,449.73599 28.712,447.848009 28.712,446.104 L28.712,438.784 L37.64,438.784 C37.3679986,438.351998 37.0800015,437.944002 36.776,437.56 L39.104,437.296 Z M36.968,440.656 L36.968,441.784 L42.968,441.784 L42.968,440.656 L36.968,440.656 Z M36.968,443.368 L36.968,444.496 L42.968,444.496 L42.968,443.368 L36.968,443.368 Z M31.04,446.752 L48.776,446.752 L48.776,448.36 L40.808,448.36 L40.808,449.296 L47.264,449.296 L47.264,456.04 L32.36,456.04 L32.36,449.296 L38.84,449.296 L38.84,448.36 L31.04,448.36 L31.04,446.752 Z M45.296,454.528 L45.296,453.232 L40.808,453.232 L40.808,454.528 L45.296,454.528 Z M38.84,454.528 L38.84,453.232 L34.328,453.232 L34.328,454.528 L38.84,454.528 Z M34.328,452.008 L38.84,452.008 L38.84,450.784 L34.328,450.784 L34.328,452.008 Z M40.808,450.784 L40.808,452.008 L45.296,452.008 L45.296,450.784 L40.808,450.784 Z M37.04,456.136 L38.264,457.528 C35.9919886,458.376004 33.7120114,458.999998 31.424,459.4 L30.488,457.432 C33.0000126,457.159999 35.1839907,456.728003 37.04,456.136 Z M41.936,456.136 C44.2560116,456.520002 46.3759904,456.983997 48.296,457.528 L47.168,459.328 C45.1359898,458.607996 43.0480107,458.040002 40.904,457.624 L41.936,456.136 Z M32,461.752 L34.232,462.232 C33.831998,463.080004 33.432002,463.855996 33.032,464.56 L36.776,464.56 L36.776,461.368 L39.2,461.368 L39.2,464.56 L47,464.56 L47,466.624 L39.2,466.624 L39.2,469.816 L48.68,469.816 L48.68,471.976 L39.2,471.976 L39.2,473.848 L36.776,473.848 L36.776,471.976 L27.2,471.976 L27.2,469.816 L36.776,469.816 L36.776,466.624 L31.76,466.624 C30.9759961,467.776006 30.1760041,468.743996 29.36,469.528 L27.776,467.56 C29.6320093,465.815991 31.0399952,463.880011 32,461.752 Z M46.424,474.496 L46.424,483.232 L44.168,483.232 L44.168,481.912 L31.904,481.912 L31.904,483.232 L29.648,483.232 L29.648,474.496 L46.424,474.496 Z M31.904,479.848 L44.168,479.848 L44.168,476.56 L31.904,476.56 L31.904,479.848 Z M32.36,485.2 L33.872,486.496 C32.4159927,488.43201 30.6000109,490.183992 28.424,491.752 L27.008,489.88 C28.9920099,488.615994 30.7759921,487.056009 32.36,485.2 Z M32.552,490.816 L34.136,492.232 C33.5919973,493.160005 33.0000032,494.047996 32.36,494.896 L32.36,507.328 L30.2,507.328 L30.2,497.488 C29.5759969,498.160003 28.9200034,498.807997 28.232,499.432 L26.744,497.464 C28.9040108,495.687991 30.8399914,493.472013 32.552,490.816 Z M35.84,486.496 L47.744,486.496 L47.744,488.656 L35.84,488.656 L35.84,486.496 Z M34.616,492.784 L48.968,492.784 L48.968,494.848 L45.488,494.848 L45.488,504.88 C45.488,505.696004 45.288002,506.271998 44.888,506.608 C44.5199982,506.960002 43.8480049,507.136 42.872,507.136 L38.84,507.136 L38.36,504.88 C39.9120078,505.008001 41.191995,505.072 42.2,505.072 C42.8240031,505.072 43.136,504.880002 43.136,504.496 L43.136,494.848 L34.616,494.848 L34.616,492.784 Z M32,509.368 L32.744,509.368 C34.1840072,510.648006 35.4639944,511.991993 36.584,513.4 L35,514.912 C33.8159941,513.327992 32.8400038,512.144004 32.072,511.36 C31.2879961,512.640006 30.4080049,513.887994 29.432,515.104 L35.36,515.104 L35.36,517.072 L32.744,517.072 L32.744,519.04 L36.008,519.04 L36.008,521.008 L32.744,521.008 L32.744,527.944 C33.8800057,527.655999 35.0319942,527.312002 36.2,526.912 L36.2,528.976 C33.6239871,529.840004 30.7520158,530.527997 27.584,531.04 L27.296,528.88 C28.4320057,528.8 29.5919941,528.640001 30.776,528.4 L30.776,521.008 L27.296,521.008 L27.296,519.04 L30.776,519.04 L30.776,517.072 L28.424,517.072 L28.424,516.304 C28.1839988,516.592001 27.9360013,516.879999 27.68,517.168 L26.936,514.816 C28.4240074,513.327993 29.7919938,511.512011 31.04,509.368 L32,509.368 Z M29,522.232 C29.4640023,523.432006 29.7759992,525.05599 29.936,527.104 L28.04,527.296 C27.9759997,525.183989 27.7600018,523.552006 27.392,522.4 L29,522.232 Z M34.328,522.136 L35.936,522.496 C35.7919993,523.856007 35.5360018,525.167994 35.168,526.432 L33.488,525.88 C33.9200022,524.711994 34.1999994,523.464007 34.328,522.136 Z M41.36,509.296 L43.52,509.296 L43.52,515.368 L48.104,515.368 L48.104,528.784 C48.104,529.536004 47.9120019,530.111998 47.528,530.512 C47.2079984,530.864002 46.744003,531.04 46.136,531.04 L42.776,531.04 L42.296,528.976 L45.296,529.072 C45.7440022,529.04 45.968,528.760003 45.968,528.232 L45.968,525.976 L39.008,525.976 L39.008,531.328 L36.872,531.328 L36.872,515.368 L41.36,515.368 L41.36,509.296 Z M39.008,524.2 L45.968,524.2 L45.968,521.56 L39.008,521.56 L39.008,524.2 Z M39.008,519.784 L45.968,519.784 L45.968,517.264 L39.008,517.264 L39.008,519.784 Z M37.712,510.136 C38.720005,511.416006 39.5919963,512.791993 40.328,514.264 L38.36,515.104 C37.5759961,513.487992 36.7040048,512.048006 35.744,510.784 L37.712,510.136 Z M47.072,509.848 L48.872,510.688 C48.1679965,512.432009 47.3520046,513.935994 46.424,515.2 L44.456,513.784 C45.4160048,512.647994 46.2879961,511.336007 47.072,509.848 Z M32,533.2 L33.968,534.04 C33.3279968,535.97601 32.6720034,537.623993 32,538.984 L32,555.136 L29.84,555.136 L29.84,542.512 C29.1839967,543.440005 28.4640039,544.367995 27.68,545.296 L26.936,542.656 C27.9760052,541.343993 28.8879961,540.000007 29.672,538.624 C30.472004,537.375994 31.2479962,535.568012 32,533.2 Z M37.712,533.2 L40.04,533.656 C39.6559981,534.728005 39.2720019,535.727995 38.888,536.656 L48.776,536.656 L48.776,538.816 L40.424,538.816 L40.424,542.104 L48.2,542.104 L48.2,544.264 L40.424,544.264 L40.424,547.912 L48.2,547.912 L48.2,550.072 L40.424,550.072 L40.424,555.136 L38.168,555.136 L38.168,538.816 L37.928,538.816 C36.919995,540.928011 35.8800054,542.679993 34.808,544.072 L33.104,542.104 C35.1360102,539.431987 36.6719948,536.464016 37.712,533.2 Z M31.52,557.296 C31.728001,558.064004 31.9199991,558.935995 32.096,559.912 L35.168,559.912 L35.168,561.88 L26.84,561.88 L26.84,559.912 L29.912,559.912 C29.719999,559.079996 29.5040012,558.296004 29.264,557.56 L31.52,557.296 Z M27.584,563.368 L34.328,563.368 L34.328,565.264 L27.584,565.264 L27.584,563.368 Z M27.584,566.752 L34.424,566.752 L34.424,568.624 L27.584,568.624 L27.584,566.752 Z M34.232,570.328 L34.232,577.168 L29.744,577.168 L29.744,578.752 L27.584,578.752 L27.584,570.328 L34.232,570.328 Z M29.744,575.2 L32.072,575.2 L32.072,572.296 L29.744,572.296 L29.744,575.2 Z M36.68,557.944 L48.584,557.944 L48.584,576.88 C48.584,577.680004 48.3760021,578.279998 47.96,578.68 C47.5919982,579.048002 46.9840042,579.232 46.136,579.232 L43.808,579.232 L43.328,577.072 L45.68,577.168 C46.2240027,577.152 46.5039999,576.840003 46.52,576.232 L46.52,559.816 L37.712,559.816 L37.712,568.264 C37.712,569.928008 37.616001,571.679991 37.424,573.52 C37.1999989,575.408009 36.8240026,577.279991 36.296,579.136 L34.52,577.528 C34.9680022,576.055993 35.2799991,574.512008 35.456,572.896 C35.5840006,571.215992 35.648,569.672007 35.648,568.264 L35.648,557.944 L36.68,557.944 Z M38.456,561.976 L41.072,561.976 L41.072,560.464 L43.04,560.464 L43.04,561.976 L45.68,561.976 L45.68,563.752 L43.04,563.752 L43.04,565.528 L45.872,565.528 L45.872,567.328 L43.04,567.328 L43.04,568.912 L41.072,568.912 L41.072,567.328 L38.264,567.328 L38.264,565.528 L41.072,565.528 L41.072,563.752 L38.456,563.752 L38.456,561.976 Z M38.84,569.464 L45.104,569.464 L45.104,576.232 L38.84,576.232 L38.84,569.464 Z M43.328,574.36 L43.328,571.36 L40.616,571.36 L40.616,574.36 L43.328,574.36 Z M26.936,582.496 L31.904,582.496 L31.904,581.296 L33.776,581.296 L33.776,582.496 L38.648,582.496 L38.648,584.104 L33.776,584.104 L33.776,585.232 L38,585.232 L38,587.032 C38.9120046,586.247996 39.6799969,585.432004 40.304,584.584 C40.8480027,583.863996 41.3599976,582.792007 41.84,581.368 L43.904,581.56 C43.6479987,582.392004 43.3600016,583.143997 43.04,583.816 L49.04,583.816 L49.04,585.592 L47.84,585.592 C47.3599976,587.000007 46.7760034,588.207995 46.088,589.216 C45.8159986,589.616002 45.5280015,589.983998 45.224,590.32 C46.2640052,591.024004 47.5679922,591.639997 49.136,592.168 L48.008,593.848 C46.2639913,593.159997 44.8800051,592.432004 43.856,591.664 C43.8239998,591.696 43.7840002,591.728 43.736,591.76 C42.5679942,592.576004 41.1520083,593.271997 39.488,593.848 L38.456,592.072 C40.1680086,591.591998 41.4799954,591.040003 42.392,590.416 C42.4240002,590.4 42.44,590.384 42.44,590.368 C41.639996,589.535996 40.9520029,588.608005 40.376,587.584 C39.9279978,588.032002 39.4480026,588.463998 38.936,588.88 L38,587.68 L38,589.72 L33.824,589.72 C35.232007,590.392003 36.6479929,591.143996 38.072,591.976 L37.136,593.464 C35.7759932,592.583996 34.6560044,591.904002 33.776,591.424 L33.776,593.944 L31.904,593.944 L31.904,591.448 C30.7999945,592.344004 29.544007,593.111997 28.136,593.752 L27.104,592.168 C29.0240096,591.463996 30.5599942,590.648005 31.712,589.72 L27.68,589.72 L27.68,585.232 L31.904,585.232 L31.904,584.104 L26.936,584.104 L26.936,582.496 Z M41.648,586.12 C42.256003,587.320006 42.9839958,588.327996 43.832,589.144 C44.1360015,588.807998 44.4239986,588.440002 44.696,588.04 C45.1440022,587.367997 45.5279984,586.552005 45.848,585.592 L42.008,585.592 L41.984,585.64 C41.8719994,585.816001 41.7600006,585.975999 41.648,586.12 Z M36.2,588.232 L36.2,586.72 L33.776,586.72 L33.776,588.232 L36.2,588.232 Z M31.904,588.232 L31.904,586.72 L29.456,586.72 L29.456,588.232 L31.904,588.232 Z M28.328,594.592 L48.2,594.592 L48.2,596.464 L39.296,596.464 L39.296,597.784 L47.36,597.784 L47.36,599.56 L39.296,599.56 L39.296,600.976 L49.04,600.976 L49.04,602.848 L26.936,602.848 L26.936,600.976 L31.232,600.976 L31.232,597.4 L33.392,597.4 L33.392,600.976 L37.136,600.976 L37.136,596.464 L28.328,596.464 L28.328,594.592 Z M33.296,605.464 L34.136,607.624 C33.3039958,608.040002 31.9680092,608.487998 30.128,608.968 L30.176,610.816 L33.68,610.816 L33.68,612.784 L30.248,612.784 L30.344,615.592 L33.488,615.592 L33.488,617.464 L30.392,617.464 L30.464,620.104 L34.208,620.104 L35.072,613.912 L37.232,613.912 L36.368,620.104 L38.456,620.104 L39.104,612.688 L36.464,612.688 L36.392,613.264 L34.328,613.264 L35.36,605.2 L37.424,605.2 L37.208,606.88 L41.072,606.88 L41.072,608.752 L36.968,608.752 L36.704,610.816 L41.36,610.816 L40.616,620.104 L45.512,620.104 L45.584,617.56 L42.2,617.56 L42.2,615.592 L45.632,615.592 L45.728,612.784 L42.2,612.784 L42.2,610.816 L45.8,610.816 L45.872,608.368 L42.2,608.368 L42.2,606.4 L48.008,606.4 L47.576,620.104 L48.968,620.104 L48.968,622.168 L26.84,622.168 L26.84,620.104 L28.4,620.104 L28.04,607.168 C29.6880082,606.959999 31.4399907,606.392005 33.296,605.464 Z M34.136,622.528 L35.744,623.944 C33.8239904,625.192006 31.4160145,626.319995 28.52,627.328 L27.008,625.36 C29.6640133,624.591996 32.0399895,623.648006 34.136,622.528 Z M41.552,622.432 C44.144013,623.248004 46.5199892,624.223994 48.68,625.36 L47.264,627.496 C45.0239888,626.103993 42.7120119,625.016004 40.328,624.232 L41.552,622.432 Z M29.456,629.752 C30.9920077,630.296003 32.3999936,630.951996 33.68,631.72 L32.36,633.688 C31.0639935,632.743995 29.720007,631.992003 28.328,631.432 L29.456,629.752 Z M27.968,634.072 C29.360007,634.584003 30.6399942,635.207996 31.808,635.944 L30.488,638.008 C29.3039941,637.095995 28.0880062,636.376003 26.84,635.848 L27.968,634.072 Z M31.424,637.816 L32.84,639.496 C31.8639951,641.368009 30.6400074,643.119992 29.168,644.752 L27.584,642.88 C29.0560074,641.359992 30.3359946,639.672009 31.424,637.816 Z M36.488,629.368 L38.648,629.848 C38.3279984,630.552004 38.0080016,631.207997 37.688,631.816 L40.88,631.816 C40.5439983,631.079996 40.176002,630.392003 39.776,629.752 L42.104,629.464 C42.4720018,630.168004 42.8239983,630.951996 43.16,631.816 L48.392,631.816 L48.392,633.688 L43.136,633.688 L43.136,635.104 L47.744,635.104 L47.744,636.88 L43.136,636.88 L43.136,638.296 L47.744,638.296 L47.744,640.072 L43.136,640.072 L43.136,641.56 L48.776,641.56 L48.776,643.528 L39.008,643.528 L39.008,645.136 L49.04,645.136 L49.04,647.2 L39.008,647.2 L39.008,651.328 L36.776,651.328 L36.776,647.2 L26.84,647.2 L26.84,645.136 L36.776,645.136 L36.776,643.528 L34.232,643.528 L34.232,637.192 C33.9439986,637.512002 33.6640014,637.815999 33.392,638.104 L31.904,636.232 C33.9360102,634.16799 35.4639949,631.880013 36.488,629.368 Z M41,641.56 L41,640.072 L36.488,640.072 L36.488,641.56 L41,641.56 Z M41,638.296 L41,636.88 L36.488,636.88 L36.488,638.296 L41,638.296 Z M41,635.104 L41,633.688 L36.68,633.688 C36.6159997,633.800001 36.5520003,633.904 36.488,634 L36.488,635.104 L41,635.104 Z M31.52,653.368 L33.488,654.232 C32.895997,656.18401 32.2720033,657.839993 31.616,659.2 L31.616,675.136 L29.456,675.136 L29.456,662.824 C28.9119973,663.608004 28.3200032,664.399996 27.68,665.2 L26.936,662.56 C27.8640046,661.295994 28.6879964,659.992007 29.408,658.648 C30.1440037,657.431994 30.8479966,655.672012 31.52,653.368 Z M33.584,655.264 L36.68,655.264 L36.68,653.296 L38.744,653.296 L38.744,655.264 L42.68,655.264 L42.68,653.296 L44.744,653.296 L44.744,655.264 L48.392,655.264 L48.392,657.136 L44.744,657.136 L44.744,659.296 L48.968,659.296 L48.968,661.264 L36.008,661.264 L36.008,662.464 C36.008,665.152013 35.8400017,667.375991 35.504,669.136 C35.1679983,670.880009 34.5280047,672.655991 33.584,674.464 L31.808,672.88 C32.5760038,671.503993 33.1199984,670.008008 33.44,668.392 C33.7280014,667.095994 33.872,665.120013 33.872,662.464 L33.872,661.264 L32.36,661.264 L32.36,659.296 L36.68,659.296 L36.68,657.136 L33.584,657.136 L33.584,655.264 Z M42.68,659.296 L42.68,657.136 L38.744,657.136 L38.744,659.296 L42.68,659.296 Z M47.84,662.464 L47.84,673.168 C47.84,673.888004 47.640002,674.439998 47.24,674.824 C46.9199984,675.160002 46.464003,675.328 45.872,675.328 L44.36,675.328 L43.904,673.36 L45.104,673.432 C45.5520022,673.4 45.776,673.120003 45.776,672.592 L45.776,671.368 L43.232,671.368 L43.232,675.136 L41.264,675.136 L41.264,671.368 L38.744,671.368 L38.744,675.136 L36.68,675.136 L36.68,662.464 L47.84,662.464 Z M38.744,669.688 L41.264,669.688 L41.264,667.816 L38.744,667.816 L38.744,669.688 Z M43.232,667.816 L43.232,669.688 L45.776,669.688 L45.776,667.816 L43.232,667.816 Z M38.744,666.136 L41.264,666.136 L41.264,664.36 L38.744,664.36 L38.744,666.136 Z M43.232,664.36 L43.232,666.136 L45.776,666.136 L45.776,664.36 L43.232,664.36 Z" id="為" fill="#1C5682" sketch:type="MSShapeGroup"></path>
    </g>
</svg>