<?xml version="1.0" encoding="UTF-8" standalone="no"?>
<svg width="1040px" height="100px" viewBox="0 0 1040 100" version="1.1" xmlns="http://www.w3.org/2000/svg" xmlns:xlink="http://www.w3.org/1999/xlink" xmlns:sketch="http://www.bohemiancoding.com/sketch/ns">
    <title>Untitled</title>
    <description>Created with Sketch (http://www.bohemiancoding.com/sketch)</description>
    <defs></defs>
    <g id="Page-1" stroke="none" stroke-width="1" fill="none" fill-rule="evenodd" sketch:type="MSPage">
        <path d="M872.382812,9.6484375 L872.382812,75.0953561 L147.260861,75.0953561 L147.260861,19.8576381" id="Path-1" stroke="#3775A4" stroke-width="10" stroke-linecap="round" sketch:type="MSShapeGroup"></path>
        <path d="M150.575599,7.15119839 L164.763962,35.5279241 C165.998892,37.9977834 164.763716,40 161.994678,40 L132.005322,40 C129.240959,40 128.005509,37.9889812 129.236038,35.5279241 L143.424401,7.15119839 C145.39915,3.20170058 148.602876,3.20575178 150.575599,7.15119839 Z" id="Triangle-1" fill="#3775A4" sketch:type="MSShapeGroup"></path>
        <path d="M343.136,30.656 L345.728,30.656 C345.439999,29.7919957 345.112002,28.9840038 344.744,28.232 L346.904,27.944 C347.224002,28.7600041 347.527999,29.663995 347.816,30.656 L349.496,30.656 C349.784001,29.5839946 350.007999,28.4880056 350.168,27.368 L352.232,27.656 C352.023999,28.6960052 351.800001,29.6959952 351.56,30.656 L360.968,30.656 C360.791999,32.3200083 360.576001,33.7279942 360.32,34.88 L362.552,34.88 C362.375999,36.5280082 362.168001,37.9359942 361.928,39.104 L363.776,39.104 C363.712,44.4800269 363.240004,47.5519962 362.36,48.32 C361.879998,48.9920034 360.256014,49.328 357.488,49.328 L357.008,46.976 C357.728004,47.1040006 358.327998,47.168 358.808,47.168 C359.704004,47.168 360.399998,46.9600021 360.896,46.544 C361.312002,46.143998 361.583999,44.2880166 361.712,40.976 L347.24,40.976 C346.199995,42.5280078 345.056006,43.8399946 343.808,44.912 L341.936,43.592 C345.168016,40.6159851 347.487993,36.9920214 348.896,32.72 L343.136,32.72 L343.136,30.656 Z M350.984,32.72 C350.759999,33.4880038 350.520001,34.2079966 350.264,34.88 L358.136,34.88 C358.280001,34.271997 358.407999,33.5520042 358.52,32.72 L350.984,32.72 Z M349.472,36.848 C349.119998,37.648004 348.752002,38.3999965 348.368,39.104 L359.72,39.104 C359.864001,38.4639968 359.991999,37.7120043 360.104,36.848 L349.472,36.848 Z M346.808,42.56 L348.872,42.944 C348.247997,45.2640116 347.368006,47.2639916 346.232,48.944 L344.36,47.72 C345.528006,46.119992 346.343998,44.4000092 346.808,42.56 Z M351.68,42.752 C352.096002,44.1920072 352.375999,46.1279878 352.52,48.56 L350.264,48.848 C350.216,46.3039873 350.064001,44.336007 349.808,42.944 L351.68,42.752 Z M355.04,42.2 C355.616003,43.592007 356.119998,45.183991 356.552,46.976 L354.488,47.432 C354.151998,45.8159919 353.712003,44.2560075 353.168,42.752 L355.04,42.2 Z M358.424,41.816 C359.112003,43.1440066 359.639998,44.3599945 360.008,45.464 L358.136,46.136 C357.783998,44.7919933 357.352003,43.4800064 356.84,42.2 L358.424,41.816 Z M366.2,28.496 L387.776,28.496 L387.776,30.656 L376.904,30.656 L376.904,34.544 C379.672014,36.1280079 382.479986,37.9279899 385.328,39.944 L383.84,42.2 C381.007986,40.007989 378.696009,38.3440057 376.904,37.208 L376.904,49.136 L374.456,49.136 L374.456,30.656 L366.2,30.656 L366.2,28.496 Z M391.424,28.232 C393.104008,29.0960043 394.631993,30.127994 396.008,31.328 L394.616,33.56 C393.191993,32.0879926 391.720008,30.9360042 390.2,30.104 L391.424,28.232 Z M395,38.36 L396.872,39.752 C395.383993,42.5040138 393.696009,44.9119897 391.808,46.976 L390.008,45.008 C391.608008,43.4399922 393.271991,41.2240143 395,38.36 Z M399.968,27.368 L402.2,27.752 C401.959999,28.8720056 401.680002,29.9039953 401.36,30.848 L411.392,30.848 L411.392,33.008 C410.287994,35.7600138 409.072007,38.0079913 407.744,39.752 L405.968,38.36 C407.024005,37.0799936 407.999996,35.2960114 408.896,33.008 L400.472,33.008 C399.559995,34.8960094 398.416007,36.3919945 397.04,37.496 L395,36.104 C397.704014,33.8799889 399.359997,30.968018 399.968,27.368 Z M401.552,34.88 L403.808,34.88 L403.808,36.752 C404.464003,39.2960127 405.455993,41.3839918 406.784,43.016 C407.872005,44.3600067 409.623988,45.7439929 412.04,47.168 L410.552,49.136 C408.56799,47.935994 407.064005,46.7680057 406.04,45.632 C404.711993,44.223993 403.656004,42.5120101 402.872,40.496 C402.279997,42.6400107 401.464005,44.2879942 400.424,45.44 C399.367995,46.7360065 397.744011,47.9999938 395.552,49.232 L394.136,47.264 C396.920014,45.663992 398.839995,43.9200094 399.896,42.032 C400.952005,40.239991 401.504,38.4800086 401.552,36.752 L401.552,34.88 Z M419,27.368 L421.136,27.656 C420.847999,28.9040062 420.448003,30.0639946 419.936,31.136 L423.392,31.136 L423.392,36.152 C424.096004,34.9839942 424.639998,33.8320057 425.024,32.696 C425.504002,31.3519933 425.895998,29.5520113 426.2,27.296 L428.552,27.656 C428.343999,28.9520065 428.128001,30.0799952 427.904,31.04 L435.296,31.04 C435.296,39.4720422 435.168001,44.4639922 434.912,46.016 C434.671999,47.2320061 434.264003,48.0319981 433.688,48.416 C433.015997,48.8960024 431.776009,49.136 429.968,49.136 C429.439997,49.136 428.840003,49.1040003 428.168,49.04 L427.808,46.688 C428.512004,46.8160006 429.231996,46.88 429.968,46.88 C431.488008,46.88 432.335999,46.376005 432.512,45.368 C432.816002,44.1199938 432.992,40.0640343 433.04,33.2 L427.328,33.2 C427.264,33.3600008 427.216,33.4959994 427.184,33.608 C426.671997,35.3360086 425.784006,37.1679903 424.52,39.104 L423.392,37.712 L423.392,47.528 L421.328,47.528 L421.328,46.4 L416.936,46.4 L416.936,48.2 L414.872,48.2 L414.872,31.136 L417.848,31.136 C418.360003,29.9679942 418.743999,28.7120067 419,27.368 Z M416.936,44.432 L421.328,44.432 L421.328,39.656 L416.936,39.656 L416.936,44.432 Z M416.936,37.784 L421.328,37.784 L421.328,33.104 L416.936,33.104 L416.936,37.784 Z M428.072,36.368 C429.432007,38.5920111 430.495996,40.503992 431.264,42.104 L429.008,43.592 C428.335997,41.8479913 427.400006,39.8480113 426.2,37.592 L428.072,36.368 Z M450.104,27.296 C450.408002,27.7440022 450.695999,28.2399973 450.968,28.784 L459.872,28.784 L459.872,30.656 L456.104,30.656 L456.104,31.784 L458.84,31.784 L458.84,33.368 L456.104,33.368 L456.104,35.912 L445.808,35.912 L445.808,33.368 L442.904,33.368 L442.904,31.784 L445.808,31.784 L445.808,30.656 L441.776,30.656 L441.776,36.104 C441.776,38.0880099 441.624002,40.1679891 441.32,42.344 C440.967998,44.6160114 440.368004,46.847989 439.52,49.04 L437.744,47.432 C438.528004,45.639991 439.063999,43.7520099 439.352,41.768 C439.592001,39.7359898 439.712,37.8480087 439.712,36.104 L439.712,28.784 L448.64,28.784 C448.367999,28.3519978 448.080002,27.9440019 447.776,27.56 L450.104,27.296 Z M447.968,30.656 L447.968,31.784 L453.968,31.784 L453.968,30.656 L447.968,30.656 Z M447.968,33.368 L447.968,34.496 L453.968,34.496 L453.968,33.368 L447.968,33.368 Z M442.04,36.752 L459.776,36.752 L459.776,38.36 L451.808,38.36 L451.808,39.296 L458.264,39.296 L458.264,46.04 L443.36,46.04 L443.36,39.296 L449.84,39.296 L449.84,38.36 L442.04,38.36 L442.04,36.752 Z M456.296,44.528 L456.296,43.232 L451.808,43.232 L451.808,44.528 L456.296,44.528 Z M449.84,44.528 L449.84,43.232 L445.328,43.232 L445.328,44.528 L449.84,44.528 Z M445.328,42.008 L449.84,42.008 L449.84,40.784 L445.328,40.784 L445.328,42.008 Z M451.808,40.784 L451.808,42.008 L456.296,42.008 L456.296,40.784 L451.808,40.784 Z M448.04,46.136 L449.264,47.528 C446.991989,48.3760042 444.712011,48.999998 442.424,49.4 L441.488,47.432 C444.000013,47.1599986 446.183991,46.728003 448.04,46.136 Z M452.936,46.136 C455.256012,46.5200019 457.37599,46.9839973 459.296,47.528 L458.168,49.328 C456.13599,48.6079964 454.048011,48.0400021 451.904,47.624 L452.936,46.136 Z M467,27.752 L469.232,28.232 C468.831998,29.0800042 468.432002,29.8559965 468.032,30.56 L471.776,30.56 L471.776,27.368 L474.2,27.368 L474.2,30.56 L482,30.56 L482,32.624 L474.2,32.624 L474.2,35.816 L483.68,35.816 L483.68,37.976 L474.2,37.976 L474.2,39.848 L471.776,39.848 L471.776,37.976 L462.2,37.976 L462.2,35.816 L471.776,35.816 L471.776,32.624 L466.76,32.624 C465.975996,33.7760058 465.176004,34.7439961 464.36,35.528 L462.776,33.56 C464.632009,31.8159913 466.039995,29.8800106 467,27.752 Z M481.424,40.496 L481.424,49.232 L479.168,49.232 L479.168,47.912 L466.904,47.912 L466.904,49.232 L464.648,49.232 L464.648,40.496 L481.424,40.496 Z M466.904,45.848 L479.168,45.848 L479.168,42.56 L466.904,42.56 L466.904,45.848 Z M491.36,27.2 L492.872,28.496 C491.415993,30.4320097 489.600011,32.1839922 487.424,33.752 L486.008,31.88 C487.99201,30.6159937 489.775992,29.0560093 491.36,27.2 Z M491.552,32.816 L493.136,34.232 C492.591997,35.1600046 492.000003,36.0479958 491.36,36.896 L491.36,49.328 L489.2,49.328 L489.2,39.488 C488.575997,40.1600034 487.920003,40.8079969 487.232,41.432 L485.744,39.464 C487.904011,37.6879911 489.839991,35.4720133 491.552,32.816 Z M494.84,28.496 L506.744,28.496 L506.744,30.656 L494.84,30.656 L494.84,28.496 Z M493.616,34.784 L507.968,34.784 L507.968,36.848 L504.488,36.848 L504.488,46.88 C504.488,47.6960041 504.288002,48.2719983 503.888,48.608 C503.519998,48.9600018 502.848005,49.136 501.872,49.136 L497.84,49.136 L497.36,46.88 C498.912008,47.0080006 500.191995,47.072 501.2,47.072 C501.824003,47.072 502.136,46.8800019 502.136,46.496 L502.136,36.848 L493.616,36.848 L493.616,34.784 Z M515,27.368 L515.744,27.368 C517.184007,28.6480064 518.463994,29.991993 519.584,31.4 L518,32.912 C516.815994,31.3279921 515.840004,30.1440039 515.072,29.36 C514.287996,30.6400064 513.408005,31.8879939 512.432,33.104 L518.36,33.104 L518.36,35.072 L515.744,35.072 L515.744,37.04 L519.008,37.04 L519.008,39.008 L515.744,39.008 L515.744,45.944 C516.880006,45.6559986 518.031994,45.312002 519.2,44.912 L519.2,46.976 C516.623987,47.8400043 513.752016,48.5279974 510.584,49.04 L510.296,46.88 C511.432006,46.7999996 512.591994,46.6400012 513.776,46.4 L513.776,39.008 L510.296,39.008 L510.296,37.04 L513.776,37.04 L513.776,35.072 L511.424,35.072 L511.424,34.304 C511.183999,34.5920014 510.936001,34.8799986 510.68,35.168 L509.936,32.816 C511.424007,31.3279926 512.791994,29.5120107 514.04,27.368 L515,27.368 Z M512,40.232 C512.464002,41.432006 512.775999,43.0559898 512.936,45.104 L511.04,45.296 C510.976,43.1839894 510.760002,41.5520058 510.392,40.4 L512,40.232 Z M517.328,40.136 L518.936,40.496 C518.791999,41.8560068 518.536002,43.1679937 518.168,44.432 L516.488,43.88 C516.920002,42.7119942 517.199999,41.4640066 517.328,40.136 Z M524.36,27.296 L526.52,27.296 L526.52,33.368 L531.104,33.368 L531.104,46.784 C531.104,47.5360038 530.912002,48.111998 530.528,48.512 C530.207998,48.8640018 529.744003,49.04 529.136,49.04 L525.776,49.04 L525.296,46.976 L528.296,47.072 C528.744002,47.0399998 528.968,46.7600026 528.968,46.232 L528.968,43.976 L522.008,43.976 L522.008,49.328 L519.872,49.328 L519.872,33.368 L524.36,33.368 L524.36,27.296 Z M522.008,42.2 L528.968,42.2 L528.968,39.56 L522.008,39.56 L522.008,42.2 Z M522.008,37.784 L528.968,37.784 L528.968,35.264 L522.008,35.264 L522.008,37.784 Z M520.712,28.136 C521.720005,29.4160064 522.591996,30.7919926 523.328,32.264 L521.36,33.104 C520.575996,31.4879919 519.704005,30.0480063 518.744,28.784 L520.712,28.136 Z M530.072,27.848 L531.872,28.688 C531.167996,30.4320087 530.352005,31.9359937 529.424,33.2 L527.456,31.784 C528.416005,30.6479943 529.287996,29.3360074 530.072,27.848 Z M539,27.2 L540.968,28.04 C540.327997,29.9760097 539.672003,31.6239932 539,32.984 L539,49.136 L536.84,49.136 L536.84,36.512 C536.183997,37.4400046 535.464004,38.3679954 534.68,39.296 L533.936,36.656 C534.976005,35.3439934 535.887996,34.0000069 536.672,32.624 C537.472004,31.3759938 538.247996,29.5680118 539,27.2 Z M544.712,27.2 L547.04,27.656 C546.655998,28.7280054 546.272002,29.7279954 545.888,30.656 L555.776,30.656 L555.776,32.816 L547.424,32.816 L547.424,36.104 L555.2,36.104 L555.2,38.264 L547.424,38.264 L547.424,41.912 L555.2,41.912 L555.2,44.072 L547.424,44.072 L547.424,49.136 L545.168,49.136 L545.168,32.816 L544.928,32.816 C543.919995,34.9280106 542.880005,36.679993 541.808,38.072 L540.104,36.104 C542.13601,33.4319866 543.671995,30.4640163 544.712,27.2 Z M562.52,27.296 C562.728001,28.0640038 562.919999,28.9359951 563.096,29.912 L566.168,29.912 L566.168,31.88 L557.84,31.88 L557.84,29.912 L560.912,29.912 C560.719999,29.0799958 560.504001,28.2960037 560.264,27.56 L562.52,27.296 Z M558.584,33.368 L565.328,33.368 L565.328,35.264 L558.584,35.264 L558.584,33.368 Z M558.584,36.752 L565.424,36.752 L565.424,38.624 L558.584,38.624 L558.584,36.752 Z M565.232,40.328 L565.232,47.168 L560.744,47.168 L560.744,48.752 L558.584,48.752 L558.584,40.328 L565.232,40.328 Z M560.744,45.2 L563.072,45.2 L563.072,42.296 L560.744,42.296 L560.744,45.2 Z M567.68,27.944 L579.584,27.944 L579.584,46.88 C579.584,47.680004 579.376002,48.279998 578.96,48.68 C578.591998,49.0480018 577.984004,49.232 577.136,49.232 L574.808,49.232 L574.328,47.072 L576.68,47.168 C577.224003,47.1519999 577.504,46.840003 577.52,46.232 L577.52,29.816 L568.712,29.816 L568.712,38.264 C568.712,39.9280083 568.616001,41.6799908 568.424,43.52 C568.199999,45.4080094 567.824003,47.2799907 567.296,49.136 L565.52,47.528 C565.968002,46.0559926 566.279999,44.5120081 566.456,42.896 C566.584001,41.2159916 566.648,39.672007 566.648,38.264 L566.648,27.944 L567.68,27.944 Z M569.456,31.976 L572.072,31.976 L572.072,30.464 L574.04,30.464 L574.04,31.976 L576.68,31.976 L576.68,33.752 L574.04,33.752 L574.04,35.528 L576.872,35.528 L576.872,37.328 L574.04,37.328 L574.04,38.912 L572.072,38.912 L572.072,37.328 L569.264,37.328 L569.264,35.528 L572.072,35.528 L572.072,33.752 L569.456,33.752 L569.456,31.976 Z M569.84,39.464 L576.104,39.464 L576.104,46.232 L569.84,46.232 L569.84,39.464 Z M574.328,44.36 L574.328,41.36 L571.616,41.36 L571.616,44.36 L574.328,44.36 Z M581.936,28.496 L586.904,28.496 L586.904,27.296 L588.776,27.296 L588.776,28.496 L593.648,28.496 L593.648,30.104 L588.776,30.104 L588.776,31.232 L593,31.232 L593,33.032 C593.912005,32.2479961 594.679997,31.4320042 595.304,30.584 C595.848003,29.8639964 596.359998,28.7920071 596.84,27.368 L598.904,27.56 C598.647999,28.3920042 598.360002,29.1439966 598.04,29.816 L604.04,29.816 L604.04,31.592 L602.84,31.592 C602.359998,33.000007 601.776003,34.207995 601.088,35.216 C600.815999,35.616002 600.528002,35.9839983 600.224,36.32 C601.264005,37.0240035 602.567992,37.6399974 604.136,38.168 L603.008,39.848 C601.263991,39.1599966 599.880005,38.4320038 598.856,37.664 C598.824,37.6960002 598.784,37.7279998 598.736,37.76 C597.567994,38.5760041 596.152008,39.2719971 594.488,39.848 L593.456,38.072 C595.168009,37.5919976 596.479995,37.0400031 597.392,36.416 C597.424,36.3999999 597.44,36.3840001 597.44,36.368 C596.639996,35.5359958 595.952003,34.6080051 595.376,33.584 C594.927998,34.0320022 594.448003,34.4639979 593.936,34.88 L593,33.68 L593,35.72 L588.824,35.72 C590.232007,36.3920034 591.647993,37.1439958 593.072,37.976 L592.136,39.464 C590.775993,38.5839956 589.656004,37.9040024 588.776,37.424 L588.776,39.944 L586.904,39.944 L586.904,37.448 C585.799994,38.3440045 584.544007,39.1119968 583.136,39.752 L582.104,38.168 C584.02401,37.4639965 585.559994,36.6480046 586.712,35.72 L582.68,35.72 L582.68,31.232 L586.904,31.232 L586.904,30.104 L581.936,30.104 L581.936,28.496 Z M596.648,32.12 C597.256003,33.320006 597.983996,34.3279959 598.832,35.144 C599.136002,34.8079983 599.423999,34.440002 599.696,34.04 C600.144002,33.3679966 600.527998,32.5520048 600.848,31.592 L597.008,31.592 L596.984,31.64 C596.871999,31.8160009 596.760001,31.9759993 596.648,32.12 Z M591.2,34.232 L591.2,32.72 L588.776,32.72 L588.776,34.232 L591.2,34.232 Z M586.904,34.232 L586.904,32.72 L584.456,32.72 L584.456,34.232 L586.904,34.232 Z M583.328,40.592 L603.2,40.592 L603.2,42.464 L594.296,42.464 L594.296,43.784 L602.36,43.784 L602.36,45.56 L594.296,45.56 L594.296,46.976 L604.04,46.976 L604.04,48.848 L581.936,48.848 L581.936,46.976 L586.232,46.976 L586.232,43.4 L588.392,43.4 L588.392,46.976 L592.136,46.976 L592.136,42.464 L583.328,42.464 L583.328,40.592 Z M612.296,27.464 L613.136,29.624 C612.303996,30.0400021 610.968009,30.4879976 609.128,30.968 L609.176,32.816 L612.68,32.816 L612.68,34.784 L609.248,34.784 L609.344,37.592 L612.488,37.592 L612.488,39.464 L609.392,39.464 L609.464,42.104 L613.208,42.104 L614.072,35.912 L616.232,35.912 L615.368,42.104 L617.456,42.104 L618.104,34.688 L615.464,34.688 L615.392,35.264 L613.328,35.264 L614.36,27.2 L616.424,27.2 L616.208,28.88 L620.072,28.88 L620.072,30.752 L615.968,30.752 L615.704,32.816 L620.36,32.816 L619.616,42.104 L624.512,42.104 L624.584,39.56 L621.2,39.56 L621.2,37.592 L624.632,37.592 L624.728,34.784 L621.2,34.784 L621.2,32.816 L624.8,32.816 L624.872,30.368 L621.2,30.368 L621.2,28.4 L627.008,28.4 L626.576,42.104 L627.968,42.104 L627.968,44.168 L605.84,44.168 L605.84,42.104 L607.4,42.104 L607.04,29.168 C608.688008,28.959999 610.439991,28.3920046 612.296,27.464 Z M613.136,44.528 L614.744,45.944 C612.82399,47.1920062 610.416014,48.319995 607.52,49.328 L606.008,47.36 C608.664013,46.5919962 611.03999,45.6480056 613.136,44.528 Z M620.552,44.432 C623.144013,45.2480041 625.519989,46.2239943 627.68,47.36 L626.264,49.496 C624.023989,48.103993 621.712012,47.0160039 619.328,46.232 L620.552,44.432 Z M632.456,27.752 C633.992008,28.2960027 635.399994,28.9519962 636.68,29.72 L635.36,31.688 C634.063994,30.7439953 632.720007,29.9920028 631.328,29.432 L632.456,27.752 Z M630.968,32.072 C632.360007,32.5840026 633.639994,33.2079963 634.808,33.944 L633.488,36.008 C632.303994,35.0959954 631.088006,34.3760026 629.84,33.848 L630.968,32.072 Z M634.424,35.816 L635.84,37.496 C634.863995,39.3680094 633.640007,41.1199918 632.168,42.752 L630.584,40.88 C632.056007,39.3599924 633.335995,37.6720093 634.424,35.816 Z M639.488,27.368 L641.648,27.848 C641.327998,28.5520035 641.008002,29.207997 640.688,29.816 L643.88,29.816 C643.543998,29.0799963 643.176002,28.3920032 642.776,27.752 L645.104,27.464 C645.472002,28.1680035 645.823998,28.9519957 646.16,29.816 L651.392,29.816 L651.392,31.688 L646.136,31.688 L646.136,33.104 L650.744,33.104 L650.744,34.88 L646.136,34.88 L646.136,36.296 L650.744,36.296 L650.744,38.072 L646.136,38.072 L646.136,39.56 L651.776,39.56 L651.776,41.528 L642.008,41.528 L642.008,43.136 L652.04,43.136 L652.04,45.2 L642.008,45.2 L642.008,49.328 L639.776,49.328 L639.776,45.2 L629.84,45.2 L629.84,43.136 L639.776,43.136 L639.776,41.528 L637.232,41.528 L637.232,35.192 C636.943999,35.5120016 636.664001,35.8159986 636.392,36.104 L634.904,34.232 C636.93601,32.1679897 638.463995,29.8800126 639.488,27.368 Z M644,39.56 L644,38.072 L639.488,38.072 L639.488,39.56 L644,39.56 Z M644,36.296 L644,34.88 L639.488,34.88 L639.488,36.296 L644,36.296 Z M644,33.104 L644,31.688 L639.68,31.688 C639.616,31.8000006 639.552,31.9039995 639.488,32 L639.488,33.104 L644,33.104 Z M658.52,27.368 L660.488,28.232 C659.895997,30.1840098 659.272003,31.8399932 658.616,33.2 L658.616,49.136 L656.456,49.136 L656.456,36.824 C655.911997,37.6080039 655.320003,38.399996 654.68,39.2 L653.936,36.56 C654.864005,35.2959937 655.687996,33.9920067 656.408,32.648 C657.144004,31.4319939 657.847997,29.6720115 658.52,27.368 Z M660.584,29.264 L663.68,29.264 L663.68,27.296 L665.744,27.296 L665.744,29.264 L669.68,29.264 L669.68,27.296 L671.744,27.296 L671.744,29.264 L675.392,29.264 L675.392,31.136 L671.744,31.136 L671.744,33.296 L675.968,33.296 L675.968,35.264 L663.008,35.264 L663.008,36.464 C663.008,39.1520134 662.840002,41.3759912 662.504,43.136 C662.167998,44.8800087 661.528005,46.655991 660.584,48.464 L658.808,46.88 C659.576004,45.5039931 660.119998,44.0080081 660.44,42.392 C660.728001,41.0959935 660.872,39.1200133 660.872,36.464 L660.872,35.264 L659.36,35.264 L659.36,33.296 L663.68,33.296 L663.68,31.136 L660.584,31.136 L660.584,29.264 Z M669.68,33.296 L669.68,31.136 L665.744,31.136 L665.744,33.296 L669.68,33.296 Z M674.84,36.464 L674.84,47.168 C674.84,47.8880036 674.640002,48.4399981 674.24,48.824 C673.919998,49.1600017 673.464003,49.328 672.872,49.328 L671.36,49.328 L670.904,47.36 L672.104,47.432 C672.552002,47.3999998 672.776,47.1200026 672.776,46.592 L672.776,45.368 L670.232,45.368 L670.232,49.136 L668.264,49.136 L668.264,45.368 L665.744,45.368 L665.744,49.136 L663.68,49.136 L663.68,36.464 L674.84,36.464 Z M665.744,43.688 L668.264,43.688 L668.264,41.816 L665.744,41.816 L665.744,43.688 Z M670.232,41.816 L670.232,43.688 L672.776,43.688 L672.776,41.816 L670.232,41.816 Z M665.744,40.136 L668.264,40.136 L668.264,38.36 L665.744,38.36 L665.744,40.136 Z M670.232,38.36 L670.232,40.136 L672.776,40.136 L672.776,38.36 L670.232,38.36 Z" id="為下次的廣告行銷作調整與準備" fill="#1C5682" sketch:type="MSShapeGroup"></path>
    </g>
</svg>