<?xml version="1.0" encoding="UTF-8" standalone="no"?>
<svg width="128px" height="128px" viewBox="0 0 128 128" version="1.1" xmlns="http://www.w3.org/2000/svg" xmlns:xlink="http://www.w3.org/1999/xlink" xmlns:sketch="http://www.bohemiancoding.com/sketch/ns">
    <title>Untitled</title>
    <description>Created with Sketch (http://www.bohemiancoding.com/sketch)</description>
    <defs></defs>
    <g id="Page-1" stroke="none" stroke-width="1" fill="none" fill-rule="evenodd" sketch:type="MSPage">
        <path d="M106.143272,20.5448993 C112.584854,18.9792318 113.272848,20.5937593 107.680799,24.1505076 L42.47419,65.6243007 C40.1430086,67.1070176 36.4492124,66.9996475 34.1991444,65.3665407 L10.0394649,47.8313644 C7.8004648,46.2062906 8.16893221,44.3581858 10.844104,43.7079683 L106.143272,20.5448993 Z M119.331318,25.3615467 C122.104881,20.5917508 120.600856,19.1771416 115.978606,22.1976006 L44.986071,68.5884425 C42.6740152,70.0992804 41.8906866,73.2760213 43.2399524,75.6901444 L63.7491803,112.385512 C65.0968814,114.796835 67.3122391,114.820628 68.7073076,112.421479 L119.331318,25.3615467 Z M35.0502427,79.404712 C35.1213121,72.7761449 37.7862908,72.0911962 41.0109848,77.8898434 L48.5903021,91.5189778 C49.9335595,93.9344242 49.0942898,97.0373348 46.7310784,98.4404162 L39.061414,102.994035 C36.6913357,104.401193 34.7940606,103.298522 34.8236766,100.53628 L35.0502427,79.404712 Z" id="Path-1" fill="#FFFFFF" sketch:type="MSShapeGroup"></path>
    </g>
</svg>