<?xml version="1.0" encoding="UTF-8" standalone="no"?>
<svg width="192px" height="192px" viewBox="0 0 192 192" version="1.1" xmlns="http://www.w3.org/2000/svg" xmlns:xlink="http://www.w3.org/1999/xlink" xmlns:sketch="http://www.bohemiancoding.com/sketch/ns">
    <!-- Generator: Sketch 3.0.2 (7799) - http://www.bohemiancoding.com/sketch -->
    <title>customer-type1</title>
    <description>Created with Sketch.</description>
    <defs></defs>
    <g id="Page-1" stroke="none" stroke-width="1" fill="none" fill-rule="evenodd" sketch:type="MSPage">
        <g id="customer-type1" sketch:type="MSLayerGroup" transform="translate(23.000000, 38.000000)" fill="#5E6A73">
            <g id="Page-1" sketch:type="MSShapeGroup">
                <path d="M75.829756,10.5556036 C73.468913,10.7552142 72.329433,10.7552141 71.097571,10.7552143 C55.519877,10.7552162 47.2398957,-0.477 32.7222382,-0.477 C13.6378213,-0.477 4.9457081,30.6122163 0.8605,64.0725 C-3.2247072,97.532784 4.6548346,114.546001 15.1272382,114.546 C26.2910998,114.545999 35.8237669,98.535227 50.546084,83.882912 C58.144106,76.321017 57.299999,76.661559 72.295915,76.661559 C87.291831,76.66156 86.00101,77.089729 93.896682,83.882912 C110.213043,97.920986 116.510152,114.545999 129.448405,114.546 C139.920808,114.546001 149.953903,96.490372 144.888143,64.0725 C139.822384,31.6546284 130.350804,-0.477 113.026405,-0.477 C97.071994,-0.477 88.800318,10.7552142 75.829756,10.5556036 L75.829756,10.5556036 Z M38.8573214,64.659 C49.546517,64.659 58.211821,55.993696 58.211821,45.3045 C58.211821,34.615304 49.546517,25.95 38.8573214,25.95 C28.1681257,25.95 19.5028214,34.615304 19.5028214,45.3045 C19.5028214,55.993696 28.1681257,64.659 38.8573214,64.659 L38.8573214,64.659 Z M107.477821,40.026 C110.716972,40.026 113.342821,37.40015 113.342821,34.161 C113.342821,30.9218498 110.716972,28.296 107.477821,28.296 C104.238671,28.296 101.612821,30.9218498 101.612821,34.161 C101.612821,37.40015 104.238671,40.026 107.477821,40.026 L107.477821,40.026 Z M107.477821,63.486 C110.716972,63.486 113.342821,60.86015 113.342821,57.621 C113.342821,54.38185 110.716972,51.756 107.477821,51.756 C104.238671,51.756 101.612821,54.38185 101.612821,57.621 C101.612821,60.86015 104.238671,63.486 107.477821,63.486 L107.477821,63.486 Z M119.207821,51.756 C122.446972,51.756 125.072821,49.13015 125.072821,45.891 C125.072821,42.65185 122.446972,40.026 119.207821,40.026 C115.968671,40.026 113.342821,42.65185 113.342821,45.891 C113.342821,49.13015 115.968671,51.756 119.207821,51.756 L119.207821,51.756 Z M95.747821,51.756 C98.986972,51.756 101.612821,49.13015 101.612821,45.891 C101.612821,42.65185 98.986972,40.026 95.747821,40.026 C92.508671,40.026 89.882821,42.65185 89.882821,45.891 C89.882821,49.13015 92.508671,51.756 95.747821,51.756 L95.747821,51.756 Z M38.8573214,59.967 C46.955197,59.967 53.519821,53.402376 53.519821,45.3045 C53.519821,37.206624 46.955197,30.642 38.8573214,30.642 C30.7594459,30.642 24.1948214,37.206624 24.1948214,45.3045 C24.1948214,53.402376 30.7594459,59.967 38.8573214,59.967 L38.8573214,59.967 Z" id="Imported-Layers"></path>
            </g>
        </g>
    </g>
</svg>