<?xml version="1.0" encoding="UTF-8" standalone="no"?>
<svg width="192px" height="192px" viewBox="0 0 192 192" version="1.1" xmlns="http://www.w3.org/2000/svg" xmlns:xlink="http://www.w3.org/1999/xlink" xmlns:sketch="http://www.bohemiancoding.com/sketch/ns">
    <!-- Generator: Sketch 3.0.2 (7799) - http://www.bohemiancoding.com/sketch -->
    <title>customer-type4</title>
    <description>Created with Sketch.</description>
    <defs></defs>
    <g id="Page-1" stroke="none" stroke-width="1" fill="none" fill-rule="evenodd" sketch:type="MSPage">
        <g id="customer-type4" sketch:type="MSLayerGroup" transform="translate(26.500000, 34.500000)" fill="#5E6A73">
            <g id="Page-1" sketch:type="MSShapeGroup">
                <g id="Imported-Layers" transform="translate(-0.355140, -0.175605)">
                    <path d="M69.1545347,34.8716532 C54.9198914,34.8716532 43.3364325,46.57609 43.3364325,60.9629754 C43.3364325,75.3469514 54.9198914,87.0513883 69.1545347,87.0513883 C83.389178,87.0513883 94.972637,75.3469514 94.972637,60.9629754 C94.972637,46.57609 83.389178,34.8716532 69.1545347,34.8716532" id="Fill-1"></path>
                    <path d="M104.924429,11.4483407 C94.896183,4.03549999 82.531355,-0.34057614 69.1545347,-0.34057614 C51.4744529,-0.34057614 35.5621997,7.3038979 24.4760413,19.500588 L24.4760413,19.500588 L24.0304543,101.928463 C35.1336222,114.412538 51.2361786,122.263618 69.1545347,122.263618 C87.344109,122.263618 103.662498,114.173067 114.779352,101.358401 L114.823053,55.9805572 C108.685114,52.487723 106.13926,45.9779811 105.365779,37.4251906 C105.346875,37.2864366 105.332597,37.1403101 105.319638,36.9703998 C105.299768,36.7098785 105.281754,36.3710089 105.264318,35.9448472 C105.235599,35.2429442 104.972879,15.4400246 104.924429,11.4483407 L104.924429,11.4483407 Z M69.1545347,96.661071 C49.6491873,96.661071 33.8313179,80.6798455 33.8313179,60.9629754 C33.8313179,41.2461054 49.6491873,25.2648796 69.1545347,25.2648796 C88.665639,25.2648796 104.477751,41.2461054 104.477751,60.9629754 C104.477751,80.6798455 88.665639,96.661071 69.1545347,96.661071 L69.1545347,96.661071 L69.1545347,96.661071 Z" id="Fill-2"></path>
                    <path d="M6.752949,63.8672604 L6.752949,110.312607 C6.752949,114.030795 9.7351716,117.047822 13.4168922,117.047822 C17.0957343,117.047822 20.0808354,114.030795 20.0808354,110.312607 L20.593225,15.5162698 C20.593225,9.7906094 16.0018689,5.15596663 10.3425547,5.15596663 C4.680362,5.15596663 0.0918844,9.7906094 0.0918844,15.5162698 L0.0918844,62.6540488 C0.0918844,63.0642714 0.1206704,63.4657659 0.1696065,63.8672604 L6.752949,63.8672604" id="Fill-3"></path>
                    <path d="M117.816781,54.0905187 L117.816781,109.915707 C117.816781,113.680445 120.836425,116.735295 124.564203,116.735295 C128.291981,116.735295 131.311626,113.680445 131.311626,109.915707 L131.311626,53.0518699 C135.687087,49.7380858 138.752789,43.6196591 139.216242,36.4771306 C139.299722,36.2269239 139.351536,9.6875571 139.351536,9.6875571 C139.351536,8.2386857 138.191463,7.0632961 136.755045,7.0632961 C135.327263,7.0632961 134.16719,8.2386857 134.16719,9.6875571 L134.16719,33.0789744 L130.615006,33.0789744 L130.615006,7.5898939 C130.615006,6.1410226 129.454933,4.9685423 128.024272,4.9685423 C126.590733,4.9685423 125.43066,6.1410226 125.43066,7.5898939 L125.43066,33.0789744 L121.881354,33.0789744 L121.881354,7.5898939 C121.881354,6.1410226 120.721281,4.9685423 119.284863,4.9685423 C117.854203,4.9685423 116.691251,6.1410226 116.691251,7.5898939 L116.691251,33.0789744 L113.144824,33.0789744 L113.144824,9.6875571 C113.144824,8.2386857 111.981872,7.0632961 110.551212,7.0632961 C109.117672,7.0632961 107.954721,8.2386857 107.954721,9.6875571 C107.954721,9.6875571 108.124558,36.7360654 108.40666,37.1579256 C109.088886,44.8212332 112.770607,51.2189604 117.816781,54.0905187" id="Fill-4"></path>
                </g>
            </g>
        </g>
    </g>
</svg>