<?xml version="1.0" encoding="UTF-8" standalone="no"?>
<svg width="250px" height="250px" viewBox="0 0 250 250" version="1.1" xmlns="http://www.w3.org/2000/svg" xmlns:xlink="http://www.w3.org/1999/xlink" xmlns:sketch="http://www.bohemiancoding.com/sketch/ns">
    <title>Untitled 2</title>
    <description>Created with Sketch (http://www.bohemiancoding.com/sketch)</description>
    <defs></defs>
    <g id="Page-1" stroke="none" stroke-width="1" fill="none" fill-rule="evenodd" sketch:type="MSPage">
        <g id="Imported-Layers" sketch:type="MSLayerGroup" transform="translate(24.644860, 60.824395)" fill="#5E6A73">
            <path d="M99.1545347,38.8716532 C84.9198914,38.8716532 73.3364325,50.57609 73.3364325,64.9629754 C73.3364325,79.3469514 84.9198914,91.0513883 99.1545347,91.0513883 C113.389178,91.0513883 124.972637,79.3469514 124.972637,64.9629754 C124.972637,50.57609 113.389178,38.8716532 99.1545347,38.8716532" id="Fill-1" sketch:type="MSShapeGroup"></path>
            <path d="M134.924429,15.4483407 C124.896183,8.03549999 112.531355,3.65942386 99.1545347,3.65942386 C81.4744529,3.65942386 65.5621997,11.3038979 54.4760413,23.500588 L54.4760413,23.500588 L54.0304543,105.928463 C65.1336222,118.412538 81.2361786,126.263618 99.1545347,126.263618 C117.344109,126.263618 133.662498,118.173067 144.779352,105.358401 L144.823053,59.9805572 C138.685114,56.487723 136.13926,49.9779811 135.365779,41.4251906 C135.346875,41.2864366 135.332597,41.1403101 135.319638,40.9703998 C135.299768,40.7098785 135.281754,40.3710089 135.264318,39.9448472 C135.235599,39.2429442 134.972879,19.4400246 134.924429,15.4483407 Z M99.1545347,100.661071 C79.6491873,100.661071 63.8313179,84.6798455 63.8313179,64.9629754 C63.8313179,45.2461054 79.6491873,29.2648796 99.1545347,29.2648796 C118.665639,29.2648796 134.477751,45.2461054 134.477751,64.9629754 C134.477751,84.6798455 118.665639,100.661071 99.1545347,100.661071 L99.1545347,100.661071 Z" id="Fill-2" sketch:type="MSShapeGroup"></path>
            <path d="M36.752949,67.8672604 L36.752949,114.312607 C36.752949,118.030795 39.7351716,121.047822 43.4168922,121.047822 C47.0957343,121.047822 50.0808354,118.030795 50.0808354,114.312607 L50.593225,19.5162698 C50.593225,13.7906094 46.0018689,9.15596663 40.3425547,9.15596663 C34.680362,9.15596663 30.0918844,13.7906094 30.0918844,19.5162698 L30.0918844,66.6540488 C30.0918844,67.0642714 30.1206704,67.4657659 30.1696065,67.8672604 L36.752949,67.8672604" id="Fill-3" sketch:type="MSShapeGroup"></path>
            <path d="M147.816781,58.0905187 L147.816781,113.915707 C147.816781,117.680445 150.836425,120.735295 154.564203,120.735295 C158.291981,120.735295 161.311626,117.680445 161.311626,113.915707 L161.311626,57.0518699 C165.687087,53.7380858 168.752789,47.6196591 169.216242,40.4771306 C169.299722,40.2269239 169.351536,13.6875571 169.351536,13.6875571 C169.351536,12.2386857 168.191463,11.0632961 166.755045,11.0632961 C165.327263,11.0632961 164.16719,12.2386857 164.16719,13.6875571 L164.16719,37.0789744 L160.615006,37.0789744 L160.615006,11.5898939 C160.615006,10.1410226 159.454933,8.9685423 158.024272,8.9685423 C156.590733,8.9685423 155.43066,10.1410226 155.43066,11.5898939 L155.43066,37.0789744 L151.881354,37.0789744 L151.881354,11.5898939 C151.881354,10.1410226 150.721281,8.9685423 149.284863,8.9685423 C147.854203,8.9685423 146.691251,10.1410226 146.691251,11.5898939 L146.691251,37.0789744 L143.144824,37.0789744 L143.144824,13.6875571 C143.144824,12.2386857 141.981872,11.0632961 140.551212,11.0632961 C139.117672,11.0632961 137.954721,12.2386857 137.954721,13.6875571 C137.954721,13.6875571 138.124558,40.7360654 138.40666,41.1579256 C139.088886,48.8212332 142.770607,55.2189604 147.816781,58.0905187" id="Fill-4" sketch:type="MSShapeGroup"></path>
        </g>
    </g>
</svg>