<?xml version="1.0" encoding="UTF-8" standalone="no"?>
<svg width="250px" height="250px" viewBox="0 0 250 250" version="1.1" xmlns="http://www.w3.org/2000/svg" xmlns:xlink="http://www.w3.org/1999/xlink" xmlns:sketch="http://www.bohemiancoding.com/sketch/ns">
    <title>Untitled 2</title>
    <description>Created with Sketch (http://www.bohemiancoding.com/sketch)</description>
    <defs></defs>
    <g id="Page-1" stroke="none" stroke-width="1" fill="none" fill-rule="evenodd" sketch:type="MSPage">
        <path d="M127.829756,78.5556036 C125.468913,78.7552142 124.329433,78.7552141 123.097571,78.7552143 C107.519877,78.7552162 99.2398957,67.523 84.7222382,67.523 C65.6378213,67.523 56.9457081,98.6122163 52.8605,132.0725 C48.7752928,165.532784 56.6548346,182.546001 67.1272382,182.546 C78.2910998,182.545999 87.8237669,166.535227 102.546084,151.882912 C110.144106,144.321017 109.299999,144.661559 124.295915,144.661559 C139.291831,144.66156 138.00101,145.089729 145.896682,151.882912 C162.213043,165.920986 168.510152,182.545999 181.448405,182.546 C191.920808,182.546001 201.953903,164.490372 196.888143,132.0725 C191.822384,99.6546284 182.350804,67.523 165.026405,67.523 C149.071994,67.523 140.800318,78.7552142 127.829756,78.5556036 Z M90.8573214,132.659 C101.546517,132.659 110.211821,123.993696 110.211821,113.3045 C110.211821,102.615304 101.546517,93.95 90.8573214,93.95 C80.1681257,93.95 71.5028214,102.615304 71.5028214,113.3045 C71.5028214,123.993696 80.1681257,132.659 90.8573214,132.659 Z M159.477821,108.026 C162.716972,108.026 165.342821,105.40015 165.342821,102.161 C165.342821,98.9218498 162.716972,96.296 159.477821,96.296 C156.238671,96.296 153.612821,98.9218498 153.612821,102.161 C153.612821,105.40015 156.238671,108.026 159.477821,108.026 Z M159.477821,131.486 C162.716972,131.486 165.342821,128.86015 165.342821,125.621 C165.342821,122.38185 162.716972,119.756 159.477821,119.756 C156.238671,119.756 153.612821,122.38185 153.612821,125.621 C153.612821,128.86015 156.238671,131.486 159.477821,131.486 Z M171.207821,119.756 C174.446972,119.756 177.072821,117.13015 177.072821,113.891 C177.072821,110.65185 174.446972,108.026 171.207821,108.026 C167.968671,108.026 165.342821,110.65185 165.342821,113.891 C165.342821,117.13015 167.968671,119.756 171.207821,119.756 Z M147.747821,119.756 C150.986972,119.756 153.612821,117.13015 153.612821,113.891 C153.612821,110.65185 150.986972,108.026 147.747821,108.026 C144.508671,108.026 141.882821,110.65185 141.882821,113.891 C141.882821,117.13015 144.508671,119.756 147.747821,119.756 Z M90.8573214,127.967 C98.955197,127.967 105.519821,121.402376 105.519821,113.3045 C105.519821,105.206624 98.955197,98.642 90.8573214,98.642 C82.7594459,98.642 76.1948214,105.206624 76.1948214,113.3045 C76.1948214,121.402376 82.7594459,127.967 90.8573214,127.967 Z" id="Imported-Layers" fill="#5E6A73" sketch:type="MSShapeGroup"></path>
    </g>
</svg>