<?xml version="1.0" encoding="UTF-8" standalone="no"?>
<svg width="193px" height="193px" viewBox="0 0 193 193" version="1.1" xmlns="http://www.w3.org/2000/svg" xmlns:xlink="http://www.w3.org/1999/xlink" xmlns:sketch="http://www.bohemiancoding.com/sketch/ns">
    <!-- Generator: Sketch 3.0.2 (7799) - http://www.bohemiancoding.com/sketch -->
    <title>customer-type2</title>
    <description>Created with Sketch.</description>
    <defs></defs>
    <g id="Page-1" stroke="none" stroke-width="1" fill="none" fill-rule="evenodd" sketch:type="MSPage">
        <g id="customer-type2" sketch:type="MSLayerGroup" transform="translate(29.000000, 37.000000)" fill="#5E6A73">
            <g id="Page-1" sketch:type="MSShapeGroup">
                <g id="Group" transform="translate(0.145161, -0.500000)">
                    <path d="M103.751539,9.66019923 C106.514065,9.66019923 108.044638,11.7903468 107.172847,14.4099709 L90.0824523,65.7645238 C89.209463,68.3877502 86.2669222,70.5142954 83.4993605,70.5142954 L31.7362747,70.5142954 C28.9735228,70.5142954 26.0249733,68.3841478 25.1531829,65.7645238 L8.06278782,14.4099709 C7.1897985,11.7867444 8.71329713,9.66019923 11.4840966,9.66019923 L103.751539,9.66019923 L103.751539,9.66019923 Z" id="Path-40"></path>
                    <path d="M20.0221467,119.638888 C26.7468902,119.638888 32.1983713,113.939612 32.1983713,106.909198 C32.1983713,99.8787845 26.7468902,94.1795088 20.0221467,94.1795088 C13.2974032,94.1795088 7.84592208,99.8787845 7.84592208,106.909198 C7.84592208,113.939612 13.2974032,119.638888 20.0221467,119.638888 L20.0221467,119.638888 Z" id="Oval-9"></path>
                    <path d="M97.72235,119.638888 C104.447093,119.638888 109.898575,113.939612 109.898575,106.909198 C109.898575,99.8787845 104.447093,94.1795088 97.72235,94.1795088 C90.9976065,94.1795088 85.5461254,99.8787845 85.5461254,106.909198 C85.5461254,113.939612 90.9976065,119.638888 97.72235,119.638888 L97.72235,119.638888 Z" id="Oval-9"></path>
                    <path d="M125.567379,-0.142690132 L121.876438,-0.142690132 L120.710965,3.35941265 L95.2563401,79.4034321 L22.1931541,79.4034321 L9.89640218,48.2169693 C8.88309436,45.578085 5.9224077,44.2602949 3.28352345,45.2736028 C0.644639193,46.2869106 -0.673150872,49.2475973 0.340156955,51.8864815 L13.5763218,86.3564678 L14.8371653,89.6399913 L18.3544444,89.6399913 L99.0950498,89.6399913 L102.785991,89.6399913 L103.951464,86.1378885 L129.406089,10.093869 L144.627457,10.093869 C147.454205,10.093869 149.745736,7.80233719 149.745736,4.97558944 C149.745736,2.14884169 147.454205,-0.142690132 144.627457,-0.142690132 L125.567379,-0.142690132 L125.567379,-0.142690132 Z" id="Path-39"></path>
                </g>
            </g>
        </g>
    </g>
</svg>