<?xml version="1.0" encoding="UTF-8" standalone="no"?>
<svg width="160px" height="48px" viewBox="0 0 160 48" version="1.1" xmlns="http://www.w3.org/2000/svg" xmlns:xlink="http://www.w3.org/1999/xlink" xmlns:sketch="http://www.bohemiancoding.com/sketch/ns">
    <title>Slice 1</title>
    <description>Created with Sketch (http://www.bohemiancoding.com/sketch)</description>
    <defs>
        <linearGradient x1="84.3569239%" y1="6.51765888%" x2="15.9108405%" y2="93.4792616%" id="linearGradient-1">
            <stop stop-color="#F99D1C" offset="0%"></stop>
            <stop stop-color="#F8951D" offset="7.22%"></stop>
            <stop stop-color="#F58120" offset="30.89%"></stop>
            <stop stop-color="#F37221" offset="54.44%"></stop>
            <stop stop-color="#F26922" offset="77.63%"></stop>
            <stop stop-color="#F26522" offset="100%"></stop>
        </linearGradient>
        <linearGradient x1="67.6687181%" y1="-11.8713216%" x2="35.9742353%" y2="122.755484%" id="linearGradient-2">
            <stop stop-color="#F99D1C" offset="0%"></stop>
            <stop stop-color="#F8951D" offset="7.22%"></stop>
            <stop stop-color="#F58120" offset="30.89%"></stop>
            <stop stop-color="#F37221" offset="54.44%"></stop>
            <stop stop-color="#F26922" offset="77.63%"></stop>
            <stop stop-color="#F26522" offset="100%"></stop>
        </linearGradient>
        <linearGradient x1="83.9153609%" y1="6.5158414%" x2="16.0795065%" y2="93.4836843%" id="linearGradient-3">
            <stop stop-color="#F99D1C" offset="0%"></stop>
            <stop stop-color="#F8951D" offset="7.22%"></stop>
            <stop stop-color="#F58120" offset="30.89%"></stop>
            <stop stop-color="#F37221" offset="54.44%"></stop>
            <stop stop-color="#F26922" offset="77.63%"></stop>
            <stop stop-color="#F26522" offset="100%"></stop>
        </linearGradient>
        <linearGradient x1="50.0021452%" y1="-0.000920567904%" x2="50.0021452%" y2="99.9998745%" id="linearGradient-4">
            <stop stop-color="#F99D1C" offset="0%"></stop>
            <stop stop-color="#F26522" offset="100%"></stop>
        </linearGradient>
        <linearGradient x1="50.0006087%" y1="0.000899961138%" x2="50.0006087%" y2="99.9998067%" id="linearGradient-5">
            <stop stop-color="#F99D1C" offset="0%"></stop>
            <stop stop-color="#F26522" offset="100%"></stop>
        </linearGradient>
        <linearGradient x1="49.999264%" y1="-0.000809869127%" x2="49.999264%" y2="99.998489%" id="linearGradient-6">
            <stop stop-color="#F99D1C" offset="0%"></stop>
            <stop stop-color="#F26522" offset="100%"></stop>
        </linearGradient>
    </defs>
    <g id="Page-1" stroke="none" stroke-width="1" fill="none" fill-rule="evenodd" sketch:type="MSPage">
        <g id="logo" sketch:type="MSLayerGroup" transform="translate(0.000000, 8.000000)">
            <g id="Page-1" sketch:type="MSShapeGroup">
                <g id="cacafly_logo">
                    <g id="Group">
                        <g id="Shape">
                            <path d="M16.8203922,26.8955323 C10.9563399,26.8955323 7.45830066,22.0557096 9.00549022,16.0869677 C10.5542484,10.1187581 16.5584314,5.27893548 22.420915,5.27893548 C26.2938562,5.27893548 29.1226144,7.39519355 30.1636601,10.5477581 L33.4520261,10.5477581 C32.7377778,4.36983871 28.0036601,-0.0207580645 21.1184314,-0.0207580645 C12.2107189,-0.0207580645 3.08444444,7.33025806 0.734117647,16.398871 C-1.6151634,25.4680161 3.70039216,32.8179677 12.6096732,32.8179677 C18.5139869,32.8179677 24.5145098,29.5850323 28.5746405,24.764371 L23.6826144,24.764371 C21.5728105,26.0966129 19.1879739,26.8955323 16.8203922,26.8955323 L16.8203922,26.8955323 L16.8203922,26.8955323 Z" fill="url(#linearGradient-1)"></path>
                            <path d="M26.139085,22.8551613 L30.0240523,22.8551613 C30.875817,21.6016935 31.6005228,20.2673225 32.1678431,18.876 L29.1482353,18.876 C28.379085,20.3487581 27.351634,21.7006935 26.139085,22.8551613 L26.139085,22.8551613 L26.139085,22.8551613 Z" fill="url(#linearGradient-2)"></path>
                            <path d="M14.1103268,16.0875 C13.3066667,19.1863065 15.1236601,21.6980323 18.168366,21.6980323 C21.2120261,21.6980323 24.3309804,19.1863065 25.1356863,16.0875 C25.9372549,12.9881613 24.12183,10.4759032 21.0755556,10.4759032 C18.0318955,10.4759032 14.9129412,12.9881613 14.1103268,16.0875 L14.1103268,16.0875 L14.1103268,16.0875 Z" fill="url(#linearGradient-3)"></path>
                        </g>
                        <g id="Shape" transform="translate(36.601308, 0.532258)">
                            <g id="Group" transform="translate(76.339869, 0.000000)">
                                <path d="M16.3597386,-0.0878225806 L1.73542484,-0.0878225806 C1.33228758,-0.0894193553 0.966274507,0.0606774194 0.687058823,0.348096775 C0.404183006,0.631790323 0.257777778,1.00277419 0.259869281,1.41314516 L0.259869281,1.41314516 L0.259869281,25.9438548 C0.257777778,26.3563548 0.404183006,26.7252096 0.687058823,27.0099677 C0.966274507,27.2984516 1.3317647,27.4496129 1.73542484,27.4469516 L1.7427451,27.4469516 C2.14169934,27.4469516 2.50457516,27.2963225 2.78222222,27.0099677 C3.06457516,26.7252096 3.21359477,26.3563548 3.20888889,25.9438548 L3.20888889,16.4073871 L12.1636601,16.4073871 C12.5667974,16.4100484 12.9301961,16.2588871 13.2078431,15.9704032 C13.4928105,15.6856452 13.642353,15.3157258 13.6397386,14.9053548 C13.642353,14.4960484 13.4928105,14.1250645 13.2078431,13.8403065 C12.9328105,13.5528871 12.5673203,13.4017258 12.1636601,13.4043871 L3.20888889,13.4022581 L3.20888889,2.91730645 L16.3592156,2.91730645 C16.7628758,2.91837096 17.128366,2.76614516 17.4070588,2.4813871 C17.6899347,2.19503225 17.8368628,1.82458065 17.8368628,1.41367742 C17.8368628,1.00277419 17.6899347,0.632322581 17.4070588,0.348629032 C17.1288889,0.0601451613 16.7633987,-0.0894193553 16.3597386,-0.0878225806 L16.3597386,-0.0878225806 L16.3597386,-0.0878225806 Z" id="Shape" fill="url(#linearGradient-4)"></path>
                                <path d="M26.6807844,24.4423548 C25.79817,24.4146775 25.0954248,24.222 24.580915,23.8792258 C24.0470588,23.5258065 23.6345098,23.1212904 23.347451,22.6678065 C23.0530719,22.2042096 22.8653595,21.7597742 22.7728105,21.336629 C22.6760784,20.891129 22.6305883,20.559 22.6305883,20.3625968 L22.6305883,1.4126129 C22.6332026,1.00117742 22.4862745,0.632322581 22.2039216,0.345967742 C21.9210458,0.0585483871 21.5607844,-0.0910161289 21.1571242,-0.0883548387 C20.7534641,-0.0904838711 20.3853595,0.0585483871 20.1108497,0.345967742 C19.8258823,0.632322581 19.6810458,1.00064516 19.6810458,1.4126129 L19.6810458,20.3625968 C19.6810458,21.0060968 19.8028758,21.7278387 20.04183,22.5315484 C20.2839216,23.3443065 20.682353,24.1150161 21.2355556,24.8356935 C21.7924183,25.5632904 22.5124183,26.1716613 23.3918955,26.6613387 C24.2844444,27.161129 25.380915,27.4187419 26.6786928,27.4469516 L26.6860131,27.4469516 C27.0896732,27.4469516 27.452549,27.2963225 27.7270588,27.0089032 C28.0094117,26.7241452 28.1615686,26.3547581 28.1568628,25.9449194 C28.1615686,25.5345484 28.0094117,25.1640968 27.7270588,24.8772096 C27.4473203,24.5924516 27.0849673,24.4402258 26.6807844,24.4423548 L26.6807844,24.4423548 L26.6807844,24.4423548 Z" id="Shape" fill="url(#linearGradient-5)"></path>
                                <path d="M46.9537255,4.16970968 C46.6750327,3.88229032 46.3111111,3.73272581 45.9100653,3.7353871 C45.5069281,3.73272581 45.1440523,3.88282258 44.8616994,4.17130645 C44.5814379,4.45606452 44.4324183,4.82704839 44.4324183,5.23741935 L44.4324183,14.7525968 C44.4324183,15.7181129 44.256732,16.6128387 43.9079739,17.4484839 C43.5539869,18.2878548 43.0724183,19.0122581 42.4533333,19.6270161 C41.8363399,20.2481613 41.1126797,20.7346452 40.2870588,21.0923225 C39.4682353,21.4473387 38.5877124,21.6245806 37.6407844,21.6256452 C36.6938562,21.6245806 35.8117647,21.4473387 34.9929412,21.0923225 C34.1699347,20.7351775 33.4478431,20.2481613 32.8266667,19.6270161 C32.2070588,19.0111935 31.71817,18.2878548 31.3532026,17.4458225 C30.9903268,16.6123065 30.8073203,15.7165161 30.8073203,14.7525968 L30.8073203,5.27946775 C30.8073203,4.86909677 30.6603922,4.50077419 30.3775164,4.21335484 C30.0988236,3.92593548 29.7354248,3.77370968 29.3338562,3.77743548 C28.9291503,3.77370968 28.5652288,3.92593548 28.2854902,4.21335484 C28.0026144,4.50077419 27.8509804,4.86909677 27.8562092,5.27946775 L27.8562092,5.27946775 L27.8562092,14.7525968 C27.8562092,16.0172419 28.0690196,17.2164194 28.4899347,18.3517258 C28.9145098,19.4880968 29.5069281,20.4940645 30.2713725,21.3738871 C31.0352941,22.2505161 31.9304575,22.9690645 32.9620915,23.5295323 C33.9440523,24.0649839 35.0143791,24.4242581 36.1652288,24.6057581 L36.1652288,30.7826129 C36.1626144,31.1929839 36.3126797,31.5639677 36.5913725,31.8492581 C36.8721569,32.1366775 37.2371242,32.2873065 37.6407844,32.2862419 L37.6512419,32.2862419 C38.0496732,32.2862419 38.4073203,32.1356129 38.6875817,31.8492581 C38.9720261,31.5634355 39.1194772,31.1919194 39.1168628,30.7826129 L39.1168628,24.5615806 C40.2389542,24.3800806 41.2946405,24.0234677 42.2792156,23.4874839 C43.3092811,22.9275484 44.2086275,22.2079355 44.968366,21.3302419 C45.7322876,20.4546775 46.3252288,19.4529677 46.7498039,18.3325645 C47.1728105,17.2121613 47.3856209,16.0177742 47.3856209,14.753129 L47.3856209,5.23741935 C47.3856209,4.82651613 47.2392156,4.45606452 46.9537255,4.16970968 L46.9537255,4.16970968 L46.9537255,4.16970968 Z" id="Shape" fill="url(#linearGradient-6)"></path>
                            </g>
                            <path d="M15.2528105,21.1306452 C15.1984314,21.1231935 15.145098,21.1136129 15.0886275,21.1136129 C14.3691503,21.1136129 13.7856209,21.7076129 13.7856209,22.4405323 C13.7856209,22.4868387 13.7730719,22.8072581 13.7730719,22.9339355 C13.7730719,24.7920484 13.082353,26.1317419 10.7984314,26.1317419 L5.26379085,26.1317419 C4.18614379,26.1269516 3.40235294,25.7666129 2.9103268,25.0480645 C2.42248366,24.3305806 2.17934641,23.267129 2.18352941,21.8593065 L2.18352941,17.8003065 C2.17934641,16.3930161 2.42300653,15.3295645 2.9103268,14.6120806 C3.40235294,13.8935323 4.18614379,13.5331935 5.26379085,13.5284032 L10.7984314,13.5284032 C13.082353,13.5284032 13.7730719,14.8680968 13.7730719,16.7256775 C13.7730719,16.8534194 13.7856209,17.1727742 13.7856209,17.2196129 C13.7856209,17.9525323 14.3691503,18.546 15.0886275,18.546 C15.5738562,18.546 15.9288889,18.3208548 16.1197386,18.0227904 C16.3100653,17.7252581 16.4104575,17.3276613 16.4151634,16.7256775 C16.4271895,15.3194516 15.8661438,13.3756452 14.8120261,12.2445968 C13.8420915,11.2423548 12.9369934,10.7287258 10.7864052,10.7548065 L5.2517647,10.7548065 C1.14091503,10.7548065 -0.255686275,13.4437742 -0.255686275,17.8114839 L-0.255686275,21.8486613 C-0.255686275,26.2169032 1.14091503,28.9053387 5.2517647,28.9053387 L10.7864052,28.9053387 C12.9369934,28.9314194 13.8415686,28.4183225 14.8120261,27.4160806 C15.8666667,26.2850323 16.4271895,24.3417581 16.4151634,22.9339355 C16.4104575,22.3330161 16.3100653,21.9348871 16.1197386,21.6368225 C15.9288889,21.3392904 15.5816994,21.1588548 15.2528105,21.1306452 L15.2528105,21.1306452 L15.2528105,21.1306452 Z" fill="#7C5122"></path>
                            <path d="M30.2086275,10.7548065 L24.6734641,10.7548065 C22.5233987,10.7287258 21.6183006,11.2418225 20.648366,12.2445968 C19.5937255,13.3761775 19.0326797,15.3194516 19.0447059,16.7256775 C19.0494117,17.3276613 19.1498039,17.7252581 19.3401308,18.0227904 C19.5309804,18.3208548 19.87817,18.5012904 20.2070588,18.5300323 C20.260915,18.5364194 20.3147712,18.546 20.3707189,18.546 C21.0901961,18.546 21.6737255,17.9525323 21.6737255,17.2196129 C21.6737255,17.1727742 21.6857516,16.8534194 21.6857516,16.7256775 C21.6857516,14.8680968 22.3769934,13.5284032 24.660915,13.5284032 L30.1955556,13.5284032 C31.2732026,13.5331935 32.0564706,13.8935323 32.5490196,14.6120806 C33.0368628,15.3295645 33.2805228,16.3930161 33.275817,17.8003065 L33.275817,18.8994194 C32.4852288,18.4166613 31.4766013,18.1585161 30.2075817,18.1585161 L24.6724183,18.1585161 C22.522353,18.1329677 21.3129412,18.8579032 20.3430066,19.8606775 C19.9100653,20.3242742 19.2036601,21.7741452 19.2036601,23.5316613 C19.2036601,25.2897096 20.0062745,26.9471613 20.4402614,27.4123548 C21.4101961,28.4145968 22.522353,28.9308871 24.6729412,28.9042742 L30.2081045,28.9042742 C31.4771242,28.9042742 32.4852288,28.646129 33.2763399,28.1639032 C34.6980392,27.2952581 35.4075817,25.692629 35.6318955,23.531129 C35.6867974,23.0015323 35.7155556,22.442129 35.7155556,21.8475968 L35.7155556,17.8104194 C35.7160784,13.4432419 34.3194772,10.7548065 30.2086275,10.7548065 L30.2086275,10.7548065 L30.2086275,10.7548065 Z M30.1966013,26.1317419 L24.6619608,26.1317419 C22.6321569,26.1317419 21.7150327,25.0076129 21.7150327,23.5321935 C21.7150327,22.0573065 22.631634,20.9326452 24.6619608,20.9326452 L30.1966013,20.9326452 C31.2742484,20.9379677 33.1262745,21.3424839 33.1262745,23.5321935 C33.1262745,25.7224355 31.2742484,26.1264194 30.1966013,26.1317419 L30.1966013,26.1317419 L30.1966013,26.1317419 Z" fill="#7C5122"></path>
                            <path d="M53.2711111,21.1306452 C53.216732,21.1231935 53.1639216,21.1136129 53.1079739,21.1136129 C52.3884967,21.1136129 51.8044444,21.7076129 51.8044444,22.4405323 C51.8044444,22.4868387 51.7918955,22.8072581 51.7918955,22.9339355 C51.7918955,24.7920484 51.1016994,26.1317419 48.8177778,26.1317419 L43.2826144,26.1317419 C42.2049673,26.1269516 41.4211764,25.7666129 40.9291503,25.0480645 C40.4407844,24.3305806 40.197647,23.267129 40.202353,21.8593065 L40.202353,17.8003065 C40.197647,16.3930161 40.4413072,15.3295645 40.9291503,14.6120806 C41.4211764,13.8935323 42.2044444,13.5331935 43.2826144,13.5284032 L48.8177778,13.5284032 C51.1011764,13.5284032 51.7918955,14.8680968 51.7918955,16.7256775 C51.7918955,16.8534194 51.8044444,17.1727742 51.8044444,17.2196129 C51.8044444,17.9525323 52.3884967,18.546 53.1079739,18.546 C53.5926797,18.546 53.9471895,18.3208548 54.1385621,18.0227904 C54.3288889,17.7252581 54.4292811,17.3276613 54.4339869,16.7256775 C54.4460131,15.3194516 53.8849673,13.3756452 52.8303268,12.2445968 C51.860915,11.2423548 50.9552941,10.7287258 48.8057516,10.7548065 L43.2705883,10.7548065 C39.1597386,10.7548065 37.7636601,13.4437742 37.7636601,17.8114839 L37.7636601,21.8486613 C37.7636601,26.2169032 39.1597386,28.9053387 43.2705883,28.9053387 L48.8057516,28.9053387 C50.9552941,28.9314194 51.860915,28.4183225 52.8303268,27.4160806 C53.8854902,26.2850323 54.4465359,24.3417581 54.4339869,22.9339355 C54.4287581,22.3330161 54.3288889,21.9348871 54.1385621,21.6368225 C53.9471895,21.3392904 53.6,21.1588548 53.2711111,21.1306452 L53.2711111,21.1306452 L53.2711111,21.1306452 Z" fill="#7C5122"></path>
                            <path d="M68.227451,10.7548065 L62.6922876,10.7548065 C60.5422222,10.7287258 59.6366013,11.2418225 58.6666667,12.2445968 C57.6120261,13.3761775 57.0509804,15.3194516 57.0635294,16.7256775 C57.0687581,17.3276613 57.1681045,17.7252581 57.3584314,18.0227904 C57.5492811,18.3208548 57.8964706,18.5012904 58.2258823,18.5300323 C58.2802614,18.5364194 58.3330719,18.546 58.3890196,18.546 C59.1084967,18.546 59.6930719,17.9525323 59.6930719,17.2196129 C59.6930719,17.1727742 59.705098,16.8534194 59.705098,16.7256775 C59.705098,14.8680968 60.3952941,13.5284032 62.6792156,13.5284032 L68.214902,13.5284032 C69.292549,13.5331935 70.0763399,13.8935323 70.5678431,14.6120806 C71.0562092,15.3295645 71.2988236,16.3930161 71.2951634,17.8003065 L71.2951634,18.8994194 C70.5040523,18.4166613 69.4954248,18.1585161 68.227451,18.1585161 L62.6922876,18.1585161 C60.5422222,18.1329677 59.3322876,18.8579032 58.362353,19.8606775 C57.9294117,20.3242742 57.2230066,21.7741452 57.2230066,23.5316613 C57.2230066,25.2897096 58.025098,26.9471613 58.459085,27.4123548 C59.4290196,28.4145968 60.5416994,28.9308871 62.6922876,28.9042742 L68.227451,28.9042742 C69.4954248,28.9042742 70.5040523,28.646129 71.2951634,28.1639032 C72.7173856,27.2952581 73.4253595,25.692629 73.6507189,23.531129 C73.705098,23.0015323 73.7343791,22.442129 73.7343791,21.8475968 L73.7343791,17.8104194 C73.734902,13.4432419 72.3377778,10.7548065 68.227451,10.7548065 L68.227451,10.7548065 L68.227451,10.7548065 Z M68.2154248,26.1317419 L62.6797386,26.1317419 C60.6504575,26.1317419 59.7338562,25.0076129 59.7338562,23.5321935 C59.7338562,22.0573065 60.6504575,20.9326452 62.6797386,20.9326452 L68.2154248,20.9326452 C69.2930719,20.9379677 71.1456209,21.3424839 71.1456209,23.5321935 C71.145098,25.7224355 69.292549,26.1264194 68.2154248,26.1317419 L68.2154248,26.1317419 L68.2154248,26.1317419 Z" fill="#7C5122"></path>
                        </g>
                    </g>
                </g>
            </g>
        </g>
    </g>
</svg>