<?xml version="1.0" encoding="UTF-8" standalone="no"?>
<svg width="120px" height="48px" viewBox="0 0 120 48" version="1.1" xmlns="http://www.w3.org/2000/svg" xmlns:xlink="http://www.w3.org/1999/xlink" xmlns:sketch="http://www.bohemiancoding.com/sketch/ns">
    <title>Untitled</title>
    <description>Created with Sketch (http://www.bohemiancoding.com/sketch)</description>
    <defs>
        <linearGradient x1="85.5115964%" y1="6.51765888%" x2="14.765167%" y2="93.4792616%" id="linearGradient-1">
            <stop stop-color="#F99D1C" offset="0%"></stop>
            <stop stop-color="#F8951D" offset="7.22%"></stop>
            <stop stop-color="#F58120" offset="30.89%"></stop>
            <stop stop-color="#F37221" offset="54.44%"></stop>
            <stop stop-color="#F26922" offset="77.63%"></stop>
            <stop stop-color="#F26522" offset="100%"></stop>
        </linearGradient>
        <linearGradient x1="90.8326106%" y1="-11.8713216%" x2="17.5862966%" y2="122.755484%" id="linearGradient-2">
            <stop stop-color="#F99D1C" offset="0%"></stop>
            <stop stop-color="#F8951D" offset="7.22%"></stop>
            <stop stop-color="#F58120" offset="30.89%"></stop>
            <stop stop-color="#F37221" offset="54.44%"></stop>
            <stop stop-color="#F26922" offset="77.63%"></stop>
            <stop stop-color="#F26522" offset="100%"></stop>
        </linearGradient>
        <linearGradient x1="85.2668027%" y1="6.5158414%" x2="14.7278602%" y2="93.4836843%" id="linearGradient-3">
            <stop stop-color="#F99D1C" offset="0%"></stop>
            <stop stop-color="#F8951D" offset="7.22%"></stop>
            <stop stop-color="#F58120" offset="30.89%"></stop>
            <stop stop-color="#F37221" offset="54.44%"></stop>
            <stop stop-color="#F26922" offset="77.63%"></stop>
            <stop stop-color="#F26522" offset="100%"></stop>
        </linearGradient>
        <linearGradient x1="50.0021452%" y1="-0.000920567904%" x2="50.0021452%" y2="99.9998745%" id="linearGradient-4">
            <stop stop-color="#F99D1C" offset="0%"></stop>
            <stop stop-color="#F26522" offset="100%"></stop>
        </linearGradient>
        <linearGradient x1="50.0006087%" y1="0.000899961138%" x2="50.0006087%" y2="99.9998067%" id="linearGradient-5">
            <stop stop-color="#F99D1C" offset="0%"></stop>
            <stop stop-color="#F26522" offset="100%"></stop>
        </linearGradient>
        <linearGradient x1="49.999264%" y1="-0.000809869127%" x2="49.999264%" y2="99.998489%" id="linearGradient-6">
            <stop stop-color="#F99D1C" offset="0%"></stop>
            <stop stop-color="#F26522" offset="100%"></stop>
        </linearGradient>
    </defs>
    <g id="Page-1" stroke="none" stroke-width="1" fill="none" fill-rule="evenodd" sketch:type="MSPage">
        <g id="cacafly_logo" sketch:type="MSLayerGroup" transform="translate(0.000000, 12.000000)">
            <g id="Group" sketch:type="MSShapeGroup">
                <g id="Shape">
                    <path d="M12.6152941,20.3754032 C8.2172549,20.3754032 5.59372549,16.708871 6.75411765,12.1870968 C7.91568627,7.66572581 12.4188235,3.99919355 16.8156863,3.99919355 C19.7203922,3.99919355 21.8419608,5.60241935 22.6227451,7.99072581 L25.0890196,7.99072581 C24.5533333,3.31048387 21.0027451,-0.0157258065 15.8388235,-0.0157258065 C9.15803922,-0.0157258065 2.31333333,5.55322581 0.550588235,12.4233871 C-1.21137255,19.2939516 2.77529412,24.8620968 9.4572549,24.8620968 C13.8854902,24.8620968 18.3858824,22.4129032 21.4309804,18.7608871 L17.7619608,18.7608871 C16.1796078,19.7701613 14.3909804,20.3754032 12.6152941,20.3754032 L12.6152941,20.3754032 Z" fill="url(#linearGradient-1)"></path>
                    <path d="M19.6043137,17.3145161 L22.5180392,17.3145161 C23.1568627,16.3649194 23.7003922,15.3540323 24.1258824,14.3 L21.8611765,14.3 C21.2843137,15.4157258 20.5137255,16.4399194 19.6043137,17.3145161 L19.6043137,17.3145161 Z" fill="url(#linearGradient-2)"></path>
                    <path d="M10.5827451,12.1875 C9.98,14.5350806 11.3427451,16.4379032 13.6262745,16.4379032 C15.9090196,16.4379032 18.2482353,14.5350806 18.8517647,12.1875 C19.4529412,9.83951613 18.0913725,7.93629032 15.8066667,7.93629032 C13.5239216,7.93629032 11.1847059,9.83951613 10.5827451,12.1875 L10.5827451,12.1875 Z" fill="url(#linearGradient-3)"></path>
                </g>
                <g transform="translate(27.450980, 0.403226)" id="Shape">
                    <g transform="translate(57.254902, 0.000000)">
                        <path d="M12.2698039,-0.0665322581 L1.30156863,-0.0665322581 C0.999215686,-0.0677419355 0.724705882,0.0459677419 0.515294118,0.263709677 C0.303137255,0.478629032 0.193333333,0.759677419 0.194901961,1.07056452 L0.194901961,1.07056452 L0.194901961,19.6544355 C0.193333333,19.9669355 0.303137255,20.246371 0.515294118,20.4620968 C0.724705882,20.6806452 0.998823529,20.7951613 1.30156863,20.7931452 L1.30705882,20.7931452 C1.60627451,20.7931452 1.87843137,20.6790323 2.08666667,20.4620968 C2.29843137,20.246371 2.41019608,19.9669355 2.40666667,19.6544355 L2.40666667,12.4298387 L9.1227451,12.4298387 C9.42509804,12.4318548 9.69764706,12.3173387 9.90588235,12.0987903 C10.1196078,11.8830645 10.2317647,11.6028226 10.2298039,11.2919355 C10.2317647,10.9818548 10.1196078,10.7008065 9.90588235,10.4850806 C9.69960784,10.2673387 9.4254902,10.1528226 9.1227451,10.1548387 L2.40666667,10.1532258 L2.40666667,2.21008065 L12.2694118,2.21008065 C12.5721569,2.2108871 12.8462745,2.09556452 13.0552941,1.87983871 C13.267451,1.66290323 13.3776471,1.38225806 13.3776471,1.07096774 C13.3776471,0.759677419 13.267451,0.479032258 13.0552941,0.264112903 C12.8466667,0.0455645161 12.572549,-0.0677419355 12.2698039,-0.0665322581 L12.2698039,-0.0665322581 Z" fill="url(#linearGradient-4)"></path>
                        <path d="M20.0105882,18.5169355 C19.3486275,18.4959677 18.8215686,18.35 18.4356863,18.0903226 C18.0352941,17.8225806 17.7258824,17.516129 17.5105882,17.1725806 C17.2898039,16.821371 17.1490196,16.4846774 17.0796078,16.1641129 C17.0070588,15.8266129 16.9729412,15.575 16.9729412,15.4262097 L16.9729412,1.07016129 C16.974902,0.758467742 16.8647059,0.479032258 16.6529412,0.262096774 C16.4407843,0.0443548387 16.1705882,-0.0689516129 15.8678431,-0.0669354839 C15.565098,-0.0685483871 15.2890196,0.0443548387 15.0831373,0.262096774 C14.8694118,0.479032258 14.7607843,0.758064516 14.7607843,1.07016129 L14.7607843,15.4262097 C14.7607843,15.9137097 14.8521569,16.4604839 15.0313725,17.0693548 C15.2129412,17.6850806 15.5117647,18.2689516 15.9266667,18.8149194 C16.3443137,19.366129 16.8843137,19.8270161 17.5439216,20.1979839 C18.2133333,20.5766129 19.0356863,20.7717742 20.0090196,20.7931452 L20.0145098,20.7931452 C20.3172549,20.7931452 20.5894118,20.6790323 20.7952941,20.4612903 C21.0070588,20.2455645 21.1211765,19.9657258 21.1176471,19.6552419 C21.1211765,19.3443548 21.0070588,19.0637097 20.7952941,18.846371 C20.5854902,18.6306452 20.3137255,18.5153226 20.0105882,18.5169355 L20.0105882,18.5169355 Z" fill="url(#linearGradient-5)"></path>
                        <path d="M35.2152941,3.15887097 C35.0062745,2.94112903 34.7333333,2.82782258 34.432549,2.82983871 C34.1301961,2.82782258 33.8580392,2.94153226 33.6462745,3.16008065 C33.4360784,3.37580645 33.3243137,3.65685484 33.3243137,3.96774194 L33.3243137,11.1762097 C33.3243137,11.9076613 33.192549,12.5854839 32.9309804,13.2185484 C32.6654902,13.8544355 32.3043137,14.4032258 31.84,14.8689516 C31.3772549,15.3395161 30.8345098,15.7080645 30.2152941,15.9790323 C29.6011765,16.2479839 28.9407843,16.3822581 28.2305882,16.3830645 C27.5203922,16.3822581 26.8588235,16.2479839 26.2447059,15.9790323 C25.627451,15.7084677 25.0858824,15.3395161 24.62,14.8689516 C24.1552941,14.4024194 23.7886275,13.8544355 23.514902,13.2165323 C23.2427451,12.5850806 23.1054902,11.9064516 23.1054902,11.1762097 L23.1054902,3.99959677 C23.1054902,3.68870968 22.9952941,3.40967742 22.7831373,3.19193548 C22.5741176,2.97419355 22.3015686,2.85887097 22.0003922,2.86169355 C21.6968627,2.85887097 21.4239216,2.97419355 21.2141176,3.19193548 C21.0019608,3.40967742 20.8882353,3.68870968 20.8921569,3.99959677 L20.8921569,3.99959677 L20.8921569,11.1762097 C20.8921569,12.1342742 21.0517647,13.0427419 21.367451,13.9028226 C21.6858824,14.7637097 22.1301961,15.5258065 22.7035294,16.1923387 C23.2764706,16.8564516 23.9478431,17.4008065 24.7215686,17.8254032 C25.4580392,18.2310484 26.2607843,18.5032258 27.1239216,18.6407258 L27.1239216,23.3201613 C27.1219608,23.6310484 27.2345098,23.9120968 27.4435294,24.1282258 C27.6541176,24.3459677 27.9278431,24.4600806 28.2305882,24.4592742 L28.2384314,24.4592742 C28.5372549,24.4592742 28.8054902,24.3451613 29.0156863,24.1282258 C29.2290196,23.9116935 29.3396078,23.6302419 29.3376471,23.3201613 L29.3376471,18.6072581 C30.1792157,18.4697581 30.9709804,18.1995968 31.7094118,17.7935484 C32.4819608,17.3693548 33.1564706,16.8241935 33.7262745,16.1592742 C34.2992157,15.4959677 34.7439216,14.7370968 35.0623529,13.8883065 C35.3796078,13.0395161 35.5392157,12.1346774 35.5392157,11.1766129 L35.5392157,3.96774194 C35.5392157,3.65645161 35.4294118,3.37580645 35.2152941,3.15887097 L35.2152941,3.15887097 Z" fill="url(#linearGradient-6)"></path>
                    </g>
                    <path d="M11.4396078,16.0080645 C11.3988235,16.0024194 11.3588235,15.9951613 11.3164706,15.9951613 C10.7768627,15.9951613 10.3392157,16.4451613 10.3392157,17.0004032 C10.3392157,17.0354839 10.3298039,17.2782258 10.3298039,17.3741935 C10.3298039,18.7818548 9.81176471,19.7967742 8.09882353,19.7967742 L3.94784314,19.7967742 C3.13960784,19.7931452 2.55176471,19.5201613 2.1827451,18.9758065 C1.81686275,18.4322581 1.6345098,17.6266129 1.63764706,16.5600806 L1.63764706,13.4850806 C1.6345098,12.4189516 1.8172549,11.6133065 2.1827451,11.0697581 C2.55176471,10.5254032 3.13960784,10.2524194 3.94784314,10.2487903 L8.09882353,10.2487903 C9.81176471,10.2487903 10.3298039,11.2637097 10.3298039,12.6709677 C10.3298039,12.7677419 10.3392157,13.0096774 10.3392157,13.0451613 C10.3392157,13.6004032 10.7768627,14.05 11.3164706,14.05 C11.6803922,14.05 11.9466667,13.8794355 12.0898039,13.653629 C12.232549,13.4282258 12.3078431,13.1270161 12.3113725,12.6709677 C12.3203922,11.6056452 11.8996078,10.1330645 11.1090196,9.27620968 C10.3815686,8.51693548 9.7027451,8.12782258 8.08980392,8.14758065 L3.93882353,8.14758065 C0.855686275,8.14758065 -0.191764706,10.1846774 -0.191764706,13.4935484 L-0.191764706,16.5520161 C-0.191764706,19.8612903 0.855686275,21.8979839 3.93882353,21.8979839 L8.08980392,21.8979839 C9.7027451,21.9177419 10.3811765,21.5290323 11.1090196,20.7697581 C11.9,19.9129032 12.3203922,18.4407258 12.3113725,17.3741935 C12.3078431,16.9189516 12.232549,16.6173387 12.0898039,16.3915323 C11.9466667,16.166129 11.6862745,16.0294355 11.4396078,16.0080645 L11.4396078,16.0080645 Z" fill="#7C5122"></path>
                    <path d="M22.6564706,8.14758065 L18.505098,8.14758065 C16.892549,8.12782258 16.2137255,8.51653226 15.4862745,9.27620968 C14.6952941,10.1334677 14.2745098,11.6056452 14.2835294,12.6709677 C14.2870588,13.1270161 14.3623529,13.4282258 14.505098,13.653629 C14.6482353,13.8794355 14.9086275,14.016129 15.1552941,14.0379032 C15.1956863,14.0427419 15.2360784,14.05 15.2780392,14.05 C15.8176471,14.05 16.2552941,13.6004032 16.2552941,13.0451613 C16.2552941,13.0096774 16.2643137,12.7677419 16.2643137,12.6709677 C16.2643137,11.2637097 16.7827451,10.2487903 18.4956863,10.2487903 L22.6466667,10.2487903 C23.454902,10.2524194 24.0423529,10.5254032 24.4117647,11.0697581 C24.7776471,11.6133065 24.9603922,12.4189516 24.9568627,13.4850806 L24.9568627,14.3177419 C24.3639216,13.9520161 23.607451,13.7564516 22.6556863,13.7564516 L18.5043137,13.7564516 C16.8917647,13.7370968 15.9847059,14.2862903 15.2572549,15.0459677 C14.932549,15.3971774 14.4027451,16.4955645 14.4027451,17.8270161 C14.4027451,19.158871 15.0047059,20.4145161 15.3301961,20.7669355 C16.0576471,21.5262097 16.8917647,21.9173387 18.5047059,21.8971774 L22.6560784,21.8971774 C23.6078431,21.8971774 24.3639216,21.7016129 24.9572549,21.3362903 C26.0235294,20.6782258 26.5556863,19.4641129 26.7239216,17.8266129 C26.765098,17.4254032 26.7866667,17.0016129 26.7866667,16.5512097 L26.7866667,13.4927419 C26.7870588,10.1842742 25.7396078,8.14758065 22.6564706,8.14758065 L22.6564706,8.14758065 Z M22.647451,19.7967742 L18.4964706,19.7967742 C16.9741176,19.7967742 16.2862745,18.9451613 16.2862745,17.8274194 C16.2862745,16.7100806 16.9737255,15.8580645 18.4964706,15.8580645 L22.647451,15.8580645 C23.4556863,15.8620968 24.8447059,16.1685484 24.8447059,17.8274194 C24.8447059,19.4866935 23.4556863,19.7927419 22.647451,19.7967742 L22.647451,19.7967742 Z" fill="#7C5122"></path>
                    <path d="M39.9533333,16.0080645 C39.912549,16.0024194 39.8729412,15.9951613 39.8309804,15.9951613 C39.2913725,15.9951613 38.8533333,16.4451613 38.8533333,17.0004032 C38.8533333,17.0354839 38.8439216,17.2782258 38.8439216,17.3741935 C38.8439216,18.7818548 38.3262745,19.7967742 36.6133333,19.7967742 L32.4619608,19.7967742 C31.6537255,19.7931452 31.0658824,19.5201613 30.6968627,18.9758065 C30.3305882,18.4322581 30.1482353,17.6266129 30.1517647,16.5600806 L30.1517647,13.4850806 C30.1482353,12.4189516 30.3309804,11.6133065 30.6968627,11.0697581 C31.0658824,10.5254032 31.6533333,10.2524194 32.4619608,10.2487903 L36.6133333,10.2487903 C38.3258824,10.2487903 38.8439216,11.2637097 38.8439216,12.6709677 C38.8439216,12.7677419 38.8533333,13.0096774 38.8533333,13.0451613 C38.8533333,13.6004032 39.2913725,14.05 39.8309804,14.05 C40.1945098,14.05 40.4603922,13.8794355 40.6039216,13.653629 C40.7466667,13.4282258 40.8219608,13.1270161 40.8254902,12.6709677 C40.8345098,11.6056452 40.4137255,10.1330645 39.6227451,9.27620968 C38.8956863,8.51693548 38.2164706,8.12782258 36.6043137,8.14758065 L32.4529412,8.14758065 C29.3698039,8.14758065 28.3227451,10.1846774 28.3227451,13.4935484 L28.3227451,16.5520161 C28.3227451,19.8612903 29.3698039,21.8979839 32.4529412,21.8979839 L36.6043137,21.8979839 C38.2164706,21.9177419 38.8956863,21.5290323 39.6227451,20.7697581 C40.4141176,19.9129032 40.834902,18.4407258 40.8254902,17.3741935 C40.8215686,16.9189516 40.7466667,16.6173387 40.6039216,16.3915323 C40.4603922,16.166129 40.2,16.0294355 39.9533333,16.0080645 L39.9533333,16.0080645 Z" fill="#7C5122"></path>
                    <path d="M51.1705882,8.14758065 L47.0192157,8.14758065 C45.4066667,8.12782258 44.727451,8.51653226 44,9.27620968 C43.2090196,10.1334677 42.7882353,11.6056452 42.7976471,12.6709677 C42.8015686,13.1270161 42.8760784,13.4282258 43.0188235,13.653629 C43.1619608,13.8794355 43.4223529,14.016129 43.6694118,14.0379032 C43.7101961,14.0427419 43.7498039,14.05 43.7917647,14.05 C44.3313725,14.05 44.7698039,13.6004032 44.7698039,13.0451613 C44.7698039,13.0096774 44.7788235,12.7677419 44.7788235,12.6709677 C44.7788235,11.2637097 45.2964706,10.2487903 47.0094118,10.2487903 L51.1611765,10.2487903 C51.9694118,10.2524194 52.5572549,10.5254032 52.9258824,11.0697581 C53.2921569,11.6133065 53.4741176,12.4189516 53.4713725,13.4850806 L53.4713725,14.3177419 C52.8780392,13.9520161 52.1215686,13.7564516 51.1705882,13.7564516 L47.0192157,13.7564516 C45.4066667,13.7370968 44.4992157,14.2862903 43.7717647,15.0459677 C43.4470588,15.3971774 42.9172549,16.4955645 42.9172549,17.8270161 C42.9172549,19.158871 43.5188235,20.4145161 43.8443137,20.7669355 C44.5717647,21.5262097 45.4062745,21.9173387 47.0192157,21.8971774 L51.1705882,21.8971774 C52.1215686,21.8971774 52.8780392,21.7016129 53.4713725,21.3362903 C54.5380392,20.6782258 55.0690196,19.4641129 55.2380392,17.8266129 C55.2788235,17.4254032 55.3007843,17.0016129 55.3007843,16.5512097 L55.3007843,13.4927419 C55.3011765,10.1842742 54.2533333,8.14758065 51.1705882,8.14758065 L51.1705882,8.14758065 Z M51.1615686,19.7967742 L47.0098039,19.7967742 C45.4878431,19.7967742 44.8003922,18.9451613 44.8003922,17.8274194 C44.8003922,16.7100806 45.4878431,15.8580645 47.0098039,15.8580645 L51.1615686,15.8580645 C51.9698039,15.8620968 53.3592157,16.1685484 53.3592157,17.8274194 C53.3588235,19.4866935 51.9694118,19.7927419 51.1615686,19.7967742 L51.1615686,19.7967742 Z" fill="#7C5122"></path>
                </g>
            </g>
        </g>
    </g>
</svg>