<?xml version="1.0" encoding="UTF-8" standalone="no"?>
<svg width="180px" height="48px" viewBox="0 0 180 48" version="1.1" xmlns="http://www.w3.org/2000/svg" xmlns:xlink="http://www.w3.org/1999/xlink" xmlns:sketch="http://www.bohemiancoding.com/sketch/ns">
    <title>Untitled</title>
    <description>Created with Sketch (http://www.bohemiancoding.com/sketch)</description>
    <defs>
        <linearGradient x1="85.5115964%" y1="6.51765888%" x2="14.765167%" y2="93.4792616%" id="linearGradient-1">
            <stop stop-color="#F99D1C" offset="0%"></stop>
            <stop stop-color="#F8951D" offset="7.22%"></stop>
            <stop stop-color="#F58120" offset="30.89%"></stop>
            <stop stop-color="#F37221" offset="54.44%"></stop>
            <stop stop-color="#F26922" offset="77.63%"></stop>
            <stop stop-color="#F26522" offset="100%"></stop>
        </linearGradient>
        <linearGradient x1="90.8326106%" y1="-11.8713216%" x2="17.5862966%" y2="122.755484%" id="linearGradient-2">
            <stop stop-color="#F99D1C" offset="0%"></stop>
            <stop stop-color="#F8951D" offset="7.22%"></stop>
            <stop stop-color="#F58120" offset="30.89%"></stop>
            <stop stop-color="#F37221" offset="54.44%"></stop>
            <stop stop-color="#F26922" offset="77.63%"></stop>
            <stop stop-color="#F26522" offset="100%"></stop>
        </linearGradient>
        <linearGradient x1="85.2668027%" y1="6.5158414%" x2="14.7278602%" y2="93.4836843%" id="linearGradient-3">
            <stop stop-color="#F99D1C" offset="0%"></stop>
            <stop stop-color="#F8951D" offset="7.22%"></stop>
            <stop stop-color="#F58120" offset="30.89%"></stop>
            <stop stop-color="#F37221" offset="54.44%"></stop>
            <stop stop-color="#F26922" offset="77.63%"></stop>
            <stop stop-color="#F26522" offset="100%"></stop>
        </linearGradient>
        <linearGradient x1="50.0021452%" y1="-0.000920567904%" x2="50.0021452%" y2="99.9998745%" id="linearGradient-4">
            <stop stop-color="#F99D1C" offset="0%"></stop>
            <stop stop-color="#F26522" offset="100%"></stop>
        </linearGradient>
        <linearGradient x1="50.0006087%" y1="0.000899961138%" x2="50.0006087%" y2="99.9998067%" id="linearGradient-5">
            <stop stop-color="#F99D1C" offset="0%"></stop>
            <stop stop-color="#F26522" offset="100%"></stop>
        </linearGradient>
        <linearGradient x1="49.999264%" y1="-0.000809869127%" x2="49.999264%" y2="99.998489%" id="linearGradient-6">
            <stop stop-color="#F99D1C" offset="0%"></stop>
            <stop stop-color="#F26522" offset="100%"></stop>
        </linearGradient>
    </defs>
    <g id="Page-1" stroke="none" stroke-width="1" fill="none" fill-rule="evenodd" sketch:type="MSPage">
        <g id="cacafly_logo" sketch:type="MSLayerGroup" transform="translate(0.000000, 6.000000)">
            <g id="Group" sketch:type="MSShapeGroup">
                <g id="Shape">
                    <path d="M18.9229412,30.1555968 C12.3258824,30.1555968 8.39058824,24.729129 10.1311765,18.0369032 C11.8735294,11.3452742 18.6282353,5.91880645 25.2235294,5.91880645 C29.5805882,5.91880645 32.7629412,8.29158065 33.9341176,11.8262742 L37.6335294,11.8262742 C36.83,4.89951613 31.5041176,-0.0232741935 23.7582353,-0.0232741935 C13.7370588,-0.0232741935 3.47,8.21877419 0.825882353,18.3866129 C-1.81705882,28.5550484 4.16294118,36.7959032 14.1858824,36.7959032 C20.8282353,36.7959032 27.5788235,33.1710968 32.1464706,27.7661129 L26.6429412,27.7661129 C24.2694118,29.2598387 21.5864706,30.1555968 18.9229412,30.1555968 L18.9229412,30.1555968 Z" fill="url(#linearGradient-1)"></path>
                    <path d="M29.4064706,25.6254839 L33.7770588,25.6254839 C34.7352941,24.2200806 35.5505882,22.7239677 36.1888235,21.164 L32.7917647,21.164 C31.9264706,22.8152742 30.7705882,24.3310806 29.4064706,25.6254839 L29.4064706,25.6254839 Z" fill="url(#linearGradient-2)"></path>
                    <path d="M15.8741176,18.0375 C14.97,21.5119194 17.0141176,24.3280968 20.4394118,24.3280968 C23.8635294,24.3280968 27.3723529,21.5119194 28.2776471,18.0375 C29.1794118,14.5624839 27.1370588,11.7457097 23.71,11.7457097 C20.2858824,11.7457097 16.7770588,14.5624839 15.8741176,18.0375 L15.8741176,18.0375 Z" fill="url(#linearGradient-3)"></path>
                </g>
                <g transform="translate(41.176471, 0.596774)" id="Shape">
                    <g transform="translate(85.882353, 0.000000)">
                        <path d="M18.4047059,-0.0984677419 L1.95235294,-0.0984677419 C1.49882353,-0.100258065 1.08705882,0.0680322581 0.772941176,0.390290323 C0.454705882,0.708370968 0.29,1.12432258 0.292352941,1.58443548 L0.292352941,1.58443548 L0.292352941,29.0885645 C0.29,29.5510645 0.454705882,29.964629 0.772941176,30.2839032 C1.08705882,30.6073548 1.49823529,30.7768387 1.95235294,30.7738548 L1.96058824,30.7738548 C2.40941176,30.7738548 2.81764706,30.6049677 3.13,30.2839032 C3.44764706,29.964629 3.61529412,29.5510645 3.61,29.0885645 L3.61,18.3961613 L13.6841176,18.3961613 C14.1376471,18.3991452 14.5464706,18.2296613 14.8588235,17.9062097 C15.1794118,17.5869355 15.3476471,17.1721774 15.3447059,16.7120645 C15.3476471,16.2531452 15.1794118,15.8371935 14.8588235,15.5179194 C14.5494118,15.1956613 14.1382353,15.0261774 13.6841176,15.0291613 L3.61,15.0267742 L3.61,3.27091935 L18.4041176,3.27091935 C18.8582353,3.2721129 19.2694118,3.10143548 19.5829412,2.78216129 C19.9011765,2.46109677 20.0664706,2.04574194 20.0664706,1.58503226 C20.0664706,1.12432258 19.9011765,0.708967742 19.5829412,0.390887097 C19.27,0.0674354839 18.8588235,-0.100258065 18.4047059,-0.0984677419 L18.4047059,-0.0984677419 Z" fill="url(#linearGradient-4)"></path>
                        <path d="M30.0158824,27.4050645 C29.0229412,27.3740323 28.2323529,27.158 27.6535294,26.7736774 C27.0529412,26.3774194 26.5888235,25.923871 26.2658824,25.4154194 C25.9347059,24.895629 25.7235294,24.3973226 25.6194118,23.9228871 C25.5105882,23.4233871 25.4594118,23.051 25.4594118,22.8307903 L25.4594118,1.58383871 C25.4623529,1.12253226 25.2970588,0.708967742 24.9794118,0.387903226 C24.6611765,0.0656451613 24.2558824,-0.102048387 23.8017647,-0.0990645161 C23.3476471,-0.101451613 22.9335294,0.0656451613 22.6247059,0.387903226 C22.3041176,0.708967742 22.1411765,1.12193548 22.1411765,1.58383871 L22.1411765,22.8307903 C22.1411765,23.5522903 22.2782353,24.3615161 22.5470588,25.2626452 C22.8194118,26.1739194 23.2676471,27.0380484 23.89,27.8460806 C24.5164706,28.661871 25.3264706,29.3439839 26.3158824,29.8930161 C27.32,30.4533871 28.5535294,30.7422258 30.0135294,30.7738548 L30.0217647,30.7738548 C30.4758824,30.7738548 30.8841176,30.6049677 31.1929412,30.2827097 C31.5105882,29.9634355 31.6817647,29.5492742 31.6764706,29.0897581 C31.6817647,28.6296452 31.5105882,28.2142903 31.1929412,27.892629 C30.8782353,27.5733548 30.4705882,27.4026774 30.0158824,27.4050645 L30.0158824,27.4050645 Z" fill="url(#linearGradient-5)"></path>
                        <path d="M52.8229412,4.67512903 C52.5094118,4.35287097 52.1,4.18517742 51.6488235,4.18816129 C51.1952941,4.18517742 50.7870588,4.35346774 50.4694118,4.67691935 C50.1541176,4.99619355 49.9864706,5.41214516 49.9864706,5.87225806 L49.9864706,16.5407903 C49.9864706,17.6233387 49.7888235,18.6265161 49.3964706,19.5634516 C48.9982353,20.5045645 48.4564706,21.3167742 47.76,22.0060484 C47.0658824,22.7024839 46.2517647,23.2479355 45.3229412,23.6489677 C44.4017647,24.0470161 43.4111765,24.2457419 42.3458824,24.2469355 C41.2805882,24.2457419 40.2882353,24.0470161 39.3670588,23.6489677 C38.4411765,23.2485323 37.6288235,22.7024839 36.93,22.0060484 C36.2329412,21.3155806 35.6829412,20.5045645 35.2723529,19.5604677 C34.8641176,18.6259194 34.6582353,17.6215484 34.6582353,16.5407903 L34.6582353,5.91940323 C34.6582353,5.45929032 34.4929412,5.04632258 34.1747059,4.72406452 C33.8611765,4.40180645 33.4523529,4.23112903 33.0005882,4.23530645 C32.5452941,4.23112903 32.1358824,4.40180645 31.8211765,4.72406452 C31.5029412,5.04632258 31.3323529,5.45929032 31.3382353,5.91940323 L31.3382353,5.91940323 L31.3382353,16.5407903 C31.3382353,17.9587258 31.5776471,19.3032581 32.0511765,20.5761774 C32.5288235,21.8502903 33.1952941,22.9781935 34.0552941,23.9646613 C34.9147059,24.9475484 35.9217647,25.7531935 37.0823529,26.3815968 C38.1870588,26.9819516 39.3911765,27.3847742 40.6858824,27.5882742 L40.6858824,34.5138387 C40.6829412,34.9739516 40.8517647,35.3899032 41.1652941,35.7097742 C41.4811765,36.0320323 41.8917647,36.2009194 42.3458824,36.1997258 L42.3576471,36.1997258 C42.8058824,36.1997258 43.2082353,36.0308387 43.5235294,35.7097742 C43.8435294,35.3893065 44.0094118,34.9727581 44.0064706,34.5138387 L44.0064706,27.5387419 C45.2688235,27.3352419 46.4564706,26.9354032 47.5641176,26.3344516 C48.7229412,25.7066452 49.7347059,24.8998065 50.5894118,23.9157258 C51.4488235,22.9340323 52.1158824,21.8109032 52.5935294,20.5546935 C53.0694118,19.2984839 53.3088235,17.9593226 53.3088235,16.5413871 L53.3088235,5.87225806 C53.3088235,5.41154839 53.1441176,4.99619355 52.8229412,4.67512903 L52.8229412,4.67512903 Z" fill="url(#linearGradient-6)"></path>
                    </g>
                    <path d="M17.1594118,23.6919355 C17.0982353,23.6835806 17.0382353,23.6728387 16.9747059,23.6728387 C16.1652941,23.6728387 15.5088235,24.3388387 15.5088235,25.1605968 C15.5088235,25.2125161 15.4947059,25.5717742 15.4947059,25.7138065 C15.4947059,27.7971452 14.7176471,29.2992258 12.1482353,29.2992258 L5.92176471,29.2992258 C4.70941176,29.2938548 3.82764706,28.8898387 3.27411765,28.0841935 C2.72529412,27.2797419 2.45176471,26.0873871 2.45647059,24.5089194 L2.45647059,19.9579194 C2.45176471,18.3800484 2.72588235,17.1876935 3.27411765,16.3832419 C3.82764706,15.5775968 4.70941176,15.1735806 5.92176471,15.1682097 L12.1482353,15.1682097 C14.7176471,15.1682097 15.4947059,16.6702903 15.4947059,18.7530323 C15.4947059,18.8962581 15.5088235,19.2543226 15.5088235,19.3068387 C15.5088235,20.1285968 16.1652941,20.794 16.9747059,20.794 C17.5205882,20.794 17.92,20.5415645 18.1347059,20.207371 C18.3488235,19.8737742 18.4617647,19.4279839 18.4670588,18.7530323 C18.4805882,17.1763548 17.8494118,14.9969355 16.6635294,13.7287903 C15.5723529,12.6050645 14.5541176,12.0291774 12.1347059,12.0584194 L5.90823529,12.0584194 C1.28352941,12.0584194 -0.287647059,15.0733226 -0.287647059,19.9704516 L-0.287647059,24.4969839 C-0.287647059,29.3947097 1.28352941,32.4090161 5.90823529,32.4090161 L12.1347059,32.4090161 C14.5541176,32.4382581 15.5717647,31.8629677 16.6635294,30.7392419 C17.85,29.4710968 18.4805882,27.2922742 18.4670588,25.7138065 C18.4617647,25.0400484 18.3488235,24.5936613 18.1347059,24.2594677 C17.92,23.925871 17.5294118,23.7235645 17.1594118,23.6919355 L17.1594118,23.6919355 Z" fill="#7C5122"></path>
                    <path d="M33.9847059,12.0584194 L27.7576471,12.0584194 C25.3388235,12.0291774 24.3205882,12.6044677 23.2294118,13.7287903 C22.0429412,14.9975323 21.4117647,17.1763548 21.4252941,18.7530323 C21.4305882,19.4279839 21.5435294,19.8737742 21.7576471,20.207371 C21.9723529,20.5415645 22.3629412,20.743871 22.7329412,20.7760968 C22.7935294,20.7832581 22.8541176,20.794 22.9170588,20.794 C23.7264706,20.794 24.3829412,20.1285968 24.3829412,19.3068387 C24.3829412,19.2543226 24.3964706,18.8962581 24.3964706,18.7530323 C24.3964706,16.6702903 25.1741176,15.1682097 27.7435294,15.1682097 L33.97,15.1682097 C35.1823529,15.1735806 36.0635294,15.5775968 36.6176471,16.3832419 C37.1664706,17.1876935 37.4405882,18.3800484 37.4352941,19.9579194 L37.4352941,21.1902581 C36.5458824,20.6489839 35.4111765,20.3595484 33.9835294,20.3595484 L27.7564706,20.3595484 C25.3376471,20.3309032 23.9770588,21.1437097 22.8858824,22.2680323 C22.3988235,22.7878226 21.6041176,24.4134355 21.6041176,26.3839839 C21.6041176,28.355129 22.5070588,30.2134839 22.9952941,30.7350645 C24.0864706,31.8587903 25.3376471,32.4376613 27.7570588,32.4078226 L33.9841176,32.4078226 C35.4117647,32.4078226 36.5458824,32.1183871 37.4358824,31.5777097 C39.0352941,30.6037742 39.8335294,28.8068871 40.0858824,26.3833871 C40.1476471,25.7895968 40.18,25.1623871 40.18,24.4957903 L40.18,19.9692581 C40.1805882,15.0727258 38.6094118,12.0584194 33.9847059,12.0584194 L33.9847059,12.0584194 Z M33.9711765,29.2992258 L27.7447059,29.2992258 C25.4611765,29.2992258 24.4294118,28.0388387 24.4294118,26.3845806 C24.4294118,24.7309194 25.4605882,23.4699355 27.7447059,23.4699355 L33.9711765,23.4699355 C35.1835294,23.4759032 37.2670588,23.9294516 37.2670588,26.3845806 C37.2670588,28.8403065 35.1835294,29.2932581 33.9711765,29.2992258 L33.9711765,29.2992258 Z" fill="#7C5122"></path>
                    <path d="M59.93,23.6919355 C59.8688235,23.6835806 59.8094118,23.6728387 59.7464706,23.6728387 C58.9370588,23.6728387 58.28,24.3388387 58.28,25.1605968 C58.28,25.2125161 58.2658824,25.5717742 58.2658824,25.7138065 C58.2658824,27.7971452 57.4894118,29.2992258 54.92,29.2992258 L48.6929412,29.2992258 C47.4805882,29.2938548 46.5988235,28.8898387 46.0452941,28.0841935 C45.4958824,27.2797419 45.2223529,26.0873871 45.2276471,24.5089194 L45.2276471,19.9579194 C45.2223529,18.3800484 45.4964706,17.1876935 46.0452941,16.3832419 C46.5988235,15.5775968 47.48,15.1735806 48.6929412,15.1682097 L54.92,15.1682097 C57.4888235,15.1682097 58.2658824,16.6702903 58.2658824,18.7530323 C58.2658824,18.8962581 58.28,19.2543226 58.28,19.3068387 C58.28,20.1285968 58.9370588,20.794 59.7464706,20.794 C60.2917647,20.794 60.6905882,20.5415645 60.9058824,20.207371 C61.12,19.8737742 61.2329412,19.4279839 61.2382353,18.7530323 C61.2517647,17.1763548 60.6205882,14.9969355 59.4341176,13.7287903 C58.3435294,12.6050645 57.3247059,12.0291774 54.9064706,12.0584194 L48.6794118,12.0584194 C44.0547059,12.0584194 42.4841176,15.0733226 42.4841176,19.9704516 L42.4841176,24.4969839 C42.4841176,29.3947097 44.0547059,32.4090161 48.6794118,32.4090161 L54.9064706,32.4090161 C57.3247059,32.4382581 58.3435294,31.8629677 59.4341176,30.7392419 C60.6211765,29.4710968 61.2523529,27.2922742 61.2382353,25.7138065 C61.2323529,25.0400484 61.12,24.5936613 60.9058824,24.2594677 C60.6905882,23.925871 60.3,23.7235645 59.93,23.6919355 L59.93,23.6919355 Z" fill="#7C5122"></path>
                    <path d="M76.7558824,12.0584194 L70.5288235,12.0584194 C68.11,12.0291774 67.0911765,12.6044677 66,13.7287903 C64.8135294,14.9975323 64.1823529,17.1763548 64.1964706,18.7530323 C64.2023529,19.4279839 64.3141176,19.8737742 64.5282353,20.207371 C64.7429412,20.5415645 65.1335294,20.743871 65.5041176,20.7760968 C65.5652941,20.7832581 65.6247059,20.794 65.6876471,20.794 C66.4970588,20.794 67.1547059,20.1285968 67.1547059,19.3068387 C67.1547059,19.2543226 67.1682353,18.8962581 67.1682353,18.7530323 C67.1682353,16.6702903 67.9447059,15.1682097 70.5141176,15.1682097 L76.7417647,15.1682097 C77.9541176,15.1735806 78.8358824,15.5775968 79.3888235,16.3832419 C79.9382353,17.1876935 80.2111765,18.3800484 80.2070588,19.9579194 L80.2070588,21.1902581 C79.3170588,20.6489839 78.1823529,20.3595484 76.7558824,20.3595484 L70.5288235,20.3595484 C68.11,20.3309032 66.7488235,21.1437097 65.6576471,22.2680323 C65.1705882,22.7878226 64.3758824,24.4134355 64.3758824,26.3839839 C64.3758824,28.355129 65.2782353,30.2134839 65.7664706,30.7350645 C66.8576471,31.8587903 68.1094118,32.4376613 70.5288235,32.4078226 L76.7558824,32.4078226 C78.1823529,32.4078226 79.3170588,32.1183871 80.2070588,31.5777097 C81.8070588,30.6037742 82.6035294,28.8068871 82.8570588,26.3833871 C82.9182353,25.7895968 82.9511765,25.1623871 82.9511765,24.4957903 L82.9511765,19.9692581 C82.9517647,15.0727258 81.38,12.0584194 76.7558824,12.0584194 L76.7558824,12.0584194 Z M76.7423529,29.2992258 L70.5147059,29.2992258 C68.2317647,29.2992258 67.2005882,28.0388387 67.2005882,26.3845806 C67.2005882,24.7309194 68.2317647,23.4699355 70.5147059,23.4699355 L76.7423529,23.4699355 C77.9547059,23.4759032 80.0388235,23.9294516 80.0388235,26.3845806 C80.0382353,28.8403065 77.9541176,29.2932581 76.7423529,29.2992258 L76.7423529,29.2992258 Z" fill="#7C5122"></path>
                </g>
            </g>
        </g>
    </g>
</svg>