<?xml version="1.0" encoding="UTF-8" standalone="no"?>
<svg width="24px" height="24px" viewBox="0 0 24 24" version="1.1" xmlns="http://www.w3.org/2000/svg" xmlns:xlink="http://www.w3.org/1999/xlink" xmlns:sketch="http://www.bohemiancoding.com/sketch/ns">
    <title>Safari 1200</title>
    <description>Created with Sketch (http://www.bohemiancoding.com/sketch)</description>
    <defs></defs>
    <g id="Page-1" stroke="none" stroke-width="1" fill="none" fill-rule="evenodd" sketch:type="MSPage">
        <g id="Safari-1200" sketch:type="MSArtboardGroup" transform="translate(-822.000000, -128.000000)">
            <text id="Google-/-Youtube" fill="#535353" sketch:type="MSTextLayer" font-family="Heiti TC" font-size="14" font-weight="260">
                <tspan x="773" y="163.5">Google / Youtube</tspan>
            </text>
            <path d="M843.186789,149.22325 C843.033778,149.371099 839.402178,150.123931 839.402178,150.123931 C838.055699,150.433257 836.554579,150.587918 834.898773,150.587918 C831.441596,150.587918 828.766873,149.487097 826.874523,147.285421 C825.2915,145.429462 824.5,143.236917 824.5,140.707719 C824.5,137.923782 825.464356,135.55838 827.393097,133.611444 C829.467403,131.537138 832.178517,130.5 835.52652,130.5 C836.945782,130.5 838.33773,130.691052 839.702405,131.073161 C840.957907,131.418878 843.305129,132.573283 843.30513,132.765349 C843.30513,132.957416 840.626075,135.581124 840.474418,135.432301 C840.32276,135.283479 840.433513,134.048138 840.433513,134.048138 C838.668534,132.337745 837.054959,131.482561 834.926066,131.482561 C832.742586,131.482561 830.936693,132.233121 829.508333,133.734264 C828.079973,135.235407 827.365804,137.168668 827.365804,139.534104 C827.365804,142.227063 828.230085,144.528781 829.958673,146.439326 C831.814632,148.477241 834.170935,149.496183 837.027655,149.496183 C838.210374,149.496183 840.228425,149.015529 840.395296,148.813849 C840.562167,148.612169 840.493913,144.61457 840.493913,144.61457 C840.493913,144.61457 836.513575,144.669823 836.372615,144.55907 C836.231654,144.448318 838.556084,143.464349 838.556084,143.464349 C838.556084,143.464349 844.156214,143.464349 844.440895,143.464349 C844.725576,143.46435 843.63265,144.146684 843.63265,144.146684 C843.487085,144.292249 843.396108,144.437812 843.359717,144.583377 C843.323325,144.910899 843.30513,145.347589 843.30513,145.893459 C843.30513,145.893459 843.3398,149.0754 843.186789,149.22325 Z" id="G" stroke="#777777" sketch:type="MSShapeGroup"></path>
        </g>
    </g>
</svg>