<?xml version="1.0" encoding="UTF-8" standalone="no"?>
<svg width="24px" height="24px" viewBox="0 0 24 24" version="1.1" xmlns="http://www.w3.org/2000/svg" xmlns:xlink="http://www.w3.org/1999/xlink" xmlns:sketch="http://www.bohemiancoding.com/sketch/ns">
    <title>Untitled</title>
    <description>Created with Sketch (http://www.bohemiancoding.com/sketch)</description>
    <defs></defs>
    <g id="Page-1" stroke="none" stroke-width="1" fill="none" fill-rule="evenodd" sketch:type="MSPage">
        <g id="nav-icon-about" sketch:type="MSLayerGroup" transform="translate(1.000000, 0.000000)" stroke="#F26622">
            <g id="Page-1" sketch:type="MSShapeGroup">
                <g id="Safari-1200">
                    <g id="about" transform="translate(0.000000, 0.500000)">
                        <path d="M10.8938054,-0.00078316 C19.3893805,-0.00099278 20.9543897,-0.00025289 20.9543897,-0.00025289 C21.503685,-0.00011322 21.9489768,0.448974391 21.9489768,1.00239092 L21.9489768,9.08147696 L21.9489767,16.1566497 C21.9489767,16.7124431 21.4980686,17.1630028 20.9441405,17.1630029 L19.2765207,17.1630032 C18.721565,17.1630032 18.2726828,17.6036597 18.2739296,18.1539742 L18.2846553,22.8880459 C18.2858952,23.4353441 18.0082794,23.5179348 17.6720762,23.0822285 L13.7194602,17.9597913 C13.3799022,17.5197372 12.6500915,17.1630029 12.1071332,17.1630029 L10.8938053,17.1630028 L0.976742344,17.1630025 C0.41931806,17.1630027 -0.0325636338,16.7142119 -0.0325636611,16.1566497 L-0.0325636062,9.08147696 C-0.0325631536,4.54073854 -0.0325635256,1.11786333 -0.0325635256,1.11786333 C-0.0325635701,0.56231854 0.414805014,0.096310426 0.976742366,0.081201564 C0.976742366,0.081201564 2.39823018,-0.00057355 10.8938054,-0.00078316 L10.8938054,-0.00078316 Z" id="Path-28"></path>
                        <path d="M12.0089169,12.9708826 C12.0089169,13.4154709 11.9100141,13.7516181 11.7122055,13.979334 C11.5143969,14.20705 11.2633359,14.3209063 10.9590151,14.3209063 C10.6546942,14.3209063 10.4074371,14.2043392 10.2172366,13.9712014 C10.027036,13.7380636 9.93193717,13.4046273 9.93193717,12.9708826 L9.93193717,8.6192651 C9.93193717,8.18009857 10.027036,7.84937318 10.2172366,7.62707901 C10.4074371,7.40478484 10.6546942,7.29363942 10.9590151,7.29363942 C11.2633359,7.29363942 11.5143969,7.40478484 11.7122055,7.62707901 C11.9100141,7.84937318 12.0089169,8.15841166 12.0089169,8.55420371 L12.0089169,12.9708826 L12.0089169,12.9708826 Z M10.981839,5.26078997 C10.6927342,5.26078997 10.4454771,5.16590973 10.2400605,4.97614642 C10.0346439,4.7863831 9.93193717,4.51800758 9.93193717,4.1710118 C9.93193717,3.85654688 10.0371799,3.59765938 10.2476685,3.39434154 C10.4581571,3.19102371 10.7028782,3.08936631 10.981839,3.08936631 C11.2506558,3.08936631 11.4890369,3.18153568 11.6969895,3.36587719 C11.9049421,3.5502187 12.0089169,3.81859422 12.0089169,4.1710118 C12.0089169,4.51258577 11.9074781,4.77960586 11.7045975,4.97208008 C11.5017169,5.1645543 11.2607998,5.26078997 10.981839,5.26078997 L10.981839,5.26078997 Z" id="i"></path>
                    </g>
                </g>
            </g>
        </g>
    </g>
</svg>