<?xml version="1.0" encoding="UTF-8" standalone="no"?>
<svg width="24px" height="24px" viewBox="0 0 24 24" version="1.1" xmlns="http://www.w3.org/2000/svg" xmlns:xlink="http://www.w3.org/1999/xlink" xmlns:sketch="http://www.bohemiancoding.com/sketch/ns">
    <!-- Generator: Sketch 3.0.2 (7799) - http://www.bohemiancoding.com/sketch -->
    <title>nav-icon-google-hover</title>
    <description>Created with Sketch.</description>
    <defs></defs>
    <g id="Page-1" stroke="none" stroke-width="1" fill="none" fill-rule="evenodd" sketch:type="MSPage">
        <g id="nav-icon-google-hover" sketch:type="MSLayerGroup" transform="translate(2.000000, 1.000000)" fill="#F26622">
            <g id="Page-1" transform="translate(-0.500000, 0.000000)" sketch:type="MSShapeGroup">
                <g id="nav-icon-google">
                    <g id="Page-1">
                        <g id="Safari-1200">
                            <path d="M18.5197296,18.9131279 C18.2464351,18.983983 17.8757584,19.0721576 17.4289223,19.1734501 C17.3087241,19.2006309 17.3087241,19.2006309 17.1878496,19.2277188 C16.7752502,19.3199897 16.3327813,19.4160497 15.8902569,19.5101944 C15.6247197,19.5666861 15.4183097,19.6099565 15.3006856,19.6343401 C13.9822808,19.9370991 12.5184497,20.087918 10.898773,20.087918 C7.58072102,20.087918 5.04592746,19.0446868 3.2537085,16.9595094 C1.74988143,15.1963953 1,13.1191377 1,10.707719 C1,8.05500067 1.91273201,5.81622408 3.74830629,3.9633337 C5.72349599,1.98815179 8.30655899,1 11.52652,1 C12.9002263,1 14.2468154,1.18482611 15.56759,1.55464301 C16.1166807,1.70584628 16.9596595,2.04558866 17.758793,2.42791272 C18.1198222,2.60063748 18.4401638,2.76742218 18.6657106,2.89977172 C18.7717497,2.9619948 18.8521526,3.01395276 18.899353,3.04981118 C18.8278712,2.99550607 18.8051311,2.97069719 18.80513,2.7653516 C18.80513,2.61250365 18.7736811,2.66006459 18.8028495,2.62443966 C18.7390306,2.7023852 18.6419545,2.81120195 18.5192484,2.94219661 C18.2731442,3.20492483 17.9399934,3.53985658 17.6003357,3.86600707 C17.2451249,4.20709219 16.9103225,4.51228298 16.6597984,4.72194673 C16.5323896,4.82857519 16.430633,4.90718259 16.3643485,4.95088994 C16.526813,4.84376247 16.570773,4.82632426 16.8246212,5.07542892 C16.9086479,5.15788425 16.905223,5.14455132 16.9041349,5.13284752 C16.895494,5.03991033 16.8927166,4.9105501 16.8955744,4.75681986 C16.8979822,4.62729898 16.9041905,4.48722959 16.9130379,4.34491132 C16.9200459,4.23218049 16.9270177,4.14295575 16.9315156,4.09278582 L16.9528225,3.85512844 L16.7814704,3.6890758 C14.8479181,1.81532302 13.1143516,0.982561 10.926066,0.982561 C8.60764185,0.982561 6.67028207,1.78776099 5.14610741,3.38960094 C3.6258366,4.98733812 2.865804,7.04475158 2.865804,9.534104 C2.865804,12.3495534 3.77510151,14.7711572 5.58790508,16.7747826 C7.54069282,18.9190233 10.0316246,19.996183 13.027655,19.996183 C14.2533196,19.996183 16.4603109,19.5196046 16.7805275,19.1325914 C16.9766483,18.8955601 16.9988372,18.3945489 17.0068382,16.7205473 C17.0092784,16.2099924 17.0066557,15.6635604 17.0007926,15.127378 C16.9981896,14.8893348 16.995584,14.7081736 16.9938401,14.6060344 L16.9853317,14.1077002 L16.4869729,14.1146182 C16.3635998,14.1163308 16.1465925,14.1189059 15.8664412,14.1214824 C15.3779404,14.1259749 14.8882346,14.1285801 14.4316128,14.1283371 C13.8783563,14.1280428 13.413872,14.1235407 13.0685875,14.1140843 C12.8773574,14.1088471 12.7263039,14.1021565 12.6214619,14.0941949 C12.5732362,14.0905326 12.5373714,14.086767 12.5174594,14.0836506 C12.5716163,14.0921267 12.5961342,14.0988182 12.6815236,14.1659091 C12.9091346,14.3447414 12.909475,14.6189008 12.7936361,14.8001415 C12.7639509,14.8465867 12.7435292,14.8665129 12.7247481,14.8811554 C12.7420798,14.8676429 12.791405,14.8369215 12.8625884,14.7973686 C13.0135049,14.7135121 13.2399568,14.6015133 13.5222213,14.4699537 C13.5957204,14.4357935 13.5957204,14.4357935 13.6698076,14.4017144 C13.9059627,14.2933437 14.1596692,14.1805294 14.4134691,14.0700817 C14.565776,14.0038013 14.6840181,13.9531465 14.7509975,13.9247931 L14.556084,13.964349 L20.440895,13.964349 C20.3700159,13.9643488 20.2940592,13.9487359 20.2048504,13.8903288 C20.0447202,13.7854879 19.9678516,13.6001724 19.992831,13.4236226 C20.0101407,13.3012809 20.0374598,13.2621292 20.076871,13.2217455 C20.0456246,13.253763 19.9633004,13.3194089 19.8519636,13.3993269 C19.8138259,13.4265462 19.8138259,13.4265462 19.7747303,13.4538895 C19.6225218,13.5598661 19.468321,13.6598343 19.3678584,13.722555 L19.2790966,13.7931306 C19.0737726,13.9984546 18.9350832,14.2203576 18.8746456,14.46211 C18.824044,14.8767354 18.80513,15.3306715 18.80513,15.893459 C18.8055709,15.9365927 18.8055709,15.9365927 18.8068262,16.1051906 C18.8098288,16.572395 18.8092494,17.0789467 18.8026083,17.5540242 C18.7964856,17.9920225 18.7856052,18.3602232 18.7693909,18.633604 C18.760625,18.781402 18.7504654,18.8976984 18.7395767,18.9761015 C18.7442162,18.9426952 18.739626,18.9600465 18.8393516,18.8636846 C18.9059536,18.7993295 18.6672102,18.8748917 18.5197296,18.9131279 Z M19.8025106,17.5680016 C19.8092615,17.0850661 19.8098481,16.5721975 19.8068055,16.098764 C19.805532,15.9276862 19.805532,15.9276862 19.8051003,15.8880114 C19.80513,15.3644975 19.8226066,14.9450572 19.8566588,14.6385938 C19.8571327,14.6552667 19.9003971,14.5860437 19.9862034,14.5002374 L19.63265,14.146684 L19.8974416,14.570813 C20.0108692,14.499998 20.1775038,14.391969 20.3461306,14.274561 C20.3906055,14.2434566 20.3906055,14.2434566 20.4350932,14.2117061 C20.5911083,14.0997177 20.7093366,14.0054416 20.7925423,13.9201827 C20.8969831,13.8131648 20.9605688,13.7220384 20.9829696,13.563714 C21.0397113,13.1626747 20.7367975,12.96435 20.4408968,12.964349 L14.556084,12.964349 L14.3611705,13.0039049 C14.291298,13.0334831 14.1700493,13.085426 14.0144394,13.1531437 C13.7550446,13.2660262 13.4955565,13.3814113 13.2527299,13.4928436 C13.1761199,13.528083 13.1761199,13.528083 13.0997678,13.5635691 C12.7977876,13.7043179 12.5530281,13.8253714 12.3768837,13.9232457 C12.2641203,13.9859024 12.1772053,14.0400359 12.1098929,14.0925153 C12.0466029,14.1418587 11.99603,14.1912045 11.9510375,14.2615994 C11.8194056,14.4675495 11.8197694,14.7605714 12.0637095,14.9522333 C12.2761041,15.1191128 12.5768883,15.1273505 14.4310808,15.128337 C14.8913301,15.1285819 15.3841393,15.1259602 15.8756374,15.1214401 C16.1574726,15.1188481 16.3760102,15.1162548 16.5008531,15.1145218 L15.9939859,14.6231056 C15.9956967,14.7233076 15.9982732,14.9024547 16.0008523,15.1383123 C16.0066627,15.6696699 16.0092616,16.2111282 16.0068496,16.7157678 C16.0042083,17.2683861 15.995653,17.7337346 15.9802482,18.0815684 C15.9717978,18.2723735 15.9614115,18.4238123 15.9495,18.5293003 C15.9485343,18.5378523 15.9390894,18.580887 16.0100645,18.4951066 C15.9513318,18.5660909 13.9596143,18.996183 13.027655,18.996183 C10.3102457,18.996183 8.08857139,18.0354589 6.32834413,16.1026611 C4.68506869,14.286405 3.865804,12.1045729 3.865804,9.534104 C3.865804,7.29258379 4.53410978,5.48347547 5.87055859,4.07892706 C7.20310371,2.67848124 8.87752982,1.982561 10.926066,1.982561 C12.8288989,1.982561 14.3253208,2.70140469 16.0855556,4.4072002 L15.9355104,4.00349018 C15.9302524,4.06213766 15.9225904,4.16019671 15.9149646,4.28286504 C15.9052812,4.43863146 15.8984528,4.59269271 15.8957472,4.73823319 C15.8848698,5.32335477 15.9084982,5.57749045 16.1242171,5.78917541 C16.3232697,5.98450835 16.5180218,5.972116 16.7155665,5.89375314 C16.7808736,5.86784687 16.8441221,5.83236144 16.9148361,5.78573332 C17.0189874,5.71705693 17.1475526,5.61773978 17.3015957,5.48882102 C17.5720727,5.26245874 17.9226756,4.94286495 18.292955,4.58731043 C19.3512445,3.57110599 19.80513,3.08656117 19.80513,2.765349 C19.805127,2.18853531 17.3218815,1.0004929 15.8351453,0.591102893 C14.4286435,0.197277584 12.9913366,0 11.52652,0 C8.05047566,0 5.21131041,1.08612381 3.03954361,3.25789061 C1.01598036,5.30053555 0,7.79256279 0,10.707719 C0,13.3546954 0.833118055,15.662528 2.49410594,17.6098942 C4.48781832,19.9295069 7.30247057,21.087918 10.898773,21.087918 C12.5907067,21.087918 14.129116,20.9294152 15.5141267,20.6112374 C15.6228954,20.5888066 15.8309713,20.5451868 16.0983446,20.4883046 C16.5440044,20.3934929 16.9897196,20.2967281 17.406092,20.2036134 C17.5283013,20.1762264 17.5283013,20.1762264 17.6500014,20.148706 C18.9862086,19.8458035 19.3632117,19.7480607 19.5342252,19.5828166 C19.7633942,19.3613773 19.781773,19.0515014 19.8025106,17.5680016 Z" id="G"></path>
                        </g>
                    </g>
                </g>
            </g>
        </g>
    </g>
</svg>