<?xml version="1.0" encoding="UTF-8" standalone="no"?>
<svg width="32px" height="32px" viewBox="0 0 32 32" version="1.1" xmlns="http://www.w3.org/2000/svg" xmlns:xlink="http://www.w3.org/1999/xlink" xmlns:sketch="http://www.bohemiancoding.com/sketch/ns">
    <title>Untitled</title>
    <description>Created with Sketch (http://www.bohemiancoding.com/sketch)</description>
    <defs></defs>
    <g id="Page-1" stroke="none" stroke-width="1" fill="none" fill-rule="evenodd" sketch:type="MSPage">
        <g id="Imported-Layers" sketch:type="MSLayerGroup" transform="translate(8.000000, 6.000000)" fill="#FFFFFF">
            <path d="M13.6805714,0.739903846 C13.6805714,0.739903846 11.9262857,6.04965278 11.472,6.33840812 C11.472,6.33840812 12.5108571,6.68400107 12.1217143,7.49190705 C11.732,8.29981303 9.58685714,13.1477564 7.63828571,14.4174679 C7.63828571,14.4174679 7.11828571,14.7630609 6.53371429,14.474813 L2.11485714,18.9182959 C2.11485714,18.9182959 3.54457143,20.1301549 5.75314286,19.4384615 C7.96285714,18.7457532 16.3457143,12.3971955 15.8908571,2.35571581 C15.8908571,2.35571581 15.4354286,0.856116453 13.6805714,0.739903846" id="Fill-1" sketch:type="MSShapeGroup"></path>
            <path d="M12.7714286,0.451655983 L10.692,5.99129274 C10.692,5.99129274 9.58685714,5.87660256 9.19771429,5.41428953 C8.808,4.95248397 9.00228571,5.06869658 9.26228571,4.20344551 C9.52228571,3.33717949 10.6274286,0.79775641 10.6274286,0.79775641 C10.6274286,0.79775641 11.0828571,0.106063034 11.6662857,0.16340812 C12.2514286,0.220753205 12.7714286,0.451655983 12.7714286,0.451655983" id="Fill-2" sketch:type="MSShapeGroup"></path>
            <path d="M5.576,13.977484 L1.41314286,18.4970887 C1.41314286,18.4970887 0.427428571,18.0398504 0.248,17.4851763 C0.068,16.9299947 0.204,17.1005075 0.793714286,16.3727831 C1.384,15.6465812 3.43428571,13.6222489 3.43428571,13.6222489 C3.43428571,13.6222489 4.136,13.1198451 4.65942857,13.3578526 C5.18285714,13.596875 5.576,13.977484 5.576,13.977484" id="Fill-3" sketch:type="MSShapeGroup"></path>
        </g>
    </g>
</svg>