<?xml version="1.0" encoding="UTF-8" standalone="no"?>
<svg width="24px" height="24px" viewBox="0 0 24 24" version="1.1" xmlns="http://www.w3.org/2000/svg" xmlns:xlink="http://www.w3.org/1999/xlink" xmlns:sketch="http://www.bohemiancoding.com/sketch/ns">
    <!-- Generator: Sketch 3.0.1 (7597) - http://www.bohemiancoding.com/sketch -->
    <title>nav-icon-english-hover</title>
    <description>Created with Sketch.</description>
    <defs></defs>
    <g id="Page-1" stroke="none" stroke-width="1" fill="none" fill-rule="evenodd" sketch:type="MSPage">
        <g id="nav-icon-english-hover" sketch:type="MSLayerGroup" transform="translate(0.500000, 4.500000)" fill="#F26622">
            <path d="M12.28,4.66087591 L12.28,5.16270073 L12.28,14.9181752 L12.28,15.42 L12.7626255,15.42 L15.6583784,15.42 L16.1410039,15.42 L16.1410039,14.9181752 L16.1410039,10.0605109 C16.1410039,9.76159602 16.1588897,9.47643595 16.1944933,9.20495644 C16.2254247,8.96910282 16.28816,8.76297297 16.3817632,8.58368661 C16.461391,8.43116868 16.5753778,8.3104924 16.7316752,8.21569197 C16.8822605,8.12435614 17.1021199,8.07328467 17.3958301,8.07328467 C17.6706375,8.07328467 17.8548503,8.12493616 17.9594531,8.20914055 C18.0895804,8.31389193 18.1849909,8.44760439 18.2500023,8.61885182 C18.3277339,8.82360559 18.3750408,9.05042081 18.3911075,9.30100863 C18.4097125,9.59118407 18.4189961,9.87112098 18.4189961,10.1408029 L18.4189961,14.9181752 L18.4189961,15.42 L18.9016216,15.42 L21.7973745,15.42 L22.28,15.42 L22.28,14.9181752 L22.28,9.53861314 C22.28,8.85615165 22.2329231,8.21980639 22.1382982,7.62947131 C22.038065,7.0041476 21.8456195,6.45292565 21.5591799,5.97944515 C21.2603316,5.48545338 20.842492,5.0988223 20.3143695,4.82425643 C19.7894002,4.55132987 19.1253951,4.42 18.322471,4.42 C17.9286796,4.42 17.559678,4.47371533 17.2166981,4.58225307 C16.8828781,4.68789209 16.5817215,4.82536684 16.3140492,4.99545163 C16.0456305,5.16601075 16.0251737,5.16270073 16.0251737,5.16270073 L16.0251737,4.66087591 L15.5425483,4.66087591 L12.7626255,4.66087591 L12.28,4.66087591 Z M15.0684615,5.42000001 L15.0684615,6.27802469 L15.0684615,6.79242798 L15.5492308,6.79242798 L15.5876923,6.79242798 L15.884824,6.79242798 L16.0177054,6.50807284 C16.0858847,6.36217476 16.1876508,6.20973494 16.3246123,6.05191929 C16.4605822,5.89524605 16.6250043,5.75337121 16.8191587,5.6264207 C17.0140566,5.49898398 17.2396941,5.39299348 17.4969046,5.30923554 C17.7449904,5.22844897 18.0184272,5.18748971 18.3184615,5.18748971 C18.9801714,5.18748971 19.4981956,5.29292047 19.8726858,5.49326502 C20.2440349,5.69192916 20.5265133,5.96089526 20.7288169,6.30500572 C20.9434815,6.67014157 21.0915164,7.10646472 21.1711568,7.6177361 C21.2563839,8.16487313 21.2992308,8.76085042 21.2992308,9.40559671 L21.2992308,14.42 L19.3761538,14.42 L19.3761538,10.0228807 C19.3761538,9.72318773 19.3661712,9.41343955 19.3462429,9.09360133 C19.323786,8.73318322 19.2555276,8.39641638 19.1406515,8.08503779 C19.0131043,7.739313 18.813279,7.45114123 18.5454679,7.2292985 C18.2522305,6.98639376 17.8652276,6.87473251 17.3953846,6.87473251 C16.9443717,6.87473251 16.5608275,6.96641239 16.2492928,7.16085447 C15.9434482,7.35174511 15.7044361,7.61212797 15.5401666,7.93589925 C15.3898189,8.23223113 15.2920581,8.56276726 15.245947,8.9245714 C15.2044902,9.24985667 15.1838462,9.58854399 15.1838462,9.94057613 L15.1838462,14.42 L13.2607692,14.42 L13.2607692,5.42000001 L15.0684615,5.42000001 Z" id="Path" sketch:type="MSShapeGroup"></path>
            <g id="Page-1" sketch:type="MSShapeGroup">
                <path d="M0.28,0.42 L0.28,0.92 L0.28,15.08 L0.28,15.58 L0.78,15.58 L10.76,15.58 L11.26,15.58 L11.26,15.08 L11.26,12.2 L11.26,11.7 L10.76,11.7 L3.9,11.7 L4.4,12.2 L4.4,9.32 L3.9,9.82 L10.04,9.82 L10.54,9.82 L10.54,9.32 L10.54,6.44 L10.54,5.94 L10.04,5.94 L3.9,5.94 L4.4,6.44 L4.4,3.8 L3.9,4.3 L10.4,4.3 L10.9,4.3 L10.9,3.8 L10.9,0.92 L10.9,0.42 L10.4,0.42 L0.78,0.42 L0.28,0.42 Z M10.4,1.42 L9.9,0.92 L9.9,3.8 L10.4,3.3 L3.9,3.3 L3.4,3.3 L3.4,3.8 L3.4,6.44 L3.4,6.94 L3.9,6.94 L10.04,6.94 L9.54,6.44 L9.54,9.32 L10.04,8.82 L3.9,8.82 L3.4,8.82 L3.4,9.32 L3.4,12.2 L3.4,12.7 L3.9,12.7 L10.76,12.7 L10.26,12.2 L10.26,15.08 L10.76,14.58 L0.78,14.58 L1.28,15.08 L1.28,0.92 L0.78,1.42 L10.4,1.42 Z" id="En"></path>
            </g>
        </g>
    </g>
</svg>