<?xml version="1.0" encoding="UTF-8" standalone="no"?>
<svg width="24px" height="24px" viewBox="0 0 24 24" version="1.1" xmlns="http://www.w3.org/2000/svg" xmlns:xlink="http://www.w3.org/1999/xlink" xmlns:sketch="http://www.bohemiancoding.com/sketch/ns">
    <title>Untitled 3</title>
    <description>Created with Sketch (http://www.bohemiancoding.com/sketch)</description>
    <defs></defs>
    <g id="Page-1" stroke="none" stroke-width="1" fill="none" fill-rule="evenodd" sketch:type="MSPage">
        <g id="nav-icon-msn" sketch:type="MSLayerGroup" transform="translate(2.000000, 1.000000)" stroke="#F26622">
            <g id="Page-1" sketch:type="MSShapeGroup">
                <g id="nav-icon-msn">
                    <g id="Page-1">
                        <g id="Safari-1200">
                            <path d="M14.172717,-0.466555 C14.172717,-0.466555 10.689472,-0.565376 8.9766,4.024879 C7.461859,8.685505 9.800303,13.834333 9.800303,13.834333 C9.800303,13.834333 10.649811,15.501729 12.116751,15.501728 C13.58369,15.501728 15.305222,12.751843 15.305222,12.751843 C15.305222,12.751843 17.57993,9.024795 18.053265,5.795181 C18.5266,2.565568 17.229043,-0.318853 14.172717,-0.466555 L14.172717,-0.466555 L14.172717,-0.466555 Z M0.958383,4.631576 C0.958383,4.631576 -0.817531,5.479802 1.843916,9.755283 C4.505363,14.030764 6.653814,15.082685 6.653814,15.082685 C6.653814,15.082685 7.576064,15.549852 7.576063,14.226741 C7.576063,12.90363 5.358335,8.485744 5.358335,8.485744 C5.358335,8.485744 2.728929,3.994007 0.958383,4.631576 L0.958383,4.631576 L0.958383,4.631576 Z M8.086958,16.535441 C8.086958,16.535441 7.751784,16.951476 7.229679,17.046293 C6.648445,17.151848 5.751828,16.865969 4.865083,15.894936 C4.838758,17.759519 6.161082,19.741486 7.062375,20.489983 C7.963668,21.23848 8.946708,20.843499 8.946708,19.546569 C8.946708,18.249638 8.086958,16.535441 8.086958,16.535441 L8.086958,16.535441 L8.086958,16.535441 Z M15.902216,14.457336 C15.902216,14.457336 14.394923,16.752569 12.852818,17.232297 C11.310713,17.712025 10.403185,16.798348 10.285934,16.690295 C11.729897,21.339788 15.793625,23.943646 18.606095,21.903743 C20.672973,20.343643 18.496118,17.069689 18.265772,16.803644 C17.593786,15.740373 15.902216,14.457336 15.902216,14.457336 L15.902216,14.457336 L15.902216,14.457336 Z" id="MSN"></path>
                        </g>
                    </g>
                </g>
            </g>
        </g>
    </g>
</svg>