<?xml version="1.0" encoding="UTF-8" standalone="no"?>
<svg width="25px" height="24px" viewBox="0 0 25 24" version="1.1" xmlns="http://www.w3.org/2000/svg" xmlns:xlink="http://www.w3.org/1999/xlink" xmlns:sketch="http://www.bohemiancoding.com/sketch/ns">
    <!-- Generator: Sketch 3.0.1 (7597) - http://www.bohemiancoding.com/sketch -->
    <title>nav-icon-english-hover</title>
    <description>Created with Sketch.</description>
    <defs></defs>
    <g id="Page-1" stroke="none" stroke-width="1" fill="none" fill-rule="evenodd" sketch:type="MSPage">
        <path d="M0.78,4.92 L10.4,4.92 L10.4,7.8 L3.9,7.8 L3.9,10.44 L10.04,10.44 L10.04,13.32 L3.9,13.32 L3.9,16.2 L10.76,16.2 L10.76,19.08 L0.78,19.08 L0.78,4.92 Z M12.88,9.36 L15.76,9.36 L15.76,10.68 L15.8,10.68 C15.8933338,10.4933324 16.0266658,10.3066676 16.2,10.12 C16.3733342,9.9333324 16.5799988,9.7666674 16.82,9.62 C17.0600012,9.4733326 17.3333318,9.3533338 17.64,9.26 C17.9466682,9.1666662 18.2799982,9.12 18.64,9.12 C19.4000038,9.12 20.013331,9.2366655 20.48,9.47 C20.946669,9.7033345 21.3099987,10.0266646 21.57,10.44 C21.8300013,10.8533354 22.0066662,11.3399972 22.1,11.9 C22.1933338,12.4600028 22.24,13.0666634 22.24,13.72 L22.24,19.08 L19.24,19.08 L19.24,14.32 C19.24,14.0399986 19.2300001,13.7500015 19.21,13.45 C19.1899999,13.1499985 19.1300005,12.8733346 19.03,12.62 C18.9299995,12.3666654 18.7766677,12.1600008 18.57,12 C18.3633323,11.8399992 18.0666686,11.76 17.68,11.76 C17.2933314,11.76 16.9800012,11.8299993 16.74,11.97 C16.4999988,12.1100007 16.3166673,12.2966655 16.19,12.53 C16.0633327,12.7633345 15.9800002,13.0266652 15.94,13.32 C15.8999998,13.6133348 15.88,13.9199984 15.88,14.24 L15.88,19.08 L12.88,19.08 L12.88,9.36 Z" id="En" stroke="#F26622" sketch:type="MSShapeGroup"></path>
    </g>
</svg>