<?xml version="1.0" encoding="UTF-8" standalone="no"?>
<svg width="24px" height="24px" viewBox="0 0 24 24" version="1.1" xmlns="http://www.w3.org/2000/svg" xmlns:xlink="http://www.w3.org/1999/xlink" xmlns:sketch="http://www.bohemiancoding.com/sketch/ns">
    <title>Slice 1</title>
    <description>Created with Sketch (http://www.bohemiancoding.com/sketch)</description>
    <defs></defs>
    <g id="Page-1" stroke="none" stroke-width="1" fill="none" fill-rule="evenodd" sketch:type="MSPage">
        <g id="nav-icon-marketing-hover" sketch:type="MSLayerGroup" transform="translate(2.000000, 2.000000)" stroke="#F26622">
            <g id="Page-1" sketch:type="MSShapeGroup">
                <g id="nav-icon-marketing">
                    <g id="Page-1">
                        <g id="nav-icon-marketing">
                            <g id="Page-1">
                                <g id="Safari-1200">
                                    <g id="marketing-tools" transform="translate(0.000000, -0.500000)">
                                        <path d="M4.24907592,7.67240746 L4.24907592,7.67240746 L4.24907592,21.4979616 C4.24907592,22.0477403 4.68761189,22.493424 5.25684579,22.493424 L7.99327257,22.493424 C8.5498485,22.493424 9.00104245,22.0498604 9.00104245,21.4979616 L9.00104245,7.67240746 L4.24907592,7.67240746 L4.24907592,7.67240746 Z" id="Rectangle-1" transform="translate(6.749076, 15.172407) rotate(45.000000) translate(-6.749076, -15.172407) "></path>
                                        <path d="M12.5923978,-0.698009017 C12.0394506,-0.698009017 11.4447381,-0.272012021 11.2713274,0.25064611 C11.2713274,0.25064611 10.2698114,3.03690482 10.2698114,4.39208199 L10.2698114,17.2004019 C10.2698114,17.7558014 10.7193151,18.2060416 11.2690646,18.2060416 L11.7419538,18.2060416 C12.8249014,18.2060416 15.3152801,18.1455928 15.3152801,18.1455928 C15.8658546,18.1330402 16.3121834,17.6761901 16.3121834,17.1242608 L16.3121834,0.300594495 C16.3121834,-0.250918996 15.8595155,-0.698009017 15.3109839,-0.698009017 L12.5923978,-0.698009017 L12.5923978,-0.698009017 Z" id="Rectangle-1" fill="#FFFFFF" transform="translate(13.269811, 8.801991) rotate(135.000000) translate(-13.269811, -8.801991) "></path>
                                    </g>
                                </g>
                            </g>
                        </g>
                    </g>
                </g>
            </g>
        </g>
    </g>
</svg>