<?xml version="1.0" encoding="UTF-8" standalone="no"?>
<svg width="24px" height="25px" viewBox="0 0 24 25" version="1.1" xmlns="http://www.w3.org/2000/svg" xmlns:xlink="http://www.w3.org/1999/xlink" xmlns:sketch="http://www.bohemiancoding.com/sketch/ns">
    <!-- Generator: Sketch 3.0.2 (7799) - http://www.bohemiancoding.com/sketch -->
    <title>nav-icon-msn-hover</title>
    <description>Created with Sketch.</description>
    <defs></defs>
    <g id="Page-1" stroke="none" stroke-width="1" fill="none" fill-rule="evenodd" sketch:type="MSPage">
        <g id="nav-icon-msn-hover" sketch:type="MSLayerGroup" transform="translate(2.706522, 1.250000)" fill="#F26622">
            <g id="Page-1" sketch:type="MSShapeGroup">
                <g id="nav-icon-msn">
                    <g id="Page-1">
                        <g id="nav-icon-msn">
                            <g id="Page-1">
                                <g id="Safari-1200">
                                    <path d="M10.0784325,1.35368793 C9.19341821,2.11003141 8.4645289,3.17150889 7.94138944,4.57344872 C7.80789425,4.98273617 7.70616368,5.38298568 7.62822889,5.7930724 C7.22952602,7.89101545 7.45697458,10.1183589 8.07593573,12.2805191 C8.21642085,12.7712629 8.36707875,13.2197191 8.51809481,13.6172359 C8.60967327,13.8582962 8.68191861,14.0306954 8.72506496,14.1256958 C8.85354405,14.3789571 9.06988683,14.7086918 9.38472109,15.0403157 C9.93168906,15.6164527 10.583483,15.9727895 11.3379809,15.972789 C11.5773038,15.972789 11.8191696,15.9190402 12.0625926,15.8188505 C12.6109236,15.5931646 13.1589935,15.1393267 13.7093744,14.5228365 C13.9734317,14.2270619 14.2210901,13.9120046 14.4462703,13.5970439 C14.5818348,13.4074292 14.6807424,13.2585037 14.7361098,13.1700627 C14.82595,13.0229227 14.9750029,12.7658836 15.1655445,12.4154466 C15.4820448,11.8333514 15.7983941,11.2007439 16.0939611,10.5385146 C16.5454246,9.52699333 16.9071984,8.53809882 17.1464715,7.60262486 C17.2463116,7.21228515 17.3236942,6.83494472 17.376902,6.47190241 C17.8894407,2.9747985 16.3183174,0.199702119 13.2854156,0.0531321316 C12.4085026,0.0401961525 11.2323768,0.367513786 10.0784325,1.35368793 Z M16.4089814,6.33004311 C16.3609535,6.65774243 16.2904015,7.00177465 16.1987214,7.36021178 C15.9746062,8.23642362 15.6311903,9.17513737 15.2006384,10.1398057 C14.9161774,10.7771514 14.6110682,11.3872822 14.3061099,11.9481497 C14.1237765,12.2834903 13.9828154,12.5265753 13.9040093,12.6556969 C13.8616203,12.7233473 13.7736135,12.8558594 13.6504756,13.028093 C13.4444852,13.3162129 13.2180775,13.6042362 12.9796194,13.8713367 C12.5191176,14.387152 12.0727143,14.7568033 11.6902575,14.9142174 C11.5587125,14.9683596 11.4409563,14.9945281 11.3379806,14.9945281 C10.8914035,14.9945284 10.4729873,14.7657796 10.0941823,14.3667735 C9.85355321,14.113312 9.68601459,13.8579612 9.60624195,13.7013852 C9.58088327,13.6443586 9.51657642,13.490903 9.43258779,13.2698213 C9.29099203,12.8971014 9.1490381,12.4745539 9.01641885,12.0112872 C8.43594343,9.98356566 8.22332085,7.90140909 8.58928842,5.97571663 C8.65964826,5.60548868 8.7512207,5.24520543 8.86483267,4.89563879 C9.32399224,3.66644397 9.95749395,2.74387894 10.7139904,2.09736832 C11.2674243,1.62439728 11.856909,1.32360107 12.4467554,1.15944589 C12.8051164,1.05971346 13.0867776,1.02833216 13.2506355,1.03069327 C15.6023415,1.14450395 16.846818,3.34263965 16.4089814,6.33004311 Z M0.685975,4.87078524 C0.54923576,4.93609571 0.383487643,5.06458338 0.230152109,5.2747051 C-0.461847672,6.22297966 -0.244853573,7.8669975 1.31015402,10.3650391 C2.42279864,12.1524469 3.52848029,13.4966221 4.57913624,14.4598496 C5.2241887,15.0512253 5.71786156,15.3872892 6.01106902,15.530849 C6.04542912,15.5483046 6.10206116,15.572303 6.17292845,15.5949357 C6.35908918,15.6543893 6.55523655,15.6768229 6.75852595,15.6339744 C7.28580367,15.5228371 7.57826368,15.0416138 7.57826311,14.2906174 C7.57826311,13.7435615 7.28816494,12.8320571 6.77481053,11.5908101 C6.68832641,11.3816988 6.59642633,11.1659184 6.49980485,10.9446184 C6.27038204,10.4191528 6.02491822,9.88623625 5.77947633,9.37289162 C5.63211831,9.06469058 5.51726886,8.83100729 5.45108626,8.69916642 C5.36485977,8.54986315 5.23665882,8.34215572 5.06154841,8.07670058 C4.7701759,7.63500023 4.45244217,7.19313877 4.11767308,6.77892741 C3.5637922,6.09360802 3.01832769,5.55133821 2.48695331,5.20146802 C1.87698261,4.79984805 1.28464617,4.65261077 0.731067926,4.85195285 L0.685975,4.87078524 Z M1.06250328,5.77235762 C1.27453757,5.69600463 1.5711092,5.76972354 1.94898264,6.01852487 C2.38059011,6.30270603 2.86083283,6.78013604 3.35683563,7.39384262 C3.66992417,7.78122852 3.96977531,8.19822128 4.24495545,8.61537513 C4.40977663,8.86523252 4.52895618,9.05832373 4.59182027,9.16571261 C4.64031641,9.26457855 4.75244084,9.49271724 4.89690637,9.79486864 C5.13783707,10.2987781 5.37874584,10.8218053 5.60327078,11.3360529 C5.69743377,11.551722 5.78685528,11.7616828 5.87081283,11.964685 C6.33086464,13.077051 6.60000224,13.9226961 6.60000224,14.2906178 C6.60000249,14.622935 6.56884713,14.6741991 6.55676538,14.6767456 C6.54421264,14.6793914 6.50918052,14.6753848 6.47054362,14.6630454 C6.45348181,14.6575964 6.44384617,14.6535132 6.44718836,14.6552062 C6.39919336,14.6316569 6.29963275,14.5738712 6.14837486,14.4709036 C5.88362281,14.2906757 5.57895744,14.0493154 5.2402183,13.7387638 C4.25614908,12.836582 3.20709942,11.5612542 2.14065286,9.84806137 C0.773621049,7.65199339 0.61015376,6.41351207 1.02037618,5.85136814 C1.07068174,5.78243244 1.10857472,5.75305787 1.10759621,5.75352523 L1.06250328,5.77235762 Z M7.00956583,16.2998717 C6.90315774,16.3753276 6.79064582,16.4271647 6.67761243,16.4476922 C6.23584418,16.5279195 5.56068764,16.230374 4.91358137,15.5217582 L4.08074693,14.6097601 L4.06331166,15.8446891 C4.0395701,17.5262889 5.12552375,19.555582 6.29596313,20.5275971 C7.48060791,21.5114093 8.86081372,20.8671748 8.86081372,19.2685286 C8.86081372,19.0082823 8.82955524,18.7286678 8.77122464,18.4316244 C8.69606128,18.0488618 8.57811499,17.6469366 8.42908137,17.2373802 C8.33693752,16.9841614 8.23839826,16.7430968 8.13971012,16.5215174 C8.07994382,16.3873273 8.03276314,16.2881732 8.00441203,16.2316459 L7.66344162,15.5518082 L7.1862946,16.1440673 C7.16249468,16.1736089 7.0997042,16.235953 7.00956583,16.2998717 Z M7.12997061,16.6702191 C7.15190026,16.7139432 7.19271088,16.79971 7.24607627,16.9195286 C7.33594093,17.121297 7.42595447,17.3415045 7.50979324,17.5719002 C7.64274562,17.9372641 7.74689968,18.2921896 7.8112968,18.6201261 C7.85818439,18.8588969 7.88255285,19.0768786 7.88255285,19.2685286 C7.88255285,20.0372648 7.46911363,20.2302446 6.92095795,19.7750176 C5.96391154,18.9802191 5.022245,17.2205515 5.04147505,15.8584992 L4.19120534,16.1814302 C5.04735148,17.1189558 6.04213006,17.5573607 6.85241054,17.4102097 C7.11872323,17.3618459 7.35978248,17.2507837 7.5754343,17.0978612 C7.74752388,16.9758294 7.87201533,16.8522231 7.94808804,16.7577977 L7.12997061,16.6702191 Z M14.1902078,14.629842 C13.9634734,14.9296732 13.7129043,15.229466 13.4471722,15.5076589 C12.8935297,16.087263 12.3521973,16.4895026 11.8814452,16.6359473 C11.2443192,16.8341485 10.7224802,16.7494638 10.2867268,16.4893286 C10.1458381,16.4052211 10.0906122,16.3599165 9.95630562,16.2361459 L8.61789985,15.0027341 L9.15771227,16.7409048 C10.6016862,21.3904329 14.7491795,24.00853 17.6974234,21.8701493 C18.7505873,21.0753221 18.9392147,19.8693874 18.5255319,18.4931632 C18.2731796,17.653647 17.7592361,16.7255215 17.4615766,16.3817307 C17.4043755,16.2809433 17.2815372,16.1153441 17.1385223,15.9436074 C16.9429514,15.7087599 16.7116804,15.4647994 16.4517437,15.214565 C16.1724233,14.9456706 15.8745927,14.6832819 15.576883,14.4372097 C15.3979563,14.2893178 15.2578971,14.1789991 15.1757366,14.1166812 L14.7586501,13.8003258 L14.4712944,14.2378971 C14.4219656,14.3130127 14.3256495,14.4507352 14.1902078,14.629842 Z M14.5845542,14.8961026 C14.6564399,14.9506271 14.7859616,15.052646 14.953639,15.1912398 C15.2336027,15.4226439 15.5134454,15.6691853 15.7732869,15.9193279 C16.0091151,16.1463536 16.2164041,16.3650162 16.3867885,16.569619 C16.5041145,16.7105077 16.602022,16.8424976 16.6783145,16.9632138 C16.9299662,17.2622561 17.3763349,18.068349 17.5886809,18.7747737 C17.8971101,19.8008444 17.7741966,20.5866564 17.1155615,21.0838007 C14.8345396,22.7381311 11.3642611,20.5475244 10.0919563,16.4507626 L9.62483427,16.5958337 L9.29336292,16.9555215 C9.47487119,17.122791 9.56976991,17.2006414 9.7852834,17.3292982 C10.4480566,17.7249592 11.2537712,17.8557116 12.1720328,17.5700528 C12.8351417,17.3637686 13.4963461,16.8724574 14.1545684,16.1833696 C14.4484603,15.8756965 14.7225389,15.5477757 14.9704857,15.2198933 C15.1198527,15.0223719 15.2283991,14.8671614 15.2889964,14.7748867 L14.5845542,14.8961026 Z" id="MSN"></path>
                                </g>
                            </g>
                        </g>
                    </g>
                </g>
            </g>
        </g>
    </g>
</svg>