<?xml version="1.0" encoding="UTF-8" standalone="no"?>
<svg width="24px" height="24px" viewBox="0 0 24 24" version="1.1" xmlns="http://www.w3.org/2000/svg" xmlns:xlink="http://www.w3.org/1999/xlink" xmlns:sketch="http://www.bohemiancoding.com/sketch/ns">
    <title>Untitled</title>
    <description>Created with Sketch (http://www.bohemiancoding.com/sketch)</description>
    <defs></defs>
    <g id="Page-1" stroke="none" stroke-width="1" fill="none" fill-rule="evenodd" sketch:type="MSPage">
        <g id="logo" sketch:type="MSLayerGroup" transform="translate(1.000000, 1.000000)" stroke="#F26622">
            <g id="Page-1" sketch:type="MSShapeGroup">
                <g id="logo">
                    <g id="Page-1">
                        <g id="cacafly_logo">
                            <g id="Group">
                                <g id="Shape">
                                    <path d="M11.2135948,17.9303549 C7.3042266,17.9303549 4.97220044,14.7038064 6.00366015,10.7246451 C7.0361656,6.74583873 11.0389543,3.51929032 14.9472767,3.51929032 C17.5292375,3.51929032 19.4150763,4.93012903 20.1091067,7.03183873 L22.3013507,7.03183873 C21.8251852,2.91322581 18.6691067,-0.0138387097 14.0789543,-0.0138387097 C8.14047927,-0.0138387097 2.05629629,4.88683871 0.489411765,10.9325807 C-1.0767756,16.9786774 2.46692811,21.8786451 8.4064488,21.8786451 C12.3426579,21.8786451 16.3430065,19.7233549 19.0497603,16.5095807 L15.7884096,16.5095807 C14.3818737,17.3977419 12.7919826,17.9303549 11.2135948,17.9303549 L11.2135948,17.9303549 L11.2135948,17.9303549 Z"></path>
                                    <path d="M17.4260567,15.2367742 L20.0160349,15.2367742 C20.583878,14.401129 21.0670152,13.5115483 21.4452287,12.584 L19.4321569,12.584 C18.91939,13.5658387 18.2344227,14.467129 17.4260567,15.2367742 L17.4260567,15.2367742 L17.4260567,15.2367742 Z"></path>
                                    <path d="M9.40688453,10.725 C8.87111113,12.790871 10.0824401,14.4653549 12.112244,14.4653549 C14.1413507,14.4653549 16.2206536,12.790871 16.7571242,10.725 C17.2915033,8.6587742 16.08122,6.98393547 14.0503704,6.98393547 C12.0212637,6.98393547 9.9419608,8.6587742 9.40688453,10.725 L9.40688453,10.725 L9.40688453,10.725 Z"></path>
                                </g>
                            </g>
                        </g>
                    </g>
                </g>
            </g>
        </g>
    </g>
</svg>