<?xml version="1.0" encoding="UTF-8" standalone="no"?>
<svg width="24px" height="24px" viewBox="0 0 24 24" version="1.1" xmlns="http://www.w3.org/2000/svg" xmlns:xlink="http://www.w3.org/1999/xlink" xmlns:sketch="http://www.bohemiancoding.com/sketch/ns">
    <title>Safari 1200</title>
    <description>Created with Sketch (http://www.bohemiancoding.com/sketch)</description>
    <defs></defs>
    <g id="Page-1" stroke="none" stroke-width="1" fill="none" fill-rule="evenodd" sketch:type="MSPage">
        <g id="Safari-1200" sketch:type="MSArtboardGroup" transform="translate(-439.000000, -129.000000)">
            <text id="關於-cacaFly" fill="#F26622" sketch:type="MSTextLayer" font-family="Heiti TC" font-size="14" font-weight="260">
                <tspan x="412" y="163.5">關於</tspan>
                <tspan x="440" y="163.5" font-family="Helvetica Neue"> cacaFly</tspan>
            </text>
            <g id="about" sketch:type="MSLayerGroup" transform="translate(440.000000, 130.500000)" stroke="#777777">
                <path d="M10.8938054,-1.00078316 C19.3893805,-1.00099278 20.9543897,-1.00025289 20.9543897,-1.00025289 C21.503685,-1.00011322 21.9489768,-0.551025609 21.9489768,0.00239091798 L21.9489768,8.08147696 L21.9489767,15.1566497 C21.9489767,15.7124431 21.4980686,16.1630028 20.9441405,16.1630029 L19.2765207,16.1630032 C18.721565,16.1630032 18.2726828,16.6036597 18.2739296,17.1539742 L18.2846553,21.8880459 C18.2858952,22.4353441 18.0082794,22.5179348 17.6720762,22.0822285 L13.7194602,16.9597913 C13.3799022,16.5197372 12.6500915,16.1630029 12.1071332,16.1630029 L10.8938053,16.1630028 L0.976742344,16.1630025 C0.41931806,16.1630027 -0.0325636338,15.7142119 -0.0325636611,15.1566497 L-0.0325636062,8.08147696 C-0.0325631536,3.54073854 -0.0325635256,0.117863333 -0.0325635256,0.117863333 C-0.0325635701,-0.43768146 0.414805014,-0.903689574 0.976742366,-0.918798436 C0.976742366,-0.918798436 2.39823018,-1.00057355 10.8938054,-1.00078316 Z" id="Path-28" sketch:type="MSShapeGroup"></path>
                <path d="M12.0089169,11.9708826 C12.0089169,12.4154709 11.9100141,12.7516181 11.7122055,12.979334 C11.5143969,13.20705 11.2633359,13.3209063 10.9590151,13.3209063 C10.6546942,13.3209063 10.4074371,13.2043392 10.2172366,12.9712014 C10.027036,12.7380636 9.93193717,12.4046273 9.93193717,11.9708826 L9.93193717,7.6192651 C9.93193717,7.18009857 10.027036,6.84937318 10.2172366,6.62707901 C10.4074371,6.40478484 10.6546942,6.29363942 10.9590151,6.29363942 C11.2633359,6.29363942 11.5143969,6.40478484 11.7122055,6.62707901 C11.9100141,6.84937318 12.0089169,7.15841166 12.0089169,7.55420371 L12.0089169,11.9708826 Z M10.981839,4.26078997 C10.6927342,4.26078997 10.4454771,4.16590973 10.2400605,3.97614642 C10.0346439,3.7863831 9.93193717,3.51800758 9.93193717,3.1710118 C9.93193717,2.85654688 10.0371799,2.59765938 10.2476685,2.39434154 C10.4581571,2.19102371 10.7028782,2.08936631 10.981839,2.08936631 C11.2506558,2.08936631 11.4890369,2.18153568 11.6969895,2.36587719 C11.9049421,2.5502187 12.0089169,2.81859422 12.0089169,3.1710118 C12.0089169,3.51258577 11.9074781,3.77960586 11.7045975,3.97208008 C11.5017169,4.1645543 11.2607998,4.26078997 10.981839,4.26078997 Z" id="i" sketch:type="MSShapeGroup"></path>
            </g>
        </g>
    </g>
</svg>