<?xml version="1.0" encoding="UTF-8" standalone="no"?>
<svg width="24px" height="24px" viewBox="0 0 24 24" version="1.1" xmlns="http://www.w3.org/2000/svg" xmlns:xlink="http://www.w3.org/1999/xlink" xmlns:sketch="http://www.bohemiancoding.com/sketch/ns">
    <title>Untitled</title>
    <description>Created with Sketch (http://www.bohemiancoding.com/sketch)</description>
    <defs></defs>
    <g id="Page-1" stroke="none" stroke-width="1" fill="none" fill-rule="evenodd" sketch:type="MSPage">
        <g id="nav-icon-google" sketch:type="MSLayerGroup" transform="translate(3.000000, 2.000000)" stroke="#F26622">
            <g id="Page-1" sketch:type="MSShapeGroup">
                <g id="Safari-1200">
                    <path d="M18.186789,19.22325 C18.033778,19.371099 14.402178,20.123931 14.402178,20.123931 C13.055699,20.433257 11.554579,20.587918 9.898773,20.587918 C6.441596,20.587918 3.766873,19.487097 1.874523,17.285421 C0.2915,15.429462 -0.5,13.236917 -0.5,10.707719 C-0.5,7.923782 0.464356,5.55838 2.393097,3.611444 C4.467403,1.537138 7.178517,0.5 10.52652,0.5 C11.945782,0.5 13.33773,0.691052 14.702405,1.073161 C15.957907,1.418878 18.305129,2.573283 18.30513,2.765349 C18.30513,2.957416 15.626075,5.581124 15.474418,5.432301 C15.32276,5.283479 15.433513,4.048138 15.433513,4.048138 C13.668534,2.337745 12.054959,1.482561 9.926066,1.482561 C7.742586,1.482561 5.936693,2.233121 4.508333,3.734264 C3.079973,5.235407 2.365804,7.168668 2.365804,9.534104 C2.365804,12.227063 3.230085,14.528781 4.958673,16.439326 C6.814632,18.477241 9.170935,19.496183 12.027655,19.496183 C13.210374,19.496183 15.228425,19.015529 15.395296,18.813849 C15.562167,18.612169 15.493913,14.61457 15.493913,14.61457 C15.493913,14.61457 11.513575,14.669823 11.372615,14.55907 C11.231654,14.448318 13.556084,13.464349 13.556084,13.464349 L19.440895,13.464349 C19.725576,13.46435 18.63265,14.146684 18.63265,14.146684 C18.487085,14.292249 18.396108,14.437812 18.359717,14.583377 C18.323325,14.910899 18.30513,15.347589 18.30513,15.893459 C18.30513,15.893459 18.3398,19.0754 18.186789,19.22325 L18.186789,19.22325 Z" id="G"></path>
                </g>
            </g>
        </g>
    </g>
</svg>