<?xml version="1.0" encoding="UTF-8" standalone="no"?>
<svg width="25px" height="25px" viewBox="0 0 25 25" version="1.1" xmlns="http://www.w3.org/2000/svg" xmlns:xlink="http://www.w3.org/1999/xlink" xmlns:sketch="http://www.bohemiancoding.com/sketch/ns">
    <!-- Generator: Sketch 3.0.2 (7799) - http://www.bohemiancoding.com/sketch -->
    <title>nav-icon-index-hover</title>
    <description>Created with Sketch.</description>
    <defs></defs>
    <g id="Page-1" stroke="none" stroke-width="1" fill="none" fill-rule="evenodd" sketch:type="MSPage">
        <g id="nav-icon-index-hover" sketch:type="MSLayerGroup" transform="translate(1.500000, 1.500000)" fill="#F26622">
            <g id="Page-1" sketch:type="MSShapeGroup">
                <g id="logo">
                    <g id="Page-1">
                        <g id="logo">
                            <g id="Page-1">
                                <g id="cacafly_logo">
                                    <g id="Group">
                                        <g id="Shape">
                                            <path d="M16.491461,11.3354264 C17.0792896,9.06253393 15.7022363,7.15854697 13.4394847,7.15854697 C11.276566,7.15854697 9.1003811,8.91168952 8.53490122,11.0953205 C7.94579462,13.3668371 9.32327449,15.271209 11.5856247,15.271209 C13.7482605,15.271209 15.9244937,13.5187357 16.491461,11.3354264 Z M9.46083494,11.33528 C9.91894226,9.56627405 11.720331,8.11506871 13.4394847,8.11506871 C15.0608427,8.11506871 16.0003698,9.4141087 15.5655274,11.0954669 C15.106301,12.8638804 13.3046794,14.3146873 11.5856247,14.3146873 C9.96474471,14.3146873 9.02506021,13.0155694 9.46083494,11.33528 Z"></path>
                                            <path d="M19.1457725,16.0090884 L19.3990138,16.0090884 L19.5413462,15.7996303 C20.1097886,14.9631032 20.5853789,14.0821313 20.9556872,13.1739701 L21.2243331,12.5151304 L20.5128275,12.5151304 L18.5872805,12.5151304 L18.2974979,12.5151304 L18.1633508,12.7719933 C17.7000616,13.6590928 17.0784246,14.4800823 16.338618,15.184452 L15.4724943,16.0090884 L16.6684021,16.0090884 L19.1457725,16.0090884 Z M16.9981861,15.8772029 C17.8134833,15.1009586 18.4989297,14.1956968 19.0112102,13.2147893 L18.5872805,13.4716522 L20.5128275,13.4716522 L20.0699677,12.8128125 C19.7252982,13.658096 19.281557,14.4800712 18.7501989,15.2620247 L19.1457725,15.0525666 L16.6684021,15.0525666 L16.9981861,15.8772029 Z"></path>
                                            <path d="M6.20559142,11.3348843 C7.13958773,7.73568737 10.7815762,4.80106031 14.2973951,4.80106031 C16.4998269,4.80106031 18.1633274,5.96315481 18.7806575,7.83259537 L18.8890673,8.16088922 L19.2347977,8.16088922 L21.3317268,8.16088922 L21.8684665,8.16088922 L21.806823,7.62770101 C21.3133703,3.35956146 18.0108258,0.465023843 13.4668259,0.465023843 C7.56462929,0.465023843 1.55764895,5.30361931 0.00516809517,11.2937855 C-1.56954648,17.3728006 2.0390547,22.3621823 8.04095103,22.3621823 C11.8616114,22.3621823 15.8405236,20.3176971 18.5873135,17.0563873 L19.2496082,16.2700337 L18.2215099,16.2700337 L15.101957,16.2700337 L14.9635954,16.2700337 L14.8466055,16.3439073 C13.5306182,17.1748914 12.0973832,17.6290351 10.7260472,17.6290351 C7.30772406,17.6290351 5.29553107,14.8457116 6.20559142,11.3348843 Z M15.3573085,17.1526818 L15.101957,17.2265555 L18.2215099,17.2265555 L17.8557062,16.4402018 C15.2826308,19.4952574 11.5646648,21.4056605 8.04095103,21.4056605 C2.68050435,21.4056605 -0.490429629,17.0214132 0.931112561,11.5337036 C2.37610254,5.95828533 8.00833749,1.42154558 13.4668259,1.42154558 C17.5283909,1.42154558 20.4193585,3.95535391 20.8566305,7.73755569 L21.3317268,7.20436748 L19.2347977,7.20436748 L19.6889379,7.53266134 C18.9402003,5.26528357 16.90645,3.84453857 14.2973951,3.84453857 C10.3378445,3.84453857 6.3212787,7.08099102 5.27970364,11.0947476 C4.21635445,15.1969319 6.66614776,18.5855569 10.7260472,18.5855569 C12.2872062,18.5855569 13.8948715,18.076142 15.3573085,17.1526818 Z"></path>
                                        </g>
                                    </g>
                                </g>
                            </g>
                        </g>
                    </g>
                </g>
            </g>
        </g>
    </g>
</svg>