<?xml version="1.0" encoding="UTF-8" standalone="no"?>
<svg width="24px" height="24px" viewBox="0 0 24 24" version="1.1" xmlns="http://www.w3.org/2000/svg" xmlns:xlink="http://www.w3.org/1999/xlink" xmlns:sketch="http://www.bohemiancoding.com/sketch/ns">
    <!-- Generator: Sketch 3.0.2 (7799) - http://www.bohemiancoding.com/sketch -->
    <title>nav-icon-contact-hover</title>
    <description>Created with Sketch.</description>
    <defs></defs>
    <g id="Page-1" stroke="none" stroke-width="1" fill="none" fill-rule="evenodd" sketch:type="MSPage">
        <g id="nav-icon-contact-hover" sketch:type="MSLayerGroup" transform="translate(1.000000, 3.000000)" fill="#F26622">
            <g id="Page-1" sketch:type="MSShapeGroup">
                <g id="nav-icon-contact">
                    <g id="Page-1">
                        <g id="nav-icon-contact">
                            <g id="Page-1">
                                <g id="Safari-1200">
                                    <g id="contact" transform="translate(0.000000, -0.500000)">
                                        <path d="M-0.5,1.99742191 L-0.5,17.0025781 C-0.5,18.3820683 0.613729655,19.5 1.991155,19.5 L20.008845,19.5 C21.3860491,19.5 22.5,18.383838 22.5,17.0025781 L22.5,1.99742191 C22.5,0.617931695 21.3862703,-0.5 20.008845,-0.5 L1.991155,-0.5 C0.61395089,-0.5 -0.5,0.616162017 -0.5,1.99742191 Z M20.008845,0.5 C20.8331408,0.5 21.5,1.16937519 21.5,1.99742191 L21.5,17.0025781 C21.5,17.8319966 20.83332,18.5 20.008845,18.5 L1.991155,18.5 C1.16685917,18.5 0.5,17.8306248 0.5,17.0025781 L0.5,1.99742191 C0.5,1.16800335 1.16668003,0.5 1.991155,0.5 L20.008845,0.5 Z" id="Rectangle-20"></path>
                                        <path d="M20.4913355,18.5121539 L21.2957753,17.9181195 L14.1414784,8.22978948 L13.3370386,8.8238238 L20.4913355,18.5121539 Z" id="Path-33"></path>
                                        <path d="M0.704225458,17.9181195 L1.50866516,18.5121539 L8.66296204,8.8238238 L7.85852234,8.22978948 L0.704225458,17.9181195 Z" id="Path-33"></path>
                                        <path d="M9.19579048,9.84035299 C10.1584682,10.8327869 11.7293325,10.8344648 12.6943185,9.84482278 L21.4681387,0.854491749 L20.7524667,0.156055117 L11.9784978,9.14653862 C11.4064667,9.73318546 10.4840541,9.73220021 9.91333609,9.14384156 L1.20653695,0.180282802 L0.48923126,0.877041404 L9.19579048,9.84035299 Z" id="Path-32"></path>
                                    </g>
                                </g>
                            </g>
                        </g>
                    </g>
                </g>
            </g>
        </g>
    </g>
</svg>