<?xml version="1.0" encoding="UTF-8" standalone="no"?>
<svg width="24px" height="24px" viewBox="0 0 24 24" version="1.1" xmlns="http://www.w3.org/2000/svg" xmlns:xlink="http://www.w3.org/1999/xlink" xmlns:sketch="http://www.bohemiancoding.com/sketch/ns">
    <!-- Generator: Sketch 3.0.2 (7799) - http://www.bohemiancoding.com/sketch -->
    <title>nav-icon-about-hover</title>
    <description>Created with Sketch.</description>
    <defs></defs>
    <g id="Page-1" stroke="none" stroke-width="1" fill="none" fill-rule="evenodd" sketch:type="MSPage">
        <g id="nav-icon-about-hover" sketch:type="MSLayerGroup" transform="translate(0.000000, -0.500000)" fill="#F26622">
            <g id="Page-1" sketch:type="MSShapeGroup">
                <g id="nav-icon-about">
                    <g id="Page-1">
                        <g id="Safari-1200">
                            <g id="about" transform="translate(0.000000, 0.500000)">
                                <path d="M22.4489768,2.00239092 L22.4489768,9.08147696 L22.4489767,16.1566497 C22.4489767,16.4360353 22.2221912,16.6630028 21.9441404,16.6630029 L20.2765206,16.6630032 C19.4457015,16.6630032 18.7720557,17.3274384 18.7739309,18.155107 L18.7846566,22.8891787 C18.784816,22.9595333 18.7984285,22.9254427 18.9564598,22.8763087 C19.1016274,22.8311742 19.1173481,22.8408223 19.0679291,22.7767773 L15.1153131,17.6543401 C14.6828604,17.093898 13.8079616,16.6630029 13.1071332,16.6630029 L11.8938053,16.6630028 L1.97674236,16.6630025 C1.69438409,16.6630026 1.46743635,16.4369936 1.46743634,16.1566497 L1.46743639,9.08147696 C1.46743667,4.8906831 1.46743667,4.8906831 1.46743655,2.81118906 C1.46743649,2.23494495 1.46743649,2.23494495 1.46743647,2.11786325 C1.46743645,1.83050515 1.70176692,1.58877555 1.99018106,1.58102093 C2.04467237,1.57812038 2.15133139,1.57382133 2.34701618,1.56818404 C2.67793347,1.55865098 3.14228954,1.54909168 3.7621016,1.54015706 C5.53129537,1.51465406 8.18331154,1.49930839 11.8938177,1.49921684 C15.9977303,1.49911558 18.8214215,1.49922272 20.6030405,1.49946327 C21.391313,1.4995697 21.8041769,1.49967614 21.9541533,1.49974705 C22.2265076,1.49981632 22.4489768,1.72411683 22.4489768,2.00239092 Z M20.6031755,0.499463279 C18.8214965,0.49922272 15.9977547,0.499115579 11.8937931,0.49921684 C8.17884927,0.499308498 5.52223477,0.514680779 3.74768806,0.54026094 C3.12336575,0.549260571 2.65431442,0.558916532 2.31822013,0.568598734 C2.11369797,0.574490607 1.99788352,0.57915868 1.94802593,0.582026879 C1.13233563,0.60372451 0.467436408,1.28961834 0.467436474,2.11786337 C0.467436492,2.23494506 0.467436492,2.23494506 0.467436546,2.81118914 C0.467436666,4.89068309 0.467436666,4.89068309 0.467436394,9.08147691 L0.467436339,16.1566497 C0.46743638,16.9902085 1.14302524,17.6630028 1.97674252,17.6630025 L11.8938053,17.6630028 L13.1071332,17.6630029 C13.497711,17.6630029 14.080309,17.9499374 14.3236072,18.2652425 L18.2762233,23.3876797 C18.8996399,24.1956034 19.7869938,23.9197134 19.784654,22.8869132 L19.7739283,18.1528414 C19.7733146,17.8819646 19.9953113,17.6630032 20.2765207,17.6630032 L21.9441406,17.6630029 C22.7746558,17.6630028 23.4489767,16.9881405 23.4489767,16.1566497 L23.4489768,9.08147697 L23.4489768,2.00239092 C23.4489768,1.17370161 22.7807331,0.499957209 21.9545168,0.499747126 C21.8044194,0.499676163 21.391551,0.499569724 20.6031755,0.499463279 Z" id="Path-28"></path>
                                <path d="M12.3347343,13.6514384 C12.2321334,13.769552 12.1188936,13.8209063 11.9590151,13.8209063 C11.8044153,13.8209063 11.6995904,13.7714875 11.6046617,13.6551289 C11.4955658,13.521405 11.4319372,13.2983099 11.4319372,12.9708826 L11.4319372,8.6192651 C11.4319372,8.28947119 11.4944064,8.07222186 11.5971496,7.9521423 C11.691258,7.84215433 11.7991856,7.79363942 11.9590151,7.79363942 C12.121517,7.79363942 12.2363658,7.84448332 12.3386793,7.95946155 C12.4478512,8.08214724 12.5089169,8.2729573 12.5089169,8.55420371 L12.5089169,12.9708826 C12.5089169,13.3046729 12.4438476,13.525828 12.3347343,13.6514384 Z M13.5089169,8.55420371 C13.5089169,8.043866 13.372177,7.6165991 13.0857317,7.29469647 C12.792428,6.96508638 12.4051548,6.79363942 11.9590151,6.79363942 C11.5102028,6.79363942 11.1236161,6.96741539 10.8373236,7.30201582 C10.5596656,7.62652446 10.4319372,8.07072587 10.4319372,8.6192651 L10.4319372,12.9708826 C10.4319372,13.5109448 10.5585063,13.9547223 10.8298116,14.287274 C11.1152838,14.6371908 11.504973,14.8209063 11.9590151,14.8209063 C12.4077783,14.8209063 12.7966604,14.644548 13.0896767,14.3072295 C13.3761805,13.9774083 13.5089169,13.526269 13.5089169,12.9708826 L13.5089169,8.55420371 Z M11.5793434,4.6088766 C11.4832539,4.52010937 11.4319372,4.38601738 11.4319372,4.1710118 C11.4319372,3.98951105 11.4841429,3.86108972 11.5950431,3.75396759 C11.7135273,3.63951983 11.8342624,3.58936631 11.981839,3.58936631 C12.1272937,3.58936631 12.2479995,3.63603687 12.3653157,3.7400329 C12.4582023,3.82237308 12.5089169,3.95327558 12.5089169,4.1710118 C12.5089169,4.38229255 12.4577055,4.51709764 12.3604694,4.60934623 C12.2504241,4.71374699 12.1326563,4.76078997 11.981839,4.76078997 C11.8173554,4.76078997 11.6915162,4.71250154 11.5793434,4.6088766 Z M13.0487256,5.33481393 C13.3572507,5.04211406 13.5089169,4.64287896 13.5089169,4.1710118 C13.5089169,3.68391294 13.3516819,3.27806436 13.0286633,2.99172148 C12.7300743,2.72703449 12.3740179,2.58936631 11.981839,2.58936631 C11.5714939,2.58936631 11.2027869,2.74252761 10.9002939,3.03471548 C10.5902169,3.33422905 10.4319372,3.72358272 10.4319372,4.1710118 C10.4319372,4.64999782 10.5860339,5.05265685 10.9007776,5.34341623 C11.199438,5.61931789 11.5681129,5.76078997 11.981839,5.76078997 C12.3889433,5.76078997 12.7530097,5.61536161 13.0487256,5.33481393 Z" id="i"></path>
                            </g>
                        </g>
                    </g>
                </g>
            </g>
        </g>
    </g>
</svg>