<?xml version="1.0" encoding="UTF-8" standalone="no"?>
<svg width="24px" height="24px" viewBox="0 0 24 24" version="1.1" xmlns="http://www.w3.org/2000/svg" xmlns:xlink="http://www.w3.org/1999/xlink" xmlns:sketch="http://www.bohemiancoding.com/sketch/ns">
    <title>Untitled</title>
    <description>Created with Sketch (http://www.bohemiancoding.com/sketch)</description>
    <defs></defs>
    <g id="Page-1" stroke="none" stroke-width="1" fill="none" fill-rule="evenodd" sketch:type="MSPage">
        <g id="nav-icon-fb" sketch:type="MSLayerGroup" transform="translate(0.000000, 3.000000)" stroke="#F26622">
            <g id="Page-1" sketch:type="MSShapeGroup">
                <g id="Safari-1200">
                    <g id="fb-ads" transform="translate(0.500000, -0.500000)">
                        <path d="M-1.19440429e-17,8.45290081 C-1.19440429e-17,8.45290081 -2.86657029e-16,4.22645041 4.30329496,4.22645041 C12.8023025,4.22645041 13.95395,0.10566126 20.5904377,-3.00639835e-14 C22.5605399,-0.00709911592 23.1111203,6.22822797 23.1200943,8.45290082 C23.1281863,10.4589199 22.5605399,16.8949879 20.3311367,16.8719674 C13.95395,16.8523932 12.8023025,12.6793512 4.30329496,12.6793512 C1.48106131e-13,12.6793501 -1.19440429e-17,8.45290081 -1.19440429e-17,8.45290081 L-1.19440429e-17,8.45290081 Z M7.74593092,19.904476 C7.74593092,19.904476 8.3200888,19.9963105 8.44584672,19.3655416 C8.57160463,18.7347728 9.14586758,15.8036015 9.14586758,15.2949003 C9.14586757,14.7861991 8.78225176,14.6224448 8.57160463,14.4966625 C8.3609575,14.3708802 7.20455205,14.0460542 6.71875039,14.0460544 C6.23294873,14.0460546 5.61371975,14.0460544 5.61371971,15.1705626 C5.61371969,16.2950708 6.70939997,18.8129869 6.9893873,19.3587314 C7.26937463,19.904476 7.74593092,19.904476 7.74593092,19.904476 L7.74593092,19.904476 Z" id="Path-3"></path>
                        <path d="M6.67010719,4.09965689 C6.37302665,4.09965689 5.3791187,6.06034149 5.3791187,8.45290081 C5.3791187,10.8454601 6.37302665,12.8061447 6.67010719,12.8061447" id="Oval-3"></path>
                    </g>
                </g>
            </g>
        </g>
    </g>
</svg>