<?xml version="1.0" encoding="UTF-8" standalone="no"?>
<svg width="25px" height="24px" viewBox="0 0 25 24" version="1.1" xmlns="http://www.w3.org/2000/svg" xmlns:xlink="http://www.w3.org/1999/xlink" xmlns:sketch="http://www.bohemiancoding.com/sketch/ns">
    <!-- Generator: Sketch 3.0.2 (7799) - http://www.bohemiancoding.com/sketch -->
    <title>nav-icon-fb-hover</title>
    <description>Created with Sketch.</description>
    <defs></defs>
    <g id="Page-1" stroke="none" stroke-width="1" fill="none" fill-rule="evenodd" sketch:type="MSPage">
        <g id="nav-icon-fb-hover" sketch:type="MSLayerGroup" transform="translate(0.250000, 1.500000)" fill="#F26622">
            <g id="Page-1" sketch:type="MSShapeGroup">
                <g id="nav-icon-fb">
                    <g id="Page-1">
                        <g id="Safari-1200">
                            <g id="fb-ads" transform="translate(0.500000, -0.500000)">
                                <path d="M1.55986434,8.93567339 C1.63557414,8.48347264 1.7716058,8.03208813 1.98086496,7.61546594 C2.56719376,6.44812115 3.60321324,5.76057069 5.2826187,5.76057069 C8.97067239,5.76057069 11.1796766,5.13477719 14.376113,3.57963666 C14.4666421,3.53559212 15.0551946,3.24768359 15.225287,3.1652763 C17.6330199,1.99876485 18.1637404,1.53752233 20.4891343,1.49999676 C21.591652,1.49600825 22.4850999,5.81425817 22.4998445,9.51908457 C22.5141829,13.1218095 21.5351087,17.5136375 20.2284612,17.4999621 C18.0456315,17.493158 17.5628806,17.0543991 15.3271117,15.9584713 C15.115036,15.8545162 14.3813335,15.4891159 14.2772039,15.4376913 C11.1815579,13.9089031 8.94109013,13.2735321 5.2826187,13.2735321 C3.60321348,13.2735317 2.56719399,12.5859812 1.98086513,11.4186368 C1.77160589,11.0020146 1.63557419,10.5506301 1.55986436,10.0984294 C1.51473048,9.8288531 1.5,9.62356073 1.5,9.51705139 C1.5,9.51705139 1.51473048,9.20524966 1.55986434,8.93567339 Z M0.574286432,10.1969363 C0.666260289,10.7389249 0.832060564,11.2817232 1.09233056,11.7929676 C1.84757654,13.2764859 3.22649735,14.1793507 5.30329483,14.1793512 C8.81156996,14.1793512 10.9222694,14.7699082 13.9090324,16.2251781 C14.011108,16.2749134 14.7506659,16.6382991 14.9673165,16.7430751 C17.3384189,17.8897811 17.9651735,18.3647076 20.329602,18.371965 C22.5864339,18.3952819 23.6374082,13.7440434 23.6200902,9.45088391 C23.6021202,4.99608417 22.6576932,0.492547553 20.588636,0.500003246 C18.076525,0.539961295 17.408346,1.03589409 14.8690476,2.24967751 C14.6959539,2.3324162 14.1031615,2.61851675 14.0137569,2.66143182 C10.9239621,4.14456434 8.84207724,4.72645041 5.30329496,4.72645041 C3.22649717,4.72645041 1.84757624,5.62931531 1.09233031,7.11283409 C0.832060425,7.62407851 0.666260219,8.1668768 0.574286401,8.70886538 C0.518808494,9.03578875 0.5,9.29440555 0.5,9.45290081 C0.5,9.61139608 0.518808502,9.87001289 0.574286432,10.1969363 Z M8.66696146,21.3982004 C8.6865849,21.4011786 8.6865849,21.4011786 8.72208997,21.4048471 C8.90772556,21.42135 9.11440021,21.3979718 9.32307347,21.2985227 C9.63489782,21.1499139 9.85635751,20.8637535 9.93619615,20.4633038 C10.0513432,19.8857565 10.2056319,19.0844604 10.3349361,18.3739718 C10.5345673,17.2770578 10.6458676,16.5666194 10.6458676,16.2949003 C10.6458676,15.8043145 10.4289074,15.4608074 10.067975,15.2137575 C9.99603531,15.1645165 9.65465308,14.9638962 9.82794387,15.0673722 C9.49760178,14.8701172 8.23999676,14.5460542 7.71875018,14.5460544 C7.57600522,14.5460545 7.50772397,14.5472525 7.41740183,14.5535179 C6.60285038,14.610021 6.11371975,15.1088094 6.11371971,16.1705626 C6.11371969,17.1732719 6.93116088,19.3914258 7.54451775,20.5869661 C7.65203842,20.7965428 7.79064348,20.9673147 7.95331313,21.0992011 C8.2339365,21.3267199 8.52165112,21.404476 8.74593092,21.404476 L8.66696146,21.3982004 Z M8.74593092,20.404476 C8.73134663,20.404476 8.66076513,20.3854011 8.58309237,20.3224269 C8.52838976,20.2780761 8.478324,20.2163913 8.43425687,20.1304967 C7.89204237,19.0736254 7.1137197,16.9616209 7.11371971,16.1705626 C7.11371973,15.6454035 7.18570901,15.5719928 7.48660269,15.5511206 C7.54632995,15.5469775 7.59893994,15.5460544 7.71875008,15.5460544 C8.06494706,15.5460543 9.14524093,15.8244273 9.31526539,15.9259528 C9.1940402,15.8535665 9.46444322,16.0124743 9.50314143,16.0389624 C9.61163347,16.1132227 9.64586758,16.1674246 9.64586758,16.2949003 C9.64586758,16.4754595 9.53354914,17.1923966 9.35109659,18.1949194 C9.22292066,18.8992083 9.06963696,19.6952847 8.95549729,20.2677794 C8.93713514,20.3598792 8.91896923,20.3833524 8.89285447,20.3957981 C8.8700045,20.4066879 8.83354724,20.4108118 8.81064031,20.4087754 C8.81257701,20.408941 8.81257701,20.408941 8.82490038,20.4107516 L8.74593092,20.404476 Z" id="Path-3"></path>
                                <path d="M5.8791187,9.45290081 C5.8791187,11.7164149 6.64618786,13.9999998 7.50000002,13.9999998 C7.50000002,13.9999998 7.86064375,13.3401492 7.8911031,13.3720747 C7.86266331,13.3422659 7.81952711,13.2833468 7.76988967,13.2019891 C7.64569559,12.9984301 7.50860758,12.702666 7.38336881,12.3565897 C7.07120859,11.4939872 6.8791187,10.4723411 6.8791187,9.45290081 C6.8791187,8.43346047 7.07120859,7.41181437 7.38336881,6.54921189 C7.50860758,6.20313555 7.64569559,5.90737147 7.76988967,5.70381248 C7.81952711,5.62245475 7.86266331,5.56353567 7.8911031,5.53372693 C7.86064375,5.56565244 7.50000002,5.00000001 7.50000002,5.00000001 C6.64618786,5.00000001 5.8791187,7.18938667 5.8791187,9.45290081 Z" id="Oval-3"></path>
                            </g>
                        </g>
                    </g>
                </g>
            </g>
        </g>
    </g>
</svg>