<?xml version="1.0" encoding="UTF-8" standalone="no"?>
<svg width="400px" height="250px" viewBox="0 0 400 250" version="1.1" xmlns="http://www.w3.org/2000/svg" xmlns:xlink="http://www.w3.org/1999/xlink" xmlns:sketch="http://www.bohemiancoding.com/sketch/ns">
    <title>Untitled</title>
    <description>Created with Sketch (http://www.bohemiancoding.com/sketch)</description>
    <defs></defs>
    <g id="Page-1" stroke="none" stroke-width="1" fill="none" fill-rule="evenodd" sketch:type="MSPage">
        <g id="Group" sketch:type="MSLayerGroup">
            <g id="Rectangle-1" fill="#75BAEF" sketch:type="MSShapeGroup">
                <rect x="0" y="0" width="400" height="250"></rect>
            </g>
            <g id="multi-screen" transform="translate(72.221154, 23.750000)" fill="#FFFFFF" sketch:type="MSShapeGroup">
                <g id="Rectangle-26-+-Rectangle-26" transform="translate(-0.493479, 27.154164)">
                    <path d="M126.334434,121.99495 L126.705362,121.99495 L126.705362,139.948622 L19.4685958,139.948622 C9.49359022,139.948622 1.48485268,131.910489 1.48485268,121.99495 L73.5134571,121.99495 L73.5134571,124.793767 C73.5134571,125.900043 74.4081011,126.796857 75.519602,126.796857 L124.328289,126.796857 C125.436252,126.796857 126.334434,125.902994 126.334434,124.793767 L126.334434,121.99495 Z" id="Rectangle-26"></path>
                    <path d="M20.3509527,7.842633 L20.3509527,109.881772 C20.3509527,114.214881 23.8785961,117.724405 28.2081362,117.724405 L125.98484,117.724405 L125.984841,50.7853465 L155.031569,50.7853452 L155.031569,7.84673676 C155.031569,3.51433978 151.479604,0 147.164488,0 L28.2180337,0 C23.8737829,0 20.3509527,3.48552865 20.3509527,7.842633 Z M147.164488,7.86538462 C147.154312,7.86538462 147.166185,50.7853453 147.166185,50.7853453 L125.984841,50.7853467 L125.98484,109.85902 L28.2081362,109.85902 C28.2134867,109.85902 28.2163373,7.842633 28.2163373,7.842633 C28.2163373,7.8483131 147.164488,7.86538462 147.164488,7.86538462 Z" id="Rectangle-26"></path>
                </g>
                <path d="M182.96474,167.246207 L248.610357,167.246207 C254.388976,167.246207 259.066561,162.599523 259.066561,156.801571 L259.066561,10.2866218 C259.066561,4.5070551 254.418752,-0.158014382 248.610357,-0.158014382 L154.432363,-0.158014382 C148.653744,-0.158014382 143.976159,4.48866937 143.976159,10.2866218 L143.976159,79.5352455 L182.964741,79.5352475 L182.96474,167.246207 Z M154.442245,79.441108 L154.452722,15.5179232 C154.452722,15.5141289 248.61078,15.5353511 248.61078,15.5353511 C248.630928,15.5353511 248.604566,146.318673 248.604566,146.318673 C248.604566,146.321096 182.440639,146.307376 182.440639,146.307376 L181.975355,79.4454759 C181.96513,79.4454759 154.442245,79.441108 154.442245,79.441108 Z M201.52136,162.014825 C204.410573,162.014825 206.752742,159.672656 206.752742,156.783443 C206.752742,153.894231 204.410573,151.552061 201.52136,151.552061 C198.632147,151.552061 196.289978,153.894231 196.289978,156.783443 C196.289978,159.672656 198.632147,162.014825 201.52136,162.014825 Z" id="Rectangle-26"></path>
                <path d="M129.124757,201.758022 L176.809034,201.758022 C181.280421,201.758022 184.899848,198.162506 184.899848,193.676159 L184.899848,80.3056423 C184.899848,75.8335221 181.30346,72.2237789 176.809034,72.2237789 L129.124757,72.2237789 C124.65337,72.2237789 121.033943,75.8192956 121.033943,80.3056423 L121.033943,193.676159 C121.033943,198.148279 124.630331,201.758022 129.124757,201.758022 Z M127.338546,84.3535251 C127.338546,84.3505892 177.704881,84.3670105 177.704881,84.3670105 C177.715658,84.3670105 177.701557,185.564689 177.701557,185.564689 C177.701557,185.567625 127.335222,185.551204 127.335222,185.551204 C127.324445,185.551204 127.338546,84.3535251 127.338546,84.3535251 Z M152.966895,197.710077 C155.202514,197.710077 157.014841,195.89775 157.014841,193.662132 C157.014841,191.426514 155.202514,189.614187 152.966895,189.614187 C150.731277,189.614187 148.91895,191.426514 148.91895,193.662132 C148.91895,195.89775 150.731277,197.710077 152.966895,197.710077 Z" id="Rectangle-26"></path>
            </g>
            <g id="layer1" transform="translate(209.660333, 140.000000)" sketch:type="MSShapeGroup">
                <g>
                    <path d="M1.19073264,12.9305649 C0.439519837,11.660952 0.00895419048,10.1831537 0.00895419048,8.60590978 C0.00895419048,3.87063538 3.88984958,0.0318993036 8.67717021,0.0318993036 C9.98609708,0.0318993036 11.2272633,0.318867647 12.3398723,0.832667512 C13.4617432,0.555655113 14.6331146,0.408908032 15.837911,0.408908032 C24.0595367,0.408908032 30.7246257,7.24263428 30.7246257,15.672445 C30.7246257,16.9051273 30.5821068,18.1036806 30.3130423,19.251728 C30.9371927,20.4358509 31.2900455,21.7821576 31.2900455,23.2100079 C31.2900455,27.9452823 27.4089636,31.7840184 22.6218295,31.7840184 C21.0950283,31.7840184 19.6604348,31.3935963 18.4145212,30.7081835 C17.5775902,30.8579175 16.7166411,30.9359819 15.837911,30.9359819 C7.61628518,30.9359819 0.951196192,24.1022557 0.951196192,15.672445 C0.951196192,14.736416 1.03337294,13.8200658 1.19073264,12.9305649 Z" id="path24965" fill="#FFFFFF"></path>
                    <path d="M16.2109586,4.68855561 L16.1250294,4.677291 L16.0384715,4.67299449 C14.4928656,4.59627458 12.8475297,4.93599793 11.5132697,5.68025117 C9.79004969,6.64146709 8.66535263,8.22024064 8.51623362,10.2378808 C8.39149813,12.3708576 9.04751158,14.0375547 10.5349705,15.2445879 C11.6826256,16.1758794 13.1794966,16.7620077 15.592558,17.3747275 C15.8048269,17.4302277 16.6110309,17.6373406 16.5483353,17.6211602 C18.2981294,18.0727442 19.1255752,18.3594909 19.6792639,18.7316233 C20.1094786,19.0207693 20.2347853,19.2647198 20.1976864,19.8763988 L20.1943661,19.9549277 C20.178778,20.6060308 19.914049,21.0413244 19.3421305,21.3932216 C18.65302,21.817226 17.5920175,22.049026 16.3815747,22.0080186 C14.3798396,21.9161801 12.8848359,21.0452791 11.7830232,19.6304234 C11.0550612,18.6956355 9.70713603,18.5279699 8.77234813,19.2559319 C7.83756023,19.983894 7.66989471,21.3318191 8.39785672,22.266607 C10.2280522,24.6167909 12.8443604,26.1408979 16.2107808,26.2950914 C18.2353922,26.3638333 20.1204425,25.9520015 21.5905522,25.0474542 C23.3679512,23.953834 24.4323067,22.203715 24.4836866,20.0576186 L24.4803662,20.1361475 C24.6111118,17.9804432 23.7452823,16.2948226 22.0726029,15.1706201 C20.9720267,14.4309263 19.8502587,14.0421839 17.6205032,13.4667322 C17.6753929,13.4808981 16.8793026,13.2763834 16.6627174,13.2198076 C14.8013286,12.7471156 13.7676689,12.3423665 13.2384985,11.9129588 C12.8771482,11.6197327 12.751772,11.3011962 12.7973042,10.5209847 C12.831275,10.0648328 13.075819,9.72155866 13.6033745,9.42728699 C14.1990414,9.09502271 15.0482755,8.91967574 15.8257615,8.95826815 L15.6532744,8.94270702 C17.5642211,9.19321642 19.0929306,9.9521267 20.4213763,11.323435 C21.2457534,12.1744107 22.6038951,12.1959732 23.4548708,11.3715962 C24.3058465,10.5472192 24.327409,9.18907749 23.5030319,8.33810179 C21.4952557,6.26554424 19.074923,5.06399777 16.2109586,4.68855561 Z" id="path24997" fill="#75BAEF"></path>
                </g>
            </g>
            <g id="layer1" transform="translate(149.660333, 93.000000)" sketch:type="MSShapeGroup">
                <g>
                    <path d="M1.19073264,12.9305649 C0.439519837,11.660952 0.00895419048,10.1831537 0.00895419048,8.60590978 C0.00895419048,3.87063538 3.88984958,0.0318993036 8.67717021,0.0318993036 C9.98609708,0.0318993036 11.2272633,0.318867647 12.3398723,0.832667512 C13.4617432,0.555655113 14.6331146,0.408908032 15.837911,0.408908032 C24.0595367,0.408908032 30.7246257,7.24263428 30.7246257,15.672445 C30.7246257,16.9051273 30.5821068,18.1036806 30.3130423,19.251728 C30.9371927,20.4358509 31.2900455,21.7821576 31.2900455,23.2100079 C31.2900455,27.9452823 27.4089636,31.7840184 22.6218295,31.7840184 C21.0950283,31.7840184 19.6604348,31.3935963 18.4145212,30.7081835 C17.5775902,30.8579175 16.7166411,30.9359819 15.837911,30.9359819 C7.61628518,30.9359819 0.951196192,24.1022557 0.951196192,15.672445 C0.951196192,14.736416 1.03337294,13.8200658 1.19073264,12.9305649 Z" id="path24965" fill="#FFFFFF"></path>
                    <path d="M16.2109586,4.68855561 L16.1250294,4.677291 L16.0384715,4.67299449 C14.4928656,4.59627458 12.8475297,4.93599793 11.5132697,5.68025117 C9.79004969,6.64146709 8.66535263,8.22024064 8.51623362,10.2378808 C8.39149813,12.3708576 9.04751158,14.0375547 10.5349705,15.2445879 C11.6826256,16.1758794 13.1794966,16.7620077 15.592558,17.3747275 C15.8048269,17.4302277 16.6110309,17.6373406 16.5483353,17.6211602 C18.2981294,18.0727442 19.1255752,18.3594909 19.6792639,18.7316233 C20.1094786,19.0207693 20.2347853,19.2647198 20.1976864,19.8763988 L20.1943661,19.9549277 C20.178778,20.6060308 19.914049,21.0413244 19.3421305,21.3932216 C18.65302,21.817226 17.5920175,22.049026 16.3815747,22.0080186 C14.3798396,21.9161801 12.8848359,21.0452791 11.7830232,19.6304234 C11.0550612,18.6956355 9.70713603,18.5279699 8.77234813,19.2559319 C7.83756023,19.983894 7.66989471,21.3318191 8.39785672,22.266607 C10.2280522,24.6167909 12.8443604,26.1408979 16.2107808,26.2950914 C18.2353922,26.3638333 20.1204425,25.9520015 21.5905522,25.0474542 C23.3679512,23.953834 24.4323067,22.203715 24.4836866,20.0576186 L24.4803662,20.1361475 C24.6111118,17.9804432 23.7452823,16.2948226 22.0726029,15.1706201 C20.9720267,14.4309263 19.8502587,14.0421839 17.6205032,13.4667322 C17.6753929,13.4808981 16.8793026,13.2763834 16.6627174,13.2198076 C14.8013286,12.7471156 13.7676689,12.3423665 13.2384985,11.9129588 C12.8771482,11.6197327 12.751772,11.3011962 12.7973042,10.5209847 C12.831275,10.0648328 13.075819,9.72155866 13.6033745,9.42728699 C14.1990414,9.09502271 15.0482755,8.91967574 15.8257615,8.95826815 L15.6532744,8.94270702 C17.5642211,9.19321642 19.0929306,9.9521267 20.4213763,11.323435 C21.2457534,12.1744107 22.6038951,12.1959732 23.4548708,11.3715962 C24.3058465,10.5472192 24.327409,9.18907749 23.5030319,8.33810179 C21.4952557,6.26554424 19.074923,5.06399777 16.2109586,4.68855561 Z" id="path24997" fill="#75BAEF"></path>
                </g>
            </g>
            <g id="layer1" transform="translate(258.660333, 86.000000)" sketch:type="MSShapeGroup">
                <g>
                    <path d="M1.19073264,12.9305649 C0.439519837,11.660952 0.00895419048,10.1831537 0.00895419048,8.60590978 C0.00895419048,3.87063538 3.88984958,0.0318993036 8.67717021,0.0318993036 C9.98609708,0.0318993036 11.2272633,0.318867647 12.3398723,0.832667512 C13.4617432,0.555655113 14.6331146,0.408908032 15.837911,0.408908032 C24.0595367,0.408908032 30.7246257,7.24263428 30.7246257,15.672445 C30.7246257,16.9051273 30.5821068,18.1036806 30.3130423,19.251728 C30.9371927,20.4358509 31.2900455,21.7821576 31.2900455,23.2100079 C31.2900455,27.9452823 27.4089636,31.7840184 22.6218295,31.7840184 C21.0950283,31.7840184 19.6604348,31.3935963 18.4145212,30.7081835 C17.5775902,30.8579175 16.7166411,30.9359819 15.837911,30.9359819 C7.61628518,30.9359819 0.951196192,24.1022557 0.951196192,15.672445 C0.951196192,14.736416 1.03337294,13.8200658 1.19073264,12.9305649 Z" id="path24965" fill="#FFFFFF"></path>
                    <path d="M16.2109586,4.68855561 L16.1250294,4.677291 L16.0384715,4.67299449 C14.4928656,4.59627458 12.8475297,4.93599793 11.5132697,5.68025117 C9.79004969,6.64146709 8.66535263,8.22024064 8.51623362,10.2378808 C8.39149813,12.3708576 9.04751158,14.0375547 10.5349705,15.2445879 C11.6826256,16.1758794 13.1794966,16.7620077 15.592558,17.3747275 C15.8048269,17.4302277 16.6110309,17.6373406 16.5483353,17.6211602 C18.2981294,18.0727442 19.1255752,18.3594909 19.6792639,18.7316233 C20.1094786,19.0207693 20.2347853,19.2647198 20.1976864,19.8763988 L20.1943661,19.9549277 C20.178778,20.6060308 19.914049,21.0413244 19.3421305,21.3932216 C18.65302,21.817226 17.5920175,22.049026 16.3815747,22.0080186 C14.3798396,21.9161801 12.8848359,21.0452791 11.7830232,19.6304234 C11.0550612,18.6956355 9.70713603,18.5279699 8.77234813,19.2559319 C7.83756023,19.983894 7.66989471,21.3318191 8.39785672,22.266607 C10.2280522,24.6167909 12.8443604,26.1408979 16.2107808,26.2950914 C18.2353922,26.3638333 20.1204425,25.9520015 21.5905522,25.0474542 C23.3679512,23.953834 24.4323067,22.203715 24.4836866,20.0576186 L24.4803662,20.1361475 C24.6111118,17.9804432 23.7452823,16.2948226 22.0726029,15.1706201 C20.9720267,14.4309263 19.8502587,14.0421839 17.6205032,13.4667322 C17.6753929,13.4808981 16.8793026,13.2763834 16.6627174,13.2198076 C14.8013286,12.7471156 13.7676689,12.3423665 13.2384985,11.9129588 C12.8771482,11.6197327 12.751772,11.3011962 12.7973042,10.5209847 C12.831275,10.0648328 13.075819,9.72155866 13.6033745,9.42728699 C14.1990414,9.09502271 15.0482755,8.91967574 15.8257615,8.95826815 L15.6532744,8.94270702 C17.5642211,9.19321642 19.0929306,9.9521267 20.4213763,11.323435 C21.2457534,12.1744107 22.6038951,12.1959732 23.4548708,11.3715962 C24.3058465,10.5472192 24.327409,9.18907749 23.5030319,8.33810179 C21.4952557,6.26554424 19.074923,5.06399777 16.2109586,4.68855561 Z" id="path24997" fill="#75BAEF"></path>
                </g>
            </g>
        </g>
    </g>
</svg>