<?xml version="1.0" encoding="UTF-8" standalone="no"?>
<svg width="400px" height="250px" viewBox="0 0 400 250" version="1.1" xmlns="http://www.w3.org/2000/svg" xmlns:xlink="http://www.w3.org/1999/xlink" xmlns:sketch="http://www.bohemiancoding.com/sketch/ns">
    <title>Untitled 2</title>
    <description>Created with Sketch (http://www.bohemiancoding.com/sketch)</description>
    <defs></defs>
    <g id="Page-1" stroke="none" stroke-width="1" fill="none" fill-rule="evenodd" sketch:type="MSPage">
        <g id="Group" sketch:type="MSLayerGroup" transform="translate(-1.000000, 0.000000)">
            <g sketch:type="MSShapeGroup">
                <rect id="Rectangle-1" fill="#F9F9F9" x="0" y="0" width="400" height="250"></rect>
                <path d="M221.023437,160.105469 L259.583308,160.105469 C262.34278,160.105469 264.579774,162.351999 264.579774,165.098647 L264.579774,188.952087 C264.579774,191.709743 266.816233,193.945265 269.581201,193.945265 L305.36792,193.945265" id="Path-9" stroke="#62A1D1" stroke-width="5" stroke-linecap="round"></path>
                <path d="M73.030971,83.210798 L103.587368,83.210798 C106.348897,83.210798 108.587558,85.4589598 108.587558,88.2102294 L108.587558,122.928241 C108.587558,125.68935 110.834894,127.927672 113.585681,127.927672 L162.48618,127.927672" id="Path-9" stroke="#A3BF3A" stroke-width="5" stroke-linecap="round"></path>
                <path d="M286.722656,193.341797 L286.722656,148.027412 C286.722656,145.260909 288.951532,143.018215 291.732219,143.018215 L312.864936,143.018215" id="Path-11" stroke="#62A1D1" stroke-width="5" stroke-linecap="round"></path>
                <path d="M107.384766,110.025391 L91.6839569,110.025391 C88.9240693,110.025391 86.6867384,112.271526 86.6867384,115.033287 L86.6867384,142.729748 C86.6867384,145.495532 84.4528151,147.737644 81.6915661,147.737644 L69.7323603,147.737644" id="Path-12" stroke="#A3BF3A" stroke-width="5" stroke-linecap="round"></path>
                <path d="M255.910156,95.7109375 L286.895797,95.7109375 C289.659561,95.7109375 291.900035,93.4722497 291.900035,90.7122797 L291.900035,77.1392791 C291.900035,74.3785966 294.148508,72.1406213 296.891435,72.1406213 L318.272166,72.1406213" id="Path-13" stroke="#F99D1C" stroke-width="5" stroke-linecap="round"></path>
                <path d="M267.568359,95.8398438 L267.568359,59.3954383 C267.568359,56.6345398 269.807057,54.3963893 272.561961,54.3963893 L286.257687,54.3963893 C289.015577,54.3963893 291.251288,52.1629833 291.251288,49.3889423 L291.251288,36.9665098 C291.251288,34.2009731 293.490605,31.9590627 296.246057,31.9590627 L318.056798,31.9590627" id="Path-14" stroke="#F99D1C" stroke-width="5" stroke-linecap="round"></path>
                <path d="M170.902344,120.267578 L170.902344,63.8916869 C170.902344,61.1322931 173.149584,58.8953624 175.901267,58.8953624 L202.266631,58.8953624 C205.02746,58.8953624 207.265554,56.6600265 207.265554,53.8884166 L207.265554,28.1577057" id="Path-15" stroke="#D7E385" stroke-width="5" stroke-linecap="round"></path>
                <path d="M170.402344,68.84375 L144.965059,68.84375 C142.20891,68.84375 139.974609,66.6070307 139.974609,63.8399109 L139.974609,45.4936937 C139.974609,42.7301496 137.733992,40.4898545 134.97896,40.4898545 L117.464833,40.4898545" id="Path-16" stroke="#D7E385" stroke-width="5" stroke-linecap="round"></path>
                <path d="M173.111328,179.585938 L173.111328,194.949092 C173.111328,197.715985 170.881595,199.958996 168.101663,199.958996 L111.105259,199.958996 C108.338497,199.958996 106.095594,197.714805 106.095594,194.96493 L106.095594,176.654545 C106.095594,173.896399 103.86056,171.660479 101.098082,171.660479 L85.9307778,171.660479" id="Path-17" stroke="#D83E32" stroke-width="5" stroke-linecap="round"></path>
                <path d="M276.806641,193.953125 L276.806641,213.06402 C276.806641,215.822513 279.052492,218.058713 281.797997,218.058713 L329.862395,218.058713" id="Path-18" stroke="#62A1D1" stroke-width="5" stroke-linecap="round"></path>
                <path d="M149.359375,201.613281 L149.359375,218.120717 C149.359375,220.883465 147.127295,223.123115 144.363804,223.123115 L127.344258,223.123115" id="Path-19" stroke="#D83E32" stroke-width="5" stroke-linecap="round"></path>
                <g id="Rectangle-26-+-Rectangle-26" transform="translate(146.000000, 106.000000)">
                    <rect id="Rectangle-26" stroke="#6E6E6E" stroke-width="4" fill="#F8F8F8" x="11.7188161" y="0.4765625" width="82.51311" height="61.8848325" rx="1"></rect>
                    <path d="M69.9713505,67.8756978 L107.840912,67.8756978 C107.840912,73.4523958 103.305356,77.9892052 97.7104653,77.9892052 L9.77261167,77.9892052 C4.15357784,77.9892052 -0.35783487,73.4612337 -0.35783487,67.8756978 L40.2166951,67.8756978 L40.2166951,68.590573 C40.2166951,69.6896713 41.1071929,70.5806665 42.2151844,70.5806665 L67.9728613,70.5806665 C69.0765964,70.5806665 69.9713505,69.6849633 69.9713505,68.590573 L69.9713505,67.8756978 Z" id="Rectangle-26" fill="#6E6E6E"></path>
                </g>
                <rect id="Rectangle-38" fill="#2779B7" x="164" y="112" width="70" height="50"></rect>
                <path d="M136.482955,116.785333 C140.000753,116.785333 143.326865,115.964627 146.280264,114.504242 C146.280265,114.504243 160.330543,118.899784 160.330543,118.899784 C160.330543,118.899784 156.04774,105.009556 156.047741,105.009556 C157.686917,101.919417 158.615426,98.3945724 158.615426,94.6528628 C158.615426,82.4294363 148.706382,72.5203923 136.482955,72.5203923 C124.259529,72.5203923 114.350485,82.4294363 114.350485,94.6528628 C114.350485,106.876289 124.259529,116.785333 136.482955,116.785333 Z" id="Oval-3" fill="#F26522" transform="translate(137.368254, 95.538162) rotate(-8.000000) translate(-137.368254, -95.538162) "></path>
                <path d="M136.616953,168.052439 C139.291999,168.052439 141.82128,167.428348 144.067138,166.317824 C144.067139,166.317825 154.751417,169.660334 154.751417,169.660334 C154.751417,169.660334 151.494638,159.097763 151.494638,159.097763 C152.74112,156.747923 153.447187,154.067519 153.447187,151.222205 C153.447187,141.927122 145.912035,134.39197 136.616953,134.39197 C127.321871,134.39197 119.786719,141.927122 119.786719,151.222205 C119.786719,160.517287 127.321871,168.052439 136.616953,168.052439 Z" id="Oval-3" fill="#2779B7" transform="translate(137.286719, 151.891970) rotate(-55.000000) translate(-137.286719, -151.891970) "></path>
                <path d="M194.56417,102.531389 C197.431097,102.531389 200.141805,101.862532 202.548759,100.67235 C202.54876,100.672351 213.999425,104.254619 213.999425,104.254619 L210.509037,92.9343909 C211.844929,90.4159964 212.601643,87.543326 212.601643,84.4939155 C212.601643,74.5320935 204.525992,66.456442 194.56417,66.456442 C184.602348,66.456442 176.526696,74.5320935 176.526696,84.4939155 C176.526696,94.4557375 184.602348,102.531389 194.56417,102.531389 Z" id="Oval-3" fill="#2779B7" transform="translate(195.285669, 85.215414) rotate(49.000000) translate(-195.285669, -85.215414) "></path>
                <path d="M254,110 C257.973571,110 261.730621,109.072962 265.066669,107.423365 C265.066669,107.423367 280.937331,112.388403 280.937331,112.388403 L276.09964,96.6985279 C277.951192,93.2080244 279,89.2264934 279,85 C279,71.1928806 267.807119,60 254,60 C240.192881,60 229,71.1928806 229,85 C229,98.8071194 240.192881,110 254,110 Z" id="Oval-3" fill="#D83E32" transform="translate(255.000000, 86.000000) rotate(77.000000) translate(-255.000000, -86.000000) "></path>
                <path d="M258.440145,151.216933 C261.109181,151.216933 263.63278,150.594244 265.873594,149.486215 C265.873594,149.486215 276.533871,152.821216 276.533871,152.821216 L273.284408,142.282373 C274.52809,139.937812 275.232571,137.263429 275.232571,134.424506 C275.232571,125.150304 267.714346,117.632079 258.440145,117.632079 C249.165943,117.632079 241.647718,125.150304 241.647718,134.424506 C241.647718,143.698708 249.165943,151.216933 258.440145,151.216933 Z" id="Oval-3" fill="#359900" transform="translate(259.111842, 135.096203) rotate(125.000000) translate(-259.111842, -135.096203) "></path>
            </g>
            <g id="Imported-Layers" transform="translate(326.000000, 209.888889)" fill="#F26522" sketch:type="MSShapeGroup">
                <path d="M26.8208889,-0.249666667 L1.45288889,-0.249666667 C1.11377778,-0.249666667 0.805777778,-0.115888889 0.574,0.0956666667 L13.2097778,10.5194444 C13.7223333,10.9425556 14.5522222,10.9425556 15.0655556,10.5194444 L27.7013333,0.0956666667 C27.4687778,-0.115888889 27.1615556,-0.249666667 26.8208889,-0.249666667" id="Fill-1"></path>
                <path d="M15.1316667,12.201 C14.5817778,12.6536667 13.6927778,12.6536667 13.1436667,12.201 L0.140777778,1.47544444 L0.140777778,15.9475556 C0.140777778,16.6708889 0.728777778,17.2596667 1.45288889,17.2596667 L26.8208889,17.2596667 C27.5465556,17.2596667 28.1353333,16.6708889 28.1353333,15.9475556 L28.1353333,1.47544444 L15.1316667,12.201 L15.1316667,12.201 Z M8.21333333,10.2954444 L2.08833333,16.1272222 C1.98333333,16.2283333 1.84488889,16.2788889 1.708,16.2788889 C1.56177778,16.2788889 1.41866667,16.2221111 1.30822222,16.1085556 C1.09977778,15.8876667 1.10911111,15.5384444 1.32766667,15.3284444 L7.45266667,9.49666667 C7.67122222,9.28744444 8.02044444,9.29522222 8.23277778,9.51611111 C8.442,9.737 8.43344444,10.0854444 8.21333333,10.2954444 L8.21333333,10.2954444 Z M26.9671111,16.1085556 C26.8574444,16.2221111 26.7143333,16.2788889 26.5665556,16.2788889 C26.4304444,16.2788889 26.2935556,16.2283333 26.1877778,16.1272222 L20.0643333,10.2954444 C19.8426667,10.0854444 19.8333333,9.737 20.0441111,9.51611111 C20.2556667,9.29522222 20.6048889,9.289 20.8226667,9.49666667 L26.9476667,15.3284444 C27.1677778,15.5384444 27.1755556,15.8876667 26.9671111,16.1085556 L26.9671111,16.1085556 Z" id="Fill-2"></path>
            </g>
            <g id="Imported-Layers" transform="translate(245.000000, 68.769231)" fill="#FFFFFF" sketch:type="MSShapeGroup">
                <path d="M21.8633538,10.4843077 C21.8633538,4.55593846 17.0606769,-0.246738462 11.1323077,-0.246738462 C5.20476923,-0.246738462 0.402092308,4.55593846 0.402092308,10.4843077 C0.402092308,10.8373846 0.471876923,11.1705231 0.505107692,11.5136308 C0.407076923,11.6191385 0.657969231,15.7929231 4.70132308,20.9985231 C5.88350769,22.572 5.39335385,25.7272615 5.38255385,25.7272615 L10.3713231,25.7272615 L11.8932923,25.7272615 L16.8820615,25.7272615 C16.8729231,25.7272615 16.3827692,22.572 17.5641231,20.9985231 C21.6108,15.7904308 21.8583692,11.6191385 21.7603385,11.5136308 C21.7935692,11.1705231 21.8633538,10.8373846 21.8633538,10.4843077 L21.8633538,10.4843077 Z M9.88116923,23.8771385 L9.88116923,18.7388308 C9.88116923,18.6349846 9.85707692,18.5319692 9.80972308,18.4389231 L7.75024615,14.3872615 C7.88150769,14.3723077 8.01276923,14.3556923 8.15067692,14.3091692 C8.48298462,14.1928615 8.81529231,13.9835077 9.1152,13.7201538 C9.43421538,14.1122769 9.84378462,14.3689846 10.2982154,14.4429231 C10.8880615,14.5368 11.5169538,14.2659692 12.0893538,13.6860923 C12.1333846,13.7608615 12.1790769,13.8314769 12.2280923,13.8996 C12.5404615,14.3316 12.9292615,14.5633846 13.3346769,14.5633846 C13.3812,14.5633846 13.4293846,14.5600615 13.4775692,14.5542462 C13.6154769,14.5351385 13.7450769,14.5044 13.8713538,14.4686769 L11.8517538,18.4389231 C11.8044,18.5319692 11.7803077,18.6349846 11.7803077,18.7388308 L11.7803077,23.8771385 L9.88116923,23.8771385 L9.88116923,23.8771385 Z M9.24812308,11.3134154 C9.26058462,11.3017846 9.27553846,11.2851692 9.31292308,11.2851692 C9.33036923,11.2851692 9.3528,11.2884923 9.38187692,11.2968 C9.54803077,11.3441538 9.61449231,11.4322154 9.62030769,11.6083385 C9.62695385,11.8758462 9.4824,12.2347385 9.24646154,12.5828308 C9.04541538,11.9664 9.11686154,11.4504923 9.24812308,11.3134154 L9.24812308,11.3134154 Z M12.3244615,11.1298154 C12.3959077,10.9836 12.4706769,10.9811077 12.5105538,10.9794462 C12.5163692,10.9786154 12.5221846,10.9786154 12.528,10.9786154 C12.6019385,10.9786154 12.6127385,10.9985538 12.6202154,11.0126769 C12.7116,11.1829846 12.6144,11.7155077 12.2845846,12.3178154 C12.1923692,11.8368 12.204,11.3782154 12.3244615,11.1298154 L12.3244615,11.1298154 Z M19.9700308,10.9179692 L19.8387692,12.1616308 L19.8595385,12.1815692 C19.6634769,13.3346769 18.9099692,16.2515077 16.1036308,19.8636923 C15.2520923,20.9985231 14.9663077,22.5495692 14.9272615,23.8771385 L13.1004,23.8771385 L13.1004,18.8966769 L15.5063077,14.1679385 C15.6716308,13.8422769 15.5412,13.4451692 15.2163692,13.2790154 C14.9015077,13.1195077 14.5201846,13.2399692 14.3465538,13.5456923 C14.1164308,13.6844308 13.7791385,13.8480923 13.3895077,13.8996 C13.1303077,13.9353231 12.9051692,13.7085231 12.7631077,13.5124615 C12.6825231,13.3994769 12.6094154,13.2732 12.5462769,13.1386154 C12.5496,13.1344615 12.5529231,13.1294769 12.5570769,13.1236615 C13.0920923,12.3709846 13.5216,11.2909846 13.2009231,10.6986462 C13.0613538,10.4402769 12.7971692,10.3123385 12.4839692,10.3189846 C12.1566462,10.3314462 11.8883077,10.5175385 11.7312923,10.8415385 C11.4745846,11.3674154 11.5202769,12.2546769 11.7902769,13.0331077 C11.3973231,13.4875385 10.8830769,13.8755077 10.4037231,13.7907692 C10.0896923,13.7392615 9.80224615,13.5440308 9.57710769,13.2391385 C10.0082769,12.7132615 10.2940615,12.096 10.2799385,11.5892308 C10.2666462,11.1264923 10.0049538,10.7875385 9.56298462,10.6620923 C9.25643077,10.5732 8.9748,10.6429846 8.77126154,10.8573231 C8.36169231,11.2851692 8.40406154,12.1475077 8.62670769,12.8121231 C8.66658462,12.9309231 8.71227692,13.0439077 8.76295385,13.1527385 C8.51123077,13.3895077 8.22461538,13.5839077 7.93467692,13.6844308 C7.7436,13.7517231 7.57329231,13.7608615 7.41544615,13.7301231 L7.33403077,13.5689538 C7.18947692,13.2848308 6.86963077,13.1627077 6.57304615,13.2432923 C6.53981538,13.2466154 6.50741538,13.2565846 6.47501538,13.2715385 C6.46587692,13.2756923 6.45507692,13.2740308 6.44593846,13.2790154 C6.43929231,13.2823385 6.43513846,13.2889846 6.42849231,13.2931385 C6.42267692,13.2964615 6.41686154,13.2972923 6.41104615,13.3014462 C6.40356923,13.3072615 6.40024615,13.3147385 6.39276923,13.3205538 C6.1128,13.5024923 6.00147692,13.8630462 6.15683077,14.1679385 L8.56107692,18.8966769 L8.56107692,23.8771385 L7.34067692,23.8771385 C7.30495385,22.5512308 7.02332308,21.0084923 6.17926154,19.8886154 C3.36046154,16.2573231 2.60529231,13.3346769 2.40590769,12.1815692 L2.42667692,12.1616308 L2.29541538,10.9179692 C2.27464615,10.7759077 2.25138462,10.6313538 2.25138462,10.4843077 C2.25138462,5.58609231 6.23409231,1.60338462 11.1323077,1.60338462 C16.0313538,1.60338462 20.0140615,5.58609231 20.0140615,10.4843077 C20.0140615,10.6313538 19.9908,10.7759077 19.9700308,10.9179692 L19.9700308,10.9179692 Z" id="Fill-1"></path>
                <path d="M5.47892308,27.5300308 L5.96076923,27.5300308 L5.96076923,28.3558154 L5.47892308,28.3558154 L5.47892308,29.2223077 L5.96076923,29.2223077 L5.96076923,30.0480923 L5.50633846,30.0480923 C5.57778462,31.1314154 6.60710769,31.9987385 7.92221538,32.0793231 C8.1648,32.6292923 8.71144615,33.0139385 9.35030769,33.0139385 L12.9151385,33.0139385 C13.554,33.0139385 14.1014769,32.6292923 14.3432308,32.0793231 C15.6583385,31.9987385 16.6876615,31.1314154 16.7591077,30.0480923 L16.3611692,30.0480923 L16.3611692,29.2223077 L16.7873538,29.2223077 L16.7873538,28.3558154 L16.3611692,28.3558154 L16.3611692,27.5300308 L16.7873538,27.5300308 L16.7873538,26.622 L5.47892308,26.622 L5.47892308,27.5300308" id="Fill-2"></path>
            </g>
            <g id="Imported-Layers" transform="translate(66.258294, 162.262718)" fill="#62A1D1" sketch:type="MSShapeGroup">
                <path d="M18.6252975,8.93153683 C18.6252975,3.88118447 14.5339176,-0.210195439 9.48356526,-0.210195439 C4.43392062,-0.210195439 0.342540715,3.88118447 0.342540715,8.93153683 C0.342540715,9.23232155 0.40198993,9.51612078 0.43029908,9.80841275 C0.346787088,9.89829431 0.56052117,13.4539235 4.005037,17.8885519 C5.01213501,19.2289902 4.59457505,21.9169439 4.58537457,21.9169439 L8.83528572,21.9169439 L10.1318448,21.9169439 L14.3817559,21.9169439 C14.3739709,21.9169439 13.956411,19.2289902 14.9628012,17.8885519 C18.410148,13.4518004 18.6210512,9.89829431 18.5375392,9.80841275 C18.5658483,9.51612078 18.6252975,9.23232155 18.6252975,8.93153683 L18.6252975,8.93153683 Z M8.41772576,20.340832 L8.41772576,15.9635297 C8.41772576,15.8750636 8.39720163,15.7873052 8.35686109,15.7080396 L6.60240151,12.2564465 C6.71422266,12.2437074 6.8260438,12.2295528 6.94352677,12.18992 C7.22661827,12.090838 7.50970977,11.9124903 7.76519985,11.6881403 C8.03696769,12.0221883 8.38587797,12.2408765 8.77300559,12.3038643 C9.275493,12.3838377 9.81124367,12.1531181 10.2988688,11.6591234 C10.3363784,11.722819 10.3753035,11.782976 10.4170595,11.8410097 C10.6831655,12.2090287 11.0143825,12.406485 11.3597542,12.406485 C11.399387,12.406485 11.4404353,12.4036541 11.4814835,12.3987 C11.5989665,12.3824222 11.7093722,12.3562363 11.8169469,12.3258039 L10.0964584,15.7080396 C10.0561178,15.7873052 10.0355937,15.8750636 10.0355937,15.9635297 L10.0355937,20.340832 L8.41772576,20.340832 L8.41772576,20.340832 Z M7.87843645,9.63785013 C7.88905238,9.62794192 7.9017915,9.61378735 7.93363929,9.61378735 C7.9485016,9.61378735 7.96761027,9.61661826 7.99238078,9.62369555 C8.13392653,9.66403609 8.19054483,9.73905534 8.19549893,9.88909383 C8.20116076,10.1169825 8.07801596,10.4227213 7.87702099,10.7192597 C7.70575064,10.1941249 7.76661531,9.75462537 7.87843645,9.63785013 L7.87843645,9.63785013 Z M10.499156,9.48144207 C10.5600207,9.35688181 10.6237163,9.35475863 10.6576873,9.35334317 C10.6626414,9.35263544 10.6675955,9.35263544 10.6725496,9.35263544 C10.7355374,9.35263544 10.7447379,9.36962093 10.7511074,9.38165232 C10.8289576,9.52673671 10.7461533,9.98039084 10.465185,10.4934942 C10.3866271,10.0837192 10.3965353,9.69305297 10.499156,9.48144207 L10.499156,9.48144207 Z M17.0123837,9.30097124 L16.9005626,10.3604412 L16.9182558,10.3774267 C16.7512318,11.3597542 16.1093218,13.8445898 13.7186141,16.9217944 C12.9931921,17.8885519 12.7497334,19.2098815 12.7164702,20.340832 L11.1601747,20.340832 L11.1601747,16.0979982 L13.2097571,12.0696061 C13.3505952,11.7921764 13.2394817,11.4538821 12.9627598,11.3123363 C12.6945306,11.1764524 12.3696831,11.2790731 12.2217678,11.5395173 C12.0257269,11.657708 11.7383891,11.7971305 11.4064643,11.8410097 C11.1856529,11.8714421 10.9938584,11.6782321 10.8728368,11.5112081 C10.8041871,11.414957 10.741907,11.3073822 10.6881196,11.1927302 C10.6909505,11.1891915 10.6937814,11.1849452 10.6973201,11.1799911 C11.1530974,10.5387888 11.5189931,9.61874145 11.2458098,9.11413085 C11.1269114,8.89402721 10.9018537,8.78503698 10.6350399,8.79069881 C10.3561948,8.80131474 10.1275984,8.95984598 9.99383769,9.23586019 C9.7751495,9.68385249 9.81407458,10.4397068 10.0440864,11.1028486 C9.70933073,11.4899763 9.27124663,11.8204856 8.86288714,11.7482973 C8.59536568,11.7044181 8.35049153,11.5381018 8.15869704,11.2783654 C8.52600826,10.8303731 8.76946695,10.3045306 8.75743556,9.87281607 C8.7461119,9.47861116 8.52317734,9.18985783 8.14666565,9.08299078 C7.88551374,9.00726381 7.64559369,9.06671302 7.47220015,9.24930704 C7.12328987,9.61378735 7.15938404,10.3484098 7.34905535,10.9145928 C7.38302633,11.015798 7.42195141,11.1120491 7.46512286,11.2047616 C7.25068105,11.4064643 7.00651463,11.5720728 6.7595173,11.657708 C6.59673968,11.715034 6.45165529,11.722819 6.31718683,11.6966331 L6.24782941,11.5593337 C6.12468461,11.3172905 5.85220904,11.2132543 5.59954987,11.281904 C5.57124072,11.2847349 5.5436393,11.2932277 5.51603788,11.3059668 C5.50825287,11.3095054 5.49905239,11.30809 5.49126738,11.3123363 C5.48560555,11.3151673 5.4820669,11.3208291 5.47640507,11.3243677 C5.47145097,11.3271987 5.46649687,11.3279064 5.46154277,11.331445 C5.45517321,11.3363991 5.45234229,11.3427687 5.44597274,11.3477228 C5.20746815,11.5027154 5.11263249,11.8098697 5.24497777,12.0696061 L7.29314477,16.0979982 L7.29314477,20.340832 L6.25349124,20.340832 C6.2230589,19.2112969 5.98313886,17.8970446 5.26408645,16.9430263 C2.8627628,13.8495439 2.21943736,11.3597542 2.04958246,10.3774267 L2.06727568,10.3604412 L1.95545454,9.30097124 C1.93776132,9.17994962 1.91794491,9.05680482 1.91794491,8.93153683 C1.91794491,4.75876812 5.31079654,1.36591649 9.48356526,1.36591649 C13.6570417,1.36591649 17.0498933,4.75876812 17.0498933,8.93153683 C17.0498933,9.05680482 17.0300769,9.17994962 17.0123837,9.30097124 L17.0123837,9.30097124 Z" id="Fill-1"></path>
                <path d="M4.66747111,23.4527153 L5.07795379,23.4527153 L5.07795379,24.1561977 L4.66747111,24.1561977 L4.66747111,24.8943588 L5.07795379,24.8943588 L5.07795379,25.5978412 L4.69082616,25.5978412 C4.75169083,26.5207195 5.62856675,27.2595883 6.74890137,27.328238 C6.95555816,27.7967544 7.42124368,28.1244328 7.96548709,28.1244328 L11.0023512,28.1244328 C11.5465946,28.1244328 12.0129878,27.7967544 12.2189369,27.328238 C13.3392715,27.2595883 14.2161474,26.5207195 14.2770121,25.5978412 L13.93801,25.5978412 L13.93801,24.8943588 L14.3010749,24.8943588 L14.3010749,24.1561977 L13.93801,24.1561977 L13.93801,23.4527153 L14.3010749,23.4527153 L14.3010749,22.6791678 L4.66747111,22.6791678 L4.66747111,23.4527153" id="Fill-2"></path>
            </g>
            <path d="M61.7931707,131 C55.9131707,131 51.1463415,135.766146 51.1463415,141.645463 C51.1463415,147.526146 59.2909268,158.179805 61.7931707,158.179805 C64.6867317,158.179805 72.4393171,147.526146 72.4393171,141.645463 C72.4393171,135.766146 67.6724878,131 61.7931707,131 L61.7931707,131 Z M61.7931707,148.885171 C57.5235122,148.885171 54.0603902,145.540878 54.0603902,141.413951 C54.0603902,137.286341 57.5235122,133.942732 61.7931707,133.942732 C66.0628293,133.942732 69.5245854,137.286341 69.5245854,141.413951 C69.5245854,145.540878 66.0628293,148.885171 61.7931707,148.885171 L61.7931707,148.885171 Z" id="Imported-Layers" fill="#F26522" sketch:type="MSShapeGroup"></path>
            <g id="Oval-4-+-Oval-5" transform="translate(59.000000, 68.769231)" fill="#62A1D1" sketch:type="MSShapeGroup">
                <path d="M8.57895279,10.347779 C11.4364132,10.347779 13.7528423,8.0313499 13.7528423,5.17388949 C13.7528423,2.31642909 11.4364132,0 8.57895279,0 C5.72149238,0 3.40506329,2.31642909 3.40506329,5.17388949 C3.40506329,8.0313499 5.72149238,10.347779 8.57895279,10.347779 Z" id="Oval-4"></path>
                <path d="M17.521634,20.4006325 C17.521634,14.6005939 13.5992828,9.89873418 8.76081698,9.89873418 C3.92235112,9.89873418 0,14.6005939 0,20.4006325" id="Oval-5"></path>
            </g>
            <g id="Oval-4-+-Oval-5" transform="translate(199.000000, 15.500000)" fill="#D83E32" sketch:type="MSShapeGroup">
                <path d="M8.57895279,10.347779 C11.4364132,10.347779 13.7528423,8.0313499 13.7528423,5.17388949 C13.7528423,2.31642909 11.4364132,0 8.57895279,0 C5.72149238,0 3.40506329,2.31642909 3.40506329,5.17388949 C3.40506329,8.0313499 5.72149238,10.347779 8.57895279,10.347779 Z" id="Oval-4"></path>
                <path d="M17.521634,20.4006325 C17.521634,14.6005939 13.5992828,9.89873418 8.76081698,9.89873418 C3.92235112,9.89873418 0,14.6005939 0,20.4006325" id="Oval-5"></path>
            </g>
            <g id="Oval-4-+-Oval-5" transform="translate(114.000000, 208.000000)" fill="#2779B7" sketch:type="MSShapeGroup">
                <path d="M8.57895279,10.347779 C11.4364132,10.347779 13.7528423,8.0313499 13.7528423,5.17388949 C13.7528423,2.31642909 11.4364132,0 8.57895279,0 C5.72149238,0 3.40506329,2.31642909 3.40506329,5.17388949 C3.40506329,8.0313499 5.72149238,10.347779 8.57895279,10.347779 Z" id="Oval-4"></path>
                <path d="M17.521634,20.4006325 C17.521634,14.6005939 13.5992828,9.89873418 8.76081698,9.89873418 C3.92235112,9.89873418 0,14.6005939 0,20.4006325" id="Oval-5"></path>
            </g>
            <g id="Oval-4-+-Oval-5" transform="translate(312.000000, 22.000000)" fill="#359900" sketch:type="MSShapeGroup">
                <path d="M8.57895279,10.347779 C11.4364132,10.347779 13.7528423,8.0313499 13.7528423,5.17388949 C13.7528423,2.31642909 11.4364132,0 8.57895279,0 C5.72149238,0 3.40506329,2.31642909 3.40506329,5.17388949 C3.40506329,8.0313499 5.72149238,10.347779 8.57895279,10.347779 Z" id="Oval-4"></path>
                <path d="M17.521634,20.4006325 C17.521634,14.6005939 13.5992828,9.89873418 8.76081698,9.89873418 C3.92235112,9.89873418 0,14.6005939 0,20.4006325" id="Oval-5"></path>
            </g>
            <g id="Oval-4-+-Oval-5" transform="translate(304.000000, 131.000000)" fill="#F99D1C" sketch:type="MSShapeGroup">
                <path d="M10.0087783,12.0724088 C13.3424821,12.0724088 16.0449827,9.36990822 16.0449827,6.03620441 C16.0449827,2.7025006 13.3424821,0 10.0087783,0 C6.67507444,0 3.97257384,2.7025006 3.97257384,6.03620441 C3.97257384,9.36990822 6.67507444,12.0724088 10.0087783,12.0724088 Z" id="Oval-4"></path>
                <path d="M20.4419063,23.8007379 C20.4419063,17.0340262 15.86583,11.5485232 10.2209531,11.5485232 C4.57607631,11.5485232 0,17.0340262 0,23.8007379" id="Oval-5"></path>
            </g>
            <path d="M154.551471,62.1385294 C154.550588,62.9322059 153.907353,63.5758824 153.113676,63.5763235 C152.319559,63.5763235 151.675882,62.9322059 151.675882,62.1385294 C151.675882,59.6904412 149.683088,57.6980882 147.234118,57.6980882 C146.837941,57.6985294 146.478824,57.5366176 146.218971,57.2772059 C145.958235,57.0169118 145.797647,56.6569118 145.797647,56.2594118 C145.797647,55.4657353 146.442647,54.8229412 147.235882,54.8229412 C151.268676,54.8238235 154.551029,58.1048529 154.551471,62.1385294 L154.551471,62.1385294 Z M155.818529,53.555 C153.526176,51.2626471 150.478088,50.0004412 147.235882,50 C146.440882,50 145.797647,50.6432353 145.797647,51.4377941 C145.797647,52.2310294 146.442206,52.8751471 147.235,52.8747059 C149.709559,52.8738235 152.036324,53.8391176 153.785588,55.5879412 C155.535294,57.3376471 156.498824,59.6635294 156.499265,62.1385294 C156.499265,62.5351471 156.659853,62.8955882 156.919265,63.155 C157.179559,63.4152941 157.54,63.5758824 157.936618,63.5758824 C158.730735,63.5758824 159.374412,62.9322059 159.374412,62.1380882 C159.374412,58.8963235 158.111324,55.8477941 155.818529,53.555 L155.818529,53.555 Z M147.195735,60.1430882 C145.984265,60.1430882 145.000441,61.1273529 145,62.3397059 C145,63.5516176 145.9825,64.5345588 147.197059,64.5358824 C148.408088,64.5354412 149.392353,63.5511765 149.392794,62.3401471 C149.391471,61.1260294 148.408529,60.1430882 147.195735,60.1430882 L147.195735,60.1430882 Z" id="Imported-Layers" fill="#62A1D1" sketch:type="MSShapeGroup"></path>
            <path d="M301.551471,186.138529 C301.550588,186.932206 300.907353,187.575882 300.113676,187.576324 C299.319559,187.576324 298.675882,186.932206 298.675882,186.138529 C298.675882,183.690441 296.683088,181.698088 294.234118,181.698088 C293.837941,181.698529 293.478824,181.536618 293.218971,181.277206 C292.958235,181.016912 292.797647,180.656912 292.797647,180.259412 C292.797647,179.465735 293.442647,178.822941 294.235882,178.822941 C298.268676,178.823824 301.551029,182.104853 301.551471,186.138529 L301.551471,186.138529 Z M302.818529,177.555 C300.526176,175.262647 297.478088,174.000441 294.235882,174 C293.440882,174 292.797647,174.643235 292.797647,175.437794 C292.797647,176.231029 293.442206,176.875147 294.235,176.874706 C296.709559,176.873824 299.036324,177.839118 300.785588,179.587941 C302.535294,181.337647 303.498824,183.663529 303.499265,186.138529 C303.499265,186.535147 303.659853,186.895588 303.919265,187.155 C304.179559,187.415294 304.54,187.575882 304.936618,187.575882 C305.730735,187.575882 306.374412,186.932206 306.374412,186.138088 C306.374412,182.896324 305.111324,179.847794 302.818529,177.555 L302.818529,177.555 Z M294.195735,184.143088 C292.984265,184.143088 292.000441,185.127353 292,186.339706 C292,187.551618 292.9825,188.534559 294.197059,188.535882 C295.408088,188.535441 296.392353,187.551176 296.392794,186.340147 C296.391471,185.126029 295.408529,184.143088 294.195735,184.143088 L294.195735,184.143088 Z" id="Imported-Layers" fill="#D83E32" sketch:type="MSShapeGroup"></path>
            <g id="Imported-Layers" transform="translate(128.000000, 143.234146)" fill="#FFFFFF" sketch:type="MSShapeGroup">
                <path d="M4.89065714,14.4436857 L4.89065714,5.62408571 C4.89065714,5.05482857 4.4302,4.59291429 3.85997143,4.59291429 L1.79908571,4.59291429 C1.22885714,4.59291429 0.767428571,5.05482857 0.767428571,5.62408571 L0.767428571,14.4436857 L4.89065714,14.4436857" id="Fill-1"></path>
                <path d="M10.3899143,14.4436857 L10.3899143,1.27208571 C10.3899143,0.702828571 9.928,0.2414 9.35922857,0.2414 L7.2964,0.2414 C6.72762857,0.2414 6.26571429,0.702828571 6.26571429,1.27208571 L6.26571429,14.4436857 L10.3899143,14.4436857" id="Fill-2"></path>
                <path d="M15.8872286,14.4436857 L15.8872286,7.80057143 C15.8872286,7.2318 15.4258,6.76988571 14.8570286,6.76988571 L12.7951714,6.76988571 C12.2254286,6.76988571 11.764,7.2318 11.764,7.80057143 L11.764,14.4436857 L15.8872286,14.4436857" id="Fill-3"></path>
                <path d="M-0.148142857,14.9026857 L16.8037714,14.9026857 L16.8037714,16.048 L-0.148142857,16.048 L-0.148142857,14.9026857 Z" id="Fill-4"></path>
            </g>
            <path d="M145.381036,88.1349982 L129.457329,88.1349982 L128.823963,86.1588031 C128.801719,86.0616323 128.765426,85.9709006 128.715085,85.8871933 C128.714499,85.8836811 128.711573,85.8801689 128.710402,85.8784128 C128.68289,85.8309982 128.650109,85.7865104 128.614987,85.7431933 C128.599768,85.7244616 128.583377,85.7069006 128.565816,85.6893396 C128.542987,85.6676811 128.520743,85.6430957 128.496158,85.6226079 C128.462792,85.5933396 128.427085,85.5693396 128.390207,85.5435836 C128.37967,85.5371445 128.368548,85.5295348 128.356256,85.5225104 C128.153719,85.4025104 127.910207,85.3556811 127.666109,85.4025104 L125.434109,85.5892421 C124.888548,85.6208518 124.470597,86.0873884 124.501621,86.6329494 C124.531475,87.177925 124.999182,87.5964616 125.545329,87.5677787 L127.151573,87.4325592 L131.088743,99.8013396 C130.743963,100.215193 130.527963,100.741437 130.527963,101.32212 C130.527963,102.640364 131.596841,103.707486 132.913329,103.707486 C133.875085,103.707486 134.698109,103.136169 135.073914,102.318413 L138.259475,102.307291 C138.634695,103.131486 139.461816,103.707486 140.42767,103.707486 C141.744158,103.707486 142.812451,102.640364 142.812451,101.32212 C142.812451,100.005047 141.744158,98.9361689 140.42767,98.9361689 C139.466499,98.9361689 138.643475,99.5086567 138.265329,100.326413 L135.080938,100.337535 C134.704548,99.5121689 133.879182,98.9361689 132.913329,98.9361689 C132.90689,98.9361689 132.900451,98.9373396 132.892841,98.9390957 L132.430987,97.4955836 L142.680158,97.4955836 C143.874304,97.4955836 144.076256,96.6866079 144.841329,95.3361689 L147.542207,90.2944128 C148.577134,88.3141201 146.573426,88.1349982 145.381036,88.1349982" id="Imported-Layers" fill="#FFFFFF" sketch:type="MSShapeGroup"></path>
            <g id="Imported-Layers" transform="translate(101.000000, 25.500000)" fill="#F26522" sketch:type="MSShapeGroup">
                <path d="M7.79231547,26.5113409 C7.28753893,26.5113409 6.87447725,26.9326591 6.87447725,27.4505 C6.87447725,27.9683409 7.28753893,28.3896591 7.79231547,28.3896591 C8.30191911,28.3896591 8.71291203,27.9683409 8.71291203,27.4505 C8.71291203,26.9326591 8.30191911,26.5113409 7.79231547,26.5113409" id="Fill-1"></path>
                <path d="M13.0138564,0.333954545 L2.57491203,0.333954545 C1.31090192,0.333954545 0.286177958,1.38161364 0.286177958,2.67234091 L0.286177958,28.1888636 C0.286177958,29.4795909 1.31090192,30.52725 2.57491203,30.52725 L13.0138564,30.52725 C14.2771769,30.52725 15.3019009,29.4795909 15.3019009,28.1888636 L15.3019009,2.67234091 C15.3019009,1.38161364 14.2771769,0.333954545 13.0138564,0.333954545 L13.0138564,0.333954545 Z M5.8256178,2.13829545 L9.7610819,2.13829545 C9.87141557,2.13829545 9.96175126,2.23129545 9.96175126,2.34402273 C9.96175126,2.45745455 9.87141557,2.54975 9.7610819,2.54975 L5.8256178,2.54975 C5.71528413,2.54975 5.62563802,2.45745455 5.62563802,2.34402273 C5.62563802,2.23129545 5.71528413,2.13829545 5.8256178,2.13829545 L5.8256178,2.13829545 Z M7.79231547,28.8046364 C7.06342366,28.8046364 6.46900101,28.1973182 6.46900101,27.4505 C6.46900101,26.7022727 7.06342366,26.0970682 7.79231547,26.0970682 C8.52603438,26.0970682 9.11838827,26.7022727 9.11838827,27.4505 C9.11838827,28.1973182 8.52603438,28.8046364 7.79231547,28.8046364 L7.79231547,28.8046364 Z M2.28617796,4.93836668 L13.286178,4.93836668 L13.286178,24.6109742 L2.28617796,24.6109742 L2.28617796,4.93836668 Z" id="Fill-2"></path>
            </g>
            <path d="M260.065243,125.135135 L263.176081,131.43627 L270.131054,132.445973 L265.097865,137.351459 L266.286351,144.278622 L260.065243,141.008297 L253.844135,144.278622 L255.032622,137.351459 L250,132.445973 L256.956108,131.43627 L260.065243,125.135135" id="Imported-Layers" fill="#FFFFFF" sketch:type="MSShapeGroup"></path>
            <g id="Imported-Layers" transform="translate(186.000000, 75.250469)" sketch:type="MSShapeGroup">
                <path d="M9.23766667,0.105782051 C4.12502564,0.105782051 -0.0341538462,4.2654359 -0.0341538462,9.37665385 C-0.0341538462,14.4892949 4.12502564,18.6484744 9.23766667,18.6484744 C14.349359,18.6484744 18.5090128,14.4892949 18.5090128,9.37665385 C18.5090128,4.2654359 14.349359,0.105782051 9.23766667,0.105782051 L9.23766667,0.105782051 Z M17.2500641,12.1378974 C17.2220769,12.142641 17.1959872,12.1502308 17.2016795,12.1957692 C17.1964615,12.2256538 17.2007308,12.2455769 17.2097436,12.2598077 C16.989641,12.8655641 16.7017051,13.4371667 16.3568462,13.9698718 C16.2989744,13.9959615 16.2463205,14.0301154 16.2112179,14.0827692 C16.0025,14.0377051 15.9327692,14.1553462 15.8146538,14.2151154 C15.7311667,14.2241282 15.7273718,14.140641 15.6448333,14.1487051 C15.6230128,13.9916923 15.6889487,13.9357179 15.6737692,13.7848718 C15.6647564,13.7080256 15.6438846,13.6416154 15.5893333,13.6197949 C15.6590641,13.4542436 15.5893333,13.271141 15.5603974,13.123141 C15.5983462,13.0462949 15.7240513,13.0719103 15.7866667,13.024 C15.8905513,12.980359 15.8582949,12.7763846 15.9280256,12.6933718 C15.9863718,12.6260128 15.9830513,12.7076026 16.0409231,12.7256282 C16.1049615,12.7118718 16.0428205,12.5501154 16.0978462,12.5278205 C16.1846538,12.5320897 16.2577051,12.4495513 16.3250641,12.5278205 C16.4275256,12.5055256 16.4009615,12.3309615 16.4384359,12.2289744 C16.5209744,12.1834359 16.6153718,12.1511795 16.7206795,12.129359 C16.7785513,12.1217692 16.7282692,11.9846795 16.7776026,11.9647564 C16.9142179,12.0259487 17.1665769,11.9543205 17.2846923,12.0382821 C17.2733077,12.0719615 17.2619231,12.1051667 17.2500641,12.1378974 L17.2500641,12.1378974 Z M2.7114359,3.97370513 C2.74321795,3.98888462 2.77594872,4.00501282 2.80820513,4.02066667 C2.92110256,4.01117949 2.91967949,3.86412821 3.06246154,3.88832051 C3.05819231,3.97038462 3.07716667,4.02588462 3.11938462,4.05339744 C3.18057692,3.996 3.21615385,3.73367949 3.11938462,3.68814103 C3.09566667,3.59564103 3.15875641,3.60323077 3.14737179,3.52401282 C3.28446154,3.47562821 3.26548718,3.60702564 3.37364103,3.58994872 C3.41111538,3.73273077 3.50361538,3.81384615 3.60038462,3.88832051 C3.63121795,4.01592308 3.50029487,4.0064359 3.57097436,4.08707692 C3.62362821,4.01402564 3.68197436,3.95141026 3.71328205,3.85511538 C3.7185,3.78301282 3.61319231,3.84041026 3.57097436,3.82191026 C3.39735897,3.63548718 3.56575641,3.29774359 3.71328205,3.19338462 C3.80435897,3.19765385 3.83851282,3.26738462 3.82523077,3.39119231 C3.85701282,3.2849359 4.09798718,3.22042308 4.08138462,3.42439744 C4.17720513,3.41538462 4.24314103,3.37174359 4.36410256,3.39119231 C4.37311538,3.46851282 4.46229487,3.45285897 4.44948718,3.55674359 L4.70374359,3.55674359 C4.69283333,3.69146154 4.7810641,3.70948718 4.81711538,3.78870513 C4.80952564,3.8560641 4.73979487,3.85369231 4.73220513,3.92105128 C4.81616667,3.95425641 4.88969231,4.00216667 4.9869359,4.02066667 C5.01682051,4.05102564 4.99452564,4.14257692 5.07232051,4.11980769 C5.07279487,4.19760256 5.02346154,4.21705128 5.04291026,4.3185641 C4.94946154,4.28488462 4.95088462,4.36410256 4.95847436,4.45091026 C4.86976923,4.42292308 4.83846154,4.32615385 4.73220513,4.3185641 C4.73220513,4.41675641 4.80620513,4.43051282 4.81711538,4.51684615 C4.83608974,4.71465385 4.72698718,4.71038462 4.78912821,4.88210256 C4.55242308,4.85838462 4.48316667,4.64302564 4.30812821,4.55005128 C4.19001282,4.55479487 4.07094872,4.5614359 4.02446154,4.48364103 C4.05624359,4.24551282 4.36410256,4.329 4.3925641,4.08707692 C4.40869231,3.94524359 4.23982051,4.02303846 4.27871795,3.85511538 C4.18811538,3.8930641 4.10462821,3.75407692 4.05339744,3.85511538 C4.00691026,3.78680769 3.91014103,3.77779487 3.79866667,3.78870513 C3.83329487,3.83708974 3.90634615,3.83898718 3.93955128,3.88832051 C3.91014103,3.97512821 3.90634615,4.09134615 3.9115641,4.21894872 C3.78538462,4.27966667 3.67817949,4.30765385 3.48701282,4.35129487 C3.48037179,4.4134359 3.51974359,4.42529487 3.515,4.48364103 C3.36557692,4.49644872 3.32146154,4.63211538 3.26074359,4.74880769 C3.16776923,4.80525641 3.1265,4.92384615 3.03352564,4.98029487 C3.03162821,5.03294872 3.03826923,5.09508974 2.97707692,5.0794359 C2.96379487,5.2065641 3.10847436,5.14726923 3.06246154,5.31092308 C3.19291026,5.35788462 3.28920513,5.44326923 3.37364103,5.54335897 C3.44479487,5.53908974 3.46234615,5.47979487 3.48701282,5.57703846 C3.54441026,5.55758974 3.54251282,5.47694872 3.60038462,5.54335897 C3.63596154,5.67712821 3.64971795,5.83935897 3.71328205,5.94039744 C3.75407692,5.79998718 3.7555,5.61451282 3.85511538,5.54335897 C3.83566667,5.49876923 3.76830769,5.57276923 3.74079487,5.47694872 C3.77067949,5.38397436 3.86270513,5.48548718 3.9115641,5.47694872 C3.86270513,5.23075641 3.98176923,5.04623077 3.93955128,4.71607692 C4.02019231,4.74264103 4.01355128,4.66816667 4.08138462,4.68239744 C4.16155128,4.67623077 4.14732051,4.80715385 4.22179487,4.71607692 C4.35319231,4.73742308 4.32520513,4.89348718 4.477,4.81474359 L4.477,5.14584615 C4.48933333,5.21937179 4.6169359,5.15960256 4.67528205,5.17905128 C4.73647436,5.18426923 4.68761538,5.06141026 4.70374359,5.0135 C4.86170513,5.02725641 4.82138462,5.27297436 4.93096154,5.34507692 C4.93238462,5.40294872 4.92479487,5.44753846 4.90202564,5.47694872 C4.9129359,5.61783333 5.04623077,5.61735897 5.04291026,5.77484615 C5.11358974,5.77105128 5.13066667,5.71317949 5.18474359,5.77484615 C5.19375641,5.98119231 5.19375641,5.99874359 5.18474359,6.20508974 C5.22601282,6.29047436 5.25067949,6.39151282 5.35503846,6.40384615 C5.29811538,6.46646154 5.34175641,6.5594359 5.35503846,6.63533333 C5.26538462,6.68087179 5.18426923,6.55326923 5.15628205,6.63533333 C5.11501282,6.62964103 5.13066667,6.55469231 5.12876923,6.50251282 C5.02346154,6.47974359 5.00685897,6.5594359 4.90202564,6.53619231 C4.95562821,6.3455 5.09129487,6.25015385 5.15628205,6.07179487 C5.05951282,6.01107692 4.89870513,6.28051282 4.76019231,6.17235897 C4.73647436,6.26533333 4.80051282,6.25726923 4.78912821,6.33791026 C4.72841026,6.37775641 4.6354359,6.37870513 4.61930769,6.46978205 C4.60744872,6.61541026 4.74833333,6.58410256 4.81711538,6.63533333 C4.73932051,6.73210256 4.61930769,6.77858974 4.50641026,6.83361538 C4.50641026,6.76862821 4.58373077,6.79234615 4.56191026,6.70221795 C4.42719231,6.7629359 4.26970513,6.7999359 4.16629487,6.90002564 C4.13641026,7.02383333 4.23602564,6.99442308 4.22179487,7.09878205 C4.12502564,7.13815385 4.03347436,7.18653846 3.93955128,7.23160256 C3.97607692,7.45265385 3.81337179,7.41328205 3.88357692,7.59496154 C3.84989744,7.62294872 3.80720513,7.63812821 3.74079487,7.62864103 C3.76641026,7.7249359 3.76641026,7.72967949 3.74079487,7.82644872 C3.54630769,7.87388462 3.42107692,8.00385897 3.37364103,8.22396154 C3.37696154,8.30887179 3.42534615,8.33970513 3.45902564,8.38951282 C3.43862821,8.49814103 3.42534615,8.55079487 3.45902564,8.72108974 C3.3219359,8.70448718 3.2479359,8.61388462 3.26074359,8.42319231 C3.24034615,8.28135897 3.05534615,8.33116667 2.92110256,8.32310256 C2.88789744,8.32926923 2.89026923,8.37575641 2.89264103,8.42319231 C2.74369231,8.43078205 2.70764103,8.30744872 2.553,8.32310256 C2.45860256,8.35583333 2.39883333,8.42888462 2.29874359,8.45544872 C2.38317949,8.71444872 2.14552564,9.3055 2.5240641,9.28320513 C2.61087179,9.25189744 2.58667949,9.09108974 2.63791026,9.01898718 C2.77547436,9.03985897 2.78258974,9.03985897 2.92110256,9.01898718 C2.94576923,9.22533333 2.86417949,9.30407692 2.83619231,9.44875641 C2.93438462,9.50994872 3.12270513,9.46535897 3.17583333,9.58110256 C3.20382051,9.79646154 3.10894872,9.95015385 3.17583333,10.1100128 C3.26833333,10.0981538 3.3010641,10.0137179 3.37364103,9.97861538 C3.45285897,9.98525641 3.49412821,10.0355385 3.48701282,10.1441667 C3.55626923,10.0374359 3.67058974,9.98335897 3.71328205,9.84626923 C3.80246154,9.86239744 3.82855128,9.805 3.85511538,9.74665385 C3.92152564,9.76989744 3.9300641,9.85670513 3.996,9.879 C4.05055128,9.86619231 4.01829487,9.75139744 4.10984615,9.77985897 C4.13119231,9.91979487 4.26970513,9.9240641 4.30812821,10.0440769 C4.34797436,10.0360128 4.35651282,9.99 4.3925641,9.97861538 C4.53534615,10.0317436 4.64302564,10.1285128 4.78912821,10.1768974 C4.80383333,10.3248974 4.86929487,10.4140769 4.95847436,10.4747949 C5.21605128,10.3282179 5.37970513,10.7508718 5.29811538,10.9050385 C5.30191026,10.9899487 5.39346154,10.9709744 5.46841026,10.9714487 C5.48501282,11.1080641 5.67333333,11.0407051 5.72314103,11.1365256 L5.92047436,11.1365256 C6.02198718,11.1844359 6.1315641,11.222859 6.17567949,11.3357564 C6.23497436,11.3167821 6.26628205,11.2404103 6.3165641,11.3030256 C6.34502564,11.3907821 6.37538462,11.4775897 6.3744359,11.6009231 C6.37491026,11.6787179 6.32557692,11.6981667 6.3455,11.7987308 C6.25679487,11.8385769 6.33601282,11.9121026 6.26058974,11.9974872 C6.23023077,12.0833462 6.15812821,12.1198718 6.14769231,12.2289744 C6.11164103,12.2308718 6.10784615,12.2716667 6.06183333,12.2631282 C6.06705128,12.3442436 6.04760256,12.3997436 6.00585897,12.4277308 C6.09883333,12.6615897 5.96126923,12.8437436 5.94941026,13.0572051 C5.82844872,13.1093846 5.82987179,13.1093846 5.69467949,13.1563462 C5.64155128,13.2146923 5.60644872,13.2953333 5.55284615,13.3551026 L5.55284615,13.585641 C5.49070513,13.69 5.37448718,13.7303205 5.38255128,13.9172179 C5.29432051,13.9134231 5.28625641,14.0021282 5.27060256,14.0827692 C5.24878205,14.0898846 5.21415385,14.0832436 5.21320513,14.1159744 L4.9869359,14.1159744 C4.99879487,14.2336154 5.06235897,14.2929103 5.04291026,14.4466026 C4.93665385,14.4873974 4.88305128,14.5908077 4.73220513,14.5794231 C4.68951282,14.6942179 4.69520513,14.8659359 4.50641026,14.8109103 C4.69710256,14.8450641 4.58183333,15.1718974 4.50641026,15.274359 C4.49075641,15.392 4.6065,15.3554744 4.59132051,15.4740641 C4.58705128,15.5570769 4.54957692,15.6016667 4.477,15.6059359 C4.47367949,15.7340128 4.38212821,15.7582051 4.3925641,15.903359 C4.36173077,16.0266923 4.49834615,15.9564872 4.477,16.0689103 C4.51542308,16.1362692 4.5695,16.180859 4.64682051,16.2007821 C4.62784615,16.3207949 4.44047436,16.2467949 4.33564103,16.2671923 C4.28488462,16.2330385 4.24029487,16.1912949 4.17530769,16.1732692 C4.17198718,16.1704231 4.16914103,16.1685256 4.16629487,16.1661538 C4.17103846,16.1054359 4.13451282,16.0940513 4.13783333,16.0357051 C4.04391026,15.9683462 4.05244872,15.7833462 3.96848718,15.7050769 C4.03489744,15.5158077 3.93812821,15.4000641 3.9115641,15.1747436 C3.96991026,15.0713333 3.88547436,14.9906923 3.93955128,14.911 C3.97512821,14.8028462 3.84752564,14.8849103 3.88357692,14.7781795 C3.92864103,14.6994359 4.04865385,14.7075 4.02446154,14.5466923 C3.99837179,14.4560897 3.92532051,14.6050385 3.88357692,14.5134872 C3.94239744,14.2952821 3.87171795,13.9252821 4.02446154,13.8176026 C4.06051282,13.6112564 3.94808974,13.4381154 4.02446154,13.2886923 C4.02066667,13.2265513 4.00596154,13.1776923 3.96848718,13.1563462 C3.99742308,13.1131795 3.996,13.0339615 4.02446154,12.9907949 C4.0249359,12.7806538 3.93575641,12.6753462 3.88357692,12.5278205 C3.71660256,12.5022051 3.67770513,12.3257436 3.57097436,12.2289744 C3.54773077,12.1355256 3.61082051,12.1431154 3.60038462,12.0638974 C3.45001282,11.9965385 3.32525641,11.8992949 3.34517949,11.6341282 C3.39546154,11.6146795 3.46282051,11.6175256 3.48701282,11.5681923 C3.42961538,11.5131667 3.33853846,11.4979872 3.28920513,11.4348974 C3.40352564,11.3281667 3.23370513,11.2038846 3.28920513,10.9714487 C3.31102564,10.8433718 3.4144359,10.8111154 3.40257692,10.6412949 C3.38170513,10.5502179 3.45902564,10.5739359 3.45902564,10.508 C3.43103846,10.4079103 3.38407692,10.3301154 3.37364103,10.2096282 C3.31576923,10.2191154 3.31766667,10.2988077 3.28920513,10.3424487 C3.14594872,10.2997564 3.11226923,10.1304103 2.9495641,10.1100128 L2.9495641,10.0118205 C2.89074359,9.96960256 2.83382051,9.92548718 2.80820513,9.84626923 C2.71665385,9.85385897 2.68819231,9.78697436 2.58098718,9.8130641 C2.53734615,9.74333333 2.49987179,9.66601282 2.46761538,9.58110256 C2.18632051,9.65367949 2.04923077,9.48480769 1.81679487,9.41555128 C1.7575,9.27466667 1.6835,9.15323077 1.70484615,8.91937179 C1.64033333,8.81691026 1.5644359,8.72867949 1.47715385,8.65467949 C1.47525641,8.60202564 1.48094872,8.53941026 1.42165385,8.55601282 C1.42212821,8.7424359 1.47952564,8.71017949 1.47715385,8.85296154 C1.39129487,8.87715385 1.39461538,8.7955641 1.30780769,8.82023077 C1.25467949,8.69452564 1.22621795,8.53941026 1.10905128,8.48912821 C1.11426923,8.44975641 1.10478205,8.39520513 1.13751282,8.38951282 C1.04121795,8.28183333 1.04691026,8.05414103 0.968166667,7.92653846 C0.942076923,7.90614103 0.921205128,7.88052564 0.900333333,7.85633333 C1.16502564,6.39910256 1.80161538,5.06994872 2.7114359,3.97370513 L2.7114359,3.97370513 Z M3.76308974,2.91208974 C4.23460256,2.51173077 4.75023077,2.16307692 5.30096154,1.87276923 C5.31282051,1.91166667 5.38255128,1.88273077 5.38255128,1.93538462 C5.33653846,2.13366667 5.16197436,2.03594872 5.04291026,2.1009359 C4.98124359,2.10615385 5.0794359,2.18394872 5.04291026,2.26648718 C4.93760256,2.26364103 4.88115385,2.31914103 4.84557692,2.39930769 C4.66626923,2.36515385 4.65298718,2.52596154 4.50641026,2.53070513 C4.53534615,2.74369231 4.36410256,2.71855128 4.36410256,2.89548718 L4.16629487,2.89548718 C4.14637179,2.98466667 4.29958974,2.87176923 4.27871795,2.96142308 C4.28820513,3.04823077 4.24076923,3.06957692 4.16629487,3.05961538 C4.0989359,3.30675641 3.81479487,3.12507692 3.60038462,3.15970513 C3.60085897,3.11938462 3.58283333,3.10135897 3.55911538,3.08902564 C3.59326923,3.05724359 3.63026923,3.02688462 3.66632051,2.99557692 C3.7450641,3.0259359 3.83329487,3.05439744 3.93955128,3.02688462 C3.89638462,2.94434615 3.83708974,2.91683333 3.76308974,2.91208974 L3.76308974,2.91208974 Z M16.7448718,5.44753846 C16.7045513,5.49687179 16.6542692,5.53387179 16.6352949,5.60976923 C16.680359,5.7639359 16.7700128,5.67475641 16.8430641,5.63823077 C16.8919231,5.73737179 16.9379359,5.8379359 16.9834744,5.93897436 C16.989641,6.09930769 17.0294872,6.28667949 17.0038718,6.46978205 C16.9009359,6.58173077 16.8440128,6.74585897 16.7776026,6.90002564 C16.6955385,6.9375 16.6111026,6.96975641 16.550859,7.03284615 C16.4593077,7.28615385 16.6367179,7.6509359 16.4664231,7.79466667 C16.3767692,7.75292308 16.2975513,7.7040641 16.3250641,7.52902564 C16.2856923,7.43130769 16.1870256,7.40284615 16.1557179,7.29753846 C15.9692949,7.29753846 16.1784872,7.45217949 16.0978462,7.49582051 C16.1011667,7.55464103 16.069859,7.57314103 16.0129359,7.56223077 C16.0366538,7.65567949 15.9735641,7.64761538 15.9849487,7.72730769 C15.9868462,7.82502564 16.0489872,7.85064103 16.0978462,7.89285897 C16.0973718,7.99484615 16.1239359,8.06220513 16.1827564,8.09208974 C16.0921538,8.17225641 16.1443333,8.42034615 16.0978462,8.55601282 C16.0617949,8.5574359 16.0589487,8.59728205 16.0129359,8.58826923 C15.9688205,8.80173077 15.847859,8.9250641 15.7582051,9.08444872 C15.6097308,9.07733333 15.4669487,9.0754359 15.4465513,9.21726923 C15.496359,9.21489744 15.5347821,9.22533333 15.5603974,9.25 C15.5262436,9.32115385 15.5257692,9.43120513 15.4465513,9.44875641 C15.4764359,9.84816667 15.4105,10.1342051 15.1353718,10.1768974 C15.1377436,10.1195 15.1292051,10.0744359 15.107859,10.0440769 C14.9864231,10.0217821 14.9423077,9.90698718 14.880641,9.8130641 C14.7867179,9.82444872 14.8365256,10.0037564 14.8246667,10.1100128 C14.8683077,10.2138974 14.9442051,10.2798333 15.0229487,10.3424487 C15.0305385,10.5435769 15.1704744,10.5881667 15.1643077,10.8063718 C15.0030256,10.6948974 14.8754231,10.5483205 14.7383333,10.4093333 C14.7701154,10.2622821 14.6913718,10.2442564 14.6833077,10.1441667 C14.6572179,10.038859 14.7283718,10.0412308 14.7383333,9.97861538 C14.7241026,9.87473077 14.6723974,9.81448718 14.5979231,9.77985897 C14.6396667,9.67882051 14.5879615,9.65130769 14.626859,9.58110256 C14.5680385,9.50662821 14.3745,9.58869231 14.3427179,9.48148718 C14.319,9.38851282 14.3830385,9.39657692 14.3721282,9.31688462 C14.2653974,9.27466667 14.2653974,9.1100641 14.2008846,9.01898718 C14.0960513,9.0384359 14.0168333,9.08871795 13.9466282,9.15133333 C13.9077308,9.24810256 13.7981538,9.26375641 13.8062179,9.41555128 C13.7179872,9.39135897 13.7701667,9.53034615 13.6639103,9.48148718 L13.6639103,9.61478205 L13.5500641,9.61478205 C13.5766282,9.89844872 13.4741667,10.0326923 13.4371667,10.2437821 C13.3622179,10.2428333 13.2758846,10.255641 13.2388846,10.2096282 L13.2388846,10.0118205 C13.2161154,9.90698718 13.1558718,9.84294872 13.0970513,9.77985897 C13.0515128,9.62569231 13.0130897,9.45966667 12.9286538,9.34961538 C12.9509487,9.23434615 12.8864359,9.22248718 12.8992436,9.11765385 C12.8598718,9.065 12.7597821,9.08302564 12.7303718,9.01898718 C12.7317949,8.97866667 12.7384359,8.94071795 12.7858718,8.95257692 C12.6634872,8.89707692 12.6165256,8.75334615 12.4196667,8.78655128 C12.3617949,8.79698718 12.3617949,8.7424359 12.3338077,8.72108974 C12.2076282,8.71729487 12.1877051,8.83635897 12.0506154,8.82023077 C12.0752821,8.71444872 12.0060256,8.71776923 11.9941667,8.65467949 C11.7081282,8.69073077 11.7555641,8.33780769 11.5971282,8.22396154 C11.5553846,8.24151282 11.5269231,8.27282051 11.4851795,8.29037179 C11.5444744,8.32025641 11.5340385,8.43173077 11.6255897,8.42319231 C11.6118333,8.59396154 11.7161923,8.62764103 11.7389615,8.75334615 C11.7849744,8.69689744 11.8580256,8.67080769 11.9657051,8.6869359 C11.9415128,8.89185897 12.087141,8.89944872 12.136,9.01898718 C12.1326795,9.13662821 12.0311667,9.139 12.0506154,9.28320513 C11.9415128,9.32162821 11.8898077,9.42646154 11.7678974,9.44875641 C11.7161923,9.45397436 11.7508205,9.56070513 11.7114487,9.58110256 C11.481859,9.62237179 11.3433462,9.76989744 11.1445897,9.84626923 C11.0041795,9.72720513 11.0131923,9.51991026 10.9463077,9.38376923 C10.8329359,9.24098718 10.7532436,9.05788462 10.6356026,8.91937179 C10.6645385,8.85248718 10.5905385,8.67887179 10.5231795,8.62147436 C10.4823846,8.62858974 10.5483205,8.78607692 10.5231795,8.88616667 C10.5559103,8.97914103 10.6431923,9.00997436 10.6915769,9.08444872 C10.6360769,9.33823077 10.8310385,9.29791026 10.8058974,9.51564103 C10.9059872,9.63992308 11.0468718,9.71961538 11.0601538,9.94588462 L11.3144103,9.94588462 C11.4258846,9.95394872 11.4201923,9.82634615 11.5406795,9.84626923 C11.6289103,9.91742308 11.5909615,10.0867692 11.5696154,10.2096282 C11.4306282,10.434 11.3082436,10.6768718 11.1735256,10.9050385 C11.0995256,10.9529487 11.0430769,11.0165128 10.9752436,11.0705897 C10.9429872,11.2318718 10.8941282,11.3727564 10.8329359,11.5013077 C10.8756282,11.7702692 10.8756282,12.1582949 10.8329359,12.4277308 C10.6137821,12.5562821 10.4975641,12.8062692 10.4937692,13.1886026 C10.3960513,13.1629872 10.3751795,13.2256026 10.3244231,13.2550128 C10.3476667,13.3921026 10.2803077,13.4257821 10.2950128,13.5533846 C10.1707308,13.6387692 10.0848718,13.7696923 10.0417051,13.9499487 C9.79930769,14.0116154 9.66269231,14.1928205 9.3899359,14.2151154 C9.25948718,14.048141 9.26185897,13.7251026 9.13567949,13.5533846 L9.13567949,13.2550128 C9.08966667,13.0330128 9.00191026,12.8593974 8.88047436,12.7256282 C8.93976923,12.5624487 8.92458974,12.3134103 8.99384615,12.1630385 C8.96016667,12.0036538 8.95637179,11.8105897 8.88047436,11.7000641 C8.92885897,11.4685769 8.79224359,11.3400256 8.71112821,11.1702051 C8.70733333,10.9458333 8.79651282,10.829141 8.76710256,10.5739359 C8.66938462,10.5483205 8.64803846,10.6109359 8.59775641,10.6412949 C8.49671795,10.6265897 8.44738462,10.551641 8.3145641,10.5739359 C8.27519231,10.5540128 8.31029487,10.4463333 8.25764103,10.4420641 C8.14284615,10.4287821 8.14616667,10.5540128 8.08876923,10.607141 C7.94029487,10.6000256 7.80557692,10.6076154 7.69173077,10.6412949 C7.51337179,10.6061923 7.4265641,10.4653077 7.29611538,10.3761282 C7.25105128,10.1849615 7.16661538,10.0412308 7.06937179,9.91220513 L7.06937179,9.05171795 C7.14194872,8.93644872 7.2069359,8.81501282 7.21120513,8.62147436 C7.27334615,8.53324359 7.42466667,8.44358974 7.46641026,8.35678205 C7.53139744,8.21874359 7.50198718,8.01619231 7.57883333,7.86060256 C7.6509359,7.80178205 7.75339744,7.77711538 7.77711538,7.66184615 C7.86344872,7.65994872 7.92084615,7.69030769 7.94741026,7.76051282 C8.05508974,7.63291026 8.25384615,7.61346154 8.48438462,7.62864103 C8.60107692,7.56602564 8.73721795,7.52665385 8.9089359,7.52902564 C8.9459359,7.57314103 8.9459359,7.65283333 8.88047436,7.66184615 C8.90561538,7.72019231 8.95969231,7.74533333 8.93787179,7.86060256 C9.05883333,8.02710256 9.31783333,8.03421795 9.44685897,8.19123077 C9.52085897,8.15612821 9.50567949,8.01761538 9.58821795,7.99294872 C9.86144872,8.00480769 10.1176026,8.03564103 10.3244231,8.12529487 C10.4401667,8.10679487 10.3837179,7.88526923 10.4662564,7.82644872 L10.4662564,7.62864103 C10.3291667,7.57930769 10.4401667,7.81838462 10.3244231,7.79466667 C10.1935,7.80083333 10.3519359,7.67560256 10.2679744,7.62864103 C10.1906538,7.68698718 10.0023333,7.71260256 9.89987179,7.62864103 C9.85385897,7.58974359 9.87757692,7.48348718 9.81496154,7.49582051 C9.83773077,7.35398718 9.81116667,7.36110256 9.842,7.23160256 L9.7575641,7.23160256 C9.67882051,7.35208974 9.77748718,7.51432051 9.73052564,7.62864103 C9.82682051,7.61488462 9.89133333,7.63812821 9.87141026,7.76051282 C9.79646154,7.68841026 9.71107692,7.75434615 9.7020641,7.66184615 C9.71914103,7.65994872 9.73526923,7.65662821 9.73052564,7.62864103 C9.65510256,7.62816667 9.56829487,7.64097436 9.53224359,7.59496154 L9.53224359,7.39667949 C9.54362821,7.34497436 9.49808974,7.30607692 9.47579487,7.26385897 C9.45919231,7.23539744 9.43689744,7.15760256 9.41839744,7.13198718 C9.32494872,6.99062821 9.16414103,6.91947436 9.07970513,6.76767949 C8.98957692,7.02667949 9.34202564,7.05561538 9.41839744,7.23160256 C9.37238462,7.34260256 9.32874359,7.12724359 9.27751282,7.23160256 C9.28035897,7.28378205 9.34866667,7.25769231 9.33396154,7.33121795 C9.26897436,7.38671795 9.17789744,7.41375641 9.19260256,7.56223077 C9.15038462,7.5005641 9.0465,7.51289744 9.05076923,7.39667949 C9.12097436,7.40142308 9.18738462,7.40284615 9.19260256,7.33121795 C9.16176923,7.20029487 9.07496154,7.13530769 8.93787179,7.13198718 C8.9089359,7.08834615 8.91083333,7.00865385 8.85296154,7.00011538 C8.83541026,7.17610256 8.94641026,7.34544872 8.76710256,7.36347436 C8.72773077,7.20219231 8.68788462,6.99537179 8.76710256,6.86682051 C8.65230769,6.87678205 8.60297436,6.98351282 8.48438462,6.90002564 C8.33258974,6.91046154 8.3539359,7.12297436 8.23012821,7.16519231 C8.25005128,7.39810256 8.15280769,7.49344872 8.08876923,7.62864103 C7.98108974,7.56555128 7.96875641,7.56555128 7.8625,7.62864103 C7.77853846,7.60587179 7.73869231,7.5295 7.60729487,7.56223077 C7.63575641,7.40853846 7.57029487,7.36205128 7.55084615,7.26385897 C7.67038462,7.2600641 7.57788462,7.01007692 7.60729487,6.90002564 C7.7804359,6.92991026 7.89902564,6.82175641 8.03184615,6.90002564 C8.09019231,6.89053846 8.08876923,6.81132051 8.11675641,6.76767949 C8.13335897,6.61541026 7.98962821,6.65241026 8.00385897,6.50251282 C7.92796154,6.50251282 7.84162821,6.51484615 7.80510256,6.46978205 C7.80178205,6.36589744 7.87815385,6.35641026 7.94741026,6.33791026 C8.02330769,6.29426923 8.0475,6.19038462 8.17320513,6.20508974 C8.19502564,6.19797436 8.2059359,6.17710256 8.20166667,6.13867949 C8.03137179,6.12682051 7.88858974,6.14816667 7.74865385,6.17235897 C7.73869231,6.07179487 7.84067949,6.10310256 7.89048718,6.07179487 C7.85348718,5.99447436 7.81079487,5.92142308 7.83308974,5.77484615 C7.87957692,5.82417949 7.98678205,5.75919231 7.97539744,5.6425 C7.93697436,5.62779487 7.90234615,5.62352564 7.83308974,5.57703846 C7.81696154,5.40294872 7.88289744,5.32562821 7.8625,5.14584615 C7.93080769,5.1164359 7.98441026,5.06852564 8.08876923,5.0794359 C8.09398718,5.16197436 8.04465385,5.18284615 8.00385897,5.21225641 C8.03184615,5.25732051 8.07833333,5.27819231 8.11675641,5.31092308 C8.01382051,5.48216667 8.23582051,5.51205128 8.20166667,5.70748718 C8.22965385,5.7535 8.27708974,5.77484615 8.3145641,5.80805128 C8.20783333,5.90387179 8.22538462,5.99684615 8.20166667,6.13867949 C8.33591026,6.16382051 8.23819231,5.91762821 8.39852564,5.97360256 C8.37670513,5.85880769 8.43078205,5.83319231 8.45639744,5.77484615 C8.54794872,5.75919231 8.60961538,5.71175641 8.71112821,5.70748718 C8.70828205,5.65673077 8.71492308,5.59364103 8.65420513,5.60976923 C8.65467949,5.51157692 8.70685897,5.47552564 8.76710256,5.37733333 C8.71966667,5.31282051 8.56929487,5.36689744 8.54130769,5.27819231 C8.54937179,5.12497436 8.54130769,4.99215385 8.48438462,4.91388462 C8.54178205,4.76066667 8.56028205,4.56191026 8.73911538,4.55005128 L8.73911538,4.41770513 C8.77232051,4.42292308 8.82023077,4.41248718 8.82402564,4.45091026 C8.90561538,4.35935897 8.96253846,4.23792308 8.99384615,4.08707692 C9.10579487,3.97370513 9.23292308,3.88025641 9.33396154,3.75597436 C9.38234615,3.76925641 9.40653846,3.70711538 9.41839744,3.75597436 C9.49619231,3.6919359 9.56687179,3.62030769 9.64514103,3.55674359 L9.89987179,3.55674359 C9.9610641,3.60702564 10.0037564,3.67912821 10.0417051,3.75597436 C10.1470128,3.76451282 10.223859,3.80767949 10.2679744,3.88832051 C10.4477564,3.90444872 10.6825641,4.01117949 10.6076154,4.21894872 C10.7774359,4.24171795 10.7836026,4.07284615 10.7774359,3.88832051 C10.8111154,3.92579487 10.8765769,3.92532051 10.9463077,3.92105128 L10.9463077,4.11980769 C11.0890897,4.07664103 11.1583462,3.9485641 11.2868974,3.88832051 C11.4662051,3.90444872 11.5919103,3.8560641 11.7114487,3.88832051 C11.7437051,3.73889744 11.5534872,3.85274359 11.5971282,3.68814103 C11.7958846,3.69383333 11.7826026,3.77210256 11.9657051,3.75597436 C12.0610513,3.63548718 12.1706282,3.53017949 12.2488974,3.39119231 C12.3807692,3.34802564 12.3755513,3.46424359 12.4196667,3.52401282 C12.5420513,3.56860256 12.4794359,3.3959359 12.5885385,3.42439744 C12.5842692,3.50646154 12.5833205,3.58473077 12.617,3.62362821 C12.6886282,3.61935897 12.6729744,3.51215385 12.6743974,3.42439744 C12.8252436,3.40162821 12.8537051,3.52258974 12.9556923,3.55674359 C12.9813077,3.40684615 12.8152821,3.47942308 12.8152821,3.3589359 C12.7887179,3.23892308 12.9258077,3.31197436 12.9855769,3.29252564 C13.0567308,3.28873077 13.0301667,3.16919231 13.0700128,3.12697436 C13.1658333,3.13978205 13.1895513,3.06957692 13.2388846,3.02688462 C13.4039615,3.04348718 13.5054744,2.98608974 13.5799487,2.89548718 C13.6691282,2.86560256 13.6373462,2.98134615 13.6923718,2.99415385 C13.8005256,3.01075641 13.7492949,2.84141026 13.8901795,2.89548718 C13.8849615,2.77737179 13.9105769,2.69673077 13.9750897,2.66305128 C14.0856154,2.64455128 14.0737564,2.76788462 14.1444359,2.79587179 C14.2687179,2.79634615 14.399641,2.80678205 14.4855,2.76219231 C14.5229744,2.86038462 14.615,2.8964359 14.6548462,2.99415385 C14.6548462,3.09329487 14.5817949,3.10610256 14.5704103,3.19338462 C14.7283718,3.15448718 14.7824487,3.24319231 14.8521795,3.25932051 C14.8882308,3.2664359 14.9313974,3.24746154 14.9655513,3.25932051 C15.0314872,3.28161538 15.0945769,3.32146154 15.1723718,3.33142308 C15.8004231,3.9485641 16.3326538,4.66152564 16.7448718,5.44753846 L16.7448718,5.44753846 Z M17.3624872,6.96169231 C17.3563205,6.9745 17.3511026,6.98920513 17.3430385,7.00011538 C17.2780513,7.00960256 17.3112564,6.90429487 17.2590769,6.90002564 C17.1589872,6.88057692 17.1661026,7.05703846 17.0878333,6.96596154 C17.0859359,6.83076923 17.137641,6.75914103 17.1172436,6.60260256 C17.1703718,6.60829487 17.2163846,6.62442308 17.2590769,6.64197436 C17.2956026,6.74775641 17.3302308,6.85401282 17.3624872,6.96169231 L17.3624872,6.96169231 Z M16.3530513,9.94588462 C16.3995385,9.86619231 16.4275256,9.78934615 16.5223974,9.84626923 C16.5233462,9.75803846 16.5114872,9.65747436 16.550859,9.61478205 C16.6310256,9.62047436 16.6713462,9.67217949 16.6647051,9.77985897 C16.7149872,9.842 16.8316795,9.82634615 16.8055897,9.97861538 C16.6708718,9.96296154 16.5916538,10.0141923 16.550859,10.1100128 C16.4621538,10.0872436 16.5143333,10.0232051 16.5223974,9.94588462 C16.4332179,9.92880769 16.4118718,10.0175128 16.3530513,9.94588462 L16.3530513,9.94588462 Z M16.4384359,11.3030256 C16.3336026,11.370859 16.3298077,11.2655513 16.2676667,11.2038846 C16.2183333,11.2342436 16.2050513,11.3063462 16.2112179,11.4021667 C15.9939615,11.2788333 16.0945256,10.9093077 16.2392051,10.773641 C16.2875897,10.8704103 16.4597821,10.8243974 16.4664231,10.9714487 C16.4275256,11.014141 16.3611154,11.014141 16.3250641,10.9714487 C16.3298077,11.1208718 16.4227821,11.1649872 16.4384359,11.3030256 L16.4384359,11.3030256 Z M16.069859,10.9387179 C15.9759359,10.9833077 16.0205256,11.1891795 15.9280256,11.2366154 C15.9285,11.2674487 15.9631282,11.2622308 15.9849487,11.2693462 C15.9825769,11.3319615 15.8905513,11.2925897 15.9000385,11.3684872 C15.7164615,11.4178205 15.7435,11.2204872 15.5603974,11.2693462 C15.570359,11.0924103 15.4465513,11.0715385 15.4185641,10.9387179 C15.4683718,10.6213718 15.8454872,10.6877821 15.8715769,10.3424487 C16.0010769,10.3334359 16.0565769,10.4131282 16.1258333,10.4747949 C16.1395897,10.5791538 16.0912051,10.6104615 16.0409231,10.6412949 C16.0945256,10.7190897 16.0053462,10.8310385 16.069859,10.9387179 L16.069859,10.9387179 Z M15.9000385,11.7323205 C15.5907564,11.7745385 15.4626795,11.6032949 15.1913462,11.6009231 C15.1690513,11.4861282 15.2236026,11.4605128 15.2496923,11.4021667 C15.4209359,11.4662051 15.5831667,11.5402051 15.8146538,11.5340385 C15.799,11.6521538 15.9152179,11.6161026 15.9000385,11.7323205 L15.9000385,11.7323205 Z M16.0978462,8.98578205 C16.0850385,8.90134615 16.058,8.83303846 16.0129359,8.78655128 C16.0432949,8.71017949 16.1400641,8.61483333 16.2112179,8.6869359 C16.2050513,8.8245 16.2150128,8.97819231 16.0978462,8.98578205 L16.0978462,8.98578205 Z M16.4090256,9.25 C16.4270513,9.41555128 16.3307564,9.4454359 16.2951795,9.54789744 C16.2273462,9.49666667 16.1713718,9.43025641 16.1258333,9.34961538 C16.1239359,9.18548718 16.3326538,9.12951282 16.4090256,9.25 L16.4090256,9.25 Z M17.0878333,10.8391026 C17.0816667,10.977141 16.872,11.0093974 16.7776026,10.9387179 C16.7700128,10.7836026 16.994859,10.7722179 17.0878333,10.8391026 L17.0878333,10.8391026 Z M16.9758846,7.92653846 C16.9516923,7.90851282 16.9298718,7.89096154 16.8900256,7.89285897 C16.8084359,7.94124359 16.7401282,8.00385897 16.7206795,8.12529487 C16.6741923,8.06932051 16.6030385,8.04228205 16.6077821,7.92653846 L16.7776026,7.92653846 C16.7894615,7.83403846 16.6229615,7.95262821 16.6352949,7.86060256 C16.6371923,7.68603846 16.8198205,7.72161538 16.9189615,7.66184615 C17.0209487,7.55321795 17.0702821,7.51432051 17.1736923,7.46308974 C17.1698974,7.42466667 17.1803333,7.40379487 17.2016795,7.39667949 C17.1585128,7.23065385 17.2078462,7.15380769 17.1736923,7.00011538 L17.2861154,7.00011538 C17.2813718,7.24867949 17.3373462,7.42514103 17.3430385,7.66184615 C17.2524359,7.78612821 17.0655385,7.79988462 16.9758846,7.92653846 L16.9758846,7.92653846 Z M17.0925769,6.19607692 C17.137641,6.30517949 17.1803333,6.41523077 17.2201795,6.52717949 C17.1291026,6.47405128 17.1025385,6.34597436 17.0925769,6.19607692 L17.0925769,6.19607692 Z M14.5134872,10.4420641 C14.5851154,10.4055385 14.6572179,10.5544872 14.6548462,10.4093333 C14.7112949,10.4098077 14.6913718,10.4989872 14.7677436,10.4747949 C14.7487692,10.5763077 14.8379487,10.6294359 14.880641,10.7062821 C14.9200128,10.7764872 15.0210513,10.871359 15.107859,10.9387179 C15.1050128,11.0971538 15.2302436,11.2427821 15.1643077,11.3684872 C15.0324359,11.4391667 14.9921154,11.2219103 14.8521795,11.2038846 C14.9095769,10.7499231 14.5134872,10.8277179 14.5134872,10.4420641 L14.5134872,10.4420641 Z M13.5500641,10.0440769 C13.609359,10.1085897 13.6691282,10.1716795 13.6923718,10.2760385 C13.6259615,10.2864744 13.6387692,10.3913077 13.5500641,10.3761282 C13.442859,10.2807821 13.5918077,10.2404615 13.5500641,10.0440769 L13.5500641,10.0440769 Z M11.4567179,12.7256282 C11.4311026,12.7403333 11.4045385,12.7555128 11.3988462,12.7929872 L11.3988462,12.9571154 C11.3234231,13.1079615 11.3476154,13.1738974 11.2868974,13.3218974 C11.1787436,13.2967564 11.1517051,13.3626923 11.0601538,13.3551026 C10.9543718,13.239359 11.0354872,13.1070128 10.9752436,12.9571154 C11.0165128,12.906359 11.0345385,12.8285641 11.0601538,12.7588333 C11.0743846,12.6544744 11.0098718,12.642141 11.032641,12.5278205 C11.1,12.4310513 11.1649872,12.3290641 11.2868974,12.2953846 C11.3072949,12.1639872 11.3499872,12.0610513 11.3988462,11.9647564 C11.5169615,11.9491026 11.4083333,12.1971923 11.5131667,12.1957692 C11.5088974,12.4424359 11.4045385,12.5809487 11.4567179,12.7256282 L11.4567179,12.7256282 Z M5.07232051,15.7382821 C5.06662821,15.6296538 5.20466667,15.607359 5.18474359,15.7382821 L5.07232051,15.7382821 L5.07232051,15.7382821 Z M6.14769231,4.94803846 C6.08270513,4.97175641 6.06230769,5.04670513 6.03432051,5.11264103 C5.94039744,5.12165385 5.97407692,4.9845641 5.89296154,4.98029487 L5.69467949,4.98029487 C5.54288462,4.75687179 5.69894872,4.37880769 5.49687179,4.21894872 C5.46414103,4.12265385 5.6320641,4.09608974 5.55284615,4.05339744 C5.60787179,3.98603846 5.68566667,3.94524359 5.75112821,3.88832051 C5.71128205,3.75787179 5.52011538,3.80530769 5.49687179,3.65683333 C5.58320513,3.65730769 5.68329487,3.67533333 5.66574359,3.55674359 C5.59791026,3.43767949 5.58320513,3.65398718 5.46841026,3.58994872 C5.45180769,3.48321795 5.48691026,3.43625641 5.49687179,3.3589359 C5.45987179,3.28114103 5.41765385,3.20808974 5.43994872,3.05961538 C5.27392308,3.0895 5.18521795,3.02688462 5.09935897,2.96142308 C5.01255128,2.93675641 5.04623077,3.0525 4.95847436,3.02688462 C4.86502564,2.98182051 4.75829487,2.95335897 4.73220513,2.82860256 C4.80905128,2.76361538 4.97934615,2.80867949 5.09935897,2.79587179 C5.09414103,2.61466667 4.97128205,2.74226923 4.90202564,2.76219231 C4.9025,2.67396154 4.75924359,2.67396154 4.76019231,2.76219231 C4.70801282,2.74938462 4.70896154,2.66826923 4.61930769,2.69673077 C4.65630769,2.56201282 4.74833333,2.55537179 4.81711538,2.59711538 C4.89396154,2.50983333 5.04623077,2.51125641 5.12876923,2.43203846 C5.14110256,2.32673077 4.98883333,2.41970513 5.01492308,2.29969231 C5.30760256,2.2650641 5.44137179,2.04685897 5.72314103,2.00084615 C5.91288462,2.05634615 6.02815385,1.99657692 6.23260256,2.03452564 C6.28146154,2.01697436 6.20176923,1.87561538 6.20366667,1.80303846 C6.25679487,1.70911538 6.41475641,1.73994872 6.54378205,1.73710256 C6.66189744,1.65408974 6.93939744,1.75797436 7.05324359,1.66926923 C7.10305128,1.68871795 7.17041026,1.68682051 7.19507692,1.73710256 C7.24488462,1.64934615 7.35778205,1.69820513 7.44933333,1.73710256 C7.60492308,1.72002564 7.73062821,1.73852564 7.78897436,1.83529487 C7.75482051,1.98329487 7.52380769,1.90075641 7.50530769,2.06773077 C7.56223077,2.12085897 7.69552564,1.98139744 7.81696154,2.00084615 C7.90614103,1.98566667 7.89191026,2.0905 7.95832051,2.1009359 C7.97776923,2.16687179 8.12814103,2.0800641 8.10015385,2.19912821 C8.11723077,2.33052564 7.9445641,2.2385 7.87483333,2.26648718 C7.77426923,2.24846154 7.80415385,2.38317949 7.7040641,2.36515385 C7.68271795,2.46714103 7.75292308,2.46334615 7.73205128,2.56438462 C7.62579487,2.52880769 7.6509359,2.64597436 7.56223077,2.62984615 C7.63717949,2.69720513 7.78138462,2.68344872 7.78897436,2.82860256 C7.68651282,2.81911538 7.6035,2.83429487 7.53376923,2.86180769 C7.57741026,3.04301282 7.65473077,3.37648718 7.42182051,3.39119231 C7.44601282,3.45048718 7.50008974,3.47562821 7.47779487,3.58994872 C7.43557692,3.57287179 7.40569231,3.54061538 7.36489744,3.52401282 C7.28473077,3.57619231 7.51764103,3.64212821 7.42182051,3.72229487 C7.27334615,3.72988462 7.21452564,3.63358974 7.10921795,3.58994872 C7.03237179,3.56670513 7.05276923,3.65635897 6.99632051,3.65683333 C7.07458974,3.66584615 7.19365385,3.79866667 7.25105128,3.72229487 C7.33026923,3.83946154 7.09308974,3.86744872 7.08170513,3.98746154 C6.93797436,4.01782051 6.87820513,4.14732051 6.74111538,4.18574359 C6.68941026,4.22416667 6.64576923,4.27302564 6.60023077,4.3185641 C6.48116667,4.23934615 6.48116667,4.3845 6.3744359,4.3185641 C6.30091026,4.3209359 6.33316667,4.44711538 6.26058974,4.45091026 C6.28810256,4.69330769 6.11258974,4.69757692 6.14769231,4.94803846 L6.14769231,4.94803846 Z M9.27751282,2.39930769 C9.31498718,2.39361538 9.38234615,2.50935897 9.3899359,2.43203846 C9.46773077,2.56201282 9.64371795,2.57766667 9.61667949,2.82860256 C9.42266667,2.87841026 9.37997436,2.75128205 9.30455128,2.66305128 C9.27087179,2.77737179 9.24525641,2.90355128 9.22058974,3.02688462 C9.13994872,3.03494872 9.06594872,3.03162821 9.07970513,2.92821795 C8.97629487,2.94908974 8.92791026,2.90544872 8.88047436,2.86180769 C8.88332051,2.71096154 9.01614103,2.71096154 9.02278205,2.56438462 C8.88853846,2.55062821 8.88426923,2.68914103 8.76710256,2.69673077 C8.71444872,2.63316667 8.76378205,2.61229487 8.76710256,2.53070513 C8.74765385,2.44389744 8.63855128,2.46097436 8.62669231,2.36515385 C8.63570513,2.05160256 8.90561538,2.20719231 8.96585897,2.36515385 C9.03985897,2.33716667 8.91130769,2.22047436 8.99384615,2.16687179 C9.11291026,2.13841026 9.2025641,2.24419231 9.13567949,2.33194872 C9.15987179,2.38080769 9.20588462,2.40310256 9.27751282,2.39930769 L9.27751282,2.39930769 Z M9.24857692,2.1009359 C9.47816667,2.10710256 9.72578205,2.11801282 9.98573077,2.16687179 C10.0194103,2.31819231 9.88564103,2.27123077 9.87141026,2.36515385 C9.6015,2.40547436 9.45587179,2.30016667 9.27751282,2.23233333 C9.25521795,2.20339744 9.24762821,2.15833333 9.24857692,2.1009359 L9.24857692,2.1009359 Z M7.77711538,5.87446154 C7.72114103,5.92 7.61488462,5.90529487 7.55084615,5.94039744 C7.50720513,5.89201282 7.52570513,5.77105128 7.52238462,5.67523077 C7.57076923,5.61830769 7.63338462,5.72408974 7.63575641,5.57703846 L7.77711538,5.57703846 C7.77,5.72835897 7.74770513,5.73547436 7.77711538,5.87446154 L7.77711538,5.87446154 Z M7.56223077,4.61646154 C7.47447436,4.59748718 7.50625641,4.43952564 7.36489744,4.48364103 C7.34023077,4.3555641 7.43273077,4.36647436 7.44933333,4.28488462 C7.38102564,4.27207692 7.38814103,4.34560256 7.30702564,4.3185641 C7.30892308,4.19760256 7.45502564,4.24741026 7.42182051,4.08707692 C7.52001282,4.0804359 7.51337179,4.19902564 7.59116667,4.21894872 C7.70691026,4.16534615 7.74960256,4.23080769 7.87483333,4.18574359 C7.86629487,4.32852564 7.95974359,4.34987179 7.93033333,4.51684615 C7.89475641,4.56333333 7.79229487,4.53202564 7.78897436,4.61646154 C7.75908974,4.58135897 7.58689744,4.54815385 7.56223077,4.61646154 L7.56223077,4.61646154 Z M11.3722821,3.05961538 C11.5397308,2.98039744 11.6967436,2.88979487 11.9092564,2.86180769 C11.9362949,2.86133333 11.9315513,2.82148718 11.9377179,2.79587179 L12.0795513,2.79587179 C12.0648462,2.96711538 11.9751923,3.04823077 11.7958846,3.02688462 C11.6459872,3.10562821 11.5715128,3.27212821 11.3722821,3.29252564 C11.3390769,3.52828205 11.4737949,3.5705 11.5131667,3.72229487 C11.4643077,3.72182051 11.439641,3.7474359 11.4282564,3.78870513 C11.3238974,3.73367949 11.2366154,3.65967949 11.1445897,3.58994872 C11.1517051,3.48796154 11.222859,3.46139744 11.2584359,3.39119231 C11.2356667,3.21046154 11.3846154,3.23085897 11.3722821,3.05961538 L11.3722821,3.05961538 Z M11.3722821,2.33194872 C11.3623205,2.16165385 11.6236923,2.0905 11.6255897,2.29969231 C11.5198077,2.2859359 11.4685769,2.43535897 11.3722821,2.33194872 L11.3722821,2.33194872 Z M13.2388846,2.29969231 C13.3954231,2.21620513 13.6539487,2.27075641 13.720359,2.39930769 C13.6677051,2.61371795 13.4338462,2.45291026 13.2118462,2.49844872 C13.2279744,2.44010256 13.1772179,2.30348718 13.2388846,2.29969231 L13.2388846,2.29969231 Z M3.9115641,4.61646154 C3.87788462,4.82375641 3.67391026,4.45565385 3.68482051,4.71607692 C3.5809359,4.71607692 3.48985897,4.70042308 3.48701282,4.58325641 C3.61319231,4.62025641 3.58852564,4.48174359 3.62884615,4.41770513 C3.71470513,4.39351282 3.71233333,4.47510256 3.79866667,4.45091026 C3.87171795,4.5325 3.79914103,4.5799359 3.9115641,4.61646154 L3.9115641,4.61646154 Z M4.3925641,9.28320513 C4.41817949,9.42361538 4.32425641,9.4245641 4.22179487,9.41555128 L4.22179487,9.28320513 L4.3925641,9.28320513 L4.3925641,9.28320513 Z M3.60038462,9.18453846 C3.47657692,9.16319231 3.46471795,9.01187179 3.34517949,8.98578205 C3.20571795,8.94308974 3.20619231,9.06547436 3.09139744,9.05171795 C3.08617949,8.96917949 3.13551282,8.94925641 3.14737179,8.88616667 L3.57097436,8.88616667 C3.58567949,8.9805641 3.67960256,8.98198718 3.74079487,9.01898718 C3.74174359,9.08444872 3.8190641,9.06073077 3.79866667,9.15133333 C3.96896154,9.16034615 4.12502564,9.12903846 4.16629487,9.34961538 C4.08660256,9.35530769 3.97228205,9.32162821 3.96848718,9.41555128 C3.90634615,9.38803846 3.87171795,9.33016667 3.77020513,9.34961538 C3.75502564,9.26565385 3.72134615,9.22153846 3.82523077,9.21726923 C3.80530769,9.14232051 3.66726923,9.20446154 3.60038462,9.18453846 L3.60038462,9.18453846 Z M3.65683333,9.38376923 C3.55626923,9.42646154 3.55247436,9.37997436 3.45902564,9.41555128 L3.45902564,9.28320513 C3.54867949,9.28794872 3.67533333,9.25094872 3.65683333,9.38376923 L3.65683333,9.38376923 Z M3.48701282,8.82023077 L3.48701282,8.6869359 C3.55911538,8.69120513 3.59753846,8.73626923 3.60038462,8.82023077 L3.48701282,8.82023077 L3.48701282,8.82023077 Z M3.68482051,8.6869359 L3.77020513,8.6869359 C3.79439744,8.72535897 3.80720513,8.77564103 3.79866667,8.85296154 C3.69383333,8.87525641 3.67391026,8.80125641 3.68482051,8.6869359 L3.68482051,8.6869359 Z M3.82523077,8.98578205 L3.82523077,8.82023077 C3.89875641,8.8245 3.93575641,8.86814103 3.93955128,8.95257692 C3.98176923,8.95826923 4.04391026,8.94071795 4.05339744,8.98578205 C4.08328205,9.102 3.87978205,9.07448718 3.93955128,8.95257692 C3.90160256,8.96301282 3.88547436,8.9990641 3.82523077,8.98578205 L3.82523077,8.98578205 Z M17.3999615,11.6597436 L17.3999615,11.4676282 C17.2946538,11.3262692 17.1291026,11.254641 17.0038718,11.1365256 C16.9336667,11.0938333 16.8672564,11.211 16.8629872,11.1365256 C16.8378462,11.0307436 16.9554872,11.0914615 16.946,11.0041795 C17.0342308,10.9799872 17.0015,11.0952564 17.0878333,11.0705897 C17.1594615,11.0767564 17.1774872,11.0198333 17.2016795,10.9714487 L17.3999615,10.9714487 C17.4578333,10.9918462 17.5024231,11.0269487 17.5455897,11.0648974 C17.5047949,11.2655513 17.4545128,11.463359 17.3999615,11.6597436 L17.3999615,11.6597436 Z" id="Fill-1" fill="#FFFFFF"></path>
                <path id="Fill-2" fill="#00A79D" d="M4.08138462,3.02688462 C4.07332051,3.01882051 4.03774359,3.04348718 4.05339744,3.05961538 C4.06146154,3.06957692 4.09561538,3.04491026 4.08138462,3.02688462"></path>
                <path id="Fill-3" fill="#00A79D" d="M15.9849487,7.39667949 C15.9427308,7.39051282 15.9593333,7.31651282 15.9569615,7.26385897 C15.8502308,7.25010256 15.8274615,7.3340641 15.7866667,7.39667949 C15.8601923,7.36964103 15.9422564,7.49724359 15.9849487,7.39667949"></path>
                <path id="Fill-4" fill="#00A79D" d="M14.3427179,3.32573077 C14.3512564,3.33521795 14.386359,3.30912821 14.3721282,3.29252564 C14.3640641,3.28303846 14.3280128,3.30865385 14.3427179,3.32573077"></path>
                <path id="Fill-5" fill="#00A79D" d="M14.4281026,3.29252564 C14.4361667,3.3010641 14.4703205,3.27639744 14.4565641,3.25932051 C14.4480256,3.25078205 14.4138718,3.27497436 14.4281026,3.29252564"></path>
                <path id="Fill-6" fill="#00A79D" d="M12.475641,3.82191026 C12.4666282,3.90919231 12.5344615,3.90682051 12.5885385,3.92105128 C12.6141538,3.81384615 12.4965128,3.87503846 12.475641,3.82191026"></path>
                <path id="Fill-7" fill="#00A79D" d="M1.42165385,8.55601282 L1.42165385,8.52233333 C1.38844872,8.52897436 1.40552564,8.55601282 1.42165385,8.55601282"></path>
                <path id="Fill-8" fill="#00A79D" d="M8.85296154,7.00011538 L8.85296154,6.93370513 C8.81738462,6.94224359 8.82402564,6.99964103 8.85296154,7.00011538"></path>
                <path d="M9.58821795,4.3185641 C9.49571795,4.54103846 9.29269231,4.63591026 9.27751282,4.94803846 C9.29980769,5.00923077 9.32352564,5.06852564 9.33396154,5.14584615 C9.27134615,5.28246154 9.22770513,5.44184615 9.16414103,5.57703846 C8.91130769,5.71175641 8.96585897,5.26016667 8.82402564,5.24546154 C8.82924359,5.3939359 8.87288462,5.49687179 8.93787179,5.57703846 C8.87146154,5.58605128 8.87146154,5.66526923 8.93787179,5.67523077 C8.94024359,5.59364103 9.03132051,5.66858974 9.02278205,5.70748718 C9.09630769,5.70511538 9.11291026,5.62779487 9.19260256,5.60976923 C9.25664103,5.59364103 9.32589744,5.62115385 9.41839744,5.60976923 C9.50757692,5.52628205 9.46915385,5.29337179 9.53224359,5.17905128 C9.66032051,5.11738462 9.58110256,5.29858974 9.64514103,5.31092308 L9.64514103,4.98029487 C9.54789744,4.96179487 9.472,4.91815385 9.41839744,4.84794872 C9.39325641,4.56475641 9.62284615,4.57851282 9.64514103,4.35129487 C9.6385,4.32615385 9.62189744,4.31334615 9.58821795,4.3185641" id="Fill-9" fill="#00A79D"></path>
                <path id="Fill-10" fill="#00A79D" d="M5.01492308,5.80805128 C5.00828205,5.79808974 4.97175641,5.82417949 4.9869359,5.84030769 C4.99405128,5.85026923 5.03057692,5.82465385 5.01492308,5.80805128"></path>
                <path id="Fill-11" fill="#00A79D" d="M15.2496923,9.15133333 C15.1690513,9.24715385 15.3412436,9.23624359 15.3056667,9.38376923 C15.3426667,9.41602564 15.4095513,9.41555128 15.4465513,9.44875641 C15.4081282,9.24430769 15.3938974,9.34534615 15.4465513,9.21726923 C15.3232179,9.25996154 15.3308077,9.05883333 15.2496923,9.15133333"></path>
                <path id="Fill-12" fill="#00A79D" d="M10.2395128,4.18574359 C10.2323974,4.2445641 10.2428333,4.5220641 10.4093333,4.48364103 C10.4885513,4.45138462 10.3675897,4.39541026 10.4368462,4.35129487 C10.5046795,4.31903846 10.6171026,4.34085897 10.6076154,4.21894872 C10.5151154,4.17103846 10.3694872,4.18811538 10.2395128,4.18574359"></path>
                <path id="Fill-13" fill="#00A79D" d="M9.95632051,3.78870513 C9.96438462,3.79866667 9.99901282,3.77210256 9.98573077,3.75597436 C9.97719231,3.74648718 9.94161538,3.77162821 9.95632051,3.78870513"></path>
                <path id="Fill-14" fill="#00A79D" d="M10.4662564,8.55601282 C10.4733718,8.56455128 10.5089487,8.53941026 10.4937692,8.52233333 C10.4866538,8.51284615 10.4506026,8.53846154 10.4662564,8.55601282"></path>
                <path id="Fill-15" fill="#00A79D" d="M10.4937692,4.45091026 C10.5018333,4.45992308 10.5369359,4.43525641 10.5231795,4.41770513 C10.514641,4.40869231 10.4795385,4.43335897 10.4937692,4.45091026"></path>
                <path id="Fill-16" fill="#00A79D" d="M12.475641,3.82191026 C12.5022051,3.68387179 12.3912051,3.81479487 12.475641,3.82191026"></path>
                <path id="Fill-17" fill="#00A79D" d="M9.73052564,5.0794359 C9.81448718,5.07848718 9.90319231,5.08275641 9.89987179,4.98029487 C9.83014103,4.99784615 9.72957692,4.97887179 9.73052564,5.0794359"></path>
                <path id="Fill-18" fill="#00A79D" d="M14.5134872,3.22611538 C14.5201282,3.23512821 14.5561795,3.21046154 14.541,3.19338462 C14.5338846,3.18437179 14.4983077,3.2085641 14.5134872,3.22611538"></path>
                <path id="Fill-19" fill="#00A79D" d="M7.36489744,2.1009359 C7.41280769,2.05824359 7.47494872,2.03262821 7.47779487,1.93538462 C7.35730769,1.95578205 7.09214103,1.89838462 6.99632051,2.03452564 C7.1490641,2.02124359 7.2785641,2.03594872 7.36489744,2.1009359"></path>
                <path id="Fill-20" fill="#00A79D" d="M7.27903846,3.52401282 C7.289,3.43625641 7.34971795,3.40826923 7.36489744,3.32573077 C7.27903846,3.30533333 7.20361538,3.46424359 7.27903846,3.52401282"></path>
                <path id="Fill-21" fill="#00A79D" d="M1.39224359,8.42319231 C1.34291026,8.39330769 1.34480769,8.30080769 1.27934615,8.29037179 C1.25610256,8.38903846 1.35571795,8.50525641 1.39224359,8.42319231"></path>
                <path id="Fill-22" fill="#00A79D" d="M1.27934615,8.22396154 C1.27934615,8.20498718 1.25705128,8.18648718 1.25088462,8.22396154 C1.25088462,8.2429359 1.27412821,8.2614359 1.27934615,8.22396154"></path>
            </g>
            <path d="M343.347632,85.0897848 L335.978684,77.719469 C337.080947,76.1875217 337.746,74.3182585 337.746,72.2847848 C337.746,67.1162585 333.543579,62.9083638 328.375053,62.9083638 C323.206526,62.9083638 319,67.1162585 319,72.2847848 C319,77.4539954 323.206526,81.6577848 328.375053,81.6577848 C329.999368,81.6577848 331.505316,81.2055217 332.838158,80.4747848 L340.402105,88.0359954 C341.214263,88.8508901 342.534105,88.8508901 343.347632,88.0359954 C344.159789,87.2204164 344.159789,85.9046796 343.347632,85.0897848 L343.347632,85.0897848 Z M322.124105,72.2847848 C322.124105,68.8349954 324.928684,66.0358901 328.375053,66.0358901 C331.820053,66.0358901 334.623947,68.8349954 334.623947,72.2847848 C334.623947,75.7311533 331.820053,78.5309427 328.375053,78.5309427 C324.928684,78.5309427 322.124105,75.7311533 322.124105,72.2847848 L322.124105,72.2847848 Z" id="Imported-Layers" fill="#62A1D1" sketch:type="MSShapeGroup"></path>
            <path d="M258.791854,42.8746322 C258.791854,39.0276566 255.672146,35.9079493 251.825171,35.9079493 C251.080488,35.9079493 250.363171,36.0273639 249.689805,36.2446322 C249.246976,31.7533151 245.458878,28.2438517 240.851463,28.2438517 C235.944683,28.2438517 231.967512,32.2210225 231.967512,37.1269737 C231.967512,37.7232176 232.028049,38.3061932 232.140829,38.8700956 L230.486439,38.8700956 C227.456293,38.8700956 225,41.325559 225,44.3565347 C225,47.3858517 227.456293,49.8429737 230.486439,49.8429737 L252.434683,49.8429737 C254.048439,49.8429737 255.496341,49.1405834 256.500585,48.0310225 C257.904537,46.7556078 258.791854,44.9212664 258.791854,42.8746322" id="Imported-Layers" fill="#62A1D1" sketch:type="MSShapeGroup"></path>
            <g id="Imported-Layers" transform="translate(216.875000, 191.000000)" fill="#F26522" sketch:type="MSShapeGroup">
                <path d="M20.4060146,22.6197638 L17.1468482,22.6197638 L17.1468482,21.1564389 L13.177054,21.1564389 L13.177054,22.6197638 L9.91634441,22.6197638 C9.05680101,22.6197638 8.35929002,23.4223085 8.2921623,24.4375 L22.0309683,24.4375 C21.9622974,23.4223085 21.2671012,22.6197638 20.4060146,22.6197638" id="Fill-1"></path>
                <path d="M29.3440315,0.0986666667 L0.979099092,0.0986666667 C0.567845379,0.0986666667 0.23606471,0.438113941 0.23606471,0.857106865 L0.23606471,20.869532 C0.23606471,21.288525 0.567845379,21.6271847 0.979099092,21.6271847 L29.3440315,21.6271847 C29.7537421,21.6271847 30.0878375,21.288525 30.0878375,20.869532 L30.0878375,0.857106865 C30.0878375,0.438113941 29.7537421,0.0986666667 29.3440315,0.0986666667 L29.3440315,0.0986666667 Z M27.1998025,20.1229055 C26.8533618,20.1229055 26.5732772,19.8378013 26.5732772,19.4841776 C26.5732772,19.1297663 26.8533618,18.8438745 27.1998025,18.8438745 C27.5470148,18.8438745 27.8270995,19.1297663 27.8270995,19.4841776 C27.8270995,19.8378013 27.5470148,20.1229055 27.1998025,20.1229055 L27.1998025,20.1229055 Z M2.08477746,1.92191595 L28.2383532,1.92191595 L28.2383532,17.3923633 L2.08477746,17.3923633 L2.08477746,1.92191595 Z" id="Fill-2"></path>
            </g>
        </g>
    </g>
</svg>