<?xml version="1.0" encoding="UTF-8" standalone="no"?>
<svg width="400px" height="250px" viewBox="0 0 400 250" version="1.1" xmlns="http://www.w3.org/2000/svg" xmlns:xlink="http://www.w3.org/1999/xlink" xmlns:sketch="http://www.bohemiancoding.com/sketch/ns">
    <title>Untitled</title>
    <description>Created with Sketch (http://www.bohemiancoding.com/sketch)</description>
    <defs></defs>
    <g id="Page-1" stroke="none" stroke-width="1" fill="none" fill-rule="evenodd" sketch:type="MSPage">
        <g id="Group" sketch:type="MSLayerGroup">
            <rect id="Rectangle-1" fill="#75BAEF" sketch:type="MSShapeGroup" x="0" y="0" width="400" height="250"></rect>
            <path d="M200.004093,64 C155.888463,64 120,99.8925556 120,143.995907 C120,188.111537 155.888463,224 200.004093,224 C244.111537,224 280.004093,188.111537 280.004093,143.995907 C280.004093,99.8925556 244.111537,64 200.004093,64 L200.004093,64 Z M272.869481,167.417498 C272.621949,167.459453 272.3912,167.52658 272.441545,167.929343 C272.395395,168.193656 272.433154,168.369864 272.512868,168.495728 C270.566181,173.853313 268.019545,178.908826 264.969455,183.620312 C264.457611,183.851062 263.991916,184.153134 263.681453,184.618828 C261.835457,184.220261 261.218726,185.260732 260.17406,185.789358 C259.435661,185.869071 259.402098,185.130673 258.67209,185.201995 C258.4791,183.813303 259.062267,183.31824 258.928012,181.984088 C258.848299,181.304426 258.663699,180.717063 258.181223,180.524073 C258.797953,179.059862 258.181223,177.44042 257.925301,176.13144 C258.260936,175.451778 259.37273,175.678332 259.926529,175.254592 C260.845331,174.868611 260.560041,173.064569 261.176772,172.330366 C261.692811,171.734612 261.663443,172.456229 262.175288,172.615656 C262.741673,172.493988 262.19207,171.063341 262.678741,170.866155 C263.446508,170.903914 264.092607,170.173906 264.68836,170.866155 C265.594577,170.668969 265.359632,169.125045 265.691072,168.223024 C266.42108,167.820261 267.255973,167.534971 268.187362,167.34198 C268.699207,167.274853 268.25449,166.062369 268.690816,165.88616 C269.899105,166.427373 272.131082,165.79386 273.175748,166.536454 C273.075058,166.834331 272.974367,167.128012 272.869481,167.417498 L272.869481,167.417498 Z M144.283244,95.20967 C144.564339,95.3439243 144.853825,95.4865695 145.139115,95.6250192 C146.137631,95.5411103 146.125045,94.2405219 147.387874,94.4544896 C147.350115,95.1803019 147.517933,95.6711691 147.891328,95.914505 C148.43254,95.406856 148.747199,93.0867741 147.891328,92.6840113 C147.681555,91.8658992 148.23955,91.9330263 148.138859,91.2323868 C149.351343,90.8044513 149.183525,91.9665899 150.140087,91.8155539 C150.471527,93.0783832 151.289639,93.7958046 152.14551,94.4544896 C152.418214,95.5830647 151.260271,95.4991558 151.885393,96.2123817 C152.351087,95.5662829 152.867127,95.012484 153.144027,94.1608084 C153.190177,93.5231005 152.258787,94.0307496 151.885393,93.8671271 C150.349859,92.2183167 151.839243,89.2311589 153.144027,88.3081607 C153.949552,88.3459197 154.251624,88.9626503 154.134152,90.0576618 C154.415247,89.1178818 156.546534,88.5473011 156.399693,90.3513431 C157.247173,90.2716296 157.83034,89.8856485 158.900179,90.0576618 C158.979893,90.7415196 159.768636,90.6030698 159.655359,91.5218726 L161.904119,91.5218726 C161.807623,92.7133794 162.587976,92.8728063 162.90683,93.5734459 C162.839703,94.1691993 162.222973,94.1482221 162.155845,94.7439754 C162.898439,95.0376567 163.548734,95.4613968 164.4088,95.6250192 C164.673113,95.8935278 164.475927,96.7032489 165.163981,96.5018675 C165.168176,97.1899207 164.73185,97.361934 164.903863,98.2597595 C164.07736,97.9618828 164.089946,98.6625224 164.157073,99.4302891 C163.372525,99.1827577 163.095625,98.3268867 162.155845,98.2597595 C162.155845,99.1282169 162.810335,99.2498849 162.90683,100.013456 C163.074648,101.762957 162.109696,101.725198 162.659299,103.24395 C160.565771,103.034178 159.953236,101.129445 158.405116,100.307137 C157.36045,100.349092 156.307393,100.407828 155.896239,99.7197749 C156.177334,97.6136608 158.900179,98.3520594 159.151906,96.2123817 C159.294551,94.9579432 157.800972,95.6459964 158.144999,94.1608084 C157.343668,94.4964441 156.60527,93.2671783 156.152162,94.1608084 C155.741008,93.5566641 154.885137,93.4769506 153.899207,93.5734459 C154.205475,94.0013814 154.851573,94.0181632 155.145255,94.4544896 C154.885137,95.2222563 154.851573,96.2501407 154.897723,97.3787158 C153.781734,97.9157329 152.833564,98.1632643 151.142799,98.5492453 C151.084062,99.0988488 151.432284,99.203735 151.39033,99.7197749 C150.068764,99.8330519 149.678588,101.03295 149.141571,102.065029 C148.319263,102.564288 147.954259,103.613149 147.131952,104.112407 C147.11517,104.578102 147.173906,105.127705 146.632694,104.989256 C146.515221,106.113635 147.794832,105.589204 147.387874,107.036633 C148.541622,107.451983 149.393298,108.207163 150.140087,109.092402 C150.769404,109.054643 150.924635,108.530212 151.142799,109.390279 C151.650448,109.218266 151.633666,108.50504 152.14551,109.092402 C152.460169,110.275518 152.581837,111.710361 153.144027,112.603991 C153.504835,111.362139 153.517421,109.721719 154.398465,109.092402 C154.226452,108.69803 153.630698,109.35252 153.387362,108.50504 C153.651676,107.682732 154.465592,108.580558 154.897723,108.50504 C154.465592,106.327603 155.518649,104.695574 155.145255,101.775544 C155.85848,102.010489 155.799744,101.351804 156.399693,101.477667 C157.108723,101.423126 156.98286,102.581069 157.641545,101.775544 C158.803684,101.964339 158.556152,103.344641 159.898695,102.648196 L159.898695,105.576618 C160.007777,106.226912 161.136352,105.698286 161.652392,105.870299 C162.193605,105.916449 161.761474,104.829829 161.904119,104.406089 C163.301202,104.527756 162.944589,106.700998 163.913738,107.338706 C163.926324,107.85055 163.859197,108.244922 163.657815,108.50504 C163.754311,109.751087 164.933231,109.746892 164.903863,111.13978 C165.528984,111.106216 165.68002,110.594372 166.158301,111.13978 C166.238015,112.964799 166.238015,113.120031 166.158301,114.94505 C166.523305,115.70023 166.741468,116.59386 167.664467,116.702942 C167.161013,117.256741 167.546994,118.079048 167.664467,118.75032 C166.871527,119.153083 166.154106,118.024508 165.906575,118.75032 C165.541571,118.699974 165.68002,118.037094 165.663239,117.575595 C164.73185,117.374213 164.585009,118.079048 163.657815,117.873471 C164.131901,116.186902 165.331798,115.343617 165.906575,113.766129 C165.050704,113.229112 163.628447,115.612126 162.403377,114.655564 C162.193605,115.477872 162.75999,115.406549 162.659299,116.119775 C162.122282,116.472192 161.299974,116.480583 161.157329,117.286109 C161.052443,118.574111 162.298491,118.297212 162.90683,118.75032 C162.218777,119.606191 161.157329,120.017345 160.158813,120.504016 C160.158813,119.92924 160.842671,120.139013 160.64968,119.341878 C159.458173,119.878895 158.065285,120.20614 157.150678,121.091379 C156.886365,122.18639 157.767409,121.926273 157.641545,122.849271 C156.785674,123.197493 155.975953,123.625428 155.145255,124.023996 C155.468304,125.979074 154.029266,125.630852 154.650192,127.237708 C154.352315,127.485239 153.974725,127.619493 153.387362,127.535585 C153.613917,128.38726 153.613917,128.429215 153.387362,129.285086 C151.667229,129.70463 150.559632,130.854183 150.140087,132.80087 C150.169455,133.551855 150.597391,133.824559 150.895267,134.265081 C150.714863,135.225838 150.597391,135.691532 150.895267,137.197698 C149.682783,137.050857 149.028294,136.249527 149.141571,134.562957 C148.961167,133.308519 147.324942,133.749041 146.137631,133.677718 C145.84395,133.732259 145.864927,134.143413 145.885904,134.562957 C144.568534,134.630084 144.24968,133.539268 142.881965,133.677718 C142.047071,133.967204 141.518445,134.613303 140.633205,134.848248 C141.379995,137.138961 139.278076,142.366488 142.626042,142.169302 C143.393809,141.892402 143.179841,140.470146 143.63295,139.832438 C144.849629,140.017038 144.912561,140.017038 146.137631,139.832438 C146.355794,141.657457 145.634178,142.353901 145.386646,143.633512 C146.255104,144.174725 147.920696,143.780353 148.390586,144.804042 C148.638117,146.708775 147.799028,148.068099 148.390586,149.481965 C149.208698,149.377079 149.498184,148.630289 150.140087,148.319826 C150.840727,148.378562 151.20573,148.82328 151.142799,149.784037 C151.755334,148.840061 152.766436,148.361781 153.144027,147.149296 C153.932771,147.291942 154.16352,146.784293 154.398465,146.268253 C154.985828,146.47383 155.061346,147.241596 155.644513,147.438782 C156.126989,147.325505 155.841699,146.310207 156.65142,146.561934 C156.840215,147.799591 158.065285,147.83735 158.405116,148.898798 C158.757534,148.827475 158.833052,148.420517 159.151906,148.319826 C160.414735,148.789716 161.367102,149.645587 162.659299,150.073523 C162.789358,151.382502 163.368329,152.171246 164.157073,152.708263 C166.435201,151.41187 167.88263,155.150013 167.161013,156.513533 C167.194577,157.264518 168.004298,157.0967 168.667178,157.100895 C168.814019,158.309184 170.479611,157.713431 170.920133,158.560911 L172.665439,158.560911 C173.563264,158.984651 174.532412,159.324482 174.922589,160.322998 C175.44702,160.15518 175.723919,159.479713 176.168636,160.033512 C176.420363,160.80967 176.688872,161.577437 176.680481,162.668253 C176.684676,163.356306 176.24835,163.528319 176.424559,164.417754 C175.64001,164.770171 176.34065,165.420466 175.673574,166.175646 C175.405065,166.935022 174.767357,167.258071 174.675058,168.223024 C174.356204,168.239806 174.32264,168.600614 173.915682,168.525096 C173.961832,169.242517 173.789818,169.733384 173.420619,169.980916 C174.242927,172.049271 173.026247,173.660322 172.921361,175.548273 C171.851522,176.009772 171.864108,176.009772 170.668406,176.425122 C170.198516,176.941161 169.888053,177.654387 169.413968,178.183014 L169.413968,180.222001 C168.864364,181.144999 167.83648,181.501612 167.907803,183.154618 C167.127449,183.121054 167.056127,183.905602 166.917677,184.618828 C166.724687,184.68176 166.418419,184.623024 166.410028,184.91251 L164.4088,184.91251 C164.513686,185.95298 165.075876,186.477411 164.903863,187.836736 C163.964083,188.197544 163.489997,189.112151 162.155845,189.011461 C161.778255,190.026759 161.828601,191.54551 160.158813,191.058839 C161.845382,191.360911 160.825889,194.251573 160.158813,195.15779 C160.020363,196.19826 161.044052,195.875211 160.909798,196.924073 C160.872039,197.658276 160.540599,198.052648 159.898695,198.090407 C159.869327,199.223177 159.059606,199.437145 159.151906,200.720952 C158.879202,201.811768 160.08749,201.190842 159.898695,202.185162 C160.238526,202.780916 160.716807,203.175288 161.400665,203.351497 C161.232847,204.412944 159.575646,203.758455 158.648452,203.938859 C158.19954,203.636787 157.805168,203.267588 157.230391,203.108161 C157.201023,203.082988 157.175851,203.066206 157.150678,203.045229 C157.192632,202.508212 156.869583,202.407521 156.898951,201.891481 C156.068253,201.295728 156.143771,199.659504 155.401177,198.967255 C155.988539,197.293272 155.132668,196.269583 154.897723,194.276746 C155.413763,193.362139 154.666974,192.648913 155.145255,191.944078 C155.459913,190.987516 154.331338,191.713328 154.650192,190.769353 C155.048759,190.072909 156.110207,190.144231 155.896239,188.721975 C155.66549,187.920645 155.019391,189.238015 154.650192,188.428294 C155.170427,186.498388 154.545306,183.22594 155.896239,182.273574 C156.215093,180.448555 155.220773,178.917217 155.896239,177.595651 C155.862676,177.046048 155.732617,176.613917 155.401177,176.425122 C155.657099,176.043336 155.644513,175.342696 155.896239,174.960911 C155.900435,173.102328 155.111691,172.170939 154.650192,170.866155 C153.173395,170.639601 152.829368,169.078895 151.885393,168.223024 C151.679816,167.396521 152.23781,167.463648 152.14551,166.763008 C150.815554,166.167255 149.712151,165.307189 149.88836,162.961934 C150.333078,162.789921 150.928831,162.815093 151.142799,162.378767 C150.63515,161.892095 149.829624,161.757841 149.393298,161.199847 C150.4044,160.255871 148.90243,159.156664 149.393298,157.100895 C149.586288,155.968125 150.500895,155.682834 150.396009,154.180865 C150.21141,153.375339 150.895267,153.585111 150.895267,153.001944 C150.647736,152.116705 150.232387,151.428652 150.140087,150.363008 C149.628243,150.446917 149.645024,151.151752 149.393298,151.537733 C148.126273,151.160143 147.828396,149.662369 146.389358,149.481965 L146.389358,148.613507 C145.869123,148.240113 145.365669,147.849936 145.139115,147.149296 C144.329394,147.216424 144.077667,146.624866 143.129496,146.855615 C142.743515,146.238885 142.412075,145.555027 142.126784,144.804042 C139.638885,145.445945 138.426401,143.952366 136.370632,143.339831 C135.846201,142.093784 135.191711,141.019749 135.380507,138.951394 C134.809926,138.045178 134.138654,137.264825 133.366692,136.610335 C133.34991,136.144641 133.400256,135.590842 132.875825,135.737682 C132.88002,137.386493 133.387669,137.101202 133.366692,138.364032 C132.607316,138.577999 132.636685,137.856383 131.868918,138.074546 C131.399028,136.962753 131.147301,135.590842 130.111026,135.146124 C130.157176,134.797902 130.073267,134.315426 130.362753,134.265081 C129.511077,133.312714 129.561422,131.2989 128.864978,130.170325 C128.634229,129.989921 128.449629,129.763367 128.265029,129.549399 C130.606089,116.660987 136.236378,104.905347 144.283244,95.20967 L144.283244,95.20967 Z M153.584548,85.8202609 C157.754822,82.2793042 162.315272,79.1956511 167.186186,76.6280379 C167.291072,76.9720645 167.907803,76.7161422 167.907803,77.1818368 C167.500844,78.9355334 165.95692,78.0712714 164.903863,78.6460476 C164.358455,78.6921975 165.226912,79.3802507 164.903863,80.1102584 C163.972474,80.0850857 163.473216,80.5759529 163.158557,81.2849834 C161.572678,80.9829112 161.455206,82.4051676 160.158813,82.447122 C160.414735,84.3308775 158.900179,84.1085188 158.900179,85.6734203 L157.150678,85.6734203 C156.974469,86.4621642 158.329598,85.463648 158.144999,86.2565874 C158.228908,87.0243541 157.809363,87.2131491 157.150678,87.1250448 C156.554925,89.3108723 154.041852,87.7040164 152.14551,88.010284 C152.149706,87.653671 151.990279,87.4942441 151.780507,87.3851624 C152.082579,87.1040675 152.409823,86.835559 152.728677,86.5586595 C153.425122,86.8271681 154.205475,87.0788949 155.145255,86.835559 C154.763469,86.1055513 154.239038,85.8622154 153.584548,85.8202609 L153.584548,85.8202609 Z M268.40133,108.244922 C268.044717,108.681248 267.6,109.008493 267.432182,109.679765 C267.83075,111.043285 268.623689,110.254541 269.269788,109.931491 C269.701919,110.80834 270.108877,111.697774 270.51164,112.591404 C270.566181,114.009465 270.918598,115.666667 270.692044,117.286109 C269.781632,118.276234 269.278179,119.727859 268.690816,121.091379 C267.965004,121.422819 267.218214,121.708109 266.685393,122.266104 C265.875672,124.506472 267.444768,127.732771 265.938603,129.003991 C265.145664,128.634792 264.445024,128.202661 264.68836,126.654541 C264.340138,125.790279 263.467485,125.538552 263.190586,124.607163 C261.541775,124.607163 263.391967,125.974878 262.678741,126.36086 C262.708109,126.881095 262.43121,127.044717 261.927756,126.948222 C262.137529,127.774725 261.579534,127.703402 261.680225,128.408237 C261.697007,129.272499 262.24661,129.499053 262.678741,129.872448 C262.674546,130.774469 262.909491,131.370223 263.429726,131.634536 C262.628396,132.343566 263.089895,134.537785 262.678741,135.737682 C262.359887,135.750269 262.334715,136.102686 261.927756,136.022973 C261.53758,137.910924 260.467741,139.00174 259.674802,140.41141 C258.361627,140.348478 257.098798,140.331696 256.918393,141.586135 C257.358915,141.565157 257.698746,141.657457 257.925301,141.87562 C257.623228,142.504937 257.619033,143.478281 256.918393,143.633512 C257.182707,147.166078 256.59954,149.695932 254.166181,150.073523 C254.187158,149.565874 254.11164,149.167306 253.922845,148.898798 C252.84881,148.701612 252.458634,147.686314 251.913226,146.855615 C251.082528,146.956306 251.523049,148.542185 251.418163,149.481965 C251.804144,150.400767 252.475416,150.983935 253.17186,151.537733 C253.238987,153.316603 254.476644,153.710975 254.422103,155.64088 C252.995651,154.65495 251.867076,153.358557 250.654592,152.129291 C250.935687,150.828703 250.239243,150.669276 250.16792,149.784037 C249.937171,148.852648 250.566488,148.873625 250.654592,148.319826 C250.528729,147.401023 250.071425,146.868202 249.41274,146.561934 C249.781939,145.668304 249.324635,145.424968 249.668662,144.804042 C249.148427,144.145357 247.436685,144.871169 247.15559,143.922998 C246.945817,143.100691 247.512203,143.172013 247.415707,142.467178 C246.471732,142.093784 246.471732,140.637964 245.901151,139.832438 C244.973958,140.004451 244.273318,140.449169 243.652392,141.002968 C243.308365,141.858839 242.339217,141.997288 242.41054,143.339831 C241.630187,143.125863 242.091686,144.355129 241.151906,143.922998 L241.151906,145.101919 L240.144999,145.101919 C240.379944,147.610796 239.473727,148.798107 239.146482,150.665081 C238.483602,150.65669 237.720031,150.769967 237.392786,150.363008 L237.392786,148.613507 C237.191404,147.686314 236.658583,147.119928 236.138347,146.561934 C235.735585,145.198414 235.395753,143.730008 234.648964,142.756664 C234.84615,141.737171 234.275569,141.632284 234.388846,140.705091 C234.040624,140.239396 233.155385,140.398823 232.895267,139.832438 C232.907854,139.475825 232.96659,139.140189 233.386135,139.245075 C232.303709,138.754208 231.88836,137.482988 230.14725,137.776669 C229.635405,137.868969 229.635405,137.386493 229.387874,137.197698 C228.271885,137.164134 228.095677,138.217191 226.883193,138.074546 C227.101356,137.138961 226.488821,137.168329 226.383935,136.610335 C223.85408,136.929189 224.273625,133.807777 222.872346,132.80087 C222.503147,132.956101 222.25142,133.233001 221.882221,133.388232 C222.406651,133.652545 222.314351,134.638475 223.124073,134.562957 C223.002405,136.073318 223.925403,136.371195 224.126784,137.482988 C224.533743,136.98373 225.179841,136.75298 226.132208,136.895625 C225.91824,138.708058 227.206242,138.775185 227.638373,139.832438 C227.609005,140.872909 226.711179,140.893886 226.883193,142.169302 C225.91824,142.509133 225.460936,143.436326 224.382707,143.633512 C223.925403,143.679662 224.231671,144.623638 223.883448,144.804042 C221.852852,145.169046 220.627782,146.47383 218.86989,147.149296 C217.628038,146.096239 217.707751,144.262829 217.116193,143.058736 C216.113482,141.795907 215.408647,140.176465 214.368176,138.951394 C214.624098,138.359836 213.969609,136.824303 213.373855,136.316654 C213.013047,136.379586 213.596214,137.772474 213.373855,138.657713 C213.663341,139.48002 214.435303,139.752724 214.863239,140.41141 C214.372371,142.655973 216.0967,142.29936 215.874341,144.22507 C216.75958,145.324277 218.005628,146.029112 218.123101,148.03034 L220.37186,148.03034 C221.35779,148.101663 221.307444,146.973088 222.373088,147.149296 C223.153441,147.778613 222.817805,149.276388 222.62901,150.363008 C221.399744,152.347455 220.317319,154.495523 219.125812,156.513533 C218.471323,156.937273 217.972064,157.499463 217.372116,157.977744 C217.086825,159.404195 216.654694,160.650243 216.113482,161.787209 C216.491072,164.166027 216.491072,167.597902 216.113482,169.980916 C214.175185,171.117882 213.147301,173.328882 213.113738,176.710412 C212.249476,176.483858 212.064876,177.037657 211.615963,177.297774 C211.82154,178.510258 211.225787,178.808135 211.355845,179.93671 C210.256639,180.691891 209.497263,181.849834 209.115477,183.444103 C206.971604,183.989511 205.763315,185.592172 203.350934,185.789358 C202.197186,184.312561 202.218163,181.455462 201.102174,179.93671 L201.102174,177.297774 C200.695216,175.334305 199.919059,173.798772 198.845024,172.615656 C199.369455,171.172423 199.235201,168.969813 199.847736,167.639857 C199.549859,166.230187 199.516296,164.52264 198.845024,163.545101 C199.27296,161.497723 198.064671,160.360757 197.34725,158.858787 C197.313686,156.874341 198.10243,155.842261 197.842313,153.585111 C196.978051,153.358557 196.789256,153.912356 196.344538,154.180865 C195.450908,154.050806 195.014582,153.387925 193.839857,153.585111 C193.491635,153.408903 193.802098,152.456536 193.336403,152.418777 C192.321105,152.301305 192.350473,153.408903 191.842824,153.878793 C190.52965,153.815861 189.338143,153.882988 188.331236,154.180865 C186.753748,153.870402 185.985981,152.624354 184.832233,151.83561 C184.433666,150.144845 183.686876,148.873625 182.82681,147.732464 L182.82681,140.121924 C183.468713,139.10243 184.043489,138.028396 184.081248,136.316654 C184.630852,135.536301 185.969199,134.743361 186.338399,133.975595 C186.913175,132.75472 186.653057,130.963264 187.332719,129.587158 C187.970427,129.066922 188.876644,128.848759 189.086416,127.829266 C189.849987,127.812484 190.357636,128.080993 190.592581,128.701919 C191.544948,127.573344 193.30284,127.40133 195.341827,127.535585 C196.373906,126.981786 197.577999,126.633564 199.096751,126.654541 C199.423996,127.044717 199.423996,127.749552 198.845024,127.829266 C199.067383,128.345306 199.545664,128.567664 199.352673,129.587158 C200.422512,131.05976 202.713226,131.122691 203.854387,132.511384 C204.508877,132.200921 204.374623,130.975851 205.10463,130.757687 C207.521207,130.862574 209.786749,131.135278 211.615963,131.928217 C212.639652,131.764595 212.140394,129.805321 212.870402,129.285086 L212.870402,127.535585 C211.657918,127.099258 212.639652,129.213763 211.615963,129.003991 C210.45802,129.058532 211.859299,127.950934 211.116705,127.535585 C210.432847,128.051624 208.767255,128.278179 207.861039,127.535585 C207.45408,127.191558 207.663853,126.251778 207.110054,126.36086 C207.311435,125.106421 207.07649,125.169353 207.349194,124.023996 L206.602405,124.023996 C205.905961,125.089639 206.778613,126.524482 206.363264,127.535585 C207.21494,127.413917 207.785521,127.619493 207.609312,128.701919 C206.946431,128.064211 206.191251,128.647378 206.111537,127.829266 C206.262574,127.812484 206.405219,127.783116 206.363264,127.535585 C205.696188,127.531389 204.928422,127.644666 204.609568,127.237708 L204.609568,125.484011 C204.710258,125.026708 204.307496,124.682681 204.11031,124.309286 C203.963469,124.057559 203.766283,123.369506 203.602661,123.142952 C202.776158,121.892709 201.353901,121.263392 200.607112,119.920849 C199.809977,122.211563 202.927194,122.467485 203.602661,124.023996 C203.195702,125.00573 202.809721,123.100998 202.356613,124.023996 C202.381786,124.485495 202.98593,124.254745 202.855871,124.90504 C202.281095,125.395907 201.475569,125.635047 201.605628,126.948222 C201.232233,126.402814 200.313431,126.511896 200.35119,125.484011 C200.972116,125.525966 201.559478,125.538552 201.605628,124.90504 C201.332924,123.747096 200.565157,123.17232 199.352673,123.142952 C199.096751,122.756971 199.113533,122.052136 198.601688,121.976618 C198.446457,123.533129 199.428191,125.030903 197.842313,125.19033 C197.494091,123.763878 197.141673,121.934664 197.842313,120.797698 C196.827015,120.885802 196.390688,121.829777 195.341827,121.091379 C193.999284,121.183679 194.188079,123.063239 193.093067,123.436633 C193.269276,125.496598 192.40921,126.339882 191.842824,127.535585 C190.890458,126.97759 190.781376,126.97759 189.841596,127.535585 C189.099002,127.334203 188.746585,126.658736 187.584446,126.948222 C187.836173,125.588897 187.257201,125.177744 187.085188,124.309286 C188.142441,124.275723 187.324328,122.064722 187.584446,121.091379 C189.115784,121.355692 190.164646,120.39913 191.339371,121.091379 C191.855411,121.00747 191.842824,120.30683 192.090356,119.920849 C192.237196,118.574111 190.965976,118.901356 191.091839,117.575595 C190.420568,117.575595 189.656997,117.684676 189.333947,117.286109 C189.304579,116.367306 189.980046,116.283397 190.592581,116.119775 C191.263853,115.733794 191.47782,114.814991 192.589614,114.94505 C192.782604,114.882118 192.8791,114.697519 192.84134,114.357687 C191.335175,114.252801 190.072346,114.441596 188.834689,114.655564 C188.746585,113.766129 189.648606,114.043029 190.089128,113.766129 C189.761883,113.082272 189.384293,112.436173 189.581479,111.13978 C189.992632,111.576106 190.940803,111.00133 190.840113,109.96925 C190.500281,109.839192 190.194014,109.801433 189.581479,109.390279 C189.438833,107.85055 190.022001,107.166692 189.841596,105.576618 C190.445741,105.3165 190.919826,104.89276 191.842824,104.989256 C191.888974,105.719263 191.452648,105.903863 191.091839,106.163981 C191.339371,106.562548 191.750524,106.747148 192.090356,107.036633 C191.179944,108.55119 193.143413,108.815503 192.84134,110.544027 C193.088872,110.950985 193.508416,111.13978 193.839857,111.433461 C192.895881,112.280941 193.051113,113.103249 192.84134,114.357687 C194.028652,114.580046 193.16439,112.402609 194.582451,112.897672 C194.38946,111.882374 194.867741,111.65582 195.094295,111.13978 C195.904016,111.00133 196.449424,110.581786 197.34725,110.544027 C197.322077,110.095114 197.380814,109.537119 196.843796,109.679765 C196.847992,108.811307 197.309491,108.492453 197.842313,107.623996 C197.422768,107.053415 196.092811,107.531696 195.84528,106.747148 C195.916603,105.392018 195.84528,104.217293 195.341827,103.525045 C195.849476,102.169916 196.013098,100.412024 197.594781,100.307137 L197.594781,99.1366078 C197.888463,99.1827577 198.312203,99.0904579 198.345766,99.4302891 C199.067383,98.6205679 199.570837,97.5465336 199.847736,96.2123817 C200.837861,95.20967 201.962241,94.3831671 202.855871,93.2839601 C203.283807,93.4014326 203.497774,92.8518291 203.602661,93.2839601 C204.290714,92.7175748 204.915835,92.0840624 205.608084,91.5218726 L207.861039,91.5218726 C208.402251,91.9665899 208.779841,92.6042978 209.115477,93.2839601 C210.046866,93.3594781 210.726529,93.7412638 211.116705,94.4544896 C212.706779,94.5971348 214.783525,95.5411103 214.120645,97.3787158 C215.622614,97.5800972 215.677155,96.0865183 215.622614,94.4544896 C215.920491,94.7859299 216.499463,94.7817345 217.116193,94.7439754 L217.116193,96.5018675 C218.379023,96.1200819 218.991558,94.9873113 220.128524,94.4544896 C221.714403,94.5971348 222.826196,94.1691993 223.883448,94.4544896 C224.168739,93.132924 222.486365,94.1398312 222.872346,92.6840113 C224.630238,92.7343566 224.512765,93.4266053 226.132208,93.2839601 C226.975492,92.2183167 227.944641,91.2869276 228.636889,90.0576618 C229.803223,89.6758762 229.757073,90.7037606 230.14725,91.2323868 C231.229675,91.6267588 230.675876,90.0996163 231.640829,90.3513431 C231.60307,91.0771553 231.594679,91.7694039 231.892556,92.1134305 C232.526068,92.0756715 232.387618,91.1275006 232.400205,90.3513431 C233.734357,90.1499616 233.986083,91.2198005 234.888104,91.5218726 C235.114658,90.1961115 233.646252,90.8380148 233.646252,89.7723715 C233.411307,88.7109235 234.623791,89.3570223 235.152417,89.185009 C235.781734,89.1514454 235.546789,88.0941929 235.899207,87.7207982 C236.746687,87.8340752 236.956459,87.2131491 237.392786,86.835559 C238.852801,86.9823996 239.750627,86.4747506 240.409312,85.6734203 C241.198056,85.4091072 240.916961,86.4327961 241.403633,86.5460732 C242.360194,86.6929138 241.907086,85.1951394 243.153134,85.6734203 C243.106984,84.6287542 243.333538,83.9155283 243.904119,83.6176516 C244.881658,83.4540292 244.776772,84.5448452 245.401893,84.7923766 C246.5011,84.796572 247.659043,84.8888718 248.418419,84.4944999 C248.749859,85.3629573 249.563776,85.6818112 249.916193,86.5460732 C249.916193,87.4229215 249.270095,87.5361985 249.169404,88.3081607 C250.566488,87.964134 251.044768,88.7486825 251.661499,88.8913277 C251.980353,88.9542594 252.362139,88.7864415 252.664211,88.8913277 C253.247378,89.0885137 253.805372,89.4409312 254.493425,89.5290356 C260.048196,94.9873113 264.755487,101.293067 268.40133,108.244922 L268.40133,108.244922 Z M273.863801,121.636787 C273.809261,121.750064 273.763111,121.880123 273.691788,121.976618 C273.117012,122.060527 273.410693,121.129138 272.949194,121.091379 C272.063955,120.919366 272.126887,122.480072 271.434638,121.674546 C271.417856,120.478844 271.87516,119.845331 271.694756,118.460834 C272.164646,118.511179 272.571604,118.653825 272.949194,118.809056 C273.272244,119.744641 273.578511,120.684421 273.863801,121.636787 L273.863801,121.636787 Z M264.935892,148.03034 C265.347045,147.325505 265.594577,146.645843 266.433666,147.149296 C266.442057,146.368943 266.337171,145.479509 266.685393,145.101919 C267.394423,145.152264 267.751036,145.609568 267.6923,146.561934 C268.137017,147.111537 269.169097,146.973088 268.938347,148.319826 C267.746841,148.181376 267.046201,148.634485 266.685393,149.481965 C265.900844,149.280583 266.362343,148.714198 266.433666,148.03034 C265.644922,147.879304 265.456127,148.663853 264.935892,148.03034 L264.935892,148.03034 Z M265.691072,160.033512 C264.763878,160.633461 264.730315,159.702072 264.180711,159.156664 C263.744385,159.425173 263.626912,160.062881 263.681453,160.910361 C261.759939,159.819545 262.649373,156.551292 263.928984,155.351394 C264.35692,156.207265 265.879867,155.800307 265.938603,157.100895 C265.594577,157.478486 265.007214,157.478486 264.68836,157.100895 C264.730315,158.422461 265.552622,158.812638 265.691072,160.033512 L265.691072,160.033512 Z M262.43121,156.81141 C261.600512,157.205782 261.994884,159.026605 261.176772,159.44615 C261.180967,159.718854 261.487235,159.672704 261.680225,159.735636 C261.659248,160.289435 260.845331,159.941213 260.92924,160.612484 C259.305602,161.04881 259.544743,159.303505 257.925301,159.735636 C258.013405,158.170734 256.918393,157.986135 256.670862,156.81141 C257.111384,154.004656 260.446764,154.592018 260.677513,151.537733 C261.82287,151.45802 262.313738,152.162855 262.926273,152.708263 C263.047941,153.631261 262.620005,153.908161 262.175288,154.180865 C262.649373,154.868918 261.860629,155.859043 262.43121,156.81141 L262.43121,156.81141 Z M260.92924,163.830391 C258.193809,164.203786 257.061039,162.68923 254.661243,162.668253 C254.464057,161.652955 254.946534,161.426401 255.177283,160.910361 C256.691839,161.476746 258.126682,162.131236 260.17406,162.076695 C260.03561,163.121361 261.063494,162.802507 260.92924,163.830391 L260.92924,163.830391 Z M262.678741,139.538757 C262.565464,138.791967 262.326324,138.187823 261.927756,137.776669 C262.196265,137.101202 263.052136,136.257918 263.681453,136.895625 C263.626912,138.112305 263.715017,139.47163 262.678741,139.538757 L262.678741,139.538757 Z M265.430954,141.87562 C265.590381,143.339831 264.738706,143.604144 264.424047,144.510361 C263.824098,144.057252 263.329036,143.46989 262.926273,142.756664 C262.909491,141.30504 264.755487,140.809977 265.430954,141.87562 L265.430954,141.87562 Z M271.434638,155.930366 C271.380097,157.151241 269.52571,157.436531 268.690816,156.81141 C268.623689,155.439499 270.612331,155.338808 271.434638,155.930366 L271.434638,155.930366 Z M270.444513,130.170325 C270.230545,130.010898 270.037554,129.855666 269.685137,129.872448 C268.96352,130.300384 268.359376,130.854183 268.187362,131.928217 C267.776209,131.433154 267.146892,131.194014 267.188846,130.170325 L268.690816,130.170325 C268.795702,129.352213 267.323101,130.401074 267.432182,129.587158 C267.448964,128.043234 269.064211,128.357892 269.941059,127.829266 C270.84308,126.868509 271.279406,126.524482 272.194014,126.071374 C272.16045,125.731543 272.25275,125.546943 272.441545,125.484011 C272.05976,124.015605 272.496086,123.335943 272.194014,121.976618 L273.188335,121.976618 C273.14638,124.175032 273.641443,125.735738 273.691788,127.829266 C272.890458,128.928473 271.237452,129.050141 270.444513,130.170325 L270.444513,130.170325 Z M271.476592,114.865336 C271.87516,115.830289 272.25275,116.803633 272.605168,117.793758 C271.799642,117.323868 271.564697,116.191097 271.476592,114.865336 L271.476592,114.865336 Z M248.66595,152.418777 C249.299463,152.095728 249.937171,153.413098 249.916193,152.129291 C250.415452,152.133487 250.239243,152.922231 250.91471,152.708263 C250.746892,153.606089 251.535636,154.075979 251.913226,154.755641 C252.261448,155.376567 253.155078,156.215656 253.922845,156.81141 C253.897672,158.212689 255.00527,159.500691 254.422103,160.612484 C253.255769,161.237606 252.899156,159.316091 251.661499,159.156664 C252.169148,155.141622 248.66595,155.829675 248.66595,152.418777 L248.66595,152.418777 Z M240.144999,148.898798 C240.66943,149.469378 241.198056,150.027373 241.403633,150.950371 C240.81627,151.042671 240.929547,151.969864 240.144999,151.83561 C239.196828,150.992325 240.514198,150.635712 240.144999,148.898798 L240.144999,148.898798 Z M221.630494,172.615656 C221.40394,172.745715 221.168995,172.879969 221.118649,173.21141 L221.118649,174.663034 C220.451573,175.997186 220.665541,176.580353 220.128524,177.889332 C219.171962,177.666974 218.932822,178.250141 218.123101,178.183014 C217.187516,177.159325 217.904937,175.988795 217.372116,174.663034 C217.737119,174.214121 217.896546,173.526068 218.123101,172.909337 C218.248964,171.986339 217.678383,171.877258 217.879765,170.866155 C218.475518,170.010284 219.050294,169.108263 220.128524,168.810386 C220.308928,167.648248 220.686518,166.737836 221.118649,165.88616 C222.163315,165.74771 221.202558,167.941929 222.129752,167.929343 C222.091993,170.110975 221.168995,171.336045 221.630494,172.615656 L221.630494,172.615656 Z M165.163981,199.260936 C165.113635,198.300179 166.33451,198.102993 166.158301,199.260936 L165.163981,199.260936 L165.163981,199.260936 Z M174.675058,103.827117 C174.100281,104.036889 173.919877,104.69977 173.672346,105.282937 C172.841647,105.36265 173.139524,104.150166 172.422103,104.112407 L170.668406,104.112407 C169.325863,102.136352 170.706165,98.7925812 168.918905,97.3787158 C168.629419,96.5270402 170.114607,96.2920952 169.413968,95.914505 C169.90064,95.3187516 170.588693,94.9579432 171.167664,94.4544896 C170.815247,93.3007419 169.124482,93.7202865 168.918905,92.4071118 C169.682476,92.4113072 170.567716,92.5707342 170.412484,91.5218726 C169.812535,90.4688156 169.682476,92.3819391 168.667178,91.8155539 C168.520338,90.8715784 168.830801,90.4562292 168.918905,89.7723715 C168.59166,89.0843182 168.218266,88.4382195 168.415452,87.1250448 C166.947045,87.3893579 166.162497,86.835559 165.403121,86.2565874 C164.635354,86.0384241 164.933231,87.0621131 164.157073,86.835559 C163.33057,86.4369916 162.386595,86.1852648 162.155845,85.0818624 C162.835508,84.5070862 164.341673,84.9056536 165.403121,84.7923766 C165.356971,83.189716 164.27035,84.3182911 163.657815,84.4944999 C163.662011,83.7141468 162.394986,83.7141468 162.403377,84.4944999 C161.941878,84.3812228 161.950269,83.6638015 161.157329,83.9155283 C161.484574,82.7240215 162.298491,82.6652852 162.90683,83.0344845 C163.586493,82.2625224 164.933231,82.2751087 165.663239,81.5744692 C165.77232,80.6430801 164.425582,81.4653876 164.656332,80.4039396 C167.244922,80.097672 168.428038,78.1677667 170.920133,77.7608084 C172.598312,78.2516756 173.617805,77.7230494 175.426042,78.0586851 C175.858173,77.9034536 175.153338,76.6532105 175.17012,76.0113072 C175.64001,75.1806089 177.037094,75.4533129 178.178255,75.4281402 C179.222921,74.6939371 181.677258,75.6127398 182.684165,74.8281914 C183.124687,75.0002047 183.72044,74.9834229 183.938603,75.4281402 C184.379125,74.6519826 185.377641,75.0841136 186.187362,75.4281402 C187.563469,75.2771041 188.675262,75.4407265 189.191302,76.2965976 C188.88923,77.6055769 186.846048,76.8755692 186.682425,78.3523663 C187.185879,78.8222563 188.364799,77.5887951 189.438833,77.7608084 C190.227577,77.6265541 190.101714,78.5537478 190.689076,78.6460476 C190.86109,79.2292146 192.191046,78.4614479 191.943515,79.514505 C192.094551,80.6766436 190.567409,79.862727 189.950678,80.1102584 C189.061243,79.9508314 189.325556,81.1423382 188.440317,80.9829112 C188.251522,81.8849322 188.872448,81.8513686 188.687849,82.7449987 C187.748069,82.4303402 187.970427,83.4666155 187.185879,83.3239703 C187.848759,83.9197237 189.124175,83.7980558 189.191302,85.0818624 C188.285086,84.9979534 187.550883,85.1322077 186.934152,85.3755436 C187.320133,86.9782041 188.003991,89.927603 185.944027,90.0576618 C186.157994,90.5820926 186.636275,90.8044513 186.439089,91.8155539 C186.065695,91.6645178 185.801381,91.3792274 185.440573,91.2323868 C184.731543,91.6938859 186.791507,92.277053 185.944027,92.9860834 C184.630852,93.0532105 184.110617,92.2015349 183.179227,91.8155539 C182.499565,91.609977 182.679969,92.4029163 182.180711,92.4071118 C182.87296,92.4868253 183.926017,93.6615503 184.433666,92.9860834 C185.134305,94.0223587 183.036582,94.26989 182.935892,95.3313379 C181.664671,95.5998465 181.136045,96.7452034 179.923561,97.0850345 C179.466257,97.4248657 179.080276,97.8569967 178.677513,98.2597595 C177.624456,97.55912 177.624456,98.8429266 176.680481,98.2597595 C176.030187,98.2807368 176.315477,99.3967255 175.673574,99.4302891 C175.91691,101.574162 174.364595,101.611921 174.675058,103.827117 L174.675058,103.827117 Z M202.356613,81.2849834 C202.688053,81.234638 203.283807,82.2583269 203.350934,81.5744692 C204.038987,82.7240215 205.595498,82.8624712 205.356357,85.0818624 C203.64042,85.5223842 203.262829,84.3980046 202.595753,83.6176516 C202.297877,84.6287542 202.071323,85.7447429 201.853159,86.835559 C201.139933,86.9068816 200.485444,86.8775134 200.607112,85.9629061 C199.692504,86.1475058 199.264569,85.7615247 198.845024,85.3755436 C198.870197,84.0413917 200.044922,84.0413917 200.103658,82.7449987 C198.916347,82.6233308 198.878588,83.8484011 197.842313,83.9155283 C197.376618,83.3533384 197.812944,83.1687388 197.842313,82.447122 C197.670299,81.6793553 196.705347,81.8303914 196.60046,80.9829112 C196.680174,78.2097212 199.067383,79.5858276 199.600205,80.9829112 C200.254694,80.7353799 199.117728,79.7033001 199.847736,79.2292146 C200.900793,78.9774878 201.693732,79.9130724 201.102174,80.68923 C201.316142,81.121361 201.723101,81.3185469 202.356613,81.2849834 L202.356613,81.2849834 Z M202.100691,78.6460476 C204.131287,78.7005884 206.32131,78.7970837 208.620414,79.2292146 C208.918291,80.567562 207.735175,80.1522128 207.609312,80.9829112 C205.222103,81.3395242 203.934101,80.4081351 202.356613,79.8081862 C202.159427,79.552264 202.0923,79.1536966 202.100691,78.6460476 L202.100691,78.6460476 Z M189.086416,112.020824 C188.591353,112.423587 187.651573,112.293528 187.085188,112.603991 C186.699207,112.176055 186.862829,111.106216 186.833461,110.258736 C187.261397,109.755283 187.815196,110.690867 187.836173,109.390279 L189.086416,109.390279 C189.023484,110.728626 188.826298,110.791558 189.086416,112.020824 L189.086416,112.020824 Z M187.185879,100.8945 C186.409721,100.726682 186.690816,99.3295984 185.440573,99.7197749 C185.22241,98.5870043 186.040522,98.6834996 186.187362,97.9618828 C185.583218,97.8486058 185.64615,98.4989 184.928729,98.2597595 C184.94551,97.1899207 186.237708,97.6304426 185.944027,96.2123817 C186.812484,96.1536454 186.753748,97.202507 187.441801,97.3787158 C188.46549,96.9046303 188.84308,97.4836019 189.950678,97.0850345 C189.87516,98.3478639 190.701663,98.536659 190.441545,100.013456 C190.126887,100.42461 189.22067,100.14771 189.191302,100.8945 C188.926989,100.584037 187.404042,100.290356 187.185879,100.8945 L187.185879,100.8945 Z M220.883704,87.1250448 C222.364697,86.4244052 223.75339,85.623075 225.63295,85.3755436 C225.87209,85.3713482 225.830136,85.0189307 225.884676,84.7923766 L227.139115,84.7923766 C227.009056,86.3069327 226.216117,87.0243541 224.630238,86.835559 C223.304477,87.5320031 222.645792,89.0046048 220.883704,89.185009 C220.590023,91.2701458 221.78153,91.6435405 222.129752,92.9860834 C221.697621,92.981888 221.479458,93.2084421 221.378767,93.5734459 C220.455769,93.0867741 219.683807,92.4322845 218.86989,91.8155539 C218.932822,90.9135329 219.562139,90.6785879 219.876797,90.0576618 C219.675416,88.4591967 220.992786,88.6396009 220.883704,87.1250448 L220.883704,87.1250448 Z M220.883704,80.68923 C220.7956,79.1830647 223.107291,78.5537478 223.124073,80.4039396 C222.188488,80.2822717 221.73538,81.6038373 220.883704,80.68923 L220.883704,80.68923 Z M237.392786,80.4039396 C238.777283,79.6655411 241.063801,80.1480174 241.651164,81.2849834 C241.185469,83.1813251 239.117114,81.7590688 237.153645,82.1618317 C237.296291,81.6457918 236.847378,80.4375032 237.392786,80.4039396 L237.392786,80.4039396 Z M154.897723,100.8945 C154.599847,102.72791 152.795805,99.4722435 152.8923,101.775544 C151.973497,101.775544 151.167971,101.637094 151.142799,100.600819 C152.258787,100.928063 152.040624,99.7029931 152.397237,99.1366078 C153.156613,98.9226401 153.135636,99.6442568 153.899207,99.4302891 C154.545306,100.151906 153.903402,100.57145 154.897723,100.8945 L154.897723,100.8945 Z M159.151906,142.169302 C159.37846,143.411154 158.547762,143.419545 157.641545,143.339831 L157.641545,142.169302 L159.151906,142.169302 L159.151906,142.169302 Z M152.14551,141.296649 C151.050499,141.107854 150.945613,139.769506 149.88836,139.538757 C148.654899,139.161167 148.659094,140.243592 147.643796,140.121924 C147.597646,139.391916 148.033973,139.215707 148.138859,138.657713 L151.885393,138.657713 C152.015452,139.492607 152.84615,139.505193 153.387362,139.832438 C153.395753,140.41141 154.079611,140.201637 153.899207,141.002968 C155.405372,141.082681 156.785674,140.805782 157.150678,142.756664 C156.445843,142.807009 155.43474,142.509133 155.401177,143.339831 C154.851573,143.096495 154.545306,142.584651 153.64748,142.756664 C153.513226,142.01407 153.215349,141.623894 154.134152,141.586135 C153.957943,140.923254 152.737068,141.472858 152.14551,141.296649 L152.14551,141.296649 Z M152.644768,143.058736 C151.755334,143.436326 151.72177,143.025173 150.895267,143.339831 L150.895267,142.169302 C151.688207,142.211256 152.808391,141.884011 152.644768,143.058736 L152.644768,143.058736 Z M151.142799,138.074546 L151.142799,136.895625 C151.780507,136.933384 152.120338,137.331952 152.14551,138.074546 L151.142799,138.074546 L151.142799,138.074546 Z M152.8923,136.895625 L153.64748,136.895625 C153.861448,137.235457 153.974725,137.680174 153.899207,138.364032 C152.972013,138.561218 152.795805,137.906728 152.8923,136.895625 L152.8923,136.895625 Z M154.134152,139.538757 L154.134152,138.074546 C154.784446,138.112305 155.111691,138.498286 155.145255,139.245075 C155.518649,139.295421 156.068253,139.140189 156.152162,139.538757 C156.416475,140.566641 154.616628,140.323305 155.145255,139.245075 C154.809619,139.337375 154.666974,139.656229 154.134152,139.538757 L154.134152,139.538757 Z M274.195242,163.188488 L274.195242,161.489332 C273.263853,160.239089 271.799642,159.605577 270.692044,158.560911 C270.071118,158.183321 269.483755,159.219596 269.445996,158.560911 C269.223638,157.625326 270.264108,158.162343 270.1802,157.390381 C270.960553,157.176413 270.671067,158.195907 271.434638,157.977744 C272.06815,158.032284 272.227577,157.528831 272.441545,157.100895 L274.195242,157.100895 C274.707086,157.2813 275.101458,157.591763 275.483244,157.927398 C275.122435,159.702072 274.677718,161.451573 274.195242,163.188488 L274.195242,163.188488 Z" id="Fill-1" fill="#FFFFFF" sketch:type="MSShapeGroup"></path>
            <g id="Oval-8-+-Oval-4-+-Oval-5" transform="translate(112.000000, 64.000000)" sketch:type="MSShapeGroup">
                <path d="M24,48 C37.2548347,48 48,37.2548347 48,24 C48,10.7451653 37.2548347,0 24,0 C10.7451653,0 0,10.7451653 0,24 C0,37.2548347 10.7451653,48 24,48 Z" id="Oval-8" stroke="#75BAEF" stroke-width="2" fill="#FFFFFF"></path>
                <path d="M23.8361005,21.1692901 C26.9132872,21.1692901 29.4078397,18.6747376 29.4078397,15.5975508 C29.4078397,12.5203641 26.9132872,10.0258116 23.8361005,10.0258116 C20.7589137,10.0258116 18.2643613,12.5203641 18.2643613,15.5975508 C18.2643613,18.6747376 20.7589137,21.1692901 23.8361005,21.1692901 Z" id="Oval-4" fill="#75BAEF"></path>
                <path d="M36.0493421,36.1066971 C36.0493421,27.9362357 30.5239619,21.3127688 23.7080592,21.3127688 C16.8921565,21.3127688 11.3667763,27.9362357 11.3667763,36.1066971" id="Oval-5" fill="#75BAEF"></path>
            </g>
            <g id="Oval-8-+-Oval-4-+-Oval-5" transform="translate(261.000000, 88.000000)" sketch:type="MSShapeGroup">
                <path d="M20,40 C31.0456955,40 40,31.0456955 40,20 C40,8.95430446 31.0456955,0 20,0 C8.95430446,0 0,8.95430446 0,20 C0,31.0456955 8.95430446,40 20,40 Z" id="Oval-8" stroke="#75BAEF" stroke-width="2" fill="#FFFFFF"></path>
                <path d="M19.8634171,17.6410751 C22.4277394,17.6410751 24.5065331,15.5622813 24.5065331,12.997959 C24.5065331,10.4336367 22.4277394,8.35484302 19.8634171,8.35484302 C17.2990948,8.35484302 15.2203011,10.4336367 15.2203011,12.997959 C15.2203011,15.5622813 17.2990948,17.6410751 19.8634171,17.6410751 Z" id="Oval-4" fill="#75BAEF"></path>
                <path d="M30.0411184,30.0889142 C30.0411184,23.2801964 25.4366349,17.7606407 19.756716,17.7606407 C14.0767971,17.7606407 9.4723136,23.2801964 9.4723136,30.0889142" id="Oval-5" fill="#75BAEF"></path>
            </g>
            <g id="Oval-8-+-Oval-4-+-Oval-5" transform="translate(237.000000, 170.000000)" sketch:type="MSShapeGroup">
                <path d="M22,44 C34.1502651,44 44,34.1502651 44,22 C44,9.8497349 34.1502651,0 22,0 C9.8497349,0 0,9.8497349 0,22 C0,34.1502651 9.8497349,44 22,44 Z" id="Oval-8" stroke="#75BAEF" stroke-width="2" fill="#FFFFFF"></path>
                <path d="M21.8497588,19.4051826 C24.6705133,19.4051826 26.9571864,17.1185095 26.9571864,14.2977549 C26.9571864,11.4770004 24.6705133,9.19032733 21.8497588,9.19032733 C19.0290043,9.19032733 16.7423312,11.4770004 16.7423312,14.2977549 C16.7423312,17.1185095 19.0290043,19.4051826 21.8497588,19.4051826 Z" id="Oval-4" fill="#75BAEF"></path>
                <path d="M33.0452303,33.0978057 C33.0452303,25.6082161 27.9802984,19.5367048 21.7323876,19.5367048 C15.4844768,19.5367048 10.419545,25.6082161 10.419545,33.0978057" id="Oval-5" fill="#75BAEF"></path>
            </g>
            <g id="Oval-8-+-Oval-4-+-Oval-5" transform="translate(112.000000, 166.000000)" sketch:type="MSShapeGroup">
                <path d="M18.5,37 C28.7172684,37 37,28.7172684 37,18.5 C37,8.28273162 28.7172684,0 18.5,0 C8.28273162,0 0,8.28273162 0,18.5 C0,28.7172684 8.28273162,37 18.5,37 Z" id="Oval-8" stroke="#75BAEF" stroke-width="2" fill="#FFFFFF"></path>
                <path d="M18.3736608,16.3179944 C20.7456589,16.3179944 22.6685431,14.3951102 22.6685431,12.0231121 C22.6685431,9.65111399 20.7456589,7.7282298 18.3736608,7.7282298 C16.0016627,7.7282298 14.0787785,9.65111399 14.0787785,12.0231121 C14.0787785,14.3951102 16.0016627,16.3179944 18.3736608,16.3179944 Z" id="Oval-4" fill="#75BAEF"></path>
                <path d="M27.7880345,27.8322457 C27.7880345,21.5341817 23.5288873,16.4285926 18.2749623,16.4285926 C13.0210373,16.4285926 8.76189008,21.5341817 8.76189008,27.8322457" id="Oval-5" fill="#75BAEF"></path>
            </g>
            <g id="Oval-8-+-Oval-4-+-Oval-5" transform="translate(160.000000, 203.000000)" sketch:type="MSShapeGroup">
                <path d="M15,30 C23.2842717,30 30,23.2842717 30,15 C30,6.71572834 23.2842717,0 15,0 C6.71572834,0 0,6.71572834 0,15 C0,23.2842717 6.71572834,30 15,30 Z" id="Oval-8" stroke="#75BAEF" stroke-width="2" fill="#FFFFFF"></path>
                <path d="M14.8975628,13.2308063 C16.8208045,13.2308063 18.3798998,11.671711 18.3798998,9.74846928 C18.3798998,7.82522756 16.8208045,6.26613227 14.8975628,6.26613227 C12.9743211,6.26613227 11.4152258,7.82522756 11.4152258,9.74846928 C11.4152258,11.671711 12.9743211,13.2308063 14.8975628,13.2308063 Z" id="Oval-4" fill="#75BAEF"></path>
                <path d="M22.5308388,22.5666857 C22.5308388,17.4601473 19.0774762,13.3204805 14.817537,13.3204805 C10.5575978,13.3204805 7.1042352,17.4601473 7.1042352,22.5666857" id="Oval-5" fill="#75BAEF"></path>
            </g>
            <g id="Oval-8-+-Oval-4-+-Oval-5" transform="translate(193.000000, 53.000000)" sketch:type="MSShapeGroup">
                <path d="M10.5,21 C16.2989902,21 21,16.2989902 21,10.5 C21,4.70100984 16.2989902,0 10.5,0 C4.70100984,0 0,4.70100984 0,10.5 C0,16.2989902 4.70100984,21 10.5,21 Z" id="Oval-8" stroke="#75BAEF" stroke-width="2" fill="#FFFFFF"></path>
                <path d="M10.428294,9.2615644 C11.7745632,9.2615644 12.8659299,8.1701977 12.8659299,6.82392849 C12.8659299,5.47765929 11.7745632,4.38629259 10.428294,4.38629259 C9.08202476,4.38629259 7.99065805,5.47765929 7.99065805,6.82392849 C7.99065805,8.1701977 9.08202476,9.2615644 10.428294,9.2615644 Z" id="Oval-4" fill="#75BAEF"></path>
                <path d="M15.7715872,15.79668 C15.7715872,12.2221031 13.3542333,9.32433636 10.3722759,9.32433636 C7.39031848,9.32433636 4.97296464,12.2221031 4.97296464,15.79668" id="Oval-5" fill="#75BAEF"></path>
            </g>
            <g id="Oval-8-+-Oval-4-+-Oval-5" transform="translate(199.000000, 131.000000)" sketch:type="MSShapeGroup">
                <path d="M11.5,23 C17.8512749,23 23,17.8512749 23,11.5 C23,5.14872506 17.8512749,0 11.5,0 C5.14872506,0 0,5.14872506 0,11.5 C0,17.8512749 5.14872506,23 11.5,23 Z" id="Oval-8" stroke="#75BAEF" stroke-width="2" fill="#FFFFFF"></path>
                <path d="M11.4214648,10.1436182 C12.8959501,10.1436182 14.0912565,8.94831177 14.0912565,7.47382645 C14.0912565,5.99934113 12.8959501,4.80403474 11.4214648,4.80403474 C9.9469795,4.80403474 8.75167311,5.99934113 8.75167311,7.47382645 C8.75167311,8.94831177 9.9469795,10.1436182 11.4214648,10.1436182 Z" id="Oval-4" fill="#75BAEF"></path>
                <path d="M17.2736431,17.3011257 C17.2736431,13.3861129 14.6260651,10.2123684 11.3601117,10.2123684 C8.09415834,10.2123684 5.44658032,13.3861129 5.44658032,17.3011257" id="Oval-5" fill="#75BAEF"></path>
            </g>
            <circle id="Oval-22" fill="#FFFFFF" sketch:type="MSShapeGroup" cx="254" cy="60" r="5"></circle>
            <path d="M218,43 C221.865993,43 225,39.8659934 225,36 C225,32.1340066 221.865993,29 218,29 C214.134007,29 211,32.1340066 211,36 C211,39.8659934 214.134007,43 218,43 Z" id="Oval-22" fill="#FFFFFF" sketch:type="MSShapeGroup"></path>
            <path d="M166.5,56 C167.880712,56 169,54.8807119 169,53.5 C169,52.1192881 167.880712,51 166.5,51 C165.119288,51 164,52.1192881 164,53.5 C164,54.8807119 165.119288,56 166.5,56 Z" id="Path" fill="#FFFFFF" sketch:type="MSShapeGroup"></path>
            <path d="M145,35 C147.209139,35 149,33.2091391 149,31 C149,28.7908609 147.209139,27 145,27 C142.790861,27 141,28.7908609 141,31 C141,33.2091391 142.790861,35 145,35 Z" id="Path" fill="#FFFFFF" sketch:type="MSShapeGroup"></path>
            <path d="M182.5,23 C183.880712,23 185,21.8807119 185,20.5 C185,19.1192881 183.880712,18 182.5,18 C181.119288,18 180,19.1192881 180,20.5 C180,21.8807119 181.119288,23 182.5,23 Z" id="Path" fill="#FFFFFF" sketch:type="MSShapeGroup"></path>
        </g>
    </g>
</svg>