<?xml version="1.0" encoding="UTF-8" standalone="no"?>
<svg width="400px" height="250px" viewBox="0 0 400 250" version="1.1" xmlns="http://www.w3.org/2000/svg" xmlns:xlink="http://www.w3.org/1999/xlink" xmlns:sketch="http://www.bohemiancoding.com/sketch/ns">
    <title>Slice 1</title>
    <description>Created with Sketch (http://www.bohemiancoding.com/sketch)</description>
    <defs>
        <linearGradient x1="50%" y1="0%" x2="50%" y2="100%" id="linearGradient-1">
            <stop stop-color="#FBB62F" offset="0%"></stop>
            <stop stop-color="#F9A220" offset="100%"></stop>
        </linearGradient>
        <linearGradient x1="50%" y1="0%" x2="50%" y2="100%" id="linearGradient-2">
            <stop stop-color="#ED5A4F" offset="0%"></stop>
            <stop stop-color="#D83E32" offset="100%"></stop>
        </linearGradient>
        <linearGradient x1="50%" y1="0%" x2="50%" y2="100%" id="linearGradient-3">
            <stop stop-color="#69ACDE" offset="0%"></stop>
            <stop stop-color="#2779B7" offset="100%"></stop>
        </linearGradient>
        <linearGradient x1="50%" y1="0%" x2="50%" y2="100%" id="linearGradient-4">
            <stop stop-color="#3FB509" offset="0%"></stop>
            <stop stop-color="#359900" offset="100%"></stop>
        </linearGradient>
    </defs>
    <g id="Page-1" stroke="none" stroke-width="1" fill="none" fill-rule="evenodd" sketch:type="MSPage">
        <g id="Group" sketch:type="MSLayerGroup" transform="translate(-2.000000, -2.000000)">
            <path d="M233.443359,-0.109375 L210.5625,124.535156 L0.375,103.525391 L0.390625,-0.142578125 L233.443359,-0.109375 Z" id="Path-256" fill="url(#linearGradient-1)" sketch:type="MSShapeGroup"></path>
            <path d="M212.933594,119.292969 L185.730469,253.933594 L0.228515625,253.933594 L0.712890625,95.2675781 L212.933594,119.292969 Z" id="Path-257" fill="url(#linearGradient-2)" sketch:type="MSShapeGroup"></path>
            <path d="M232.876953,0.404296875 L208.640625,120.919922 L403.808594,144.429688 L403.068359,0.451171875 L232.876953,0.404296875 Z" id="Path-258" fill="url(#linearGradient-3)" sketch:type="MSShapeGroup"></path>
            <path d="M208.482422,120.029297 L184.201172,254.169922 L403.878906,253.669922 L402.861328,141.972656 L208.482422,120.029297 Z" id="Path-259" fill="url(#linearGradient-4)" sketch:type="MSShapeGroup"></path>
            <g id="Rectangle-26-+-Rectangle-26-+-Rectangle-38" transform="translate(156.000000, 97.000000)" sketch:type="MSShapeGroup">
                <g id="Rectangle-26-+-Rectangle-26">
                    <rect id="Rectangle-26" stroke="#575757" stroke-width="4" fill="#F8F8F8" x="11.7188161" y="0.4765625" width="82.51311" height="61.8848325" rx="1"></rect>
                    <path d="M69.9713505,66.8756978 L107.840912,66.8756978 C107.840912,72.4523958 103.305356,76.9892052 97.7104653,76.9892052 L9.77261167,76.9892052 C4.15357784,76.9892052 -0.35783487,72.4612337 -0.35783487,66.8756978 L40.2166951,66.8756978 L40.2166951,67.590573 C40.2166951,68.6896713 41.1071929,69.5806665 42.2151844,69.5806665 L67.9728613,69.5806665 C69.0765964,69.5806665 69.9713505,68.6849633 69.9713505,67.590573 L69.9713505,66.8756978 Z" id="Rectangle-26" fill="#575757"></path>
                </g>
                <rect id="Rectangle-38" fill="#579ED3" x="18" y="6" width="70" height="50"></rect>
            </g>
            <path d="M281.211424,115.128761 C287.307919,115.128761 293.072214,113.706442 298.190582,111.175531 C298.190583,111.175533 322.54032,118.793195 322.54032,118.793195 C322.54032,118.793195 315.11804,94.7208317 315.11804,94.720831 C317.958803,89.3654876 319.567949,83.2567799 319.567949,76.772236 C319.567949,55.5885111 302.395149,38.415711 281.211424,38.415711 C260.027699,38.415711 242.854899,55.5885111 242.854899,76.772236 C242.854899,97.9559608 260.027699,115.128761 281.211424,115.128761 Z" id="Oval-3" fill="#FFFFFF" sketch:type="MSShapeGroup" transform="translate(282.854899, 78.415711) rotate(95.000000) translate(-282.854899, -78.415711) "></path>
            <path d="M118.172724,118.631178 C126.747056,118.631178 134.85417,116.630778 142.052828,113.071213 C142.05283,113.071215 176.299183,123.784971 176.299183,123.784971 C176.299183,123.784971 165.860218,89.9287265 165.860219,89.9287256 C169.855571,82.3967764 172.118732,73.8052684 172.118732,64.6851706 C172.118732,34.8916117 147.966283,10.7391628 118.172724,10.7391628 C88.3791652,10.7391628 64.2267163,34.8916117 64.2267163,64.6851706 C64.2267163,94.4787295 88.3791652,118.631178 118.172724,118.631178 Z" id="Oval-3" fill="#FFFFFF" sketch:type="MSShapeGroup" transform="translate(120.213465, 67.309107) rotate(-6.000000) translate(-120.213465, -67.309107) "></path>
            <path d="M121.583855,218.953834 C128.430789,218.953834 134.904631,217.356437 140.653036,214.513987 C140.653038,214.513989 168.000068,223.069336 168.000068,223.069336 L159.664154,196.033821 C162.854597,190.01927 164.661818,183.15862 164.661818,175.875871 C164.661818,152.084568 145.375158,132.797908 121.583855,132.797908 C97.7925517,132.797908 78.505892,152.084568 78.505892,175.875871 C78.505892,199.667174 97.7925517,218.953834 121.583855,218.953834 Z" id="Oval-3" fill="#FFFFFF" sketch:type="MSShapeGroup" transform="translate(123.213465, 177.971185) rotate(-78.000000) translate(-123.213465, -177.971185) "></path>
            <path d="M295.319873,233.031128 C302.866014,233.031128 310.000962,231.269178 316.336392,228.133919 C316.336394,228.133921 346.476093,237.570582 346.476093,237.570582 L337.288918,207.75005 C340.805168,201.115921 342.796941,193.548533 342.796941,185.515564 C342.796941,159.273441 321.540735,138 295.319873,138 C269.099012,138 247.842806,159.273441 247.842806,185.515564 C247.842806,211.757687 269.099012,233.031128 295.319873,233.031128 Z" id="Oval-3" fill="#FFFFFF" sketch:type="MSShapeGroup" transform="translate(297.115899, 187.826723) rotate(-188.000000) translate(-297.115899, -187.826723) "></path>
            <path d="M126.707809,53.7466543 L147.498496,56.7649856 L132.452649,71.4290877 L136.005423,92.1366389 L117.408498,82.3605709 L98.8115733,92.1366389 L102.364348,71.4290877 L87.3201973,56.7649856 L108.114277,53.7466543 L117.408498,34.9105025 L126.707809,53.7466543 Z" id="Imported-Layers" fill="#F99D1C" sketch:type="MSShapeGroup"></path>
            <path d="M284.068747,53.9909706 C271.037629,53.9909706 260.436698,64.5931113 260.436698,77.6206019 C260.436698,90.6517197 271.037629,101.252651 284.068747,101.252651 C297.097447,101.252651 307.699587,90.6517197 307.699587,77.6206019 C307.699587,64.5931113 297.097447,53.9909706 284.068747,53.9909706 L284.068747,53.9909706 Z M304.490774,84.6584694 C304.419441,84.6705599 304.352943,84.6899047 304.367451,84.8059733 C304.354152,84.8821433 304.365033,84.9329233 304.388005,84.9691947 C303.827007,86.5131489 303.093115,87.9700515 302.214137,89.3278123 C302.066633,89.3943099 301.932429,89.4813613 301.84296,89.6155657 C301.310979,89.5007061 301.133248,89.80055 300.832196,89.95289 C300.619403,89.9758619 300.609731,89.7630695 300.399356,89.7836233 C300.34374,89.3834285 300.511798,89.2407608 300.473108,88.8562836 C300.450136,88.6604178 300.396938,88.4911511 300.257898,88.4355349 C300.435628,88.0135772 300.257898,87.5468848 300.184146,87.1696618 C300.28087,86.9737961 300.601267,87.0390847 300.760862,86.9169708 C301.025643,86.8057384 300.943428,86.2858479 301.121158,86.0742645 C301.269871,85.9025797 301.261408,86.1105359 301.408911,86.1564797 C301.572133,86.1214174 301.413748,85.709132 301.553997,85.6523068 C301.775253,85.6631882 301.961446,85.4528139 302.133131,85.6523068 C302.394285,85.5954815 302.326579,85.1505519 302.422094,84.8906066 C302.632468,84.774538 302.873068,84.6923228 303.141477,84.6367066 C303.288981,84.6173618 303.160822,84.267947 303.286563,84.217167 C303.634768,84.3731342 304.277982,84.1905679 304.579035,84.4045694 C304.550018,84.4904118 304.521001,84.5750451 304.490774,84.6584694 L304.490774,84.6584694 Z M267.434667,63.8495468 C267.515673,63.8882364 267.599097,63.929344 267.681312,63.9692426 C267.969066,63.9450616 267.965439,63.5702568 268.329362,63.6319182 C268.318481,63.8410835 268.366843,63.9825421 268.474448,64.0526669 C268.630415,63.9063721 268.721094,63.2377686 268.474448,63.1217 C268.413995,62.8859357 268.574799,62.9052805 268.545782,62.7033695 C268.895197,62.5800466 268.846835,62.9149528 269.122498,62.8714271 C269.218012,63.2353505 269.453777,63.4420977 269.700422,63.6319182 C269.77901,63.9571521 269.445313,63.9329711 269.625461,64.1385093 C269.759666,63.9523159 269.908379,63.7927216 269.988176,63.5472849 C270.001475,63.3635096 269.733067,63.5098044 269.625461,63.4626515 C269.18295,62.9874957 269.612162,62.1266536 269.988176,61.8606631 C270.220313,61.8715445 270.307364,62.0492746 270.273511,62.3648361 C270.354517,62.0940093 270.968714,61.9295788 270.926397,62.4494694 C271.170625,62.4264975 271.338682,62.3152651 271.646989,62.3648361 C271.669961,62.5619109 271.897262,62.5220123 271.864618,62.7867938 L272.512668,62.7867938 C272.48486,63.1301634 272.709742,63.1761072 272.80163,63.3780182 C272.782285,63.549703 272.604555,63.5436577 272.585211,63.7153425 C272.799212,63.7999759 272.986614,63.9220897 273.234469,63.9692426 C273.310639,64.0466216 273.253814,64.2799679 273.452098,64.2219336 C273.453307,64.4202174 273.327566,64.4697884 273.377137,64.7285246 C273.138954,64.6426822 273.142582,64.8445932 273.161926,65.065849 C272.935834,64.9945152 272.856037,64.7478694 272.585211,64.7285246 C272.585211,64.9787975 272.773822,65.0138599 272.80163,65.2339066 C272.849992,65.7380796 272.571911,65.7271982 272.730296,66.1648735 C272.126981,66.1044211 271.95046,65.5555134 271.504322,65.31854 C271.203269,65.3306305 270.899798,65.3475571 270.781311,65.1492733 C270.862317,64.5423313 271.646989,64.7551237 271.719532,64.1385093 C271.76064,63.777004 271.330219,63.9752878 271.429361,63.5472849 C271.198433,63.6440087 270.98564,63.2897577 270.855063,63.5472849 C270.736576,63.373182 270.489931,63.3502101 270.205804,63.3780182 C270.294065,63.5013411 270.480258,63.5061772 270.564892,63.6319182 C270.489931,63.853174 270.480258,64.1493907 270.493558,64.4746246 C270.171951,64.6293827 269.898706,64.7007165 269.41146,64.8119489 C269.394533,64.9703342 269.494884,65.0005604 269.482794,65.1492733 C269.101944,65.1819176 268.989502,65.5277053 268.834744,65.825131 C268.597771,65.9690077 268.492584,66.2712697 268.25561,66.4151464 C268.250774,66.5493507 268.267701,66.707736 268.111733,66.6678374 C268.07788,66.9918622 268.44664,66.8407312 268.329362,67.2578527 C268.66185,67.3775485 268.907287,67.5951771 269.122498,67.8502862 C269.303855,67.8394048 269.348589,67.6882738 269.41146,67.9361286 C269.557755,67.8865576 269.552919,67.6810195 269.700422,67.8502862 C269.791101,68.1912377 269.826163,68.604732 269.988176,68.8622592 C270.092154,68.5043811 270.095781,68.0316434 270.349681,67.8502862 C270.30011,67.7366357 270.128425,67.9252471 270.058301,67.6810195 C270.134471,67.4440461 270.369026,67.7027823 270.493558,67.6810195 C270.369026,67.0535236 270.672497,66.583204 270.564892,65.7417067 C270.77043,65.8094134 270.753503,65.6195929 270.926397,65.6558643 C271.130726,65.6401467 271.094455,65.9738439 271.284275,65.7417067 C271.619181,65.7961139 271.547847,66.1938906 271.934743,65.9931887 L271.934743,66.8371041 C271.966178,67.0245065 272.291412,66.8721665 272.440125,66.9217374 C272.596092,66.935037 272.47156,66.6218936 272.512668,66.4997797 C272.915281,66.5348421 272.812512,67.1611289 273.091802,67.3449042 C273.095429,67.492408 273.076084,67.6060585 273.01805,67.6810195 C273.045858,68.0401067 273.3856,68.0388976 273.377137,68.4403015 C273.557285,68.4306292 273.600811,68.2831253 273.738642,68.4403015 C273.761614,68.9662374 273.761614,69.0109721 273.738642,69.5369079 C273.843829,69.7545366 273.9067,70.0120637 274.17269,70.043499 C274.027605,70.2030933 274.138837,70.4400667 274.17269,70.6335143 C273.94418,70.7495829 273.737433,70.4243491 273.666099,70.6335143 C273.560912,70.6190058 273.600811,70.4279762 273.595975,70.2949809 C273.327566,70.2369466 273.285249,70.4400667 273.01805,70.3808233 C273.154672,69.8947861 273.50046,69.6517675 273.666099,69.1971655 C273.419454,69.0424074 273.009586,69.7291465 272.656544,69.4534836 C272.596092,69.690457 272.759313,69.6699032 272.730296,69.8754413 C272.575538,69.9770014 272.338565,69.9794195 272.297457,70.2115566 C272.267231,70.5827343 272.626318,70.5029372 272.80163,70.6335143 C272.603346,70.8801601 272.297457,70.9986468 272.009704,71.1388963 C272.009704,70.9732568 272.206779,71.0337092 272.151162,70.8039901 C271.807793,70.9587482 271.406389,71.0530539 271.142816,71.308163 C271.066646,71.6237245 271.320547,71.5487636 271.284275,71.8147541 C271.037629,71.9151051 270.804283,72.0384279 270.564892,72.1532875 C270.657988,72.7167038 270.243285,72.6163528 270.422224,73.0794182 C270.336382,73.150752 270.227567,73.1894415 270.058301,73.1652605 C270.123589,73.4106973 270.123589,73.4227877 270.058301,73.6694335 C269.562591,73.7903383 269.243402,74.1216174 269.122498,74.6826156 C269.130961,74.8990352 269.254284,74.9776233 269.340126,75.1045733 C269.288137,75.3814453 269.254284,75.5156496 269.340126,75.9496978 C268.990711,75.9073811 268.8021,75.6764529 268.834744,75.1904157 C268.782755,74.8289104 268.311226,74.9558604 267.969066,74.9353066 C267.884433,74.9510242 267.890478,75.0695109 267.896523,75.1904157 C267.516882,75.2097605 267.424994,74.895408 267.030845,74.9353066 C266.790244,75.0187309 266.637904,75.2049243 266.382795,75.272631 C266.598006,75.9327711 265.992273,77.4392447 266.957093,77.3824195 C267.178349,77.3026223 267.116687,76.8927551 267.247264,76.7089798 C267.597888,76.7621779 267.616024,76.7621779 267.969066,76.7089798 C268.031936,77.2349156 267.82398,77.4356176 267.752646,77.8043772 C268.002919,77.9603443 268.482911,77.8466938 268.618325,78.1417015 C268.689658,78.6906092 268.447849,79.0823407 268.618325,79.4897899 C268.854089,79.4595637 268.937513,79.2443532 269.122498,79.1548836 C269.324408,79.1718103 269.429596,79.2999694 269.41146,79.5768413 C269.587981,79.3048056 269.879361,79.1669741 269.988176,78.8175593 C270.215477,78.8586669 270.281974,78.7123721 270.349681,78.5636592 C270.518948,78.6229026 270.540711,78.8441583 270.708768,78.9009836 C270.847809,78.8683393 270.765594,78.5757497 270.99894,78.6482926 C271.053347,79.0049617 271.406389,79.0158431 271.504322,79.3217322 C271.605882,79.3011784 271.627645,79.1839008 271.719532,79.1548836 C272.083456,79.290297 272.35791,79.5369427 272.730296,79.6602656 C272.767777,80.0374886 272.934625,80.2647895 273.161926,80.4195477 C273.818439,80.0459519 274.235561,81.1232135 274.027605,81.5161541 C274.037277,81.7325736 274.270623,81.6842117 274.461653,81.6854208 C274.50397,82.0336266 274.983961,81.8619418 275.110912,82.1061694 L275.613875,82.1061694 C275.872612,82.2282833 276.151902,82.3262161 276.264343,82.6139695 C276.415474,82.5656076 276.495271,82.3709509 276.62343,82.5305452 C276.695973,82.7542191 276.773352,82.9754748 276.770934,83.2898273 C276.772143,83.4881111 276.646402,83.5376821 276.697182,83.7940002 C276.47109,83.8955603 276.673001,84.0829627 276.480763,84.3005913 C276.403384,84.5194289 276.219608,84.6125256 276.193009,84.8906066 C276.101122,84.8954428 276.091449,84.9994209 275.974172,84.9776581 C275.987471,85.1844053 275.9379,85.3258639 275.831504,85.3971977 C276.068477,85.9932583 275.717854,86.4575327 275.687627,87.0016042 C275.37932,87.1345995 275.382947,87.1345995 275.038369,87.2542952 C274.902955,87.4030081 274.813486,87.6085462 274.676863,87.7608862 L274.676863,88.3484835 C274.518478,88.614474 274.222261,88.7172431 274.242815,89.193608 C274.017932,89.1839356 273.997378,89.4100275 273.95748,89.6155657 C273.901864,89.6337014 273.813603,89.6167747 273.811185,89.700199 L273.234469,89.700199 C273.264695,90.0000429 273.426708,90.1511739 273.377137,90.5429054 C273.10631,90.6468835 272.969688,90.9104559 272.585211,90.8814388 C272.476396,91.1740283 272.490905,91.6117037 272.009704,91.4714541 C272.495741,91.5585056 272.201942,92.3915395 272.009704,92.6526939 C271.969805,92.9525377 272.264813,92.859441 272.226123,93.161703 C272.215242,93.3732864 272.119727,93.4869369 271.934743,93.4978183 C271.926279,93.8242612 271.692933,93.8859227 271.719532,94.2558913 C271.640944,94.5702438 271.98915,94.3913047 271.934743,94.677849 C272.032676,94.8495338 272.170507,94.9631843 272.367582,95.0139643 C272.31922,95.3198534 271.841646,95.131242 271.574447,95.183231 C271.445078,95.0961796 271.331428,94.9897834 271.165788,94.9438395 C271.157325,94.9365853 271.150071,94.9317491 271.142816,94.9257038 C271.154907,94.7709457 271.06181,94.7419286 271.070274,94.5932157 C270.830882,94.4215309 270.852645,93.9500022 270.638644,93.7505093 C270.80791,93.2680992 270.561264,92.9730915 270.493558,92.3987938 C270.642271,92.1352214 270.42706,91.9296832 270.564892,91.7265632 C270.65557,91.4509003 270.330336,91.6600656 270.422224,91.3880298 C270.537083,91.1873279 270.842973,91.2078817 270.781311,90.7980145 C270.714814,90.5670863 270.52862,90.9467273 270.422224,90.7133811 C270.572146,90.1572191 270.391998,89.2141618 270.781311,88.9397079 C270.873199,88.4137721 270.586654,87.9724696 270.781311,87.5916195 C270.771639,87.4332343 270.734158,87.3087023 270.638644,87.2542952 C270.712395,87.1442718 270.708768,86.9423608 270.781311,86.8323375 C270.78252,86.2967293 270.555219,86.0283207 270.422224,85.6523068 C269.996639,85.5870182 269.897497,85.1372524 269.625461,84.8906066 C269.566218,84.6524242 269.727021,84.671769 269.700422,84.469858 C269.317154,84.2981732 268.999175,84.0503184 269.049955,83.3744606 C269.178114,83.3248897 269.349798,83.332144 269.41146,83.206403 C269.265165,83.0661534 269.033028,83.0274639 268.907287,82.8666605 C269.198668,82.5946248 268.765828,82.2778542 268.907287,81.6854208 C268.962903,81.3589779 269.226476,81.2767626 269.196249,80.8439235 C269.143051,80.6117863 269.340126,80.6722387 269.340126,80.504181 C269.268792,80.2490719 269.149097,80.0507881 269.122498,79.7436899 C268.974994,79.7678709 268.97983,79.9709909 268.907287,80.0822233 C268.542155,79.973409 268.456312,79.5417789 268.041609,79.4897899 L268.041609,79.239517 C267.891687,79.1319117 267.746601,79.0194703 267.681312,78.8175593 C267.447966,78.836904 267.375423,78.6664283 267.102179,78.7329259 C266.990946,78.5551959 266.895431,78.3581211 266.813216,78.1417015 C266.096251,78.3266858 265.746836,77.8962648 265.154402,77.7197438 C265.003271,77.3606566 264.81466,77.0511404 264.869067,76.4550798 C264.704637,76.1939254 264.511189,75.9690425 264.288724,75.7804311 C264.283888,75.6462267 264.298397,75.4866324 264.147266,75.5289491 C264.148475,76.0041049 264.294769,75.9218897 264.288724,76.2858131 C264.069887,76.3474745 264.07835,76.1395183 263.857094,76.2023888 C263.721681,75.8819911 263.649138,75.4866324 263.350503,75.3584734 C263.363803,75.2581224 263.339622,75.1190819 263.423046,75.1045733 C263.177609,74.8301194 263.192118,74.2497765 262.991416,73.9245426 C262.924918,73.8725535 262.87172,73.807265 262.818522,73.7456035 C263.493171,70.0314085 265.115713,66.6436564 267.434667,63.8495468 L267.434667,63.8495468 Z M270.115126,61.1436977 C271.316919,60.1232613 272.631154,59.2346112 274.034859,58.4946739 C274.065085,58.5938158 274.242815,58.5200639 274.242815,58.6542682 C274.125538,59.1596502 273.680608,58.9105863 273.377137,59.0762259 C273.219961,59.0895254 273.470234,59.2878093 273.377137,59.4981836 C273.108728,59.4909293 272.964852,59.6323879 272.874173,59.836717 C272.417153,59.7496656 272.3833,60.1595328 272.009704,60.1716233 C272.083456,60.7144857 271.646989,60.6504062 271.646989,61.1013811 L271.142816,61.1013811 C271.092036,61.3286821 271.482559,61.0409287 271.429361,61.2694387 C271.453542,61.4906945 271.332637,61.5451016 271.142816,61.5197116 C270.971132,62.1496256 270.246912,61.6865602 269.700422,61.7748207 C269.701631,61.6720516 269.655688,61.6261078 269.595235,61.5946726 C269.682287,61.5136664 269.776592,61.4362873 269.86848,61.3564902 C270.069182,61.4338692 270.294065,61.5064121 270.564892,61.4362873 C270.454868,61.225913 270.303737,61.1557882 270.115126,61.1436977 L270.115126,61.1436977 Z M303.203138,67.6060585 C303.100369,67.7317995 302.97221,67.8261052 302.923848,68.0195529 C303.038708,68.4124934 303.267218,68.1851924 303.453411,68.0920958 C303.577943,68.3447868 303.695221,68.6011049 303.811289,68.8586321 C303.827007,69.2672903 303.928567,69.7448642 303.863279,70.2115566 C303.600915,70.4968919 303.455829,70.9152225 303.286563,71.308163 C303.077397,71.4036778 302.862187,71.4858931 302.708638,71.6466964 C302.475292,72.292328 302.927476,73.2220858 302.493427,73.5884273 C302.264917,73.4820311 302.063006,73.3574992 302.133131,72.9113605 C302.03278,72.6622966 301.781298,72.5897538 301.701501,72.3213451 C301.226345,72.3213451 301.759535,72.7154947 301.553997,72.8267271 C301.56246,72.9766491 301.482663,73.0238019 301.337578,72.9959938 C301.39803,73.2341763 301.237227,73.2136225 301.266244,73.4167425 C301.27108,73.6658064 301.429465,73.7310949 301.553997,73.8387002 C301.552788,74.0986455 301.620495,74.2703303 301.770417,74.3465003 C301.539489,74.5508294 301.672484,75.1831614 301.553997,75.5289491 C301.46211,75.5325762 301.454855,75.6341363 301.337578,75.6111644 C301.225136,76.1552359 300.916829,76.4695883 300.688319,76.8758284 C300.309887,76.8576927 299.945963,76.8528565 299.893974,77.2143618 C300.020924,77.2083166 300.118857,77.2349156 300.184146,77.2977861 C300.097094,77.4791433 300.095885,77.7596424 299.893974,77.8043772 C299.970144,78.8223955 299.802087,79.5514513 299.100839,79.6602656 C299.106884,79.5139708 299.085121,79.3991113 299.030714,79.3217322 C298.721198,79.264907 298.608757,78.9723174 298.45158,78.7329259 C298.212189,78.7619431 298.339139,79.2189632 298.308913,79.4897899 C298.420145,79.7545714 298.613593,79.922629 298.814295,80.0822233 C298.833639,80.5948596 299.190309,80.7085101 299.174591,81.2646721 C298.763515,80.9805459 298.438281,80.6069501 298.088866,80.2526991 C298.169872,79.8778942 297.96917,79.8319504 297.948616,79.5768413 C297.882119,79.3084327 298.063476,79.3144779 298.088866,79.1548836 C298.052595,78.8901021 297.920808,78.7365531 297.730988,78.6482926 C297.837384,78.3907654 297.705598,78.3206406 297.80474,78.1417015 C297.654818,77.951881 297.161526,78.1610463 297.08052,77.8878015 C297.020068,77.6508281 297.183289,77.6713819 297.155481,77.4682619 C296.883445,77.3606566 296.883445,76.941117 296.719015,76.7089798 C296.451815,76.7585508 296.249904,76.8867098 296.070965,77.0463042 C295.971823,77.2929499 295.692533,77.3328485 295.713087,77.7197438 C295.488204,77.6580824 295.621199,78.0123334 295.350373,77.8878015 L295.350373,78.2275439 L295.060201,78.2275439 C295.127908,78.9505545 294.866753,79.2927151 294.772448,79.8307414 C294.581418,79.8283233 294.361371,79.8609676 294.267066,79.7436899 L294.267066,79.239517 C294.209031,78.9723174 294.055482,78.8090959 293.90556,78.6482926 C293.789492,78.255352 293.691559,77.8321853 293.476348,77.5516862 C293.533174,77.2578875 293.368743,77.2276613 293.401387,76.9604618 C293.301036,76.8262575 293.045927,76.8722013 292.970966,76.7089798 C292.974594,76.6062107 292.99152,76.5094869 293.112425,76.5397131 C292.800491,76.3982545 292.680795,76.031913 292.17904,76.1165464 C292.031536,76.1431454 292.031536,76.0041049 291.960202,75.9496978 C291.638596,75.9400254 291.587816,76.2434964 291.238401,76.2023888 C291.301271,75.9327711 291.12475,75.9412344 291.094524,75.7804311 C290.365468,75.8723187 290.486373,74.9727871 290.082551,74.6826156 C289.976155,74.7273504 289.903612,74.8071475 289.797216,74.8518823 C289.948347,74.9280523 289.921748,75.2121786 290.155094,75.1904157 C290.120032,75.6256729 290.386022,75.7115153 290.444056,76.031913 C290.561334,75.8880363 290.747527,75.8215387 291.021981,75.8626463 C290.96032,76.384955 291.331498,76.4042997 291.456029,76.7089798 C291.447566,77.0088237 291.18883,77.0148689 291.238401,77.3824195 C290.96032,77.4803523 290.828534,77.7475519 290.517808,77.8043772 C290.386022,77.8176767 290.474283,78.0897125 290.373932,78.1417015 C289.788752,78.2468887 289.43571,78.6229026 288.929119,78.8175593 C288.571241,78.5140883 288.594213,77.9857343 288.423737,77.6387376 C288.134775,77.2748142 287.931655,76.8081217 287.631811,76.4550798 C287.705563,76.284604 287.516952,75.8420925 287.345267,75.6957977 C287.241289,75.7139334 287.409346,76.1153373 287.345267,76.3704464 C287.428691,76.6074198 287.651156,76.6860079 287.774479,76.8758284 C287.63302,77.522669 288.129939,77.4198999 288.065859,77.9748529 C288.320968,78.2916235 288.680056,78.4947435 288.713909,79.0714593 L289.361959,79.0714593 C289.646085,79.0920131 289.631576,78.7667793 289.938674,78.8175593 C290.163557,78.9989164 290.066833,79.4305465 290.012426,79.7436899 C289.658175,80.3155696 289.346241,80.9346021 289.002871,81.5161541 C288.81426,81.6382679 288.670383,81.8002803 288.497489,81.9381118 C288.415274,82.349188 288.290742,82.7082753 288.134775,83.0359272 C288.243589,83.7214574 288.243589,84.7104585 288.134775,85.3971977 C287.576195,85.7248497 287.279978,86.3620179 287.270306,87.3365104 C287.021242,87.2712219 286.968044,87.4308162 286.838676,87.5057771 C286.897919,87.855192 286.726234,87.9410344 286.763715,88.2662682 C286.446944,88.4838969 286.228107,88.8175941 286.118083,89.2770323 C285.50026,89.4342085 285.152054,89.8960648 284.456851,89.95289 C284.124363,89.5273052 284.130409,88.7039436 283.808802,88.2662682 L283.808802,87.5057771 C283.691524,86.9399428 283.46785,86.4974312 283.158334,86.1564797 C283.309465,85.7405673 283.270775,85.1058172 283.447296,84.722549 C283.361454,84.3163089 283.351782,83.8242264 283.158334,83.5425183 C283.281657,82.9525029 282.933451,82.624851 282.726704,82.1920118 C282.717032,81.6201322 282.944333,81.3227064 282.869372,80.6722387 C282.620308,80.6069501 282.565901,80.7665444 282.437742,80.8439235 C282.180214,80.806443 282.054473,80.6154134 281.71594,80.6722387 C281.615589,80.6214587 281.705059,80.3470048 281.570854,80.3361234 C281.278265,80.30227 281.286728,80.6214587 281.140433,80.756872 C280.762001,80.7387363 280.418632,80.7580811 280.12846,80.8439235 C279.673858,80.7544539 279.452602,80.3953667 279.120114,80.1680657 C279.005255,79.6808194 278.790044,79.3144779 278.542189,78.9856169 L278.542189,76.7924041 C278.727174,76.4986055 278.892813,76.1890892 278.903695,75.6957977 C279.06208,75.4709148 279.447766,75.2424048 279.554162,75.021149 C279.719802,74.6693161 279.644841,74.1530526 279.840707,73.7564849 C280.024482,73.606563 280.285636,73.5436925 280.346089,73.2498939 C280.566135,73.2450577 280.71243,73.3224368 280.780137,73.5013759 C281.054591,73.176142 281.561182,73.126571 282.148779,73.1652605 C282.446205,73.0056662 282.793202,72.9053153 283.230877,72.9113605 C283.325183,73.0238019 283.325183,73.226922 283.158334,73.2498939 C283.222414,73.3986068 283.360245,73.4626863 283.304629,73.7564849 C283.612936,74.1808607 284.273076,74.1989965 284.601937,74.5991913 C284.790549,74.5097218 284.751859,74.1566798 284.962233,74.0938093 C285.658645,74.1240355 286.311531,74.2026236 286.838676,74.4311337 C287.133683,74.3839808 286.989807,73.8193554 287.200181,73.6694335 L287.200181,73.1652605 C286.850766,73.0395196 287.133683,73.6488797 286.838676,73.5884273 C286.504979,73.6041449 286.9088,73.2849563 286.694799,73.1652605 C286.497724,73.3139734 286.017732,73.379262 285.756578,73.1652605 C285.6393,73.0661186 285.699753,72.7952919 285.540158,72.8267271 C285.598193,72.4652218 285.530486,72.4833576 285.609074,72.1532875 L285.393864,72.1532875 C285.193162,72.4603856 285.444644,72.87388 285.324948,73.1652605 C285.570385,73.1301982 285.734815,73.1894415 285.684035,73.5013759 C285.493005,73.3176006 285.275377,73.4856582 285.252405,73.2498939 C285.295931,73.2450577 285.337038,73.2365944 285.324948,73.1652605 C285.132709,73.1640515 284.911453,73.1966958 284.819566,73.0794182 L284.819566,72.5740361 C284.848583,72.4422499 284.732514,72.343108 284.675689,72.2355027 C284.633372,72.1629599 284.576547,71.964676 284.529394,71.8993874 C284.291212,71.5390912 283.881345,71.357734 283.666134,70.9708387 C283.436415,71.6309788 284.334738,71.7047307 284.529394,72.1532875 C284.412117,72.4362047 284.300884,71.887297 284.170307,72.1532875 C284.177561,72.2862828 284.351664,72.2197851 284.314184,72.4071875 C284.148544,72.5486461 283.916407,72.6175619 283.953888,72.9959938 C283.846282,72.8388176 283.581501,72.8702529 283.592382,72.5740361 C283.771321,72.5861266 283.940588,72.5897538 283.953888,72.4071875 C283.875299,72.0734903 283.654044,71.9078508 283.304629,71.8993874 C283.230877,71.788155 283.235713,71.585035 283.088209,71.5632721 C283.043474,72.0118289 283.326392,72.443459 282.869372,72.4894028 C282.769021,72.0783265 282.667461,71.5511817 282.869372,71.2235297 C282.576782,71.2489197 282.451041,71.5209555 282.148779,71.308163 C281.761884,71.3347621 281.816291,71.8764155 281.500729,71.9840208 C281.551509,72.5776633 281.303655,72.8206819 281.140433,73.1652605 C280.865979,73.0044572 280.834544,73.0044572 280.563717,73.1652605 C280.349716,73.1072263 280.248156,72.9125695 279.91325,72.9959938 C279.985792,72.6042623 279.818944,72.4857757 279.769373,72.2355027 C280.074053,72.2258304 279.838289,71.5886621 279.91325,71.308163 C280.354552,71.3843331 280.656814,71.1086701 280.995347,71.308163 C281.14406,71.2839821 281.140433,71.0820711 281.211767,70.9708387 C281.254084,70.5827343 280.887742,70.6770401 280.924014,70.2949809 C280.730566,70.2949809 280.510519,70.3264162 280.417423,70.2115566 C280.408959,69.9467752 280.603616,69.9225942 280.780137,69.8754413 C280.973585,69.7642089 281.035246,69.4994275 281.355644,69.5369079 C281.41126,69.5187722 281.439068,69.4655741 281.428187,69.3676412 C280.994138,69.337415 280.630215,69.3918222 280.273546,69.4534836 C280.248156,69.1971655 280.508101,69.2769626 280.635051,69.1971655 C280.540745,69.0000907 280.431931,68.8138973 280.488756,68.4403015 C280.607243,68.5660425 280.880488,68.400403 280.851471,68.1029772 C280.753538,68.0654967 280.665277,68.0546153 280.488756,67.9361286 C280.447649,67.492408 280.615706,67.2953332 280.563717,66.8371041 C280.73782,66.7621431 280.874443,66.6400293 281.140433,66.6678374 C281.153733,66.8782117 281.027992,66.9314098 280.924014,67.0063708 C280.995347,67.1212303 281.113834,67.1744284 281.211767,67.2578527 C280.949404,67.694319 281.515238,67.770489 281.428187,68.2686167 C281.49952,68.3858944 281.620425,68.4403015 281.71594,68.5249349 C281.443904,68.7691626 281.488639,69.0061359 281.428187,69.3676412 C281.770347,69.4317208 281.521283,68.8042249 281.929941,68.9468926 C281.874325,68.654303 282.012157,68.5890144 282.077445,68.4403015 C282.310791,68.400403 282.467968,68.2794982 282.726704,68.2686167 C282.71945,68.1392486 282.736376,67.9784453 282.581618,68.0195529 C282.582827,67.76928 282.715823,67.6773923 282.869372,67.4271194 C282.748467,67.2626889 282.365199,67.4005204 282.293865,67.1744284 C282.314419,66.783906 282.293865,66.4453726 282.148779,66.2458797 C282.295074,65.8553572 282.342227,65.3487662 282.798038,65.31854 L282.798038,64.9812156 C282.882671,64.9945152 283.004785,64.9679161 283.014457,65.065849 C283.222414,64.8325027 283.367499,64.5229865 283.447296,64.1385093 C283.732632,63.8495468 284.056657,63.6113644 284.314184,63.2945939 C284.437507,63.3284472 284.499168,63.1700619 284.529394,63.2945939 C284.727678,63.1313724 284.907826,62.9488062 285.107319,62.7867938 L285.756578,62.7867938 C285.912545,62.9149528 286.021359,63.0987281 286.118083,63.2945939 C286.386492,63.3163567 286.582358,63.4263801 286.694799,63.6319182 C287.153028,63.6730258 287.751507,63.9450616 287.560477,64.4746246 C287.993316,64.5326589 288.009034,64.1022378 287.993316,63.6319182 C288.079159,63.727433 288.246007,63.726224 288.423737,63.7153425 L288.423737,64.2219336 C288.787661,64.1119102 288.964182,63.7854673 289.291834,63.6319182 C289.748854,63.6730258 290.069252,63.549703 290.373932,63.6319182 C290.456147,63.2510681 289.971319,63.5412396 290.082551,63.1217 C290.589142,63.1362086 290.555289,63.3357015 291.021981,63.2945939 C291.265,62.9874957 291.54429,62.7190871 291.743783,62.3648361 C292.079898,62.2548127 292.066599,62.5510294 292.17904,62.7033695 C292.490974,62.81702 292.33138,62.3769265 292.609461,62.4494694 C292.59858,62.6586347 292.596162,62.8581276 292.682004,62.9572695 C292.86457,62.9463881 292.824672,62.6731433 292.828299,62.4494694 C293.212776,62.3914351 293.285319,62.6997423 293.545264,62.7867938 C293.610553,62.4047346 293.187386,62.589719 293.187386,62.2826208 C293.119679,61.9767317 293.469094,62.1629251 293.621434,62.1133541 C293.802791,62.1036817 293.735085,61.7990017 293.836645,61.6913964 C294.080872,61.7240407 294.141325,61.5451016 294.267066,61.4362873 C294.687814,61.478604 294.946551,61.3323092 295.136371,61.1013811 C295.363672,61.025211 295.282666,61.3202187 295.422915,61.352863 C295.698578,61.3951797 295.568001,60.9635496 295.927088,61.1013811 C295.913789,60.8003281 295.979077,60.59479 296.143508,60.5089476 C296.425216,60.4617947 296.39499,60.7761472 296.575138,60.847481 C296.891909,60.8486901 297.225606,60.8752891 297.444443,60.7616386 C297.539958,61.0119115 297.774514,61.1037992 297.876074,61.352863 C297.876074,61.605554 297.68988,61.6381983 297.660863,61.8606631 C298.063476,61.7615212 298.201307,61.9876131 298.379037,62.0287208 C298.470925,62.0468565 298.580948,61.9984946 298.668,62.0287208 C298.836058,62.085546 298.996861,62.187106 299.195145,62.212496 C300.795924,63.7854673 302.152476,65.6026662 303.203138,67.6060585 L303.203138,67.6060585 Z M304.777319,71.4653393 C304.761601,71.4979836 304.748302,71.535464 304.727748,71.5632721 C304.562108,71.5874531 304.646742,71.3190445 304.513746,71.308163 C304.258637,71.2585921 304.276773,71.7083579 304.07728,71.4762207 C304.072444,71.1316421 304.20423,70.9490758 304.152241,70.55009 C304.287654,70.5645986 304.404932,70.6057062 304.513746,70.650441 C304.606843,70.9200587 304.695103,71.1908854 304.777319,71.4653393 L304.777319,71.4653393 Z M302.204465,79.0714593 C302.322952,78.8683393 302.394285,78.6724735 302.636095,78.8175593 C302.638513,78.5926764 302.608287,78.3363582 302.708638,78.2275439 C302.912967,78.2420525 303.015736,78.3738387 302.998809,78.6482926 C303.126968,78.8066778 303.424394,78.7667793 303.357897,79.1548836 C303.014527,79.114985 302.812616,79.2455622 302.708638,79.4897899 C302.482546,79.4317556 302.615541,79.2685341 302.636095,79.0714593 C302.408794,79.0279336 302.354387,79.2540255 302.204465,79.0714593 L302.204465,79.0714593 Z M302.422094,82.5305452 C302.154894,82.7034391 302.145222,82.4350304 301.986836,82.2778542 C301.861095,82.3552333 301.827242,82.5390086 301.84296,82.7832362 C301.289216,82.4688838 301.545534,81.5270355 301.914293,81.1812478 C302.037616,81.4278936 302.476501,81.3106159 302.493427,81.6854208 C302.394285,81.7942351 302.225019,81.7942351 302.133131,81.6854208 C302.145222,82.0662709 302.382195,82.1787123 302.422094,82.5305452 L302.422094,82.5305452 Z M301.482663,81.6019965 C301.243272,81.715647 301.356922,82.2403737 301.121158,82.3612785 C301.122367,82.4398666 301.210628,82.4265671 301.266244,82.4447028 C301.260199,82.6042971 301.025643,82.5039462 301.049824,82.6973938 C300.581923,82.8231348 300.650838,82.3201709 300.184146,82.4447028 C300.209536,81.993728 299.893974,81.9405299 299.822641,81.6019965 C299.949591,80.7931435 300.910784,80.9624102 300.977281,80.0822233 C301.307351,80.0592514 301.44881,80.2623715 301.625331,80.4195477 C301.660393,80.6855382 301.53707,80.7653354 301.408911,80.8439235 C301.545534,81.0422073 301.318233,81.3275426 301.482663,81.6019965 L301.482663,81.6019965 Z M301.049824,83.6247335 C300.261525,83.7323388 299.935082,83.2958725 299.243507,83.2898273 C299.186681,82.9972377 299.325722,82.9319491 299.39222,82.7832362 C299.828686,82.9464577 300.24218,83.1350692 300.832196,83.1193515 C300.792297,83.4204044 301.088514,83.3285168 301.049824,83.6247335 L301.049824,83.6247335 Z M301.553997,76.6243465 C301.521353,76.4091359 301.452437,76.2350331 301.337578,76.1165464 C301.414957,75.9218897 301.661602,75.678871 301.84296,75.8626463 C301.827242,76.2132702 301.852632,76.6050017 301.553997,76.6243465 L301.553997,76.6243465 Z M302.347133,77.2977861 C302.393076,77.7197438 302.14764,77.7959138 302.056961,78.0570682 C301.884067,77.926491 301.7414,77.7572243 301.625331,77.5516862 C301.620495,77.1333556 302.152476,76.990688 302.347133,77.2977861 L302.347133,77.2977861 Z M304.07728,81.3480964 C304.061562,81.6999294 303.527163,81.7821446 303.286563,81.6019965 C303.267218,81.2066378 303.840307,81.1776207 304.07728,81.3480964 L304.07728,81.3480964 Z M303.791945,73.9245426 C303.730283,73.8785988 303.674667,73.833864 303.573107,73.8387002 C303.365151,73.9620231 303.191048,74.1216174 303.141477,74.4311337 C303.02299,74.288466 302.841633,74.2195503 302.853724,73.9245426 L303.286563,73.9245426 C303.316789,73.6887783 302.892413,73.9910402 302.923848,73.7564849 C302.928685,73.3115553 303.394168,73.4022339 303.646859,73.2498939 C303.906804,72.9730219 304.032545,72.87388 304.296118,72.7433028 C304.286445,72.64537 304.313044,72.5921719 304.367451,72.5740361 C304.257428,72.1508694 304.383169,71.9550036 304.296118,71.5632721 L304.582662,71.5632721 C304.570572,72.1968132 304.713239,72.646579 304.727748,73.2498939 C304.49682,73.5666644 304.020455,73.6017268 303.791945,73.9245426 L303.791945,73.9245426 Z M304.08937,69.513936 C304.20423,69.792017 304.313044,70.0725161 304.414604,70.3578514 C304.182467,70.2224381 304.11476,69.8959952 304.08937,69.513936 L304.08937,69.513936 Z M297.515777,80.3361234 C297.698344,80.2430267 297.882119,80.6226677 297.876074,80.2526991 C298.01995,80.2539081 297.96917,80.4812091 298.163827,80.4195477 C298.115465,80.6782839 298.342766,80.8136973 298.45158,81.009563 C298.551931,81.1885021 298.809459,81.4303117 299.030714,81.6019965 C299.02346,82.0058185 299.342649,82.3769961 299.174591,82.6973938 C298.838476,82.877542 298.735707,82.323798 298.379037,82.2778542 C298.525332,81.1207954 297.515777,81.3190793 297.515777,80.3361234 L297.515777,80.3361234 Z M295.060201,79.3217322 C295.211332,79.4861627 295.363672,79.6469661 295.422915,79.9129566 C295.253649,79.9395557 295.286293,80.2067553 295.060201,80.1680657 C294.786956,79.9250471 295.166597,79.822278 295.060201,79.3217322 L295.060201,79.3217322 Z M289.724673,86.1564797 C289.659384,86.1939602 289.591678,86.2326498 289.577169,86.3281645 L289.577169,86.7464951 C289.38493,87.1309723 289.446592,87.29903 289.291834,87.6762529 C289.016171,87.6121734 288.947255,87.780231 288.713909,87.7608862 C288.444291,87.4658786 288.651038,87.1285542 288.497489,86.7464951 C288.602677,86.617127 288.64862,86.4188431 288.713909,86.2411131 C288.75018,85.9751226 288.58575,85.9436873 288.643784,85.6523068 C288.815469,85.405661 288.981109,85.1457157 289.291834,85.0598733 C289.343823,84.7249671 289.452637,84.4626037 289.577169,84.217167 C289.878222,84.1772684 289.60135,84.8096004 289.86855,84.8059733 C289.857668,85.4346782 289.591678,85.7877201 289.724673,86.1564797 L289.724673,86.1564797 Z M273.452098,93.8351427 C273.437589,93.5582707 273.789422,93.5014455 273.738642,93.8351427 L273.452098,93.8351427 L273.452098,93.8351427 Z M276.193009,66.3329311 C276.02737,66.3933835 275.975381,66.5844131 275.904047,66.7524707 C275.664655,66.7754426 275.750498,66.4260278 275.543751,66.4151464 L275.038369,66.4151464 C274.651473,65.8456848 275.04925,64.8820737 274.534196,64.4746246 C274.450771,64.2291879 274.878774,64.1614812 274.676863,64.0526669 C274.817113,63.8809821 275.015397,63.777004 275.182245,63.6319182 C275.080685,63.2994301 274.593439,63.4203348 274.534196,63.0419029 C274.754242,63.0431119 275.009352,63.0890557 274.964617,62.7867938 C274.791723,62.4833228 274.754242,63.0346486 274.461653,62.8714271 C274.419336,62.5993914 274.508806,62.4796956 274.534196,62.2826208 C274.43989,62.084337 274.332285,61.8981436 274.38911,61.5197116 C273.965943,61.5958816 273.739851,61.4362873 273.521014,61.2694387 C273.299758,61.2065682 273.3856,61.5015759 273.161926,61.4362873 C272.923744,61.3214278 272.651708,61.2488849 272.585211,60.9309053 C272.781076,60.7652658 273.215124,60.8801253 273.521014,60.847481 C273.507714,60.3856247 273.194571,60.7108586 273.01805,60.7616386 C273.019259,60.5367557 272.654126,60.5367557 272.656544,60.7616386 C272.523549,60.7289943 272.525967,60.5222471 272.297457,60.59479 C272.391763,60.2514204 272.626318,60.2344937 272.80163,60.34089 C272.997496,60.1184252 273.3856,60.1220523 273.595975,59.9201413 C273.62741,59.6517327 273.239305,59.8887061 273.305803,59.582817 C274.051786,59.4945565 274.392737,58.9383944 275.110912,58.8211168 C275.594531,58.9625754 275.888329,58.8102354 276.409429,58.9069592 C276.533961,58.8622244 276.330841,58.5019282 276.335677,58.3169439 C276.47109,58.0775524 276.873703,58.1561405 277.202564,58.1488862 C277.503617,57.9373028 278.21091,58.2020843 278.501082,57.9759924 C278.628032,58.0255633 278.799717,58.0207271 278.862587,58.1488862 C278.989537,57.9252123 279.27729,58.0497443 279.510637,58.1488862 C279.907204,58.1053605 280.227602,58.1525133 280.376315,58.3991591 C280.289263,58.776382 279.700457,58.5660077 279.653304,58.9915926 C279.79839,59.1270059 280.138133,58.7715458 280.447649,58.8211168 C280.67495,58.7824273 280.638678,59.0496269 280.807945,59.0762259 C280.857516,59.2442836 281.240784,59.0230278 281.16945,59.3264988 C281.212976,59.6614051 280.772883,59.4268498 280.595153,59.4981836 C280.338834,59.4522398 280.415004,59.7956094 280.159895,59.7496656 C280.105488,60.0096108 280.284427,59.9999385 280.231229,60.2574657 C279.960402,60.1667871 280.024482,60.4654219 279.79839,60.4243143 C279.98942,60.5959991 280.35697,60.5609367 280.376315,60.9309053 C280.115161,60.9067244 279.903577,60.9454139 279.725847,61.0155387 C279.83708,61.4773949 280.034154,62.3273556 279.440512,62.3648361 C279.502173,62.515967 279.640005,62.5800466 279.58318,62.8714271 C279.475574,62.8279014 279.399404,62.7456861 279.295426,62.7033695 C279.091097,62.8363647 279.68474,63.0044224 279.440512,63.2087515 C279.06208,63.2280962 278.912158,62.9826595 278.643749,62.8714271 C278.447884,62.8121838 278.499873,63.0406938 278.355996,63.0419029 C278.555489,63.0648748 278.85896,63.4034082 279.005255,63.2087515 C279.207166,63.5073863 278.602642,63.5787201 278.573625,63.8846092 C278.207283,63.9619883 278.054943,64.2920583 277.705528,64.3899912 C277.573742,64.4879241 277.46251,64.612456 277.346441,64.7285246 C277.04297,64.5266136 277.04297,64.8965823 276.770934,64.7285246 C276.583532,64.7345699 276.665747,65.0561766 276.480763,65.065849 C276.550888,65.6836724 276.10354,65.6945539 276.193009,66.3329311 L276.193009,66.3329311 Z M284.170307,59.836717 C284.265822,59.8222084 284.437507,60.1172161 284.456851,59.9201413 C284.655135,60.2514204 285.103692,60.291319 285.034776,60.9309053 C284.540276,61.0578553 284.431461,60.7338305 284.239223,60.5089476 C284.15338,60.8003281 284.088092,61.1219349 284.025221,61.4362873 C283.819683,61.4568411 283.631072,61.4483778 283.666134,61.1848054 C283.402562,61.2380035 283.279239,61.1267711 283.158334,61.0155387 C283.165588,60.6310614 283.504122,60.6310614 283.521048,60.2574657 C283.178888,60.2224033 283.168006,60.5754452 282.869372,60.59479 C282.735167,60.4327776 282.860908,60.3795795 282.869372,60.1716233 C282.819801,59.9503675 282.54172,59.9938932 282.511493,59.7496656 C282.534465,58.9504849 283.222414,59.3470526 283.375963,59.7496656 C283.564574,59.6783317 283.236922,59.380906 283.447296,59.2442836 C283.750767,59.1717407 283.979278,59.4413584 283.808802,59.6650322 C283.870463,59.7895641 283.987741,59.8463894 284.170307,59.836717 L284.170307,59.836717 Z M284.096555,59.0762259 C284.681734,59.0919435 285.312857,59.1197516 285.975416,59.2442836 C286.061258,59.6299698 285.720306,59.5102741 285.684035,59.7496656 C284.996087,59.8524346 284.624909,59.584026 284.170307,59.4111322 C284.113482,59.3373802 284.094137,59.2225207 284.096555,59.0762259 L284.096555,59.0762259 Z M280.346089,68.6942016 C280.203421,68.8102702 279.932594,68.7727897 279.769373,68.8622592 C279.658141,68.7389364 279.705293,68.4306292 279.69683,68.1864015 C279.820153,68.0413157 279.979747,68.3109334 279.985792,67.9361286 L280.346089,67.9361286 C280.327953,68.3218148 280.271128,68.3399506 280.346089,68.6942016 L280.346089,68.6942016 Z M279.79839,65.4878067 C279.574716,65.4394448 279.655722,65.0368318 279.295426,65.1492733 C279.232556,64.8228304 279.46832,64.8506385 279.510637,64.6426822 C279.336534,64.6100379 279.354669,64.7974404 279.147922,64.7285246 C279.152759,64.4202174 279.525145,64.5471674 279.440512,64.1385093 C279.690785,64.1215826 279.673858,64.4238446 279.872142,64.4746246 C280.16715,64.3380022 280.275964,64.5048508 280.595153,64.3899912 C280.57339,64.7539146 280.811572,64.8083218 280.736611,65.2339066 C280.645933,65.3523933 280.384778,65.2725962 280.376315,65.4878067 C280.300145,65.3983371 279.861261,65.3137038 279.79839,65.4878067 L279.79839,65.4878067 Z M289.509462,61.5197116 C289.936256,61.3178006 290.336451,61.0868725 290.878105,61.0155387 C290.94702,61.0143296 290.93493,60.9127696 290.950647,60.847481 L291.312153,60.847481 C291.274672,61.2839473 291.046162,61.4906945 290.589142,61.4362873 C290.207083,61.6369893 290.017263,62.0613651 289.509462,62.1133541 C289.424829,62.7142509 289.768199,62.8218562 289.86855,63.2087515 C289.744018,63.2075424 289.681147,63.272831 289.65213,63.3780182 C289.38614,63.2377686 289.163675,63.0491572 288.929119,62.8714271 C288.947255,62.6114818 289.128612,62.5437752 289.219291,62.3648361 C289.161257,61.9041888 289.540898,61.9561779 289.509462,61.5197116 L289.509462,61.5197116 Z M289.509462,59.6650322 C289.484072,59.230984 290.150258,59.0496269 290.155094,59.582817 C289.885476,59.5477546 289.754899,59.9286046 289.509462,59.6650322 L289.509462,59.6650322 Z M294.267066,59.582817 C294.666052,59.3700245 295.324983,59.509065 295.494249,59.836717 C295.360045,60.3832066 294.763984,59.9733394 294.19815,60.089408 C294.239258,59.9406951 294.10989,59.5924893 294.267066,59.582817 L294.267066,59.582817 Z M270.493558,65.4878067 C270.407715,66.0161606 269.887825,65.0779395 269.915633,65.7417067 C269.650851,65.7417067 269.418714,65.7018081 269.41146,65.4031733 C269.733067,65.4974791 269.670196,65.1444371 269.772965,64.9812156 C269.991803,64.9195542 269.985758,65.1275104 270.205804,65.065849 C270.391998,65.2738052 270.207013,65.39471 270.493558,65.4878067 L270.493558,65.4878067 Z M271.719532,77.3824195 C271.784821,77.7402976 271.545429,77.7427157 271.284275,77.7197438 L271.284275,77.3824195 L271.719532,77.3824195 L271.719532,77.3824195 Z M269.700422,77.1309375 C269.384861,77.0765304 269.354635,76.6908441 269.049955,76.6243465 C268.694495,76.5155322 268.695704,76.8274665 268.403114,76.7924041 C268.389815,76.5820298 268.515555,76.5312498 268.545782,76.3704464 L269.625461,76.3704464 C269.662942,76.6110469 269.902333,76.6146741 270.058301,76.7089798 C270.060719,76.8758284 270.257793,76.815376 270.205804,77.0463042 C270.639853,77.0692761 271.037629,76.9894789 271.142816,77.5516862 C270.939696,77.5661947 270.648316,77.4803523 270.638644,77.7197438 C270.480258,77.649619 270.391998,77.5021152 270.133262,77.5516862 C270.094572,77.3376847 270.00873,77.2252432 270.273511,77.2143618 C270.222731,77.0233323 269.870898,77.1817175 269.700422,77.1309375 L269.700422,77.1309375 Z M269.844299,77.6387376 C269.587981,77.7475519 269.578309,77.6290652 269.340126,77.7197438 L269.340126,77.3824195 C269.568636,77.3945099 269.891452,77.3002042 269.844299,77.6387376 L269.844299,77.6387376 Z M269.41146,76.2023888 L269.41146,75.8626463 C269.595235,75.8735277 269.693168,75.9883873 269.700422,76.2023888 L269.41146,76.2023888 L269.41146,76.2023888 Z M269.915633,75.8626463 L270.133262,75.8626463 C270.194923,75.9605792 270.227567,76.0887383 270.205804,76.2858131 C269.938605,76.3426383 269.887825,76.1540268 269.915633,75.8626463 L269.915633,75.8626463 Z M270.273511,76.6243465 L270.273511,76.2023888 C270.460913,76.2132702 270.555219,76.3245026 270.564892,76.5397131 C270.672497,76.5542217 270.830882,76.5094869 270.855063,76.6243465 C270.931233,76.9205632 270.412552,76.8504384 270.564892,76.5397131 C270.468168,76.5663122 270.42706,76.6581998 270.273511,76.6243465 L270.273511,76.6243465 Z M304.872834,83.4397492 L304.872834,82.9500848 C304.604425,82.5897886 304.182467,82.4072223 303.863279,82.1061694 C303.684339,81.9973551 303.515073,82.2959899 303.504191,82.1061694 C303.440112,81.8365518 303.739956,81.9913099 303.715775,81.7688451 C303.940658,81.7071836 303.857233,82.0009823 304.07728,81.9381118 C304.259846,81.9538294 304.30579,81.8087437 304.367451,81.6854208 L304.872834,81.6854208 C305.020337,81.7374098 305.133988,81.8268794 305.244011,81.9236032 C305.140033,82.4350304 305.011874,82.9392034 304.872834,83.4397492 L304.872834,83.4397492 Z" id="Fill-1" fill="#3785C0" sketch:type="MSShapeGroup"></path>
            <path d="M140.019559,169.45118 C140.019559,159.188284 131.705405,150.874131 121.442509,150.874131 C111.181052,150.874131 102.866898,159.188284 102.866898,169.45118 C102.866898,170.062409 102.987706,170.639122 103.045233,171.233093 C102.875527,171.415742 103.309859,178.641189 110.309511,187.652863 C112.35605,190.376787 111.50752,195.839018 111.488824,195.839018 L120.125131,195.839018 L122.759888,195.839018 L131.396195,195.839018 C131.380375,195.839018 130.531845,190.376787 132.576946,187.652863 C139.58235,178.636874 140.01093,171.415742 139.841224,171.233093 C139.898751,170.639122 140.019559,170.062409 140.019559,169.45118 L140.019559,169.45118 Z M119.276601,192.636177 L119.276601,183.740997 C119.276601,183.561223 119.234894,183.382888 119.152917,183.221812 L115.587654,176.207778 C115.814887,176.181891 116.042121,176.153127 116.28086,176.072589 C116.856134,175.871243 117.431408,175.50882 117.950594,175.052915 C118.502857,175.731739 119.211883,176.176138 119.99857,176.304137 C121.019683,176.466652 122.108389,175.997803 123.0993,174.993949 C123.175523,175.123386 123.254624,175.245632 123.339477,175.363563 C123.880235,176.11142 124.553306,176.512674 125.255141,176.512674 C125.335679,176.512674 125.419094,176.506921 125.502509,176.496853 C125.741247,176.463775 125.965604,176.410562 126.184209,176.34872 L122.687978,183.221812 C122.606002,183.382888 122.564294,183.561223 122.564294,183.740997 L122.564294,192.636177 L119.276601,192.636177 L119.276601,192.636177 Z M118.180703,170.88649 C118.202276,170.866355 118.228163,170.837591 118.292882,170.837591 C118.323084,170.837591 118.361915,170.843344 118.412251,170.857726 C118.699888,170.939703 118.814943,171.09215 118.825011,171.397046 C118.836516,171.860142 118.586272,172.481438 118.177827,173.084038 C117.829786,172.016904 117.95347,171.12379 118.180703,170.88649 L118.180703,170.88649 Z M123.506306,170.568651 C123.62999,170.31553 123.759427,170.311215 123.82846,170.308339 C123.838527,170.306901 123.848595,170.306901 123.858662,170.306901 C123.98666,170.306901 124.005357,170.341417 124.018301,170.365866 C124.176501,170.660694 124.008233,171.582572 123.437273,172.625257 C123.277635,171.792547 123.297769,170.998668 123.506306,170.568651 L123.506306,170.568651 Z M136.741933,170.201913 L136.514699,172.354878 L136.550654,172.389394 C136.211242,174.385596 134.906807,179.435068 130.048615,185.688301 C128.574474,187.652863 128.079738,190.337956 128.012143,192.636177 L124.849572,192.636177 L124.849572,184.014252 L129.014559,175.828097 C129.300758,175.264328 129.074963,174.576875 128.512632,174.289238 C127.967559,174.013106 127.307432,174.221643 127.006851,174.750896 C126.608474,174.991073 126.02457,175.274395 125.350061,175.363563 C124.901347,175.425405 124.511598,175.03278 124.265669,174.693368 C124.126164,174.497775 123.999604,174.279171 123.890302,174.046184 C123.896055,174.038994 123.901807,174.030364 123.908998,174.020297 C124.83519,172.717301 125.578732,170.847659 125.023593,169.822232 C124.781977,169.374956 124.324634,169.153475 123.782438,169.164981 C123.215793,169.186554 122.751259,169.508707 122.479441,170.0696 C122.035042,170.979972 122.114142,172.515954 122.581553,173.863535 C121.901291,174.650223 121.011053,175.321855 120.18122,175.175161 C119.637586,175.085993 119.139973,174.748019 118.750225,174.220205 C119.496644,173.309833 119.99138,172.241261 119.96693,171.363967 C119.943919,170.562898 119.490891,169.976118 118.725776,169.758952 C118.195085,169.605066 117.70754,169.725874 117.355184,170.096926 C116.646159,170.837591 116.719506,172.330428 117.10494,173.480977 C117.173973,173.686638 117.253073,173.882231 117.340803,174.070634 C116.905032,174.480517 116.408858,174.817052 115.906931,174.991073 C115.576148,175.107566 115.28132,175.123386 115.008065,175.070173 L114.867123,174.791165 C114.616878,174.299305 114.063177,174.087892 113.549744,174.227396 C113.492217,174.233149 113.436127,174.250407 113.380038,174.276294 C113.364218,174.283485 113.345522,174.280609 113.329702,174.289238 C113.318196,174.294991 113.311005,174.306496 113.2995,174.313687 C113.289433,174.31944 113.279365,174.320878 113.269298,174.328069 C113.256354,174.338136 113.250601,174.35108 113.237658,174.361147 C112.752989,174.67611 112.560272,175.300283 112.829213,175.828097 L116.991323,184.014252 L116.991323,192.636177 L114.878628,192.636177 C114.816786,190.340833 114.329241,187.670121 112.868044,185.731446 C107.988279,179.445135 106.680968,174.385596 106.335803,172.389394 L106.371758,172.354878 L106.144524,170.201913 C106.10857,169.955983 106.0683,169.705739 106.0683,169.45118 C106.0683,160.971635 112.962964,154.076971 121.442509,154.076971 C129.923492,154.076971 136.818156,160.971635 136.818156,169.45118 C136.818156,169.705739 136.777887,169.955983 136.741933,170.201913 Z M111.655653,198.959882 L112.489801,198.959882 L112.489801,200.389439 L111.655653,200.389439 L111.655653,201.889467 L112.489801,201.889467 L112.489801,203.319024 L111.703113,203.319024 C111.826797,205.194418 113.60871,206.695884 115.885358,206.835388 C116.305309,207.787468 117.251635,208.453348 118.3576,208.453348 L124.528857,208.453348 C125.634822,208.453348 126.582586,207.787468 127.001098,206.835388 C129.277747,206.695884 131.059659,205.194418 131.183343,203.319024 L130.494452,203.319024 L130.494452,201.889467 L131.232242,201.889467 L131.232242,200.389439 L130.494452,200.389439 L130.494452,198.959882 L131.232242,198.959882 L131.232242,197.387944 L111.655653,197.387944 L111.655653,198.959882 Z" id="Fill-1" fill="#D83E32" sketch:type="MSShapeGroup"></path>
            <g id="Oval-4-+-Oval-5" transform="translate(277.763966, 163.326723)" fill="#38A303" sketch:type="MSShapeGroup">
                <path d="M21.0184343,25.3520585 C28.0192123,25.3520585 33.6944636,19.6768073 33.6944636,12.6760293 C33.6944636,5.67525127 28.0192123,0 21.0184343,0 C14.0176563,0 8.34240506,5.67525127 8.34240506,12.6760293 C8.34240506,19.6768073 14.0176563,25.3520585 21.0184343,25.3520585 Z" id="Oval-4"></path>
                <path d="M42.9280032,49.9815496 C42.9280032,35.7714551 33.3182429,24.2518987 21.4640016,24.2518987 C9.60976025,24.2518987 -5.68434189e-14,35.7714551 -5.68434189e-14,49.9815496" id="Oval-5"></path>
            </g>
            <path d="M212.956999,109.15353 C212.956999,109.15353 207.673539,108.981986 205.075418,116.950259 C202.777828,125.040688 206.324828,133.978593 206.324828,133.978593 C206.324828,133.978593 207.613381,136.873043 209.838465,136.873042 C212.06355,136.873041 214.674807,132.099487 214.674807,132.099487 C214.674807,132.099487 218.125132,125.629665 218.843097,120.023345 C219.561062,114.417025 217.592899,109.409927 212.956999,109.15353 Z M194.430038,118.00343 C194.430038,118.00343 191.736294,119.475874 195.773233,126.897727 C199.810172,134.31958 203.068989,136.145621 203.068989,136.145621 C203.068989,136.145621 204.467877,136.956581 204.467876,134.659779 C204.467875,132.362977 201.103979,124.693921 201.103979,124.693921 C201.103979,124.693921 197.115639,116.896667 194.430038,118.00343 Z M205.242812,137.070436 C205.242812,137.070436 204.734413,137.792636 203.942472,137.95723 C203.060845,138.140465 201.700837,137.644204 200.355804,135.958577 C200.315873,139.195327 202.321602,142.635845 203.688702,143.935169 C205.055803,145.234492 206.546899,144.54884 206.546899,142.297485 C206.546898,140.04613 205.242812,137.070436 205.242812,137.070436 Z M215.58034,133.463032 C215.58034,133.463032 213.294046,137.447352 210.954948,138.280117 C208.615851,139.112882 207.239293,137.52682 207.061444,137.33925 C209.251677,145.410354 215.415626,149.930419 219.681641,146.389329 C222.816725,143.681136 219.514826,137.997844 219.165432,137.536014 C218.146149,135.690271 215.58034,133.463032 215.58034,133.463032 Z" id="MSN" fill="#FFFFFF" sketch:type="MSShapeGroup"></path>
        </g>
    </g>
</svg>