<?xml version="1.0" encoding="UTF-8" standalone="no"?>
<svg width="400px" height="250px" viewBox="0 0 400 250" version="1.1" xmlns="http://www.w3.org/2000/svg" xmlns:xlink="http://www.w3.org/1999/xlink" xmlns:sketch="http://www.bohemiancoding.com/sketch/ns">
    <title>Untitled 2</title>
    <description>Created with Sketch (http://www.bohemiancoding.com/sketch)</description>
    <defs></defs>
    <g id="Page-1" stroke="none" stroke-width="1" fill="none" fill-rule="evenodd" sketch:type="MSPage">
        <g id="Rectangle-1-+-Imported-Layers-+-Imported-Layers" sketch:type="MSLayerGroup" transform="translate(-1.000000, 0.000000)">
            <rect id="Rectangle-1" fill="#F9F9F9" sketch:type="MSShapeGroup" x="0" y="0" width="400" height="250"></rect>
            <g id="Imported-Layers-+-Imported-Layers" transform="translate(101.500000, 27.000000)" sketch:type="MSShapeGroup">
                <g id="Imported-Layers" transform="translate(96.991057, 0.000000)">
                    <path d="M80.6402373,186.098473 C80.6402373,186.098473 83.3047663,190.491649 75.2340076,191.5033 C67.1618458,192.514951 71.2589625,183.432541 71.2589625,183.432541 C71.2589625,183.432541 78.9761344,181.462558 80.6402373,186.098473" id="Fill-1" fill="#414141"></path>
                    <path d="M63.8729274,181.667414 C63.8729274,181.667414 64.9014159,185.255197 63.8729274,186.282282 C62.8486482,187.309368 55.9424809,186.282282 55.9424809,186.282282 C55.9424809,186.282282 50.4211952,190.201203 41.6923721,188.95523 C38.8440341,186.104086 43.4729342,185.3913 43.4729342,185.3913 C43.4729342,185.3913 50.1517957,184.768314 50.4211952,179.513621 C54.1913844,177.765331 63.8729274,181.667414 63.8729274,181.667414" id="Fill-2" fill="#414141"></path>
                    <path d="M90.9896664,115.034545 C90.9896664,115.034545 91.5663497,154.044148 83.3721162,186.638675 C76.0688653,185.034907 70.01299,185.034907 70.01299,185.034907 C70.01299,185.034907 65.9172764,179.157228 72.5091443,165.798102 C72.5091443,145.848511 76.4252583,133.558564 76.4252583,133.558564 L75.1792858,114.857752 L90.9896664,115.034545" id="Fill-3" fill="#2C1A08"></path>
                    <path d="M65.5580771,114.139353 C65.5580771,114.139353 58.4344259,131.065216 58.4344259,136.764698 C59.6818015,139.615842 59.6818015,146.740897 59.6818015,146.740897 C59.6818015,146.740897 63.9571147,178.089452 63.9571147,180.5828 C63.9571147,183.076148 62.8893388,185.034907 57.724446,185.034907 C52.5595533,185.034907 48.8174265,179.693221 48.8174265,179.693221 C48.8174265,179.693221 48.63923,173.992335 47.3918544,168.649246 C46.1458819,163.304754 46.1458819,148.343262 46.1458819,148.343262 C46.1458819,148.343262 42.0459589,137.122494 46.1458819,127.324492 C46.1458819,119.666251 48.7290298,113.34238 48.7290298,113.34238 L65.5580771,114.139353" id="Fill-4" fill="#2C1A08"></path>
                    <path d="M70.6065107,2.28666303 C70.6065107,2.28666303 71.1986282,0.861090905 74.0483694,0.861090905 C78.1454861,-0.384881581 80.5813062,1.93027 80.5813062,1.93027 C80.5813062,1.93027 88.182019,4.54148036 83.6695781,14.0420206 C86.9949776,15.7047203 82.600399,20.0978958 82.600399,20.0978958 C82.600399,20.0978958 80.9362961,20.9285442 80.9362961,24.8474644 C80.9362961,28.7663846 73.9333133,33.8723462 72.5091443,33.8723462 C71.0821691,33.8723462 68.7066833,27.6958024 68.7066833,27.6958024 C68.7066833,27.6958024 70.1294491,28.0535985 68.7066833,22.3527132 C67.8171038,21.4631337 68.2310249,19.2672475 68.2310249,19.2672475 C68.2310249,19.2672475 64.5506354,17.6045478 67.0453866,12.6178516 C64.6109697,2.70198719 70.6065107,2.28666303 70.6065107,2.28666303 L70.6065107,2.28666303 Z" id="Fill-5" fill="#414141"></path>
                    <path d="M70.6065107,2.28666303 C70.6065107,2.28666303 71.1986282,0.861090905 74.0483694,0.861090905 C78.1454861,-0.384881581 80.5813062,1.93027 80.5813062,1.93027 C80.5813062,1.93027 88.182019,4.54148036 83.6695781,14.0420206 C86.9949776,15.7047203 82.600399,20.0978958 82.600399,20.0978958 C82.600399,20.0978958 80.9362961,20.9285442 80.9362961,24.8474644 C80.9362961,28.7663846 73.9333133,33.8723462 72.5091443,33.8723462 C71.0821691,33.8723462 68.7066833,27.6958024 68.7066833,27.6958024 C68.7066833,27.6958024 70.1294491,28.0535985 68.7066833,22.3527132 C67.8171038,21.4631337 68.2310249,19.2672475 68.2310249,19.2672475 C68.2310249,19.2672475 64.5506354,17.6045478 67.0453866,12.6178516 C64.6109697,2.70198719 70.6065107,2.28666303 70.6065107,2.28666303 L70.6065107,2.28666303 Z" id="Stroke-6"></path>
                    <path d="M71.4385621,48.2403172 C71.4385621,48.2403172 75.8317376,29.953426 80.9362961,24.8474644 C81.7697507,25.6781127 81.7697507,27.3408125 81.7697507,27.3408125 C81.7697507,27.3408125 78.2942171,37.9975254 72.0334859,49.4273586 C71.4385621,48.8338379 71.4385621,48.2403172 71.4385621,48.2403172" id="Fill-7" fill="#4E3A33"></path>
                    <path d="M72.9819965,32.6839017 L77.7708525,29.6770109 L71.4385621,48.2403172 C71.4385621,48.2403172 68.3039872,33.7236152 69.5148816,28.7509503 C70.1911865,29.8944948 72.9819965,32.6839017 72.9819965,32.6839017" id="Fill-8" fill="#FFFCED"></path>
                    <path d="M81.7697507,27.3408125 C81.7697507,27.3408125 86.0436608,31.8518503 95.8402598,35.9503701 C99.7605831,35.9503701 97.7990183,51.0886552 97.7990183,51.0886552 C97.7990183,51.0886552 99.5809835,64.2695849 98.5132075,68.0117117 C99.7605831,74.067587 99.2245905,87.2471135 99.2245905,87.2471135 C99.2245905,87.2471135 99.965439,103.071525 98.9579972,104.078967 C97.9477493,105.090618 90.9896664,114.508374 90.9896664,114.508374 L90.9896664,118.595669 L71.4385621,118.595669 C71.9717486,118.063886 71.1719689,112.985987 71.1719689,112.985987 L66.1824665,112.80779 L64.1339081,118.595669 L47.2136579,114.857752 L49.7364715,101.82415 L45.6716266,97.6386363 C45.6716266,97.6386363 43.6525338,72.2856218 46.858668,58.0369162 C49.0152667,43.7868074 49.1724164,33.457022 49.1724164,33.457022 C49.1724164,33.457022 48.63923,30.4290844 57.9012394,30.4290844 C67.1618458,28.6485223 69.1346355,24.3269061 69.1346355,24.3269061 C69.1346355,24.3269061 70.0719211,47.4686 72.0334859,49.4273586 C72.7687219,47.262341 81.7697507,27.3408125 81.7697507,27.3408125 L81.7697507,27.3408125 Z" id="Fill-9" fill="#827365"></path>
                    <path d="M88.7755397,57.2666021 C88.7755397,57.2666021 89.4869226,71.8717008 89.4869226,73.7701251 C89.2441825,67.3424224 86.8743091,65.9336878 86.8743091,65.9336878 C86.8743091,65.9336878 88.7755397,61.0648538 88.7755397,57.2666021" id="Fill-11" fill="#FFFFFF"></path>
                    <path d="M55.0514983,63.4403397 C55.0514983,63.4403397 57.5448464,68.7455446 53.5094671,82.2028893 C53.8335883,73.0545328 55.0514983,63.4403397 55.0514983,63.4403397" id="Fill-12" fill="#FFFFFF"></path>
                    <path d="M69.0462388,25.8408749 C69.0462388,25.8408749 71.6742867,39.9282215 70.6065107,45.1534484 C68.7066833,36.3656943 69.0462388,25.8408749 69.0462388,25.8408749" id="Fill-13" fill="#4E3A33"></path>
                    <path d="M97.5029596,105.535408 C97.5029596,105.535408 98.0375491,108.679805 98.0375491,109.632525 C98.0375491,110.583841 98.5132075,114.144965 95.0685426,114.144965 C93.2276463,115.034545 92.3380668,114.144965 92.3380668,114.144965 C92.3380668,114.144965 90.5546986,115.212741 90.5546986,113.788572 C90.5546986,112.364403 91.3881531,108.445483 91.3881531,108.445483 C91.3881531,108.445483 89.0112642,113.314317 89.0112642,114.144965 C89.0112642,114.975614 86.4000538,115.806262 87.7077637,112.598725 C87.7077637,110.10678 89.2483918,105.000818 90.4368363,103.812374 C91.6266839,102.625332 97.5029596,105.535408 97.5029596,105.535408" id="Fill-14" fill="#414141"></path>
                    <path d="M53.9823192,98.58855 C53.9823192,98.58855 55.645019,107.49557 54.8129675,108.326218 C52.5595533,109.156866 52.5595533,102.625332 52.5595533,102.625332 C52.5595533,102.625332 50.3019298,103.336715 51.7260988,106.547059 C54.9308298,109.750387 51.2518435,109.750387 51.2518435,109.750387 C51.2518435,109.750387 48.8763576,110.583841 47.3315201,107.731294 C45.7894889,104.882956 45.492027,100.548712 46.9751271,99.0642084 C48.4596304,97.578302 51.786433,96.3912607 53.9823192,98.58855" id="Fill-15" fill="#414141"></path>
                    <path d="M98.0375491,102.50747 L97.9182837,105.952135 C97.9182837,105.952135 94.3557565,104.763691 89.1333358,104.286629 C89.1333358,103.812374 90.5546986,99.5384637 90.5546986,99.5384637 C90.5546986,99.5384637 95.4235325,98.8256776 98.0375491,102.50747" id="Fill-16" fill="#FFFCED"></path>
                    <path d="M45.6716266,97.6386363 C45.6716266,97.6386363 45.6716266,98.2335601 45.9073511,100.131984 C49.8276745,96.2130642 53.9823192,98.58855 53.9823192,98.58855 L53.9823192,96.9258502 C53.9823192,96.9258502 49.4712814,93.8389815 45.6716266,97.6386363" id="Fill-17" fill="#FFFCED"></path>
                    <path d="M71.816002,90.204895 C71.816002,91.0243184 71.0976034,91.6908014 70.2122334,91.6908014 C69.3282664,91.6908014 68.6098678,91.0243184 68.6098678,90.204895 C68.6098678,89.3868748 69.3282664,88.7203918 70.2122334,88.7203918 C71.0976034,88.7203918 71.816002,89.3868748 71.816002,90.204895" id="Fill-18" fill="#FFFCED"></path>
                    <path d="M71.816002,74.7705512 C71.816002,75.5899745 71.0976034,76.2564576 70.2122334,76.2564576 C69.3282664,76.2564576 68.6098678,75.5899745 68.6098678,74.7705512 C68.6098678,73.952531 69.3282664,73.2860479 70.2122334,73.2860479 C71.0976034,73.2860479 71.816002,73.952531 71.816002,74.7705512" id="Fill-18" fill="#FFFCED"></path>
                    <path d="M17.5348178,6.24346755 C17.5348178,6.24346755 24.7244157,3.54806986 27.4212166,8.04227017 C25.9240852,6.54233257 23.8250144,7.443137 23.8250144,7.443137 C23.8250144,7.443137 30.7171505,8.33973207 30.4168824,14.0307956 C29.8191523,13.1342005 28.919751,11.336801 28.919751,11.336801 C28.919751,11.336801 29.5174811,17.3267296 31.6165518,16.1284632 C32.2142819,17.6255946 29.5174811,16.4287314 29.5174811,16.4287314 C29.5174811,16.4287314 28.3192147,23.3194643 31.6165518,23.9185975 C29.2158098,26.014862 28.3192147,20.3252016 28.3192147,20.3252016 C28.3192147,20.3252016 30.1180174,30.8079274 24.1280888,30.8079274 C29.2158098,28.4113947 27.1223515,22.7203312 27.1223515,22.7203312 C27.1223515,22.7203312 27.4212166,27.5133965 24.7244157,29.011931 C26.2229502,26.9156665 25.324952,23.9185975 25.324952,23.9185975 L23.5289557,27.5133965 C23.5289557,27.5133965 22.3306893,34.4027264 22.6281512,35.6009927 C22.9270162,36.799259 34.6094114,37.3983922 35.2099477,43.6885889 L35.8090809,49.9773824 C35.8090809,49.9773824 35.5102159,63.156909 36.7070791,67.3550505 C39.704148,72.747249 44.4944071,91.0187059 44.4944071,91.0187059 L46.8923429,96.4109044 C46.8923429,96.4109044 52.8836746,105.096231 46.5934779,108.692433 C46.2932097,112.285829 54.083344,126.36616 54.083344,126.36616 C54.083344,126.36616 56.4770704,128.761289 54.382209,135.353157 C53.1825396,138.647688 53.4814046,142.542755 53.4814046,142.542755 C53.4814046,142.542755 51.9842733,168.602943 51.9842733,170.101478 C51.9842733,171.597206 54.9813422,187.176071 60.3707345,189.571201 C65.7643361,191.967733 65.4654711,192.867135 61.2715389,193.166 C57.0776067,193.464865 55.5804754,193.464865 51.0862751,188.072666 C46.5934779,184.179002 43.8980802,184.779539 43.8980802,184.779539 C43.8980802,184.779539 40.0016099,181.483605 45.0963465,177.289672 C46.5934779,172.796875 44.7960784,166.805544 44.7960784,166.805544 C44.7960784,166.805544 40.0016099,144.039886 43.8980802,136.251155 C43.8980802,132.654953 40.6007431,125.765623 40.6007431,125.765623 C40.6007431,125.765623 26.5218152,103.600502 24.7244157,102.999966 C22.9270162,106.2959 22.9270162,133.854623 19.0333522,138.947956 C15.1410913,147.035552 15.7402245,175.49087 15.7402245,175.49087 C15.7402245,175.49087 16.9370877,185.079807 18.1367572,186.275267 C19.0333522,188.371531 21.4284818,192.266599 21.4284818,192.266599 C21.4284818,192.266599 25.324952,194.961996 19.0333522,194.961996 C12.7417524,194.961996 12.4428874,191.068332 12.4428874,191.068332 C12.4428874,191.068332 10.945756,184.179002 8.25035836,183.579869 C5.55215442,180.283935 9.45002781,176.690539 9.45002781,176.690539 C9.45002781,176.690539 10.3466229,170.999476 8.85229777,167.105812 C7.64982207,160.215079 6.15409383,138.947956 10.646891,134.153488 C11.5448892,131.459493 10.945756,123.369091 10.945756,123.369091 L9.74748971,112.886365 C9.74748971,112.886365 9.14835654,112.586097 8.25035836,111.986964 C6.45295886,112.285829 6.45295886,111.088965 6.45295886,111.088965 C6.45295886,111.088965 4.05502307,110.788697 3.15702488,107.794435 C2.26042981,104.797366 3.75615805,99.104899 3.75615805,99.104899 C3.75615805,99.104899 0.761895338,77.8377762 0.761895338,74.8421104 C0.162762172,69.7501801 1.95875855,46.6814485 3.45729303,45.1857202 C3.15702488,42.7905907 8.54922338,34.7998099 12.1440224,33.3040817 C15.7402245,31.8097566 14.5391519,26.3137271 14.2402869,25.417132 C13.9414219,24.5163276 12.1440224,28.1111266 13.3422887,29.9099292 C11.2460242,28.4113947 12.4428874,22.7203312 12.4428874,22.7203312 C12.4428874,22.7203312 10.0477579,26.3137271 10.646891,29.9099292 C9.14835654,24.5163276 11.8451574,18.825264 11.8451574,18.825264 C11.8451574,18.825264 8.25035836,22.7203312 6.15409383,19.4229941 C9.45002781,20.0235304 11.5448892,14.9316 11.5448892,14.9316 C11.5448892,14.9316 11.2460242,5.04660434 17.5348178,6.24346755" id="Fill-19" fill="#404040"></path>
                    <path d="M9.14835654,58.9671862 C9.14835654,58.9671862 14.2402869,64.0577134 14.5391519,72.747249 C12.4428874,77.536105 8.54922338,85.9253724 8.25035836,93.7127005 C7.05209202,81.1323071 6.45295886,70.9484464 6.45295886,70.9484464 C6.45295886,70.9484464 9.45002781,61.3637188 9.14835654,58.9671862" id="Fill-20" fill="#FFFFFF"></path>
                    <path d="M37.3076154,87.1236388 C37.3076154,87.1236388 41.8018157,93.4152386 41.5001444,97.0114407 C37.9053454,94.913773 37.3076154,87.1236388 37.3076154,87.1236388" id="Fill-21" fill="#FFFFFF"></path>
                    <path d="M27.7242909,37.3983922 C27.7242909,37.3983922 29.2158098,43.6885889 30.1180174,45.1857202 C31.0146124,46.6814485 43.8980802,50.8781869 33.4111451,59.5649162 C30.4168824,67.9513774 34.9110827,75.7415117 34.9110827,75.7415117 C34.9110827,75.7415117 37.9053454,87.1236388 38.8033436,94.0129686 C45.0963465,99.4051671 46.5934779,108.692433 46.5934779,108.692433 C46.5934779,108.692433 34.0116814,118.578832 9.74748971,112.886365 C12.4428874,112.886365 10.945756,110.489832 10.945756,110.489832 C10.945756,110.489832 13.3422887,108.692433 12.1440224,104.499904 C10.945756,100.305972 8.25035836,95.5101 8.25035836,93.7127005 C8.25035836,91.915301 6.95247035,86.4248839 14.4423365,72.0484942 C12.9423989,65.1563581 9.14835654,58.9671862 9.14835654,58.9671862 L8.54922338,63.7588484 L0.761895338,63.156909 C0.761895338,63.156909 -2.53403864,39.4960598 11.2460242,33.8049963 C10.945756,37.9975254 14.5391519,43.0908588 14.5391519,43.0908588 C14.5391519,43.0908588 24.4269538,44.8868552 25.6252202,48.7819224 C25.324952,47.2819848 27.1223515,45.1857202 27.1223515,45.1857202 L25.8244635,36.8974776 L27.7242909,37.3983922" id="Fill-22" fill="#CC3D77"></path>
                    <path d="M46.4152814,183.902587 L46.8642805,191.990183 L45.0654778,192.439183 L44.1688828,183.452185 L46.4152814,183.902587" id="Fill-23" fill="#414141"></path>
                    <path d="M10.1684264,182.40265 L10.6160223,190.491649 L8.81862283,190.942051 L7.91922152,181.953651 L10.1684264,182.40265" id="Fill-24" fill="#414141"></path>
                </g>
                <g id="Imported-Layers" transform="translate(0.000000, 1.000000)">
                    <path d="M94.3014585,100.915695 L97.5385246,111.611138 C97.5385246,111.611138 100.821982,112.7769 98.8915977,115.500037 C98.6957242,117.834154 99.27819,125.416144 99.27819,125.416144 C99.27819,125.416144 97.3465171,127.168029 95.6068518,126.777712 C93.8671865,126.38999 90.1958483,125.610654 88.8427753,124.054576 C87.4909909,122.501091 87.8762945,112.7769 87.8762945,112.7769 L95.6068518,114.335572 C95.6068518,114.335572 94.7370191,112.97141 95.9921555,111.611138 C96.5733325,109.471531 93.6738903,101.499225 93.6738903,101.499225 L94.3014585,100.915695" id="Fill-1" fill="#4E3A33"></path>
                    <path d="M81.8879799,77.7794083 C81.8879799,77.7794083 87.1056872,83.4188945 87.2964061,89.4448067 C87.4909909,95.4733124 91.3556252,124.833912 91.3556252,124.833912 C91.3556252,124.833912 88.0695907,126.973519 84.9794296,125.221634 C81.8879799,123.47364 77.2488724,126.194183 77.2488724,126.194183 C77.2488724,126.194183 72.0337423,123.860066 65.6575467,126.583203 C59.2787739,129.306339 55.222132,127.359945 55.222132,127.359945 L50.9721941,126.38999 C50.9721941,126.38999 50.1977208,125.805164 50.1977208,124.639402 C48.0727519,123.860066 48.0727519,122.303988 48.0727519,122.303988 C48.0727519,122.303988 47.4941521,87.6968124 53.6783401,78.7532538 C63.5300005,77.7794083 81.8879799,77.7794083 81.8879799,77.7794083" id="Fill-2" fill="#04384B"></path>
                    <path d="M77.2488724,126.194183 C77.2488724,126.194183 76.4756878,131.63916 76.6702726,132.806218 C77.2488724,133.196534 80.9202105,139.608873 80.728203,149.141147 C80.5336182,158.664345 80.3416107,171.888415 80.3416107,171.888415 C80.3416107,171.888415 84.3995412,177.333391 82.6611645,179.662321 C82.081276,181.608716 82.8518834,187.053692 82.8518834,187.053692 C82.8518834,187.053692 84.3995412,191.135803 76.0903841,193.860237 C72.8043496,194.441173 74.7385997,186.274356 74.7385997,186.274356 L75.3171995,177.722411 C75.3171995,177.722411 73.5775342,180.248444 73.5775342,184.138639 L72.4203346,184.138639 L72.0337423,179.081386 C72.0337423,179.081386 69.5208924,181.804522 69.1355887,184.719575 C68.7502851,187.635925 61.9849199,188.60977 58.5081665,186.079847 C56.9605087,184.329259 62.7581045,181.997735 62.7581045,181.997735 C62.7581045,181.997735 67.0093311,176.552759 66.0428504,166.831161 C62.5648084,151.470077 60.6318469,135.526761 60.6318469,135.526761 L59.2787739,127.359945 C59.2787739,127.359945 72.2244612,119.777955 77.2488724,126.194183" id="Fill-3" fill="#414141"></path>
                    <path d="M93.4303372,94.3542329 C93.4303372,94.3542329 94.8826356,99.3129349 94.3014585,100.915695 C93.72157,102.521049 91.9819047,104.999103 90.8221278,105.293462 C89.6649282,106.312693 88.7950956,107.187987 88.7950956,107.187987 C88.7950956,107.187987 87.3466631,107.771516 88.7950956,105.293462 C87.2010467,106.020928 86.7667747,104.855166 86.7667747,104.855166 L86.9111024,103.834638 C86.9111024,103.834638 87.0554302,102.958048 88.0695907,102.812814 C89.6649282,103.395046 92.7074096,101.353991 90.8221278,98.582875 C90.2461053,98.2924071 90.1004889,100.770461 90.1004889,100.770461 C90.1004889,100.770461 88.9394234,102.812814 88.50644,100.626524 C88.6520564,99.0198736 88.9394234,96.8335839 88.9394234,96.8335839 L88.6520564,93.6280632 C88.6520564,93.6280632 92.5630818,92.7527693 93.4303372,94.3542329" id="Fill-4" fill="#414141"></path>
                    <path d="M49.3781452,92.7527693 C49.3781452,92.7527693 48.5083125,95.8130561 48.9412959,97.7088778 C48.6526403,100.041698 48.3626961,101.353991 47.7840963,101.499225 C47.2016306,101.644459 46.7699358,100.48129 46.7699358,100.48129 C46.7699358,100.48129 47.0585914,103.249812 48.9412959,103.105875 C50.6809612,103.981169 48.7969681,104.855166 48.7969681,104.855166 C48.7969681,104.855166 48.9412959,106.604457 47.2016306,105.436102 C47.2016306,106.604457 45.9001032,105.729163 45.9001032,105.729163 L44.0161101,102.668877 C44.0161101,102.668877 43.5805494,97.5636439 44.303477,96.8335839 C44.5934212,95.9608835 45.1733097,92.6062386 45.1733097,92.6062386 L49.3781452,92.7527693" id="Fill-5" fill="#414141"></path>
                    <path d="M75.0285439,33.6905304 C75.0285439,33.6905304 82.5645164,38.2122339 85.46267,39.0836376 C88.3608236,39.9628217 90.8221278,42.0025806 91.4033049,48.2722784 C91.6932491,54.9815682 90.5347609,61.5430307 91.1133607,66.3564987 C91.6932491,71.1686701 92.2744262,77.7288358 92.2744262,78.897191 C92.2744262,80.0642496 93.5759536,87.5010059 93.5759536,87.5010059 C93.5759536,87.5010059 95.0269634,93.9185311 93.8671865,94.6459975 C91.9819047,93.9185311 88.6520564,93.6280632 88.6520564,93.6280632 C88.6520564,93.6280632 88.9394234,87.0627106 87.3466631,84.4394223 C85.7513256,81.8135406 81.2604117,71.4604347 83.1431162,65.3359709 C83.287444,63.2923217 82.7075556,59.7937396 82.7075556,59.7937396 C82.7075556,59.7937396 79.9537298,69.2728483 79.9537298,70.7316715 C80.6792347,71.4604347 82.7075556,78.1697245 82.7075556,78.1697245 C82.7075556,78.1697245 56.1886128,78.0231939 53.2891706,78.897191 C51.2608497,81.0847774 49.3781452,92.7527693 49.3781452,92.7527693 L45.1733097,92.6062386 C45.1733097,92.6062386 51.4064661,71.8961366 51.5495052,71.3164975 C51.6964103,70.7316715 49.522473,48.5653398 50.9721941,45.3572256 C51.5495052,41.1272867 56.1886128,40.1067589 56.1886128,40.1067589 C56.1886128,40.1067589 63.5776802,34.5671211 65.0274013,34.5671211 C66.478411,34.5671211 68.0737486,42.7326406 68.0737486,42.7326406 C68.0737486,42.7326406 71.4048855,32.0864733 75.0285439,33.6905304" id="Fill-6" fill="#AACBC6"></path>
                    <path d="M71.4525652,149.915296 C71.4525652,149.915296 74.9306072,166.444735 74.7385997,169.746214 C70.6806693,167.610497 71.4525652,149.915296 71.4525652,149.915296" id="Fill-7" fill="#FFFFFF"></path>
                    <path d="M68.9410039,8.90091048 C68.9410039,8.90091048 74.4486555,6.56549669 77.2024813,12.3994926 C80.8248511,17.5034286 80.2449626,22.4608339 80.2449626,22.4608339 C80.2449626,22.4608339 84.0129489,28.1508926 82.9987884,30.7741808 C84.5928373,32.3769412 82.2732836,34.4192936 82.2732836,34.4192936 C82.2732836,34.4192936 84.0129489,37.9191725 82.4201886,39.2327617 C86.7667747,41.85605 82.5645164,44.6271656 82.5645164,44.6271656 C82.5645164,44.6271656 80.3880018,46.229926 81.5516446,47.6887492 C82.7075556,49.1488691 84.8827815,55.5650975 78.5040087,54.5445697 C84.7371651,52.9392158 80.3880018,48.4175124 80.3880018,48.4175124 C80.3880018,48.4175124 78.3622582,49.4380402 78.5040087,52.35828 C76.765632,50.3159276 79.5207464,47.2504538 79.5207464,47.2504538 C79.5207464,47.2504538 77.6367533,44.920227 74.8829275,47.6887492 C80.2449626,54.398039 73.4357837,57.7552774 73.4357837,57.7552774 C73.4357837,57.7552774 77.3455204,52.9392158 74.156134,49.4380402 C70.9706135,45.9420516 75.6071437,43.6079345 75.6071437,43.6079345 C75.6071437,43.6079345 73.7231506,38.9409971 76.0414158,36.7547074 C71.4048855,38.9409971 73.8687671,42.7326406 73.8687671,42.7326406 C73.8687671,42.7326406 70.2451086,39.0836376 75.6071437,35.0028229 C76.33136,32.8165333 74.8829275,33.1082979 74.8829275,33.1082979 C74.8829275,33.1082979 74.3017504,35.7315861 71.9834853,36.3138187 C69.6665088,36.8973479 68.0737486,44.4832284 68.0737486,44.4832284 C68.0737486,44.4832284 65.8985226,39.9628217 66.3327946,39.0836376 C66.0428504,38.6492325 64.8817848,37.3356432 64.8817848,37.3356432 L65.4629619,34.1301225 C65.4629619,34.1301225 62.5648084,34.5671211 62.4204806,36.4616461 C64.5931293,36.1685847 64.4488015,39.6684636 64.4488015,39.6684636 C64.4488015,39.6684636 66.0428504,43.025702 63.7258739,44.6271656 C66.3327946,46.814752 62.7104248,50.0228662 62.7104248,50.0228662 C62.7104248,50.0228662 66.7670666,52.5022172 63.434641,56.0020961 C64.5931293,51.1899248 62.2748641,51.3377522 62.2748641,51.3377522 C62.2748641,51.3377522 58.3625501,56.1499235 62.2748641,58.3336197 C58.3625501,58.1896825 60.1022154,52.2104526 60.1022154,52.2104526 C60.1022154,52.2104526 57.2027732,50.3159276 60.1022154,47.8352798 C55.6087243,47.2504538 56.1886128,52.2104526 56.1886128,52.2104526 C56.1886128,52.2104526 56.1886128,57.3156853 51.1165219,55.1293957 C56.478557,56.4390947 55.6087243,48.709277 55.6087243,48.709277 C55.6087243,48.709277 53.000515,45.6489902 56.044285,42.8765778 C59.0867663,40.1067589 58.7968221,37.7752353 58.7968221,37.7752353 C58.7968221,37.7752353 59.6653661,33.6905304 58.0726059,31.9399426 C56.6228848,29.1714205 58.5081665,22.0238353 60.825143,21.58554 C59.8109826,6.12849811 68.9410039,8.90091048 68.9410039,8.90091048" id="Fill-8" fill="#414141"></path>
                    <path d="M81.984628,74.3754876 L81.8879799,76.2233303 C81.8879799,76.2233303 59.6653661,75.8369042 56.9605087,76.41784 C60.441128,80.3054417 55.8020205,80.6944612 55.8020205,80.6944612 C55.8020205,80.6944612 54.4476588,80.3054417 54.4476588,78.7532538 C54.4476588,77.1971758 50.3923056,96.2526481 51.74409,100.723779 C50.5843131,101.304715 49.0392326,100.915695 49.0392326,100.915695 C49.0392326,100.915695 50.9721941,80.6944612 52.9025783,79.1396799 C50.9721941,81.4737969 49.8111286,79.7232091 49.8111286,79.7232091 C49.8111286,79.7232091 49.0392326,75.0575685 54.6422436,74.8630587 C54.8342511,75.4452912 56.1886128,73.8879165 56.1886128,73.8879165 C56.1886128,73.8879165 80.2449626,72.043964 81.984628,74.3754876" id="Fill-9" fill="#04384B"></path>
                    <path d="M98.3117092,113.460278 C98.3117092,114.048994 97.8130052,114.527488 97.2009007,114.527488 C96.5862189,114.527488 96.0888035,114.048994 96.0888035,113.460278 C96.0888035,112.866375 96.5862189,112.387881 97.2009007,112.387881 C97.8130052,112.387881 98.3117092,112.866375 98.3117092,113.460278" id="Fill-10" fill="#FFFFFF"></path>
                    <path d="M48.5611468,181.670959 C48.5611468,181.670959 49.5894823,183.740543 50.3884397,184.544516 C51.1873971,185.349787 55.1860501,188.452866 51.1873971,190.636562 C47.1900328,192.820258 43.4220466,189.142727 43.4220466,187.648892 C43.4220466,186.155057 40.4517291,184.544516 40.4517291,184.544516 C40.4517291,184.544516 41.8228431,176.961229 48.5611468,181.670959" id="Fill-11" fill="#414141"></path>
                    <path d="M16.2368764,184.890744 C16.2368764,184.890744 17.8360798,187.188552 12.2395121,188.911909 C10.5269082,189.486361 10.068152,190.636562 10.068152,190.636562 C10.068152,190.637859 6.64294427,193.856347 0.59019757,191.671354 C-2.60949799,189.486361 4.81693999,184.661222 4.81693999,184.661222 L6.30016577,182.707047 C6.30016577,182.707047 10.3555189,178.971163 16.2368764,184.890744" id="Fill-12" fill="#414141"></path>
                    <path d="M27.2032111,-0.270872844 C27.2032111,-0.270872844 31.0291862,-1.36272094 33.600025,1.22425881 L32.6850899,1.45378032 C32.6850899,1.45378032 36.3396757,2.02823246 36.3396757,4.6722684 C37.3680112,7.31500761 37.594812,9.84363443 36.3396757,12.6030795 C38.6811364,10.2456213 37.9388792,14.5572542 37.9388792,14.5572542 C37.9388792,14.5572542 37.594812,17.8885579 35.5420069,17.8885579 C36.1669978,21.1641022 34.9685617,22.3713594 34.9685617,22.3713594 C34.9685617,22.3713594 33.9402262,27.7735437 38.7378366,29.8418307 C43.535447,31.9101178 38.8525256,52.5981754 28.230258,54.2100129 C17.6079904,55.8192569 17.6079904,28.9237447 17.6079904,28.9237447 C17.6079904,28.9237447 20.5770192,27.6581346 22.0628223,27.0836824 C23.5473367,26.5092303 22.8630683,22.4880653 22.8630683,22.4880653 C22.8630683,22.4880653 21.8334442,19.8427326 21.8334442,18.5771224 C19.5499724,18.5771224 19.5499724,15.0162972 19.5499724,15.0162972 C19.5499724,15.0162972 18.5229255,11.7965124 20.807686,12.4876704 C18.2935474,6.50973723 21.1478872,3.63747651 21.1478872,3.63747651 C21.1478872,3.63747651 19.7780618,3.63747651 19.7780618,4.44274689 C19.7780618,2.25775397 22.2909117,2.71809373 22.2909117,2.71809373 C22.2909117,2.71809373 22.7470906,-0.270872844 27.2032111,-0.270872844" id="Fill-13" fill="#414141"></path>
                    <path d="M56.2143856,60.4148741 C56.2143856,60.4148741 56.7839649,67.4263024 56.7839649,68.1148669 C56.7839649,68.8047282 57.584211,74.0928001 57.584211,74.8980705 C57.584211,75.7020441 58.384457,85.7011423 57.584211,91.5636663 C57.379317,95.5666771 58.1550789,95.5874248 57.4695219,98.2288672 C56.7839649,100.872903 57.379317,102.365441 57.379317,102.365441 C57.379317,102.365441 58.955325,106.964949 56.5558755,110.411662 C55.358728,112.020906 54.8419829,112.020906 54.8419829,112.020906 C54.8419829,112.020906 52.3304217,113.285219 50.8459073,113.285219 C49.3601042,113.285219 48.3884689,114.837407 48.1036792,113.285219 C47.7892508,112.968816 49.0173257,111.734328 49.0173257,111.734328 L49.9618995,110.78512 C49.9618995,110.78512 50.1603503,110.297549 51.4154866,110.297549 C52.6732002,109.033236 51.6448647,106.159678 51.6448647,106.159678 C51.6448647,106.159678 50.5031288,105.700635 50.5031288,106.84954 C50.5031288,107.997147 49.1900036,111.734328 47.9902788,111.734328 C46.7905541,111.734328 47.8755898,109.375573 47.8755898,108.229262 C48.4451691,107.65481 48.5611468,105.009477 48.5611468,104.091391 C48.5611468,103.172008 50.0443726,99.7227022 51.0727081,98.6879103 C52.1010436,97.6544151 52.4438221,88.3451782 50.8459073,83.8623767 C49.2454152,79.380872 49.2454152,71.5628765 49.2454152,69.6099986 C47.3047218,67.6571206 46.7325652,59.3813789 46.7325652,59.3813789 C46.7325652,59.3813789 54.8419829,59.0351515 56.2143856,60.4148741" id="Fill-14" fill="#414141"></path>
                    <path d="M10.2021707,54.8895003 C10.200882,54.8895003 9.15450554,65.7016492 7.78596882,68.6906158 C7.78596882,69.724111 7.89808058,71.1051302 7.89808058,71.1051302 C7.89808058,71.1051302 8.24214773,77.5421064 7.21252358,83.9777858 C6.18676536,90.4134653 7.78596882,93.4011351 7.78596882,93.4011351 C7.78596882,93.4011351 8.47152582,95.7002404 8.47152582,96.3901017 C8.47152582,97.079963 9.61326173,98.2288672 9.61326173,98.2288672 C9.61326173,98.2288672 11.439266,100.872903 11.439266,103.629755 L11.439266,107.65481 C11.439266,107.65481 11.8980222,108.802418 10.2988187,108.802418 C10.2988187,110.988707 7.49860188,110.009675 7.49860188,110.009675 L6.52825522,109.723097 C6.52825522,109.723097 5.84269822,110.527071 5.04374081,109.723097 C3.44324871,109.723097 3.3865485,108.056797 3.3865485,108.056797 C3.3865485,108.056797 2.30409008,106.73413 1.73193348,105.124886 C1.16106553,103.515642 2.64557994,97.9993457 2.64557994,97.9993457 C2.64557994,97.9993457 2.64557994,95.1244915 1.96002293,92.5971615 C1.27575457,90.0685346 -0.164946046,75.2300338 0.132730021,71.5628765 C0.59019757,69.4945895 0.59019757,53.1739243 0.59019757,53.1739243 L10.2021707,54.8895003" id="Fill-15" fill="#414141"></path>
                    <path d="M46.8485429,86.8500466 C46.8485429,86.8500466 49.0637168,103.985059 49.0637168,119.329285 C49.0637168,134.672215 47.863992,134.672215 47.863992,134.672215 C47.863992,134.672215 49.235106,141.551377 49.235106,143.630038 L49.235106,160.186708 C51.2904884,167.426361 49.235106,170.358271 49.235106,170.358271 C49.235106,170.358271 49.8343241,175.788984 48.2067705,177.426756 C49.7222123,180.502604 48.5611468,181.670959 48.5611468,181.670959 C48.5611468,181.670959 45.541861,179.423723 40.4517291,184.544516 C37.6734191,187.34027 36.9002345,182.770587 36.9002345,182.770587 C36.9002345,182.770587 34.8448522,169.151014 35.8706104,165.701708 C36.9002345,162.256292 35.8706104,137.086729 35.8706104,137.086729 C35.8706104,137.086729 32.4454027,113.811692 28.1632487,111.053544 C25.0795308,119.846681 20.7960882,140.533442 20.7960882,140.533442 C20.7960882,140.533442 19.9391419,147.083234 20.6246989,151.910966 C21.3115446,156.738698 20.3682594,184.063429 18.7407058,185.701201 C17.1131523,187.338973 13.2588271,183.460449 13.2588271,183.460449 C13.2588271,183.460449 7.78596882,180.751576 6.30016577,182.707047 C4.81693999,179.321281 7.26149194,173.806281 7.26149194,173.806281 C7.26149194,173.806281 6.91871344,151.049936 6.23315643,147.946857 C5.54888807,144.842482 7.77437105,132.085235 7.77437105,128.983453 C7.77437105,125.880374 8.44059844,110.208075 8.44059844,110.208075 C8.44059844,110.208075 11.2034447,84.2073073 12.5719814,84.2073073 C13.9443841,84.2073073 24.58727,89.4927858 46.8485429,86.8500466" id="Fill-16" fill="#503214"></path>
                    <path d="M51.0727081,35.4735365 C51.6448647,35.4735365 54.2724036,39.3818859 54.8419829,46.7382448 C56.2143856,54.8985774 56.2143856,60.4148741 56.2143856,60.4148741 C56.2143856,60.4148741 47.4748225,60.1269996 46.7325652,59.3813789 C45.9915967,61.0074805 45.1346504,66.9659626 45.1346504,66.9659626 C45.1346504,66.9659626 43.5934358,74.3236183 44.7905833,76.8496517 C45.9915967,79.380872 46.8485429,86.8500466 46.8485429,86.8500466 C46.8485429,86.8500466 34.3976938,90.2993529 25.3746296,88.5759965 C16.3528541,86.8500466 11.0977761,84.2073073 11.0977761,84.2073073 C11.0977761,84.2073073 12.3529125,78.5756016 12.3529125,77.195879 C12.3529125,75.8174532 11.439266,72.2540345 12.3529125,69.9562259 C10.63902,63.7474746 10.63902,54.6677592 10.63902,54.6677592 C10.63902,54.6677592 7.66999113,56.737343 0.59019757,53.634264 C-0.0953594327,47.8884458 4.47287285,34.4400414 4.47287285,34.4400414 C4.47287285,34.4400414 6.87232236,32.2563452 9.95604023,31.3369624 C13.0397581,29.7277184 18.0371078,28.7409055 18.0371078,28.7409055 C18.0371078,28.7409055 19.8605348,38.3725964 29.0305041,38.3725964 C38.197896,38.3725964 38.7378366,29.3840844 38.7378366,29.3840844 C38.7378366,29.3840844 50.5031288,35.4735365 51.0727081,35.4735365 Z" id="Fill-17" fill="#D83E32"></path>
                </g>
            </g>
        </g>
    </g>
</svg>