<?xml version="1.0" encoding="UTF-8" standalone="no"?>
<svg width="400px" height="250px" viewBox="0 0 400 250" version="1.1" xmlns="http://www.w3.org/2000/svg" xmlns:xlink="http://www.w3.org/1999/xlink" xmlns:sketch="http://www.bohemiancoding.com/sketch/ns">
    <title>Untitled</title>
    <description>Created with Sketch (http://www.bohemiancoding.com/sketch)</description>
    <defs></defs>
    <g id="Page-1" stroke="none" stroke-width="1" fill="none" fill-rule="evenodd" sketch:type="MSPage">
        <g id="Group" sketch:type="MSLayerGroup">
            <rect id="Rectangle-1" fill="#75BAEF" sketch:type="MSShapeGroup" x="0" y="0" width="400" height="250"></rect>
            <g id="Imported-Layers" transform="translate(40.000000, 28.000000)" fill="#FFFFFF" sketch:type="MSShapeGroup">
                <path d="M24.8941395,-0.349627907 L4.12339535,-0.349627907 C1.60834884,-0.349627907 -0.430581395,1.69067442 -0.430581395,4.20434884 L-0.430581395,53.8974419 C-0.430581395,56.4111163 1.60834884,58.4514186 4.12339535,58.4514186 L24.8941395,58.4514186 C27.407814,58.4514186 29.4467442,56.4111163 29.4467442,53.8974419 L29.4467442,4.20434884 C29.4467442,1.69067442 27.407814,-0.349627907 24.8941395,-0.349627907 L24.8941395,-0.349627907 Z M10.5914419,3.16430233 L18.4219767,3.16430233 C18.6415116,3.16430233 18.8212558,3.3454186 18.8212558,3.56495349 C18.8212558,3.78586047 18.6415116,3.96560465 18.4219767,3.96560465 L10.5914419,3.96560465 C10.371907,3.96560465 10.1935349,3.78586047 10.1935349,3.56495349 C10.1935349,3.3454186 10.371907,3.16430233 10.5914419,3.16430233 L10.5914419,3.16430233 Z M13.8695224,55.8236977 C12.7690539,55.8236977 11.8716047,54.926482 11.8716047,53.8231772 C11.8716047,52.7177908 12.7690539,51.8236977 13.8695224,51.8236977 C14.9772788,51.8236977 15.8716047,52.7177908 15.8716047,53.8231772 C15.8716047,54.926482 14.9772788,55.8236977 13.8695224,55.8236977 L13.8695224,55.8236977 Z M1.56581395,6.65037209 L27.4503488,6.65037209 L27.4503488,49.6503721 L1.56581395,49.6503721 L1.56581395,6.65037209 Z" id="Fill-2"></path>
            </g>
            <path d="M82.7476489,87 L116.502351,87 C118.573488,87 120.25,85.334564 120.25,83.2564972 L120.25,30.7435028 C120.25,28.6720258 118.58416,27 116.502351,27 L82.7476489,27 C80.6765115,27 79,28.665436 79,30.7435028 L79,83.2564972 C79,85.3279742 80.6658396,87 82.7476489,87 Z M82.7549459,32.6184739 C82.7549459,32.617114 116.502503,32.6247203 116.502503,32.6247203 C116.509724,32.6247203 116.500275,79.4992809 116.500275,79.4992809 C116.500275,79.5006408 82.7527189,79.4930345 82.7527189,79.4930345 C82.7454976,79.4930345 82.7549459,32.6184739 82.7549459,32.6184739 Z M99.625,85.125 C100.660534,85.125 101.5,84.285534 101.5,83.25 C101.5,82.214466 100.660534,81.375 99.625,81.375 C98.589466,81.375 97.75,82.214466 97.75,83.25 C97.75,84.285534 98.589466,85.125 99.625,85.125 Z" id="Rectangle-26" fill="#FFFFFF" sketch:type="MSShapeGroup"></path>
            <g id="Imported-Layers" transform="translate(130.000000, 27.000000)" sketch:type="MSShapeGroup">
                <path d="M30.3031496,4.4976378 C30.3031496,3.23259843 29.0451969,1.55874016 27.8114961,1.02 C27.2729134,0.754645669 27.3340157,0.802834646 26.3152756,0.586929134 C23.6286614,0.0179527559 19.0031496,-0.0626771654 14.3184252,-0.0626771654 C10.1067717,-0.0626771654 5.94818898,0.0179527559 3.53291339,0.586929134 C2.61700787,0.802834646 2.67212598,0.754645669 2.18787402,1.02 C1.07874016,1.55874016 -0.0521259843,3.23259843 -0.0521259843,4.4976378 C-0.0521259843,4.64251969 -0.0412598425,4.78472441 -0.0220472441,4.92440945 L-0.0521259843,4.92440945 L-0.0521259843,55.4198425 C-0.0521259843,56.6848819 1.20566929,58.3587402 2.43937008,58.8974803 C2.97795276,59.1628346 2.91685039,59.1146457 3.93543307,59.3303937 C6.62220472,59.8995276 11.2477165,59.9801575 15.9324409,59.9801575 C20.1440945,59.9801575 24.3025197,59.8995276 26.7179528,59.3303937 C27.6338583,59.1146457 27.5788976,59.1628346 28.0629921,58.8974803 C29.172126,58.3587402 30.3031496,56.6848819 30.3031496,55.4198425 L30.3031496,4.92440945 L30.2694488,4.92440945 C30.2908661,4.78472441 30.3031496,4.64251969 30.3031496,4.4976378" id="Fill-1" fill="#FFFFFF"></path>
                <path d="M2.13559055,7.44330709 L28.3296063,7.44330709 L28.3296063,54.2146457 L2.13559055,54.2146457 L2.13559055,7.44330709 Z" id="Fill-2" fill="#75BAEF"></path>
                <path d="M19.3379528,2.9296063 C19.3379528,3.20141732 19.1176378,3.4215748 18.8458268,3.4215748 L11.4048819,3.4215748 C11.1330709,3.4215748 10.9127559,3.20141732 10.9127559,2.9296063 C10.9127559,2.65795276 11.1330709,2.43732283 11.4048819,2.43732283 L18.8458268,2.43732283 C19.1176378,2.43732283 19.3379528,2.65795276 19.3379528,2.9296063" id="Fill-3" fill="#75BAEF"></path>
                <path d="M23.8370079,3.13637795 C23.8370079,2.7503937 24.1500787,2.43732283 24.5359055,2.43732283 C24.9217323,2.43732283 25.2346457,2.7503937 25.2346457,3.13637795 C25.2346457,3.52220472 24.9217323,3.83496063 24.5359055,3.83496063 C24.1500787,3.83496063 23.8370079,3.52220472 23.8370079,3.13637795" id="Fill-4" fill="#75BAEF"></path>
            </g>
            <path d="M195,35.4722222 L196.974276,35.4722222 C198.227103,35.4722222 199.241552,36.8583719 199.241552,38.5684429 L199.241552,84.1669313 C199.241552,85.8784614 198.227103,87.2646111 196.974276,87.2646111 L172.269414,87.2646111 C171.015517,87.2646111 170,85.8784614 170,84.1669313 L170,38.5684429 C170,36.8583719 171.015517,35.4722222 172.269414,35.4722222 L191,35.4722222 L191,29.4642392 C191,28.3723984 191.895431,27.4722222 193,27.4722222 C194.11227,27.4722222 195,28.3640786 195,29.4642392 L195,35.4722222 Z M179.946172,82.9860826 C179.946172,83.5580517 179.60731,84.0191289 179.190414,84.0191289 L174.780931,84.0191289 C174.364034,84.0191289 174.026241,83.5580517 174.026241,82.9860826 L174.026241,79.0231535 C174.026241,78.4526435 174.364034,77.9901073 174.780931,77.9901073 L179.190414,77.9901073 C179.60731,77.9901073 179.946172,78.4526435 179.946172,79.0231535 L179.946172,82.9860826 L179.946172,82.9860826 Z M179.946172,74.3530718 C179.946172,74.9235818 179.60731,75.3861181 179.190414,75.3861181 L174.780931,75.3861181 C174.364034,75.3861181 174.026241,74.9235818 174.026241,74.3530718 L174.026241,70.3901427 C174.026241,69.8181736 174.364034,69.3585556 174.780931,69.3585556 L179.190414,69.3585556 C179.60731,69.3585556 179.946172,69.8181736 179.946172,70.3901427 L179.946172,74.3530718 L179.946172,74.3530718 Z M179.946172,65.720061 C179.946172,66.2876528 179.60731,66.7516481 179.190414,66.7516481 L174.780931,66.7516481 C174.364034,66.7516481 174.026241,66.2876528 174.026241,65.720061 L174.026241,61.7556728 C174.026241,61.1866219 174.364034,60.7240856 174.780931,60.7240856 L179.190414,60.7240856 C179.60731,60.7240856 179.946172,61.1866219 179.946172,61.7556728 L179.946172,65.720061 L179.946172,65.720061 Z M187.581276,82.9860826 C187.581276,83.5580517 187.243483,84.0191289 186.825517,84.0191289 L182.417103,84.0191289 C181.999138,84.0191289 181.659207,83.5580517 181.659207,82.9860826 L181.659207,79.0231535 C181.659207,78.4526435 181.999138,77.9901073 182.417103,77.9901073 L186.825517,77.9901073 C187.243483,77.9901073 187.581276,78.4526435 187.581276,79.0231535 L187.581276,82.9860826 L187.581276,82.9860826 Z M187.581276,74.3530718 C187.581276,74.9235818 187.243483,75.3861181 186.825517,75.3861181 L182.417103,75.3861181 C181.999138,75.3861181 181.659207,74.9235818 181.659207,74.3530718 L181.659207,70.3901427 C181.659207,69.8181736 181.999138,69.3585556 182.417103,69.3585556 L186.825517,69.3585556 C187.243483,69.3585556 187.581276,69.8181736 187.581276,70.3901427 L187.581276,74.3530718 L187.581276,74.3530718 Z M187.581276,65.720061 C187.581276,66.2876528 187.243483,66.7516481 186.825517,66.7516481 L182.417103,66.7516481 C181.999138,66.7516481 181.659207,66.2876528 181.659207,65.720061 L181.659207,61.7556728 C181.659207,61.1866219 181.999138,60.7240856 182.417103,60.7240856 L186.825517,60.7240856 C187.243483,60.7240856 187.581276,61.1866219 187.581276,61.7556728 L187.581276,65.720061 L187.581276,65.720061 Z M195.216379,82.9860826 C195.216379,83.5580517 194.878586,84.0191289 194.460621,84.0191289 L190.051138,84.0191289 C189.636379,84.0191289 189.297517,83.5580517 189.297517,82.9860826 L189.297517,79.0231535 C189.297517,78.4526435 189.636379,77.9901073 190.051138,77.9901073 L194.460621,77.9901073 C194.878586,77.9901073 195.216379,78.4526435 195.216379,79.0231535 L195.216379,82.9860826 L195.216379,82.9860826 Z M195.216379,74.3530718 C195.216379,74.9235818 194.878586,75.3861181 194.460621,75.3861181 L190.051138,75.3861181 C189.636379,75.3861181 189.297517,74.9235818 189.297517,74.3530718 L189.297517,70.3901427 C189.297517,69.8181736 189.636379,69.3585556 190.051138,69.3585556 L194.460621,69.3585556 C194.878586,69.3585556 195.216379,69.8181736 195.216379,70.3901427 L195.216379,74.3530718 L195.216379,74.3530718 Z M195.216379,65.720061 C195.216379,66.2876528 194.878586,66.7516481 194.460621,66.7516481 L190.051138,66.7516481 C189.636379,66.7516481 189.297517,66.2876528 189.297517,65.720061 L189.297517,61.7556728 C189.297517,61.1866219 189.636379,60.7240856 190.051138,60.7240856 L194.460621,60.7240856 C194.878586,60.7240856 195.216379,61.1866219 195.216379,61.7556728 L195.216379,65.720061 L195.216379,65.720061 Z M195.216379,56.5779097 C195.216379,57.4329835 194.907719,58.1200965 194.5258,58.1200965 L174.715844,58.1200965 C174.334902,58.1200965 174.026241,57.4329835 174.026241,56.5779097 L174.026241,41.1451351 C174.026241,40.2922425 174.334902,39.6029483 174.715844,39.6029483 L194.5258,39.6029483 C194.907719,39.6029483 195.216379,40.2922425 195.216379,41.1451351 L195.216379,56.5779097 L195.216379,56.5779097 Z" id="Imported-Layers" fill="#FFFFFF" sketch:type="MSShapeGroup"></path>
            <g id="Imported-Layers" transform="translate(120.000000, 98.000000)" fill="#FFFFFF" sketch:type="MSShapeGroup">
                <path d="M24.8941395,-0.349627907 L4.12339535,-0.349627907 C1.60834884,-0.349627907 -0.430581395,1.69067442 -0.430581395,4.20434884 L-0.430581395,53.8974419 C-0.430581395,56.4111163 1.60834884,58.4514186 4.12339535,58.4514186 L24.8941395,58.4514186 C27.407814,58.4514186 29.4467442,56.4111163 29.4467442,53.8974419 L29.4467442,4.20434884 C29.4467442,1.69067442 27.407814,-0.349627907 24.8941395,-0.349627907 L24.8941395,-0.349627907 Z M10.5914419,3.16430233 L18.4219767,3.16430233 C18.6415116,3.16430233 18.8212558,3.3454186 18.8212558,3.56495349 C18.8212558,3.78586047 18.6415116,3.96560465 18.4219767,3.96560465 L10.5914419,3.96560465 C10.371907,3.96560465 10.1935349,3.78586047 10.1935349,3.56495349 C10.1935349,3.3454186 10.371907,3.16430233 10.5914419,3.16430233 L10.5914419,3.16430233 Z M13.8695224,55.8236977 C12.7690539,55.8236977 11.8716047,54.926482 11.8716047,53.8231772 C11.8716047,52.7177908 12.7690539,51.8236977 13.8695224,51.8236977 C14.9772788,51.8236977 15.8716047,52.7177908 15.8716047,53.8231772 C15.8716047,54.926482 14.9772788,55.8236977 13.8695224,55.8236977 L13.8695224,55.8236977 Z M1.56581395,6.65037209 L27.4503488,6.65037209 L27.4503488,49.6503721 L1.56581395,49.6503721 L1.56581395,6.65037209 Z" id="Fill-2"></path>
            </g>
            <path d="M161.497649,157.472222 L195.252351,157.472222 C197.323488,157.472222 199,155.806786 199,153.728719 L199,101.215725 C199,99.144248 197.33416,97.4722222 195.252351,97.4722222 L161.497649,97.4722222 C159.426512,97.4722222 157.75,99.1376583 157.75,101.215725 L157.75,153.728719 C157.75,155.800196 159.41584,157.472222 161.497649,157.472222 Z M161.504946,103.090696 C161.504946,103.089336 195.252503,103.096943 195.252503,103.096943 C195.259724,103.096943 195.250275,149.971503 195.250275,149.971503 C195.250275,149.972863 161.502719,149.965257 161.502719,149.965257 C161.495498,149.965257 161.504946,103.090696 161.504946,103.090696 Z M178.375,155.597222 C179.410534,155.597222 180.25,154.757756 180.25,153.722222 C180.25,152.686688 179.410534,151.847222 178.375,151.847222 C177.339466,151.847222 176.5,152.686688 176.5,153.722222 C176.5,154.757756 177.339466,155.597222 178.375,155.597222 Z" id="Rectangle-26" fill="#FFFFFF" sketch:type="MSShapeGroup"></path>
            <g id="Imported-Layers" transform="translate(79.000000, 97.000000)" sketch:type="MSShapeGroup">
                <path d="M30.3031496,4.4976378 C30.3031496,3.23259843 29.0451969,1.55874016 27.8114961,1.02 C27.2729134,0.754645669 27.3340157,0.802834646 26.3152756,0.586929134 C23.6286614,0.0179527559 19.0031496,-0.0626771654 14.3184252,-0.0626771654 C10.1067717,-0.0626771654 5.94818898,0.0179527559 3.53291339,0.586929134 C2.61700787,0.802834646 2.67212598,0.754645669 2.18787402,1.02 C1.07874016,1.55874016 -0.0521259843,3.23259843 -0.0521259843,4.4976378 C-0.0521259843,4.64251969 -0.0412598425,4.78472441 -0.0220472441,4.92440945 L-0.0521259843,4.92440945 L-0.0521259843,55.4198425 C-0.0521259843,56.6848819 1.20566929,58.3587402 2.43937008,58.8974803 C2.97795276,59.1628346 2.91685039,59.1146457 3.93543307,59.3303937 C6.62220472,59.8995276 11.2477165,59.9801575 15.9324409,59.9801575 C20.1440945,59.9801575 24.3025197,59.8995276 26.7179528,59.3303937 C27.6338583,59.1146457 27.5788976,59.1628346 28.0629921,58.8974803 C29.172126,58.3587402 30.3031496,56.6848819 30.3031496,55.4198425 L30.3031496,4.92440945 L30.2694488,4.92440945 C30.2908661,4.78472441 30.3031496,4.64251969 30.3031496,4.4976378" id="Fill-1" fill="#FFFFFF"></path>
                <path d="M2.13559055,7.44330709 L28.3296063,7.44330709 L28.3296063,54.2146457 L2.13559055,54.2146457 L2.13559055,7.44330709 Z" id="Fill-2" fill="#75BAEF"></path>
                <path d="M19.3379528,2.9296063 C19.3379528,3.20141732 19.1176378,3.4215748 18.8458268,3.4215748 L11.4048819,3.4215748 C11.1330709,3.4215748 10.9127559,3.20141732 10.9127559,2.9296063 C10.9127559,2.65795276 11.1330709,2.43732283 11.4048819,2.43732283 L18.8458268,2.43732283 C19.1176378,2.43732283 19.3379528,2.65795276 19.3379528,2.9296063" id="Fill-3" fill="#75BAEF"></path>
                <path d="M23.8370079,3.13637795 C23.8370079,2.7503937 24.1500787,2.43732283 24.5359055,2.43732283 C24.9217323,2.43732283 25.2346457,2.7503937 25.2346457,3.13637795 C25.2346457,3.52220472 24.9217323,3.83496063 24.5359055,3.83496063 C24.1500787,3.83496063 23.8370079,3.52220472 23.8370079,3.13637795" id="Fill-4" fill="#75BAEF"></path>
            </g>
            <path d="M65.25,105.472222 L67.2242759,105.472222 C68.4771034,105.472222 69.4915517,106.858372 69.4915517,108.568443 L69.4915517,154.166931 C69.4915517,155.878461 68.4771034,157.264611 67.2242759,157.264611 L42.5194138,157.264611 C41.2655172,157.264611 40.25,155.878461 40.25,154.166931 L40.25,108.568443 C40.25,106.858372 41.2655172,105.472222 42.5194138,105.472222 L61.25,105.472222 L61.25,99.4642392 C61.25,98.3723984 62.1454305,97.4722222 63.25,97.4722222 C64.3622704,97.4722222 65.25,98.3640786 65.25,99.4642392 L65.25,105.472222 Z M50.1961724,152.986083 C50.1961724,153.558052 49.8573103,154.019129 49.4404138,154.019129 L45.030931,154.019129 C44.6140345,154.019129 44.2762414,153.558052 44.2762414,152.986083 L44.2762414,149.023154 C44.2762414,148.452644 44.6140345,147.990107 45.030931,147.990107 L49.4404138,147.990107 C49.8573103,147.990107 50.1961724,148.452644 50.1961724,149.023154 L50.1961724,152.986083 L50.1961724,152.986083 Z M50.1961724,144.353072 C50.1961724,144.923582 49.8573103,145.386118 49.4404138,145.386118 L45.030931,145.386118 C44.6140345,145.386118 44.2762414,144.923582 44.2762414,144.353072 L44.2762414,140.390143 C44.2762414,139.818174 44.6140345,139.358556 45.030931,139.358556 L49.4404138,139.358556 C49.8573103,139.358556 50.1961724,139.818174 50.1961724,140.390143 L50.1961724,144.353072 L50.1961724,144.353072 Z M50.1961724,135.720061 C50.1961724,136.287653 49.8573103,136.751648 49.4404138,136.751648 L45.030931,136.751648 C44.6140345,136.751648 44.2762414,136.287653 44.2762414,135.720061 L44.2762414,131.755673 C44.2762414,131.186622 44.6140345,130.724086 45.030931,130.724086 L49.4404138,130.724086 C49.8573103,130.724086 50.1961724,131.186622 50.1961724,131.755673 L50.1961724,135.720061 L50.1961724,135.720061 Z M57.8312759,152.986083 C57.8312759,153.558052 57.4934828,154.019129 57.0755172,154.019129 L52.6671034,154.019129 C52.2491379,154.019129 51.9092069,153.558052 51.9092069,152.986083 L51.9092069,149.023154 C51.9092069,148.452644 52.2491379,147.990107 52.6671034,147.990107 L57.0755172,147.990107 C57.4934828,147.990107 57.8312759,148.452644 57.8312759,149.023154 L57.8312759,152.986083 L57.8312759,152.986083 Z M57.8312759,144.353072 C57.8312759,144.923582 57.4934828,145.386118 57.0755172,145.386118 L52.6671034,145.386118 C52.2491379,145.386118 51.9092069,144.923582 51.9092069,144.353072 L51.9092069,140.390143 C51.9092069,139.818174 52.2491379,139.358556 52.6671034,139.358556 L57.0755172,139.358556 C57.4934828,139.358556 57.8312759,139.818174 57.8312759,140.390143 L57.8312759,144.353072 L57.8312759,144.353072 Z M57.8312759,135.720061 C57.8312759,136.287653 57.4934828,136.751648 57.0755172,136.751648 L52.6671034,136.751648 C52.2491379,136.751648 51.9092069,136.287653 51.9092069,135.720061 L51.9092069,131.755673 C51.9092069,131.186622 52.2491379,130.724086 52.6671034,130.724086 L57.0755172,130.724086 C57.4934828,130.724086 57.8312759,131.186622 57.8312759,131.755673 L57.8312759,135.720061 L57.8312759,135.720061 Z M65.4663793,152.986083 C65.4663793,153.558052 65.1285862,154.019129 64.7106207,154.019129 L60.3011379,154.019129 C59.8863793,154.019129 59.5475172,153.558052 59.5475172,152.986083 L59.5475172,149.023154 C59.5475172,148.452644 59.8863793,147.990107 60.3011379,147.990107 L64.7106207,147.990107 C65.1285862,147.990107 65.4663793,148.452644 65.4663793,149.023154 L65.4663793,152.986083 L65.4663793,152.986083 Z M65.4663793,144.353072 C65.4663793,144.923582 65.1285862,145.386118 64.7106207,145.386118 L60.3011379,145.386118 C59.8863793,145.386118 59.5475172,144.923582 59.5475172,144.353072 L59.5475172,140.390143 C59.5475172,139.818174 59.8863793,139.358556 60.3011379,139.358556 L64.7106207,139.358556 C65.1285862,139.358556 65.4663793,139.818174 65.4663793,140.390143 L65.4663793,144.353072 L65.4663793,144.353072 Z M65.4663793,135.720061 C65.4663793,136.287653 65.1285862,136.751648 64.7106207,136.751648 L60.3011379,136.751648 C59.8863793,136.751648 59.5475172,136.287653 59.5475172,135.720061 L59.5475172,131.755673 C59.5475172,131.186622 59.8863793,130.724086 60.3011379,130.724086 L64.7106207,130.724086 C65.1285862,130.724086 65.4663793,131.186622 65.4663793,131.755673 L65.4663793,135.720061 L65.4663793,135.720061 Z M65.4663793,126.57791 C65.4663793,127.432984 65.1577187,128.120096 64.7758,128.120096 L44.9658439,128.120096 C44.584902,128.120096 44.2762414,127.432984 44.2762414,126.57791 L44.2762414,111.145135 C44.2762414,110.292243 44.584902,109.602948 44.9658439,109.602948 L64.7758,109.602948 C65.1577187,109.602948 65.4663793,110.292243 65.4663793,111.145135 L65.4663793,126.57791 L65.4663793,126.57791 Z" id="Imported-Layers" fill="#FFFFFF" sketch:type="MSShapeGroup"></path>
            <g id="Imported-Layers" transform="translate(169.000000, 168.000000)" fill="#FFFFFF" sketch:type="MSShapeGroup">
                <path d="M24.8941395,-0.349627907 L4.12339535,-0.349627907 C1.60834884,-0.349627907 -0.430581395,1.69067442 -0.430581395,4.20434884 L-0.430581395,53.8974419 C-0.430581395,56.4111163 1.60834884,58.4514186 4.12339535,58.4514186 L24.8941395,58.4514186 C27.407814,58.4514186 29.4467442,56.4111163 29.4467442,53.8974419 L29.4467442,4.20434884 C29.4467442,1.69067442 27.407814,-0.349627907 24.8941395,-0.349627907 L24.8941395,-0.349627907 Z M10.5914419,3.16430233 L18.4219767,3.16430233 C18.6415116,3.16430233 18.8212558,3.3454186 18.8212558,3.56495349 C18.8212558,3.78586047 18.6415116,3.96560465 18.4219767,3.96560465 L10.5914419,3.96560465 C10.371907,3.96560465 10.1935349,3.78586047 10.1935349,3.56495349 C10.1935349,3.3454186 10.371907,3.16430233 10.5914419,3.16430233 L10.5914419,3.16430233 Z M13.8695224,55.8236977 C12.7690539,55.8236977 11.8716047,54.926482 11.8716047,53.8231772 C11.8716047,52.7177908 12.7690539,51.8236977 13.8695224,51.8236977 C14.9772788,51.8236977 15.8716047,52.7177908 15.8716047,53.8231772 C15.8716047,54.926482 14.9772788,55.8236977 13.8695224,55.8236977 L13.8695224,55.8236977 Z M1.56581395,6.65037209 L27.4503488,6.65037209 L27.4503488,49.6503721 L1.56581395,49.6503721 L1.56581395,6.65037209 Z" id="Fill-2"></path>
            </g>
            <path d="M43.4976489,227.472222 L77.2523511,227.472222 C79.3234885,227.472222 81,225.806786 81,223.728719 L81,171.215725 C81,169.144248 79.3341604,167.472222 77.2523511,167.472222 L43.4976489,167.472222 C41.4265115,167.472222 39.75,169.137658 39.75,171.215725 L39.75,223.728719 C39.75,225.800196 41.4158396,227.472222 43.4976489,227.472222 Z M43.5049459,173.090696 C43.5049459,173.089336 77.2525025,173.096943 77.2525025,173.096943 C77.2597238,173.096943 77.2502755,219.971503 77.2502755,219.971503 C77.2502755,219.972863 43.5027189,219.965257 43.5027189,219.965257 C43.4954976,219.965257 43.5049459,173.090696 43.5049459,173.090696 Z M60.375,225.597222 C61.410534,225.597222 62.25,224.757756 62.25,223.722222 C62.25,222.686688 61.410534,221.847222 60.375,221.847222 C59.339466,221.847222 58.5,222.686688 58.5,223.722222 C58.5,224.757756 59.339466,225.597222 60.375,225.597222 Z" id="Rectangle-26" fill="#FFFFFF" sketch:type="MSShapeGroup"></path>
            <g id="Imported-Layers" transform="translate(128.000000, 167.000000)" sketch:type="MSShapeGroup">
                <path d="M30.3031496,4.4976378 C30.3031496,3.23259843 29.0451969,1.55874016 27.8114961,1.02 C27.2729134,0.754645669 27.3340157,0.802834646 26.3152756,0.586929134 C23.6286614,0.0179527559 19.0031496,-0.0626771654 14.3184252,-0.0626771654 C10.1067717,-0.0626771654 5.94818898,0.0179527559 3.53291339,0.586929134 C2.61700787,0.802834646 2.67212598,0.754645669 2.18787402,1.02 C1.07874016,1.55874016 -0.0521259843,3.23259843 -0.0521259843,4.4976378 C-0.0521259843,4.64251969 -0.0412598425,4.78472441 -0.0220472441,4.92440945 L-0.0521259843,4.92440945 L-0.0521259843,55.4198425 C-0.0521259843,56.6848819 1.20566929,58.3587402 2.43937008,58.8974803 C2.97795276,59.1628346 2.91685039,59.1146457 3.93543307,59.3303937 C6.62220472,59.8995276 11.2477165,59.9801575 15.9324409,59.9801575 C20.1440945,59.9801575 24.3025197,59.8995276 26.7179528,59.3303937 C27.6338583,59.1146457 27.5788976,59.1628346 28.0629921,58.8974803 C29.172126,58.3587402 30.3031496,56.6848819 30.3031496,55.4198425 L30.3031496,4.92440945 L30.2694488,4.92440945 C30.2908661,4.78472441 30.3031496,4.64251969 30.3031496,4.4976378" id="Fill-1" fill="#FFFFFF"></path>
                <path d="M2.13559055,7.44330709 L28.3296063,7.44330709 L28.3296063,54.2146457 L2.13559055,54.2146457 L2.13559055,7.44330709 Z" id="Fill-2" fill="#75BAEF"></path>
                <path d="M19.3379528,2.9296063 C19.3379528,3.20141732 19.1176378,3.4215748 18.8458268,3.4215748 L11.4048819,3.4215748 C11.1330709,3.4215748 10.9127559,3.20141732 10.9127559,2.9296063 C10.9127559,2.65795276 11.1330709,2.43732283 11.4048819,2.43732283 L18.8458268,2.43732283 C19.1176378,2.43732283 19.3379528,2.65795276 19.3379528,2.9296063" id="Fill-3" fill="#75BAEF"></path>
                <path d="M23.8370079,3.13637795 C23.8370079,2.7503937 24.1500787,2.43732283 24.5359055,2.43732283 C24.9217323,2.43732283 25.2346457,2.7503937 25.2346457,3.13637795 C25.2346457,3.52220472 24.9217323,3.83496063 24.5359055,3.83496063 C24.1500787,3.83496063 23.8370079,3.52220472 23.8370079,3.13637795" id="Fill-4" fill="#75BAEF"></path>
            </g>
            <path d="M115,175 L116.974276,175 C118.227103,175 119.241552,176.38615 119.241552,178.096221 L119.241552,223.694709 C119.241552,225.406239 118.227103,226.792389 116.974276,226.792389 L92.2694138,226.792389 C91.0155172,226.792389 90,225.406239 90,223.694709 L90,178.096221 C90,176.38615 91.0155172,175 92.2694138,175 L111,175 L111,168.992017 C111,167.900176 111.895431,167 113,167 C114.11227,167 115,167.891856 115,168.992017 L115,175 Z M99.9461724,222.51386 C99.9461724,223.085829 99.6073103,223.546907 99.1904138,223.546907 L94.780931,223.546907 C94.3640345,223.546907 94.0262414,223.085829 94.0262414,222.51386 L94.0262414,218.550931 C94.0262414,217.980421 94.3640345,217.517885 94.780931,217.517885 L99.1904138,217.517885 C99.6073103,217.517885 99.9461724,217.980421 99.9461724,218.550931 L99.9461724,222.51386 L99.9461724,222.51386 Z M99.9461724,213.88085 C99.9461724,214.45136 99.6073103,214.913896 99.1904138,214.913896 L94.780931,214.913896 C94.3640345,214.913896 94.0262414,214.45136 94.0262414,213.88085 L94.0262414,209.917921 C94.0262414,209.345951 94.3640345,208.886333 94.780931,208.886333 L99.1904138,208.886333 C99.6073103,208.886333 99.9461724,209.345951 99.9461724,209.917921 L99.9461724,213.88085 L99.9461724,213.88085 Z M99.9461724,205.247839 C99.9461724,205.815431 99.6073103,206.279426 99.1904138,206.279426 L94.780931,206.279426 C94.3640345,206.279426 94.0262414,205.815431 94.0262414,205.247839 L94.0262414,201.283451 C94.0262414,200.7144 94.3640345,200.251863 94.780931,200.251863 L99.1904138,200.251863 C99.6073103,200.251863 99.9461724,200.7144 99.9461724,201.283451 L99.9461724,205.247839 L99.9461724,205.247839 Z M107.581276,222.51386 C107.581276,223.085829 107.243483,223.546907 106.825517,223.546907 L102.417103,223.546907 C101.999138,223.546907 101.659207,223.085829 101.659207,222.51386 L101.659207,218.550931 C101.659207,217.980421 101.999138,217.517885 102.417103,217.517885 L106.825517,217.517885 C107.243483,217.517885 107.581276,217.980421 107.581276,218.550931 L107.581276,222.51386 L107.581276,222.51386 Z M107.581276,213.88085 C107.581276,214.45136 107.243483,214.913896 106.825517,214.913896 L102.417103,214.913896 C101.999138,214.913896 101.659207,214.45136 101.659207,213.88085 L101.659207,209.917921 C101.659207,209.345951 101.999138,208.886333 102.417103,208.886333 L106.825517,208.886333 C107.243483,208.886333 107.581276,209.345951 107.581276,209.917921 L107.581276,213.88085 L107.581276,213.88085 Z M107.581276,205.247839 C107.581276,205.815431 107.243483,206.279426 106.825517,206.279426 L102.417103,206.279426 C101.999138,206.279426 101.659207,205.815431 101.659207,205.247839 L101.659207,201.283451 C101.659207,200.7144 101.999138,200.251863 102.417103,200.251863 L106.825517,200.251863 C107.243483,200.251863 107.581276,200.7144 107.581276,201.283451 L107.581276,205.247839 L107.581276,205.247839 Z M115.216379,222.51386 C115.216379,223.085829 114.878586,223.546907 114.460621,223.546907 L110.051138,223.546907 C109.636379,223.546907 109.297517,223.085829 109.297517,222.51386 L109.297517,218.550931 C109.297517,217.980421 109.636379,217.517885 110.051138,217.517885 L114.460621,217.517885 C114.878586,217.517885 115.216379,217.980421 115.216379,218.550931 L115.216379,222.51386 L115.216379,222.51386 Z M115.216379,213.88085 C115.216379,214.45136 114.878586,214.913896 114.460621,214.913896 L110.051138,214.913896 C109.636379,214.913896 109.297517,214.45136 109.297517,213.88085 L109.297517,209.917921 C109.297517,209.345951 109.636379,208.886333 110.051138,208.886333 L114.460621,208.886333 C114.878586,208.886333 115.216379,209.345951 115.216379,209.917921 L115.216379,213.88085 L115.216379,213.88085 Z M115.216379,205.247839 C115.216379,205.815431 114.878586,206.279426 114.460621,206.279426 L110.051138,206.279426 C109.636379,206.279426 109.297517,205.815431 109.297517,205.247839 L109.297517,201.283451 C109.297517,200.7144 109.636379,200.251863 110.051138,200.251863 L114.460621,200.251863 C114.878586,200.251863 115.216379,200.7144 115.216379,201.283451 L115.216379,205.247839 L115.216379,205.247839 Z M115.216379,196.105687 C115.216379,196.960761 114.907719,197.647874 114.5258,197.647874 L94.7158439,197.647874 C94.334902,197.647874 94.0262414,196.960761 94.0262414,196.105687 L94.0262414,180.672913 C94.0262414,179.82002 94.334902,179.130726 94.7158439,179.130726 L114.5258,179.130726 C114.907719,179.130726 115.216379,179.82002 115.216379,180.672913 L115.216379,196.105687 L115.216379,196.105687 Z" id="Imported-Layers" fill="#FFFFFF" sketch:type="MSShapeGroup"></path>
            <path d="M223.972,66.46 C224.485336,66.4893335 224.950998,66.5076666 225.369,66.515 C225.787002,66.5223334 226.223331,66.5333333 226.678,66.548 C227.132669,66.5626667 227.642331,66.57 228.207,66.57 L230.286,66.57 C231.224671,66.57 232.03133,66.5663334 232.706,66.559 C233.38067,66.5516666 233.974664,66.5443334 234.488,66.537 C235.001336,66.5296666 235.455998,66.5186667 235.852,66.504 C236.248002,66.4893333 236.643998,66.4673335 237.04,66.438 L236.776,71.41 C237.568004,71.3953333 238.187664,71.3770001 238.635,71.355 C239.082336,71.3329999 239.481998,71.3000002 239.834,71.256 L239.834,72.62 C239.481998,72.5759998 239.075002,72.5430001 238.613,72.521 C238.150998,72.4989999 237.516671,72.4953333 236.71,72.51 L236.49,76.624 C237.018003,76.5799998 237.443332,76.5360002 237.766,76.492 C238.088668,76.4479998 238.337999,76.396667 238.514,76.338 L238.514,78.01 C238.308666,77.9659998 238.041002,77.9293335 237.711,77.9 C237.380998,77.8706665 236.944669,77.8413335 236.402,77.812 C236.343333,78.5160035 236.251667,79.0733313 236.127,79.484 C236.002333,79.8946687 235.797001,80.2136655 235.511,80.441 C235.224999,80.6683345 234.832669,80.8369995 234.334,80.947 C233.835331,81.0570005 233.190004,81.1559996 232.398,81.244 C232.383333,80.9506652 232.317334,80.6683347 232.2,80.397 C232.082666,80.1256653 231.921334,79.8433348 231.716,79.55 C232.34667,79.608667 232.867331,79.6343334 233.278,79.627 C233.688669,79.6196666 234.022332,79.5536673 234.279,79.429 C234.535668,79.3043327 234.726333,79.1100013 234.851,78.846 C234.975667,78.5819987 235.06,78.2153357 235.104,77.746 L228.306,77.746 C227.337995,77.746 226.399338,77.7643331 225.49,77.801 C224.580662,77.8376669 223.818003,77.8926663 223.202,77.966 L223.576,72.51 C222.651995,72.4953333 221.948002,72.4989999 221.464,72.521 C220.979998,72.5430001 220.591335,72.5686665 220.298,72.598 L220.298,71.256 C220.591335,71.2853335 221.020331,71.3146665 221.585,71.344 C222.149669,71.3733335 222.835329,71.388 223.642,71.388 L223.972,66.46 Z M224.852,72.51 L224.566,76.69 L235.192,76.69 L235.434,72.51 L224.852,72.51 Z M231.1,76.338 C230.938666,76.1619991 230.722335,75.9603345 230.451,75.733 C230.179665,75.5056655 229.890002,75.2710012 229.582,75.029 C229.273998,74.7869988 228.958668,74.5560011 228.636,74.336 C228.313332,74.1159989 228.012668,73.9180009 227.734,73.742 L228.438,72.818 C228.672668,72.9646674 228.954998,73.1443323 229.285,73.357 C229.615002,73.5696677 229.944998,73.7933322 230.275,74.028 C230.605002,74.2626678 230.920332,74.4936655 231.221,74.721 C231.521668,74.9483345 231.774666,75.1499991 231.98,75.326 L231.1,76.338 Z M235.478,71.41 L235.698,67.648 L225.182,67.648 L224.918,71.41 L235.478,71.41 Z M231.056,71.19 C230.923999,71.0433326 230.726001,70.8563345 230.462,70.629 C230.197999,70.4016655 229.919335,70.1670012 229.626,69.925 C229.332665,69.6829988 229.039335,69.4520011 228.746,69.232 C228.452665,69.0119989 228.203334,68.8360007 227.998,68.704 L228.79,67.802 C229.010001,67.9340007 229.262999,68.1063323 229.549,68.319 C229.835001,68.5316677 230.124665,68.7516655 230.418,68.979 C230.711335,69.2063345 230.993665,69.4336655 231.265,69.661 C231.536335,69.8883345 231.759999,70.0899991 231.936,70.266 L231.056,71.19 Z M224.852,64.458 C224.602665,64.8686687 224.357001,65.2573315 224.115,65.624 C223.872999,65.9906685 223.623668,66.3499982 223.367,66.702 C223.110332,67.0540018 222.839001,67.4096649 222.553,67.769 C222.266999,68.1283351 221.955335,68.505998 221.618,68.902 C221.427332,68.6233319 221.222001,68.4070008 221.002,68.253 C220.781999,68.0989992 220.503335,67.9780004 220.166,67.89 C220.75267,67.4793313 221.306331,66.9880029 221.827,66.416 C222.347669,65.8439971 222.824331,65.2353366 223.257,64.59 C223.689669,63.9446634 224.067332,63.2883367 224.39,62.621 C224.712668,61.9536633 224.969332,61.3340029 225.16,60.762 C225.409335,60.9673344 225.654999,61.1176662 225.897,61.213 C226.139001,61.3083338 226.435998,61.3926663 226.788,61.466 C226.949334,61.4953335 227.03,61.5613328 227.03,61.664 C227.03,61.7666672 226.942001,61.8546663 226.766,61.928 C226.604666,61.986667 226.432334,62.1223323 226.249,62.335 C226.065666,62.5476677 225.827335,62.8813311 225.534,63.336 L235.5,63.336 C236.145337,63.336 236.739331,63.3213335 237.282,63.292 C237.824669,63.2626665 238.301331,63.2260002 238.712,63.182 L238.712,64.59 C238.301331,64.5459998 237.835669,64.5130001 237.315,64.491 C236.794331,64.4689999 236.182004,64.458 235.478,64.458 L224.852,64.458 Z M243.904,65.536 L242.298,65.536 C242.591335,64.2306601 243.152329,63.2296702 243.981,62.533 C244.809671,61.8363298 245.821661,61.488 247.017,61.488 C248.212339,61.488 249.253662,61.883996 250.141,62.676 C251.028338,63.468004 251.472,64.428661 251.472,65.558 C251.472,66.9220068 250.79734,67.999996 249.448,68.792 C250.372005,69.1733352 251.086997,69.7416629 251.593,70.497 C252.099003,71.2523371 252.352,72.0773289 252.352,72.972 C252.352,74.3653403 251.842338,75.5643283 250.823,76.569 C249.803662,77.5736717 248.516674,78.076 246.962,78.076 C245.583326,78.076 244.446671,77.6836706 243.552,76.899 C242.657329,76.1143294 242.063335,74.9666742 241.77,73.456 L243.31,73.456 C243.588668,74.4973385 244.017664,75.2709975 244.597,75.777 C245.176336,76.2830025 245.993995,76.536 247.05,76.536 C248.106005,76.536 248.99333,76.19867 249.712,75.524 C250.43067,74.84933 250.79,74.0133383 250.79,73.016 C250.79,72.0186617 250.394004,71.2156697 249.602,70.607 C248.809996,69.9983303 247.658674,69.6793335 246.148,69.65 L246.148,68.198 C247.233339,68.198 248.116997,67.9486692 248.799,67.45 C249.481003,66.9513308 249.822,66.3316704 249.822,65.591 C249.822,64.8503296 249.547003,64.2343358 248.997,63.743 C248.446997,63.2516642 247.783337,63.006 247.006,63.006 C246.228663,63.006 245.601669,63.2149979 245.125,63.633 C244.648331,64.0510021 244.241335,64.6853291 243.904,65.536 Z M258.622,81.2 L257.126,81.2 C257.155333,80.7893313 257.181,80.3933352 257.203,80.012 C257.225,79.6306648 257.236,79.2273355 257.236,78.802 L257.236,73.72 C257.236,73.5879993 257.232333,73.4340009 257.225,73.258 L257.203,72.73 C257.195667,72.5539991 257.184667,72.3926674 257.17,72.246 C257.155333,72.0993326 257.140667,71.9820004 257.126,71.894 C257.331334,71.9086667 257.664998,71.9269999 258.127,71.949 C258.589002,71.9710001 259.131664,71.9893333 259.755,72.004 C260.378336,72.0186667 261.052996,72.0296666 261.779,72.037 C262.505004,72.0443334 263.22733,72.048 263.946,72.048 C265.955343,72.048 267.535661,72.0333335 268.687,72.004 C269.838339,71.9746665 270.648664,71.9380002 271.118,71.894 C271.088667,72.0700009 271.063,72.3413315 271.041,72.708 C271.019,73.0746685 271.008,73.4706645 271.008,73.896 L271.008,78.846 L271.008,79.968 C271.008,80.305335 271.015333,80.6573315 271.03,81.024 L269.534,81.024 L269.534,79.506 L258.622,79.506 L258.622,81.2 Z M269.534,73.214 L258.622,73.214 L258.622,78.362 L269.534,78.362 L269.534,73.214 Z M269.952,68.176 C269.335997,67.4866632 268.727336,66.874336 268.126,66.339 C267.524664,65.803664 266.835337,65.2426696 266.058,64.656 L267.092,63.754 C268.192005,64.6780046 269.251662,65.6166619 270.271,66.57 C271.290338,67.5233381 272.327995,68.5866608 273.384,69.76 L272.086,70.728 C271.821999,70.390665 271.602001,70.1120011 271.426,69.892 C271.249999,69.6719989 271.066668,69.4593344 270.876,69.254 C268.93999,69.3273337 267.26434,69.393333 265.849,69.452 C264.43366,69.510667 263.209005,69.5619998 262.175,69.606 C261.140995,69.6500002 260.27567,69.6939998 259.579,69.738 C258.88233,69.7820002 258.295669,69.8259998 257.819,69.87 C257.342331,69.9140002 256.939002,69.9616664 256.609,70.013 C256.278998,70.0643336 255.967335,70.1266663 255.674,70.2 C255.600666,69.862665 255.516334,69.5730012 255.421,69.331 C255.325666,69.0889988 255.182668,68.799335 254.992,68.462 C255.432002,68.5060002 256.003996,68.528 256.708,68.528 C257.412004,67.8239965 258.104997,67.1016704 258.787,66.361 C259.469003,65.6203296 260.099664,64.9053368 260.679,64.216 C261.258336,63.5266632 261.764331,62.8923362 262.197,62.313 C262.629669,61.7336638 262.948666,61.2533352 263.154,60.872 C263.476668,61.0920011 263.751666,61.2606661 263.979,61.378 C264.206334,61.4953339 264.473998,61.6126661 264.782,61.73 C265.075335,61.8326672 265.218333,61.9463327 265.211,62.071 C265.203667,62.1956673 265.038668,62.2726665 264.716,62.302 C264.598666,62.3166667 264.433668,62.4009992 264.221,62.555 C264.008332,62.7090008 263.696669,62.9986645 263.286,63.424 C262.420662,64.3040044 261.595671,65.1509959 260.811,65.965 C260.026329,66.7790041 259.216004,67.6259956 258.38,68.506 L269.952,68.176 Z M281.656,62.742 C281.656,62.404665 281.776999,62.1113346 282.019,61.862 C282.261001,61.6126654 282.554332,61.488 282.899,61.488 C283.243668,61.488 283.536999,61.6089988 283.779,61.851 C284.021001,62.0930012 284.142,62.3863316 284.142,62.731 C284.142,63.0756684 284.021001,63.3689988 283.779,63.611 C283.536999,63.8530012 283.243668,63.974 282.899,63.974 C282.554332,63.974 282.261001,63.8493346 282.019,63.6 C281.776999,63.3506654 281.656,63.0646683 281.656,62.742 Z M282.14,65.998 L283.658,65.998 L283.658,77.68 L282.14,77.68 L282.14,65.998 Z M287.002,61.884 L290.148,61.884 C292.010676,61.884 293.227997,61.9573326 293.8,62.104 C294.372003,62.2506674 294.896331,62.5073315 295.373,62.874 C295.849669,63.2406685 296.219999,63.6989972 296.484,64.249 C296.748001,64.7990027 296.88,65.41133 296.88,66.086 C296.88,67.1713388 296.58667,68.0586632 296,68.748 C295.41333,69.4373368 294.676338,69.8736658 293.789,70.057 C292.901662,70.2403342 291.541343,70.332 289.708,70.332 L288.586,70.332 L288.586,77.68 L287.002,77.68 L287.002,61.884 Z M288.586,63.424 L288.586,68.814 L291.248,68.814 C292.846675,68.8433335 293.909997,68.5830028 294.438,68.033 C294.966003,67.4829972 295.23,66.8340037 295.23,66.086 C295.23,64.3113245 293.94668,63.424 291.38,63.424 L288.586,63.424 Z M311.422,65.998 L311.422,77.68 L309.948,77.68 L309.948,75.678 C308.613327,77.2766747 307.088009,78.076 305.372,78.076 C303.655991,78.076 302.207673,77.4636728 301.027,76.239 C299.846327,75.0143272 299.256,73.5550085 299.256,71.861 C299.256,70.1669915 299.849994,68.715006 301.038,67.505 C302.226006,66.2949939 303.648658,65.69 305.306,65.69 C307.212676,65.69 308.759994,66.5039919 309.948,68.132 L309.948,65.998 L311.422,65.998 Z M310.036,71.894 C310.036,70.5593267 309.588671,69.4336712 308.694,68.517 C307.799329,67.6003287 306.703006,67.142 305.405,67.142 C304.106994,67.142 303.010671,67.6149953 302.116,68.561 C301.221329,69.5070047 300.774,70.6253269 300.774,71.916 C300.774,73.2066731 301.228662,74.3249953 302.138,75.271 C303.047338,76.2170047 304.136327,76.69 305.405,76.69 C306.673673,76.69 307.762662,76.2353379 308.672,75.326 C309.581338,74.4166621 310.036,73.2726736 310.036,71.894 Z M326.47,61.488 L326.47,77.68 L324.996,77.68 L324.996,75.678 C323.661327,77.2766747 322.132342,78.076 320.409,78.076 C318.685658,78.076 317.237339,77.4673394 316.064,76.25 C314.890661,75.0326606 314.304,73.5733418 314.304,71.872 C314.304,70.1706582 314.897994,68.715006 316.086,67.505 C317.274006,66.2949939 318.696658,65.69 320.354,65.69 C322.260676,65.69 323.807994,66.5039919 324.996,68.132 L324.996,61.488 L326.47,61.488 Z M325.084,71.916 C325.084,70.5813267 324.644004,69.4520046 323.764,68.528 C322.883996,67.6039954 321.784007,67.142 320.464,67.142 C319.143993,67.142 318.040338,67.6149953 317.153,68.561 C316.265662,69.5070047 315.822,70.6216603 315.822,71.905 C315.822,73.1883397 316.276662,74.3066619 317.186,75.26 C318.095338,76.2133381 319.16966,76.69 320.409,76.69 C321.64834,76.69 322.737329,76.2390045 323.676,75.337 C324.614671,74.4349955 325.084,73.2946736 325.084,71.916 Z M223.972,91.46 C224.485336,91.4893335 224.950998,91.5076666 225.369,91.515 C225.787002,91.5223334 226.223331,91.5333333 226.678,91.548 C227.132669,91.5626667 227.642331,91.57 228.207,91.57 L230.286,91.57 C231.224671,91.57 232.03133,91.5663334 232.706,91.559 C233.38067,91.5516666 233.974664,91.5443334 234.488,91.537 C235.001336,91.5296666 235.455998,91.5186667 235.852,91.504 C236.248002,91.4893333 236.643998,91.4673335 237.04,91.438 L236.776,96.41 C237.568004,96.3953333 238.187664,96.3770001 238.635,96.355 C239.082336,96.3329999 239.481998,96.3000002 239.834,96.256 L239.834,97.62 C239.481998,97.5759998 239.075002,97.5430001 238.613,97.521 C238.150998,97.4989999 237.516671,97.4953333 236.71,97.51 L236.49,101.624 C237.018003,101.58 237.443332,101.536 237.766,101.492 C238.088668,101.448 238.337999,101.396667 238.514,101.338 L238.514,103.01 C238.308666,102.966 238.041002,102.929333 237.711,102.9 C237.380998,102.870667 236.944669,102.841333 236.402,102.812 C236.343333,103.516004 236.251667,104.073331 236.127,104.484 C236.002333,104.894669 235.797001,105.213666 235.511,105.441 C235.224999,105.668334 234.832669,105.836999 234.334,105.947 C233.835331,106.057001 233.190004,106.156 232.398,106.244 C232.383333,105.950665 232.317334,105.668335 232.2,105.397 C232.082666,105.125665 231.921334,104.843335 231.716,104.55 C232.34667,104.608667 232.867331,104.634333 233.278,104.627 C233.688669,104.619667 234.022332,104.553667 234.279,104.429 C234.535668,104.304333 234.726333,104.110001 234.851,103.846 C234.975667,103.581999 235.06,103.215336 235.104,102.746 L228.306,102.746 C227.337995,102.746 226.399338,102.764333 225.49,102.801 C224.580662,102.837667 223.818003,102.892666 223.202,102.966 L223.576,97.51 C222.651995,97.4953333 221.948002,97.4989999 221.464,97.521 C220.979998,97.5430001 220.591335,97.5686665 220.298,97.598 L220.298,96.256 C220.591335,96.2853335 221.020331,96.3146665 221.585,96.344 C222.149669,96.3733335 222.835329,96.388 223.642,96.388 L223.972,91.46 Z M224.852,97.51 L224.566,101.69 L235.192,101.69 L235.434,97.51 L224.852,97.51 Z M231.1,101.338 C230.938666,101.161999 230.722335,100.960334 230.451,100.733 C230.179665,100.505666 229.890002,100.271001 229.582,100.029 C229.273998,99.7869988 228.958668,99.5560011 228.636,99.336 C228.313332,99.1159989 228.012668,98.9180009 227.734,98.742 L228.438,97.818 C228.672668,97.9646674 228.954998,98.1443323 229.285,98.357 C229.615002,98.5696677 229.944998,98.7933322 230.275,99.028 C230.605002,99.2626678 230.920332,99.4936655 231.221,99.721 C231.521668,99.9483345 231.774666,100.149999 231.98,100.326 L231.1,101.338 Z M235.478,96.41 L235.698,92.648 L225.182,92.648 L224.918,96.41 L235.478,96.41 Z M231.056,96.19 C230.923999,96.0433326 230.726001,95.8563345 230.462,95.629 C230.197999,95.4016655 229.919335,95.1670012 229.626,94.925 C229.332665,94.6829988 229.039335,94.4520011 228.746,94.232 C228.452665,94.0119989 228.203334,93.8360007 227.998,93.704 L228.79,92.802 C229.010001,92.9340007 229.262999,93.1063323 229.549,93.319 C229.835001,93.5316677 230.124665,93.7516655 230.418,93.979 C230.711335,94.2063345 230.993665,94.4336655 231.265,94.661 C231.536335,94.8883345 231.759999,95.0899991 231.936,95.266 L231.056,96.19 Z M224.852,89.458 C224.602665,89.8686687 224.357001,90.2573315 224.115,90.624 C223.872999,90.9906685 223.623668,91.3499982 223.367,91.702 C223.110332,92.0540018 222.839001,92.4096649 222.553,92.769 C222.266999,93.1283351 221.955335,93.505998 221.618,93.902 C221.427332,93.6233319 221.222001,93.4070008 221.002,93.253 C220.781999,93.0989992 220.503335,92.9780004 220.166,92.89 C220.75267,92.4793313 221.306331,91.9880029 221.827,91.416 C222.347669,90.8439971 222.824331,90.2353366 223.257,89.59 C223.689669,88.9446634 224.067332,88.2883367 224.39,87.621 C224.712668,86.9536633 224.969332,86.3340029 225.16,85.762 C225.409335,85.9673344 225.654999,86.1176662 225.897,86.213 C226.139001,86.3083338 226.435998,86.3926663 226.788,86.466 C226.949334,86.4953335 227.03,86.5613328 227.03,86.664 C227.03,86.7666672 226.942001,86.8546663 226.766,86.928 C226.604666,86.986667 226.432334,87.1223323 226.249,87.335 C226.065666,87.5476677 225.827335,87.8813311 225.534,88.336 L235.5,88.336 C236.145337,88.336 236.739331,88.3213335 237.282,88.292 C237.824669,88.2626665 238.301331,88.2260002 238.712,88.182 L238.712,89.59 C238.301331,89.5459998 237.835669,89.5130001 237.315,89.491 C236.794331,89.4689999 236.182004,89.458 235.478,89.458 L224.852,89.458 Z M250.372,86.488 L250.68,86.488 L250.68,97.488 L252.594,97.488 L252.594,99.006 L250.68,99.006 L250.68,102.68 L249.118,102.68 L249.118,99.006 L241.55,99.006 L250.372,86.488 Z M249.118,97.488 L249.118,90.91 L244.454,97.488 L249.118,97.488 Z M258.622,106.2 L257.126,106.2 C257.155333,105.789331 257.181,105.393335 257.203,105.012 C257.225,104.630665 257.236,104.227335 257.236,103.802 L257.236,98.72 C257.236,98.5879993 257.232333,98.4340009 257.225,98.258 L257.203,97.73 C257.195667,97.5539991 257.184667,97.3926674 257.17,97.246 C257.155333,97.0993326 257.140667,96.9820004 257.126,96.894 C257.331334,96.9086667 257.664998,96.9269999 258.127,96.949 C258.589002,96.9710001 259.131664,96.9893333 259.755,97.004 C260.378336,97.0186667 261.052996,97.0296666 261.779,97.037 C262.505004,97.0443334 263.22733,97.048 263.946,97.048 C265.955343,97.048 267.535661,97.0333335 268.687,97.004 C269.838339,96.9746665 270.648664,96.9380002 271.118,96.894 C271.088667,97.0700009 271.063,97.3413315 271.041,97.708 C271.019,98.0746685 271.008,98.4706645 271.008,98.896 L271.008,103.846 L271.008,104.968 C271.008,105.305335 271.015333,105.657331 271.03,106.024 L269.534,106.024 L269.534,104.506 L258.622,104.506 L258.622,106.2 Z M269.534,98.214 L258.622,98.214 L258.622,103.362 L269.534,103.362 L269.534,98.214 Z M269.952,93.176 C269.335997,92.4866632 268.727336,91.874336 268.126,91.339 C267.524664,90.803664 266.835337,90.2426696 266.058,89.656 L267.092,88.754 C268.192005,89.6780046 269.251662,90.6166619 270.271,91.57 C271.290338,92.5233381 272.327995,93.5866608 273.384,94.76 L272.086,95.728 C271.821999,95.390665 271.602001,95.1120011 271.426,94.892 C271.249999,94.6719989 271.066668,94.4593344 270.876,94.254 C268.93999,94.3273337 267.26434,94.393333 265.849,94.452 C264.43366,94.510667 263.209005,94.5619998 262.175,94.606 C261.140995,94.6500002 260.27567,94.6939998 259.579,94.738 C258.88233,94.7820002 258.295669,94.8259998 257.819,94.87 C257.342331,94.9140002 256.939002,94.9616664 256.609,95.013 C256.278998,95.0643336 255.967335,95.1266663 255.674,95.2 C255.600666,94.862665 255.516334,94.5730012 255.421,94.331 C255.325666,94.0889988 255.182668,93.799335 254.992,93.462 C255.432002,93.5060002 256.003996,93.528 256.708,93.528 C257.412004,92.8239965 258.104997,92.1016704 258.787,91.361 C259.469003,90.6203296 260.099664,89.9053368 260.679,89.216 C261.258336,88.5266632 261.764331,87.8923362 262.197,87.313 C262.629669,86.7336638 262.948666,86.2533352 263.154,85.872 C263.476668,86.0920011 263.751666,86.2606661 263.979,86.378 C264.206334,86.4953339 264.473998,86.6126661 264.782,86.73 C265.075335,86.8326672 265.218333,86.9463327 265.211,87.071 C265.203667,87.1956673 265.038668,87.2726665 264.716,87.302 C264.598666,87.3166667 264.433668,87.4009992 264.221,87.555 C264.008332,87.7090008 263.696669,87.9986645 263.286,88.424 C262.420662,89.3040044 261.595671,90.1509959 260.811,90.965 C260.026329,91.7790041 259.216004,92.6259956 258.38,93.506 L269.952,93.176 Z M281.656,87.742 C281.656,87.404665 281.776999,87.1113346 282.019,86.862 C282.261001,86.6126654 282.554332,86.488 282.899,86.488 C283.243668,86.488 283.536999,86.6089988 283.779,86.851 C284.021001,87.0930012 284.142,87.3863316 284.142,87.731 C284.142,88.0756684 284.021001,88.3689988 283.779,88.611 C283.536999,88.8530012 283.243668,88.974 282.899,88.974 C282.554332,88.974 282.261001,88.8493346 282.019,88.6 C281.776999,88.3506654 281.656,88.0646683 281.656,87.742 Z M282.14,90.998 L283.658,90.998 L283.658,102.68 L282.14,102.68 L282.14,90.998 Z M287.002,86.884 L290.148,86.884 C292.010676,86.884 293.227997,86.9573326 293.8,87.104 C294.372003,87.2506674 294.896331,87.5073315 295.373,87.874 C295.849669,88.2406685 296.219999,88.6989973 296.484,89.249 C296.748001,89.7990027 296.88,90.41133 296.88,91.086 C296.88,92.1713388 296.58667,93.0586632 296,93.748 C295.41333,94.4373368 294.676338,94.8736658 293.789,95.057 C292.901662,95.2403343 291.541343,95.332 289.708,95.332 L288.586,95.332 L288.586,102.68 L287.002,102.68 L287.002,86.884 Z M288.586,88.424 L288.586,93.814 L291.248,93.814 C292.846675,93.8433335 293.909997,93.5830028 294.438,93.033 C294.966003,92.4829973 295.23,91.8340037 295.23,91.086 C295.23,89.3113245 293.94668,88.424 291.38,88.424 L288.586,88.424 Z M299.784,86.488 L301.302,86.488 L301.302,93.088 C302.504673,91.4893253 303.963991,90.69 305.68,90.69 C306.560004,90.69 307.351996,90.928331 308.056,91.405 C308.760004,91.881669 309.258665,92.5049962 309.552,93.275 C309.845335,94.0450039 309.992,95.1779925 309.992,96.674 L309.992,102.68 L308.474,102.68 L308.474,97.114 C308.474,95.9113273 308.437334,95.0826689 308.364,94.628 C308.290666,94.1733311 308.129335,93.7406687 307.88,93.33 C307.630665,92.9193313 307.297002,92.6076677 306.879,92.395 C306.460998,92.1823323 305.955003,92.076 305.361,92.076 C304.766997,92.076 304.198669,92.2153319 303.656,92.494 C303.113331,92.7726681 302.651335,93.1613308 302.27,93.66 C301.888665,94.1586692 301.632001,94.6719974 301.5,95.2 C301.367999,95.7280026 301.302,96.7913253 301.302,98.39 L301.302,102.68 L299.784,102.68 L299.784,86.488 Z M312.654,96.916 C312.654,95.1999914 313.244327,93.7333394 314.425,92.516 C315.605673,91.2986606 317.042992,90.69 318.737,90.69 C320.431008,90.69 321.868327,91.2986606 323.049,92.516 C324.229673,93.7333394 324.82,95.1926582 324.82,96.894 C324.82,98.5953418 324.237006,100.050994 323.071,101.261 C321.904994,102.471006 320.464009,103.076 318.748,103.076 C317.031991,103.076 315.587339,102.471006 314.414,101.261 C313.240661,100.050994 312.654,98.6026751 312.654,96.916 Z M323.302,96.938 C323.302,95.6473269 322.851005,94.5290047 321.949,93.583 C321.046995,92.6369953 319.97634,92.164 318.737,92.164 C317.49766,92.164 316.430671,92.6369953 315.536,93.583 C314.641329,94.5290047 314.194,95.6546601 314.194,96.96 C314.194,98.2653399 314.626662,99.3726621 315.492,100.282 C316.357338,101.191338 317.43166,101.646 318.715,101.646 C319.99834,101.646 321.083662,101.187671 321.971,100.271 C322.858338,99.3543287 323.302,98.2433399 323.302,96.938 Z M327.614,90.998 L329.132,90.998 L329.132,93.088 C330.334673,91.4893253 331.793991,90.69 333.51,90.69 C334.390004,90.69 335.181996,90.928331 335.886,91.405 C336.590004,91.881669 337.088665,92.5049962 337.382,93.275 C337.675335,94.0450039 337.822,95.1779925 337.822,96.674 L337.822,102.68 L336.326,102.68 L336.326,97.114 C336.326,95.7499932 336.263667,94.8260024 336.139,94.342 C336.014333,93.8579976 335.823668,93.447335 335.567,93.11 C335.310332,92.772665 334.984002,92.5160009 334.588,92.34 C334.191998,92.1639991 333.711669,92.076 333.147,92.076 C332.582331,92.076 332.028669,92.2153319 331.486,92.494 C330.943331,92.7726681 330.481335,93.1613308 330.1,93.66 C329.718665,94.1586692 329.462001,94.6719974 329.33,95.2 C329.197999,95.7280026 329.132,96.7913253 329.132,98.39 L329.132,102.68 L327.614,102.68 L327.614,90.998 Z M350.868,98.896 L352.144,99.556 C350.88266,101.902678 349.020012,103.076 346.556,103.076 C344.795991,103.076 343.344006,102.471006 342.2,101.261 C341.055994,100.050994 340.484,98.5953418 340.484,96.894 C340.484,95.1926582 341.059661,93.7333394 342.211,92.516 C343.362339,91.2986606 344.784992,90.69 346.479,90.69 C348.173008,90.69 349.595661,91.254661 350.747,92.384 C351.898339,93.513339 352.496,95.0533236 352.54,97.004 L342.024,97.004 C342.068,98.412007 342.511662,99.5449957 343.355,100.403 C344.198338,101.261004 345.221327,101.69 346.424,101.69 C348.40401,101.69 349.885328,100.758676 350.868,98.896 Z M350.868,95.706 C350.662666,94.5913278 350.149337,93.7186698 349.328,93.088 C348.506663,92.4573302 347.560672,92.142 346.49,92.142 C344.289989,92.142 342.85267,93.3299881 342.178,95.706 L350.868,95.706 Z M223.972,116.46 C224.485336,116.489333 224.950998,116.507667 225.369,116.515 C225.787002,116.522333 226.223331,116.533333 226.678,116.548 C227.132669,116.562667 227.642331,116.57 228.207,116.57 C228.771669,116.57 229.464663,116.57 230.286,116.57 C231.224671,116.57 232.03133,116.566333 232.706,116.559 C233.38067,116.551667 233.974664,116.544333 234.488,116.537 C235.001336,116.529667 235.455998,116.518667 235.852,116.504 C236.248002,116.489333 236.643998,116.467333 237.04,116.438 L236.776,121.41 C237.568004,121.395333 238.187664,121.377 238.635,121.355 C239.082336,121.333 239.481998,121.3 239.834,121.256 L239.834,122.62 C239.481998,122.576 239.075002,122.543 238.613,122.521 C238.150998,122.499 237.516671,122.495333 236.71,122.51 L236.49,126.624 C237.018003,126.58 237.443332,126.536 237.766,126.492 C238.088668,126.448 238.337999,126.396667 238.514,126.338 L238.514,128.01 C238.308666,127.966 238.041002,127.929333 237.711,127.9 C237.380998,127.870667 236.944669,127.841333 236.402,127.812 C236.343333,128.516004 236.251667,129.073331 236.127,129.484 C236.002333,129.894669 235.797001,130.213666 235.511,130.441 C235.224999,130.668334 234.832669,130.836999 234.334,130.947 C233.835331,131.057001 233.190004,131.156 232.398,131.244 C232.383333,130.950665 232.317334,130.668335 232.2,130.397 C232.082666,130.125665 231.921334,129.843335 231.716,129.55 C232.34667,129.608667 232.867331,129.634333 233.278,129.627 C233.688669,129.619667 234.022332,129.553667 234.279,129.429 C234.535668,129.304333 234.726333,129.110001 234.851,128.846 C234.975667,128.581999 235.06,128.215336 235.104,127.746 L228.306,127.746 C227.337995,127.746 226.399338,127.764333 225.49,127.801 C224.580662,127.837667 223.818003,127.892666 223.202,127.966 L223.576,122.51 C222.651995,122.495333 221.948002,122.499 221.464,122.521 C220.979998,122.543 220.591335,122.568667 220.298,122.598 L220.298,121.256 C220.591335,121.285333 221.020331,121.314667 221.585,121.344 C222.149669,121.373333 222.835329,121.388 223.642,121.388 L223.972,116.46 Z M224.852,122.51 L224.566,126.69 L235.192,126.69 L235.434,122.51 L224.852,122.51 Z M231.1,126.338 C230.938666,126.161999 230.722335,125.960334 230.451,125.733 C230.179665,125.505666 229.890002,125.271001 229.582,125.029 C229.273998,124.786999 228.958668,124.556001 228.636,124.336 C228.313332,124.115999 228.012668,123.918001 227.734,123.742 L228.438,122.818 C228.672668,122.964667 228.954998,123.144332 229.285,123.357 C229.615002,123.569668 229.944998,123.793332 230.275,124.028 C230.605002,124.262668 230.920332,124.493666 231.221,124.721 C231.521668,124.948334 231.774666,125.149999 231.98,125.326 L231.1,126.338 Z M235.478,121.41 L235.698,117.648 L225.182,117.648 L224.918,121.41 L235.478,121.41 Z M231.056,121.19 C230.923999,121.043333 230.726001,120.856334 230.462,120.629 C230.197999,120.401666 229.919335,120.167001 229.626,119.925 C229.332665,119.682999 229.039335,119.452001 228.746,119.232 C228.452665,119.011999 228.203334,118.836001 227.998,118.704 L228.79,117.802 C229.010001,117.934001 229.262999,118.106332 229.549,118.319 C229.835001,118.531668 230.124665,118.751666 230.418,118.979 C230.711335,119.206334 230.993665,119.433666 231.265,119.661 C231.536335,119.888334 231.759999,120.089999 231.936,120.266 L231.056,121.19 Z M224.852,114.458 C224.602665,114.868669 224.357001,115.257331 224.115,115.624 C223.872999,115.990668 223.623668,116.349998 223.367,116.702 C223.110332,117.054002 222.839001,117.409665 222.553,117.769 C222.266999,118.128335 221.955335,118.505998 221.618,118.902 C221.427332,118.623332 221.222001,118.407001 221.002,118.253 C220.781999,118.098999 220.503335,117.978 220.166,117.89 C220.75267,117.479331 221.306331,116.988003 221.827,116.416 C222.347669,115.843997 222.824331,115.235337 223.257,114.59 C223.689669,113.944663 224.067332,113.288337 224.39,112.621 C224.712668,111.953663 224.969332,111.334003 225.16,110.762 C225.409335,110.967334 225.654999,111.117666 225.897,111.213 C226.139001,111.308334 226.435998,111.392666 226.788,111.466 C226.949334,111.495333 227.03,111.561333 227.03,111.664 C227.03,111.766667 226.942001,111.854666 226.766,111.928 C226.604666,111.986667 226.432334,112.122332 226.249,112.335 C226.065666,112.547668 225.827335,112.881331 225.534,113.336 L235.5,113.336 C236.145337,113.336 236.739331,113.321333 237.282,113.292 C237.824669,113.262667 238.301331,113.226 238.712,113.182 L238.712,114.59 C238.301331,114.546 237.835669,114.513 237.315,114.491 C236.794331,114.469 236.182004,114.458 235.478,114.458 L224.852,114.458 Z M251.824,111.884 L251.824,113.38 L246.192,113.38 L245.4,117.692 C246.104004,117.486666 246.763997,117.384 247.38,117.384 C248.758674,117.384 249.909995,117.871662 250.834,118.847 C251.758005,119.822338 252.22,121.072659 252.22,122.598 C252.22,124.123341 251.717672,125.417661 250.713,126.481 C249.708328,127.544339 248.377342,128.076 246.72,128.076 C245.45866,128.076 244.384338,127.698337 243.497,126.943 C242.609662,126.187663 242.078001,125.15734 241.902,123.852 L243.508,123.852 C243.698668,124.732004 244.094664,125.406664 244.696,125.876 C245.297336,126.345336 245.993996,126.58 246.786,126.58 C247.827339,126.58 248.725663,126.191337 249.481,125.414 C250.236337,124.636663 250.614,123.668672 250.614,122.51 C250.614,121.453995 250.284003,120.585003 249.624,119.903 C248.963997,119.220997 248.102339,118.88 247.039,118.88 C245.975661,118.88 244.798673,119.158664 243.508,119.716 L244.982,111.884 L251.824,111.884 Z M258.622,131.2 L257.126,131.2 C257.155333,130.789331 257.181,130.393335 257.203,130.012 C257.225,129.630665 257.236,129.227335 257.236,128.802 L257.236,123.72 C257.236,123.587999 257.232333,123.434001 257.225,123.258 L257.203,122.73 C257.195667,122.553999 257.184667,122.392667 257.17,122.246 C257.155333,122.099333 257.140667,121.982 257.126,121.894 C257.331334,121.908667 257.664998,121.927 258.127,121.949 C258.589002,121.971 259.131664,121.989333 259.755,122.004 C260.378336,122.018667 261.052996,122.029667 261.779,122.037 C262.505004,122.044333 263.22733,122.048 263.946,122.048 C265.955343,122.048 267.535661,122.033333 268.687,122.004 C269.838339,121.974667 270.648664,121.938 271.118,121.894 C271.088667,122.070001 271.063,122.341331 271.041,122.708 C271.019,123.074669 271.008,123.470665 271.008,123.896 L271.008,128.846 L271.008,129.968 C271.008,130.305335 271.015333,130.657331 271.03,131.024 L269.534,131.024 L269.534,129.506 L258.622,129.506 L258.622,131.2 Z M269.534,123.214 L258.622,123.214 L258.622,128.362 L269.534,128.362 L269.534,123.214 Z M269.952,118.176 C269.335997,117.486663 268.727336,116.874336 268.126,116.339 C267.524664,115.803664 266.835337,115.24267 266.058,114.656 L267.092,113.754 C268.192005,114.678005 269.251662,115.616662 270.271,116.57 C271.290338,117.523338 272.327995,118.586661 273.384,119.76 L272.086,120.728 C271.821999,120.390665 271.602001,120.112001 271.426,119.892 C271.249999,119.671999 271.066668,119.459334 270.876,119.254 C268.93999,119.327334 267.26434,119.393333 265.849,119.452 C264.43366,119.510667 263.209005,119.562 262.175,119.606 C261.140995,119.65 260.27567,119.694 259.579,119.738 C258.88233,119.782 258.295669,119.826 257.819,119.87 C257.342331,119.914 256.939002,119.961666 256.609,120.013 C256.278998,120.064334 255.967335,120.126666 255.674,120.2 C255.600666,119.862665 255.516334,119.573001 255.421,119.331 C255.325666,119.088999 255.182668,118.799335 254.992,118.462 C255.432002,118.506 256.003996,118.528 256.708,118.528 C257.412004,117.823996 258.104997,117.10167 258.787,116.361 C259.469003,115.62033 260.099664,114.905337 260.679,114.216 C261.258336,113.526663 261.764331,112.892336 262.197,112.313 C262.629669,111.733664 262.948666,111.253335 263.154,110.872 C263.476668,111.092001 263.751666,111.260666 263.979,111.378 C264.206334,111.495334 264.473998,111.612666 264.782,111.73 C265.075335,111.832667 265.218333,111.946333 265.211,112.071 C265.203667,112.195667 265.038668,112.272667 264.716,112.302 C264.598666,112.316667 264.433668,112.400999 264.221,112.555 C264.008332,112.709001 263.696669,112.998665 263.286,113.424 C262.420662,114.304004 261.595671,115.150996 260.811,115.965 C260.026329,116.779004 259.216004,117.625996 258.38,118.506 L269.952,118.176 Z M289.07,111.246 L296.44,127.68 L294.746,127.68 L292.26,122.29 L285.44,122.29 L282.976,127.68 L281.216,127.68 L288.674,111.246 L289.07,111.246 Z M288.872,114.744 L286.166,120.684 L291.556,120.684 L288.872,114.744 Z M298.64,115.998 L300.158,115.998 L300.158,118.088 C301.360673,116.489325 302.819991,115.69 304.536,115.69 C305.416004,115.69 306.207996,115.928331 306.912,116.405 C307.616004,116.881669 308.114665,117.504996 308.408,118.275 C308.701335,119.045004 308.848,120.177993 308.848,121.674 L308.848,127.68 L307.352,127.68 L307.352,122.114 C307.352,120.749993 307.289667,119.826002 307.165,119.342 C307.040333,118.857998 306.849668,118.447335 306.593,118.11 C306.336332,117.772665 306.010002,117.516001 305.614,117.34 C305.217998,117.163999 304.737669,117.076 304.173,117.076 C303.608331,117.076 303.054669,117.215332 302.512,117.494 C301.969331,117.772668 301.507335,118.161331 301.126,118.66 C300.744665,119.158669 300.488001,119.671997 300.356,120.2 C300.223999,120.728003 300.158,121.791325 300.158,123.39 L300.158,127.68 L298.64,127.68 L298.64,115.998 Z M323.72,111.488 L323.72,127.68 L322.246,127.68 L322.246,125.678 C320.911327,127.276675 319.382342,128.076 317.659,128.076 C315.935658,128.076 314.487339,127.467339 313.314,126.25 C312.140661,125.032661 311.554,123.573342 311.554,121.872 C311.554,120.170658 312.147994,118.715006 313.336,117.505 C314.524006,116.294994 315.946658,115.69 317.604,115.69 C319.510676,115.69 321.057994,116.503992 322.246,118.132 L322.246,111.488 L323.72,111.488 Z M322.334,121.916 C322.334,120.581327 321.894004,119.452005 321.014,118.528 C320.133996,117.603995 319.034007,117.142 317.714,117.142 C316.393993,117.142 315.290338,117.614995 314.403,118.561 C313.515662,119.507005 313.072,120.62166 313.072,121.905 C313.072,123.18834 313.526662,124.306662 314.436,125.26 C315.345338,126.213338 316.41966,126.69 317.659,126.69 C318.89834,126.69 319.987329,126.239005 320.926,125.337 C321.864671,124.434995 322.334,123.294674 322.334,121.916 Z M326.558,115.998 L328.098,115.998 L328.098,117.692 C328.508669,117.002663 328.908331,116.496668 329.297,116.174 C329.685669,115.851332 330.118331,115.69 330.595,115.69 C331.071669,115.69 331.551998,115.821999 332.036,116.086 L331.244,117.362 C331.023999,117.229999 330.796668,117.164 330.562,117.164 C330.107331,117.164 329.678335,117.398664 329.275,117.868 C328.871665,118.337336 328.574668,118.94233 328.384,119.683 C328.193332,120.42367 328.098,121.769324 328.098,123.72 L328.098,127.68 L326.558,127.68 L326.558,115.998 Z M333.202,121.916 C333.202,120.199991 333.792327,118.733339 334.973,117.516 C336.153673,116.298661 337.590992,115.69 339.285,115.69 C340.979008,115.69 342.416327,116.298661 343.597,117.516 C344.777673,118.733339 345.368,120.192658 345.368,121.894 C345.368,123.595342 344.785006,125.050994 343.619,126.261 C342.452994,127.471006 341.012009,128.076 339.296,128.076 C337.579991,128.076 336.135339,127.471006 334.962,126.261 C333.788661,125.050994 333.202,123.602675 333.202,121.916 Z M343.85,121.938 C343.85,120.647327 343.399005,119.529005 342.497,118.583 C341.594995,117.636995 340.52434,117.164 339.285,117.164 C338.04566,117.164 336.978671,117.636995 336.084,118.583 C335.189329,119.529005 334.742,120.65466 334.742,121.96 C334.742,123.26534 335.174662,124.372662 336.04,125.282 C336.905338,126.191338 337.97966,126.646 339.263,126.646 C340.54634,126.646 341.631662,126.187671 342.519,125.271 C343.406338,124.354329 343.85,123.24334 343.85,121.938 Z M347.458,112.742 C347.458,112.404665 347.578999,112.111335 347.821,111.862 C348.063001,111.612665 348.356332,111.488 348.701,111.488 C349.045668,111.488 349.338999,111.608999 349.581,111.851 C349.823001,112.093001 349.944,112.386332 349.944,112.731 C349.944,113.075668 349.823001,113.368999 349.581,113.611 C349.338999,113.853001 349.045668,113.974 348.701,113.974 C348.356332,113.974 348.063001,113.849335 347.821,113.6 C347.578999,113.350665 347.458,113.064668 347.458,112.742 Z M347.942,115.998 L349.46,115.998 L349.46,127.68 L347.942,127.68 L347.942,115.998 Z M364.222,111.488 L364.222,127.68 L362.748,127.68 L362.748,125.678 C361.413327,127.276675 359.884342,128.076 358.161,128.076 C356.437658,128.076 354.989339,127.467339 353.816,126.25 C352.642661,125.032661 352.056,123.573342 352.056,121.872 C352.056,120.170658 352.649994,118.715006 353.838,117.505 C355.026006,116.294994 356.448658,115.69 358.106,115.69 C360.012676,115.69 361.559994,116.503992 362.748,118.132 L362.748,111.488 L364.222,111.488 Z M362.836,121.916 C362.836,120.581327 362.396004,119.452005 361.516,118.528 C360.635996,117.603995 359.536007,117.142 358.216,117.142 C356.895993,117.142 355.792338,117.614995 354.905,118.561 C354.017662,119.507005 353.574,120.62166 353.574,121.905 C353.574,123.18834 354.028662,124.306662 354.938,125.26 C355.847338,126.213338 356.92166,126.69 358.161,126.69 C359.40034,126.69 360.489329,126.239005 361.428,125.337 C362.366671,124.434995 362.836,123.294674 362.836,121.916 Z M227.47,165.008 C226.736663,165.008 226.084003,165.015333 225.512,165.03 C224.939997,165.044667 224.404669,165.059333 223.906,165.074 C223.407331,165.088667 222.923336,165.107 222.454,165.129 C221.984664,165.151 221.486003,165.169333 220.958,165.184 L220.958,163.754 C221.515336,163.783333 222.039664,163.809 222.531,163.831 C223.022336,163.853 223.535664,163.867667 224.071,163.875 C224.606336,163.882333 225.181997,163.893333 225.798,163.908 C226.414003,163.922667 227.132663,163.93 227.954,163.93 C228.144668,163.475331 228.320666,162.984003 228.482,162.456 C228.643334,161.927997 228.811999,161.312004 228.988,160.608 C229.208001,160.725334 229.442665,160.820666 229.692,160.894 C229.941335,160.967334 230.197999,161.018667 230.462,161.048 C230.696668,161.077333 230.825,161.165333 230.847,161.312 C230.869,161.458667 230.770001,161.605333 230.55,161.752 C230.506,161.781333 230.458334,161.829 230.407,161.895 C230.355666,161.961 230.286,162.070999 230.198,162.225 C230.11,162.379001 229.996334,162.591665 229.857,162.863 C229.717666,163.134335 229.545334,163.489998 229.34,163.93 L232.057,163.93 C232.841671,163.93 233.541997,163.926333 234.158,163.919 C234.774003,163.911667 235.320331,163.904333 235.797,163.897 C236.273669,163.889667 236.724665,163.878667 237.15,163.864 C237.575335,163.849333 237.993331,163.834667 238.404,163.82 C238.814669,163.805333 239.261998,163.783333 239.746,163.754 L239.746,165.184 C238.997996,165.14 238.28667,165.107 237.612,165.085 C236.93733,165.063 236.196671,165.048333 235.39,165.041 C234.583329,165.033667 233.659339,165.026333 232.618,165.019 C231.576661,165.011667 230.315341,165.008 228.834,165.008 C228.628666,165.448002 228.401335,165.920997 228.152,166.427 C227.902665,166.933003 227.631335,167.413331 227.338,167.868 L231.87,167.868 L233.531,167.868 C234.110336,167.868 234.667664,167.860667 235.203,167.846 C235.738336,167.831333 236.214998,167.816667 236.633,167.802 C237.051002,167.787333 237.362666,167.772667 237.568,167.758 C237.553333,167.860667 237.535,168.010999 237.513,168.209 C237.491,168.407001 237.469,168.623332 237.447,168.858 C237.425,169.092668 237.406667,169.330999 237.392,169.573 C237.377333,169.815001 237.37,170.031332 237.37,170.222 L237.37,178.802 C237.37,179.212669 237.337,179.549999 237.271,179.814 C237.205,180.078001 237.058334,180.294332 236.831,180.463 C236.603666,180.631668 236.270002,180.752666 235.83,180.826 C235.389998,180.899334 234.78867,180.958 234.026,181.002 C234.026,180.679332 233.993,180.411668 233.927,180.199 C233.861,179.986332 233.703335,179.711335 233.454,179.374 C233.996669,179.462 234.436665,179.509667 234.774,179.517 C235.111335,179.524333 235.371666,179.491334 235.555,179.418 C235.738334,179.344666 235.859333,179.220001 235.918,179.044 C235.976667,178.867999 236.006,178.633335 236.006,178.34 L236.006,176.052 L226.832,176.052 L226.832,181.244 L225.336,181.244 C225.394667,180.642664 225.431333,180.078003 225.446,179.55 C225.460667,179.021997 225.468,178.538002 225.468,178.098 L225.468,170.42 C224.939997,171.036003 224.346003,171.644664 223.686,172.246 C223.025997,172.847336 222.263338,173.477997 221.398,174.138 C221.354,173.903332 221.244001,173.683334 221.068,173.478 C220.891999,173.272666 220.613335,173.096667 220.232,172.95 C221.097338,172.392664 221.87833,171.839003 222.575,171.289 C223.27167,170.738997 223.91333,170.14867 224.5,169.518 C225.08667,168.88733 225.621998,168.205337 226.106,167.472 C226.590002,166.738663 227.044665,165.917338 227.47,165.008 Z M226.832,172.554 L226.832,174.996 L236.006,174.996 L236.006,172.554 L226.832,172.554 Z M236.006,171.52 L236.006,168.946 L226.832,168.946 L226.832,171.52 L236.006,171.52 Z M248.106,171.234 C247.680665,171.234 247.226002,171.241333 246.742,171.256 C246.257998,171.270667 245.781336,171.285333 245.312,171.3 C244.842664,171.314667 244.402669,171.329333 243.992,171.344 C243.581331,171.358667 243.236668,171.373333 242.958,171.388 L242.958,170.002 C243.266002,170.016667 243.661998,170.031333 244.146,170.046 C244.630002,170.060667 245.143331,170.071667 245.686,170.079 C246.228669,170.086333 246.767664,170.093667 247.303,170.101 C247.838336,170.108333 248.318665,170.112 248.744,170.112 C249.140002,169.39333 249.499332,168.68567 249.822,167.989 C250.144668,167.29233 250.401332,166.643336 250.592,166.042 C250.753334,166.159334 250.976999,166.276666 251.263,166.394 C251.549001,166.511334 251.816665,166.592 252.066,166.636 C252.330001,166.68 252.473,166.760666 252.495,166.878 C252.517,166.995334 252.403335,167.112666 252.154,167.23 C251.977999,167.318 251.802001,167.479332 251.626,167.714 C251.449999,167.948668 251.237335,168.300664 250.988,168.77 C250.870666,169.004668 250.746001,169.231999 250.614,169.452 C250.481999,169.672001 250.357334,169.891999 250.24,170.112 L256.18,170.112 C256.986671,170.112 257.826329,170.101 258.699,170.079 C259.571671,170.057 260.36733,170.031333 261.086,170.002 L261.086,171.388 C260.557997,171.344 259.97867,171.311 259.348,171.289 C258.71733,171.267 258.08667,171.248667 257.456,171.234 C257.074665,172.378006 256.653002,173.378996 256.191,174.237 C255.728998,175.095004 255.18267,175.853997 254.552,176.514 C255.549338,176.924669 256.564995,177.353664 257.599,177.801 C258.633005,178.248336 259.699995,178.721331 260.8,179.22 C260.550665,179.440001 260.338001,179.689332 260.162,179.968 C259.985999,180.246668 259.861334,180.554665 259.788,180.892 C258.731995,180.231997 257.683339,179.627003 256.642,179.077 C255.600661,178.526997 254.537339,178.002669 253.452,177.504 C252.923997,177.900002 252.34467,178.259332 251.714,178.582 C251.08333,178.904668 250.38667,179.190665 249.624,179.44 C248.86133,179.689335 248.025338,179.920332 247.116,180.133 C246.206662,180.345668 245.209339,180.539999 244.124,180.716 C244.006666,180.378665 243.845334,180.070668 243.64,179.792 C243.434666,179.513332 243.185335,179.293334 242.892,179.132 C244.813343,178.999999 246.529326,178.772668 248.04,178.45 C249.550674,178.127332 250.870661,177.60667 252,176.888 C249.990657,176.051996 247.849345,175.31867 245.576,174.688 C246.001335,174.233331 246.426665,173.709003 246.852,173.115 C247.277335,172.520997 247.695331,171.894003 248.106,171.234 Z M249.58,171.234 C249.198665,171.850003 248.850335,172.403664 248.535,172.895 C248.219665,173.386336 247.952001,173.778665 247.732,174.072 C248.582671,174.321335 249.458995,174.607332 250.361,174.93 C251.263005,175.252668 252.197995,175.604665 253.166,175.986 C253.782003,175.413997 254.317331,174.743004 254.772,173.973 C255.226669,173.202996 255.600665,172.290005 255.894,171.234 L249.58,171.234 Z M251.736,164.238 C251.501332,163.841998 251.233668,163.464335 250.933,163.105 C250.632332,162.745665 250.262002,162.368002 249.822,161.972 L251.208,161.114 C251.633335,161.642003 251.988999,162.140664 252.275,162.61 C252.561001,163.079336 252.850665,163.621997 253.144,164.238 C254.302672,164.238 255.270663,164.234333 256.048,164.227 C256.825337,164.219667 257.485331,164.212333 258.028,164.205 C258.570669,164.197667 259.036331,164.186667 259.425,164.172 C259.813669,164.157333 260.198665,164.135333 260.58,164.106 L260.58,168.22 L259.216,168.242 L259.216,165.382 L244.828,165.36 L244.828,168.264 L243.508,168.264 L243.508,164.106 C243.904002,164.135333 244.303665,164.157333 244.707,164.172 C245.110335,164.186667 245.60533,164.201333 246.192,164.216 C246.77867,164.230667 247.508329,164.238 248.381,164.238 L251.736,164.238 Z M277.212,165.206 C276.126661,165.220667 275.217337,165.246333 274.484,165.283 C273.750663,165.319667 273.06867,165.36 272.438,165.404 L272.438,164.106 C273.06867,164.164667 273.750663,164.208667 274.484,164.238 C275.217337,164.267333 276.126661,164.289333 277.212,164.304 L277.212,163.16 C277.212,162.866665 277.208333,162.624668 277.201,162.434 C277.193667,162.243332 277.182667,162.082001 277.168,161.95 C277.153333,161.817999 277.131333,161.664001 277.102,161.488 C277.454002,161.546667 277.754665,161.587 278.004,161.609 C278.253335,161.631 278.502665,161.642 278.752,161.642 C278.869334,161.642 278.961,161.671333 279.027,161.73 C279.093,161.788667 279.133333,161.854666 279.148,161.928 C279.162667,162.001334 279.148,162.074666 279.104,162.148 C279.06,162.221334 278.986667,162.272667 278.884,162.302 C278.663999,162.375334 278.554,162.675997 278.554,163.204 L278.554,164.304 C279.727339,164.289333 280.713663,164.267333 281.513,164.238 C282.312337,164.208667 283.04933,164.164667 283.724,164.106 L283.724,165.404 C283.04933,165.345333 282.312337,165.301333 281.513,165.272 C280.713663,165.242667 279.727339,165.220667 278.554,165.206 L278.554,168.506 C279.375337,168.506 280.170996,168.491333 280.941,168.462 C281.711004,168.432667 282.308665,168.388667 282.734,168.33 L282.734,169.65 C282.499332,169.620667 282.213335,169.595 281.876,169.573 C281.538665,169.551 281.168335,169.532667 280.765,169.518 C280.361665,169.503333 279.940002,169.492333 279.5,169.485 C279.059998,169.477667 278.620002,169.474 278.18,169.474 C277.754665,169.474 277.300002,169.477667 276.816,169.485 C276.331998,169.492333 275.866336,169.503333 275.419,169.518 C274.971664,169.532667 274.557335,169.551 274.176,169.573 C273.794665,169.595 273.486668,169.620667 273.252,169.65 L273.252,168.33 C273.442668,168.359333 273.684665,168.381333 273.978,168.396 C274.271335,168.410667 274.593998,168.425333 274.946,168.44 C275.298002,168.454667 275.668331,168.469333 276.057,168.484 C276.445669,168.498667 276.830665,168.506 277.212,168.506 L277.212,165.206 Z M270.524,163.996 C270.524,163.262663 270.513,162.661336 270.491,162.192 C270.469,161.722664 270.436,161.341335 270.392,161.048 C270.641335,161.077333 270.886999,161.103 271.129,161.125 C271.371001,161.147 271.609332,161.158 271.844,161.158 C272.049334,161.158 272.170333,161.223999 272.207,161.356 C272.243667,161.488001 272.166668,161.612666 271.976,161.73 C271.888,161.788667 271.825667,161.891333 271.789,162.038 C271.752333,162.184667 271.734,162.353332 271.734,162.544 L271.734,169.122 C271.734,169.430002 271.741333,169.745332 271.756,170.068 C271.770667,170.390668 271.8,170.742665 271.844,171.124 L270.436,171.124 C270.465333,170.771998 270.487333,170.449335 270.502,170.156 C270.516667,169.862665 270.524,169.518002 270.524,169.122 L270.524,167.868 L268.632,167.868 C268.529333,168.278669 268.415667,168.645332 268.291,168.968 C268.166333,169.290668 268.012334,169.602332 267.829,169.903 C267.645666,170.203668 267.425668,170.496999 267.169,170.783 C266.912332,171.069001 266.600668,171.380665 266.234,171.718 C266.087333,171.556666 265.929668,171.424667 265.761,171.322 C265.592332,171.219333 265.339335,171.131334 265.002,171.058 C265.72067,170.676665 266.281665,170.214669 266.685,169.672 C267.088335,169.129331 267.348666,168.528003 267.466,167.868 C266.996664,167.882667 266.538336,167.901 266.091,167.923 C265.643664,167.945 265.266002,167.985333 264.958,168.044 L264.958,166.79 C265.134001,166.819333 265.317332,166.845 265.508,166.867 C265.698668,166.889 265.907666,166.907333 266.135,166.922 C266.362334,166.936667 266.626332,166.947667 266.927,166.955 C267.227668,166.962333 267.583331,166.966 267.994,166.966 L270.524,166.966 L270.524,165.558 L266.146,165.558 C266.19,165.308665 266.223,165.074001 266.245,164.854 C266.267,164.633999 266.278,164.392001 266.278,164.128 L266.278,163.358 C266.278,162.77133 266.226667,162.250669 266.124,161.796 C266.344001,161.869334 266.593332,161.924333 266.872,161.961 C267.150668,161.997667 267.407332,162.008667 267.642,161.994 C267.862001,161.979333 267.986667,162.030666 268.016,162.148 C268.045333,162.265334 267.972001,162.382666 267.796,162.5 C267.663999,162.588 267.579667,162.690666 267.543,162.808 C267.506333,162.925334 267.488,163.071999 267.488,163.248 L267.488,164.612 L270.524,164.612 L270.524,163.996 Z M273.824,172.29 C273.618666,171.967332 273.417001,171.696001 273.219,171.476 C273.020999,171.255999 272.768002,171.014001 272.46,170.75 L273.472,169.958 C273.648001,170.119334 273.801999,170.265999 273.934,170.398 C274.066001,170.530001 274.194333,170.665666 274.319,170.805 C274.443667,170.944334 274.564666,171.090999 274.682,171.245 C274.799334,171.399001 274.938666,171.578666 275.1,171.784 L274.374,172.29 C275.620673,172.29 276.661996,172.286333 277.498,172.279 C278.334004,172.271667 279.070997,172.260667 279.709,172.246 C280.347003,172.231333 280.948331,172.209333 281.513,172.18 C282.077669,172.150667 282.71933,172.114 283.438,172.07 L283.438,173.456 C283.071331,173.426667 282.653336,173.397333 282.184,173.368 C281.714664,173.338667 281.15367,173.316667 280.501,173.302 C279.84833,173.287333 279.093004,173.272667 278.235,173.258 C277.376996,173.243333 276.368672,173.236 275.21,173.236 C275.430001,173.734669 275.635332,174.159998 275.826,174.512 C276.016668,174.864002 276.203666,175.171999 276.387,175.436 C276.570334,175.700001 276.749999,175.930999 276.926,176.129 C277.102001,176.327001 277.292666,176.521332 277.498,176.712 C278.099336,176.213331 278.649331,175.678003 279.148,175.106 C279.646669,174.533997 280.005999,174.050002 280.226,173.654 C280.431334,173.830001 280.636666,173.994999 280.842,174.149 C281.047334,174.303001 281.223333,174.409333 281.37,174.468 C281.590001,174.556 281.681667,174.658666 281.645,174.776 C281.608333,174.893334 281.487334,174.952 281.282,174.952 C281.194,174.952 281.084001,174.985 280.952,175.051 C280.819999,175.117 280.640334,175.237999 280.413,175.414 C280.185666,175.590001 279.899668,175.835665 279.555,176.151 C279.210332,176.466335 278.774003,176.865998 278.246,177.35 C278.96467,177.907336 279.752996,178.347332 280.611,178.67 C281.469004,178.992668 282.440661,179.234666 283.526,179.396 C283.291332,179.616001 283.119001,179.832332 283.009,180.045 C282.898999,180.257668 282.785334,180.532665 282.668,180.87 C281.509328,180.459331 280.508338,180.052335 279.665,179.649 C278.821662,179.245665 278.07367,178.765336 277.421,178.208 C276.76833,177.650664 276.181669,176.979671 275.661,176.195 C275.140331,175.410329 274.616003,174.424006 274.088,173.236 L273.384,173.236 C273.061332,173.573335 272.705669,173.921665 272.317,174.281 C271.928331,174.640335 271.616668,174.915332 271.382,175.106 L271.382,178.89 L274.572,177.064 C274.630667,177.489335 274.769999,177.863332 274.99,178.186 C274.241996,178.596669 273.420671,179.073331 272.526,179.616 C271.631329,180.158669 270.766004,180.708664 269.93,181.266 C269.871333,181.075332 269.765001,180.862668 269.611,180.628 C269.456999,180.393332 269.270001,180.180668 269.05,179.99 C269.255334,179.916666 269.445999,179.843334 269.622,179.77 C269.798001,179.696666 269.981332,179.616 270.172,179.528 L270.172,176.052 C269.790665,176.345335 269.431335,176.609332 269.094,176.844 C268.756665,177.078668 268.404669,177.305999 268.038,177.526 C267.671332,177.746001 267.268002,177.973332 266.828,178.208 C266.387998,178.442668 265.87467,178.706665 265.288,179 C265.126666,178.706665 264.980001,178.468334 264.848,178.285 C264.715999,178.101666 264.518001,177.907334 264.254,177.702 C265.632674,177.335331 266.945327,176.796337 268.192,176.085 C269.438673,175.373663 270.69266,174.424006 271.954,173.236 C270.443326,173.250667 269.127006,173.272667 268.005,173.302 C266.882994,173.331333 265.860005,173.382666 264.936,173.456 L264.936,172.07 C265.478669,172.114 266.050664,172.150667 266.652,172.18 C267.253336,172.209333 267.905996,172.231333 268.61,172.246 C269.314004,172.260667 270.091329,172.271667 270.942,172.279 C271.792671,172.286333 272.753328,172.29 273.824,172.29 Z M290.786,174.732 L292.128,173.94 C293.066671,175.670675 294.159327,176.536 295.406,176.536 C296.212671,176.536 296.901997,176.279336 297.474,175.766 C298.046003,175.252664 298.332,174.61467 298.332,173.852 C298.332,173.250664 298.090002,172.642003 297.606,172.026 C297.121998,171.409997 296.319006,170.680338 295.197,169.837 C294.074994,168.993662 293.319669,168.363002 292.931,167.945 C292.542331,167.526998 292.256334,167.079669 292.073,166.603 C291.889666,166.126331 291.798,165.646002 291.798,165.162 C291.798,164.135328 292.160996,163.266337 292.887,162.555 C293.613004,161.843663 294.525995,161.488 295.626,161.488 C296.491338,161.488 297.246663,161.704331 297.892,162.137 C298.537337,162.569669 299.160664,163.211329 299.762,164.062 L298.486,165.052 C298.075331,164.494664 297.650002,164.032668 297.21,163.666 C296.769998,163.299331 296.231003,163.116 295.593,163.116 C294.954997,163.116 294.434335,163.306665 294.031,163.688 C293.627665,164.069335 293.426,164.55333 293.426,165.14 C293.426,165.72667 293.605665,166.236331 293.965,166.669 C294.324335,167.101669 295.138327,167.787329 296.407,168.726 C297.675673,169.664671 298.599664,170.529996 299.179,171.322 C299.758336,172.114004 300.048,172.949996 300.048,173.83 C300.048,174.974006 299.604338,175.967662 298.717,176.811 C297.829662,177.654338 296.799339,178.076 295.626,178.076 C293.55799,178.076 291.944672,176.961344 290.786,174.732 Z M302.908,161.488 L304.426,161.488 L304.426,170.706 L309.816,165.998 L312.038,165.998 L305.614,171.564 L312.412,177.68 L310.278,177.68 L304.426,172.422 L304.426,177.68 L302.908,177.68 L302.908,161.488 Z M312.918,165.998 L314.502,165.998 L318.528,174.996 L322.422,165.998 L324.028,165.998 L317.054,181.948 L315.47,181.948 L317.714,176.8 L312.918,165.998 Z M325.986,165.998 L327.482,165.998 L327.482,168.132 C328.670006,166.503992 330.217324,165.69 332.124,165.69 C333.766675,165.69 335.181994,166.294994 336.37,167.505 C337.558006,168.715006 338.152,170.170658 338.152,171.872 C338.152,173.573342 337.565339,175.032661 336.392,176.25 C335.218661,177.467339 333.810675,178.076 332.168,178.076 C330.378658,178.076 328.816673,177.276675 327.482,175.678 L327.482,181.948 L325.986,181.948 L325.986,165.998 Z M336.656,171.894 C336.656,170.58866 336.205005,169.470338 335.303,168.539 C334.400995,167.607662 333.29734,167.142 331.992,167.142 C330.68666,167.142 329.590338,167.600329 328.703,168.517 C327.815662,169.433671 327.372,170.56666 327.372,171.916 C327.372,173.26534 327.826662,174.398329 328.736,175.315 C329.645338,176.231671 330.734327,176.69 332.003,176.69 C333.271673,176.69 334.364329,176.224338 335.281,175.293 C336.197671,174.361662 336.656,173.228673 336.656,171.894 Z M350.802,173.896 L352.078,174.556 C350.81666,176.902678 348.954012,178.076 346.49,178.076 C344.729991,178.076 343.278006,177.471006 342.134,176.261 C340.989994,175.050994 340.418,173.595342 340.418,171.894 C340.418,170.192658 340.993661,168.733339 342.145,167.516 C343.296339,166.298661 344.718992,165.69 346.413,165.69 C348.107008,165.69 349.529661,166.254661 350.681,167.384 C351.832339,168.513339 352.43,170.053324 352.474,172.004 L341.958,172.004 C342.002,173.412007 342.445662,174.544996 343.289,175.403 C344.132338,176.261004 345.155327,176.69 346.358,176.69 C348.33801,176.69 349.819328,175.758676 350.802,173.896 Z M350.802,170.706 C350.596666,169.591328 350.083337,168.71867 349.262,168.088 C348.440663,167.45733 347.494672,167.142 346.424,167.142 C344.223989,167.142 342.78667,168.329988 342.112,170.706 L350.802,170.706 Z" id="3-iPad" fill="#FFFFFF" sketch:type="MSShapeGroup"></path>
        </g>
    </g>
</svg>