<?xml version="1.0" encoding="UTF-8" standalone="no"?>
<svg width="400px" height="250px" viewBox="0 0 400 250" version="1.1" xmlns="http://www.w3.org/2000/svg" xmlns:xlink="http://www.w3.org/1999/xlink" xmlns:sketch="http://www.bohemiancoding.com/sketch/ns">
    <title>Untitled</title>
    <description>Created with Sketch (http://www.bohemiancoding.com/sketch)</description>
    <defs></defs>
    <g id="Page-1" stroke="none" stroke-width="1" fill="none" fill-rule="evenodd" sketch:type="MSPage">
        <g id="Group" sketch:type="MSLayerGroup">
            <rect id="Rectangle-1" fill="#F9F9F9" sketch:type="MSShapeGroup" x="0" y="0" width="400" height="250"></rect>
            <g transform="translate(40.132701, 35.000000)" sketch:type="MSShapeGroup">
                <rect id="Rectangle-4" fill="#75BAEF" x="0" y="0.347432114" width="319.181477" height="17.4293518"></rect>
                <rect id="Rectangle-4" stroke="#75BAEF" stroke-width="4" x="0" y="0.347432114" width="320.070562" height="187.710899"></rect>
                <rect id="Rectangle-4" fill="#D4D4D4" x="16.92891" y="34.7488152" width="17.8199052" height="17.8199052"></rect>
                <rect id="Rectangle-5" fill="#D4D4D4" x="43.6587678" y="37.4218009" width="44.5358412" height="13.3649289"></rect>
                <rect id="Rectangle-4" fill="#D4D4D4" x="16.92891" y="61.478673" width="17.8199052" height="17.8199052"></rect>
                <rect id="Rectangle-5" fill="#D4D4D4" x="43.6587678" y="64.1516588" width="44.5358412" height="13.3649289"></rect>
                <rect id="Rectangle-5" fill="#D4D4D4" x="43.6587678" y="90.8815166" width="44.5358412" height="13.3649289"></rect>
                <rect id="Rectangle-5" fill="#D4D4D4" x="43.6587678" y="117.611374" width="44.5358412" height="13.3649289"></rect>
                <rect id="Rectangle-5" fill="#D4D4D4" x="43.6587678" y="144.341232" width="44.5358412" height="13.3649289"></rect>
                <rect id="Rectangle-4" fill="#D4D4D4" x="16.92891" y="88.2085308" width="17.8199052" height="17.8199052"></rect>
                <rect id="Rectangle-4" fill="#D4D4D4" x="16.92891" y="114.938389" width="17.8199052" height="17.8199052"></rect>
                <rect id="Rectangle-4" fill="#D4D4D4" x="16.92891" y="141.668246" width="17.8199052" height="17.8199052"></rect>
                <rect id="Rectangle-5" fill="#D4D4D4" x="132.758294" y="144.341232" width="62.3696682" height="13.3649289"></rect>
                <rect id="Rectangle-4" fill="#D4D4D4" x="106.028436" y="141.668246" width="17.8199052" height="17.8199052"></rect>
                <rect id="Rectangle-5" fill="#D4D4D4" x="239.677725" y="144.341232" width="62.3696682" height="13.3649289"></rect>
                <rect id="Rectangle-4" fill="#D4D4D4" x="212.947867" y="141.668246" width="17.8199052" height="17.8199052"></rect>
                <rect id="Rectangle-4" fill="#75BAEF" x="106.121496" y="35.2811708" width="195.832838" height="97.477123"></rect>
                <path d="M222.381001,132.917718 L231.232214,132.917718 L255.925173,124.060647 L268.236437,132.917718 L285.459306,132.917718 L284.728261,108.74578 L302.047393,96.0386545 L302.047393,83.3267377 L279.063603,76.6198548 L267.511135,41.6222571 L246.759556,72.079809 L209.904954,72.2520072 L232.459219,101.399838 L222.381001,132.917718 Z" id="Rectangle-1" fill="#FFFFFF"></path>
                <circle id="Oval-1" fill="#D64038" cx="306.50237" cy="8.90995261" r="4.4549763"></circle>
            </g>
            <polygon id="Star-4" fill="#75BAEF" sketch:type="MSShapeGroup" points="200.499996 207.42705 178.149488 231.650866 167.583999 200.430537 137.31309 213.469331 140.359485 180.650769 107.402272 180.250004 123.533803 151.507837 93.5888966 137.736814 120.016277 118.040822 98.2614237 93.2806755 130.415119 86.0364764 120.61193 54.5684607 152.932289 61.0286306 156.775858 28.2938424 183.67434 47.3413966 200.500001 19 217.3257 47.341405 244.224238 28.2938852 248.067744 61.0286544 280.388071 54.5684626 270.584892 86.0364948 302.738593 93.2807267 280.983725 118.040843 307.411103 137.736816 277.46619 151.507857 293.597702 180.250051 260.640501 180.650785 263.686908 213.469332 233.415972 200.430549 222.850447 231.65088 "></polygon>
            <path d="M150.972,102.508 C150.972,106.241352 151.214664,109.423987 151.7,112.056 C152.185336,114.688013 152.987994,116.834658 154.108,118.496 C155.228006,120.157342 156.702658,121.342663 158.532,122.052 C160.361342,122.761337 162.60132,123.116 165.252,123.116 C167.90268,123.116 170.142658,122.761337 171.972,122.052 C173.801342,121.342663 175.275994,120.157342 176.396,118.496 C177.516006,116.834658 178.318664,114.688013 178.804,112.056 C179.289336,109.423987 179.532,106.241352 179.532,102.508 C179.532,98.774648 179.289336,95.5920132 178.804,92.96 C178.318664,90.3279868 177.516006,88.1813416 176.396,86.52 C175.275994,84.8586584 173.801342,83.6453372 171.972,82.88 C170.142658,82.1146628 167.90268,81.732 165.252,81.732 C162.60132,81.732 160.361342,82.1146628 158.532,82.88 C156.702658,83.6453372 155.228006,84.8586584 154.108,86.52 C152.987994,88.1813416 152.185336,90.3279868 151.7,92.96 C151.214664,95.5920132 150.972,98.774648 150.972,102.508 Z M161.724,102.508 C161.724,99.8199866 161.761333,97.5893422 161.836,95.816 C161.910667,94.0426578 162.069332,92.6333386 162.312,91.588 C162.554668,90.5426614 162.909331,89.8146687 163.376,89.404 C163.842669,88.9933313 164.467996,88.788 165.252,88.788 C166.036004,88.788 166.661331,88.9933313 167.128,89.404 C167.594669,89.8146687 167.949332,90.5426614 168.192,91.588 C168.434668,92.6333386 168.593333,94.0426578 168.668,95.816 C168.742667,97.5893422 168.78,99.8199866 168.78,102.508 C168.78,105.196013 168.742667,107.426658 168.668,109.2 C168.593333,110.973342 168.434668,112.382661 168.192,113.428 C167.949332,114.473339 167.594669,115.201331 167.128,115.612 C166.661331,116.022669 166.036004,116.228 165.252,116.228 C164.467996,116.228 163.842669,116.022669 163.376,115.612 C162.909331,115.201331 162.554668,114.473339 162.312,113.428 C162.069332,112.382661 161.910667,110.973342 161.836,109.2 C161.761333,107.426658 161.724,105.196013 161.724,102.508 Z M182.836,92.204 L182.836,122.5 L192.916,122.5 L192.916,102.508 C192.916,101.23866 193.102665,100.324003 193.476,99.764 C193.849335,99.2039972 194.483996,98.924 195.38,98.924 C196.276004,98.924 196.910665,99.2039972 197.284,99.764 C197.657335,100.324003 197.844,101.23866 197.844,102.508 L197.844,122.5 L207.924,122.5 L207.924,99.652 C207.924,98.0093251 207.718669,96.6653386 207.308,95.62 C206.897331,94.5746614 206.337337,93.7346698 205.628,93.1 C204.918663,92.4653302 204.088005,92.0266679 203.136,91.784 C202.183995,91.5413321 201.148006,91.42 200.028,91.42 C196.443982,91.42 193.998673,92.9133184 192.692,95.9 L192.58,95.9 L192.58,92.204 L182.836,92.204 Z M212.124,82.516 L212.124,122.5 L222.204,122.5 L222.204,82.516 L212.124,82.516 Z M227.188,124.908 L227.188,131.964 C228.046671,132.038667 228.933329,132.094666 229.848,132.132 C230.762671,132.169334 231.761328,132.188 232.844,132.188 C234.188007,132.188 235.382661,132.057335 236.428,131.796 C237.473339,131.534665 238.397329,131.068003 239.2,130.396 C240.002671,129.723997 240.69333,128.818672 241.272,127.68 C241.85067,126.541328 242.363998,125.094675 242.812,123.34 L250.932,92.204 L240.852,92.204 L237.94,112.644 L237.828,112.644 L234.748,92.204 L224.388,92.204 L232.34,120.764 C232.452001,121.174669 232.554666,121.566665 232.648,121.94 C232.741334,122.313335 232.788,122.611999 232.788,122.836 C232.788,122.985334 232.732001,123.190665 232.62,123.452 C232.507999,123.713335 232.321335,123.965332 232.06,124.208 C231.798665,124.450668 231.453335,124.665332 231.024,124.852 C230.594665,125.038668 230.06267,125.132 229.428,125.132 C229.054665,125.132 228.681335,125.113334 228.308,125.076 C227.934665,125.038666 227.561335,124.982667 227.188,124.908 Z M168.192,156.764 L168.192,172.5 L178.608,172.5 L178.608,156.764 L188.8,132.516 L177.376,132.516 L173.456,146.46 L173.344,146.46 L169.424,132.516 L158.168,132.516 L168.192,156.764 Z M210.92,157.38 C210.92,155.177322 210.798668,153.114676 210.556,151.192 C210.313332,149.269324 209.762671,147.580007 208.904,146.124 C208.045329,144.667993 206.757342,143.520004 205.04,142.68 C203.322658,141.839996 200.989348,141.42 198.04,141.42 C195.202652,141.42 192.934675,141.877329 191.236,142.792 C189.537325,143.706671 188.240004,144.910659 187.344,146.404 C186.447996,147.897341 185.860001,149.59599 185.58,151.5 C185.299999,153.40401 185.16,155.345323 185.16,157.324 C185.16,159.526678 185.281332,161.589324 185.524,163.512 C185.766668,165.434676 186.317329,167.114659 187.176,168.552 C188.034671,169.989341 189.322658,171.109329 191.04,171.912 C192.757342,172.714671 195.090652,173.116 198.04,173.116 C200.877348,173.116 203.145325,172.677338 204.844,171.8 C206.542675,170.922662 207.839996,169.746674 208.736,168.272 C209.632004,166.797326 210.219999,165.10801 210.5,163.204 C210.780001,161.29999 210.92,159.358677 210.92,157.38 Z M195.24,157.38 C195.24,155.47599 195.277333,153.908006 195.352,152.676 C195.426667,151.443994 195.575999,150.473337 195.8,149.764 C196.024001,149.054663 196.313332,148.569335 196.668,148.308 C197.022668,148.046665 197.479997,147.916 198.04,147.916 C198.600003,147.916 199.066665,148.046665 199.44,148.308 C199.813335,148.569335 200.102666,149.054663 200.308,149.764 C200.513334,150.473337 200.653333,151.443994 200.728,152.676 C200.802667,153.908006 200.84,155.47599 200.84,157.38 C200.84,159.28401 200.802667,160.842661 200.728,162.056 C200.653333,163.269339 200.513334,164.230663 200.308,164.94 C200.102666,165.649337 199.813335,166.134665 199.44,166.396 C199.066665,166.657335 198.600003,166.788 198.04,166.788 C197.479997,166.788 197.022668,166.657335 196.668,166.396 C196.313332,166.134665 196.024001,165.649337 195.8,164.94 C195.575999,164.230663 195.426667,163.269339 195.352,162.056 C195.277333,160.842661 195.24,159.28401 195.24,157.38 Z M214.056,142.204 L214.056,165.052 C214.056,166.657341 214.261331,167.991995 214.672,169.056 C215.082669,170.120005 215.642663,170.959997 216.352,171.576 C217.061337,172.192003 217.891995,172.602666 218.844,172.808 C219.796005,173.013334 220.831994,173.116 221.952,173.116 C225.573351,173.116 228.01866,171.678681 229.288,168.804 L229.4,168.804 L229.4,172.5 L239.144,172.5 L239.144,142.204 L229.064,142.204 L229.064,162.196 C229.064,163.46534 228.877335,164.379997 228.504,164.94 C228.130665,165.500003 227.496004,165.78 226.6,165.78 C225.703996,165.78 225.069335,165.500003 224.696,164.94 C224.322665,164.379997 224.136,163.46534 224.136,162.196 L224.136,142.204 L214.056,142.204 Z" id="Only" fill="#FFFFFF" sketch:type="MSShapeGroup"></path>
        </g>
    </g>
</svg>