<?xml version="1.0" encoding="UTF-8" standalone="no"?>
<svg width="400px" height="250px" viewBox="0 0 400 250" version="1.1" xmlns="http://www.w3.org/2000/svg" xmlns:xlink="http://www.w3.org/1999/xlink" xmlns:sketch="http://www.bohemiancoding.com/sketch/ns">
    <title>Untitled</title>
    <description>Created with Sketch (http://www.bohemiancoding.com/sketch)</description>
    <defs></defs>
    <g id="Page-1" stroke="none" stroke-width="1" fill="none" fill-rule="evenodd" sketch:type="MSPage">
        <g id="Group" sketch:type="MSLayerGroup">
            <rect id="Rectangle-1" fill="#75BAEF" sketch:type="MSShapeGroup" x="0" y="0" width="400" height="250"></rect>
            <g transform="translate(120.500000, 25.000000)" sketch:type="MSShapeGroup">
                <g id="Imported-Layers" transform="translate(0.000000, 1.000000)" fill="#FFFFFF">
                    <path d="M24.8941395,-0.349627907 L4.12339535,-0.349627907 C1.60834884,-0.349627907 -0.430581395,1.69067442 -0.430581395,4.20434884 L-0.430581395,53.8974419 C-0.430581395,56.4111163 1.60834884,58.4514186 4.12339535,58.4514186 L24.8941395,58.4514186 C27.407814,58.4514186 29.4467442,56.4111163 29.4467442,53.8974419 L29.4467442,4.20434884 C29.4467442,1.69067442 27.407814,-0.349627907 24.8941395,-0.349627907 L24.8941395,-0.349627907 Z M10.5914419,3.16430233 L18.4219767,3.16430233 C18.6415116,3.16430233 18.8212558,3.3454186 18.8212558,3.56495349 C18.8212558,3.78586047 18.6415116,3.96560465 18.4219767,3.96560465 L10.5914419,3.96560465 C10.371907,3.96560465 10.1935349,3.78586047 10.1935349,3.56495349 C10.1935349,3.3454186 10.371907,3.16430233 10.5914419,3.16430233 L10.5914419,3.16430233 Z M13.8695224,55.8236977 C12.7690539,55.8236977 11.8716047,54.926482 11.8716047,53.8231772 C11.8716047,52.7177908 12.7690539,51.8236977 13.8695224,51.8236977 C14.9772788,51.8236977 15.8716047,52.7177908 15.8716047,53.8231772 C15.8716047,54.926482 14.9772788,55.8236977 13.8695224,55.8236977 L13.8695224,55.8236977 Z M1.56581395,6.65037209 L27.4503488,6.65037209 L27.4503488,49.6503721 L1.56581395,49.6503721 L1.56581395,6.65037209 Z" id="Fill-2"></path>
                </g>
                <path d="M42.7476489,60 L76.5023511,60 C78.5734885,60 80.25,58.334564 80.25,56.2564972 L80.25,3.7435028 C80.25,1.67202575 78.5841604,0 76.5023511,0 L42.7476489,0 C40.6765115,0 39,1.66543605 39,3.7435028 L39,56.2564972 C39,58.3279742 40.6658396,60 42.7476489,60 Z M42.7549459,5.61847393 C42.7549459,5.61711402 76.5025025,5.62472035 76.5025025,5.62472035 C76.5097238,5.62472035 76.5002755,52.4992809 76.5002755,52.4992809 C76.5002755,52.5006408 42.7527189,52.4930345 42.7527189,52.4930345 C42.7454976,52.4930345 42.7549459,5.61847393 42.7549459,5.61847393 Z M59.625,58.125 C60.660534,58.125 61.5,57.285534 61.5,56.25 C61.5,55.214466 60.660534,54.375 59.625,54.375 C58.589466,54.375 57.75,55.214466 57.75,56.25 C57.75,57.285534 58.589466,58.125 59.625,58.125 Z" id="Rectangle-26" fill="#FFFFFF"></path>
                <g id="Imported-Layers" transform="translate(90.000000, 0.000000)">
                    <path d="M30.3031496,4.4976378 C30.3031496,3.23259843 29.0451969,1.55874016 27.8114961,1.02 C27.2729134,0.754645669 27.3340157,0.802834646 26.3152756,0.586929134 C23.6286614,0.0179527559 19.0031496,-0.0626771654 14.3184252,-0.0626771654 C10.1067717,-0.0626771654 5.94818898,0.0179527559 3.53291339,0.586929134 C2.61700787,0.802834646 2.67212598,0.754645669 2.18787402,1.02 C1.07874016,1.55874016 -0.0521259843,3.23259843 -0.0521259843,4.4976378 C-0.0521259843,4.64251969 -0.0412598425,4.78472441 -0.0220472441,4.92440945 L-0.0521259843,4.92440945 L-0.0521259843,55.4198425 C-0.0521259843,56.6848819 1.20566929,58.3587402 2.43937008,58.8974803 C2.97795276,59.1628346 2.91685039,59.1146457 3.93543307,59.3303937 C6.62220472,59.8995276 11.2477165,59.9801575 15.9324409,59.9801575 C20.1440945,59.9801575 24.3025197,59.8995276 26.7179528,59.3303937 C27.6338583,59.1146457 27.5788976,59.1628346 28.0629921,58.8974803 C29.172126,58.3587402 30.3031496,56.6848819 30.3031496,55.4198425 L30.3031496,4.92440945 L30.2694488,4.92440945 C30.2908661,4.78472441 30.3031496,4.64251969 30.3031496,4.4976378" id="Fill-1" fill="#FFFFFF"></path>
                    <path d="M2.13559055,7.44330709 L28.3296063,7.44330709 L28.3296063,54.2146457 L2.13559055,54.2146457 L2.13559055,7.44330709 Z" id="Fill-2" fill="#75BAEF"></path>
                    <path d="M19.3379528,2.9296063 C19.3379528,3.20141732 19.1176378,3.4215748 18.8458268,3.4215748 L11.4048819,3.4215748 C11.1330709,3.4215748 10.9127559,3.20141732 10.9127559,2.9296063 C10.9127559,2.65795276 11.1330709,2.43732283 11.4048819,2.43732283 L18.8458268,2.43732283 C19.1176378,2.43732283 19.3379528,2.65795276 19.3379528,2.9296063" id="Fill-3" fill="#75BAEF"></path>
                    <path d="M23.8370079,3.13637795 C23.8370079,2.7503937 24.1500787,2.43732283 24.5359055,2.43732283 C24.9217323,2.43732283 25.2346457,2.7503937 25.2346457,3.13637795 C25.2346457,3.52220472 24.9217323,3.83496063 24.5359055,3.83496063 C24.1500787,3.83496063 23.8370079,3.52220472 23.8370079,3.13637795" id="Fill-4" fill="#75BAEF"></path>
                </g>
                <path d="M155,8.47222222 L156.974276,8.47222222 C158.227103,8.47222222 159.241552,9.85837191 159.241552,11.5684429 L159.241552,57.1669313 C159.241552,58.8784614 158.227103,60.2646111 156.974276,60.2646111 L132.269414,60.2646111 C131.015517,60.2646111 130,58.8784614 130,57.1669313 L130,11.5684429 C130,9.85837191 131.015517,8.47222222 132.269414,8.47222222 L151,8.47222222 L151,2.46423924 C151,1.37239839 151.895431,0.472222222 153,0.472222222 C154.11227,0.472222222 155,1.36407862 155,2.46423924 L155,8.47222222 Z M139.946172,55.9860826 C139.946172,56.5580517 139.60731,57.0191289 139.190414,57.0191289 L134.780931,57.0191289 C134.364034,57.0191289 134.026241,56.5580517 134.026241,55.9860826 L134.026241,52.0231535 C134.026241,51.4526435 134.364034,50.9901073 134.780931,50.9901073 L139.190414,50.9901073 C139.60731,50.9901073 139.946172,51.4526435 139.946172,52.0231535 L139.946172,55.9860826 L139.946172,55.9860826 Z M139.946172,47.3530718 C139.946172,47.9235818 139.60731,48.3861181 139.190414,48.3861181 L134.780931,48.3861181 C134.364034,48.3861181 134.026241,47.9235818 134.026241,47.3530718 L134.026241,43.3901427 C134.026241,42.8181736 134.364034,42.3585556 134.780931,42.3585556 L139.190414,42.3585556 C139.60731,42.3585556 139.946172,42.8181736 139.946172,43.3901427 L139.946172,47.3530718 L139.946172,47.3530718 Z M139.946172,38.720061 C139.946172,39.2876528 139.60731,39.7516481 139.190414,39.7516481 L134.780931,39.7516481 C134.364034,39.7516481 134.026241,39.2876528 134.026241,38.720061 L134.026241,34.7556728 C134.026241,34.1866219 134.364034,33.7240856 134.780931,33.7240856 L139.190414,33.7240856 C139.60731,33.7240856 139.946172,34.1866219 139.946172,34.7556728 L139.946172,38.720061 L139.946172,38.720061 Z M147.581276,55.9860826 C147.581276,56.5580517 147.243483,57.0191289 146.825517,57.0191289 L142.417103,57.0191289 C141.999138,57.0191289 141.659207,56.5580517 141.659207,55.9860826 L141.659207,52.0231535 C141.659207,51.4526435 141.999138,50.9901073 142.417103,50.9901073 L146.825517,50.9901073 C147.243483,50.9901073 147.581276,51.4526435 147.581276,52.0231535 L147.581276,55.9860826 L147.581276,55.9860826 Z M147.581276,47.3530718 C147.581276,47.9235818 147.243483,48.3861181 146.825517,48.3861181 L142.417103,48.3861181 C141.999138,48.3861181 141.659207,47.9235818 141.659207,47.3530718 L141.659207,43.3901427 C141.659207,42.8181736 141.999138,42.3585556 142.417103,42.3585556 L146.825517,42.3585556 C147.243483,42.3585556 147.581276,42.8181736 147.581276,43.3901427 L147.581276,47.3530718 L147.581276,47.3530718 Z M147.581276,38.720061 C147.581276,39.2876528 147.243483,39.7516481 146.825517,39.7516481 L142.417103,39.7516481 C141.999138,39.7516481 141.659207,39.2876528 141.659207,38.720061 L141.659207,34.7556728 C141.659207,34.1866219 141.999138,33.7240856 142.417103,33.7240856 L146.825517,33.7240856 C147.243483,33.7240856 147.581276,34.1866219 147.581276,34.7556728 L147.581276,38.720061 L147.581276,38.720061 Z M155.216379,55.9860826 C155.216379,56.5580517 154.878586,57.0191289 154.460621,57.0191289 L150.051138,57.0191289 C149.636379,57.0191289 149.297517,56.5580517 149.297517,55.9860826 L149.297517,52.0231535 C149.297517,51.4526435 149.636379,50.9901073 150.051138,50.9901073 L154.460621,50.9901073 C154.878586,50.9901073 155.216379,51.4526435 155.216379,52.0231535 L155.216379,55.9860826 L155.216379,55.9860826 Z M155.216379,47.3530718 C155.216379,47.9235818 154.878586,48.3861181 154.460621,48.3861181 L150.051138,48.3861181 C149.636379,48.3861181 149.297517,47.9235818 149.297517,47.3530718 L149.297517,43.3901427 C149.297517,42.8181736 149.636379,42.3585556 150.051138,42.3585556 L154.460621,42.3585556 C154.878586,42.3585556 155.216379,42.8181736 155.216379,43.3901427 L155.216379,47.3530718 L155.216379,47.3530718 Z M155.216379,38.720061 C155.216379,39.2876528 154.878586,39.7516481 154.460621,39.7516481 L150.051138,39.7516481 C149.636379,39.7516481 149.297517,39.2876528 149.297517,38.720061 L149.297517,34.7556728 C149.297517,34.1866219 149.636379,33.7240856 150.051138,33.7240856 L154.460621,33.7240856 C154.878586,33.7240856 155.216379,34.1866219 155.216379,34.7556728 L155.216379,38.720061 L155.216379,38.720061 Z M155.216379,29.5779097 C155.216379,30.4329835 154.907719,31.1200965 154.5258,31.1200965 L134.715844,31.1200965 C134.334902,31.1200965 134.026241,30.4329835 134.026241,29.5779097 L134.026241,14.1451351 C134.026241,13.2922425 134.334902,12.6029483 134.715844,12.6029483 L154.5258,12.6029483 C154.907719,12.6029483 155.216379,13.2922425 155.216379,14.1451351 L155.216379,29.5779097 L155.216379,29.5779097 Z" id="Imported-Layers" fill="#FFFFFF"></path>
                <g id="Imported-Layers" transform="translate(80.000000, 71.000000)" fill="#FFFFFF">
                    <path d="M24.8941395,-0.349627907 L4.12339535,-0.349627907 C1.60834884,-0.349627907 -0.430581395,1.69067442 -0.430581395,4.20434884 L-0.430581395,53.8974419 C-0.430581395,56.4111163 1.60834884,58.4514186 4.12339535,58.4514186 L24.8941395,58.4514186 C27.407814,58.4514186 29.4467442,56.4111163 29.4467442,53.8974419 L29.4467442,4.20434884 C29.4467442,1.69067442 27.407814,-0.349627907 24.8941395,-0.349627907 L24.8941395,-0.349627907 Z M10.5914419,3.16430233 L18.4219767,3.16430233 C18.6415116,3.16430233 18.8212558,3.3454186 18.8212558,3.56495349 C18.8212558,3.78586047 18.6415116,3.96560465 18.4219767,3.96560465 L10.5914419,3.96560465 C10.371907,3.96560465 10.1935349,3.78586047 10.1935349,3.56495349 C10.1935349,3.3454186 10.371907,3.16430233 10.5914419,3.16430233 L10.5914419,3.16430233 Z M13.8695224,55.8236977 C12.7690539,55.8236977 11.8716047,54.926482 11.8716047,53.8231772 C11.8716047,52.7177908 12.7690539,51.8236977 13.8695224,51.8236977 C14.9772788,51.8236977 15.8716047,52.7177908 15.8716047,53.8231772 C15.8716047,54.926482 14.9772788,55.8236977 13.8695224,55.8236977 L13.8695224,55.8236977 Z M1.56581395,6.65037209 L27.4503488,6.65037209 L27.4503488,49.6503721 L1.56581395,49.6503721 L1.56581395,6.65037209 Z" id="Fill-2"></path>
                </g>
                <path d="M121.497649,130.472222 L155.252351,130.472222 C157.323488,130.472222 159,128.806786 159,126.728719 L159,74.215725 C159,72.144248 157.33416,70.4722222 155.252351,70.4722222 L121.497649,70.4722222 C119.426512,70.4722222 117.75,72.1376583 117.75,74.215725 L117.75,126.728719 C117.75,128.800196 119.41584,130.472222 121.497649,130.472222 Z M121.504946,76.0906961 C121.504946,76.0893362 155.252503,76.0969426 155.252503,76.0969426 C155.259724,76.0969426 155.250275,122.971503 155.250275,122.971503 C155.250275,122.972863 121.502719,122.965257 121.502719,122.965257 C121.495498,122.965257 121.504946,76.0906961 121.504946,76.0906961 Z M138.375,128.597222 C139.410534,128.597222 140.25,127.757756 140.25,126.722222 C140.25,125.686688 139.410534,124.847222 138.375,124.847222 C137.339466,124.847222 136.5,125.686688 136.5,126.722222 C136.5,127.757756 137.339466,128.597222 138.375,128.597222 Z" id="Rectangle-26" fill="#FFFFFF"></path>
                <g id="Imported-Layers" transform="translate(39.000000, 70.000000)">
                    <path d="M30.3031496,4.4976378 C30.3031496,3.23259843 29.0451969,1.55874016 27.8114961,1.02 C27.2729134,0.754645669 27.3340157,0.802834646 26.3152756,0.586929134 C23.6286614,0.0179527559 19.0031496,-0.0626771654 14.3184252,-0.0626771654 C10.1067717,-0.0626771654 5.94818898,0.0179527559 3.53291339,0.586929134 C2.61700787,0.802834646 2.67212598,0.754645669 2.18787402,1.02 C1.07874016,1.55874016 -0.0521259843,3.23259843 -0.0521259843,4.4976378 C-0.0521259843,4.64251969 -0.0412598425,4.78472441 -0.0220472441,4.92440945 L-0.0521259843,4.92440945 L-0.0521259843,55.4198425 C-0.0521259843,56.6848819 1.20566929,58.3587402 2.43937008,58.8974803 C2.97795276,59.1628346 2.91685039,59.1146457 3.93543307,59.3303937 C6.62220472,59.8995276 11.2477165,59.9801575 15.9324409,59.9801575 C20.1440945,59.9801575 24.3025197,59.8995276 26.7179528,59.3303937 C27.6338583,59.1146457 27.5788976,59.1628346 28.0629921,58.8974803 C29.172126,58.3587402 30.3031496,56.6848819 30.3031496,55.4198425 L30.3031496,4.92440945 L30.2694488,4.92440945 C30.2908661,4.78472441 30.3031496,4.64251969 30.3031496,4.4976378" id="Fill-1" fill="#FFFFFF"></path>
                    <path d="M2.13559055,7.44330709 L28.3296063,7.44330709 L28.3296063,54.2146457 L2.13559055,54.2146457 L2.13559055,7.44330709 Z" id="Fill-2" fill="#75BAEF"></path>
                    <path d="M19.3379528,2.9296063 C19.3379528,3.20141732 19.1176378,3.4215748 18.8458268,3.4215748 L11.4048819,3.4215748 C11.1330709,3.4215748 10.9127559,3.20141732 10.9127559,2.9296063 C10.9127559,2.65795276 11.1330709,2.43732283 11.4048819,2.43732283 L18.8458268,2.43732283 C19.1176378,2.43732283 19.3379528,2.65795276 19.3379528,2.9296063" id="Fill-3" fill="#75BAEF"></path>
                    <path d="M23.8370079,3.13637795 C23.8370079,2.7503937 24.1500787,2.43732283 24.5359055,2.43732283 C24.9217323,2.43732283 25.2346457,2.7503937 25.2346457,3.13637795 C25.2346457,3.52220472 24.9217323,3.83496063 24.5359055,3.83496063 C24.1500787,3.83496063 23.8370079,3.52220472 23.8370079,3.13637795" id="Fill-4" fill="#75BAEF"></path>
                </g>
                <path d="M25.25,78.4722222 L27.2242759,78.4722222 C28.4771034,78.4722222 29.4915517,79.8583719 29.4915517,81.5684429 L29.4915517,127.166931 C29.4915517,128.878461 28.4771034,130.264611 27.2242759,130.264611 L2.51941379,130.264611 C1.26551724,130.264611 0.25,128.878461 0.25,127.166931 L0.25,81.5684429 C0.25,79.8583719 1.26551724,78.4722222 2.51941379,78.4722222 L21.25,78.4722222 L21.25,72.4642392 C21.25,71.3723984 22.1454305,70.4722222 23.25,70.4722222 C24.3622704,70.4722222 25.25,71.3640786 25.25,72.4642392 L25.25,78.4722222 Z M10.1961724,125.986083 C10.1961724,126.558052 9.85731034,127.019129 9.44041379,127.019129 L5.03093103,127.019129 C4.61403448,127.019129 4.27624138,126.558052 4.27624138,125.986083 L4.27624138,122.023154 C4.27624138,121.452644 4.61403448,120.990107 5.03093103,120.990107 L9.44041379,120.990107 C9.85731034,120.990107 10.1961724,121.452644 10.1961724,122.023154 L10.1961724,125.986083 L10.1961724,125.986083 Z M10.1961724,117.353072 C10.1961724,117.923582 9.85731034,118.386118 9.44041379,118.386118 L5.03093103,118.386118 C4.61403448,118.386118 4.27624138,117.923582 4.27624138,117.353072 L4.27624138,113.390143 C4.27624138,112.818174 4.61403448,112.358556 5.03093103,112.358556 L9.44041379,112.358556 C9.85731034,112.358556 10.1961724,112.818174 10.1961724,113.390143 L10.1961724,117.353072 L10.1961724,117.353072 Z M10.1961724,108.720061 C10.1961724,109.287653 9.85731034,109.751648 9.44041379,109.751648 L5.03093103,109.751648 C4.61403448,109.751648 4.27624138,109.287653 4.27624138,108.720061 L4.27624138,104.755673 C4.27624138,104.186622 4.61403448,103.724086 5.03093103,103.724086 L9.44041379,103.724086 C9.85731034,103.724086 10.1961724,104.186622 10.1961724,104.755673 L10.1961724,108.720061 L10.1961724,108.720061 Z M17.8312759,125.986083 C17.8312759,126.558052 17.4934828,127.019129 17.0755172,127.019129 L12.6671034,127.019129 C12.2491379,127.019129 11.9092069,126.558052 11.9092069,125.986083 L11.9092069,122.023154 C11.9092069,121.452644 12.2491379,120.990107 12.6671034,120.990107 L17.0755172,120.990107 C17.4934828,120.990107 17.8312759,121.452644 17.8312759,122.023154 L17.8312759,125.986083 L17.8312759,125.986083 Z M17.8312759,117.353072 C17.8312759,117.923582 17.4934828,118.386118 17.0755172,118.386118 L12.6671034,118.386118 C12.2491379,118.386118 11.9092069,117.923582 11.9092069,117.353072 L11.9092069,113.390143 C11.9092069,112.818174 12.2491379,112.358556 12.6671034,112.358556 L17.0755172,112.358556 C17.4934828,112.358556 17.8312759,112.818174 17.8312759,113.390143 L17.8312759,117.353072 L17.8312759,117.353072 Z M17.8312759,108.720061 C17.8312759,109.287653 17.4934828,109.751648 17.0755172,109.751648 L12.6671034,109.751648 C12.2491379,109.751648 11.9092069,109.287653 11.9092069,108.720061 L11.9092069,104.755673 C11.9092069,104.186622 12.2491379,103.724086 12.6671034,103.724086 L17.0755172,103.724086 C17.4934828,103.724086 17.8312759,104.186622 17.8312759,104.755673 L17.8312759,108.720061 L17.8312759,108.720061 Z M25.4663793,125.986083 C25.4663793,126.558052 25.1285862,127.019129 24.7106207,127.019129 L20.3011379,127.019129 C19.8863793,127.019129 19.5475172,126.558052 19.5475172,125.986083 L19.5475172,122.023154 C19.5475172,121.452644 19.8863793,120.990107 20.3011379,120.990107 L24.7106207,120.990107 C25.1285862,120.990107 25.4663793,121.452644 25.4663793,122.023154 L25.4663793,125.986083 L25.4663793,125.986083 Z M25.4663793,117.353072 C25.4663793,117.923582 25.1285862,118.386118 24.7106207,118.386118 L20.3011379,118.386118 C19.8863793,118.386118 19.5475172,117.923582 19.5475172,117.353072 L19.5475172,113.390143 C19.5475172,112.818174 19.8863793,112.358556 20.3011379,112.358556 L24.7106207,112.358556 C25.1285862,112.358556 25.4663793,112.818174 25.4663793,113.390143 L25.4663793,117.353072 L25.4663793,117.353072 Z M25.4663793,108.720061 C25.4663793,109.287653 25.1285862,109.751648 24.7106207,109.751648 L20.3011379,109.751648 C19.8863793,109.751648 19.5475172,109.287653 19.5475172,108.720061 L19.5475172,104.755673 C19.5475172,104.186622 19.8863793,103.724086 20.3011379,103.724086 L24.7106207,103.724086 C25.1285862,103.724086 25.4663793,104.186622 25.4663793,104.755673 L25.4663793,108.720061 L25.4663793,108.720061 Z M25.4663793,99.5779097 C25.4663793,100.432984 25.1577187,101.120096 24.7758,101.120096 L4.96584391,101.120096 C4.584902,101.120096 4.27624138,100.432984 4.27624138,99.5779097 L4.27624138,84.1451351 C4.27624138,83.2922425 4.584902,82.6029483 4.96584391,82.6029483 L24.7758,82.6029483 C25.1577187,82.6029483 25.4663793,83.2922425 25.4663793,84.1451351 L25.4663793,99.5779097 L25.4663793,99.5779097 Z" id="Imported-Layers" fill="#FFFFFF"></path>
                <g id="Imported-Layers" transform="translate(129.000000, 141.000000)" fill="#FFFFFF">
                    <path d="M24.8941395,-0.349627907 L4.12339535,-0.349627907 C1.60834884,-0.349627907 -0.430581395,1.69067442 -0.430581395,4.20434884 L-0.430581395,53.8974419 C-0.430581395,56.4111163 1.60834884,58.4514186 4.12339535,58.4514186 L24.8941395,58.4514186 C27.407814,58.4514186 29.4467442,56.4111163 29.4467442,53.8974419 L29.4467442,4.20434884 C29.4467442,1.69067442 27.407814,-0.349627907 24.8941395,-0.349627907 L24.8941395,-0.349627907 Z M10.5914419,3.16430233 L18.4219767,3.16430233 C18.6415116,3.16430233 18.8212558,3.3454186 18.8212558,3.56495349 C18.8212558,3.78586047 18.6415116,3.96560465 18.4219767,3.96560465 L10.5914419,3.96560465 C10.371907,3.96560465 10.1935349,3.78586047 10.1935349,3.56495349 C10.1935349,3.3454186 10.371907,3.16430233 10.5914419,3.16430233 L10.5914419,3.16430233 Z M13.8695224,55.8236977 C12.7690539,55.8236977 11.8716047,54.926482 11.8716047,53.8231772 C11.8716047,52.7177908 12.7690539,51.8236977 13.8695224,51.8236977 C14.9772788,51.8236977 15.8716047,52.7177908 15.8716047,53.8231772 C15.8716047,54.926482 14.9772788,55.8236977 13.8695224,55.8236977 L13.8695224,55.8236977 Z M1.56581395,6.65037209 L27.4503488,6.65037209 L27.4503488,49.6503721 L1.56581395,49.6503721 L1.56581395,6.65037209 Z" id="Fill-2"></path>
                </g>
                <path d="M3.49764892,200.472222 L37.2523511,200.472222 C39.3234885,200.472222 41,198.806786 41,196.728719 L41,144.215725 C41,142.144248 39.3341604,140.472222 37.2523511,140.472222 L3.49764892,140.472222 C1.42651151,140.472222 -0.25,142.137658 -0.25,144.215725 L-0.25,196.728719 C-0.25,198.800196 1.41583956,200.472222 3.49764892,200.472222 Z M3.50494592,146.090696 C3.50494592,146.089336 37.2525025,146.096943 37.2525025,146.096943 C37.2597238,146.096943 37.2502755,192.971503 37.2502755,192.971503 C37.2502755,192.972863 3.50271889,192.965257 3.50271889,192.965257 C3.49549757,192.965257 3.50494592,146.090696 3.50494592,146.090696 Z M20.375,198.597222 C21.410534,198.597222 22.25,197.757756 22.25,196.722222 C22.25,195.686688 21.410534,194.847222 20.375,194.847222 C19.339466,194.847222 18.5,195.686688 18.5,196.722222 C18.5,197.757756 19.339466,198.597222 20.375,198.597222 Z" id="Rectangle-26" fill="#FFFFFF"></path>
                <g id="Imported-Layers" transform="translate(88.000000, 140.000000)">
                    <path d="M30.3031496,4.4976378 C30.3031496,3.23259843 29.0451969,1.55874016 27.8114961,1.02 C27.2729134,0.754645669 27.3340157,0.802834646 26.3152756,0.586929134 C23.6286614,0.0179527559 19.0031496,-0.0626771654 14.3184252,-0.0626771654 C10.1067717,-0.0626771654 5.94818898,0.0179527559 3.53291339,0.586929134 C2.61700787,0.802834646 2.67212598,0.754645669 2.18787402,1.02 C1.07874016,1.55874016 -0.0521259843,3.23259843 -0.0521259843,4.4976378 C-0.0521259843,4.64251969 -0.0412598425,4.78472441 -0.0220472441,4.92440945 L-0.0521259843,4.92440945 L-0.0521259843,55.4198425 C-0.0521259843,56.6848819 1.20566929,58.3587402 2.43937008,58.8974803 C2.97795276,59.1628346 2.91685039,59.1146457 3.93543307,59.3303937 C6.62220472,59.8995276 11.2477165,59.9801575 15.9324409,59.9801575 C20.1440945,59.9801575 24.3025197,59.8995276 26.7179528,59.3303937 C27.6338583,59.1146457 27.5788976,59.1628346 28.0629921,58.8974803 C29.172126,58.3587402 30.3031496,56.6848819 30.3031496,55.4198425 L30.3031496,4.92440945 L30.2694488,4.92440945 C30.2908661,4.78472441 30.3031496,4.64251969 30.3031496,4.4976378" id="Fill-1" fill="#FFFFFF"></path>
                    <path d="M2.13559055,7.44330709 L28.3296063,7.44330709 L28.3296063,54.2146457 L2.13559055,54.2146457 L2.13559055,7.44330709 Z" id="Fill-2" fill="#75BAEF"></path>
                    <path d="M19.3379528,2.9296063 C19.3379528,3.20141732 19.1176378,3.4215748 18.8458268,3.4215748 L11.4048819,3.4215748 C11.1330709,3.4215748 10.9127559,3.20141732 10.9127559,2.9296063 C10.9127559,2.65795276 11.1330709,2.43732283 11.4048819,2.43732283 L18.8458268,2.43732283 C19.1176378,2.43732283 19.3379528,2.65795276 19.3379528,2.9296063" id="Fill-3" fill="#75BAEF"></path>
                    <path d="M23.8370079,3.13637795 C23.8370079,2.7503937 24.1500787,2.43732283 24.5359055,2.43732283 C24.9217323,2.43732283 25.2346457,2.7503937 25.2346457,3.13637795 C25.2346457,3.52220472 24.9217323,3.83496063 24.5359055,3.83496063 C24.1500787,3.83496063 23.8370079,3.52220472 23.8370079,3.13637795" id="Fill-4" fill="#75BAEF"></path>
                </g>
                <path d="M75,148 L76.9742759,148 C78.2271034,148 79.2415517,149.38615 79.2415517,151.096221 L79.2415517,196.694709 C79.2415517,198.406239 78.2271034,199.792389 76.9742759,199.792389 L52.2694138,199.792389 C51.0155172,199.792389 50,198.406239 50,196.694709 L50,151.096221 C50,149.38615 51.0155172,148 52.2694138,148 L71,148 L71,141.992017 C71,140.900176 71.8954305,140 73,140 C74.1122704,140 75,140.891856 75,141.992017 L75,148 Z M59.9461724,195.51386 C59.9461724,196.085829 59.6073103,196.546907 59.1904138,196.546907 L54.780931,196.546907 C54.3640345,196.546907 54.0262414,196.085829 54.0262414,195.51386 L54.0262414,191.550931 C54.0262414,190.980421 54.3640345,190.517885 54.780931,190.517885 L59.1904138,190.517885 C59.6073103,190.517885 59.9461724,190.980421 59.9461724,191.550931 L59.9461724,195.51386 L59.9461724,195.51386 Z M59.9461724,186.88085 C59.9461724,187.45136 59.6073103,187.913896 59.1904138,187.913896 L54.780931,187.913896 C54.3640345,187.913896 54.0262414,187.45136 54.0262414,186.88085 L54.0262414,182.917921 C54.0262414,182.345951 54.3640345,181.886333 54.780931,181.886333 L59.1904138,181.886333 C59.6073103,181.886333 59.9461724,182.345951 59.9461724,182.917921 L59.9461724,186.88085 L59.9461724,186.88085 Z M59.9461724,178.247839 C59.9461724,178.815431 59.6073103,179.279426 59.1904138,179.279426 L54.780931,179.279426 C54.3640345,179.279426 54.0262414,178.815431 54.0262414,178.247839 L54.0262414,174.283451 C54.0262414,173.7144 54.3640345,173.251863 54.780931,173.251863 L59.1904138,173.251863 C59.6073103,173.251863 59.9461724,173.7144 59.9461724,174.283451 L59.9461724,178.247839 L59.9461724,178.247839 Z M67.5812759,195.51386 C67.5812759,196.085829 67.2434828,196.546907 66.8255172,196.546907 L62.4171034,196.546907 C61.9991379,196.546907 61.6592069,196.085829 61.6592069,195.51386 L61.6592069,191.550931 C61.6592069,190.980421 61.9991379,190.517885 62.4171034,190.517885 L66.8255172,190.517885 C67.2434828,190.517885 67.5812759,190.980421 67.5812759,191.550931 L67.5812759,195.51386 L67.5812759,195.51386 Z M67.5812759,186.88085 C67.5812759,187.45136 67.2434828,187.913896 66.8255172,187.913896 L62.4171034,187.913896 C61.9991379,187.913896 61.6592069,187.45136 61.6592069,186.88085 L61.6592069,182.917921 C61.6592069,182.345951 61.9991379,181.886333 62.4171034,181.886333 L66.8255172,181.886333 C67.2434828,181.886333 67.5812759,182.345951 67.5812759,182.917921 L67.5812759,186.88085 L67.5812759,186.88085 Z M67.5812759,178.247839 C67.5812759,178.815431 67.2434828,179.279426 66.8255172,179.279426 L62.4171034,179.279426 C61.9991379,179.279426 61.6592069,178.815431 61.6592069,178.247839 L61.6592069,174.283451 C61.6592069,173.7144 61.9991379,173.251863 62.4171034,173.251863 L66.8255172,173.251863 C67.2434828,173.251863 67.5812759,173.7144 67.5812759,174.283451 L67.5812759,178.247839 L67.5812759,178.247839 Z M75.2163793,195.51386 C75.2163793,196.085829 74.8785862,196.546907 74.4606207,196.546907 L70.0511379,196.546907 C69.6363793,196.546907 69.2975172,196.085829 69.2975172,195.51386 L69.2975172,191.550931 C69.2975172,190.980421 69.6363793,190.517885 70.0511379,190.517885 L74.4606207,190.517885 C74.8785862,190.517885 75.2163793,190.980421 75.2163793,191.550931 L75.2163793,195.51386 L75.2163793,195.51386 Z M75.2163793,186.88085 C75.2163793,187.45136 74.8785862,187.913896 74.4606207,187.913896 L70.0511379,187.913896 C69.6363793,187.913896 69.2975172,187.45136 69.2975172,186.88085 L69.2975172,182.917921 C69.2975172,182.345951 69.6363793,181.886333 70.0511379,181.886333 L74.4606207,181.886333 C74.8785862,181.886333 75.2163793,182.345951 75.2163793,182.917921 L75.2163793,186.88085 L75.2163793,186.88085 Z M75.2163793,178.247839 C75.2163793,178.815431 74.8785862,179.279426 74.4606207,179.279426 L70.0511379,179.279426 C69.6363793,179.279426 69.2975172,178.815431 69.2975172,178.247839 L69.2975172,174.283451 C69.2975172,173.7144 69.6363793,173.251863 70.0511379,173.251863 L74.4606207,173.251863 C74.8785862,173.251863 75.2163793,173.7144 75.2163793,174.283451 L75.2163793,178.247839 L75.2163793,178.247839 Z M75.2163793,169.105687 C75.2163793,169.960761 74.9077187,170.647874 74.5258,170.647874 L54.7158439,170.647874 C54.334902,170.647874 54.0262414,169.960761 54.0262414,169.105687 L54.0262414,153.672913 C54.0262414,152.82002 54.334902,152.130726 54.7158439,152.130726 L74.5258,152.130726 C74.9077187,152.130726 75.2163793,152.82002 75.2163793,153.672913 L75.2163793,169.105687 L75.2163793,169.105687 Z" id="Imported-Layers" fill="#FFFFFF"></path>
            </g>
        </g>
    </g>
</svg>