<?xml version="1.0" encoding="UTF-8" standalone="no"?>
<svg width="400px" height="250px" viewBox="0 0 400 250" version="1.1" xmlns="http://www.w3.org/2000/svg" xmlns:xlink="http://www.w3.org/1999/xlink" xmlns:sketch="http://www.bohemiancoding.com/sketch/ns">
    <title>Untitled 2</title>
    <description>Created with Sketch (http://www.bohemiancoding.com/sketch)</description>
    <defs></defs>
    <g id="Page-1" stroke="none" stroke-width="1" fill="none" fill-rule="evenodd" sketch:type="MSPage">
        <g id="Rectangle-1-+-Group-+-Rectangle-35" sketch:type="MSLayerGroup">
            <rect id="Rectangle-1" fill="#F9F9F9" sketch:type="MSShapeGroup" x="0" y="0" width="400" height="250"></rect>
            <g id="Group" transform="translate(41.000000, 33.000000)" sketch:type="MSShapeGroup">
                <rect id="Rectangle-1" fill="#2779B7" x="0" y="15.5" width="16.1333008" height="9.5"></rect>
                <rect id="Rectangle-1" fill="#2779B7" x="18" y="15.5" width="10.1333008" height="9.5"></rect>
                <rect id="Rectangle-1" fill="#2779B7" x="30" y="15.5" width="10.1333008" height="9.5"></rect>
                <rect id="Rectangle-1" stroke="#E4E4E4" fill="#FFFFFF" x="98" y="5" width="220" height="20" rx="3"></rect>
                <rect id="Rectangle-1" fill="#F26522" x="287" y="6" width="30" height="18" rx="3"></rect>
                <g id="Oval-1-+-Line" transform="translate(296.000000, 9.000000)" stroke="#FFFFFF" stroke-width="2">
                    <path d="M4,8 C6.20913911,8 8,6.20913911 8,4 C8,1.79086089 6.20913911,0 4,0 C1.79086089,0 0,1.79086089 0,4 C0,6.20913911 1.79086089,8 4,8 Z" id="Oval-1"></path>
                    <path d="M7.5,7.5 L12.0276928,12.0276928" id="Line" stroke-linecap="round"></path>
                </g>
                <rect id="Rectangle-4" fill="#D4D4D4" x="240" y="35" width="78" height="80"></rect>
                <rect id="Rectangle-4" fill="#D4D4D4" x="0" y="139" width="30" height="36"></rect>
                <rect id="Rectangle-4" fill="#D4D4D4" x="34" y="139" width="43" height="6"></rect>
                <rect id="Rectangle-4" fill="#D4D4D4" x="34" y="149" width="27" height="6"></rect>
                <rect id="Rectangle-4" fill="#D4D4D4" x="34" y="159" width="37" height="6"></rect>
                <rect id="Rectangle-4" fill="#2779B7" x="0" y="35" width="157" height="80"></rect>
                <rect id="Rectangle-4" fill="#2779B7" x="160" y="35" width="77" height="40"></rect>
                <rect id="Rectangle-4" fill="#2779B7" x="160" y="78" width="37" height="17"></rect>
                <rect id="Rectangle-4" fill="#2779B7" x="200" y="78" width="37" height="17"></rect>
                <rect id="Rectangle-4" fill="#2779B7" x="160" y="98" width="37" height="17"></rect>
                <rect id="Rectangle-4" fill="#2779B7" x="200" y="98" width="37" height="17"></rect>
                <rect id="Rectangle-4" fill="#F26522" x="0" y="124" width="77" height="11"></rect>
                <rect id="Rectangle-4" fill="#D4D4D4" x="80" y="139" width="30" height="36"></rect>
                <rect id="Rectangle-4" fill="#D4D4D4" x="114" y="139" width="43" height="6"></rect>
                <rect id="Rectangle-4" fill="#D4D4D4" x="114" y="149" width="27" height="6"></rect>
                <rect id="Rectangle-4" fill="#D4D4D4" x="114" y="159" width="37" height="6"></rect>
                <rect id="Rectangle-4" fill="#2779B7" x="80" y="124" width="77" height="11"></rect>
                <rect id="Rectangle-4" fill="#D4D4D4" x="160" y="139" width="30" height="36"></rect>
                <rect id="Rectangle-4" fill="#D4D4D4" x="194" y="139" width="43" height="6"></rect>
                <rect id="Rectangle-4" fill="#D4D4D4" x="194" y="149" width="27" height="6"></rect>
                <rect id="Rectangle-4" fill="#D4D4D4" x="194" y="159" width="37" height="6"></rect>
                <rect id="Rectangle-4" fill="#D83E32" x="160" y="124" width="77" height="11"></rect>
                <rect id="Rectangle-4" fill="#D4D4D4" x="240" y="139" width="30" height="36"></rect>
                <rect id="Rectangle-4" fill="#D4D4D4" x="274" y="139" width="43" height="6"></rect>
                <rect id="Rectangle-4" fill="#D4D4D4" x="274" y="149" width="27" height="6"></rect>
                <rect id="Rectangle-4" fill="#D4D4D4" x="274" y="159" width="37" height="6"></rect>
                <rect id="Rectangle-4" fill="#359900" x="240" y="124" width="77" height="11"></rect>
                <path d="M52.5810725,0.110226844 C52.5810725,0.110226844 48.787819,-0.0129332965 46.9225014,5.70787802 C45.2729493,11.5163912 47.8195138,17.9333489 47.8195138,17.9333489 C47.8195138,17.9333489 48.7446285,20.0114155 50.3421252,20.0114149 C51.9396219,20.0114142 53.8143702,16.5842468 53.8143702,16.5842468 C53.8143702,16.5842468 56.2915271,11.9392468 56.8069889,7.91419641 C57.3224507,3.88914602 55.9094107,0.294306751 52.5810725,0.110226844 Z M39.2796646,6.46400133 C39.2796646,6.46400133 37.3456943,7.52114034 40.2440095,12.8496503 C43.142325,18.1781601 45.4819881,19.4891636 45.4819881,19.4891636 C45.4819881,19.4891636 46.486318,20.0713917 46.4863175,18.4224054 C46.4863171,16.7734191 44.0712118,11.2674307 44.0712118,11.2674307 C44.0712118,11.2674307 41.2077885,5.6694023 39.2796646,6.46400133 Z M47.0426814,20.1531338 C47.0426814,20.1531338 46.6776772,20.6716361 46.1091045,20.7898063 C45.4761412,20.9213593 44.4997257,20.5650692 43.5340606,19.3548758 C43.5053924,21.678696 44.9454028,24.148812 45.9269108,25.0816595 C46.9084188,26.0145071 47.9789493,25.5222442 47.9789491,23.9058869 C47.9789488,22.2895295 47.0426814,20.1531338 47.0426814,20.1531338 Z M54.4644966,17.5632024 C54.4644966,17.5632024 52.8230546,20.4237401 51.1437027,21.0216225 C49.4643507,21.619505 48.4760529,20.4807935 48.3483663,20.3461285 C49.9208412,26.1407673 54.3462404,29.3859418 57.4090207,26.8436211 C59.6598502,24.8992769 57.2892556,20.8189649 57.038409,20.4873947 C56.3066159,19.1622457 54.4644966,17.5632024 54.4644966,17.5632024 Z" id="MSN" fill="#2779B7"></path>
                <path d="M68.6848667,115 L79,115 L124.200345,115 L125.289776,106.457454 L154.704986,91.2961494 L124.778581,77.1706159 L119.449099,44.5099814 L96.7671741,68.6066618 L64.0581643,63.5826101 L79.9663701,92.6006917 L68.6848667,115 Z" id="Rectangle-1" fill="#FFFFFF"></path>
            </g>
            <path d="M200.5,234 C204.089851,234 207,231.089851 207,227.5 C207,223.910149 204.089851,221 200.5,221 C196.910149,221 194,223.910149 194,227.5 C194,231.089851 196.910149,234 200.5,234 Z M20,28.0087109 L20,222.991289 C20,231.278137 26.7133367,238 35.0035656,238 L364.996434,238 C373.285333,238 380,231.287486 380,222.991289 L380,28.0087109 C380,19.7218633 373.286663,13 364.996434,13 L35.0035656,13 C26.714667,13 20,19.7125143 20,28.0087109 Z M30,31.0087109 L30,210.991289 C30,213.757524 32.2384235,216 35.0035656,216 L364.996434,216 C367.759827,216 370,213.767295 370,210.991289 L370,31.0087109 C370,28.2424762 367.761576,26 364.996434,26 L35.0035656,26 C32.2401726,26 30,28.2327051 30,31.0087109 Z" id="Rectangle-35" fill="#606060" sketch:type="MSShapeGroup"></path>
        </g>
    </g>
</svg>