<?xml version="1.0" encoding="UTF-8" standalone="no"?>
<svg width="72px" height="72px" viewBox="0 0 72 72" version="1.1" xmlns="http://www.w3.org/2000/svg" xmlns:xlink="http://www.w3.org/1999/xlink" xmlns:sketch="http://www.bohemiancoding.com/sketch/ns">
    <title>Untitled</title>
    <description>Created with Sketch (http://www.bohemiancoding.com/sketch)</description>
    <defs></defs>
    <g id="Page-1" stroke="none" stroke-width="1" fill="none" fill-rule="evenodd" sketch:type="MSPage">
        <g id="Star-1-+-Star-2" sketch:type="MSLayerGroup" transform="translate(7.000000, 7.000000)">
            <polygon id="Star-1" fill="#FFFFFF" sketch:type="MSShapeGroup" points="28.9999996 38.6939993 17.8321971 44.5652618 19.965057 32.1297292 10.9301137 23.3228364 23.4160999 21.508515 29.0000002 10.1942952 34.583904 21.5085178 47.0698892 23.3228455 38.0349422 32.1297316 40.1678026 44.5652621 "></polygon>
            <polygon id="Star-2" stroke="#FFFFFF" stroke-width="4" sketch:type="MSShapeGroup" points="28.999999 52.1491227 22.0598451 57.1573125 18.2420687 49.4975314 9.76944332 50.7068121 9.9486445 42.150199 1.88452713 39.2835369 6.01966041 31.7903175 0.211443129 25.5044323 7.35519429 20.791208 5.13346946 12.5261201 13.6492915 11.6726336 15.5230233 3.32177775 23.4600504 6.52354926 29.0000003 3.21964677e-15 34.5399501 6.52354939 42.4769774 3.32177807 44.3507048 11.6726303 52.8665309 12.5261206 50.6448059 20.7912086 57.7885578 25.5044399 51.9803389 31.7903235 56.1154677 39.2835505 48.0513552 42.1501994 48.2305562 50.7068125 39.7579308 49.4975317 35.9401475 57.1573144 "></polygon>
        </g>
    </g>
</svg>