<?xml version="1.0" encoding="UTF-8" standalone="no"?>
<svg width="72px" height="72px" viewBox="0 0 72 72" version="1.1" xmlns="http://www.w3.org/2000/svg" xmlns:xlink="http://www.w3.org/1999/xlink" xmlns:sketch="http://www.bohemiancoding.com/sketch/ns">
    <title>Untitled</title>
    <description>Created with Sketch (http://www.bohemiancoding.com/sketch)</description>
    <defs></defs>
    <g id="Page-1" stroke="none" stroke-width="1" fill="none" fill-rule="evenodd" sketch:type="MSPage">
        <g id="target" sketch:type="MSLayerGroup" transform="translate(5.797314, 6.000000)">
            <g id="Oval-4-+-Oval-5" transform="translate(18.427587, 17.697272)" fill="#FFFFFF" sketch:type="MSShapeGroup">
                <path d="M12.9896041,11.1124985 C16.1573338,11.1124985 18.7252859,8.62488115 18.7252859,5.55624926 C18.7252859,2.48761738 16.1573338,0 12.9896041,0 C9.82187429,0 7.25392221,2.48761738 7.25392221,5.55624926 C7.25392221,8.62488115 9.82187429,11.1124985 12.9896041,11.1124985 Z" id="Oval-4"></path>
                <path d="M25.4088246,25.5017587 C25.4088246,17.354012 19.7208658,10.7489589 12.7044123,10.7489589 C5.68795879,10.7489589 0,17.354012 0,25.5017587" id="Oval-5"></path>
            </g>
            <path d="M0.423462223,30.5032403 L10.5865556,30.5032403" id="Line" stroke="#FFFFFF" stroke-width="3" stroke-linecap="round" sketch:type="MSShapeGroup"></path>
            <path d="M51.8811025,30.5032403 L62.0441958,30.5032403" id="Line" stroke="#FFFFFF" stroke-width="3" stroke-linecap="round" sketch:type="MSShapeGroup"></path>
            <path d="M31.1013431,-0.0281996919 L31.1013423,10.1348937" id="Line" stroke="#FFFFFF" stroke-width="3" stroke-linecap="round" sketch:type="MSShapeGroup"></path>
            <path d="M31.1013431,50.8433873 L31.1013423,61.0290405" id="Line" stroke="#FFFFFF" stroke-width="3" stroke-linecap="round" sketch:type="MSShapeGroup"></path>
            <rect id="Rectangle-10" stroke="#FFFFFF" stroke-width="3" sketch:type="MSShapeGroup" x="6.57913027" y="5.98102752" width="49.0444257" height="49.0444257" rx="6"></rect>
        </g>
    </g>
</svg>