<?xml version="1.0" encoding="UTF-8" standalone="no"?>
<svg width="72px" height="72px" viewBox="0 0 72 72" version="1.1" xmlns="http://www.w3.org/2000/svg" xmlns:xlink="http://www.w3.org/1999/xlink" xmlns:sketch="http://www.bohemiancoding.com/sketch/ns">
    <title>Untitled</title>
    <description>Created with Sketch (http://www.bohemiancoding.com/sketch)</description>
    <defs></defs>
    <g id="Page-1" stroke="none" stroke-width="1" fill="none" fill-rule="evenodd" sketch:type="MSPage">
        <g id="Oval-4-+-Oval-17-+-Oval-4-+-Oval-17" sketch:type="MSLayerGroup" transform="translate(4.000000, 3.560409)">
            <g id="Oval-4-+-Oval-17" transform="translate(0.040929, 0.000000)" sketch:type="MSShapeGroup">
                <path d="M20.6319371,50.2950538 C8.02990548,50.2607426 3.44169138e-15,48.0555567 3.44169138e-15,48.0555567 C3.44169138e-15,32.9858841 9.44936578,20.7640415 21.1196107,20.7173171 C15.4188315,20.5305927 10.8565422,15.9949323 10.8565422,10.4270267 C10.8565422,4.74055315 15.6152074,0.130755995 21.485319,0.130755995 C27.3554307,0.130755995 32.1140958,4.74055315 32.1140958,10.4270267 C32.1140958,16.0725218 27.4237684,20.6568023 21.6120502,20.7225806 L21.6120502,20.7225806 C24.9106677,20.8063852 28.0244725,21.8629491 30.7882757,23.6791203 C31.4623983,26.6895887 33.2994274,29.278529 35.8199318,30.9763268 C28.5260324,33.7945302 22.8293881,41.0953488 20.6319416,50.2950538 Z" id="Oval-4" fill="#2779B7"></path>
                <path d="M14.4286589,12.0524139 C14.4286589,12.0524139 15.2323685,11.4717386 15.2997821,11.831468 C15.820308,14.6090796 18.2580683,16.7110332 21.1867661,16.7110332 C24.1343027,16.7110332 26.5845653,14.581951 27.0835566,11.7777836 C27.1445788,11.4348586 27.9448732,12.0524139 27.9448732,12.0524139" id="Oval-17" stroke="#FFFFFF" stroke-width="1.5" stroke-linecap="round"></path>
            </g>
            <g id="Oval-4-+-Oval-17" transform="translate(21.378056, 10.689028)" sketch:type="MSShapeGroup">
                <path d="M21.485319,20.7232975 C27.3554307,20.7232975 32.1140958,16.1135003 32.1140958,10.4270267 C32.1140958,4.74055315 27.3554307,0.130755995 21.485319,0.130755995 C15.6152074,0.130755995 10.8565422,4.74055315 10.8565422,10.4270267 C10.8565422,16.1135003 15.6152074,20.7232975 21.485319,20.7232975 Z" id="Oval-4" fill="#2779B7"></path>
                <path d="M42.3735322,48.0555567 C42.3735322,32.9569889 32.8878945,20.7171827 21.1867661,20.7171827 C9.4856377,20.7171827 3.55271368e-15,32.9569889 3.55271368e-15,48.0555567 C3.55271368e-15,48.0555567 8.15631725,50.295458 20.9292002,50.2954584 C33.7020831,50.2954589 42.0792571,48.1989673 42.0792571,48.1989673" id="Oval-5" fill="#2779B7"></path>
                <path d="M14.4286589,12.0524139 C14.4286589,12.0524139 15.2323685,11.4717386 15.2997821,11.831468 C15.820308,14.6090796 18.2580683,16.7110332 21.1867661,16.7110332 C24.1343027,16.7110332 26.5845653,14.581951 27.0835566,11.7777836 C27.1445788,11.4348586 27.9448732,12.0524139 27.9448732,12.0524139" id="Oval-17" stroke="#FFFFFF" stroke-width="1.5" stroke-linecap="round"></path>
            </g>
        </g>
    </g>
</svg>