<?xml version="1.0" encoding="UTF-8" standalone="no"?>
<svg width="72px" height="72px" viewBox="0 0 72 72" version="1.1" xmlns="http://www.w3.org/2000/svg" xmlns:xlink="http://www.w3.org/1999/xlink" xmlns:sketch="http://www.bohemiancoding.com/sketch/ns">
    <title>Untitled</title>
    <description>Created with Sketch (http://www.bohemiancoding.com/sketch)</description>
    <defs></defs>
    <g id="Page-1" stroke="none" stroke-width="1" fill="none" fill-rule="evenodd" sketch:type="MSPage">
        <g id="Group" sketch:type="MSLayerGroup" transform="translate(3.699153, 5.750000)">
            <path d="M42.3692684,28.959268 C44.2410898,28.959268 46.010915,28.5263301 47.5824195,27.7559492 C47.5824199,27.7559497 55.0585774,30.0746805 55.0585774,30.0746805 L52.7796971,22.7473232 C53.6519034,21.1172167 54.1459632,19.2577947 54.1459632,17.2839723 C54.1459632,10.8358842 48.8733576,5.60867663 42.3692684,5.60867663 C35.8651791,5.60867663 30.5925735,10.8358842 30.5925735,17.2839723 C30.5925735,23.7320604 35.8651791,28.959268 42.3692684,28.959268 Z" id="Oval-3" stroke="#F7F7F4" stroke-width="2" fill="#2779B7" sketch:type="MSShapeGroup" transform="translate(42.914706, 17.930809) rotate(94.000000) translate(-42.914706, -17.930809) "></path>
            <path d="M23.413876,52.4004367 C25.2856975,52.4004367 27.0555226,51.9674988 28.6270272,51.197118 C28.6270276,51.1971185 36.1031851,53.5158493 36.1031851,53.5158493 L33.8243048,46.188492 C34.6965111,44.5583855 35.1905709,42.6989635 35.1905709,40.7251411 C35.1905709,34.277053 29.9179653,29.0498454 23.413876,29.0498454 C16.9097868,29.0498454 11.6371812,34.277053 11.6371812,40.7251411 C11.6371812,47.1732291 16.9097868,52.4004367 23.413876,52.4004367 Z" id="Oval-3" stroke="#F7F7F4" stroke-width="2" fill="#2779B7" sketch:type="MSShapeGroup" transform="translate(23.900695, 41.313359) rotate(82.000000) translate(-23.900695, -41.313359) "></path>
            <g id="Oval-4-+-Oval-5" transform="translate(39.476324, 10.900901)" fill="#FFFFFF" sketch:type="MSShapeGroup">
                <path d="M4.67591571,5.64000567 C6.23336034,5.64000567 7.49591854,4.37744747 7.49591854,2.82000283 C7.49591854,1.2625582 6.23336034,0 4.67591571,0 C3.11847107,0 1.85591287,1.2625582 1.85591287,2.82000283 C1.85591287,4.37744747 3.11847107,5.64000567 4.67591571,5.64000567 Z" id="Oval-4"></path>
                <path d="M9.55007977,11.1192636 C9.55007977,7.95798137 7.41222172,5.39525602 4.77503988,5.39525602 C2.13785805,5.39525602 0,7.95798137 0,11.1192636" id="Oval-5"></path>
            </g>
            <path d="M19.610174,37.8113364 C22.553809,37.8113364 25.3370441,37.1304963 27.8083993,35.9189917 C27.8083999,35.9189925 39.5654392,39.5654392 39.5654392,39.5654392 L35.9816617,28.0424037 C37.3532973,25.4788909 38.130258,22.5547553 38.130258,19.4507132 C38.130258,9.31042057 29.8385345,1.09009009 19.610174,1.09009009 C9.3818136,1.09009009 1.09009009,9.31042057 1.09009009,19.4507132 C1.09009009,29.5910059 9.3818136,37.8113364 19.610174,37.8113364 Z" id="Oval-3" stroke="#F7F7F4" stroke-width="2" fill="#2779B7" sketch:type="MSShapeGroup" transform="translate(20.467932, 20.467932) rotate(94.000000) translate(-20.467932, -20.467932) "></path>
            <path d="M44.1372011,58.5230481 C47.080836,58.5230481 49.8640711,57.842208 52.3354263,56.6307035 C52.335427,56.6307042 64.0924662,60.2771509 64.0924662,60.2771509 L60.5086887,48.7541154 C61.8803243,46.1906026 62.657285,43.266467 62.657285,40.1624249 C62.657285,30.0221323 54.3655615,21.8018018 44.1372011,21.8018018 C33.9088406,21.8018018 25.6171171,30.0221323 25.6171171,40.1624249 C25.6171171,50.3027176 33.9088406,58.5230481 44.1372011,58.5230481 Z" id="Oval-3" stroke="#F7F7F4" stroke-width="2" fill="#2779B7" sketch:type="MSShapeGroup"></path>
            <path d="M47.1544954,36.2187403 L54.5340827,37.3304585 L49.1936078,42.7315718 L50.4546536,50.3586212 L43.8537351,46.757879 L37.2528166,50.3586212 L38.5138624,42.7315718 L33.1739897,37.3304585 L40.5547814,36.2187403 L43.8537351,29.2809688 L47.1544954,36.2187403 Z" id="Imported-Layers" fill="#FFFFFF" sketch:type="MSShapeGroup"></path>
            <path d="M20.9666248,18.4792927 C21.4499559,18.4792927 21.8599181,18.647593 22.1965237,18.9841986 C22.5331293,19.3208042 22.7014296,19.7350818 22.7014296,20.2270439 C22.7014296,20.7190059 22.5331293,21.1332835 22.1965237,21.4698891 C21.8599181,21.8064947 21.4542713,21.974795 20.9795711,21.974795 C20.5048708,21.974795 20.0949086,21.8021793 19.7496721,21.4569428 C19.4044356,21.1117063 19.2318199,20.6974287 19.2318199,20.2140976 C19.2318199,19.7307664 19.4044356,19.3208042 19.7496721,18.9841986 C20.0949086,18.647593 20.5005555,18.4792927 20.9666248,18.4792927 Z M29.7183268,18.5051853 C30.2016579,18.5051853 30.6116201,18.6734856 30.9482257,19.0100912 C31.2848313,19.3466968 31.4531316,19.7609744 31.4531316,20.2529365 C31.4531316,20.7448985 31.2848313,21.1591761 30.9482257,21.4957817 C30.6116201,21.8323873 30.2059733,22.0006876 29.7312731,22.0006876 C29.2565728,22.0006876 28.8466106,21.828072 28.5013741,21.4828354 C28.1561376,21.1375989 27.9835219,20.7233213 27.9835219,20.2399902 C27.9835219,19.7566591 28.1561376,19.3466968 28.5013741,19.0100912 C28.8466106,18.6734856 29.2522575,18.5051853 29.7183268,18.5051853 Z M12.3443858,18.5051853 C12.8277169,18.5051853 13.2376791,18.6734856 13.5742848,19.0100912 C13.9108904,19.3466968 14.0791906,19.7609744 14.0791906,20.2529365 C14.0791906,20.7448985 13.9108904,21.1591761 13.5742848,21.4957817 C13.2376791,21.8323873 12.8320323,22.0006876 12.3573321,22.0006876 C11.8826319,22.0006876 11.4726697,21.828072 11.1274332,21.4828354 C10.7821966,21.1375989 10.609581,20.7233213 10.609581,20.2399902 C10.609581,19.7566591 10.7821966,19.3466968 11.1274332,19.0100912 C11.4726697,18.6734856 11.8783165,18.5051853 12.3443858,18.5051853 Z" id="…" fill="#FFFFFF" sketch:type="MSShapeGroup"></path>
        </g>
    </g>
</svg>