<?xml version="1.0" encoding="UTF-8" standalone="no"?>
<svg width="72px" height="72px" viewBox="0 0 72 72" version="1.1" xmlns="http://www.w3.org/2000/svg" xmlns:xlink="http://www.w3.org/1999/xlink" xmlns:sketch="http://www.bohemiancoding.com/sketch/ns">
    <title>Untitled</title>
    <description>Created with Sketch (http://www.bohemiancoding.com/sketch)</description>
    <defs></defs>
    <g id="Page-1" stroke="none" stroke-width="1" fill="none" fill-rule="evenodd" sketch:type="MSPage">
        <g id="Group" sketch:type="MSLayerGroup" transform="translate(17.000000, 8.000000)">
            <path d="M23.997992,56.0245345 C31.1788031,56.0245345 37,50.2576878 37,43.1439211 C37,36.0301545 31.1788031,30.2633078 23.997992,30.2633078 C16.8171809,30.2633078 10.9959839,36.0301545 10.9959839,43.1439211 C10.9959839,50.2576878 16.8171809,56.0245345 23.997992,56.0245345 Z" id="Oval-39" fill="#FFFFFF" sketch:type="MSShapeGroup"></path>
            <rect id="Rectangle-7" fill="#FFFFFF" sketch:type="MSShapeGroup" x="30.498996" y="26.2318011" width="6.50100402" height="20.4233045" rx="20"></rect>
            <rect id="Rectangle-7" fill="#FFFFFF" sketch:type="MSShapeGroup" x="23.997992" y="23.8263896" width="6.50100402" height="20.4233045" rx="20"></rect>
            <rect id="Rectangle-7" fill="#FFFFFF" sketch:type="MSShapeGroup" x="17.496988" y="21.5927933" width="6.50100402" height="20.4233045" rx="20"></rect>
            <rect id="Rectangle-7" fill="#FFFFFF" sketch:type="MSShapeGroup" transform="translate(10.708179, 41.671429) rotate(-37.000000) translate(-10.708179, -41.671429) " x="7.45767706" y="29.833954" width="6.50100402" height="23.4616509" rx="10"></rect>
            <rect id="Rectangle-7" fill="#FFFFFF" sketch:type="MSShapeGroup" x="10.9959839" y="7.5075575" width="6.50100402" height="37.8519912" rx="20"></rect>
            <path d="M20.7775454,16.0910564 C22.3799526,14.4700354 23.3671146,12.2550258 23.3671146,9.81270203 C23.3671146,7.37743037 22.385645,5.16816202 20.7914107,3.54840436 M7.76067001,3.43890259 C6.01965918,5.07715374 5.11746282,7.25257001 5.11746282,9.81270203 C5.11746282,12.2522297 6.10236593,14.4649635 7.70153095,16.0854867" id="Oval-8" stroke="#FFFFFF" stroke-width="3" stroke-linecap="round" sketch:type="MSShapeGroup"></path>
            <path d="M4.39771685,0.340056818 C1.87586388,2.8224935 0.315688316,6.2542544 0.315688316,10.0452774 C0.315688316,13.8641372 1.89886033,17.3184395 4.45342484,19.8050285 M24.0613876,19.7440714 C26.5794068,17.2621401 28.136892,13.83303 28.136892,10.0452774 C28.136892,6.28446373 26.6014822,2.87720938 24.1149672,0.39958235" id="Oval-9" stroke="#FFFFFF" stroke-width="3" stroke-linecap="round" sketch:type="MSShapeGroup"></path>
        </g>
    </g>
</svg>