<?xml version="1.0" encoding="UTF-8" standalone="no"?>
<svg width="72px" height="72px" viewBox="0 0 72 72" version="1.1" xmlns="http://www.w3.org/2000/svg" xmlns:xlink="http://www.w3.org/1999/xlink" xmlns:sketch="http://www.bohemiancoding.com/sketch/ns">
    <title>Untitled</title>
    <description>Created with Sketch (http://www.bohemiancoding.com/sketch)</description>
    <defs></defs>
    <g id="Page-1" stroke="none" stroke-width="1" fill="none" fill-rule="evenodd" sketch:type="MSPage">
        <g id="Group" sketch:type="MSLayerGroup" transform="translate(1.611570, -4.632479)" fill="#2779B7">
            <g id="Imported-Layers" transform="translate(36.162991, 37.580205) rotate(-258.000000) translate(-36.162991, -37.580205) translate(4.128733, 7.101008)" sketch:type="MSShapeGroup">
                <path d="M57.5521801,11.5424907 C57.5521801,11.5424907 52.9924083,25.343688 51.8116205,26.0942262 C51.8116205,26.0942262 54.5118372,26.9924978 53.5003699,29.0924219 C52.4874173,31.192346 46.9117225,43.7932098 41.8469597,47.0934674 C41.8469597,47.0934674 40.4953661,47.991739 38.9759373,47.2425198 L27.4903624,58.7921025 C27.4903624,58.7921025 31.2065021,61.9419887 36.9470617,60.1441265 C42.6905918,58.3436262 64.4794685,41.8423381 63.2971955,15.742339 C63.2971955,15.742339 62.1134371,11.8445527 57.5521801,11.5424907" id="Fill-1" transform="translate(45.416941, 36.120528) rotate(-1.000000) translate(-45.416941, -36.120528) "></path>
                <path d="M55.1891192,10.7932716 L49.7842302,25.1919975 C49.7842302,25.1919975 46.9117225,24.8938927 45.9002552,23.6922401 C44.8873026,22.4919066 45.3922937,22.7939686 46.0680904,20.5449921 C46.7438872,18.2933774 49.6163949,11.6928622 49.6163949,11.6928622 C49.6163949,11.6928622 50.8001533,9.895 52.3166116,10.0440524 C53.8375257,10.1931048 55.1891192,10.7932716 55.1891192,10.7932716" id="Fill-2" transform="translate(50.258037, 17.613634) rotate(-1.000000) translate(-50.258037, -17.613634) "></path>
                <path d="M36.4866287,45.949853 L25.6664537,57.6972928 C25.6664537,57.6972928 23.1043669,56.5088307 22.6379929,55.0671114 C22.1701336,53.6240731 22.5236273,54.0672732 24.0564235,52.1757586 C25.590705,50.2882012 30.9198454,45.0265195 30.9198454,45.0265195 C30.9198454,45.0265195 32.7437541,43.7206621 34.1042593,44.3392956 C35.4647645,44.9605671 36.4866287,45.949853 36.4866287,45.949853" id="Fill-3" transform="translate(29.466164, 50.935112) rotate(-1.000000) translate(-29.466164, -50.935112) "></path>
                <path d="M21.9265063,3.9755738 C16.664912,3.9755738 11.5986707,5.53969172 7.27114838,8.49974282 C6.1559543,9.26045526 5.87133401,10.7831739 6.63204644,11.8983679 C7.3940526,13.013562 8.91418374,13.299476 10.0306716,12.5361761 C13.5418511,10.1350158 17.6546144,8.8645743 21.9265063,8.8645743 C33.5532455,8.8645743 43.0155767,18.3256118 43.0155767,29.9562322 C43.0155767,35.3019189 41.0128848,40.3979159 37.3762136,44.3062701 C36.4563726,45.2972663 36.5120029,46.8445657 37.502999,47.763113 C37.9739162,48.201687 38.5703251,48.416446 39.166734,48.416446 C39.8226545,48.416446 40.4746937,48.1564065 40.9598419,47.6376213 C45.4387304,42.8223634 47.9058709,36.5413109 47.9058709,29.9562322 C47.9058709,15.6294813 36.2506697,3.9755738 21.9265063,3.9755738" id="Fill-3" transform="translate(27.055877, 26.196010) rotate(-106.000000) translate(-27.055877, -26.196010) "></path>
            </g>
            <path d="M33.5893198,28.3710144 C33.5893198,29.5733856 34.5640342,30.5481 35.7664053,30.5481 C36.9687765,30.5481 37.9434909,29.5733856 37.9434909,28.3710144 L37.9434909,20.8378187 C37.9434909,19.6354476 36.9687765,18.6607332 35.7664053,18.6607332 C34.5640342,18.6607332 33.5893198,19.6354476 33.5893198,20.8378187 L33.5893198,28.3710144 Z" id="Line" sketch:type="MSShapeGroup"></path>
            <path d="M41.2483371,30.6379995 C40.4199818,31.5095063 40.4549631,32.8875167 41.3264698,33.7158719 C42.1979765,34.5442271 43.5759869,34.5092459 44.4043422,33.6377391 L49.7418087,28.0222278 C50.5701639,27.1507211 50.5351827,25.7727107 49.663676,24.9443555 C48.7921692,24.1160002 47.4141588,24.1509815 46.5858036,25.0224882 L41.2483371,30.6379995 Z" id="Line" sketch:type="MSShapeGroup"></path>
            <path d="M45.6843452,37.3214664 C44.481974,37.3214664 43.5072596,38.2961808 43.5072596,39.498552 C43.5072596,40.7009231 44.481974,41.6756375 45.6843452,41.6756375 L53.2175408,41.6756375 C54.419912,41.6756375 55.3946264,40.7009231 55.3946264,39.498552 C55.3946264,38.2961808 54.419912,37.3214664 53.2175408,37.3214664 L45.6843452,37.3214664 Z" id="Line" sketch:type="MSShapeGroup"></path>
        </g>
    </g>
</svg>