<?xml version="1.0" encoding="UTF-8" standalone="no"?>
<svg width="72px" height="72px" viewBox="0 0 72 72" version="1.1" xmlns="http://www.w3.org/2000/svg" xmlns:xlink="http://www.w3.org/1999/xlink" xmlns:sketch="http://www.bohemiancoding.com/sketch/ns">
    <title>Untitled</title>
    <description>Created with Sketch (http://www.bohemiancoding.com/sketch)</description>
    <defs></defs>
    <g id="Page-1" stroke="none" stroke-width="1" fill="none" fill-rule="evenodd" sketch:type="MSPage">
        <g id="Oval-38-+-Path-83-+-Path-83" sketch:type="MSLayerGroup" transform="translate(5.000000, 4.000000)" fill="#FFFFFF">
            <path d="M12.3973443,30.5897297 C9.1608728,32.4588088 6.16267995,34.8032214 3.51622988,37.1956057 C3.50647487,37.2044242 3.49498866,37.212913 3.48185863,37.2210828 C3.52874812,37.2129656 3.55424596,37.2042966 3.55424596,37.1950414 C9.76919139,42.8786928 17.5508989,48.3106489 25.5365169,48.3106489 C33.9203426,48.3106489 41.8007283,43.0623408 47.8094908,37.4937867 L47.8094908,37.4937867 C47.8072033,37.49186 47.8050043,37.4899178 47.8028948,37.4879599 C45.0764015,34.9574471 41.9620971,32.4907978 38.5885844,30.5509678 C38.6083721,30.613071 38.6185495,30.6748232 38.6185495,30.7361531 C38.6185495,37.9825809 32.7441598,43.8569706 25.497732,43.8569706 C18.2513043,43.8569706 12.3769145,37.9825809 12.3769145,30.7361531 C12.3769145,30.6877151 12.3838303,30.6388929 12.3973443,30.5897297 Z M51.2282525,37.6939374 L51.5905074,37.7178294 L50.7672603,38.6046436 C44.1232612,45.2587542 35.1296685,51.1630006 25.5365169,51.1630006 C16.3015226,51.1630006 7.38222355,45.0176937 0.495813013,38.2230854 L-0.358770534,37.35456 C-0.386319763,37.352968 -0.400987429,37.3520629 -0.400987429,37.3520629 L0.288446222,36.3300856 C6.93086375,29.6876681 15.9162855,23.7910216 25.4999113,23.7910216 C35.2158034,23.7910216 44.3145058,29.7938817 50.9776585,36.5991933 L51.5858917,37.6793264 C51.5858917,37.6793264 51.4494931,37.6860595 51.2282525,37.6939374 L51.2282525,37.6939374 Z" id="Oval-38" sketch:type="MSShapeGroup"></path>
            <path d="M41.3621991,11.5266396 C39.1235833,9.28802385 39.1135161,0 39.1135161,0 C39.1135161,0 38.7985238,9.42113496 36.5363059,11.6833528 C34.1595454,14.0601132 25.1965812,13.9169349 25.1965812,13.9169349 C25.1965812,13.9169349 34.4906454,13.9330425 36.7322813,16.1746784 C39.1296236,18.5720208 39.1135161,27.8338698 39.1135161,27.8338698 C39.1135161,27.8338698 39.2411462,18.4282832 41.5385434,16.130886 C43.8801244,13.7893048 53.030451,13.9169349 53.030451,13.9169349 C53.030451,13.9169349 43.7625617,13.9270021 41.3621991,11.5266396 Z" id="Path-83" sketch:type="MSShapeGroup"></path>
            <path d="M55.5034311,23.4146561 C53.2648153,21.1760404 53.2547481,11.8880165 53.2547481,11.8880165 C53.2547481,11.8880165 52.9397558,21.3091515 50.6775379,23.5713693 C48.3007774,25.9481298 39.3378132,25.8049515 39.3378132,25.8049515 C39.3378132,25.8049515 48.6318774,25.821059 50.8735133,28.062695 C53.2708556,30.4600374 53.2547481,39.7218864 53.2547481,39.7218864 C53.2547481,39.7218864 53.3823782,30.3162997 55.6797754,28.0189025 C58.0213564,25.6773213 67.171683,25.8049515 67.171683,25.8049515 C67.171683,25.8049515 57.9037936,25.8150187 55.5034311,23.4146561 Z" id="Path-83" sketch:type="MSShapeGroup"></path>
        </g>
    </g>
</svg>