<?xml version="1.0" encoding="UTF-8" standalone="no"?>
<svg width="72px" height="72px" viewBox="0 0 72 72" version="1.1" xmlns="http://www.w3.org/2000/svg" xmlns:xlink="http://www.w3.org/1999/xlink" xmlns:sketch="http://www.bohemiancoding.com/sketch/ns">
    <title>Untitled</title>
    <description>Created with Sketch (http://www.bohemiancoding.com/sketch)</description>
    <defs></defs>
    <g id="Page-1" stroke="none" stroke-width="1" fill="none" fill-rule="evenodd" sketch:type="MSPage">
        <g id="Path-71-+-Rectangle-12" sketch:type="MSLayerGroup" transform="translate(8.000000, 3.000000)" fill="#2779B7">
            <path d="M6.52005519,21.5193327 C6.7609767,19.8792245 8.30475957,18.549654 9.95691739,18.549654 L45.913055,18.549654 C47.5702601,18.549654 49.1136553,19.8858794 49.3581003,21.5193327 L55.5308841,62.7676915 C55.776325,64.4077998 54.633725,65.7373702 52.9671475,65.7373702 L3.03285251,65.7373702 C1.371499,65.7373702 0.220988921,64.4011448 0.460932861,62.7676915 L6.52005519,21.5193327 Z M28.0247059,42.3062284 C36.9392319,42.3062284 44.1658824,35.1668746 44.1658824,26.3600346 C44.1658824,25.2816461 43.2809863,24.4074394 42.1894118,24.4074394 C41.0978372,24.4074394 40.2129412,25.2816461 40.2129412,26.3600346 C40.2129412,33.0100976 34.7560827,38.4010381 28.0247059,38.4010381 C21.293329,38.4010381 15.8364706,33.0100976 15.8364706,26.3600346 C15.8364706,25.2816461 14.9515746,24.4074394 13.86,24.4074394 C12.7684254,24.4074394 11.8835294,25.2816461 11.8835294,26.3600346 C11.8835294,35.1668746 19.1101799,42.3062284 28.0247059,42.3062284 Z" id="Path-71" sketch:type="MSShapeGroup"></path>
            <path d="M10.7272596,16.4451903 L8.44845449,7.94057395 C8.0189693,6.33771341 8.96714048,4.69691681 10.564425,4.26892572 L22.5349993,1.06142 C24.1215819,0.636296465 25.7746413,1.58337117 26.2033076,3.18317541 L28.2112244,10.6768231 L29.1378689,7.21853873 C29.5673541,5.61567819 31.2088927,4.66879224 32.8061772,5.09678332 L44.7767515,8.30428904 C46.3633342,8.72941258 47.3213882,10.376133 46.892722,11.9759373 L45.6951892,16.4451903 L10.7272596,16.4451903 Z" id="Rectangle-12" sketch:type="MSShapeGroup"></path>
        </g>
    </g>
</svg>