<?xml version="1.0" encoding="UTF-8" standalone="no"?>
<svg width="72px" height="72px" viewBox="0 0 72 72" version="1.1" xmlns="http://www.w3.org/2000/svg" xmlns:xlink="http://www.w3.org/1999/xlink" xmlns:sketch="http://www.bohemiancoding.com/sketch/ns">
    <title>Untitled</title>
    <description>Created with Sketch (http://www.bohemiancoding.com/sketch)</description>
    <defs></defs>
    <g id="Page-1" stroke="none" stroke-width="1" fill="none" fill-rule="evenodd" sketch:type="MSPage">
        <g id="Oval-38-+-Group" sketch:type="MSLayerGroup" transform="translate(6.000000, 6.000000)">
            <path d="M24.4126217,33.0606001 C25.9945183,34.1098371 27.8922222,34.7209882 29.9326682,34.7209882 C35.4552275,34.7209882 39.9321459,30.2440698 39.9321459,24.7215105 C39.9321459,24.6747705 39.9243897,24.6277087 39.9093093,24.5803793 C42.4802898,26.0587389 44.8537255,27.9385917 46.9316074,29.8671153 C46.9332151,29.8686074 46.934891,29.8700876 46.9366343,29.8715559 L46.9366343,29.8715559 C42.3573093,34.1153946 36.3516057,38.1151714 29.9622265,38.1151714 C23.8763245,38.1151714 17.9458243,33.9754351 13.2093657,29.6438799 C13.2093657,29.6509333 13.1899336,29.65754 13.1541988,29.6637262 C13.1642053,29.6575 13.172959,29.6510306 13.1803934,29.6443099 C15.1972737,27.8210551 17.4822199,26.0343599 19.9487602,24.6099201 L19.9487602,24.6099201 C19.9384611,24.6473877 19.9331905,24.6845955 19.9331905,24.7215105 C19.9331905,26.8251284 20.5827697,28.7770288 21.6922858,30.3875695 L28.5390625,27.5106104 L24.4126217,33.0606001 Z M49.5420993,30.0240924 L49.8181766,30.0423006 L49.1907735,30.7181487 C44.1273298,35.7892985 37.2732424,40.2889709 29.9622265,40.2889709 C22.924165,40.2889709 16.1266974,35.6055844 10.87851,30.4273602 L10.2272252,29.7654502 C10.2062297,29.7642369 10.1950514,29.7635472 10.1950514,29.7635472 L10.7204742,28.9846903 C15.7827126,23.9224519 22.6305728,19.4285714 29.934329,19.4285714 C37.3388865,19.4285714 44.2730788,24.0033981 49.3511197,29.1897793 L49.814659,30.0129572 C49.814659,30.0129572 49.7107085,30.0180886 49.5420993,30.0240924 L49.5420993,30.0240924 Z" id="Oval-38" fill="#2779B7" sketch:type="MSShapeGroup"></path>
            <g id="Group" stroke="#2779B7" stroke-width="3" sketch:type="MSShapeGroup">
                <path d="M30.0821918,55.1506849 C43.9271389,55.1506849 55.1506849,43.9271389 55.1506849,30.0821918 C55.1506849,16.2372446 43.9271389,5.01369863 30.0821918,5.01369863 C16.2372446,5.01369863 5.01369863,16.2372446 5.01369863,30.0821918 C5.01369863,43.9271389 16.2372446,55.1506849 30.0821918,55.1506849 Z" id="Oval-16"></path>
                <path d="M0.417808219,29.9059289 L4.72645548,29.9059289" id="Line" stroke-linecap="round"></path>
                <path d="M55.3204195,29.9059289 L60.5821918,29.9059289" id="Line" stroke-linecap="round"></path>
                <path d="M29.9059289,-0.0278231738 L29.9059283,4.28082409" id="Line" stroke-linecap="round"></path>
                <path d="M29.9059289,55.7382277 L29.9059283,61.0222585" id="Line" stroke-linecap="round"></path>
            </g>
        </g>
    </g>
</svg>