<?xml version="1.0" encoding="UTF-8" standalone="no"?>
<svg width="72px" height="72px" viewBox="0 0 72 72" version="1.1" xmlns="http://www.w3.org/2000/svg" xmlns:xlink="http://www.w3.org/1999/xlink" xmlns:sketch="http://www.bohemiancoding.com/sketch/ns">
    <title>Untitled</title>
    <description>Created with Sketch (http://www.bohemiancoding.com/sketch)</description>
    <defs></defs>
    <g id="Page-1" stroke="none" stroke-width="1" fill="none" fill-rule="evenodd" sketch:type="MSPage">
        <g id="Imported-Layers" sketch:type="MSLayerGroup" transform="translate(17.000000, 7.000000)" fill="#2779B7">
            <path d="M18.9194867,0.143495095 C8.53908718,0.143495095 0.12856303,8.55401924 0.12856303,18.9358737 C0.12856303,19.5541876 0.576658764,28.2324053 7.65744427,37.3485347 C9.72770476,40.1040325 8.86933955,45.6295767 8.85042642,45.6295767 L17.5868384,45.6295767 L20.2521351,45.6295767 L28.988547,45.6295767 C28.9725436,45.6295767 28.1141784,40.1040325 30.182984,37.3485347 C36.5572609,29.1448103 37.7118653,19.5541876 37.7118653,18.9358737 C37.7118653,8.55401924 29.3013411,0.143495095 18.9194867,0.143495095 Z M16.7284732,42.3896117 L16.7284732,33.3913256 C16.7284732,33.2094686 16.6862823,33.0290664 16.6033555,32.8661225 L12.9967668,25.7707885 C13.2266341,25.744601 13.4565014,25.7155039 13.6980075,25.634032 C14.2799501,25.4303521 14.8618926,25.0637283 15.3870957,24.6025389 C15.9457605,25.289231 16.6630046,25.7387816 17.458811,25.8682638 C18.491759,26.0326626 19.5930852,25.5583794 20.5954812,24.5428898 C20.6725885,24.6738268 20.7526056,24.7974896 20.8384422,24.9167878 C21.3854681,25.6733131 22.0663409,26.079218 22.7763107,26.079218 C22.8577827,26.079218 22.9421643,26.0733986 23.026546,26.0632146 C23.2680521,26.0297529 23.4950097,25.9759232 23.7161479,25.9133644 L20.1793923,32.8661225 C20.0964655,33.0290664 20.0542746,33.2094686 20.0542746,33.3913256 L20.0542746,42.3896117 L16.7284732,42.3896117 L16.7284732,42.3896117 Z M15.6198727,20.3878202 C15.6416955,20.3674522 15.6678829,20.3383551 15.7333515,20.3383551 C15.7639035,20.3383551 15.8031846,20.3441745 15.8541046,20.3587231 C16.1450758,20.4416499 16.2614643,20.5958647 16.2716483,20.9042942 C16.2832872,21.3727579 16.0301422,22.0012558 15.616963,22.6108406 C15.2648878,21.5313373 15.3900054,20.6278715 15.6198727,20.3878202 L15.6198727,20.3878202 Z M21.0072055,20.066297 C21.1323231,19.8102423 21.2632602,19.8058777 21.3330933,19.802968 C21.3432773,19.8015131 21.3534613,19.8015131 21.3636453,19.8015131 C21.4931275,19.8015131 21.5120406,19.8364297 21.5251343,19.8611622 C21.6851685,20.1594078 21.5149503,21.0919707 20.9373724,22.1467415 C20.7758833,21.3043797 20.7962513,20.501299 21.0072055,20.066297 L21.0072055,20.066297 Z M34.1663805,21.8732285 C33.8594059,23.9274855 32.5398512,29.0354859 27.6253467,35.361201 C26.134119,37.3485347 25.6336485,40.0647514 25.5652702,42.3896117 L22.3660413,42.3896117 L22.3660413,33.6677483 L26.579305,25.3867064 C26.8688214,24.8164027 26.640409,24.1209814 26.0715602,23.8300102 C25.5201697,23.5506778 24.8523906,23.7616319 24.5483257,24.297019 C24.1453305,24.53998 23.5546588,24.8265867 22.8723312,24.9167878 C22.4184161,24.9793466 22.02415,24.5821709 21.7753696,24.2388248 C21.6342485,24.0409643 21.5062212,23.8198262 21.3956521,23.5841395 C22.3514927,22.2398523 23.1036534,20.3485391 22.5420789,19.3112266 C22.297663,18.8587663 21.8350187,18.6347184 21.2865379,18.6463573 C20.7133245,18.6681801 20.2434059,18.9940679 19.9684381,19.5614619 C19.5188875,20.4823859 19.5989046,22.0361724 20.0717329,23.3993727 C19.3835859,24.1951791 18.4830298,24.874597 17.6435778,24.7262016 C17.0936421,24.6360006 16.5902618,24.2941093 16.1959958,23.7601771 C16.9510662,22.839253 17.4515367,21.7582948 17.4268042,20.8708325 C17.4035265,20.0604776 16.9452468,19.4668962 16.1712632,19.2472129 C15.6344213,19.0915433 15.141225,19.2137512 14.7847852,19.5891041 C14.067541,20.3383551 14.1417387,21.8484959 14.5316402,23.0123809 C14.6014733,23.2204254 14.6814904,23.4182858 14.7702366,23.608872 C14.3294152,24.0235061 13.8274898,24.3639424 13.3197449,24.53998 C12.985128,24.6578234 12.6868824,24.6738268 12.4104597,24.6199971 L12.2678838,24.337755 C12.0147388,23.8401942 11.4546192,23.6263303 10.9352355,23.7674514 C10.8770412,23.7732708 10.8203018,23.7907291 10.7635624,23.8169165 C10.6719065,23.8605622 10.6617225,23.862017 10.6515385,23.8692913 C10.1292451,24.2213665 9.93429435,24.8527741 10.2063525,25.3867064 L14.4167065,33.6677483 L14.4167065,42.3896117 L12.2795227,42.3896117 C12.2169639,40.0676611 11.7237676,37.365993 10.2456336,35.4048467 C5.30930624,29.0456699 3.98684188,23.9274855 3.63767637,21.908145 C3.63767637,21.908145 3.36707311,19.1933832 3.36707311,18.9358737 C3.36707311,10.358041 10.3416541,3.38346003 18.9194867,3.38346003 C27.4987742,3.38346003 34.4733552,10.358041 34.4733552,18.9358737 C34.4733552,19.1933832 34.1663805,21.8732285 34.1663805,21.8732285 Z" id="Fill-1" sketch:type="MSShapeGroup"></path>
            <path d="M9.06720001,53.1962842 C9.19231765,55.0934168 10.9948846,56.6122867 13.2979221,56.7534078 C13.7227401,57.7165226 14.6800355,58.3901211 15.79882,58.3901211 L22.0416083,58.3901211 C23.1603928,58.3901211 24.1191431,57.7165226 24.5425062,56.7534078 C26.8455437,56.6122867 28.6481107,55.0934168 28.7732283,53.1962842 L28.8226934,47.1964569 L9.01918975,47.1964569" id="Fill-2" sketch:type="MSShapeGroup"></path>
        </g>
    </g>
</svg>