<?xml version="1.0" encoding="UTF-8" standalone="no"?>
<svg width="72px" height="72px" viewBox="0 0 72 72" version="1.1" xmlns="http://www.w3.org/2000/svg" xmlns:xlink="http://www.w3.org/1999/xlink" xmlns:sketch="http://www.bohemiancoding.com/sketch/ns">
    <title>Untitled</title>
    <description>Created with Sketch (http://www.bohemiancoding.com/sketch)</description>
    <defs></defs>
    <g id="Page-1" stroke="none" stroke-width="1" fill="none" fill-rule="evenodd" sketch:type="MSPage">
        <g id="Oval-4-+-Oval-17-+-Oval-4-+-Oval-17-+-Imported-Layers" sketch:type="MSLayerGroup" transform="translate(5.659574, 5.000000)">
            <g id="Oval-4-+-Oval-17-+-Oval-4-+-Oval-17" transform="translate(0.000000, 7.557518)" sketch:type="MSShapeGroup">
                <g id="Oval-4-+-Oval-17" transform="translate(0.035801, 0.000000)">
                    <path d="M18.0467925,43.9931741 C7.02377277,43.963162 -8.32667268e-17,42.0342819 -1.11022302e-16,42.0342819 C-1.11022302e-16,28.8528122 8.26537726,18.1623444 18.4733615,18.1214745 C13.4868797,17.9581464 9.49623703,13.9907961 9.49623703,9.12053906 C9.49623703,4.14657037 13.65865,0.114372504 18.7932472,0.114372504 C23.9278444,0.114372504 28.0902574,4.14657037 28.0902574,9.12053906 C28.0902574,14.0586638 23.9876196,18.0685421 18.9040992,18.1260786 L18.9040992,18.1260786 C21.7894059,18.1993826 24.5130566,19.1235609 26.9305601,20.7121692 C27.5202164,23.3454313 29.127069,25.609982 31.3317588,27.0950488 C24.9517718,29.5601364 19.9689068,35.9461756 18.0467965,43.9931741 Z" id="Oval-4" fill="#2779B7"></path>
                    <path d="M12.6207739,10.5422681 C12.6207739,10.5422681 13.3237802,10.0343504 13.3827469,10.3490063 C13.8380519,12.7785882 15.9703652,14.6171709 18.5321024,14.6171709 C21.110318,14.6171709 23.2535671,12.7548588 23.6900357,10.3020485 C23.7434119,10.0020914 24.4434309,10.5422681 24.4434309,10.5422681" id="Oval-17" stroke="#FFFFFF" stroke-width="2" stroke-linecap="round"></path>
                </g>
                <g id="Oval-4-+-Oval-17" transform="translate(18.699424, 9.349712)">
                    <path d="M18.7932472,18.1267056 C23.9278444,18.1267056 28.0902574,14.0945078 28.0902574,9.12053906 C28.0902574,4.14657037 23.9278444,0.114372504 18.7932472,0.114372504 C13.65865,0.114372504 9.49623703,4.14657037 9.49623703,9.12053906 C9.49623703,14.0945078 13.65865,18.1267056 18.7932472,18.1267056 Z" id="Oval-4" fill="#2779B7"></path>
                    <path d="M37.0642048,42.0342819 C37.0642048,28.8275375 28.7671005,18.121357 18.5321024,18.121357 C8.29710436,18.121357 0,28.8275375 0,42.0342819 C0,42.0342819 7.13434538,43.9935276 18.3068091,43.993528 C29.4792727,43.9935284 36.8068019,42.1597235 36.8068019,42.1597235" id="Oval-5" fill="#2779B7"></path>
                    <path d="M12.6207739,10.5422681 C12.6207739,10.5422681 13.3237802,10.0343504 13.3827469,10.3490063 C13.8380519,12.7785882 15.9703652,14.6171709 18.5321024,14.6171709 C21.110318,14.6171709 23.2535671,12.7548588 23.6900357,10.3020485 C23.7434119,10.0020914 24.4434309,10.5422681 24.4434309,10.5422681" id="Oval-17" stroke="#FFFFFF" stroke-width="2" stroke-linecap="round"></path>
                </g>
            </g>
            <path d="M50.1001118,3.45236342 C49.1172638,1.60523119 47.3627797,0.382016308 45.3731119,0.407931878 C42.3474691,0.446157343 39.9314901,3.34740536 39.9761945,6.88617639 C39.9846171,7.57876998 40.0889272,8.24544801 40.2722799,8.86742168 C40.6992389,10.8972587 43.7831917,14.223522 46.6190029,16.8928257 C47.9964154,18.1892521 50.3106758,20.0104687 50.3106758,20.0104687 C51.2851012,19.3029737 52.578936,18.1315899 53.9213625,16.8014733 C56.6878496,14.059606 59.6869288,10.6562439 60.0646483,8.61733643 C60.2311558,7.99147543 60.3186209,7.32220584 60.3095504,6.62831647 C60.264846,3.09148911 57.7750077,0.250494793 54.7500128,0.289368147 C52.760345,0.314635827 51.0356638,1.5806114 50.1001118,3.45236342 Z" id="Imported-Layers" fill="#2779B7" sketch:type="MSShapeGroup"></path>
        </g>
    </g>
</svg>