<?xml version="1.0" encoding="UTF-8" standalone="no"?>
<svg width="72px" height="72px" viewBox="0 0 72 72" version="1.1" xmlns="http://www.w3.org/2000/svg" xmlns:xlink="http://www.w3.org/1999/xlink" xmlns:sketch="http://www.bohemiancoding.com/sketch/ns">
    <title>Untitled</title>
    <description>Created with Sketch (http://www.bohemiancoding.com/sketch)</description>
    <defs></defs>
    <g id="Page-1" stroke="none" stroke-width="1" fill="none" fill-rule="evenodd" sketch:type="MSPage">
        <g id="Group" sketch:type="MSLayerGroup" transform="translate(11.757576, 6.000000)" fill="#2779B7">
            <path d="M24.2424242,24.2424242 C28.2590408,24.2424242 31.5151515,20.9863135 31.5151515,16.969697 C31.5151515,12.9530804 28.2590408,9.6969697 24.2424242,9.6969697 C20.2258077,9.6969697 16.969697,12.9530804 16.969697,16.969697 C16.969697,20.9863135 20.2258077,24.2424242 24.2424242,24.2424242 Z" id="Oval-13" sketch:type="MSShapeGroup"></path>
            <polygon id="Triangle-1" sketch:type="MSShapeGroup" points="24.2424242 23.6363636 42.4242424 60 6.06060606 60 "></polygon>
            <path d="M0.0434786328,17.8687433 C0.0434786328,24.4458322 2.68676514,30.6087898 7.29559459,35.1372615 C7.8924787,35.7237386 8.85178248,35.715302 9.43825956,35.1184179 C10.0247366,34.5215338 10.0163001,33.56223 9.41941595,32.9757529 C5.38428112,29.0109731 3.07378166,23.6239255 3.07378166,17.8687433 C3.07378166,12.1553897 5.35059179,6.80423517 9.33392396,2.84620749 C9.92750983,2.25639242 9.93056667,1.29705642 9.34075161,0.703470545 C8.75093655,0.109884671 7.79160054,0.106827826 7.19801467,0.69664289 C2.64826514,5.21748971 0.0434786328,11.3394825 0.0434786328,17.8687433 Z M48.7878788,17.8687433 C48.7878788,11.3913679 46.2245347,5.31389663 41.7386231,0.801893038 C41.1486379,0.208476248 40.1893011,0.205694377 39.5958843,0.795679556 C39.0024675,1.38566473 38.9996856,2.34500158 39.5896708,2.93841837 C43.5170282,6.88861904 45.7575758,12.200767 45.7575758,17.8687433 C45.7575758,23.5771835 43.4847062,28.924118 39.5074457,32.8813239 C38.9142486,33.4715299 38.9118238,34.4308677 39.5020299,35.0240649 C40.0922359,35.617262 41.0515737,35.6196867 41.6447709,35.0294807 C46.1875956,30.5095623 48.7878788,24.392386 48.7878788,17.8687433 Z" id="Oval-9" sketch:type="MSShapeGroup"></path>
            <path d="M41.3309693,17.2272407 C41.3309693,12.8310944 39.6133201,8.700909 36.5993327,5.60980805 C36.0151496,5.01067855 35.0558853,4.99856205 34.4567558,5.5827451 C33.8576263,6.16692815 33.8455098,7.12619251 34.4296928,7.72532201 C36.8976213,10.256393 38.3006663,13.6300945 38.3006663,17.2272407 C38.3006663,20.8347593 36.8894612,24.2174124 34.4088325,26.750507 C33.8233529,27.3483696 33.8333914,28.307658 34.431254,28.8931375 C35.0291166,29.4786171 35.9884049,29.4685787 36.5738845,28.8707161 C39.6033456,25.7771811 41.3309693,21.6360738 41.3309693,17.2272407 Z M7.82460155,17.2272407 C7.82460155,21.6310434 9.5482669,25.767821 12.5715898,28.8603971 C13.1565557,29.4587623 14.115835,29.4696247 14.7142003,28.8846589 C15.3125655,28.299693 15.3234279,27.3404137 14.7384621,26.7420484 C12.2628713,24.209751 10.8549046,20.8306465 10.8549046,17.2272407 C10.8549046,13.3187956 12.1974327,10.0509776 14.7972559,7.58154762 C15.4039787,7.00525478 15.4286471,6.04623112 14.8523543,5.43950831 C14.2760614,4.8327855 13.3170378,4.80811712 12.7103149,5.38440996 C9.49521511,8.43825754 7.82460155,12.5046612 7.82460155,17.2272407 Z" id="Oval-8" sketch:type="MSShapeGroup"></path>
        </g>
    </g>
</svg>