<?xml version="1.0" encoding="UTF-8" standalone="no"?>
<svg width="72px" height="72px" viewBox="0 0 72 72" version="1.1" xmlns="http://www.w3.org/2000/svg" xmlns:xlink="http://www.w3.org/1999/xlink" xmlns:sketch="http://www.bohemiancoding.com/sketch/ns">
    <title>Untitled</title>
    <description>Created with Sketch (http://www.bohemiancoding.com/sketch)</description>
    <defs></defs>
    <g id="Page-1" stroke="none" stroke-width="1" fill="none" fill-rule="evenodd" sketch:type="MSPage">
        <g id="Group" sketch:type="MSLayerGroup" transform="translate(5.593750, 4.946809)">
            <g id="Oval-6-+-+" transform="translate(-0.164296, 3.504255)" sketch:type="MSShapeGroup">
                <path d="M30.1537832,15.0401532 C30.1068374,14.5850998 30.0827793,14.1232567 30.0827793,13.6557945 C30.0827793,6.29255506 36.0518636,0.323470745 43.415103,0.323470745 C50.7783424,0.323470745 56.7474267,6.29255506 56.7474267,13.6557945 C56.7474267,21.0190339 50.7783424,26.9881182 43.415103,26.9881182 C43.1507966,26.9881182 42.8882866,26.9804272 42.6277844,26.9652567 C40.2523436,21.4990557 35.7442509,17.173929 30.1537832,15.0401532 Z" id="Path" fill="#2779B7"></path>
                <path d="M41.9968404,13.1324984 L41.9968404,6.79196477 L43.9801353,6.79196477 L43.9801353,13.1324984 L50.4108186,13.1324984 L50.4108186,15.1458431 L43.9801353,15.1458431 L43.9801353,21.5164266 L41.9968404,21.5164266 L41.9968404,15.1458431 L35.5661571,15.1458431 L35.5661571,13.1324984 L41.9968404,13.1324984 Z" id="+" fill="#FFFFFF"></path>
            </g>
            <g id="Oval-6-+-+" transform="translate(-0.168918, 0.000000)" sketch:type="MSShapeGroup">
                <path d="M31.172943,8.68619566 C29.449826,3.81397066 24.8026837,0.323470745 19.3402909,0.323470745 C12.41055,0.323470745 6.79288564,5.94113508 6.79288564,12.870876 C6.79288564,16.0399776 7.96776719,18.9346706 9.90572694,21.1431518 C13.4180373,18.8200527 17.6284379,17.4674202 22.1547628,17.4674202 C24.2333464,17.4674202 26.2453066,17.7526687 28.1536336,18.2861558 C28.1489406,18.1304242 28.1465772,17.974107 28.1465772,17.8172378 C28.1465772,14.3941084 29.2719657,11.2338278 31.172943,8.68619566 Z" id="Path" fill="#2779B7"></path>
                <path d="M17.9260225,11.3620541 L17.9260225,5.42466266 L19.7832161,5.42466266 L19.7832161,11.3620541 L25.8050254,11.3620541 L25.8050254,13.247387 L19.7832161,13.247387 L19.783216,17.588406 C19.783216,17.588406 19.1488781,17.6654085 18.854619,17.7177943 C18.5298136,17.7756181 17.9260225,17.9190348 17.9260225,17.9190348 L17.9260225,13.247387 L11.9042132,13.247387 L11.9042132,11.3620541 L17.9260225,11.3620541 Z" id="+" fill="#FFFFFF"></path>
            </g>
            <g id="Oval-6-+-+" transform="translate(0.126210, 2.466507)" sketch:type="MSShapeGroup">
                <path d="M52.586916,26.7146208 C57.204058,28.155248 60.5553905,32.4641444 60.5553905,37.555787 C60.5553905,43.8267911 55.4717379,48.9104437 49.2007338,48.9104437 C46.5441109,48.9104437 44.1005788,47.9980936 42.1663691,46.4696246 C43.4528155,43.6566455 44.1697775,40.5287332 44.1697775,37.2333654 C44.1697775,34.695924 43.744688,32.2577676 42.961838,29.9862253 C43.0194253,29.9868641 43.0770978,29.9871844 43.134845,29.9871844 C46.7032526,29.9871844 49.9860274,28.7642454 52.586916,26.7146208 Z" id="Path" fill="#2779B7"></path>
                <path d="M47.8909393,36.3854288 L47.8909393,30.9878002 L49.5792971,30.9878002 L49.5792971,36.3854288 L55.0536693,36.3854288 L55.0536693,38.0993678 L49.5792971,38.0993678 L49.5792971,43.5225776 L47.8909393,43.5225776 L47.8909393,38.0993678 L44.0986151,38.0993678 C44.0986151,38.0993678 44.1633092,37.7326694 44.1633092,37.2025674 C44.1633092,36.6724654 44.0986151,36.3854288 44.0986151,36.3854288 L47.8909393,36.3854288 Z" id="+" fill="#FFFFFF"></path>
            </g>
            <g id="Oval-6-+-+" transform="translate(1.457775, 19.331710)" sketch:type="MSShapeGroup">
                <path d="M0.323470745,20.6150989 C0.323470745,9.40834153 9.40834153,0.323470745 20.6150989,0.323470745 C31.8218562,0.323470745 40.906727,9.40834153 40.906727,20.6150989 C40.906727,31.8218562 31.8218562,40.906727 20.6150989,40.906727 C9.40834153,40.906727 0.323470745,31.8218562 0.323470745,20.6150989 Z" id="Oval-6" fill="#2779B7"></path>
                <path d="M18.6896132,18.9067076 L18.6896132,9.33417847 L21.683864,9.33417847 L21.683864,18.9067076 L31.3924954,18.9067076 L31.3924954,21.9463258 L21.683864,21.9463258 L21.683864,31.5642224 L18.6896132,31.5642224 L18.6896132,21.9463258 L8.98098175,21.9463258 L8.98098175,18.9067076 L18.6896132,18.9067076 Z" id="+" fill="#FFFFFF"></path>
            </g>
        </g>
    </g>
</svg>