<?xml version="1.0" encoding="UTF-8" standalone="no"?>
<svg width="72px" height="72px" viewBox="0 0 72 72" version="1.1" xmlns="http://www.w3.org/2000/svg" xmlns:xlink="http://www.w3.org/1999/xlink" xmlns:sketch="http://www.bohemiancoding.com/sketch/ns">
    <title>Untitled</title>
    <description>Created with Sketch (http://www.bohemiancoding.com/sketch)</description>
    <defs></defs>
    <g id="Page-1" stroke="none" stroke-width="1" fill="none" fill-rule="evenodd" sketch:type="MSPage">
        <g id="Group" sketch:type="MSLayerGroup" transform="translate(10.322000, 1.457921)">
            <path d="M42.5248997,35.0645946 C43.8264551,35.0645946 45.0570881,34.7635548 46.1498206,34.2278769 C46.1498209,34.2278773 51.3483043,35.8401873 51.3483043,35.8401873 L49.763704,30.7451709 C50.3701853,29.6116901 50.7137256,28.3187565 50.7137256,26.9462757 C50.7137256,22.4626518 47.0474636,18.8279568 42.5248997,18.8279568 C38.0023358,18.8279568 34.3360738,22.4626518 34.3360738,26.9462757 C34.3360738,31.4298996 38.0023358,35.0645946 42.5248997,35.0645946 Z" id="Oval-3" fill="#2779B7" sketch:type="MSShapeGroup" transform="translate(42.913079, 27.404962) rotate(97.000000) translate(-42.913079, -27.404962) "></path>
            <path d="M8.63370303,36.094957 C9.81998551,36.094957 10.941627,35.820579 11.9375811,35.3323437 C11.9375814,35.332344 16.6756586,36.8018591 16.6756586,36.8018591 L15.2313992,32.1580852 C15.7841672,31.1249916 16.0972817,29.9465674 16.0972817,28.6956409 C16.0972817,24.6091113 12.7557239,21.2963248 8.63370303,21.2963248 C4.51168213,21.2963248 1.17012433,24.6091113 1.17012433,28.6956409 C1.17012433,32.7821706 4.51168213,36.094957 8.63370303,36.094957 Z" id="Oval-3" fill="#2779B7" sketch:type="MSShapeGroup" transform="translate(8.987503, 29.113703) rotate(-11.000000) translate(-8.987503, -29.113703) "></path>
            <path d="M24.5294048,25.2815025 C26.1910906,25.2815025 27.7622305,24.8971673 29.1573138,24.2132714 C29.1573142,24.2132719 35.7941786,26.2716959 35.7941786,26.2716959 L33.7711314,19.766927 C34.5454215,18.3198206 34.9840168,16.6691422 34.9840168,14.9169063 C34.9840168,9.19269757 30.3033279,4.55231006 24.5294048,4.55231006 C18.7554817,4.55231006 14.0747927,9.19269757 14.0747927,14.9169063 C14.0747927,20.641115 18.7554817,25.2815025 24.5294048,25.2815025 Z" id="Oval-3" fill="#2779B7" sketch:type="MSShapeGroup" transform="translate(25.024990, 15.502507) rotate(41.000000) translate(-25.024990, -15.502507) "></path>
            <path d="M27.9687189,45.6041002 C31.044332,44.851549 33.3205453,42.1533776 33.3205453,38.9401993 C33.3205453,35.1444387 30.1441032,32.0673671 26.2257629,32.0673671 C22.3074227,32.0673671 19.1309806,35.1444387 19.1309806,38.9401993 C19.1309806,42.0986264 21.3302833,44.759448 24.3262891,45.5639431 C17.3173449,46.6475629 11.8841632,54.3460501 11.8841632,63.6819782 C11.8841632,63.6819782 17.3285617,65.1771278 25.8545497,65.1771281 C34.3805378,65.1771284 39.9723597,63.7777058 39.9723597,63.7777058 L40.1687903,63.6819782 C40.1687903,54.4538046 34.8603036,46.8254917 27.9687189,45.6041002 Z" id="Oval-4" fill="#2779B7" sketch:type="MSShapeGroup"></path>
            <path d="M46.6477341,24.9840372 L40.1096256,24.9840372 L39.8495722,24.172632 C39.840439,24.1327347 39.8255376,24.0954813 39.804868,24.0611119 C39.8046276,24.0596698 39.8034259,24.0582278 39.8029452,24.0575067 C39.791649,24.0380388 39.7781897,24.0197725 39.7637689,24.001987 C39.75752,23.994296 39.7507903,23.9870856 39.74358,23.9798752 C39.7342065,23.9709825 39.7250734,23.960888 39.7149789,23.9524759 C39.7012792,23.9404586 39.6866182,23.9306045 39.6714764,23.9200293 C39.6671502,23.9173855 39.6625836,23.914261 39.6575364,23.9113769 C39.574377,23.8621061 39.4743934,23.8428785 39.3741695,23.8621061 L38.4577335,23.9387762 C38.2337319,23.9517549 38.0621254,24.1433099 38.0748637,24.3673116 C38.0871213,24.5910729 38.2791571,24.7629197 38.5033991,24.7511428 L39.1629061,24.695623 L40.7794675,29.7741156 C40.6379042,29.9440396 40.5492168,30.1601099 40.5492168,30.3985322 C40.5492168,30.9397895 40.988087,31.3779386 41.5286232,31.3779386 C41.9235103,31.3779386 42.2614355,31.1433618 42.4157371,30.8075996 L43.7236953,30.8030331 C43.8777565,31.141439 44.2173642,31.3779386 44.6139336,31.3779386 C45.1544698,31.3779386 45.5930997,30.9397895 45.5930997,30.3985322 C45.5930997,29.8577557 45.1544698,29.4188855 44.6139336,29.4188855 C44.2192869,29.4188855 43.8813617,29.653943 43.7260987,29.9897052 L42.4186212,29.9942717 C42.2640793,29.6553851 41.9251927,29.4188855 41.5286232,29.4188855 C41.5259794,29.4188855 41.5233356,29.4193662 41.5202111,29.4200872 L41.3305788,28.8273961 L45.5387817,28.8273961 C46.0290857,28.8273961 46.1120048,28.4952392 46.4261359,27.940763 L47.5350883,25.8706704 C47.9600185,25.0575828 47.1373171,24.9840372 46.6477341,24.9840372" id="Imported-Layers" fill="#FFFFFF" sketch:type="MSShapeGroup"></path>
            <g id="Imported-Layers" transform="translate(4.172515, 23.991960)" fill="#FFFFFF" sketch:type="MSShapeGroup">
                <path d="M2.55079245,7.53331164 L2.55079245,2.93332265 C2.55079245,2.63641841 2.31063441,2.39550038 2.01322351,2.39550038 L0.938338983,2.39550038 C0.640928085,2.39550038 0.400263389,2.63641841 0.400263389,2.93332265 L0.400263389,7.53331164 L2.55079245,7.53331164" id="Fill-1"></path>
                <path d="M5.41900896,7.53331164 L5.41900896,0.663474567 C5.41900896,0.366570332 5.17809093,0.125905636 4.88144003,0.125905636 L3.80554217,0.125905636 C3.50889127,0.125905636 3.26797324,0.366570332 3.26797324,0.663474567 L3.26797324,7.53331164 L5.41900896,7.53331164" id="Fill-2"></path>
                <path d="M8.28621215,7.53331164 L8.28621215,4.06850002 C8.28621215,3.77184911 8.04554745,3.53093109 7.74889655,3.53093109 L6.67350535,3.53093109 C6.37634779,3.53093109 6.13568309,3.77184911 6.13568309,4.06850002 L6.13568309,7.53331164 L8.28621215,7.53331164" id="Fill-3"></path>
                <path d="M-0.0772660339,7.77270968 L8.76424823,7.77270968 L8.76424823,8.37006479 L-0.0772660339,8.37006479 L-0.0772660339,7.77270968 Z" id="Fill-4"></path>
            </g>
            <path d="M24.7759421,8.92083084 L26.6302303,12.6767708 L30.7759057,13.2786279 L27.7757547,16.2026586 L28.4841801,20.3317568 L24.7759421,18.382403 L21.0677041,20.3317568 L21.7761295,16.2026586 L18.7763168,13.2786279 L22.9226689,12.6767708 L24.7759421,8.92083084" id="Imported-Layers" fill="#FFFFFF" sketch:type="MSShapeGroup"></path>
        </g>
    </g>
</svg>