<?xml version="1.0" encoding="UTF-8" standalone="no"?>
<svg width="100px" height="100px" viewBox="0 0 100 100" version="1.1" xmlns="http://www.w3.org/2000/svg" xmlns:xlink="http://www.w3.org/1999/xlink" xmlns:sketch="http://www.bohemiancoding.com/sketch/ns">
    <title>Untitled</title>
    <description>Created with Sketch (http://www.bohemiancoding.com/sketch)</description>
    <defs></defs>
    <g id="Page-1" stroke="none" stroke-width="1" fill="none" fill-rule="evenodd" sketch:type="MSPage">
        <g id="Group" sketch:type="MSLayerGroup" transform="translate(-3.000000, 1.000000)">
            <path d="M46.8928443,94.59476 C50.1209388,97.2756233 55.2973474,97.2761657 58.5260986,94.5947632 L58.9873471,94.2117071 C61.6409588,92.0079446 66.6690404,90.6603632 70.0697327,91.2421935 L70.6607145,91.3433056 C74.7967659,92.0509498 79.2799439,89.4632121 80.7354217,85.5266734 L80.9433464,84.9643127 C82.139559,81.7289923 85.8202104,78.0479151 89.0562074,76.8514528 L89.6185681,76.6435282 C93.5543127,75.1883446 96.1429873,70.7057121 95.4351992,66.5688305 L95.334087,65.9778496 C94.7523776,62.5778736 96.0993772,57.5496416 98.3036019,54.8954766 L98.6866583,54.4342283 C101.367522,51.2061303 101.368064,46.0297193 98.686661,42.8009686 L98.3036048,42.3397202 C96.099842,39.686109 94.7522623,34.6580325 95.3340949,31.2573458 L95.4352074,30.6663649 C96.1428545,26.5303185 93.5551191,22.0471437 89.6185808,20.5916646 L89.0562203,20.3837397 C85.8209,19.187526 82.1398193,15.5068706 80.9433528,12.2708695 L80.7354275,11.7085083 C79.2802394,7.77276067 74.7976037,5.18408377 70.6607222,5.89187258 L70.0697413,5.9929849 C66.6697654,6.5746948 61.6415332,5.22769608 58.9873678,3.02347174 L58.5261195,2.64041543 C55.2980211,-0.0404473854 50.1216101,-0.0409887918 46.8928598,2.64041469 L46.4316114,3.02347093 C43.7780005,5.22723424 38.7499218,6.574816 35.3492322,5.99298541 L34.7582508,5.89187327 C30.6222017,5.18422859 26.1390259,7.77196625 24.6835484,11.7085051 L24.4756238,12.2708658 C23.2794115,15.5061863 19.5987604,19.1872639 16.3627635,20.3837264 L15.8004028,20.591651 C11.8646583,22.046835 9.27598411,26.5294678 9.98377261,30.6663493 L10.0848849,31.2573302 C10.6665945,34.6573063 9.31959536,39.6855411 7.11537056,42.3397095 L6.73231422,42.8009583 C4.05145148,46.0290596 4.0509103,51.2054725 6.73231431,54.4342224 L7.11537063,54.8954707 C9.31913428,57.5490812 10.6667156,62.5771573 10.0848842,65.9778441 L9.98377187,66.568825 C9.27612603,70.7048717 11.8638629,75.1880457 15.8004017,76.6435235 L16.3627623,76.8514482 C19.5980827,78.0476607 23.27916,81.7283121 24.4756223,84.9643091 L24.6835469,85.5266698 C26.1387306,89.4624144 30.6213641,92.0510891 34.7582469,91.3433014 L35.349228,91.2421892 C38.7492052,90.6604801 43.7774353,92.0074795 46.4315966,94.2117037 L46.8928443,94.59476 Z" id="Star-1" stroke="#FFFFFF" stroke-width="2" fill="#F79C31" sketch:type="MSShapeGroup"></path>
            <path d="M23.40459,79.2843341 C21.672986,77.4751588 19.5807784,75.9739459 17.5826527,75.2351681 L17.020292,75.0272434 C13.9558545,73.8942123 11.8865038,70.3091263 12.4373747,67.0893976 L12.5384869,66.4984167 C13.2154293,62.5418257 11.7151746,56.9440967 9.15114252,53.8566775 L8.7680862,53.3954292 C6.68072074,50.8819769 6.68115351,46.7425238 8.76808672,44.2295895 L9.15114306,43.7683407 C11.715688,40.6803009 13.2152944,35.0823959 12.5384877,31.1265964 L12.4373754,30.5356155 C11.8863904,27.3152192 13.9564907,23.730566 17.0202931,22.5977699 L17.5826537,22.3898453 C21.3476332,20.9977991 25.4452815,16.8996761 26.8370491,13.1354496 L27.0449737,12.573089 C28.1780045,9.50865135 31.7630925,7.43929969 34.9828241,7.9901698 L35.5738054,8.09128195 C39.5303988,8.76822319 45.12813,7.26796814 48.2155495,4.70393667 L48.6767979,4.32088042 C51.1902505,2.23351537 55.3297014,2.23394832 57.8426327,4.32088101 L58.303881,4.70393731 C61.391918,7.26848225 66.9898208,8.76808838 70.9456203,8.09128131 L71.5366012,7.99016899 C74.7569975,7.43918379 78.3416542,9.50928688 79.4744542,12.5730934 L79.6823794,13.1354546 C80.4212519,15.1338324 81.9225003,17.2259324 83.7315407,18.9573834 L23.40459,79.2843341 Z" id="Path" fill="#FBB237" sketch:type="MSShapeGroup"></path>
            <circle id="Oval-1" stroke="#FFC63F" stroke-width="3" sketch:type="MSShapeGroup" cx="52.7094867" cy="48.617588" r="36.6689934"></circle>
            <path d="M31.6661593,26.6523797 L35.5859948,26.6523797 L35.5859948,25.3916139 L37.6490661,25.3916139 L37.6490661,26.6523797 L44.6405856,26.6523797 L44.6405856,25.3916139 L46.7036569,25.3916139 L46.7036569,26.6523797 L51.1736447,26.6523797 L51.1736447,28.4403749 L46.7036569,28.4403749 L46.7036569,31.2140596 L35.5859948,31.2140596 L35.5859948,28.4403749 L31.6661593,28.4403749 L31.6661593,26.6523797 Z M37.6490661,28.4403749 L37.6490661,29.6094486 L44.6405856,29.6094486 L44.6405856,28.4403749 L37.6490661,28.4403749 Z M31.116007,32.1997492 L51.5404129,32.1997492 L51.5404129,33.9189753 L42.210746,33.9189753 L42.210746,35.1568181 L49.8441099,35.1568181 L49.8441099,42.6755669 L32.6518489,42.6755669 L32.6518489,35.1568181 L40.1705977,35.1568181 L40.1705977,33.9189753 L31.116007,33.9189753 L31.116007,32.1997492 Z M47.7810386,41.0709559 L47.7810386,39.649729 L42.210746,39.649729 L42.210746,41.0709559 L47.7810386,41.0709559 Z M40.1705977,41.0709559 L40.1705977,39.649729 L34.6919972,39.649729 L34.6919972,41.0709559 L40.1705977,41.0709559 Z M34.6919972,38.113887 L40.1705977,38.113887 L40.1705977,36.7843522 L34.6919972,36.7843522 L34.6919972,38.113887 Z M42.210746,36.7843522 L42.210746,38.113887 L47.7810386,38.113887 L47.7810386,36.7843522 L42.210746,36.7843522 Z M37.7407582,42.9506431 L39.001524,44.5552541 C37.8553675,45.0595629 36.839124,45.4186866 35.952763,45.6326358 C34.9135812,45.9077133 33.5993415,46.1751458 32.0100045,46.4349413 L30.8409308,44.394793 C32.3844215,44.211408 33.7292249,44.0051029 34.8753814,43.7758716 C35.9604095,43.5466403 36.9155255,43.2715669 37.7407582,42.9506431 Z M44.2738173,43.0423351 C46.5355661,43.3326948 48.896613,43.7835095 51.3570288,44.394793 L50.5547233,46.4349413 C48.2776925,45.7319653 45.8860819,45.1971003 43.3798198,44.8303303 L44.2738173,43.0423351 Z M64.0793019,25.3228449 L65.0649915,25.3228449 C66.4556614,26.8357714 67.8997968,28.050679 69.3974413,28.9676042 C70.4671873,29.7011443 72.2704464,30.5416465 74.8072727,31.4891358 L73.4777379,33.6438992 C72.438556,33.2924112 71.4223125,32.8492373 70.4289769,32.3143643 L70.4289769,33.2771309 L65.2254526,33.2771309 L65.2254526,35.7986625 L73.5694299,35.7986625 L73.5694299,37.8388108 L65.2254526,37.8388108 L65.2254526,43.6612565 L67.33437,43.6612565 C68.0373459,42.1941763 68.6486202,40.5590176 69.1682111,38.7557314 L71.4146666,39.4663449 C70.8645115,41.0403997 70.2685191,42.4386896 69.6266714,43.6612565 L74.0966593,43.6612565 L74.0966593,45.6326358 L54.2224056,45.6326358 L54.2224056,43.6612565 L58.7382395,43.6612565 C58.3103411,42.4386896 57.7296305,41.1015272 56.9960904,39.649729 L59.0591617,38.9161925 C59.7621377,40.245734 60.3886938,41.8274062 60.9388489,43.6612565 L63.0019202,43.6612565 L63.0019202,37.8388108 L54.6579429,37.8388108 L54.6579429,35.7986625 L63.0019202,35.7986625 L63.0019202,33.2771309 L57.98178,33.2771309 L57.98178,32.1997492 C57.0190086,32.7346223 55.9416377,33.2771282 54.749635,33.8272833 L53.6034843,31.6725199 C56.1708747,30.6639022 58.1422343,29.6629406 59.517622,28.669605 C60.6332143,27.8443724 61.8251991,26.7287968 63.0936123,25.3228449 L64.0793019,25.3228449 Z M59.6551601,31.2140596 L68.5722128,31.2140596 C67.1051325,30.220724 65.6075105,28.937048 64.0793019,27.3629932 C62.7344783,28.753663 61.4355205,29.9150841 60.1823894,30.8472914 C59.9990044,30.9695481 59.823263,31.0918029 59.6551601,31.2140596 Z M42.3024381,47.5297414 C42.5927977,47.9576398 42.8678711,48.4313774 43.1276666,48.9509683 L51.632105,48.9509683 L51.632105,50.7389635 L48.0331917,50.7389635 L48.0331917,51.8163452 L50.6464154,51.8163452 L50.6464154,53.3292641 L48.0331917,53.3292641 L48.0331917,55.7591037 L38.1992185,55.7591037 L38.1992185,53.3292641 L35.4255337,53.3292641 L35.4255337,51.8163452 L38.1992185,51.8163452 L38.1992185,50.7389635 L34.348152,50.7389635 L34.348152,55.9424878 C34.348152,57.8374665 34.2029744,59.8241078 33.9126147,61.9024716 C33.5764089,64.0725278 33.0033392,66.2043468 32.1933887,68.2979926 L30.4970856,66.7621506 C31.2459078,65.050557 31.75785,63.2472979 32.0329276,61.3523192 C32.2621588,59.4114943 32.3767728,57.6082352 32.3767728,55.9424878 L32.3767728,48.9509683 L40.9041342,48.9509683 C40.6443387,48.538352 40.3692653,48.1486647 40.0789057,47.7818946 L42.3024381,47.5297414 Z M40.2622898,50.7389635 L40.2622898,51.8163452 L45.9930434,51.8163452 L45.9930434,50.7389635 L40.2622898,50.7389635 Z M40.2622898,53.3292641 L40.2622898,54.4066458 L45.9930434,54.4066458 L45.9930434,53.3292641 L40.2622898,53.3292641 Z M34.6003052,56.5614092 L51.5404129,56.5614092 L51.5404129,58.0972511 L43.9299721,58.0972511 L43.9299721,58.9912487 L50.096263,58.9912487 L50.096263,65.4326158 L35.861071,65.4326158 L35.861071,58.9912487 L42.0502849,58.9912487 L42.0502849,58.0972511 L34.6003052,58.0972511 L34.6003052,56.5614092 Z M48.2165758,63.9884659 L48.2165758,62.7506231 L43.9299721,62.7506231 L43.9299721,63.9884659 L48.2165758,63.9884659 Z M42.0502849,63.9884659 L42.0502849,62.7506231 L37.7407582,62.7506231 L37.7407582,63.9884659 L42.0502849,63.9884659 Z M37.7407582,61.5815494 L42.0502849,61.5815494 L42.0502849,60.4124756 L37.7407582,60.4124756 L37.7407582,61.5815494 Z M43.9299721,60.4124756 L43.9299721,61.5815494 L48.2165758,61.5815494 L48.2165758,60.4124756 L43.9299721,60.4124756 Z M40.3310588,65.5243079 L41.5001326,66.8538427 C39.3300763,67.6637933 37.1524117,68.2597857 34.9670734,68.6418378 L34.0730758,66.7621506 C36.4723634,66.5023552 38.5583368,66.089745 40.3310588,65.5243079 Z M45.0073538,65.5243079 C47.2232563,65.8910779 49.2481023,66.3342518 51.0819527,66.8538427 L50.004571,68.5730688 C48.063746,67.8853749 46.0694637,67.342869 44.0216642,66.9455348 L45.0073538,65.5243079 Z M58.4402403,47.9652787 L60.5720807,48.423739 C60.1900285,49.2336896 59.8079821,49.9748596 59.42593,50.6472714 L63.0019202,50.6472714 L63.0019202,47.5985105 L65.3171447,47.5985105 L65.3171447,50.6472714 L72.7671244,50.6472714 L72.7671244,52.6186507 L65.3171447,52.6186507 L65.3171447,55.6674116 L74.3717354,55.6674116 L74.3717354,57.7304829 L65.3171447,57.7304829 L65.3171447,59.518478 L63.0019202,59.518478 L63.0019202,57.7304829 L53.8556374,57.7304829 L53.8556374,55.6674116 L63.0019202,55.6674116 L63.0019202,52.6186507 L58.2110102,52.6186507 C57.462188,53.7189609 56.6980951,54.6435132 55.9187087,55.3923354 L54.4057898,53.5126482 C56.1785118,51.8469008 57.5233152,49.9977962 58.4402403,47.9652787 Z M72.2169721,60.1373994 L72.2169721,68.4813767 L70.0622087,68.4813767 L70.0622087,67.2206109 L58.3485483,67.2206109 L58.3485483,68.4813767 L56.1937849,68.4813767 L56.1937849,60.1373994 L72.2169721,60.1373994 Z M58.3485483,65.2492317 L70.0622087,65.2492317 L70.0622087,62.1087787 L58.3485483,62.1087787 L58.3485483,65.2492317 Z" id="黃金" fill="#FFFFFF" sketch:type="MSShapeGroup"></path>
        </g>
    </g>
</svg>