<?xml version="1.0" encoding="UTF-8" standalone="no"?>
<svg width="192px" height="192px" viewBox="0 0 192 192" version="1.1" xmlns="http://www.w3.org/2000/svg" xmlns:xlink="http://www.w3.org/1999/xlink" xmlns:sketch="http://www.bohemiancoding.com/sketch/ns">
    <title>Untitled</title>
    <description>Created with Sketch (http://www.bohemiancoding.com/sketch)</description>
    <defs></defs>
    <g id="Page-1" stroke="none" stroke-width="1" fill="none" fill-rule="evenodd" sketch:type="MSPage">
        <path d="M119.238238,17.2393239 C119.238238,17.2393239 97.4586769,16.5321806 86.7486632,49.3791175 C77.2775006,82.7296086 91.8990004,119.573579 91.8990004,119.573579 C91.8990004,119.573579 97.2106921,131.505125 106.38297,131.505121 C115.555248,131.505118 126.31941,111.827498 126.31941,111.827498 C126.31941,111.827498 140.542396,85.1575004 143.502001,62.0470412 C146.461605,38.936582 138.348415,18.2962476 119.238238,17.2393239 Z M42.8661149,53.7205183 C42.8661149,53.7205183 31.7619207,59.790248 48.4030523,90.3847251 C65.0441861,120.979201 78.4777297,128.506534 78.4777297,128.506534 C78.4777297,128.506534 84.2442472,131.849488 84.2442448,122.381574 C84.2442422,112.91366 70.3775357,81.3001626 70.3775357,81.3001626 C70.3775357,81.3001626 53.936741,49.1582032 42.8661149,53.7205183 Z M87.4386956,132.318823 C87.4386956,132.318823 85.3429664,135.295885 82.078417,135.974378 C78.4441588,136.729711 72.8379155,134.684015 67.2933977,127.735499 C67.1287948,141.078078 75.3968408,155.260637 81.0323229,160.616728 C86.6678055,165.972819 92.8144245,163.146414 92.8144232,153.865844 C92.814422,144.585274 87.4386956,132.318823 87.4386956,132.318823 Z M130.052213,117.448325 C130.052213,117.448325 120.627616,133.872551 110.985353,137.305388 C101.34309,140.738224 95.6686228,134.200133 94.9354902,133.426932 C103.964102,166.697762 129.373227,185.33044 146.958661,170.733307 C159.882152,159.569549 146.271011,136.141797 144.830736,134.238035 C140.629031,126.629483 130.052213,117.448325 130.052213,117.448325 Z" id="MSN" stroke="#3277AC" stroke-width="2" sketch:type="MSShapeGroup"></path>
    </g>
</svg>