<?xml version="1.0" encoding="UTF-8" standalone="no"?>
<svg width="128px" height="128px" viewBox="0 0 128 128" version="1.1" xmlns="http://www.w3.org/2000/svg" xmlns:xlink="http://www.w3.org/1999/xlink" xmlns:sketch="http://www.bohemiancoding.com/sketch/ns">
    <!-- Generator: Sketch 3.0.1 (7597) - http://www.bohemiancoding.com/sketch -->
    <title>product-skype</title>
    <description>Created with Sketch.</description>
    <defs></defs>
    <g id="Page-1" stroke="none" stroke-width="1" fill="none" fill-rule="evenodd" sketch:type="MSPage">
        <g id="product-skype" sketch:type="MSLayerGroup" transform="translate(12.000000, 11.235294)" stroke-width="2" stroke="#FFFFFF">
            <g id="Page-1" sketch:type="MSShapeGroup">
                <g id="layer1" transform="translate(0.006268, -0.095588)">
                    <path d="M3.95094396,42.9046251 C1.45836117,38.6919502 0.0297107039,33.7885 0.0297107039,28.5550813 C0.0297107039,12.8430707 12.9068249,0.105844383 28.7915291,0.105844383 C33.1346507,0.105844383 37.2529372,1.05802778 40.9446611,2.76285589 C44.6671162,1.8437071 48.5538181,1.35678882 52.5514266,1.35678882 C79.8314239,1.35678882 101.94671,24.0316267 101.94671,52.0023975 C101.94671,56.0925337 101.473821,60.0694274 100.581044,63.8787385 C102.652024,67.8077509 103.822817,72.2749016 103.822817,77.0126202 C103.822817,92.7246312 90.9450834,105.461858 75.0609987,105.461858 C69.9949529,105.461858 65.2348596,104.166407 61.1008208,101.892153 C58.3238184,102.388983 55.4671218,102.648006 52.5514266,102.648006 C25.2714296,102.648006 3.15614332,79.9731683 3.15614332,52.0023975 C3.15614332,48.8965801 3.42881218,45.8560585 3.95094396,42.9046251 L3.95094396,42.9046251 Z" id="path24965"></path>
                    <path d="M53.7892279,15.556994 L53.504108,15.5196172 L53.2169021,15.505361 C48.088461,15.2507984 42.629108,16.378027 38.2019287,18.8475174 C32.4841502,22.0369069 28.7523174,27.275401 28.2575289,33.9700887 C27.8436468,41.0474724 30.0203506,46.5777037 34.9558555,50.5827343 C38.763865,53.6728323 43.7306001,55.6176518 51.7373264,57.650704 C52.4416513,57.8348581 55.1166991,58.5220748 54.9086701,58.4683871 C60.7146236,59.966778 63.4601537,60.9182261 65.297336,62.1529905 C66.724822,63.1123994 67.1405995,63.9218464 67.0175023,65.951445 L67.0064852,66.21201 C66.9547627,68.3724209 66.0763712,69.8167593 64.178701,70.9843815 C61.8921786,72.3912614 58.3716892,73.1603918 54.3553453,73.024326 C47.7134318,72.7195989 42.7528927,69.8298811 39.0969919,65.1352792 C36.6815571,62.0335799 32.2090361,61.4772526 29.1073369,63.8926875 C26.0056375,66.3081222 25.4493102,70.7806432 27.8647451,73.8823425 C33.9374768,81.6804361 42.618592,86.7375432 53.7886378,87.2491689 C60.5064568,87.47726 66.7612011,86.1107696 71.6391398,83.1094106 C77.5366884,79.4806939 81.0683036,73.6736619 81.2387864,66.5527465 L81.2277685,66.8133115 C81.661593,59.6605162 78.7887024,54.0674951 73.238622,50.3373034 C69.5868241,47.8829415 65.8647102,46.5930638 58.4662071,44.6836703 C58.6483355,44.7306737 56.0068454,44.0520779 55.2881987,43.8643551 C49.1119652,42.2959259 45.6822017,40.9529369 43.9263729,39.5281287 C42.7273843,38.5551814 42.3113762,37.4982525 42.4624556,34.9094498 C42.5751737,33.3959022 43.3865895,32.2568916 45.1370601,31.2804751 C47.1135292,30.1779963 49.9313544,29.5961814 52.5111138,29.724234 L51.938788,29.6726009 C58.2794587,30.5038107 63.3518361,33.0219344 67.759723,37.5720426 C70.4950704,40.3956465 75.0014908,40.4671925 77.8250949,37.7318452 C80.6486988,34.9964978 80.7202446,30.4900774 77.9848971,27.6664735 C71.3229387,20.7895656 63.2920855,16.8027405 53.7892279,15.556994 L53.7892279,15.556994 Z" id="path24997"></path>
                </g>
            </g>
        </g>
    </g>
</svg>