<?xml version="1.0" encoding="UTF-8" standalone="no"?>
<svg width="64px" height="64px" viewBox="0 0 64 64" version="1.1" xmlns="http://www.w3.org/2000/svg" xmlns:xlink="http://www.w3.org/1999/xlink" xmlns:sketch="http://www.bohemiancoding.com/sketch/ns">
    <title>Untitled</title>
    <description>Created with Sketch (http://www.bohemiancoding.com/sketch)</description>
    <defs></defs>
    <g id="Page-1" stroke="none" stroke-width="1" fill="none" fill-rule="evenodd" sketch:type="MSPage">
        <path d="M40.1928432,4.64454542 C40.1928432,4.64454542 32.6760035,4.40048712 28.9796271,15.7370406 C25.7108188,27.247387 30.7571771,39.9634476 30.7571771,39.9634476 C30.7571771,39.9634476 32.5904158,44.0814149 35.7560694,44.0814136 C38.9217229,44.0814123 42.6367876,37.2900214 42.6367876,37.2900214 C42.6367876,37.2900214 47.5456058,28.085332 48.5670622,20.1091558 C49.5885187,12.1329796 46.7883909,5.0093244 40.1928432,4.64454542 Z M13.8343229,17.2354001 C13.8343229,17.2354001 10.0019018,19.3302626 15.7453012,29.8894184 C21.4887014,40.4485738 26.1250571,43.0465027 26.1250571,43.0465027 C26.1250571,43.0465027 28.1152712,44.2002658 28.1152703,40.9325787 C28.1152694,37.6648916 23.329415,26.7540384 23.329415,26.7540384 C23.329415,26.7540384 17.6551584,15.6607958 13.8343229,17.2354001 Z M29.2177799,44.3622486 C29.2177799,44.3622486 28.4944751,45.3897303 27.3677722,45.6239005 C26.1134708,45.8845904 24.1785726,45.1785537 22.264978,42.7803936 C22.2081681,47.3853544 25.0617415,52.2802198 27.0067309,54.1287821 C28.9517205,55.9773445 31.07312,55.0018597 31.0731195,51.7988312 C31.0731191,48.5958027 29.2177799,44.3622486 29.2177799,44.3622486 Z M43.9251002,39.2299529 C43.9251002,39.2299529 40.6723631,44.8984912 37.3445024,46.0832753 C34.0166417,47.2680595 32.0581972,45.0115502 31.8051692,44.7446935 C34.9212387,56.227546 43.6907596,62.6582936 49.7600689,57.6203449 C54.2203888,53.7673666 49.5227383,45.6816821 49.0256522,45.0246314 C47.5755062,42.3986713 43.9251002,39.2299529 43.9251002,39.2299529 Z" id="MSN" stroke="#FFFFFF" stroke-width="1.5" sketch:type="MSShapeGroup"></path>
    </g>
</svg>