<?xml version="1.0" encoding="UTF-8" standalone="no"?>
<svg width="64px" height="64px" viewBox="0 0 64 64" version="1.1" xmlns="http://www.w3.org/2000/svg" xmlns:xlink="http://www.w3.org/1999/xlink" xmlns:sketch="http://www.bohemiancoding.com/sketch/ns">
    <title>Untitled</title>
    <description>Created with Sketch (http://www.bohemiancoding.com/sketch)</description>
    <defs></defs>
    <g id="Page-1" stroke="none" stroke-width="1" fill="none" fill-rule="evenodd" sketch:type="MSPage">
        <g id="path3-+-path5-+-g23" sketch:type="MSLayerGroup" transform="translate(6.000000, 7.000000)" stroke="#FFFFFF" stroke-width="1.5">
            <path d="M32.5113902,10.180603 L32.5113902,20.0724031 L35.9682023,22.2490553 C36.059371,22.275646 36.2569028,22.2775464 36.3480716,22.2490553 L51.2256572,12.2186026 C51.2256572,11.0315104 50.1183372,10.180603 49.4934538,10.180603 L32.5113902,10.180603 L32.5113902,10.180603 Z" id="path3" sketch:type="MSShapeGroup"></path>
            <path d="M35.6681052,26.1961424 C36.1125526,26.5228302 36.6481686,26.1961424 36.6481686,26.1961424 C36.6481686,26.1961424 40.1473881,23.850734 43.9215437,21.3403789 C47.5737696,18.9111246 51.229457,16.482881 51.229457,16.482881 L51.229457,34.6634324 C51.229457,36.6425522 49.9625924,37.4725666 48.5380822,37.4725666 L32.5113902,37.4725666 L32.5113902,24.0289873 L35.6681052,26.1961424 Z" id="path5" sketch:type="MSShapeGroup"></path>
            <path d="M14.8348868,19.39849 C13.7598563,19.39849 12.9032507,19.9037164 12.2707681,20.9122698 C11.6382855,21.9208231 11.3210945,23.2560642 11.3210945,24.917993 C11.3210945,26.6046133 11.6382855,27.937955 12.2707681,28.9180182 C12.9032507,29.8999807 13.7332654,30.3881129 14.7589129,30.3881129 C15.8168493,30.3881129 16.6563608,29.9113768 17.275548,28.9579045 C17.8947352,28.0044322 18.2062281,26.6805872 18.2062281,24.9882688 C18.2062281,23.2237753 17.9061312,21.8505473 17.3040382,20.8685848 C16.7019451,19.8885216 15.8795278,19.39849 14.8348868,19.39849 L14.8348868,19.39849 Z" id="path25" sketch:type="MSShapeGroup"></path>
            <path d="M-0.131969121,41.0475574 C-0.131969121,42.7068744 1.19019419,44.3292445 2.79846953,44.6664635 L26.3774738,49.6104483 C27.9959104,49.9497979 29.3079125,48.8722666 29.3079125,47.2316497 L29.3079125,2.64802133 C29.3079125,0.99489752 27.9857492,-0.0893215329 26.3639055,0.224583689 L2.81203783,4.7830097 C1.18610769,5.09770585 -0.131969121,6.69616985 -0.131969121,8.3572768 L-0.131969121,41.0475574 Z M19.56806,31.2447185 C18.3239876,32.8819558 16.7019451,33.7024738 14.7000332,33.7024738 C12.7494036,33.7024738 11.1615493,32.9085467 9.93267169,31.3225918 C8.7056934,29.7347375 8.09030491,27.6682477 8.09030491,25.1193238 C8.09030491,22.4279488 8.71329079,20.2512969 9.9611619,18.5893681 C11.209033,16.9274393 12.8614651,16.0955253 14.9184581,16.0955253 C16.8614903,16.0955253 18.4341498,16.8894524 19.6326378,18.4811053 C20.8330253,20.0727583 21.433219,22.1696376 21.433219,24.7736426 C21.4351183,27.4498228 20.8121325,29.6074812 19.56806,31.2447185 L19.56806,31.2447185 Z" id="path27" sketch:type="MSShapeGroup"></path>
        </g>
    </g>
</svg>