<?xml version="1.0" encoding="UTF-8" standalone="no"?>
<svg width="192px" height="192px" viewBox="0 0 192 192" version="1.1" xmlns="http://www.w3.org/2000/svg" xmlns:xlink="http://www.w3.org/1999/xlink" xmlns:sketch="http://www.bohemiancoding.com/sketch/ns">
    <title>Untitled</title>
    <description>Created with Sketch (http://www.bohemiancoding.com/sketch)</description>
    <defs></defs>
    <g id="Page-1" stroke="none" stroke-width="1" fill="none" fill-rule="evenodd" sketch:type="MSPage">
        <g id="layer1" sketch:type="MSLayerGroup" transform="translate(28.008197, 26.875000)" stroke="#3277AC" stroke-width="2">
            <path d="M5.16661903,56.1060482 C1.90708769,50.5971657 0.038852459,44.1849616 0.038852459,37.3412602 C0.038852459,16.7947848 16.8781557,0.138411885 37.6504611,0.138411885 C43.3299279,0.138411885 48.7153794,1.38357479 53.5430183,3.6129654 C58.4108443,2.41100159 63.4934544,1.7742623 68.7210963,1.7742623 C104.394939,1.7742623 133.314928,31.4259734 133.314928,68.0031352 C133.314928,73.3517749 132.696535,78.5523282 131.529057,83.5337349 C134.237262,88.6716743 135.768299,94.5133328 135.768299,100.708811 C135.768299,121.255287 118.928186,137.91166 98.1566906,137.91166 C91.5318615,137.91166 85.3071241,136.217609 79.9010734,133.243585 C76.2696087,133.893285 72.5339285,134.232008 68.7210963,134.232008 C33.0472541,134.232008 4.12726434,104.580297 4.12726434,68.0031352 C4.12726434,63.9416817 4.48383131,59.965615 5.16661903,56.1060482 Z" id="path24965" sketch:type="MSShapeGroup"></path>
            <path d="M70.3397596,20.3437614 L69.9669104,20.294884 L69.5913335,20.2762413 C62.8849106,19.9433517 55.7457566,21.4174199 49.9563683,24.6467535 C42.4792733,28.8174937 37.5991843,35.6678321 36.9521532,44.4224237 C36.4109227,53.6774639 39.2573816,60.9093049 45.7115034,66.1466525 C50.6912081,70.1875499 57.1861694,72.7307754 67.6565038,75.3893822 C68.577544,75.6301991 72.0756834,76.5288671 71.8036455,76.45866 C79.3960462,78.4180943 82.9863548,79.6622957 85.388824,81.2769876 C87.2555365,82.5315992 87.7992455,83.5901068 87.6382723,86.2441973 L87.6238653,86.5849362 C87.5562281,89.4100889 86.4075624,91.2988391 83.9259936,92.8257296 C80.9359258,94.6654957 76.332209,95.6712816 71.0800669,95.4933494 C62.3944877,95.0948601 55.9076289,91.3159983 51.1268356,85.1769036 C47.96819,81.1208352 42.1195088,80.3933303 38.0634405,83.5519759 C34.0073721,86.7106214 33.2798672,92.5593027 36.4385128,96.615371 C44.3797773,106.812878 55.7320049,113.426018 70.3389879,114.095067 C79.1238281,114.39334 87.3031091,112.606391 93.6819521,108.681537 C101.394131,103.936292 106.012397,96.3424809 106.235336,87.0305146 L106.220928,87.3712535 C106.788237,78.0175981 103.03138,70.7036474 95.7735826,65.8257044 C90.9981546,62.6161543 86.1307749,60.9293911 76.4558093,58.4324919 C76.6939772,58.4939579 73.2397209,57.6065634 72.2999522,57.3610797 C64.2233391,55.3100569 59.7382637,53.5538405 57.44218,51.6906298 C55.8742718,50.4183141 55.3302612,49.0361764 55.5278266,45.650819 C55.6752271,43.6715644 56.7363093,42.182089 59.0253863,40.9052367 C61.6099997,39.4635336 65.2948481,38.7026987 68.6683796,38.8701521 L67.9199535,38.802632 C76.2115999,39.8895986 82.8447088,43.1825296 88.6088686,49.1326711 C92.1858613,52.8250762 98.0788726,52.9186364 101.771278,49.3416437 C105.463683,45.764651 105.557243,39.8716397 101.98025,36.1792346 C93.2684583,27.186355 82.7665733,21.9728145 70.3397596,20.3437614 Z" id="path24997" sketch:type="MSShapeGroup"></path>
        </g>
    </g>
</svg>