<?xml version="1.0" encoding="UTF-8" standalone="no"?>
<svg width="128px" height="128px" viewBox="0 0 128 128" version="1.1" xmlns="http://www.w3.org/2000/svg" xmlns:xlink="http://www.w3.org/1999/xlink" xmlns:sketch="http://www.bohemiancoding.com/sketch/ns">
    <!-- Generator: Sketch 3.0.1 (7597) - http://www.bohemiancoding.com/sketch -->
    <title>product-msn</title>
    <description>Created with Sketch.</description>
    <defs></defs>
    <g id="Page-1" stroke="none" stroke-width="1" fill="none" fill-rule="evenodd" sketch:type="MSPage">
        <g id="product-msn" sketch:type="MSLayerGroup" transform="translate(24.389937, 8.265487)" stroke-width="2" stroke="#FFFFFF">
            <g id="Page-1" sketch:type="MSShapeGroup">
                <path d="M56.2520647,0.167781146 C56.2520647,0.167781146 40.9832189,-0.3279709 33.4748239,22.6998032 C26.8349417,46.0806005 37.0855351,71.9105472 37.0855351,71.9105472 C37.0855351,71.9105472 40.8093659,80.2753133 47.2397111,80.2753105 C53.6700564,80.2753084 61.2164128,66.4800559 61.2164128,66.4800559 C61.2164128,66.4800559 71.1876229,47.7827058 73.2624926,31.5808166 C75.3373616,15.3789273 69.6495038,0.908751309 56.2520647,0.167781146 L56.2520647,0.167781146 Z M2.71039034,25.7433989 C2.71039034,25.7433989 -5.07435002,29.9986622 6.59213262,51.4473199 C18.2586168,72.8959768 27.676378,78.1731119 27.676378,78.1731119 C27.676378,78.1731119 31.7190704,80.5167335 31.7190687,73.8791287 C31.7190669,67.241524 21.9976312,45.0784688 21.9976312,45.0784688 C21.9976312,45.0784688 10.4715974,22.5449283 2.71039034,25.7433989 L2.71039034,25.7433989 Z M33.9585802,80.8457669 C33.9585802,80.8457669 32.4893418,82.9328751 30.2006868,83.4085415 C27.6528427,83.9380776 23.7225126,82.5039157 19.835456,77.6325678 C19.720059,86.986557 25.5164806,96.9294253 29.4673089,100.684383 C33.4181376,104.43934 37.7273051,102.457852 37.7273042,95.9515874 C37.7273034,89.4453226 33.9585802,80.8457669 33.9585802,80.8457669 L33.9585802,80.8457669 Z M63.8333431,70.4206101 C63.8333431,70.4206101 57.2261063,81.9350282 50.4662719,84.3416635 C43.7064374,86.748298 39.7282781,82.1646839 39.2143059,81.6226212 C45.5439321,104.947571 63.3573311,118.010253 75.6858292,107.776743 C84.7460114,99.9502443 75.2037432,83.5259128 74.1940196,82.1912556 C71.2483595,76.8571808 63.8333431,70.4206101 63.8333431,70.4206101 L63.8333431,70.4206101 Z" id="MSN"></path>
            </g>
        </g>
    </g>
</svg>