<?xml version="1.0" encoding="UTF-8" standalone="no"?>
<svg width="128px" height="128px" viewBox="0 0 128 128" version="1.1" xmlns="http://www.w3.org/2000/svg" xmlns:xlink="http://www.w3.org/1999/xlink" xmlns:sketch="http://www.bohemiancoding.com/sketch/ns">
    <!-- Generator: Sketch 3.0.1 (7597) - http://www.bohemiancoding.com/sketch -->
    <title>product-outlook</title>
    <description>Created with Sketch.</description>
    <defs></defs>
    <g id="Page-1" stroke="none" stroke-width="1" fill="none" fill-rule="evenodd" sketch:type="MSPage">
        <g id="product-outlook" sketch:type="MSLayerGroup" transform="translate(12.000000, 12.000000)" stroke-width="2" stroke="#FFFFFF">
            <g id="Page-1" sketch:type="MSShapeGroup">
                <g id="path3-+-path5-+-g23" transform="translate(-0.312679, 0.000000)">
                    <path d="M65.3908497,21.1262745 L65.3908497,41.6532399 L72.5642521,46.1701189 C72.7534406,46.2252986 73.163349,46.2292422 73.3525374,46.1701189 L104.225754,25.3554287 C104.225754,22.8920347 101.927899,21.1262745 100.631172,21.1262745 L65.3908497,21.1262745 L65.3908497,21.1262745 Z" id="path3"></path>
                    <path d="M71.9415057,54.3609153 C72.8638005,55.0388414 73.9752839,54.3609153 73.9752839,54.3609153 C73.9752839,54.3609153 81.236688,49.4938418 89.0686257,44.2844795 C96.6475411,39.2434133 104.233639,34.2044444 104.233639,34.2044444 L104.233639,71.9318087 C104.233639,76.0387784 101.604706,77.7611827 98.6486335,77.7611827 L65.3908497,77.7611827 L65.3908497,49.8637441 L71.9415057,54.3609153 L71.9415057,54.3609153 Z" id="path5"></path>
                    <path d="M30.7846099,40.2547694 C28.5537607,40.2547694 26.776176,41.3031898 25.4636799,43.3960889 C24.1511838,45.488988 23.492965,48.2598131 23.492965,51.708564 C23.492965,55.2085535 24.1511838,57.9754371 25.4636799,60.0092148 C26.776176,62.0469339 28.4985807,63.0598813 30.6269527,63.0598813 C32.822329,63.0598813 34.5644409,62.0705825 35.849347,60.0919849 C37.134253,58.1133871 37.7806475,55.3662107 37.7806475,51.8543969 C37.7806475,48.1928088 37.1579017,45.3431551 35.9084684,43.305436 C34.6590352,41.2716583 32.9523962,40.2547694 30.7846099,40.2547694 L30.7846099,40.2547694 L30.7846099,40.2547694 Z" id="path25"></path>
                    <path d="M-0.273855672,87.9509738 C-0.273855672,89.8638409 1.25153785,91.7343669 3.11965643,92.126069 L57.4247916,103.51263 C59.2989767,103.905604 60.8183038,102.66957 60.8183038,100.762502 L60.8183038,2.74527867 C60.8183038,0.833450925 59.2929102,-0.421154225 57.4138125,-0.057457883 L3.13063562,10.4489635 C1.250387,10.8128826 -0.273855672,12.6581838 -0.273855672,14.57145 L-0.273855672,87.9509738 L-0.273855672,87.9509738 Z M40.6066526,64.8374661 C38.0250162,68.2349784 34.6590352,69.9376759 30.5047684,69.9376759 C26.4569202,69.9376759 23.161885,68.2901585 20.61178,64.9990647 C18.0656165,61.7040296 16.7885933,57.4157541 16.7885933,52.1263555 C16.7885933,46.5413497 18.0813822,42.0244714 20.6709015,38.5757204 C23.2604207,35.1269695 26.6894645,33.4006233 30.9580328,33.4006233 C34.9901153,33.4006233 38.253619,35.0481409 40.7406612,38.3510589 C43.2316447,41.653977 44.4771365,46.0053153 44.4771365,51.4090154 C44.4810779,56.9624897 43.188289,61.4399537 40.6066526,64.8374661 L40.6066526,64.8374661 L40.6066526,64.8374661 Z" id="path27"></path>
                </g>
            </g>
        </g>
    </g>
</svg>