<?xml version="1.0" encoding="UTF-8" standalone="no"?>
<svg width="64px" height="64px" viewBox="0 0 64 64" version="1.1" xmlns="http://www.w3.org/2000/svg" xmlns:xlink="http://www.w3.org/1999/xlink" xmlns:sketch="http://www.bohemiancoding.com/sketch/ns">
    <title>Untitled</title>
    <description>Created with Sketch (http://www.bohemiancoding.com/sketch)</description>
    <defs></defs>
    <g id="Page-1" stroke="none" stroke-width="1" fill="none" fill-rule="evenodd" sketch:type="MSPage">
        <g id="layer1" sketch:type="MSLayerGroup" transform="translate(9.562500, 9.562500)" stroke="#FFFFFF" stroke-width="1.5">
            <path d="M1.70443603,18.5090423 C0.62913657,16.6916956 0.0128171887,14.5763487 0.0128171887,12.3186535 C0.0128171887,5.54049684 5.56800039,0.0456612347 12.4206569,0.0456612347 C14.2942783,0.0456612347 16.0709058,0.456432863 17.6635144,1.1918952 C19.2693804,0.795374685 20.9461024,0.585318284 22.6706695,0.585318284 C34.439252,0.585318284 43.9797798,10.3672365 43.9797798,22.4338186 C43.9797798,24.1983021 43.7757756,25.9139328 43.3906319,27.5572684 C44.2840519,29.2522432 44.7891318,31.1793706 44.7891318,33.2232212 C44.7891318,40.0013778 39.2336816,45.4962134 32.3812921,45.4962134 C30.1958015,45.4962134 28.1422987,44.9373562 26.3588756,43.956244 C25.1608776,44.170576 23.9284995,44.2823188 22.6706695,44.2823188 C10.9020871,44.2823188 1.36155927,34.5004006 1.36155927,22.4338186 C1.36155927,21.0939699 1.47918854,19.7822898 1.70443603,18.5090423 Z" id="path24965" sketch:type="MSShapeGroup"></path>
            <path d="M23.2046566,6.71128252 L23.081656,6.69515814 L22.9577555,6.68900804 C20.7453475,6.57918979 18.3901843,7.06547588 16.4803005,8.1308133 C14.0136525,9.50671499 12.403741,11.7665997 12.1902894,14.654686 C12.0117408,17.7078672 12.9507702,20.0936073 15.0799455,21.8213762 C16.7227196,23.1544436 18.8653677,23.9934382 22.319467,24.8704963 C22.6233125,24.9499403 23.7773273,25.2464054 23.6875836,25.2232445 C26.1922702,25.8696499 27.3766911,26.2801043 28.169251,26.8127813 C28.785068,27.22667 28.9644343,27.5758652 28.9113302,28.4514334 L28.9065774,28.5638411 C28.8842644,29.4958417 28.5053266,30.1189288 27.6866722,30.6226407 C26.7002671,31.2295683 25.1815291,31.5613709 23.4488795,31.5026721 C20.58356,31.371213 18.443585,30.1245896 16.8664305,28.0993397 C15.8244126,26.7612676 13.8949684,26.5212682 12.5568963,27.563286 C11.2188241,28.6053039 10.9788247,30.5347481 12.0208426,31.8728202 C14.6406172,35.2369156 18.3856477,37.4185497 23.2044021,37.6392649 C26.1024672,37.7376634 28.8007619,37.14816 30.9051032,35.8533747 C33.449304,34.2879472 34.9728417,31.7827954 35.0463877,28.7108347 L35.0416349,28.8232424 C35.2287864,25.7375286 33.9894225,23.324701 31.5951194,21.7154974 C30.0197349,20.6566865 28.4140161,20.1002336 25.222304,19.2765218 C25.3008742,19.2967991 24.1613361,19.0040531 23.8513122,18.9230695 C21.1868869,18.2464496 19.707288,17.6670845 18.949824,17.0524227 C18.4325807,16.6326936 18.2531149,16.1767348 18.3182905,15.0599261 C18.366917,14.4069821 18.7169616,13.9156133 19.4721141,13.4943875 C20.3247622,13.0187785 21.5403712,12.7677837 22.6532786,12.8230255 L22.4063774,12.8007511 C25.1417409,13.1593347 27.3299629,14.2456525 29.231524,16.2085678 C30.411552,17.4266697 32.3556204,17.4575346 33.5737223,16.2775066 C34.7918242,15.0974786 34.8226891,13.1534102 33.6426611,11.9353083 C30.7686942,8.9686123 27.3041865,7.24869715 23.2046566,6.71128252 Z" id="path24997" sketch:type="MSShapeGroup"></path>
        </g>
    </g>
</svg>