<?xml version="1.0" encoding="UTF-8" standalone="no"?>
<svg width="192px" height="192px" viewBox="0 0 192 192" version="1.1" xmlns="http://www.w3.org/2000/svg" xmlns:xlink="http://www.w3.org/1999/xlink" xmlns:sketch="http://www.bohemiancoding.com/sketch/ns">
    <title>Untitled</title>
    <description>Created with Sketch (http://www.bohemiancoding.com/sketch)</description>
    <defs></defs>
    <g id="Page-1" stroke="none" stroke-width="1" fill="none" fill-rule="evenodd" sketch:type="MSPage">
        <g id="path3-+-path5-+-g23" sketch:type="MSLayerGroup" transform="translate(20.549020, 22.000000)" stroke="#3277AC" stroke-width="2">
            <path d="M94.3137255,30.4705882 L94.3137255,60.0767883 L104.659979,66.5915176 C104.932847,66.6711038 105.524061,66.6767917 105.796929,66.5915176 L150.325607,36.5703299 C150.325607,33.0173577 147.011393,30.4705882 145.141114,30.4705882 L94.3137255,30.4705882 L94.3137255,30.4705882 Z" id="path3" sketch:type="MSShapeGroup"></path>
            <path d="M103.761787,78.4051663 C105.09202,79.3829443 106.695121,78.4051663 106.695121,78.4051663 C106.695121,78.4051663 117.1683,71.3853487 128.464364,63.8718454 C139.395492,56.6010769 150.336979,49.3333333 150.336979,49.3333333 L150.336979,103.747801 C150.336979,109.671315 146.545249,112.155552 142.281683,112.155552 L94.3137255,112.155552 L94.3137255,71.9188617 L103.761787,78.4051663 Z" id="path5" sketch:type="MSShapeGroup"></path>
            <path d="M44.4008797,58.0597636 C41.1833087,58.0597636 38.6194846,59.5719083 36.7264614,62.5905128 C34.8334382,65.6091173 33.8840842,69.6054996 33.8840842,74.5796596 C33.8840842,79.6277214 34.8334382,83.6184189 36.7264614,86.5517521 C38.6194846,89.4907701 41.1037222,90.9517519 44.1734895,90.9517519 C47.3398976,90.9517519 49.852559,89.5248786 51.7057889,86.671132 C53.5590188,83.8173853 54.4913185,79.8551116 54.4913185,74.7899955 C54.4913185,69.5088588 53.5931274,65.3987814 51.7910602,62.4597634 C49.9889931,59.5264302 47.5274945,58.0597636 44.4008797,58.0597636 L44.4008797,58.0597636 Z" id="path25" sketch:type="MSShapeGroup"></path>
            <path d="M-0.394984142,126.852366 C-0.394984142,129.611309 1.80510267,132.309183 4.49950447,132.874138 L82.8242187,149.297062 C85.5273702,149.863852 87.7187074,148.081111 87.7187074,145.330532 L87.7187074,3.95953655 C87.7187074,1.20209268 85.5186205,-0.607433979 82.8083834,-0.0828719467 L4.51533984,15.0706204 C1.80344279,15.5955037 -0.394984142,18.2569959 -0.394984142,21.0165144 L-0.394984142,126.852366 Z M58.5672874,93.5155761 C54.8437733,98.4158343 49.9889931,100.871648 43.9972621,100.871648 C38.1590195,100.871648 33.4065649,98.4954209 29.7285288,93.748651 C26.0561776,88.9961965 24.2143172,82.8111838 24.2143172,75.1822435 C24.2143172,67.1269467 26.0789166,60.6122183 29.8138002,55.6380583 C33.5486837,50.6638983 38.49442,48.1739759 44.6510089,48.1739759 C50.4665125,48.1739759 55.173489,50.5502032 58.760569,55.3140273 C62.3533337,60.0778514 64.1497161,66.3538201 64.1497161,74.1476183 C64.1554008,82.1574371 62.2908014,88.6153179 58.5672874,93.5155761 L58.5672874,93.5155761 Z" id="path27" sketch:type="MSShapeGroup"></path>
        </g>
    </g>
</svg>