<?xml version="1.0" encoding="UTF-8" standalone="no"?>
<svg width="400px" height="250px" viewBox="0 0 400 250" version="1.1" xmlns="http://www.w3.org/2000/svg" xmlns:xlink="http://www.w3.org/1999/xlink" xmlns:sketch="http://www.bohemiancoding.com/sketch/ns">
    <title>Slice 1</title>
    <description>Created with Sketch (http://www.bohemiancoding.com/sketch)</description>
    <defs></defs>
    <g id="Page-1" stroke="none" stroke-width="1" fill="none" fill-rule="evenodd" sketch:type="MSPage">
        <g id="Group" sketch:type="MSLayerGroup">
            <rect id="Rectangle-1" fill="#F9F9F9" sketch:type="MSShapeGroup" x="0" y="0" width="400" height="250"></rect>
            <rect id="Rectangle-4" fill="#75BAEF" sketch:type="MSShapeGroup" x="21" y="21.3899371" width="358.230274" height="19.5616661"></rect>
            <rect id="Rectangle-4" fill="#D4D4D4" sketch:type="MSShapeGroup" x="40" y="60" width="20" height="20"></rect>
            <rect id="Rectangle-5" fill="#D4D4D4" sketch:type="MSShapeGroup" x="70" y="63" width="49.984375" height="15"></rect>
            <rect id="Rectangle-4" fill="#D4D4D4" sketch:type="MSShapeGroup" x="40" y="90" width="20" height="20"></rect>
            <rect id="Rectangle-5" fill="#D4D4D4" sketch:type="MSShapeGroup" x="70" y="93" width="49.984375" height="15"></rect>
            <rect id="Rectangle-5" fill="#D4D4D4" sketch:type="MSShapeGroup" x="70" y="123" width="49.984375" height="15"></rect>
            <rect id="Rectangle-5" fill="#D4D4D4" sketch:type="MSShapeGroup" x="70" y="153" width="49.984375" height="15"></rect>
            <rect id="Rectangle-5" fill="#D4D4D4" sketch:type="MSShapeGroup" x="70" y="183" width="49.984375" height="15"></rect>
            <rect id="Rectangle-4" fill="#D4D4D4" sketch:type="MSShapeGroup" x="40" y="120" width="20" height="20"></rect>
            <rect id="Rectangle-4" fill="#D4D4D4" sketch:type="MSShapeGroup" x="40" y="150" width="20" height="20"></rect>
            <rect id="Rectangle-4" fill="#D4D4D4" sketch:type="MSShapeGroup" x="40" y="180" width="20" height="20"></rect>
            <rect id="Rectangle-5" fill="#D4D4D4" sketch:type="MSShapeGroup" x="180" y="116" width="80" height="15"></rect>
            <rect id="Rectangle-4" fill="#D4D4D4" sketch:type="MSShapeGroup" x="140" y="110" width="30" height="30"></rect>
            <rect id="Rectangle-5" fill="#D4D4D4" sketch:type="MSShapeGroup" x="180" y="150" width="140" height="10"></rect>
            <rect id="Rectangle-4" fill="#D4D4D4" sketch:type="MSShapeGroup" x="140" y="150" width="30" height="10"></rect>
            <rect id="Rectangle-5" fill="#D4D4D4" sketch:type="MSShapeGroup" x="180" y="170" width="120" height="10"></rect>
            <rect id="Rectangle-4" fill="#D4D4D4" sketch:type="MSShapeGroup" x="140" y="170" width="30" height="10"></rect>
            <rect id="Rectangle-5" fill="#D4D4D4" sketch:type="MSShapeGroup" x="180" y="190" width="180" height="10"></rect>
            <rect id="Rectangle-4" fill="#D4D4D4" sketch:type="MSShapeGroup" x="140" y="190" width="30" height="10"></rect>
            <rect id="Rectangle-4" fill="#75BAEF" sketch:type="MSShapeGroup" x="140.104445" y="60.5974843" width="219.79111" height="39.9025157"></rect>
            <path d="M332.947406,100 L336.915661,100 L336.476392,85.4756197 L350.546256,75.1524973 L333.794193,70.2640903 L330.406088,60 L324.026886,60 L318.498324,68.1143922 L301.04778,68.1959275 L311.727157,81.9973383 L306.412188,98.6189846 L322.838216,92.7271633 L332.947406,100 Z" id="Rectangle-1" fill="#FFFFFF" sketch:type="MSShapeGroup"></path>
            <circle id="Oval-1" fill="#D64038" sketch:type="MSShapeGroup" cx="365" cy="31" r="5"></circle>
            <path d="M21,232.065467 L380.22813,232.065467 L380.22813,21.3899371 L21,21.3899371 L21,232.065467 Z M376.22813,25.3899371 L376.22813,228.065467 L25,228.065467 L25,25.3899371 L376.22813,25.3899371 Z" id="Rectangle-4" fill="#75BAEF" sketch:type="MSShapeGroup"></path>
        </g>
    </g>
</svg>