<?xml version="1.0" encoding="UTF-8" standalone="no"?>
<svg width="400px" height="250px" viewBox="0 0 400 250" version="1.1" xmlns="http://www.w3.org/2000/svg" xmlns:xlink="http://www.w3.org/1999/xlink" xmlns:sketch="http://www.bohemiancoding.com/sketch/ns">
    <title>Untitled</title>
    <description>Created with Sketch (http://www.bohemiancoding.com/sketch)</description>
    <defs></defs>
    <g id="Page-1" stroke="none" stroke-width="1" fill="none" fill-rule="evenodd" sketch:type="MSPage">
        <g id="Group" sketch:type="MSLayerGroup">
            <rect id="Rectangle-1" fill="#F9F9F9" sketch:type="MSShapeGroup" x="0" y="0" width="400" height="250"></rect>
            <rect id="Rectangle-4" fill="#75BAEF" sketch:type="MSShapeGroup" x="21" y="21.3899371" width="358.230274" height="19.5616661"></rect>
            <rect id="Rectangle-4" fill="#D4D4D4" sketch:type="MSShapeGroup" x="40" y="60" width="20" height="20"></rect>
            <rect id="Rectangle-5" fill="#D4D4D4" sketch:type="MSShapeGroup" x="70" y="63" width="49.984375" height="15"></rect>
            <rect id="Rectangle-4" fill="#D4D4D4" sketch:type="MSShapeGroup" x="40" y="90" width="20" height="20"></rect>
            <rect id="Rectangle-5" fill="#D4D4D4" sketch:type="MSShapeGroup" x="70" y="93" width="49.984375" height="15"></rect>
            <rect id="Rectangle-5" fill="#D4D4D4" sketch:type="MSShapeGroup" x="70" y="123" width="49.984375" height="15"></rect>
            <rect id="Rectangle-5" fill="#D4D4D4" sketch:type="MSShapeGroup" x="70" y="153" width="49.984375" height="15"></rect>
            <rect id="Rectangle-5" fill="#D4D4D4" sketch:type="MSShapeGroup" x="70" y="183" width="49.984375" height="15"></rect>
            <rect id="Rectangle-4" fill="#D4D4D4" sketch:type="MSShapeGroup" x="40" y="120" width="20" height="20"></rect>
            <rect id="Rectangle-4" fill="#D4D4D4" sketch:type="MSShapeGroup" x="40" y="150" width="20" height="20"></rect>
            <rect id="Rectangle-4" fill="#D4D4D4" sketch:type="MSShapeGroup" x="40" y="180" width="20" height="20"></rect>
            <rect id="Rectangle-5" fill="#D4D4D4" sketch:type="MSShapeGroup" x="170" y="183" width="70" height="15"></rect>
            <rect id="Rectangle-4" fill="#D4D4D4" sketch:type="MSShapeGroup" x="140" y="180" width="20" height="20"></rect>
            <rect id="Rectangle-5" fill="#D4D4D4" sketch:type="MSShapeGroup" x="290" y="183" width="70" height="15"></rect>
            <rect id="Rectangle-4" fill="#D4D4D4" sketch:type="MSShapeGroup" x="260" y="180" width="20" height="20"></rect>
            <rect id="Rectangle-4" fill="#75BAEF" sketch:type="MSShapeGroup" x="140.104445" y="60.5974843" width="219.79111" height="109.402516"></rect>
            <path d="M270.587187,170.178928 L280.521261,170.178928 L308.235168,160.238279 L322.052597,170.178928 L341.382519,170.178928 L340.562037,143.049785 L360,128.788064 L360,114.520966 L334.204363,106.99356 L321.238561,67.7143418 L297.948226,101.898083 L256.584816,102.091349 L281.898379,134.805138 L270.587187,170.178928 Z" id="Rectangle-1" fill="#FFFFFF" sketch:type="MSShapeGroup"></path>
            <circle id="Oval-1" fill="#D64038" sketch:type="MSShapeGroup" cx="365" cy="31" r="5"></circle>
            <path d="M21,232.065467 L380.22813,232.065467 L380.22813,21.3899371 L21,21.3899371 L21,232.065467 Z M376.22813,25.3899371 L376.22813,228.065467 L25,228.065467 L25,25.3899371 L376.22813,25.3899371 Z" id="Rectangle-4" fill="#75BAEF" sketch:type="MSShapeGroup"></path>
        </g>
    </g>
</svg>