<?xml version="1.0" encoding="UTF-8" standalone="no"?>
<svg width="400px" height="250px" viewBox="0 0 400 250" version="1.1" xmlns="http://www.w3.org/2000/svg" xmlns:xlink="http://www.w3.org/1999/xlink" xmlns:sketch="http://www.bohemiancoding.com/sketch/ns">
    <title>Untitled 2</title>
    <description>Created with Sketch (http://www.bohemiancoding.com/sketch)</description>
    <defs></defs>
    <g id="Page-1" stroke="none" stroke-width="1" fill="none" fill-rule="evenodd" sketch:type="MSPage">
        <g id="Rectangle-1-+-Group" sketch:type="MSLayerGroup">
            <rect id="Rectangle-1" fill="#F9F9F9" sketch:type="MSShapeGroup" x="0" y="0" width="400" height="250"></rect>
            <g id="Group" transform="translate(20.000000, 21.000000)" sketch:type="MSShapeGroup">
                <g>
                    <rect id="Rectangle-1" fill="#2779B7" x="0" y="17.4984277" width="18.2133804" height="10.7248428"></rect>
                    <rect id="Rectangle-1" fill="#2779B7" x="20.3207547" y="17.4984277" width="11.4397955" height="10.7248428"></rect>
                    <rect id="Rectangle-1" fill="#2779B7" x="33.8679245" y="17.4984277" width="11.4397955" height="10.7248428"></rect>
                    <rect id="Rectangle-1" stroke="#E4E4E4" fill="#FFFFFF" x="110.63522" y="5.64465409" width="248.36478" height="22.5786164" rx="3"></rect>
                    <rect id="Rectangle-1" fill="#F26522" x="324.003145" y="6.77358491" width="33.8679245" height="20.3207547" rx="3"></rect>
                    <g id="Oval-1-+-Line" transform="translate(334.163522, 10.160377)" stroke="#FFFFFF" stroke-width="2">
                        <path d="M4.51572327,9.03144654 C7.00968849,9.03144654 9.03144654,7.00968849 9.03144654,4.51572327 C9.03144654,2.02175805 7.00968849,0 4.51572327,0 C2.02175805,0 0,2.02175805 0,4.51572327 C0,7.00968849 2.02175805,9.03144654 4.51572327,9.03144654 Z" id="Oval-1"></path>
                        <path d="M8.46698113,8.46698113 L13.5784331,13.5784331" id="Line" stroke-linecap="round"></path>
                    </g>
                    <rect id="Rectangle-4" fill="#D4D4D4" x="0" y="163.921384" width="33.8679245" height="40.6415094"></rect>
                    <rect id="Rectangle-4" fill="#D4D4D4" x="38.3836478" y="163.921384" width="48.5440252" height="6.77358491"></rect>
                    <rect id="Rectangle-4" fill="#D4D4D4" x="38.3836478" y="175.210692" width="30.4811321" height="6.77358491"></rect>
                    <rect id="Rectangle-4" fill="#D4D4D4" x="38.3836478" y="186.5" width="41.7704403" height="6.77358491"></rect>
                    <rect id="Rectangle-4" fill="#2779B7" x="0" y="39.5125786" width="359" height="99.6163522"></rect>
                    <rect id="Rectangle-4" fill="#D4D4D4" x="0" y="146.987421" width="86.927673" height="12.418239"></rect>
                    <rect id="Rectangle-4" fill="#D4D4D4" x="90.3144654" y="163.921384" width="33.8679245" height="40.6415094"></rect>
                    <rect id="Rectangle-4" fill="#D4D4D4" x="128.698113" y="163.921384" width="48.5440252" height="6.77358491"></rect>
                    <rect id="Rectangle-4" fill="#D4D4D4" x="128.698113" y="175.210692" width="30.4811321" height="6.77358491"></rect>
                    <rect id="Rectangle-4" fill="#D4D4D4" x="128.698113" y="186.5" width="41.7704403" height="6.77358491"></rect>
                    <rect id="Rectangle-4" fill="#D4D4D4" x="90.3144654" y="146.987421" width="86.927673" height="12.418239"></rect>
                    <rect id="Rectangle-4" fill="#D4D4D4" x="180.628931" y="163.921384" width="33.8679245" height="40.6415094"></rect>
                    <rect id="Rectangle-4" fill="#D4D4D4" x="219.012579" y="163.921384" width="48.5440252" height="6.77358491"></rect>
                    <rect id="Rectangle-4" fill="#D4D4D4" x="219.012579" y="175.210692" width="30.4811321" height="6.77358491"></rect>
                    <rect id="Rectangle-4" fill="#D4D4D4" x="219.012579" y="186.5" width="41.7704403" height="6.77358491"></rect>
                    <rect id="Rectangle-4" fill="#D4D4D4" x="180.628931" y="146.987421" width="86.927673" height="12.418239"></rect>
                    <rect id="Rectangle-4" fill="#D4D4D4" x="270.943396" y="163.921384" width="33.8679245" height="40.6415094"></rect>
                    <rect id="Rectangle-4" fill="#D4D4D4" x="309.327044" y="163.921384" width="48.5440252" height="6.77358491"></rect>
                    <rect id="Rectangle-4" fill="#D4D4D4" x="309.327044" y="175.210692" width="30.4811321" height="6.77358491"></rect>
                    <rect id="Rectangle-4" fill="#D4D4D4" x="309.327044" y="186.5" width="41.7704403" height="6.77358491"></rect>
                    <rect id="Rectangle-4" fill="#D4D4D4" x="270.943396" y="146.987421" width="86.927673" height="12.418239"></rect>
                    <path d="M59.3603932,0.124438481 C59.3603932,0.124438481 55.0780724,-0.014600797 52.9722579,6.4437994 C51.1100277,13.001209 53.9849228,20.2455102 53.9849228,20.2455102 C53.9849228,20.2455102 55.0293133,22.5915037 56.8327766,22.5915029 C58.6362398,22.5915022 60.7527009,18.7224674 60.7527009,18.7224674 C60.7527009,18.7224674 63.5492398,13.4785837 64.1311604,8.93458022 C64.7130811,4.39057679 63.1178568,0.33225196 59.3603932,0.124438481 Z M44.3440239,7.2974103 C44.3440239,7.2974103 42.1607053,8.49084711 45.4327025,14.5063662 C48.7047002,20.5218851 51.346018,22.0019174 51.346018,22.0019174 C51.346018,22.0019174 52.4798369,22.6592127 52.4798365,20.7976212 C52.479836,18.9360298 49.7533492,12.7201497 49.7533492,12.7201497 C49.7533492,12.7201497 46.5207423,6.40036298 44.3440239,7.2974103 Z M53.1079328,22.7514938 C53.1079328,22.7514938 52.6958683,23.336847 52.0539891,23.4702531 C51.3394173,23.6187673 50.2371117,23.2165404 49.1469426,21.8503158 C49.1145782,24.473748 50.7402503,27.262338 51.8483049,28.3154584 C52.9563596,29.3685788 54.1649144,28.812848 54.1649142,26.9880924 C54.164914,25.1633367 53.1079328,22.7514938 53.1079328,22.7514938 Z M61.4866487,19.8276405 C61.4866487,19.8276405 59.6335742,23.0569896 57.7377021,23.7319575 C55.8418299,24.4069255 54.72611,23.121399 54.5819607,22.9693715 C56.3571761,29.5111178 61.3531456,33.1746952 64.8108127,30.3045911 C67.3518435,28.1095611 64.6756062,23.5031711 64.3924177,23.1288513 C63.566274,21.6328497 61.4866487,19.8276405 61.4866487,19.8276405 Z" id="MSN" fill="#2779B7"></path>
                </g>
                <g id="Imported-Layers" transform="translate(180.167301, 66.718750)" fill="#3D89C4">
                    <path d="M-0.210985266,30.3642795 L3.7318464,30.3642795 L3.7318464,69.1922357 L-0.210985266,69.1922357 L-0.210985266,30.3642795 Z" id="Fill-1"></path>
                    <path d="M5.66027186,34.3821037 L9.64404674,34.3821037 L9.64404674,69.1922357 L5.66027186,69.1922357 L5.66027186,34.3821037 Z" id="Fill-2"></path>
                    <path d="M11.5765665,40.6297585 L15.5603414,40.6297585 L15.5603414,69.1922357 L11.5765665,69.1922357 L11.5765665,40.6297585 Z" id="Fill-3"></path>
                    <path d="M17.4928612,27.2425168 L21.4766361,27.2425168 L21.4766361,69.1922357 L17.4928612,69.1922357 L17.4928612,27.2425168 Z" id="Fill-4"></path>
                    <path d="M23.4050615,17.86897 L27.3888364,17.86897 L27.3888364,69.1922357 L23.4050615,69.1922357 L23.4050615,17.86897 Z" id="Fill-5"></path>
                    <path d="M29.3172619,11.1753491 L33.3010367,11.1753491 L33.3010367,69.1922357 L29.3172619,69.1922357 L29.3172619,11.1753491 Z" id="Fill-6"></path>
                    <path d="M35.2335565,9.38735541 L39.2173314,9.38735541 L39.2173314,69.1881063 L35.2335565,69.1881063 L35.2335565,9.38735541 Z" id="Fill-7"></path>
                    <path d="M41.1498512,8.0494571 L45.1336261,8.0494571 L45.1336261,69.1922357 L41.1498512,69.1922357 L41.1498512,8.0494571 Z" id="Fill-8"></path>
                    <path d="M47.0620515,0.909870141 L51.0458264,0.909870141 L51.0458264,69.1922357 L47.0620515,69.1922357 L47.0620515,0.909870141 Z" id="Fill-9"></path>
                    <path d="M52.9783462,19.6528344 L56.9621211,19.6528344 L56.9621211,69.1922357 L52.9783462,69.1922357 L52.9783462,19.6528344 Z" id="Fill-10"></path>
                    <path d="M58.8905465,49.5532099 L62.8743214,49.5532099 L62.8743214,69.1881063 L58.8905465,69.1881063 L58.8905465,49.5532099 Z" id="Fill-11"></path>
                    <path d="M64.8027469,31.2562117 L68.7865217,31.2562117 L68.7865217,69.1922357 L64.8027469,69.1922357 L64.8027469,31.2562117 Z" id="Fill-12"></path>
                    <path d="M70.7190415,18.3149361 L74.7028164,18.3149361 L74.7028164,69.1922357 L70.7190415,69.1922357 L70.7190415,18.3149361 Z" id="Fill-13"></path>
                    <path d="M76.6312419,7.15752489 L80.6150167,7.15752489 L80.6150167,69.1922357 L76.6312419,69.1922357 L76.6312419,7.15752489 Z" id="Fill-14"></path>
                    <path d="M82.5475365,4.92769438 L86.5313114,4.92769438 L86.5313114,69.1922357 L82.5475365,69.1922357 L82.5475365,4.92769438 Z" id="Fill-15"></path>
                    <path d="M88.4597369,7.15752489 L92.4435117,7.15752489 L92.4435117,69.1922357 L88.4597369,69.1922357 L88.4597369,7.15752489 Z" id="Fill-16"></path>
                    <path d="M94.3760315,4.92769438 L98.3598064,4.92769438 L98.3598064,69.1922357 L94.3760315,69.1922357 L94.3760315,4.92769438 Z" id="Fill-17"></path>
                    <path d="M100.288232,12.5132474 L104.272007,12.5132474 L104.272007,69.1922357 L100.288232,69.1922357 L100.288232,12.5132474 Z" id="Fill-18"></path>
                    <path d="M106.204527,10.2834169 L110.188301,10.2834169 L110.188301,69.1922357 L106.204527,69.1922357 L106.204527,10.2834169 Z" id="Fill-19"></path>
                    <path d="M112.116727,14.2971119 L116.100502,14.2971119 L116.100502,69.1881063 L112.116727,69.1881063 L112.116727,14.2971119 Z" id="Fill-20"></path>
                    <path d="M118.033022,4.92769438 L122.016796,4.92769438 L122.016796,69.1922357 L118.033022,69.1922357 L118.033022,4.92769438 Z" id="Fill-21"></path>
                    <path d="M123.945222,17.4230039 L127.928997,17.4230039 L127.928997,69.1922357 L123.945222,69.1922357 L123.945222,17.4230039 Z" id="Fill-22"></path>
                    <path d="M129.861517,46.4314471 L133.845291,46.4314471 L133.845291,69.1922357 L129.861517,69.1922357 L129.861517,46.4314471 Z" id="Fill-23"></path>
                    <path d="M135.773717,29.9183134 L139.757492,29.9183134 L139.757492,69.1922357 L135.773717,69.1922357 L135.773717,29.9183134 Z" id="Fill-24"></path>
                    <path d="M141.690012,0.017937935 L145.673786,0.017937935 L145.673786,69.1922357 L141.690012,69.1922357 L141.690012,0.017937935 Z" id="Fill-25"></path>
                    <path d="M147.606306,22.7787264 L151.590081,22.7787264 L151.590081,69.1922357 L147.606306,69.1922357 L147.606306,22.7787264 Z" id="Fill-26"></path>
                    <path d="M153.518507,19.2068683 L157.502281,19.2068683 L157.502281,69.1922357 L153.518507,69.1922357 L153.518507,19.2068683 Z" id="Fill-27"></path>
                    <path d="M159.434801,45.985481 L163.418576,45.985481 L163.418576,69.1922357 L159.434801,69.1922357 L159.434801,45.985481 Z" id="Fill-28"></path>
                    <path d="M165.347002,26.3464553 L169.330776,26.3464553 L169.330776,69.1881063 L165.347002,69.1881063 L165.347002,26.3464553 Z" id="Fill-29"></path>
                    <path d="M171.259202,45.985481 L175.242977,45.985481 L175.242977,69.1922357 L171.259202,69.1922357 L171.259202,45.985481 Z" id="Fill-30"></path>
                </g>
                <g id="Imported-Layers" transform="translate(3.334103, 66.718750)" fill="#3D89C4">
                    <path d="M-0.210985266,30.3642795 L3.7318464,30.3642795 L3.7318464,69.1922357 L-0.210985266,69.1922357 L-0.210985266,30.3642795 Z" id="Fill-1"></path>
                    <path d="M5.66027186,34.3821037 L9.64404674,34.3821037 L9.64404674,69.1922357 L5.66027186,69.1922357 L5.66027186,34.3821037 Z" id="Fill-2"></path>
                    <path d="M11.5765665,40.6297585 L15.5603414,40.6297585 L15.5603414,69.1922357 L11.5765665,69.1922357 L11.5765665,40.6297585 Z" id="Fill-3"></path>
                    <path d="M17.4928612,27.2425168 L21.4766361,27.2425168 L21.4766361,69.1922357 L17.4928612,69.1922357 L17.4928612,27.2425168 Z" id="Fill-4"></path>
                    <path d="M23.4050615,17.86897 L27.3888364,17.86897 L27.3888364,69.1922357 L23.4050615,69.1922357 L23.4050615,17.86897 Z" id="Fill-5"></path>
                    <path d="M29.3172619,11.1753491 L33.3010367,11.1753491 L33.3010367,69.1922357 L29.3172619,69.1922357 L29.3172619,11.1753491 Z" id="Fill-6"></path>
                    <path d="M35.2335565,9.38735541 L39.2173314,9.38735541 L39.2173314,69.1881063 L35.2335565,69.1881063 L35.2335565,9.38735541 Z" id="Fill-7"></path>
                    <path d="M41.1498512,8.0494571 L45.1336261,8.0494571 L45.1336261,69.1922357 L41.1498512,69.1922357 L41.1498512,8.0494571 Z" id="Fill-8"></path>
                    <path d="M47.0620515,0.909870141 L51.0458264,0.909870141 L51.0458264,69.1922357 L47.0620515,69.1922357 L47.0620515,0.909870141 Z" id="Fill-9"></path>
                    <path d="M52.9783462,19.6528344 L56.9621211,19.6528344 L56.9621211,69.1922357 L52.9783462,69.1922357 L52.9783462,19.6528344 Z" id="Fill-10"></path>
                    <path d="M58.8905465,49.5532099 L62.8743214,49.5532099 L62.8743214,69.1881063 L58.8905465,69.1881063 L58.8905465,49.5532099 Z" id="Fill-11"></path>
                    <path d="M64.8027469,31.2562117 L68.7865217,31.2562117 L68.7865217,69.1922357 L64.8027469,69.1922357 L64.8027469,31.2562117 Z" id="Fill-12"></path>
                    <path d="M70.7190415,18.3149361 L74.7028164,18.3149361 L74.7028164,69.1922357 L70.7190415,69.1922357 L70.7190415,18.3149361 Z" id="Fill-13"></path>
                    <path d="M76.6312419,7.15752489 L80.6150167,7.15752489 L80.6150167,69.1922357 L76.6312419,69.1922357 L76.6312419,7.15752489 Z" id="Fill-14"></path>
                    <path d="M82.5475365,4.92769438 L86.5313114,4.92769438 L86.5313114,69.1922357 L82.5475365,69.1922357 L82.5475365,4.92769438 Z" id="Fill-15"></path>
                    <path d="M88.4597369,7.15752489 L92.4435117,7.15752489 L92.4435117,69.1922357 L88.4597369,69.1922357 L88.4597369,7.15752489 Z" id="Fill-16"></path>
                    <path d="M94.3760315,4.92769438 L98.3598064,4.92769438 L98.3598064,69.1922357 L94.3760315,69.1922357 L94.3760315,4.92769438 Z" id="Fill-17"></path>
                    <path d="M100.288232,12.5132474 L104.272007,12.5132474 L104.272007,69.1922357 L100.288232,69.1922357 L100.288232,12.5132474 Z" id="Fill-18"></path>
                    <path d="M106.204527,10.2834169 L110.188301,10.2834169 L110.188301,69.1922357 L106.204527,69.1922357 L106.204527,10.2834169 Z" id="Fill-19"></path>
                    <path d="M112.116727,14.2971119 L116.100502,14.2971119 L116.100502,69.1881063 L112.116727,69.1881063 L112.116727,14.2971119 Z" id="Fill-20"></path>
                    <path d="M118.033022,4.92769438 L122.016796,4.92769438 L122.016796,69.1922357 L118.033022,69.1922357 L118.033022,4.92769438 Z" id="Fill-21"></path>
                    <path d="M123.945222,17.4230039 L127.928997,17.4230039 L127.928997,69.1922357 L123.945222,69.1922357 L123.945222,17.4230039 Z" id="Fill-22"></path>
                    <path d="M129.861517,46.4314471 L133.845291,46.4314471 L133.845291,69.1922357 L129.861517,69.1922357 L129.861517,46.4314471 Z" id="Fill-23"></path>
                    <path d="M135.773717,29.9183134 L139.757492,29.9183134 L139.757492,69.1922357 L135.773717,69.1922357 L135.773717,29.9183134 Z" id="Fill-24"></path>
                    <path d="M141.690012,0.017937935 L145.673786,0.017937935 L145.673786,69.1922357 L141.690012,69.1922357 L141.690012,0.017937935 Z" id="Fill-25"></path>
                    <path d="M147.606306,22.7787264 L151.590081,22.7787264 L151.590081,69.1922357 L147.606306,69.1922357 L147.606306,22.7787264 Z" id="Fill-26"></path>
                    <path d="M153.518507,19.2068683 L157.502281,19.2068683 L157.502281,69.1922357 L153.518507,69.1922357 L153.518507,19.2068683 Z" id="Fill-27"></path>
                    <path d="M159.434801,45.985481 L163.418576,45.985481 L163.418576,69.1922357 L159.434801,69.1922357 L159.434801,45.985481 Z" id="Fill-28"></path>
                    <path d="M165.347002,26.3464553 L169.330776,26.3464553 L169.330776,69.1881063 L165.347002,69.1881063 L165.347002,26.3464553 Z" id="Fill-29"></path>
                    <path d="M171.259202,45.985481 L175.242977,45.985481 L175.242977,69.1922357 L171.259202,69.1922357 L171.259202,45.985481 Z" id="Fill-30"></path>
                </g>
                <g id="Oval-4-+-Oval-5-+-Oval-4-+-Oval-5" transform="translate(116.457831, 69.000000)">
                    <g id="Oval-4-+-Oval-5" transform="translate(57.923628, 0.000000)" fill="#448DC6">
                        <path d="M33.24868,29.9754939 C41.5261845,29.9754939 48.2364269,23.2652514 48.2364269,14.9877469 C48.2364269,6.71024246 41.5261845,0 33.24868,0 C24.9711755,0 18.2609331,6.71024246 18.2609331,14.9877469 C18.2609331,23.2652514 24.9711755,29.9754939 33.24868,29.9754939 Z" id="Oval-4"></path>
                        <path d="M66.3950762,69.7705461 C66.3950762,47.7923445 51.532033,29.9754939 33.1975381,29.9754939 C14.8630432,29.9754939 0,47.7923445 0,69.7705461" id="Oval-5"></path>
                    </g>
                    <g id="Oval-4-+-Oval-5" transform="translate(0.007965, 0.000000)" fill="#448EC6">
                        <path d="M33.24868,29.9754939 C41.5261845,29.9754939 48.2364269,23.2652514 48.2364269,14.9877469 C48.2364269,6.71024246 41.5261845,0 33.24868,0 C24.9711755,0 18.2609331,6.71024246 18.2609331,14.9877469 C18.2609331,23.2652514 24.9711755,29.9754939 33.24868,29.9754939 Z" id="Oval-4"></path>
                        <path d="M66.3950762,69.7705461 C66.3950762,47.7923445 51.532033,29.9754939 33.1975381,29.9754939 C14.8630432,29.9754939 0,47.7923445 0,69.7705461" id="Oval-5"></path>
                    </g>
                </g>
                <g id="Oval-4-+-Oval-5" transform="translate(139.009445, 56.000000)" fill="#62A1D1">
                    <path d="M39.4234348,35.5423713 C49.2381902,35.5423713 57.1946205,27.585941 57.1946205,17.7711857 C57.1946205,7.95643035 49.2381902,0 39.4234348,0 C29.6086795,0 21.6522492,7.95643035 21.6522492,17.7711857 C21.6522492,27.585941 29.6086795,35.5423713 39.4234348,35.5423713 Z" id="Oval-4"></path>
                    <path d="M78.7255904,82.7279332 C78.7255904,56.6680657 61.1022677,35.5423713 39.3627952,35.5423713 C17.6233226,35.5423713 0,56.6680657 0,82.7279332" id="Oval-5"></path>
                </g>
                <path d="M193.157974,91.8573458 L168.5,79.5 L168.5,104.432657 L193.157974,91.8573458 Z" id="Path-29" fill="#FFFFFF"></path>
                <circle id="Oval-12" stroke="#FFFFFF" stroke-width="2" cx="178" cy="92" r="24"></circle>
            </g>
        </g>
    </g>
</svg>