<?xml version="1.0" encoding="UTF-8" standalone="no"?>
<svg width="400px" height="250px" viewBox="0 0 400 250" version="1.1" xmlns="http://www.w3.org/2000/svg" xmlns:xlink="http://www.w3.org/1999/xlink" xmlns:sketch="http://www.bohemiancoding.com/sketch/ns">
    <title>Untitled 2</title>
    <description>Created with Sketch (http://www.bohemiancoding.com/sketch)</description>
    <defs></defs>
    <g id="Page-1" stroke="none" stroke-width="1" fill="none" fill-rule="evenodd" sketch:type="MSPage">
        <g id="Group" sketch:type="MSLayerGroup" transform="translate(1.000000, 0.000000)">
            <rect id="Rectangle-1" fill="#5B5B5B" sketch:type="MSShapeGroup" x="0" y="0" width="400" height="250"></rect>
            <g transform="translate(20.000000, 20.000000)" sketch:type="MSShapeGroup">
                <rect id="Rectangle-1" fill="#FFFFFF" x="0" y="17.4496855" width="18.1626468" height="10.6949686"></rect>
                <rect id="Rectangle-1" fill="#FFFFFF" x="20.2641509" y="17.4496855" width="11.4079298" height="10.6949686"></rect>
                <rect id="Rectangle-1" fill="#FFFFFF" x="33.7735849" y="17.4496855" width="11.4079298" height="10.6949686"></rect>
                <rect id="Rectangle-1" stroke="#E4E4E4" fill="#FFFFFF" x="110.327044" y="5.62893082" width="247.672956" height="22.5157233" rx="3"></rect>
                <rect id="Rectangle-1" fill="#F26522" x="323.100629" y="6.75471698" width="33.7735849" height="20.2641509" rx="3"></rect>
                <g id="Oval-1-+-Line" transform="translate(333.232704, 10.132075)" stroke="#FFFFFF" stroke-width="2">
                    <path d="M4.50314465,9.00628931 C6.9901629,9.00628931 9.00628931,6.9901629 9.00628931,4.50314465 C9.00628931,2.01612641 6.9901629,0 4.50314465,0 C2.01612641,0 0,2.01612641 0,4.50314465 C0,6.9901629 2.01612641,9.00628931 4.50314465,9.00628931 Z" id="Oval-1"></path>
                    <path d="M8.44339623,8.44339623 L13.5406101,13.5406101" id="Line" stroke-linecap="round"></path>
                </g>
                <rect id="Rectangle-4" fill="#75BAEF" x="0" y="39.4025157" width="358" height="160.597484"></rect>
                <path d="M59.1950439,0.124091856 C59.1950439,0.124091856 54.9246516,-0.0145601263 52.8247029,6.4258501 C50.9676599,12.9649939 53.834547,20.189116 53.834547,20.189116 C53.834547,20.189116 54.8760283,22.5285747 56.674468,22.528574 C58.4729076,22.5285733 60.5834733,18.6703156 60.5834733,18.6703156 C60.5834733,18.6703156 63.3722224,13.4410389 63.9525221,8.90969281 C64.5328218,4.37834677 62.942041,0.331326468 59.1950439,0.124091856 Z M44.2205029,7.27708325 C44.2205029,7.27708325 42.043266,8.46719573 45.306149,14.4659585 C48.5690325,20.4647211 51.2029929,21.9406307 51.2029929,21.9406307 C51.2029929,21.9406307 52.3336536,22.5960951 52.3336531,20.7396891 C52.3336526,18.8832832 49.6147604,12.6847176 49.6147604,12.6847176 C49.6147604,12.6847176 46.3911581,6.38253467 44.2205029,7.27708325 Z M52.9599999,22.6881192 C52.9599999,22.6881192 52.5490831,23.2718418 51.9089919,23.4048763 C51.1964106,23.5529769 50.0971754,23.1518703 49.0100431,21.7894514 C48.9777688,24.405576 50.5989126,27.1863984 51.7038807,28.2365853 C52.8088488,29.2867721 54.0140372,28.7325894 54.014037,26.9129166 C54.0140368,25.0932439 52.9599999,22.6881192 52.9599999,22.6881192 Z M61.3153767,19.7724103 C61.3153767,19.7724103 59.467464,22.992764 57.5768728,23.6658518 C55.6862816,24.3389396 54.5736696,23.0569939 54.4299218,22.9053899 C56.2001923,29.4289142 61.1822455,33.0822866 64.6302812,30.2201772 C67.1642339,28.0312615 64.4954513,23.4377026 64.2130517,23.0644255 C63.3892091,21.5725911 61.3153767,19.7724103 61.3153767,19.7724103 Z" id="MSN" fill="#FFFFFF"></path>
            </g>
            <path d="M214.913592,220 L229.874228,220 L236.436309,168.544798 L294.335429,138.702203 L235.430103,110.898357 L227.124635,60 L212.337095,60 L180.294144,94.0415879 L115.911707,84.1525482 L147.224457,141.269985 L117.924156,199.44543 L181.922233,187.315489 L214.913592,220 Z" id="Rectangle-1" fill="#FFFFFF" sketch:type="MSShapeGroup"></path>
            <g transform="translate(10.000000, 61.000000)" stroke="#5B5B5B" stroke-width="3" stroke-linecap="square" sketch:type="MSShapeGroup">
                <path d="M0.5,107.5 L376.511963,107.5" id="Line"></path>
                <path d="M0.5,51.5 L376.511963,51.5" id="Path"></path>
                <path d="M130,0 L130,163.5" id="Path"></path>
                <path d="M250,0 L250,163.5" id="Path"></path>
            </g>
        </g>
    </g>
</svg>