<?xml version="1.0" encoding="UTF-8" standalone="no"?>
<svg width="400px" height="250px" viewBox="0 0 400 250" version="1.1" xmlns="http://www.w3.org/2000/svg" xmlns:xlink="http://www.w3.org/1999/xlink" xmlns:sketch="http://www.bohemiancoding.com/sketch/ns">
    <title>Slice 1</title>
    <description>Created with Sketch (http://www.bohemiancoding.com/sketch)</description>
    <defs></defs>
    <g id="Page-1" stroke="none" stroke-width="1" fill="none" fill-rule="evenodd" sketch:type="MSPage">
        <g id="Group" sketch:type="MSLayerGroup">
            <rect id="Rectangle-1" fill="#F9F9F9" sketch:type="MSShapeGroup" x="0" y="0" width="400" height="250"></rect>
            <rect id="Rectangle-107" fill="#2C7AB5" sketch:type="MSShapeGroup" x="20" y="21.6897507" width="300" height="18.3102493"></rect>
            <rect id="Rectangle-108" fill="#D4D4D4" sketch:type="MSShapeGroup" x="20" y="50" width="60" height="181.015625"></rect>
            <rect id="Rectangle-108" fill="#D4D4D4" sketch:type="MSShapeGroup" x="260" y="50" width="60" height="150"></rect>
            <rect id="Rectangle-108" fill="#D4D4D4" sketch:type="MSShapeGroup" x="90" y="50" width="160" height="181.015625"></rect>
            <path d="M271,230 C326.228478,230 371,185.228478 371,130 C371,74.7715223 326.228478,30 271,30 C215.771522,30 171,74.7715223 171,130 C171,185.228478 215.771522,230 271,230 Z" id="Oval-20" stroke="#75BAEF" stroke-width="5" fill="#FFFFFF" sketch:type="MSShapeGroup"></path>
            <rect id="Rectangle-111" fill="#2C7AB5" sketch:type="MSShapeGroup" x="220.037109" y="60" width="100.060511" height="20.0195312"></rect>
            <rect id="Rectangle-111" fill="#2C7AB5" sketch:type="MSShapeGroup" x="220.037109" y="175.112305" width="80.078125" height="10.0097656"></rect>
            <rect id="Rectangle-111" fill="#2C7AB5" sketch:type="MSShapeGroup" x="220.037109" y="190.126953" width="59.8664075" height="10.0097656"></rect>
            <rect id="Rectangle-111" fill="#2C7AB5" sketch:type="MSShapeGroup" x="220.037109" y="90.0292969" width="100.060511" height="80.078125"></rect>
        </g>
    </g>
</svg>