<?xml version="1.0" encoding="UTF-8" standalone="no"?>
<svg width="400px" height="250px" viewBox="0 0 400 250" version="1.1" xmlns="http://www.w3.org/2000/svg" xmlns:xlink="http://www.w3.org/1999/xlink" xmlns:sketch="http://www.bohemiancoding.com/sketch/ns">
    <title>Slice 1</title>
    <description>Created with Sketch (http://www.bohemiancoding.com/sketch)</description>
    <defs></defs>
    <g id="Page-1" stroke="none" stroke-width="1" fill="none" fill-rule="evenodd" sketch:type="MSPage">
        <g id="Group" sketch:type="MSLayerGroup" transform="translate(-1.000000, 0.000000)">
            <rect id="Rectangle-1" fill="#F9F9F9" sketch:type="MSShapeGroup" x="0" y="0" width="400" height="250"></rect>
            <rect id="Rectangle-107" fill="#2C7AB5" sketch:type="MSShapeGroup" x="20" y="21.6897507" width="300" height="18.3102493"></rect>
            <rect id="Rectangle-108" fill="#D4D4D4" sketch:type="MSShapeGroup" x="20" y="50" width="60" height="181.015625"></rect>
            <rect id="Rectangle-108" fill="#D4D4D4" sketch:type="MSShapeGroup" x="260" y="50" width="60" height="150"></rect>
            <rect id="Rectangle-108" fill="#D4D4D4" sketch:type="MSShapeGroup" x="90" y="50" width="160" height="181.015625"></rect>
            <path d="M270,233 C330.751325,233 380,183.751325 380,123 C380,62.2486745 330.751325,13 270,13 C209.248675,13 160,62.2486745 160,123 C160,183.751325 209.248675,233 270,233 Z" id="Oval-20" stroke="#75BAEF" stroke-width="5" fill="#FFFFFF" sketch:type="MSShapeGroup"></path>
            <rect id="Rectangle-111" fill="#2C7AB5" sketch:type="MSShapeGroup" x="240.037109" y="30.8448753" width="60" height="80"></rect>
            <g transform="translate(240.000000, 122.000000)" id="Rectangle-111" fill="#2C7AB5" sketch:type="MSShapeGroup">
                <rect x="0.037109375" y="0" width="60" height="12.097458"></rect>
                <rect x="0.037109375" y="69.5603837" width="48.3898322" height="6.04872902"></rect>
                <rect x="0.037109375" y="82.6334773" width="60" height="12"></rect>
                <rect x="0.037109375" y="18.1461871" width="60" height="48.3898322"></rect>
            </g>
            <path d="M281.193289,111 L285.256225,111 L287.609199,92.5496414 L300,86.1631252 L300,78.9110672 L287.266229,72.9006123 L283.690591,50.9880467 L268.472908,67.1549123 L246.527887,63.7841921 L257.200968,83.252908 L247.213839,103.08225 L269.027849,98.9477095 L281.193289,111 Z" id="Rectangle-1" fill="#FFFFFF" sketch:type="MSShapeGroup"></path>
            <path d="M242.761719,206.802734 L244.290039,206.802734 L244.290039,211.226562 C244.290039,211.721357 244.348632,212.082681 244.46582,212.310547 C244.648113,212.714195 245.045244,212.916016 245.657227,212.916016 C246.265954,212.916016 246.661457,212.714195 246.84375,212.310547 C246.960938,212.082681 247.019531,211.721357 247.019531,211.226562 L247.019531,206.802734 L248.547852,206.802734 L248.547852,211.226562 C248.547852,211.99154 248.429038,212.587237 248.191406,213.013672 C247.748696,213.794926 246.903978,214.185547 245.657227,214.185547 C244.410476,214.185547 243.56413,213.794926 243.118164,213.013672 C242.880533,212.587237 242.761719,211.99154 242.761719,211.226562 L242.761719,206.802734 Z M251.487305,208.052734 L251.487305,209.986328 L253.191406,209.986328 C253.52995,209.986328 253.783853,209.947266 253.953125,209.869141 C254.252606,209.732421 254.402344,209.462242 254.402344,209.058594 C254.402344,208.622394 254.257488,208.329428 253.967773,208.179688 C253.805012,208.095052 253.560874,208.052734 253.235352,208.052734 L251.487305,208.052734 Z M254.712402,206.988281 C254.984214,207.102214 255.214517,207.269856 255.40332,207.491211 C255.559571,207.673504 255.683268,207.875324 255.774414,208.09668 C255.86556,208.318035 255.911133,208.570311 255.911133,208.853516 C255.911133,209.195314 255.824871,209.531411 255.652344,209.861816 C255.479817,210.192222 255.194989,210.425781 254.797852,210.5625 C255.129884,210.695964 255.365071,210.885578 255.503418,211.131348 C255.641765,211.377117 255.710938,211.752276 255.710938,212.256836 L255.710938,212.740234 C255.710938,213.069012 255.723958,213.291992 255.75,213.40918 C255.789063,213.594727 255.880208,213.731445 256.023438,213.819336 L256.023438,214 L254.368164,214 C254.322591,213.840494 254.290039,213.711915 254.270508,213.614258 C254.231445,213.412434 254.210286,213.20573 254.207031,212.994141 L254.197266,212.325195 C254.190755,211.866209 254.106934,211.560222 253.945801,211.407227 C253.784667,211.254231 253.48275,211.177734 253.040039,211.177734 L251.487305,211.177734 L251.487305,214 L250.017578,214 L250.017578,206.802734 L253.547852,206.802734 C254.052411,206.8125 254.440591,206.874348 254.712402,206.988281 L254.712402,206.988281 Z M257.205078,206.802734 L258.708984,206.802734 L258.708984,212.706055 L262.273438,212.706055 L262.273438,214 L257.205078,214 L257.205078,206.802734 Z" id="URL" fill="#FFFFFF" sketch:type="MSShapeGroup"></path>
        </g>
    </g>
</svg>