<?xml version="1.0" encoding="UTF-8" standalone="no"?>
<svg width="400px" height="250px" viewBox="0 0 400 250" version="1.1" xmlns="http://www.w3.org/2000/svg" xmlns:xlink="http://www.w3.org/1999/xlink" xmlns:sketch="http://www.bohemiancoding.com/sketch/ns">
    <title>Untitled</title>
    <description>Created with Sketch (http://www.bohemiancoding.com/sketch)</description>
    <defs></defs>
    <g id="Page-1" stroke="none" stroke-width="1" fill="none" fill-rule="evenodd" sketch:type="MSPage">
        <g id="Rectangle-1-+-Group-+-Group" sketch:type="MSLayerGroup">
            <rect id="Rectangle-1" fill="#F9F9F9" sketch:type="MSShapeGroup" x="0" y="0" width="400" height="250"></rect>
            <g id="Group" transform="translate(77.000000, 19.000000)" sketch:type="MSShapeGroup">
                <g id="Imported-Layers" transform="translate(0.000000, 0.406327)" fill="#737373">
                    <path d="M89.9110688,-0.087630459 L15.8595246,-0.087630459 C6.89291872,-0.087630459 -0.376244616,7.18642464 -0.376244616,16.1481388 L-0.376244616,193.313205 C-0.376244616,202.274919 6.89291872,209.548974 15.8595246,209.548974 L89.9110688,209.548974 C98.8727829,209.548974 106.141946,202.274919 106.141946,193.313205 L106.141946,16.1481388 C106.141946,7.18642464 98.8727829,-0.087630459 89.9110688,-0.087630459 L89.9110688,-0.087630459 Z M38.9193066,12.4401806 L66.8366115,12.4401806 C67.619294,12.4401806 68.2601153,13.0858937 68.2601153,13.8685761 C68.2601153,14.6561504 67.619294,15.2969716 66.8366115,15.2969716 L38.9193066,15.2969716 C38.1366241,15.2969716 37.5006946,14.6561504 37.5006946,13.8685761 C37.5006946,13.0858937 38.1366241,12.4401806 38.9193066,12.4401806 L38.9193066,12.4401806 Z M50.6062699,200.180663 C46.6828962,200.180663 43.4833237,196.981923 43.4833237,193.048438 C43.4833237,189.107531 46.6828962,185.919924 50.6062699,185.919924 C54.5556263,185.919924 57.7440634,189.107531 57.7440634,193.048438 C57.7440634,196.981923 54.5556263,200.180663 50.6062699,200.180663 L50.6062699,200.180663 Z M6.74127399,24.868664 L99.0244277,24.868664 L99.0244277,178.171616 L6.74127399,178.171616 L6.74127399,24.868664 Z" id="Fill-2"></path>
                </g>
                <rect id="Rectangle-5" fill="#D4D4D4" x="7" y="25" width="91.97125" height="15"></rect>
                <rect id="Rectangle-4" fill="#D4D4D4" x="13" y="70" width="20" height="20"></rect>
                <rect id="Rectangle-5" fill="#D4D4D4" x="43" y="73" width="49.984375" height="15"></rect>
                <rect id="Rectangle-4" fill="#D4D4D4" x="13" y="100" width="20" height="20"></rect>
                <rect id="Rectangle-5" fill="#D4D4D4" x="43" y="103" width="49.984375" height="15"></rect>
                <rect id="Rectangle-4" fill="#D4D4D4" x="13" y="130" width="20" height="20"></rect>
                <rect id="Rectangle-5" fill="#D4D4D4" x="43" y="133" width="49.984375" height="15"></rect>
                <rect id="Rectangle-4" fill="#75BAEF" x="7" y="39.9990234" width="91.9126461" height="20.9497949"></rect>
                <path d="M82.0893014,61.1225719 L83.373711,61.1225719 L83.1425263,53.4784791 L90.0704258,48.3954481 L81.8218311,45.9884318 L79.8450907,40 L77.6491582,40 L74.2902555,44.9299359 L65.6977336,44.9700834 L70.9561817,51.7657984 L68.339129,59.9501771 L76.427187,57.0490868 L82.0893014,61.1225719 Z" id="Rectangle-1" fill="#FFFFFF"></path>
            </g>
            <g id="Group" transform="translate(216.000000, 17.000000)" sketch:type="MSShapeGroup">
                <g id="Imported-Layers" transform="translate(0.362342, 0.000000)">
                    <path d="M108.036332,16.0349105 C108.036332,11.5248112 103.551498,5.55719692 99.1531266,3.63648863 C97.2329798,2.69045137 97.450821,2.86225398 93.8188239,2.0925109 C84.2405476,0.0640048948 67.7497426,-0.223455685 51.0478337,-0.223455685 C36.03251,-0.223455685 21.2063937,0.0640048948 12.5954896,2.0925109 C9.33011703,2.86225398 9.52662329,2.69045137 7.80017547,3.63648863 C3.84590815,5.55719692 -0.185838773,11.5248112 -0.185838773,16.0349105 C-0.185838773,16.5514412 -0.147098969,17.0584274 -0.0786025024,17.5564304 L-0.185838773,17.5564304 L-0.185838773,197.581987 C-0.185838773,202.092087 4.29843399,208.059701 8.69680544,209.980409 C10.6169523,210.926446 10.3991111,210.754644 14.0305467,211.523825 C23.6093845,213.552893 40.1001895,213.840354 56.8020983,213.840354 C71.8174221,213.840354 86.6429769,213.552893 95.2544425,211.523825 C98.519815,210.754644 98.3238702,210.926446 100.049757,209.980409 C104.004024,208.059701 108.036332,202.092087 108.036332,197.581987 L108.036332,17.5564304 L107.916183,17.5564304 C107.992539,17.0584274 108.036332,16.5514412 108.036332,16.0349105" id="Fill-1" fill="#737373"></path>
                    <path d="M7.61377525,26.5367662 L101.000285,26.5367662 L101.000285,193.285238 L7.61377525,193.285238 L7.61377525,26.5367662 Z" id="Fill-2" fill="#F8F8F8"></path>
                    <path d="M68.9433777,10.4445882 C68.9433777,11.4136448 68.1579142,12.1985469 67.1888576,12.1985469 L40.660513,12.1985469 C39.6914565,12.1985469 38.9059929,11.4136448 38.9059929,10.4445882 C38.9059929,9.47609311 39.6914565,8.68950664 40.660513,8.68950664 L67.1888576,8.68950664 C68.1579142,8.68950664 68.9433777,9.47609311 68.9433777,10.4445882" id="Fill-3" fill="#FFFFFF"></path>
                    <path d="M84.9833412,11.1817674 C84.9833412,9.80566217 86.0994968,8.68950664 87.4750406,8.68950664 C88.8505843,8.68950664 89.9661784,9.80566217 89.9661784,11.1817674 C89.9661784,12.5573112 88.8505843,13.6723438 87.4750406,13.6723438 C86.0994968,13.6723438 84.9833412,12.5573112 84.9833412,11.1817674" id="Fill-4" fill="#FFFFFF"></path>
                </g>
                <rect id="Rectangle-5" fill="#D4D4D4" x="8" y="178" width="93.4707813" height="15"></rect>
                <rect id="Rectangle-4" fill="#D4D4D4" x="14" y="62" width="20" height="20"></rect>
                <rect id="Rectangle-5" fill="#D4D4D4" x="44" y="65" width="49.984375" height="15"></rect>
                <rect id="Rectangle-4" fill="#D4D4D4" x="14" y="32" width="20" height="20"></rect>
                <rect id="Rectangle-5" fill="#D4D4D4" x="44" y="35" width="49.984375" height="15"></rect>
                <rect id="Rectangle-4" fill="#D4D4D4" x="14" y="92" width="20" height="20"></rect>
                <rect id="Rectangle-5" fill="#D4D4D4" x="44" y="95" width="49.984375" height="15"></rect>
                <rect id="Rectangle-4" fill="#D4D4D4" x="14" y="122" width="20" height="20"></rect>
                <rect id="Rectangle-5" fill="#D4D4D4" x="44" y="125" width="49.984375" height="15"></rect>
                <rect id="Rectangle-4" fill="#75BAEF" x="11" y="151.999023" width="87.9164441" height="20.9497949"></rect>
                <path d="M82.0893014,173.122572 L83.373711,173.122572 L83.1425263,165.478479 L90.0704258,160.395448 L81.8218311,157.988432 L79.8450907,152 L77.6491582,152 L74.2902555,156.929936 L65.6977336,156.970083 L70.9561817,163.765798 L68.339129,171.950177 L76.427187,169.049087 L82.0893014,173.122572 Z" id="Rectangle-1" fill="#FFFFFF"></path>
            </g>
        </g>
    </g>
</svg>