<?xml version="1.0" encoding="UTF-8" standalone="no"?>
<svg width="581px" height="560px" viewBox="0 0 581 560" version="1.1" xmlns="http://www.w3.org/2000/svg" xmlns:xlink="http://www.w3.org/1999/xlink" xmlns:sketch="http://www.bohemiancoding.com/sketch/ns">
    <!-- Generator: Sketch 3.0.1 (7597) - http://www.bohemiancoding.com/sketch -->
    <title>core-competence</title>
    <description>Created with Sketch.</description>
    <defs>
        <linearGradient x1="50%" y1="0%" x2="50%" y2="100%" id="linearGradient-1">
            <stop stop-color="#E98616" offset="0%"></stop>
            <stop stop-color="#F36F21" offset="100%"></stop>
        </linearGradient>
    </defs>
    <g id="Page-1" stroke="none" stroke-width="1" fill="none" fill-rule="evenodd" sketch:type="MSPage">
        <g id="core-competence" sketch:type="MSLayerGroup" transform="translate(-34.000000, -8.500000)">
            <g id="Page-1" sketch:type="MSShapeGroup">
                <g id="core-competence">
                    <g id="Page-1">
                        <g id="Group">
                            <g>
                                <path d="M230.003898,385.640984 C223.311144,387.397808 216.285657,388.333333 209.041667,388.333333 C201.797676,388.333333 194.77219,387.397808 188.079435,385.640984 L188.079435,385.640984 L176.409009,405.854755 C175.029439,408.244239 171.974142,409.06615 169.58649,407.687639 L140.705177,391.013005 C138.320581,389.636258 137.500921,386.578874 138.881241,384.188088 L150.562124,363.956206 C140.708285,354.013947 133.37209,341.572294 129.588958,327.666667 L111.123751,327.666667 C108.366453,327.666667 106.125,325.431658 106.125,322.674634 L106.125,289.325366 C106.125,286.571872 108.363017,284.333333 111.123751,284.333333 L129.588958,284.333333 C133.37209,270.427706 140.708285,257.986053 150.562124,248.043794 L138.881241,227.811912 C137.501672,225.422428 138.317524,222.365507 140.705177,220.986995 L169.58649,204.312361 C171.971085,202.935614 175.028688,203.75446 176.409009,206.145245 L188.079435,226.359016 C194.77219,224.602192 201.797676,223.666667 209.041667,223.666667 C216.285657,223.666667 223.311144,224.602192 230.003898,226.359016 L241.674325,206.145245 C243.053894,203.755761 246.109191,202.93385 248.496843,204.312361 L277.378157,220.986995 C279.762752,222.363742 280.582413,225.421126 279.202092,227.811912 L267.52121,248.043794 C277.375048,257.986053 284.711244,270.427706 288.494375,284.333333 L306.959583,284.333333 C309.71688,284.333333 311.958333,286.568342 311.958333,289.325366 L311.958333,322.674634 C311.958333,325.428128 309.720316,327.666667 306.959583,327.666667 L288.494375,327.666667 C284.711244,341.572294 277.375048,354.013947 267.52121,363.956206 L279.202092,384.188088 C280.581661,386.577572 279.765809,389.634493 277.378157,391.013005 L248.496843,407.687639 C246.112248,409.064386 243.054645,408.24554 241.674325,405.854755 L230.003898,385.640984 L230.003898,385.640984 Z" id="Oval-6" fill="url(#linearGradient-1)"></path>
                                <path d="M421.126636,509.972428 C413.105788,512.077872 404.686182,513.199041 396.004712,513.199041 C387.323243,513.199041 378.903637,512.077872 370.882789,509.972428 L370.882789,509.972428 L356.402233,535.053486 C355.01805,537.450961 351.961419,538.265312 349.568494,536.883756 L313.25936,515.920668 C310.859092,514.534873 310.046306,511.479727 311.427551,509.087341 L325.920637,483.984579 C314.111428,472.069403 305.319457,457.158859 300.78561,440.493835 L277.662744,440.493835 C274.911568,440.493835 272.665524,438.25389 272.665524,435.490779 L272.665524,393.564602 C272.665524,390.793011 274.902856,388.561546 277.662744,388.561546 L300.78561,388.561546 C305.319457,371.896521 314.111428,356.985978 325.920637,345.070802 L311.427551,319.96804 C310.043368,317.570564 310.866435,314.516268 313.25936,313.134713 L349.568494,292.171624 C351.968762,290.785829 355.020988,291.609509 356.402233,294.001895 L370.882789,319.082952 C378.903637,316.977509 387.323243,315.85634 396.004712,315.85634 C404.686182,315.85634 413.105788,316.977509 421.126636,319.082952 L435.607191,294.001895 C436.991374,291.604419 440.048006,290.790068 442.440931,292.171624 L478.750065,313.134713 C481.150333,314.520508 481.963118,317.575653 480.581873,319.96804 L466.088787,345.070802 C477.897996,356.985978 486.689968,371.896521 491.223814,388.561546 L514.34668,388.561546 C517.097857,388.561546 519.3439,390.80149 519.3439,393.564602 L519.3439,435.490779 C519.3439,438.26237 517.106569,440.493835 514.34668,440.493835 L491.223814,440.493835 C486.689968,457.158859 477.897996,472.069403 466.088787,483.984579 L480.581873,509.087341 C481.966057,511.484817 481.14299,514.539112 478.750065,515.920668 L442.440931,536.883756 C440.040662,538.269552 436.988436,537.445872 435.607191,535.053486 L421.126636,509.972428 L421.126636,509.972428 Z" id="Oval-6" fill="url(#linearGradient-1)" transform="translate(396.165524, 414.498492) rotate(30.000000) translate(-396.165524, -414.498492) "></path>
                                <path d="M323.770089,213.493408 C317.592162,215.115092 311.107097,215.978654 304.420337,215.978654 C297.733576,215.978654 291.248512,215.115092 285.070584,213.493408 L285.070584,213.493408 L274.487689,231.823521 C273.108276,234.212733 270.050117,235.027702 267.656109,233.645521 L241.684565,218.650843 C239.286508,217.266324 238.467704,214.211965 239.846673,211.823521 L250.43922,193.476691 C241.343369,184.299221 234.571496,172.814617 231.079375,159.978654 L214.429048,159.978654 C211.653042,159.978654 209.420337,157.737695 209.420337,154.973332 L209.420337,124.983976 C209.420337,122.214938 211.662813,119.978654 214.429048,119.978654 L231.079375,119.978654 C234.571496,107.142691 241.343369,95.6580877 250.43922,86.4806175 L239.846673,68.1337871 C238.46726,65.744575 239.290556,62.6886471 241.684565,61.3064656 L267.656109,46.3117877 C270.054166,44.9272688 273.10872,45.7453431 274.487689,48.1337871 L285.070584,66.4639 C291.248512,64.8422165 297.733576,63.9786543 304.420337,63.9786543 C311.107097,63.9786543 317.592162,64.8422165 323.770089,66.4639 L334.352985,48.1337871 C335.732397,45.744575 338.790556,44.9296061 341.184565,46.3117877 L367.156109,61.3064656 C369.554166,62.6909844 370.37297,65.7453431 368.994001,68.1337871 L358.401453,86.4806175 C367.497304,95.6580877 374.269177,107.142691 377.761299,119.978654 L394.411626,119.978654 C397.187632,119.978654 399.420337,122.219613 399.420337,124.983976 L399.420337,154.973332 C399.420337,157.74237 397.17786,159.978654 394.411626,159.978654 L377.761299,159.978654 C374.269177,172.814617 367.497304,184.299221 358.401453,193.476691 L368.994001,211.823521 C370.373413,214.212733 369.550117,217.268661 367.156109,218.650843 L341.184565,233.645521 C338.786508,235.030039 335.731954,234.211965 334.352985,231.823521 L323.770089,213.493408 L323.770089,213.493408 Z" id="Oval-6" fill="url(#linearGradient-1)" transform="translate(304.420337, 140.137981) rotate(30.000000) translate(-304.420337, -140.137981) "></path>
                                <g transform="translate(268.000000, 112.000000)" fill="#FFFFFF">
                                    <path d="M34.0917336,30.1962293 L20.4927675,43.7951953 C15.4632479,38.7656756 14.202728,37.0506304 14.202728,37.0506304 C13.1195946,35.7821001 13.1520277,33.739175 14.2422094,32.4944328 C14.2422094,32.4944328 31.0994897,13.1942478 35.9916254,8.302112 C40.8837611,3.4099763 41.9634288,2.0030149 48.8673154,0.61653547 C55.7712024,-0.76994447 62.4377514,1.85021147 62.4377514,1.85021147 L44.7678622,19.5201006 C43.3837241,17.9775118 41.374697,17.007099 39.1390177,17.007099 C34.963587,17.007099 31.578732,20.391954 31.578732,24.5673847 C31.578732,26.803064 32.5491448,28.8120911 34.0917336,30.1962293 Z M34.0917336,30.1962293 L20.4927675,43.7951953 C25.5222872,48.824715 27.2373324,50.0852349 27.2373324,50.0852349 C28.5058627,51.1683683 30.5487878,51.1359351 31.79353,50.0457535 C31.79353,50.0457535 51.093715,33.1884731 55.9858508,28.2963374 C60.8779866,23.4042017 62.2849479,22.324534 63.6714274,15.4206474 C65.0579073,8.5167604 62.4377514,1.85021147 62.4377514,1.85021147 L44.7678622,19.5201006 C45.9687875,20.8585031 46.6993034,22.6276333 46.6993034,24.5673847 C46.6993034,28.7428154 43.3144484,32.1276704 39.1390177,32.1276704 C37.1992663,32.1276704 35.4301361,31.3971546 34.0917336,30.1962293 Z" id="Path-3"></path>
                                    <path d="M1.5534964,25.2669451 C-0.666206051,25.9006123 -0.8386397,27.5182322 1.20057238,28.6036479 L8.7828159,32.6394648 C9.98909852,33.2815354 11.6673524,32.9888411 12.5731093,31.9805 L21.2667445,22.3022408 C22.8295857,20.5623953 22.0861191,19.405417 19.8237166,20.0512739 L1.5534964,25.2669451 L1.5534964,25.2669451 Z" id="Triangle-1"></path>
                                    <path d="M28.9434681,52.6092153 C26.7237656,53.2428824 26.551332,54.8605023 28.5905441,55.945918 L36.1727876,59.9817349 C37.3790702,60.6238055 39.0573241,60.3311113 39.963081,59.3227701 L48.6567162,49.6445109 C50.2195574,47.9046655 49.4760908,46.7476872 47.2136883,47.3935441 L28.9434681,52.6092153 L28.9434681,52.6092153 Z" id="Triangle-1" transform="translate(38.163842, 53.712274) scale(-1, 1) rotate(270.000000) translate(-38.163842, -53.712274) "></path>
                                    <path d="M7.89880404,43.2926579 L9.18908121,46.0062415 L10.6123876,43.122794 L11.8450276,48.5233287 L13.3259711,43.2926579 L14.5305213,48.5375061 L16.0395546,43.2926579 L17.3002845,46.0062415 L18.7531382,43.0745643 C18.7531382,43.0745643 20.1642544,46.0062415 20.1642546,48.719825 C20.1642546,51.4334085 17.4068138,54.8253879 17.4068138,54.8253879 L16.0395546,51.4334085 L13.3259711,59.5741591 L10.6123876,51.4334085 L9.13475654,55.8386093 C9.13475654,55.8386093 6.39122811,51.0942106 6.39122819,48.550226 C6.39122832,46.0062415 7.89880404,43.2926579 7.89880404,43.2926579 L7.89880404,43.2926579 L7.89880404,43.2926579 Z" id="Path-7" transform="translate(13.391228, 51.074564) rotate(45.000000) translate(-13.391228, -51.074564) "></path>
                                </g>
                                <g transform="translate(177.000000, 271.000000)" fill="#FFFFFF">
                                    <path d="M21.4123849,30.2694146 C21.1433556,29.1967029 20.1305211,28.7378833 19.141188,29.2492474 L2.67145357,37.7620849 C1.1960505,38.5246877 0.239534504,40.4707322 0.531992891,42.0919426 L5.0426283,67.0961455 C5.33643986,68.724857 6.92611077,70.0451886 8.57358963,70.0451886 L31.3878965,70.0451886 L21.4123849,30.2694146 L21.4123849,30.2694146 Z" id="Path-12"></path>
                                    <path d="M26.1565804,28.3270983 L36.6192125,28.3270983 L31.3878965,38.6278613 L26.1565804,28.3270983 L26.1565804,28.3270983 Z" id="Triangle-1"></path>
                                    <path d="M52.2293875,30.2694146 C51.9603583,29.1967029 50.9475238,28.7378833 49.9581907,29.2492474 L33.4884562,37.7620849 C32.0130531,38.5246877 31.0565372,40.4707322 31.3489955,42.0919426 L35.8596309,67.0961455 C36.1534425,68.724857 37.7431134,70.0451886 39.3905923,70.0451886 L62.2048991,70.0451886 L52.2293875,30.2694146 L52.2293875,30.2694146 Z" id="Path-12" transform="translate(46.796398, 49.540054) scale(-1, 1) translate(-46.796398, -49.540054) "></path>
                                    <path d="M21.7848834,36.7212529 L22.5247032,44.1085201 L40.7554434,55.3983162 L29.2882363,37.4496268 L21.7848834,36.7212529 L21.7848834,36.7212529 Z" id="Rectangle-1" transform="translate(31.284883, 46.221253) rotate(45.000000) translate(-31.284883, -46.221253) "></path>
                                    <path d="M41.8505286,12.86514 C41.8505286,5.75991902 37.1662489,0 31.3878965,0 C25.609544,0 20.9252643,5.75991902 20.9252643,12.86514 C20.9252643,19.970361 25.609544,25.73028 31.3878965,25.73028 C37.1662489,25.73028 41.8505286,19.970361 41.8505286,12.86514 L41.8505286,12.86514 L41.8505286,12.86514 Z" id="Oval-8"></path>
                                </g>
                                <g id="Rectangle-26-+-Rectangle-26" transform="translate(358.000000, 388.000000)">
                                    <rect id="Rectangle-26" stroke="#FFFFFF" stroke-width="4" x="8" y="0" width="58.0000961" height="43.5477695" rx="1"></rect>
                                    <path d="M48.1818409,47.7634846 L75.8035087,47.7634846 C75.8035087,51.687754 72.6153771,54.8802638 68.6826175,54.8802638 L6.86936192,54.8802638 C2.91963197,54.8802638 -0.251529204,51.6939732 -0.251529204,47.7634846 L27.2715181,47.7634846 C27.3232225,48.8234211 28.2010113,49.6669454 29.2745411,49.6669454 L46.1788143,49.6669454 C47.253164,49.6669454 48.1301975,48.8237286 48.1818409,47.7634846 L48.1818409,47.7634846 L48.1818409,47.7634846 Z" id="Rectangle-26" fill="#FFFFFF"></path>
                                    <rect id="Rectangle-4" fill="#FFFFFF" x="13" y="5" width="48" height="34"></rect>
                                </g>
                                <g id="Oval-6-+-Triangle-1" transform="translate(203.723567, 71.497294) rotate(-21.000000) translate(-203.723567, -71.497294) translate(146.223567, 16.997294)" fill="#F8931E">
                                    <path d="M79.5647336,47.436138 C78.1482704,48.2998351 77,47.6626208 77,46.0034676 L77,1.99653242 C77,0.341593263 78.1393666,-0.305264279 79.5647336,0.563861966 L113.72831,21.3953108 C116.087499,22.8338409 116.091117,25.1639532 113.72831,26.6046892 L79.5647336,47.436138 L79.5647336,47.436138 Z" id="Triangle-1"></path>
                                    <path d="M-0.317930688,99.1820693 C-0.317930688,104.704917 4.15922181,109.182069 9.68206931,109.182069 C15.2049168,109.182069 19.6820693,104.704917 19.6820693,99.1820693 C19.6820693,62.7312737 49.2312737,33.1820693 85.6820693,33.1820693 C91.2049168,33.1820693 95.6820693,28.7049168 95.6820693,23.1820693 C95.6820693,17.6592218 91.2049168,13.1820693 85.6820693,13.1820693 C38.1855787,13.1820693 -0.317930688,51.6855787 -0.317930688,99.1820693 L-0.317930688,99.1820693 L-0.317930688,99.1820693 Z" id="Oval-6"></path>
                                </g>
                                <g id="Oval-6-+-Triangle-1" transform="translate(541.204674, 350.230508) rotate(100.000000) translate(-541.204674, -350.230508) translate(483.704674, 295.730508)" fill="#F8931E">
                                    <path d="M79.5647336,47.436138 C78.1482704,48.2998351 77,47.6626208 77,46.0034676 L77,1.99653242 C77,0.341593263 78.1393666,-0.305264279 79.5647336,0.563861966 L113.72831,21.3953108 C116.087499,22.8338409 116.091117,25.1639532 113.72831,26.6046892 L79.5647336,47.436138 L79.5647336,47.436138 Z" id="Triangle-1"></path>
                                    <path d="M-0.317930688,99.1820693 C-0.317930688,104.704917 4.15922181,109.182069 9.68206931,109.182069 C15.2049168,109.182069 19.6820693,104.704917 19.6820693,99.1820693 C19.6820693,62.7312737 49.2312737,33.1820693 85.6820693,33.1820693 C91.2049168,33.1820693 95.6820693,28.7049168 95.6820693,23.1820693 C95.6820693,17.6592218 91.2049168,13.1820693 85.6820693,13.1820693 C38.1855787,13.1820693 -0.317930688,51.6855787 -0.317930688,99.1820693 L-0.317930688,99.1820693 L-0.317930688,99.1820693 Z" id="Oval-6"></path>
                                </g>
                                <g id="Oval-6-+-Triangle-1" transform="translate(79.366375, 319.323906) scale(1, -1) rotate(-45.000000) translate(-79.366375, -319.323906) translate(21.866375, 264.823906)" fill="#F8931E">
                                    <path d="M79.5647336,47.436138 C78.1482704,48.2998351 77,47.6626208 77,46.0034676 L77,1.99653242 C77,0.341593263 78.1393666,-0.305264279 79.5647336,0.563861966 L113.72831,21.3953108 C116.087499,22.8338409 116.091117,25.1639532 113.72831,26.6046892 L79.5647336,47.436138 L79.5647336,47.436138 Z" id="Triangle-1"></path>
                                    <path d="M-0.317930688,99.1820693 C-0.317930688,104.704917 4.15922181,109.182069 9.68206931,109.182069 C15.2049168,109.182069 19.6820693,104.704917 19.6820693,99.1820693 C19.6820693,62.7312737 49.2312737,33.1820693 85.6820693,33.1820693 C91.2049168,33.1820693 95.6820693,28.7049168 95.6820693,23.1820693 C95.6820693,17.6592218 91.2049168,13.1820693 85.6820693,13.1820693 C38.1855787,13.1820693 -0.317930688,51.6855787 -0.317930688,99.1820693 L-0.317930688,99.1820693 L-0.317930688,99.1820693 Z" id="Oval-6"></path>
                                </g>
                            </g>
                            <path d="M344.811582,42.4570308 L344.811582,77.6782801 L380.847664,77.6782801" id="Path-14" stroke="#F26522" stroke-width="2" transform="translate(362.811582, 59.957031) scale(1, -1) translate(-362.811582, -59.957031) "></path>
                            <circle id="Oval-5" stroke="#F26522" stroke-width="2" fill="#FFFFFF" cx="345" cy="74" r="8"></circle>
                            <path d="M208.811582,391.542969 L208.811582,460.764218 L193.847664,460.764218" id="Path-14" stroke="#F26522" stroke-width="2"></path>
                            <circle id="Oval-5" stroke="#F26522" stroke-width="2" fill="#FFFFFF" cx="209" cy="388" r="8"></circle>
                            <path d="M463.116254,503.542969 L463.116254,552.764218 L447.152336,552.764218" id="Path-14" stroke="#F26522" stroke-width="2" transform="translate(455.152336, 528.042969) scale(-1, 1) translate(-455.152336, -528.042969) "></path>
                            <circle id="Oval-5" stroke="#F26522" stroke-width="2" fill="#FFFFFF" cx="447" cy="500" r="8"></circle>
                            <path d="M380.728,31.528 L384.904,31.528 L384.904,33.112 L382.744,33.112 L382.744,51.256 L384.904,51.256 L384.904,52.84 L380.728,52.84 L380.728,31.528 L380.728,31.528 Z M395.032,45.448 C395.448002,46.0720031 395.979997,46.5319985 396.628,46.828 C397.276003,47.1240015 397.943997,47.272 398.632,47.272 C399.016002,47.272 399.407998,47.2120006 399.808,47.092 C400.208002,46.9719994 400.571998,46.7920012 400.9,46.552 C401.228002,46.3119988 401.495999,46.0160018 401.704,45.664 C401.912001,45.3119982 402.016,44.9040023 402.016,44.44 C402.016,43.7839967 401.808002,43.2840017 401.392,42.94 C400.975998,42.5959983 400.460003,42.3080012 399.844,42.076 C399.227997,41.8439988 398.556004,41.6200011 397.828,41.404 C397.099996,41.1879989 396.428003,40.8880019 395.812,40.504 C395.195997,40.1199981 394.680002,39.6040032 394.264,38.956 C393.847998,38.3079968 393.64,37.4320055 393.64,36.328 C393.64,35.8319975 393.747999,35.3040028 393.964,34.744 C394.180001,34.1839972 394.519998,33.6720023 394.984,33.208 C395.448002,32.7439977 396.043996,32.3560016 396.772,32.044 C397.500004,31.7319984 398.375995,31.576 399.4,31.576 C400.328005,31.576 401.215996,31.7039987 402.064,31.96 C402.912004,32.2160013 403.655997,32.7359961 404.296,33.52 L402.424,35.224 C402.135999,34.7759978 401.728003,34.4160014 401.2,34.144 C400.671997,33.8719986 400.072003,33.736 399.4,33.736 C398.759997,33.736 398.228002,33.8199992 397.804,33.988 C397.379998,34.1560008 397.040001,34.3719987 396.784,34.636 C396.527999,34.9000013 396.348001,35.1839985 396.244,35.488 C396.139999,35.7920015 396.088,36.0719987 396.088,36.328 C396.088,37.0480036 396.295998,37.5999981 396.712,37.984 C397.128002,38.3680019 397.643997,38.6799988 398.26,38.92 C398.876003,39.1600012 399.547996,39.375999 400.276,39.568 C401.004004,39.760001 401.675997,40.0279983 402.292,40.372 C402.908003,40.7160017 403.423998,41.1799971 403.84,41.764 C404.256002,42.3480029 404.464,43.1519949 404.464,44.176 C404.464,44.9920041 404.308002,45.7279967 403.996,46.384 C403.683998,47.0400033 403.264003,47.5919978 402.736,48.04 C402.207997,48.4880022 401.584004,48.8319988 400.864,49.072 C400.143996,49.3120012 399.376004,49.432 398.56,49.432 C397.471995,49.432 396.440005,49.2400019 395.464,48.856 C394.487995,48.4719981 393.712003,47.880004 393.136,47.08 L395.032,45.448 L395.032,45.448 Z M407.32,37.624 L409.48,37.624 L409.48,39.256 L409.528,39.256 C409.944002,38.647997 410.515996,38.1760017 411.244,37.84 C411.972004,37.5039983 412.719996,37.336 413.488,37.336 C414.368004,37.336 415.163996,37.4879985 415.876,37.792 C416.588004,38.0960015 417.195997,38.5199973 417.7,39.064 C418.204003,39.6080027 418.591999,40.2439964 418.864,40.972 C419.136001,41.7000036 419.272,42.4799958 419.272,43.312 C419.272,44.1600042 419.136001,44.9479964 418.864,45.676 C418.591999,46.4040036 418.204003,47.0359973 417.7,47.572 C417.195997,48.1080027 416.588004,48.5279985 415.876,48.832 C415.163996,49.1360015 414.368004,49.288 413.488,49.288 C412.671996,49.288 411.904004,49.1160017 411.184,48.772 C410.463996,48.4279983 409.912002,47.960003 409.528,47.368 L409.48,47.368 L409.48,55.768 L407.32,55.768 L407.32,37.624 L407.32,37.624 Z M413.224,39.352 C412.647997,39.352 412.128002,39.451999 411.664,39.652 C411.199998,39.852001 410.808002,40.1239983 410.488,40.468 C410.167998,40.8120017 409.920001,41.2279976 409.744,41.716 C409.567999,42.2040024 409.48,42.7359971 409.48,43.312 C409.48,43.8880029 409.567999,44.4199976 409.744,44.908 C409.920001,45.3960024 410.167998,45.8119983 410.488,46.156 C410.808002,46.5000017 411.199998,46.771999 411.664,46.972 C412.128002,47.172001 412.647997,47.272 413.224,47.272 C413.800003,47.272 414.319998,47.172001 414.784,46.972 C415.248002,46.771999 415.639998,46.5000017 415.96,46.156 C416.280002,45.8119983 416.527999,45.3960024 416.704,44.908 C416.880001,44.4199976 416.968,43.8880029 416.968,43.312 C416.968,42.7359971 416.880001,42.2040024 416.704,41.716 C416.527999,41.2279976 416.280002,40.8120017 415.96,40.468 C415.639998,40.1239983 415.248002,39.852001 414.784,39.652 C414.319998,39.451999 413.800003,39.352 413.224,39.352 L413.224,39.352 L413.224,39.352 Z M423.616,44.104 C423.616,44.6000025 423.723999,45.051998 423.94,45.46 C424.156001,45.868002 424.439998,46.2159986 424.792,46.504 C425.144002,46.7920014 425.551998,47.0159992 426.016,47.176 C426.480002,47.3360008 426.959998,47.416 427.456,47.416 C428.128003,47.416 428.711998,47.2600016 429.208,46.948 C429.704002,46.6359984 430.159998,46.2240026 430.576,45.712 L432.208,46.96 C431.007994,48.5120078 429.328011,49.288 427.168,49.288 C426.271996,49.288 425.460004,49.1360015 424.732,48.832 C424.003996,48.5279985 423.388003,48.1080027 422.884,47.572 C422.379997,47.0359973 421.992001,46.4040036 421.72,45.676 C421.447999,44.9479964 421.312,44.1600042 421.312,43.312 C421.312,42.4639958 421.459999,41.6760036 421.756,40.948 C422.052001,40.2199964 422.459997,39.5880027 422.98,39.052 C423.500003,38.5159973 424.119996,38.0960015 424.84,37.792 C425.560004,37.4879985 426.343996,37.336 427.192,37.336 C428.200005,37.336 429.051997,37.5119982 429.748,37.864 C430.444003,38.2160018 431.015998,38.6759972 431.464,39.244 C431.912002,39.8120028 432.235999,40.4519964 432.436,41.164 C432.636001,41.8760036 432.736,42.5999963 432.736,43.336 L432.736,44.104 L423.616,44.104 L423.616,44.104 Z M430.432,42.376 C430.416,41.8959976 430.340001,41.456002 430.204,41.056 C430.067999,40.655998 429.864001,40.3080015 429.592,40.012 C429.319999,39.7159985 428.980002,39.4840008 428.572,39.316 C428.163998,39.1479992 427.688003,39.064 427.144,39.064 C426.615997,39.064 426.132002,39.163999 425.692,39.364 C425.251998,39.564001 424.880002,39.8239984 424.576,40.144 C424.271998,40.4640016 424.036001,40.819998 423.868,41.212 C423.699999,41.604002 423.616,41.9919981 423.616,42.376 L430.432,42.376 L430.432,42.376 Z M436.96,44.104 C436.96,44.6000025 437.067999,45.051998 437.284,45.46 C437.500001,45.868002 437.783998,46.2159986 438.136,46.504 C438.488002,46.7920014 438.895998,47.0159992 439.36,47.176 C439.824002,47.3360008 440.303998,47.416 440.8,47.416 C441.472003,47.416 442.055998,47.2600016 442.552,46.948 C443.048002,46.6359984 443.503998,46.2240026 443.92,45.712 L445.552,46.96 C444.351994,48.5120078 442.672011,49.288 440.512,49.288 C439.615996,49.288 438.804004,49.1360015 438.076,48.832 C437.347996,48.5279985 436.732003,48.1080027 436.228,47.572 C435.723997,47.0359973 435.336001,46.4040036 435.064,45.676 C434.791999,44.9479964 434.656,44.1600042 434.656,43.312 C434.656,42.4639958 434.803999,41.6760036 435.1,40.948 C435.396001,40.2199964 435.803997,39.5880027 436.324,39.052 C436.844003,38.5159973 437.463996,38.0960015 438.184,37.792 C438.904004,37.4879985 439.687996,37.336 440.536,37.336 C441.544005,37.336 442.395997,37.5119982 443.092,37.864 C443.788003,38.2160018 444.359998,38.6759972 444.808,39.244 C445.256002,39.8120028 445.579999,40.4519964 445.78,41.164 C445.980001,41.8760036 446.08,42.5999963 446.08,43.336 L446.08,44.104 L436.96,44.104 L436.96,44.104 Z M443.776,42.376 C443.76,41.8959976 443.684001,41.456002 443.548,41.056 C443.411999,40.655998 443.208001,40.3080015 442.936,40.012 C442.663999,39.7159985 442.324002,39.4840008 441.916,39.316 C441.507998,39.1479992 441.032003,39.064 440.488,39.064 C439.959997,39.064 439.476002,39.163999 439.036,39.364 C438.595998,39.564001 438.224002,39.8239984 437.92,40.144 C437.615998,40.4640016 437.380001,40.819998 437.212,41.212 C437.043999,41.604002 436.96,41.9919981 436.96,42.376 L443.776,42.376 L443.776,42.376 Z M460.072,49 L457.912,49 L457.912,47.368 L457.864,47.368 C457.447998,47.976003 456.876004,48.4479983 456.148,48.784 C455.419996,49.1200017 454.672004,49.288 453.904,49.288 C453.023996,49.288 452.228004,49.1360015 451.516,48.832 C450.803996,48.5279985 450.196003,48.1040027 449.692,47.56 C449.187997,47.0159973 448.800001,46.3840036 448.528,45.664 C448.255999,44.9439964 448.12,44.1600042 448.12,43.312 C448.12,42.4639958 448.255999,41.6760036 448.528,40.948 C448.800001,40.2199964 449.187997,39.5880027 449.692,39.052 C450.196003,38.5159973 450.803996,38.0960015 451.516,37.792 C452.228004,37.4879985 453.023996,37.336 453.904,37.336 C454.720004,37.336 455.487996,37.5079983 456.208,37.852 C456.928004,38.1960017 457.479998,38.663997 457.864,39.256 L457.912,39.256 L457.912,30.856 L460.072,30.856 L460.072,49 L460.072,49 Z M454.168,47.272 C454.744003,47.272 455.263998,47.172001 455.728,46.972 C456.192002,46.771999 456.583998,46.5000017 456.904,46.156 C457.224002,45.8119983 457.471999,45.3960024 457.648,44.908 C457.824001,44.4199976 457.912,43.8880029 457.912,43.312 C457.912,42.7359971 457.824001,42.2040024 457.648,41.716 C457.471999,41.2279976 457.224002,40.8120017 456.904,40.468 C456.583998,40.1239983 456.192002,39.852001 455.728,39.652 C455.263998,39.451999 454.744003,39.352 454.168,39.352 C453.591997,39.352 453.072002,39.451999 452.608,39.652 C452.143998,39.852001 451.752002,40.1239983 451.432,40.468 C451.111998,40.8120017 450.864001,41.2279976 450.688,41.716 C450.511999,42.2040024 450.424,42.7359971 450.424,43.312 C450.424,43.8880029 450.511999,44.4199976 450.688,44.908 C450.864001,45.3960024 451.111998,45.8119983 451.432,46.156 C451.752002,46.5000017 452.143998,46.771999 452.608,46.972 C453.072002,47.172001 453.591997,47.272 454.168,47.272 L454.168,47.272 L454.168,47.272 Z M469.144,51.256 L471.304,51.256 L471.304,33.112 L469.144,33.112 L469.144,31.528 L473.32,31.528 L473.32,52.84 L469.144,52.84 L469.144,51.256 L469.144,51.256 Z" id="[-Speed-]" fill="#F26522"></path>
                            <path d="M39.728,450.528 L43.904,450.528 L43.904,452.112 L41.744,452.112 L41.744,470.256 L43.904,470.256 L43.904,471.84 L39.728,471.84 L39.728,450.528 L39.728,450.528 Z M53.528,451.008 L59.504,451.008 C60.5920054,451.008 61.4879965,451.155999 62.192,451.452 C62.8960035,451.748001 63.451998,452.123998 63.86,452.58 C64.268002,453.036002 64.5519992,453.547997 64.712,454.116 C64.8720008,454.684003 64.952,455.231997 64.952,455.76 C64.952,456.288003 64.8720008,456.835997 64.712,457.404 C64.5519992,457.972003 64.268002,458.483998 63.86,458.94 C63.451998,459.396002 62.8960035,459.771999 62.192,460.068 C61.4879965,460.364001 60.5920054,460.512 59.504,460.512 L55.832,460.512 L55.832,468 L53.528,468 L53.528,451.008 L53.528,451.008 Z M55.832,458.496 L58.856,458.496 C59.3040022,458.496 59.7479978,458.46 60.188,458.388 C60.6280022,458.316 61.0199983,458.184001 61.364,457.992 C61.7080017,457.799999 61.983999,457.524002 62.192,457.164 C62.400001,456.803998 62.504,456.336003 62.504,455.76 C62.504,455.183997 62.400001,454.716002 62.192,454.356 C61.983999,453.995998 61.7080017,453.720001 61.364,453.528 C61.0199983,453.335999 60.6280022,453.204 60.188,453.132 C59.7479978,453.06 59.3040022,453.024 58.856,453.024 L55.832,453.024 L55.832,458.496 L55.832,458.496 Z M67.208,456.624 L69.368,456.624 L69.368,458.376 L69.416,458.376 C69.5600007,458.071998 69.7519988,457.796001 69.992,457.548 C70.2320012,457.299999 70.4999985,457.088001 70.796,456.912 C71.0920015,456.735999 71.4159982,456.596001 71.768,456.492 C72.1200018,456.387999 72.4719982,456.336 72.824,456.336 C73.1760018,456.336 73.4959986,456.384 73.784,456.48 L73.688,458.808 C73.5119991,458.76 73.3360009,458.72 73.16,458.688 C72.9839991,458.656 72.8080009,458.64 72.632,458.64 C71.5759947,458.64 70.7680028,458.935997 70.208,459.528 C69.6479972,460.120003 69.368,461.039994 69.368,462.288 L69.368,468 L67.208,468 L67.208,456.624 L67.208,456.624 Z M75.104,462.312 C75.104,461.479996 75.2599984,460.704004 75.572,459.984 C75.8840016,459.263996 76.3119973,458.632003 76.856,458.088 C77.4000027,457.543997 78.0399963,457.116002 78.776,456.804 C79.5120037,456.491998 80.3039958,456.336 81.152,456.336 C82.0000042,456.336 82.7919963,456.491998 83.528,456.804 C84.2640037,457.116002 84.9039973,457.543997 85.448,458.088 C85.9920027,458.632003 86.4199984,459.263996 86.732,459.984 C87.0440016,460.704004 87.2,461.479996 87.2,462.312 C87.2,463.144004 87.0440016,463.923996 86.732,464.652 C86.4199984,465.380004 85.9920027,466.011997 85.448,466.548 C84.9039973,467.084003 84.2640037,467.507998 83.528,467.82 C82.7919963,468.132002 82.0000042,468.288 81.152,468.288 C80.3039958,468.288 79.5120037,468.132002 78.776,467.82 C78.0399963,467.507998 77.4000027,467.084003 76.856,466.548 C76.3119973,466.011997 75.8840016,465.380004 75.572,464.652 C75.2599984,463.923996 75.104,463.144004 75.104,462.312 L75.104,462.312 L75.104,462.312 Z M77.408,462.312 C77.408,462.888003 77.4959991,463.419998 77.672,463.908 C77.8480009,464.396002 78.0959984,464.811998 78.416,465.156 C78.7360016,465.500002 79.1279977,465.771999 79.592,465.972 C80.0560023,466.172001 80.5759971,466.272 81.152,466.272 C81.7280029,466.272 82.2479977,466.172001 82.712,465.972 C83.1760023,465.771999 83.5679984,465.500002 83.888,465.156 C84.2080016,464.811998 84.4559991,464.396002 84.632,463.908 C84.8080009,463.419998 84.896,462.888003 84.896,462.312 C84.896,461.735997 84.8080009,461.204002 84.632,460.716 C84.4559991,460.227998 84.2080016,459.812002 83.888,459.468 C83.5679984,459.123998 83.1760023,458.852001 82.712,458.652 C82.2479977,458.451999 81.7280029,458.352 81.152,458.352 C80.5759971,458.352 80.0560023,458.451999 79.592,458.652 C79.1279977,458.852001 78.7360016,459.123998 78.416,459.468 C78.0959984,459.812002 77.8480009,460.227998 77.672,460.716 C77.4959991,461.204002 77.408,461.735997 77.408,462.312 L77.408,462.312 L77.408,462.312 Z M90.752,458.496 L88.304,458.496 L88.304,456.624 L90.752,456.624 L90.752,454.08 C90.752,452.559992 91.0439971,451.428004 91.628,450.684 C92.2120029,449.939996 93.2159929,449.568 94.64,449.568 C94.8800012,449.568 95.1319987,449.576 95.396,449.592 C95.6600013,449.608 95.9439985,449.656 96.248,449.736 L96.008,451.656 C95.799999,451.576 95.600001,451.52 95.408,451.488 C95.215999,451.456 95.0080011,451.44 94.784,451.44 C94.383998,451.44 94.0640012,451.499999 93.824,451.62 C93.5839988,451.740001 93.3960007,451.911999 93.26,452.136 C93.1239993,452.360001 93.0360002,452.627998 92.996,452.94 C92.9559998,453.252002 92.936,453.607998 92.936,454.008 L92.936,456.624 L95.504,456.624 L95.504,458.496 L92.912,458.496 L92.912,468 L90.752,468 L90.752,458.496 L90.752,458.496 Z M99.536,463.104 C99.536,463.600002 99.6439989,464.051998 99.86,464.46 C100.076001,464.868002 100.359998,465.215999 100.712,465.504 C101.064002,465.792001 101.471998,466.015999 101.936,466.176 C102.400002,466.336001 102.879998,466.416 103.376,466.416 C104.048003,466.416 104.631998,466.260002 105.128,465.948 C105.624002,465.635998 106.079998,465.224003 106.496,464.712 L108.128,465.96 C106.927994,467.512008 105.248011,468.288 103.088,468.288 C102.191996,468.288 101.380004,468.136002 100.652,467.832 C99.9239964,467.527998 99.3080025,467.108003 98.804,466.572 C98.2999975,466.035997 97.9120014,465.404004 97.64,464.676 C97.3679986,463.947996 97.232,463.160004 97.232,462.312 C97.232,461.463996 97.3799985,460.676004 97.676,459.948 C97.9720015,459.219996 98.3799974,458.588003 98.9,458.052 C99.4200026,457.515997 100.039996,457.096002 100.76,456.792 C101.480004,456.487998 102.263996,456.336 103.112,456.336 C104.120005,456.336 104.971997,456.511998 105.668,456.864 C106.364003,457.216002 106.935998,457.675997 107.384,458.244 C107.832002,458.812003 108.155999,459.451996 108.356,460.164 C108.556001,460.876004 108.656,461.599996 108.656,462.336 L108.656,463.104 L99.536,463.104 L99.536,463.104 Z M106.352,461.376 C106.336,460.895998 106.260001,460.456002 106.124,460.056 C105.987999,459.655998 105.784001,459.308001 105.512,459.012 C105.239999,458.715999 104.900002,458.484001 104.492,458.316 C104.083998,458.147999 103.608003,458.064 103.064,458.064 C102.535997,458.064 102.052002,458.163999 101.612,458.364 C101.171998,458.564001 100.800002,458.823998 100.496,459.144 C100.191998,459.464002 99.9560008,459.819998 99.788,460.212 C99.6199992,460.604002 99.536,460.991998 99.536,461.376 L106.352,461.376 L106.352,461.376 Z M117.296,459.48 C117.039999,459.159998 116.724002,458.892001 116.348,458.676 C115.971998,458.459999 115.512003,458.352 114.968,458.352 C114.455997,458.352 114.012002,458.459999 113.636,458.676 C113.259998,458.892001 113.072,459.207998 113.072,459.624 C113.072,459.960002 113.179999,460.231999 113.396,460.44 C113.612001,460.648001 113.867999,460.815999 114.164,460.944 C114.460001,461.072001 114.775998,461.168 115.112,461.232 C115.448002,461.296 115.735999,461.352 115.976,461.4 C116.440002,461.512001 116.875998,461.647999 117.284,461.808 C117.692002,461.968001 118.043999,462.175999 118.34,462.432 C118.636001,462.688001 118.867999,462.999998 119.036,463.368 C119.204001,463.736002 119.288,464.183997 119.288,464.712 C119.288,465.352003 119.152001,465.899998 118.88,466.356 C118.607999,466.812002 118.256002,467.183999 117.824,467.472 C117.391998,467.760001 116.900003,467.967999 116.348,468.096 C115.795997,468.224001 115.240003,468.288 114.68,468.288 C113.735995,468.288 112.908004,468.144001 112.196,467.856 C111.483996,467.567999 110.848003,467.040004 110.288,466.272 L111.92,464.928 C112.272002,465.280002 112.663998,465.591999 113.096,465.864 C113.528002,466.136001 114.055997,466.272 114.68,466.272 C114.952001,466.272 115.227999,466.244 115.508,466.188 C115.788001,466.132 116.035999,466.044001 116.252,465.924 C116.468001,465.803999 116.643999,465.652001 116.78,465.468 C116.916001,465.283999 116.984,465.072001 116.984,464.832 C116.984,464.511998 116.884001,464.248001 116.684,464.04 C116.483999,463.831999 116.244001,463.668001 115.964,463.548 C115.683999,463.427999 115.388002,463.332 115.076,463.26 C114.763998,463.188 114.488001,463.128 114.248,463.08 C113.783998,462.967999 113.344002,462.840001 112.928,462.696 C112.511998,462.551999 112.144002,462.360001 111.824,462.12 C111.503998,461.879999 111.248001,461.576002 111.056,461.208 C110.863999,460.839998 110.768,460.384003 110.768,459.84 C110.768,459.247997 110.891999,458.732002 111.14,458.292 C111.388001,457.851998 111.715998,457.488001 112.124,457.2 C112.532002,456.911999 112.995997,456.696001 113.516,456.552 C114.036003,456.407999 114.559997,456.336 115.088,456.336 C115.856004,456.336 116.591996,456.479999 117.296,456.768 C118.000004,457.056001 118.559998,457.535997 118.976,458.208 L117.296,459.48 L117.296,459.48 Z M127.952,459.48 C127.695999,459.159998 127.380002,458.892001 127.004,458.676 C126.627998,458.459999 126.168003,458.352 125.624,458.352 C125.111997,458.352 124.668002,458.459999 124.292,458.676 C123.915998,458.892001 123.728,459.207998 123.728,459.624 C123.728,459.960002 123.835999,460.231999 124.052,460.44 C124.268001,460.648001 124.523999,460.815999 124.82,460.944 C125.116001,461.072001 125.431998,461.168 125.768,461.232 C126.104002,461.296 126.391999,461.352 126.632,461.4 C127.096002,461.512001 127.531998,461.647999 127.94,461.808 C128.348002,461.968001 128.699999,462.175999 128.996,462.432 C129.292001,462.688001 129.523999,462.999998 129.692,463.368 C129.860001,463.736002 129.944,464.183997 129.944,464.712 C129.944,465.352003 129.808001,465.899998 129.536,466.356 C129.263999,466.812002 128.912002,467.183999 128.48,467.472 C128.047998,467.760001 127.556003,467.967999 127.004,468.096 C126.451997,468.224001 125.896003,468.288 125.336,468.288 C124.391995,468.288 123.564004,468.144001 122.852,467.856 C122.139996,467.567999 121.504003,467.040004 120.944,466.272 L122.576,464.928 C122.928002,465.280002 123.319998,465.591999 123.752,465.864 C124.184002,466.136001 124.711997,466.272 125.336,466.272 C125.608001,466.272 125.883999,466.244 126.164,466.188 C126.444001,466.132 126.691999,466.044001 126.908,465.924 C127.124001,465.803999 127.299999,465.652001 127.436,465.468 C127.572001,465.283999 127.64,465.072001 127.64,464.832 C127.64,464.511998 127.540001,464.248001 127.34,464.04 C127.139999,463.831999 126.900001,463.668001 126.62,463.548 C126.339999,463.427999 126.044002,463.332 125.732,463.26 C125.419998,463.188 125.144001,463.128 124.904,463.08 C124.439998,462.967999 124.000002,462.840001 123.584,462.696 C123.167998,462.551999 122.800002,462.360001 122.48,462.12 C122.159998,461.879999 121.904001,461.576002 121.712,461.208 C121.519999,460.839998 121.424,460.384003 121.424,459.84 C121.424,459.247997 121.547999,458.732002 121.796,458.292 C122.044001,457.851998 122.371998,457.488001 122.78,457.2 C123.188002,456.911999 123.651997,456.696001 124.172,456.552 C124.692003,456.407999 125.215997,456.336 125.744,456.336 C126.512004,456.336 127.247996,456.479999 127.952,456.768 C128.656004,457.056001 129.215998,457.535997 129.632,458.208 L127.952,459.48 L127.952,459.48 Z M132.728,456.624 L134.888,456.624 L134.888,468 L132.728,468 L132.728,456.624 L132.728,456.624 Z M132.224,452.544 C132.224,452.111998 132.379998,451.740002 132.692,451.428 C133.004002,451.115998 133.375998,450.96 133.808,450.96 C134.240002,450.96 134.611998,451.115998 134.924,451.428 C135.236002,451.740002 135.392,452.111998 135.392,452.544 C135.392,452.976002 135.236002,453.347998 134.924,453.66 C134.611998,453.972002 134.240002,454.128 133.808,454.128 C133.375998,454.128 133.004002,453.972002 132.692,453.66 C132.379998,453.347998 132.224,452.976002 132.224,452.544 L132.224,452.544 L132.224,452.544 Z M137.768,462.312 C137.768,461.479996 137.923998,460.704004 138.236,459.984 C138.548002,459.263996 138.975997,458.632003 139.52,458.088 C140.064003,457.543997 140.703996,457.116002 141.44,456.804 C142.176004,456.491998 142.967996,456.336 143.816,456.336 C144.664004,456.336 145.455996,456.491998 146.192,456.804 C146.928004,457.116002 147.567997,457.543997 148.112,458.088 C148.656003,458.632003 149.083998,459.263996 149.396,459.984 C149.708002,460.704004 149.864,461.479996 149.864,462.312 C149.864,463.144004 149.708002,463.923996 149.396,464.652 C149.083998,465.380004 148.656003,466.011997 148.112,466.548 C147.567997,467.084003 146.928004,467.507998 146.192,467.82 C145.455996,468.132002 144.664004,468.288 143.816,468.288 C142.967996,468.288 142.176004,468.132002 141.44,467.82 C140.703996,467.507998 140.064003,467.084003 139.52,466.548 C138.975997,466.011997 138.548002,465.380004 138.236,464.652 C137.923998,463.923996 137.768,463.144004 137.768,462.312 L137.768,462.312 L137.768,462.312 Z M140.072,462.312 C140.072,462.888003 140.159999,463.419998 140.336,463.908 C140.512001,464.396002 140.759998,464.811998 141.08,465.156 C141.400002,465.500002 141.791998,465.771999 142.256,465.972 C142.720002,466.172001 143.239997,466.272 143.816,466.272 C144.392003,466.272 144.911998,466.172001 145.376,465.972 C145.840002,465.771999 146.231998,465.500002 146.552,465.156 C146.872002,464.811998 147.119999,464.396002 147.296,463.908 C147.472001,463.419998 147.56,462.888003 147.56,462.312 C147.56,461.735997 147.472001,461.204002 147.296,460.716 C147.119999,460.227998 146.872002,459.812002 146.552,459.468 C146.231998,459.123998 145.840002,458.852001 145.376,458.652 C144.911998,458.451999 144.392003,458.352 143.816,458.352 C143.239997,458.352 142.720002,458.451999 142.256,458.652 C141.791998,458.852001 141.400002,459.123998 141.08,459.468 C140.759998,459.812002 140.512001,460.227998 140.336,460.716 C140.159999,461.204002 140.072,461.735997 140.072,462.312 L140.072,462.312 L140.072,462.312 Z M152.576,456.624 L154.736,456.624 L154.736,458.376 L154.784,458.376 C155.056001,457.767997 155.527997,457.276002 156.2,456.9 C156.872003,456.523998 157.647996,456.336 158.528,456.336 C159.072003,456.336 159.595997,456.419999 160.1,456.588 C160.604003,456.756001 161.043998,457.015998 161.42,457.368 C161.796002,457.720002 162.095999,458.171997 162.32,458.724 C162.544001,459.276003 162.656,459.927996 162.656,460.68 L162.656,468 L160.496,468 L160.496,461.28 C160.496,460.751997 160.424001,460.300002 160.28,459.924 C160.135999,459.547998 159.944001,459.244001 159.704,459.012 C159.463999,458.779999 159.188002,458.612001 158.876,458.508 C158.563998,458.403999 158.240002,458.352 157.904,458.352 C157.455998,458.352 157.040002,458.423999 156.656,458.568 C156.271998,458.712001 155.936001,458.939998 155.648,459.252 C155.359999,459.564002 155.136001,459.959998 154.976,460.44 C154.815999,460.920002 154.736,461.487997 154.736,462.144 L154.736,468 L152.576,468 L152.576,456.624 L152.576,456.624 Z M165.968,458.016 C166.576003,457.455997 167.279996,457.036001 168.08,456.756 C168.880004,456.475999 169.679996,456.336 170.48,456.336 C171.312004,456.336 172.027997,456.439999 172.628,456.648 C173.228003,456.856001 173.719998,457.135998 174.104,457.488 C174.488002,457.840002 174.771999,458.243998 174.956,458.7 C175.140001,459.156002 175.232,459.631998 175.232,460.128 L175.232,465.936 C175.232,466.336002 175.24,466.703998 175.256,467.04 C175.272,467.376002 175.296,467.695998 175.328,468 L173.408,468 C173.36,467.423997 173.336,466.848003 173.336,466.272 L173.288,466.272 C172.807998,467.008004 172.240003,467.527998 171.584,467.832 C170.927997,468.136002 170.168004,468.288 169.304,468.288 C168.775997,468.288 168.272002,468.216001 167.792,468.072 C167.311998,467.927999 166.892002,467.712001 166.532,467.424 C166.171998,467.135999 165.888001,466.780002 165.68,466.356 C165.471999,465.931998 165.368,465.440003 165.368,464.88 C165.368,464.143996 165.531998,463.528002 165.86,463.032 C166.188002,462.535998 166.635997,462.132002 167.204,461.82 C167.772003,461.507998 168.435996,461.284001 169.196,461.148 C169.956004,461.011999 170.767996,460.944 171.632,460.944 L173.216,460.944 L173.216,460.464 C173.216,460.175999 173.160001,459.888001 173.048,459.6 C172.935999,459.311999 172.768001,459.052001 172.544,458.82 C172.319999,458.587999 172.040002,458.404001 171.704,458.268 C171.367998,458.131999 170.968002,458.064 170.504,458.064 C170.087998,458.064 169.724002,458.104 169.412,458.184 C169.099998,458.264 168.816001,458.363999 168.56,458.484 C168.303999,458.604001 168.072001,458.743999 167.864,458.904 C167.655999,459.064001 167.456001,459.215999 167.264,459.36 L165.968,458.016 L165.968,458.016 Z M172.064,462.528 C171.551997,462.528 171.028003,462.556 170.492,462.612 C169.955997,462.668 169.468002,462.775999 169.028,462.936 C168.587998,463.096001 168.228001,463.319999 167.948,463.608 C167.667999,463.896001 167.528,464.263998 167.528,464.712 C167.528,465.368003 167.747998,465.839999 168.188,466.128 C168.628002,466.416001 169.223996,466.56 169.976,466.56 C170.568003,466.56 171.071998,466.460001 171.488,466.26 C171.904002,466.059999 172.239999,465.800002 172.496,465.48 C172.752001,465.159998 172.935999,464.804002 173.048,464.412 C173.160001,464.019998 173.216,463.632002 173.216,463.248 L173.216,462.528 L172.064,462.528 L172.064,462.528 Z M178.544,449.856 L180.704,449.856 L180.704,468 L178.544,468 L178.544,449.856 L178.544,449.856 Z M189.944,470.256 L192.104,470.256 L192.104,452.112 L189.944,452.112 L189.944,450.528 L194.12,450.528 L194.12,471.84 L189.944,471.84 L189.944,470.256 L189.944,470.256 Z" id="[-Professional-]" fill="#F26522"></path>
                            <path d="M461.728,541.528 L465.904,541.528 L465.904,543.112 L463.744,543.112 L463.744,561.256 L465.904,561.256 L465.904,562.84 L461.728,562.84 L461.728,541.528 L461.728,541.528 Z M479.08,544.168 L473.608,544.168 L473.608,542.008 L486.856,542.008 L486.856,544.168 L481.384,544.168 L481.384,559 L479.08,559 L479.08,544.168 L479.08,544.168 Z M487.72,554.104 C487.72,554.600002 487.827999,555.051998 488.044,555.46 C488.260001,555.868002 488.543998,556.215999 488.896,556.504 C489.248002,556.792001 489.655998,557.015999 490.12,557.176 C490.584002,557.336001 491.063998,557.416 491.56,557.416 C492.232003,557.416 492.815998,557.260002 493.312,556.948 C493.808002,556.635998 494.263998,556.224003 494.68,555.712 L496.312,556.96 C495.111994,558.512008 493.432011,559.288 491.272,559.288 C490.375996,559.288 489.564004,559.136002 488.836,558.832 C488.107996,558.527998 487.492003,558.108003 486.988,557.572 C486.483997,557.035997 486.096001,556.404004 485.824,555.676 C485.551999,554.947996 485.416,554.160004 485.416,553.312 C485.416,552.463996 485.563999,551.676004 485.86,550.948 C486.156001,550.219996 486.563997,549.588003 487.084,549.052 C487.604003,548.515997 488.223996,548.096002 488.944,547.792 C489.664004,547.487998 490.447996,547.336 491.296,547.336 C492.304005,547.336 493.155997,547.511998 493.852,547.864 C494.548003,548.216002 495.119998,548.675997 495.568,549.244 C496.016002,549.812003 496.339999,550.451996 496.54,551.164 C496.740001,551.876004 496.84,552.599996 496.84,553.336 L496.84,554.104 L487.72,554.104 L487.72,554.104 Z M494.536,552.376 C494.52,551.895998 494.444001,551.456002 494.308,551.056 C494.171999,550.655998 493.968001,550.308001 493.696,550.012 C493.423999,549.715999 493.084002,549.484001 492.676,549.316 C492.267998,549.147999 491.792003,549.064 491.248,549.064 C490.719997,549.064 490.236002,549.163999 489.796,549.364 C489.355998,549.564001 488.984002,549.823998 488.68,550.144 C488.375998,550.464002 488.140001,550.819998 487.972,551.212 C487.803999,551.604002 487.72,551.991998 487.72,552.376 L494.536,552.376 L494.536,552.376 Z M507.568,550.648 C507.167998,550.231998 506.748002,549.916001 506.308,549.7 C505.867998,549.483999 505.344003,549.376 504.736,549.376 C504.143997,549.376 503.628002,549.483999 503.188,549.7 C502.747998,549.916001 502.380001,550.211998 502.084,550.588 C501.787999,550.964002 501.564001,551.395998 501.412,551.884 C501.259999,552.372002 501.184,552.879997 501.184,553.408 C501.184,553.936003 501.271999,554.435998 501.448,554.908 C501.624001,555.380002 501.871998,555.791998 502.192,556.144 C502.512002,556.496002 502.895998,556.771999 503.344,556.972 C503.792002,557.172001 504.295997,557.272 504.856,557.272 C505.464003,557.272 505.983998,557.164001 506.416,556.948 C506.848002,556.731999 507.247998,556.416002 507.616,556 L509.152,557.536 C508.591997,558.160003 507.940004,558.607999 507.196,558.88 C506.451996,559.152001 505.664004,559.288 504.832,559.288 C503.951996,559.288 503.148004,559.144001 502.42,558.856 C501.691996,558.567999 501.064003,558.164003 500.536,557.644 C500.007997,557.123997 499.600001,556.500004 499.312,555.772 C499.023999,555.043996 498.88,554.240004 498.88,553.36 C498.88,552.479996 499.023999,551.672004 499.312,550.936 C499.600001,550.199996 500.003997,549.568003 500.524,549.04 C501.044003,548.511997 501.667996,548.100001 502.396,547.804 C503.124004,547.507999 503.935996,547.36 504.832,547.36 C505.664004,547.36 506.459996,547.507999 507.22,547.804 C507.980004,548.100001 508.639997,548.551997 509.2,549.16 L507.568,550.648 L507.568,550.648 Z M511,540.856 L513.16,540.856 L513.16,549.376 L513.208,549.376 C513.480001,548.767997 513.951997,548.276002 514.624,547.9 C515.296003,547.523998 516.071996,547.336 516.952,547.336 C517.496003,547.336 518.019997,547.419999 518.524,547.588 C519.028003,547.756001 519.467998,548.015998 519.844,548.368 C520.220002,548.720002 520.519999,549.171997 520.744,549.724 C520.968001,550.276003 521.08,550.927996 521.08,551.68 L521.08,559 L518.92,559 L518.92,552.28 C518.92,551.751997 518.848001,551.300002 518.704,550.924 C518.559999,550.547998 518.368001,550.244001 518.128,550.012 C517.887999,549.779999 517.612002,549.612001 517.3,549.508 C516.987998,549.403999 516.664002,549.352 516.328,549.352 C515.879998,549.352 515.464002,549.423999 515.08,549.568 C514.695998,549.712001 514.360001,549.939998 514.072,550.252 C513.783999,550.564002 513.560001,550.959998 513.4,551.44 C513.239999,551.920002 513.16,552.487997 513.16,553.144 L513.16,559 L511,559 L511,540.856 L511,540.856 Z M524.344,547.624 L526.504,547.624 L526.504,549.376 L526.552,549.376 C526.824001,548.767997 527.295997,548.276002 527.968,547.9 C528.640003,547.523998 529.415996,547.336 530.296,547.336 C530.840003,547.336 531.363997,547.419999 531.868,547.588 C532.372003,547.756001 532.811998,548.015998 533.188,548.368 C533.564002,548.720002 533.863999,549.171997 534.088,549.724 C534.312001,550.276003 534.424,550.927996 534.424,551.68 L534.424,559 L532.264,559 L532.264,552.28 C532.264,551.751997 532.192001,551.300002 532.048,550.924 C531.903999,550.547998 531.712001,550.244001 531.472,550.012 C531.231999,549.779999 530.956002,549.612001 530.644,549.508 C530.331998,549.403999 530.008002,549.352 529.672,549.352 C529.223998,549.352 528.808002,549.423999 528.424,549.568 C528.039998,549.712001 527.704001,549.939998 527.416,550.252 C527.127999,550.564002 526.904001,550.959998 526.744,551.44 C526.583999,551.920002 526.504,552.487997 526.504,553.144 L526.504,559 L524.344,559 L524.344,547.624 L524.344,547.624 Z M537.136,553.312 C537.136,552.479996 537.291998,551.704004 537.604,550.984 C537.916002,550.263996 538.343997,549.632003 538.888,549.088 C539.432003,548.543997 540.071996,548.116002 540.808,547.804 C541.544004,547.491998 542.335996,547.336 543.184,547.336 C544.032004,547.336 544.823996,547.491998 545.56,547.804 C546.296004,548.116002 546.935997,548.543997 547.48,549.088 C548.024003,549.632003 548.451998,550.263996 548.764,550.984 C549.076002,551.704004 549.232,552.479996 549.232,553.312 C549.232,554.144004 549.076002,554.923996 548.764,555.652 C548.451998,556.380004 548.024003,557.011997 547.48,557.548 C546.935997,558.084003 546.296004,558.507998 545.56,558.82 C544.823996,559.132002 544.032004,559.288 543.184,559.288 C542.335996,559.288 541.544004,559.132002 540.808,558.82 C540.071996,558.507998 539.432003,558.084003 538.888,557.548 C538.343997,557.011997 537.916002,556.380004 537.604,555.652 C537.291998,554.923996 537.136,554.144004 537.136,553.312 L537.136,553.312 L537.136,553.312 Z M539.44,553.312 C539.44,553.888003 539.527999,554.419998 539.704,554.908 C539.880001,555.396002 540.127998,555.811998 540.448,556.156 C540.768002,556.500002 541.159998,556.771999 541.624,556.972 C542.088002,557.172001 542.607997,557.272 543.184,557.272 C543.760003,557.272 544.279998,557.172001 544.744,556.972 C545.208002,556.771999 545.599998,556.500002 545.92,556.156 C546.240002,555.811998 546.487999,555.396002 546.664,554.908 C546.840001,554.419998 546.928,553.888003 546.928,553.312 C546.928,552.735997 546.840001,552.204002 546.664,551.716 C546.487999,551.227998 546.240002,550.812002 545.92,550.468 C545.599998,550.123998 545.208002,549.852001 544.744,549.652 C544.279998,549.451999 543.760003,549.352 543.184,549.352 C542.607997,549.352 542.088002,549.451999 541.624,549.652 C541.159998,549.852001 540.768002,550.123998 540.448,550.468 C540.127998,550.812002 539.880001,551.227998 539.704,551.716 C539.527999,552.204002 539.44,552.735997 539.44,553.312 L539.44,553.312 L539.44,553.312 Z M552.112,540.856 L554.272,540.856 L554.272,559 L552.112,559 L552.112,540.856 L552.112,540.856 Z M557.152,553.312 C557.152,552.479996 557.307998,551.704004 557.62,550.984 C557.932002,550.263996 558.359997,549.632003 558.904,549.088 C559.448003,548.543997 560.087996,548.116002 560.824,547.804 C561.560004,547.491998 562.351996,547.336 563.2,547.336 C564.048004,547.336 564.839996,547.491998 565.576,547.804 C566.312004,548.116002 566.951997,548.543997 567.496,549.088 C568.040003,549.632003 568.467998,550.263996 568.78,550.984 C569.092002,551.704004 569.248,552.479996 569.248,553.312 C569.248,554.144004 569.092002,554.923996 568.78,555.652 C568.467998,556.380004 568.040003,557.011997 567.496,557.548 C566.951997,558.084003 566.312004,558.507998 565.576,558.82 C564.839996,559.132002 564.048004,559.288 563.2,559.288 C562.351996,559.288 561.560004,559.132002 560.824,558.82 C560.087996,558.507998 559.448003,558.084003 558.904,557.548 C558.359997,557.011997 557.932002,556.380004 557.62,555.652 C557.307998,554.923996 557.152,554.144004 557.152,553.312 L557.152,553.312 L557.152,553.312 Z M559.456,553.312 C559.456,553.888003 559.543999,554.419998 559.72,554.908 C559.896001,555.396002 560.143998,555.811998 560.464,556.156 C560.784002,556.500002 561.175998,556.771999 561.64,556.972 C562.104002,557.172001 562.623997,557.272 563.2,557.272 C563.776003,557.272 564.295998,557.172001 564.76,556.972 C565.224002,556.771999 565.615998,556.500002 565.936,556.156 C566.256002,555.811998 566.503999,555.396002 566.68,554.908 C566.856001,554.419998 566.944,553.888003 566.944,553.312 C566.944,552.735997 566.856001,552.204002 566.68,551.716 C566.503999,551.227998 566.256002,550.812002 565.936,550.468 C565.615998,550.123998 565.224002,549.852001 564.76,549.652 C564.295998,549.451999 563.776003,549.352 563.2,549.352 C562.623997,549.352 562.104002,549.451999 561.64,549.652 C561.175998,549.852001 560.784002,550.123998 560.464,550.468 C560.143998,550.812002 559.896001,551.227998 559.72,551.716 C559.543999,552.204002 559.456,552.735997 559.456,553.312 L559.456,553.312 L559.456,553.312 Z M583.36,558.904 C583.36,559.768004 583.212001,560.555996 582.916,561.268 C582.619999,561.980004 582.200003,562.595997 581.656,563.116 C581.111997,563.636003 580.456004,564.039999 579.688,564.328 C578.919996,564.616001 578.072005,564.76 577.144,564.76 C576.055995,564.76 575.060005,564.608002 574.156,564.304 C573.251995,563.999998 572.392004,563.472004 571.576,562.72 L573.04,560.896 C573.600003,561.504003 574.207997,561.963998 574.864,562.276 C575.520003,562.588002 576.263996,562.744 577.096,562.744 C577.896004,562.744 578.559997,562.628001 579.088,562.396 C579.616003,562.163999 580.035998,561.864002 580.348,561.496 C580.660002,561.127998 580.879999,560.708002 581.008,560.236 C581.136001,559.763998 581.2,559.288002 581.2,558.808 L581.2,557.128 L581.128,557.128 C580.711998,557.816003 580.148004,558.323998 579.436,558.652 C578.723996,558.980002 577.976004,559.144 577.192,559.144 C576.359996,559.144 575.588004,558.996001 574.876,558.7 C574.163996,558.403999 573.552003,557.996003 573.04,557.476 C572.527997,556.955997 572.128001,556.340004 571.84,555.628 C571.551999,554.915996 571.408,554.144004 571.408,553.312 C571.408,552.479996 571.543999,551.700004 571.816,550.972 C572.088001,550.243996 572.475997,549.608003 572.98,549.064 C573.484003,548.519997 574.091996,548.096002 574.804,547.792 C575.516004,547.487998 576.311996,547.336 577.192,547.336 C577.960004,547.336 578.707996,547.503998 579.436,547.84 C580.164004,548.176002 580.735998,548.647997 581.152,549.256 L581.2,549.256 L581.2,547.624 L583.36,547.624 L583.36,558.904 L583.36,558.904 Z M577.456,549.352 C576.879997,549.352 576.360002,549.451999 575.896,549.652 C575.431998,549.852001 575.040002,550.123998 574.72,550.468 C574.399998,550.812002 574.152001,551.227998 573.976,551.716 C573.799999,552.204002 573.712,552.735997 573.712,553.312 C573.712,554.464006 574.047997,555.387997 574.72,556.084 C575.392003,556.780003 576.303994,557.128 577.456,557.128 C578.608006,557.128 579.519997,556.780003 580.192,556.084 C580.864003,555.387997 581.2,554.464006 581.2,553.312 C581.2,552.735997 581.112001,552.204002 580.936,551.716 C580.759999,551.227998 580.512002,550.812002 580.192,550.468 C579.871998,550.123998 579.480002,549.852001 579.016,549.652 C578.551998,549.451999 578.032003,549.352 577.456,549.352 L577.456,549.352 L577.456,549.352 Z M585.256,547.624 L587.752,547.624 L591.136,556.504 L591.184,556.504 L594.4,547.624 L596.728,547.624 L591.328,561.448 C591.135999,561.944002 590.936001,562.395998 590.728,562.804 C590.519999,563.212002 590.272001,563.559999 589.984,563.848 C589.695999,564.136001 589.348002,564.359999 588.94,564.52 C588.531998,564.680001 588.032003,564.76 587.44,564.76 C587.119998,564.76 586.796002,564.74 586.468,564.7 C586.139998,564.66 585.824002,564.576001 585.52,564.448 L585.784,562.48 C586.216002,562.656001 586.647998,562.744 587.08,562.744 C587.416002,562.744 587.699999,562.7 587.932,562.612 C588.164001,562.524 588.363999,562.396001 588.532,562.228 C588.700001,562.059999 588.839999,561.864001 588.952,561.64 C589.064001,561.415999 589.175999,561.160001 589.288,560.872 L589.984,559.072 L585.256,547.624 L585.256,547.624 Z M604.432,561.256 L606.592,561.256 L606.592,543.112 L604.432,543.112 L604.432,541.528 L608.608,541.528 L608.608,562.84 L604.432,562.84 L604.432,561.256 L604.432,561.256 Z" id="[-Technology-]" fill="#F26522"></path>
                        </g>
                    </g>
                </g>
            </g>
        </g>
    </g>
</svg>