<?xml version="1.0" encoding="UTF-8" standalone="no"?>
<svg width="128px" height="128px" viewBox="0 0 128 128" version="1.1" xmlns="http://www.w3.org/2000/svg" xmlns:xlink="http://www.w3.org/1999/xlink" xmlns:sketch="http://www.bohemiancoding.com/sketch/ns">
    <title>Untitled 2</title>
    <description>Created with Sketch (http://www.bohemiancoding.com/sketch)</description>
    <defs></defs>
    <g id="Page-1" stroke="none" stroke-width="1" fill="none" fill-rule="evenodd" sketch:type="MSPage">
        <g id="Imported-Layers" sketch:type="MSLayerGroup" transform="translate(18.000000, 19.000000)" fill="#FFFFFF">
            <path d="M45.27705,-0.481525 C20.2182,-0.481525 -0.1674,19.9064 -0.1674,44.958275 C-0.1674,70.017125 20.2182,90.402725 45.27705,90.402725 C70.33125,90.402725 90.719175,70.017125 90.719175,44.958275 C90.719175,19.9064 70.33125,-0.481525 45.27705,-0.481525 L45.27705,-0.481525 Z M84.548625,58.4921 C84.41145,58.51535 84.283575,58.55255 84.311475,58.77575 C84.2859,58.922225 84.306825,59.019875 84.351,59.089625 C83.2722,62.05865 81.860925,64.860275 80.17065,67.47125 C79.887,67.599125 79.628925,67.766525 79.456875,68.0246 C78.433875,67.803725 78.0921,68.380325 77.513175,68.673275 C77.103975,68.71745 77.085375,68.30825 76.680825,68.347775 C76.573875,67.5782 76.89705,67.30385 76.82265,66.5645 C76.778475,66.18785 76.676175,65.86235 76.4088,65.7554 C76.750575,64.943975 76.4088,64.046525 76.266975,63.321125 C76.452975,62.944475 77.0691,63.070025 77.376,62.8352 C77.885175,62.6213 77.727075,61.62155 78.06885,61.214675 C78.354825,60.884525 78.33855,61.284425 78.6222,61.372775 C78.936075,61.30535 78.6315,60.512525 78.9012,60.40325 C79.326675,60.424175 79.684725,60.019625 80.014875,60.40325 C80.517075,60.293975 80.386875,59.438375 80.57055,58.9385 C80.9751,58.7153 81.437775,58.5572 81.953925,58.45025 C82.237575,58.41305 81.991125,57.741125 82.232925,57.643475 C82.902525,57.9434 84.139425,57.592325 84.71835,58.00385 C84.66255,58.168925 84.60675,58.331675 84.548625,58.4921 L84.548625,58.4921 Z M13.2897,18.476525 C13.445475,18.550925 13.6059,18.629975 13.764,18.7067 C14.31735,18.6602 14.310375,17.93945 15.0102,18.058025 C14.989275,18.46025 15.082275,18.732275 15.2892,18.867125 C15.589125,18.5858 15.7635,17.300075 15.2892,17.076875 C15.17295,16.6235 15.482175,16.6607 15.426375,16.272425 C16.0983,16.035275 16.0053,16.6793 16.5354,16.5956 C16.719075,17.295425 17.17245,17.693 17.64675,18.058025 C17.797875,18.68345 17.156175,18.63695 17.5026,19.0322 C17.760675,18.67415 18.04665,18.36725 18.2001,17.895275 C18.225675,17.541875 17.709525,17.8232 17.5026,17.732525 C16.65165,16.8188 17.477025,15.1634 18.2001,14.6519 C18.6465,14.672825 18.8139,15.0146 18.7488,15.621425 C18.904575,15.100625 20.085675,14.784425 20.0043,15.784175 C20.47395,15.74 20.797125,15.5261 21.39,15.621425 C21.434175,16.0004 21.871275,15.923675 21.8085,16.43285 L23.0547,16.43285 C23.001225,17.09315 23.433675,17.1815 23.610375,17.569775 C23.573175,17.899925 23.2314,17.8883 23.1942,18.21845 C23.605725,18.3812 23.9661,18.616025 24.442725,18.7067 C24.5892,18.8555 24.479925,19.304225 24.861225,19.192625 C24.86355,19.573925 24.62175,19.66925 24.717075,20.1668 C24.25905,20.001725 24.266025,20.39 24.303225,20.815475 C23.86845,20.6783 23.715,20.204 23.1942,20.1668 C23.1942,20.648075 23.5569,20.7155 23.610375,21.13865 C23.703375,22.108175 23.168625,22.08725 23.4732,22.9289 C22.313025,22.81265 21.973575,21.7571 21.11565,21.3014 C20.536725,21.32465 19.95315,21.3572 19.7253,20.9759 C19.881075,19.80875 21.39,20.21795 21.5295,19.0322 C21.60855,18.337025 20.78085,18.718325 20.9715,17.895275 C20.527425,18.081275 20.118225,17.40005 19.867125,17.895275 C19.639275,17.560475 19.164975,17.5163 18.6186,17.569775 C18.788325,17.806925 19.146375,17.816225 19.309125,18.058025 C19.164975,18.4835 19.146375,19.053125 19.17195,19.67855 C18.5535,19.97615 18.02805,20.113325 17.091075,20.327225 C17.058525,20.6318 17.2515,20.689925 17.22825,20.9759 C16.495875,21.038675 16.27965,21.703625 15.98205,22.275575 C15.52635,22.55225 15.324075,23.1335 14.868375,23.410175 C14.859075,23.66825 14.891625,23.972825 14.5917,23.8961 C14.5266,24.5192 15.235725,24.228575 15.0102,25.0307 C15.649575,25.260875 16.12155,25.679375 16.5354,26.16995 C16.88415,26.149025 16.970175,25.8584 17.091075,26.335025 C17.3724,26.2397 17.3631,25.84445 17.64675,26.16995 C17.821125,26.8256 17.88855,27.62075 18.2001,28.115975 C18.40005,27.427775 18.407025,26.5187 18.895275,26.16995 C18.79995,25.9514 18.4698,26.3141 18.33495,25.84445 C18.481425,25.38875 18.932475,25.8863 19.17195,25.84445 C18.932475,24.637775 19.51605,23.73335 19.309125,22.11515 C19.704375,22.24535 19.671825,21.880325 20.0043,21.950075 C20.397225,21.91985 20.327475,22.56155 20.6925,22.11515 C21.336525,22.219775 21.19935,22.9847 21.94335,22.59875 L21.94335,24.2216 C22.0038,24.581975 22.629225,24.289025 22.9152,24.38435 C23.215125,24.409925 22.97565,23.80775 23.0547,23.572925 C23.828925,23.64035 23.6313,24.8447 24.168375,25.1981 C24.17535,25.48175 24.13815,25.7003 24.02655,25.84445 C24.080025,26.534975 24.73335,26.53265 24.717075,27.30455 C25.0635,27.28595 25.1472,27.0023 25.41225,27.30455 C25.456425,28.315925 25.456425,28.40195 25.41225,29.413325 C25.614525,29.831825 25.735425,30.32705 26.246925,30.3875 C25.967925,30.6944 26.181825,31.1501 26.246925,31.5221 C25.8075,31.7453 25.409925,31.119875 25.27275,31.5221 C25.070475,31.4942 25.1472,31.12685 25.1379,30.8711 C24.62175,30.7595 24.540375,31.1501 24.02655,31.036175 C24.289275,30.101525 24.954225,29.6342 25.27275,28.76 C24.79845,28.4624 24.010275,29.783 23.331375,29.2529 C23.215125,29.7086 23.529,29.669075 23.4732,30.064325 C23.1756,30.259625 22.7199,30.264275 22.64085,30.710675 C22.582725,31.42445 23.27325,31.271 23.610375,31.5221 C23.229075,31.9964 22.64085,32.22425 22.0875,32.49395 C22.0875,32.175425 22.466475,32.291675 22.359525,31.849925 C21.699225,32.147525 20.927325,32.328875 20.420475,32.81945 C20.274,33.426275 20.76225,33.282125 20.6925,33.793625 C20.2182,33.9866 19.769475,34.22375 19.309125,34.444625 C19.48815,35.528075 18.690675,35.3351 19.034775,36.225575 C18.8697,36.36275 18.66045,36.43715 18.33495,36.39065 C18.4605,36.862625 18.4605,36.885875 18.33495,37.360175 C17.3817,37.592675 16.7679,38.229725 16.5354,39.308525 C16.551675,39.7247 16.788825,39.875825 16.9539,40.11995 C16.853925,40.652375 16.788825,40.91045 16.9539,41.745125 C16.281975,41.66375 15.919275,41.219675 15.98205,40.285025 C15.882075,39.58985 14.975325,39.833975 14.31735,39.79445 C14.1546,39.824675 14.166225,40.052525 14.17785,40.285025 C13.4478,40.322225 13.2711,39.717725 12.51315,39.79445 C12.050475,39.954875 11.757525,40.312925 11.26695,40.443125 C11.6808,41.712575 10.515975,44.609525 12.371325,44.50025 C12.7968,44.3468 12.678225,43.558625 12.929325,43.205225 C13.603575,43.307525 13.63845,43.307525 14.31735,43.205225 C14.43825,44.2166 14.03835,44.60255 13.901175,45.311675 C14.38245,45.6116 15.305475,45.39305 15.565875,45.96035 C15.70305,47.0159 15.23805,47.7692 15.565875,48.552725 C16.01925,48.4946 16.179675,48.08075 16.5354,47.9087 C16.923675,47.94125 17.12595,48.1877 17.091075,48.720125 C17.430525,48.197 17.99085,47.93195 18.2001,47.260025 C18.6372,47.339075 18.765075,47.05775 18.895275,46.771775 C19.220775,46.8857 19.262625,47.311175 19.5858,47.42045 C19.853175,47.357675 19.695075,46.795025 20.1438,46.934525 C20.248425,47.6204 20.927325,47.641325 21.11565,48.22955 C21.31095,48.190025 21.3528,47.9645 21.5295,47.9087 C22.229325,48.1691 22.7571,48.6434 23.4732,48.88055 C23.545275,49.60595 23.866125,50.04305 24.303225,50.34065 C25.5657,49.622225 26.367825,51.6938 25.967925,52.449425 C25.986525,52.8656 26.43525,52.7726 26.8026,52.774925 C26.883975,53.444525 27.807,53.114375 28.051125,53.584025 L29.018325,53.584025 C29.515875,53.81885 30.05295,54.007175 30.269175,54.560525 C30.5598,54.467525 30.71325,54.0932 30.9597,54.4001 C31.0992,54.830225 31.248,55.2557 31.24335,55.8602 C31.245675,56.2415 31.003875,56.336825 31.101525,56.829725 C30.66675,57.025025 31.055025,57.3854 30.68535,57.8039 C30.53655,58.224725 30.18315,58.40375 30.132,58.9385 C29.9553,58.9478 29.9367,59.14775 29.711175,59.1059 C29.73675,59.503475 29.641425,59.7755 29.436825,59.912675 C29.892525,61.0589 29.218275,61.9517 29.16015,62.99795 C28.567275,63.2537 28.57425,63.2537 27.911625,63.483875 C27.651225,63.76985 27.479175,64.1651 27.21645,64.45805 L27.21645,65.588 C26.911875,66.0995 26.34225,66.297125 26.381775,67.213175 C25.949325,67.194575 25.9098,67.62935 25.833075,68.0246 C25.726125,68.059475 25.5564,68.026925 25.55175,68.18735 L24.442725,68.18735 C24.50085,68.76395 24.8124,69.054575 24.717075,69.807875 C24.196275,70.007825 23.93355,70.514675 23.1942,70.458875 C22.98495,71.021525 23.01285,71.863175 22.0875,71.593475 C23.02215,71.760875 22.457175,73.3628 22.0875,73.865 C22.010775,74.4416 22.578075,74.262575 22.503675,74.843825 C22.48275,75.2507 22.299075,75.46925 21.94335,75.490175 C21.927075,76.117925 21.47835,76.2365 21.5295,76.94795 C21.378375,77.55245 22.047975,77.20835 21.94335,77.759375 C22.131675,78.089525 22.396725,78.308075 22.7757,78.405725 C22.6827,78.99395 21.764325,78.63125 21.2505,78.731225 C21.001725,78.563825 20.783175,78.359225 20.46465,78.270875 C20.448375,78.256925 20.434425,78.247625 20.420475,78.236 C20.443725,77.9384 20.2647,77.8826 20.280975,77.596625 C19.820625,77.266475 19.862475,76.359725 19.45095,75.9761 C19.77645,75.048425 19.30215,74.481125 19.17195,73.37675 C19.457925,72.8699 19.044075,72.47465 19.309125,72.08405 C19.4835,71.55395 18.858075,71.956175 19.034775,71.43305 C19.25565,71.0471 19.843875,71.086625 19.7253,70.29845 C19.597425,69.854375 19.239375,70.584425 19.034775,70.1357 C19.323075,69.0662 18.97665,67.2527 19.7253,66.724925 C19.902,65.71355 19.350975,64.864925 19.7253,64.13255 C19.7067,63.827975 19.634625,63.5885 19.45095,63.483875 C19.592775,63.2723 19.5858,62.884025 19.7253,62.67245 C19.727625,61.642475 19.290525,61.126325 19.034775,60.40325 C18.216375,60.2777 18.025725,59.4128 17.5026,58.9385 C17.388675,58.480475 17.6979,58.517675 17.64675,58.1294 C16.909725,57.79925 16.29825,57.322625 16.3959,56.02295 C16.64235,55.927625 16.9725,55.941575 17.091075,55.699775 C16.80975,55.430075 16.36335,55.355675 16.12155,55.04645 C16.681875,54.523325 15.849525,53.914175 16.12155,52.774925 C16.2285,52.147175 16.73535,51.989075 16.677225,51.156725 C16.574925,50.710325 16.9539,50.826575 16.9539,50.5034 C16.816725,50.012825 16.58655,49.631525 16.5354,49.040975 C16.25175,49.087475 16.26105,49.478075 16.12155,49.691975 C15.4194,49.482725 15.254325,48.6527 14.45685,48.552725 L14.45685,48.07145 C14.16855,47.864525 13.88955,47.6483 13.764,47.260025 C13.315275,47.297225 13.175775,46.9694 12.650325,47.097275 C12.436425,46.7555 12.25275,46.376525 12.09465,45.96035 C10.715925,46.316075 10.044,45.488375 8.90475,45.148925 C8.614125,44.4584 8.251425,43.8632 8.35605,42.716975 C8.03985,42.214775 7.66785,41.782325 7.24005,41.419625 C7.23075,41.16155 7.25865,40.85465 6.968025,40.936025 C6.97035,41.84975 7.251675,41.69165 7.24005,42.391475 C6.819225,42.51005 6.8355,42.11015 6.410025,42.23105 C6.149625,41.614925 6.010125,40.85465 5.43585,40.6082 C5.461425,40.415225 5.414925,40.14785 5.57535,40.11995 C5.103375,39.592175 5.131275,38.476175 4.745325,37.85075 C4.61745,37.750775 4.51515,37.625225 4.41285,37.50665 C5.7102,30.36425 8.83035,23.8496 13.2897,18.476525 L13.2897,18.476525 Z M18.444225,13.273175 C20.755275,11.310875 23.28255,9.602 25.981875,8.1791 C26.04,8.36975 26.381775,8.227925 26.381775,8.486 C26.15625,9.45785 25.30065,8.9789 24.717075,9.297425 C24.414825,9.323 24.8961,9.7043 24.717075,10.10885 C24.200925,10.0949 23.92425,10.366925 23.749875,10.75985 C22.871025,10.59245 22.805925,11.380625 22.0875,11.403875 C22.229325,12.4478 21.39,12.324575 21.39,13.1918 L20.420475,13.1918 C20.322825,13.6289 21.0738,13.07555 20.9715,13.514975 C21.018,13.94045 20.7855,14.045075 20.420475,13.99625 C20.090325,15.207575 18.69765,14.3171 17.64675,14.486825 C17.649075,14.2892 17.560725,14.20085 17.444475,14.1404 C17.611875,13.984625 17.793225,13.835825 17.969925,13.682375 C18.355875,13.831175 18.788325,13.970675 19.309125,13.835825 C19.09755,13.431275 18.806925,13.296425 18.444225,13.273175 L18.444225,13.273175 Z M82.0725,25.7003 C81.874875,25.9421 81.628425,26.12345 81.535425,26.49545 C81.7563,27.251075 82.195725,26.813975 82.553775,26.63495 C82.79325,27.120875 83.018775,27.613775 83.241975,28.109 C83.2722,28.89485 83.4675,29.813225 83.34195,30.710675 C82.837425,31.259375 82.558425,32.063825 82.232925,32.81945 C81.8307,33.003125 81.41685,33.161225 81.121575,33.47045 C80.67285,34.712 81.5424,36.499925 80.707725,37.2044 C80.2683,36.9998 79.880025,36.760325 80.014875,35.9024 C79.8219,35.42345 79.3383,35.28395 79.18485,34.7678 C78.271125,34.7678 79.29645,35.52575 78.9012,35.73965 C78.917475,36.02795 78.764025,36.118625 78.485025,36.06515 C78.601275,36.523175 78.29205,36.48365 78.34785,36.87425 C78.35715,37.3532 78.661725,37.47875 78.9012,37.685675 C78.898875,38.18555 79.029075,38.5157 79.317375,38.662175 C78.8733,39.0551 79.12905,40.271075 78.9012,40.936025 C78.7245,40.943 78.71055,41.1383 78.485025,41.094125 C78.2688,42.140375 77.675925,42.744875 77.2365,43.526075 C76.508775,43.4912 75.80895,43.4819 75.708975,44.177075 C75.9531,44.16545 76.141425,44.2166 76.266975,44.3375 C76.099575,44.68625 76.09725,45.22565 75.708975,45.311675 C75.85545,47.269325 75.532275,48.6713 74.183775,48.88055 C74.1954,48.599225 74.15355,48.37835 74.048925,48.22955 C73.453725,48.120275 73.2375,47.557625 72.93525,47.097275 C72.4749,47.153075 72.719025,48.031925 72.6609,48.552725 C72.8748,49.0619 73.2468,49.385075 73.63275,49.691975 C73.66995,50.677775 74.355825,50.896325 74.3256,51.965825 C73.5351,51.41945 72.909675,50.701025 72.23775,50.0198 C72.393525,49.29905 72.007575,49.2107 71.96805,48.720125 C71.840175,48.203975 72.188925,48.2156 72.23775,47.9087 C72.168,47.399525 71.914575,47.10425 71.54955,46.934525 C71.75415,46.4393 71.500725,46.30445 71.691375,45.96035 C71.403075,45.595325 70.454475,45.99755 70.2987,45.4721 C70.18245,45.0164 70.496325,45.055925 70.44285,44.665325 C69.919725,44.4584 69.919725,43.651625 69.603525,43.205225 C69.0897,43.30055 68.701425,43.547 68.357325,43.8539 C68.166675,44.3282 67.6296,44.404925 67.669125,45.148925 C67.236675,45.03035 67.492425,45.711575 66.971625,45.4721 L66.971625,46.125425 L66.413625,46.125425 C66.543825,47.515775 66.041625,48.17375 65.860275,49.208375 C65.492925,49.203725 65.069775,49.2665 64.888425,49.040975 L64.888425,48.07145 C64.776825,47.557625 64.48155,47.24375 64.19325,46.934525 C63.97005,46.1789 63.781725,45.36515 63.367875,44.82575 C63.47715,44.260775 63.16095,44.20265 63.223725,43.688825 C63.03075,43.43075 62.540175,43.5191 62.396025,43.205225 C62.403,43.0076 62.43555,42.8216 62.66805,42.879725 C62.0682,42.6077 61.838025,41.903225 60.87315,42.065975 C60.5895,42.117125 60.5895,41.84975 60.452325,41.745125 C59.833875,41.726525 59.736225,42.3101 59.0643,42.23105 C59.1852,41.712575 58.84575,41.72885 58.787625,41.419625 C57.38565,41.596325 57.61815,39.866525 56.8416,39.308525 C56.637,39.39455 56.4975,39.548 56.2929,39.634025 C56.583525,39.7805 56.532375,40.326875 56.9811,40.285025 C56.913675,41.122025 57.425175,41.2871 57.536775,41.903225 C57.7623,41.62655 58.12035,41.498675 58.648125,41.577725 C58.52955,42.582125 59.243325,42.619325 59.4828,43.205225 C59.466525,43.781825 58.968975,43.79345 59.0643,44.50025 C58.52955,44.688575 58.276125,45.2024 57.6786,45.311675 C57.425175,45.33725 57.5949,45.860375 57.401925,45.96035 C56.276625,46.162625 55.597725,46.8857 54.62355,47.260025 C53.93535,46.67645 53.979525,45.660425 53.6517,44.99315 C53.096025,44.293325 52.705425,43.395875 52.128825,42.716975 C52.27065,42.38915 51.90795,41.5382 51.5778,41.256875 C51.37785,41.29175 51.701025,42.06365 51.5778,42.554225 C51.738225,43.009925 52.166025,43.16105 52.403175,43.526075 C52.13115,44.76995 53.086725,44.572325 52.9635,45.6395 C53.454075,46.24865 54.1446,46.63925 54.2097,47.748275 L55.4559,47.748275 C56.002275,47.7878 55.974375,47.162375 56.564925,47.260025 C56.997375,47.608775 56.811375,48.4388 56.70675,49.040975 C56.025525,50.1407 55.425675,51.3311 54.765375,52.449425 C54.402675,52.68425 54.126,52.9958 53.793525,53.26085 C53.635425,54.05135 53.39595,54.741875 53.096025,55.37195 C53.305275,56.690225 53.305275,58.592075 53.096025,59.912675 C52.021875,60.54275 51.45225,61.768025 51.43365,63.641975 C50.9547,63.516425 50.8524,63.823325 50.603625,63.967475 C50.71755,64.6394 50.3874,64.804475 50.459475,65.4299 C49.850325,65.8484 49.4295,66.4901 49.217925,67.3736 C48.02985,67.67585 47.36025,68.564 46.023375,68.673275 C45.384,67.854875 45.395625,66.27155 44.777175,65.4299 L44.777175,63.967475 C44.55165,62.879375 44.121525,62.028425 43.526325,61.372775 C43.81695,60.572975 43.74255,59.35235 44.082,58.615325 C43.916925,57.834125 43.898325,56.88785 43.526325,56.346125 C43.763475,55.211525 43.093875,54.58145 42.6963,53.7491 C42.6777,52.649375 43.1148,52.077425 42.97065,50.826575 C42.4917,50.701025 42.387075,51.007925 42.140625,51.156725 C41.6454,51.08465 41.4036,50.7173 40.7526,50.826575 C40.559625,50.728925 40.731675,50.20115 40.4736,50.180225 C39.91095,50.115125 39.927225,50.728925 39.6459,50.989325 C38.918175,50.95445 38.257875,50.99165 37.699875,51.156725 C36.825675,50.984675 36.4002,50.29415 35.760825,49.85705 C35.53995,48.920075 35.1261,48.2156 34.649475,47.5832 L34.649475,43.36565 C35.0052,42.800675 35.323725,42.205475 35.34465,41.256875 C35.649225,40.824425 36.3909,40.385 36.5955,39.959525 C36.914025,39.28295 36.769875,38.290175 37.146525,37.527575 C37.499925,37.239275 38.002125,37.118375 38.118375,36.5534 C38.541525,36.5441 38.82285,36.6929 38.95305,37.037 C39.480825,36.411575 40.455,36.31625 41.58495,36.39065 C42.1569,36.08375 42.824175,35.890775 43.665825,35.9024 C43.847175,36.118625 43.847175,36.509225 43.526325,36.5534 C43.64955,36.839375 43.9146,36.9626 43.80765,37.527575 C44.400525,38.34365 45.669975,38.378525 46.302375,39.1481 C46.665075,38.97605 46.590675,38.29715 46.995225,38.17625 C48.334425,38.234375 49.589925,38.3855 50.603625,38.824925 C51.170925,38.73425 50.89425,37.648475 51.2988,37.360175 L51.2988,36.39065 C50.626875,36.14885 51.170925,37.32065 50.603625,37.2044 C49.961925,37.234625 50.738475,36.620825 50.32695,36.39065 C49.947975,36.676625 49.02495,36.802175 48.52275,36.39065 C48.297225,36.2 48.413475,35.6792 48.106575,35.73965 C48.218175,35.044475 48.087975,35.07935 48.2391,34.444625 L47.82525,34.444625 C47.4393,35.035175 47.9229,35.830325 47.692725,36.39065 C48.1647,36.323225 48.4809,36.43715 48.38325,37.037 C48.0159,36.6836 47.5974,37.006775 47.553225,36.5534 C47.636925,36.5441 47.715975,36.527825 47.692725,36.39065 C47.32305,36.388325 46.897575,36.4511 46.720875,36.225575 L46.720875,35.253725 C46.776675,35.0003 46.553475,34.80965 46.4442,34.602725 C46.362825,34.463225 46.25355,34.081925 46.162875,33.956375 C45.70485,33.263525 44.916675,32.914775 44.502825,32.170775 C44.061075,33.440225 45.78855,33.58205 46.162875,34.444625 C45.93735,34.988675 45.72345,33.933125 45.47235,34.444625 C45.4863,34.700375 45.8211,34.5725 45.749025,34.932875 C45.4305,35.2049 44.9841,35.337425 45.056175,36.06515 C44.84925,35.7629 44.340075,35.82335 44.361,35.253725 C44.7051,35.276975 45.0306,35.28395 45.056175,34.932875 C44.90505,34.291175 44.479575,33.97265 43.80765,33.956375 C43.665825,33.742475 43.675125,33.351875 43.391475,33.310025 C43.30545,34.1726 43.8495,35.002625 42.97065,35.090975 C42.777675,34.300475 42.582375,33.286775 42.97065,32.6567 C42.408,32.705525 42.1662,33.22865 41.58495,32.81945 C40.84095,32.8706 40.945575,33.9122 40.33875,34.119125 C40.4364,35.2607 39.959775,35.728025 39.6459,36.39065 C39.118125,36.081425 39.057675,36.081425 38.536875,36.39065 C38.12535,36.27905 37.93005,35.904725 37.286025,36.06515 C37.425525,35.31185 37.104675,35.084 37.00935,34.602725 C37.59525,34.584125 37.141875,33.35885 37.286025,32.81945 C38.13465,32.965925 38.7159,32.435825 39.3669,32.81945 C39.652875,32.77295 39.6459,32.384675 39.783075,32.170775 C39.86445,31.42445 39.159975,31.6058 39.229725,30.8711 C38.857725,30.8711 38.434575,30.93155 38.25555,30.710675 C38.239275,30.2015 38.6136,30.155 38.95305,30.064325 C39.32505,29.850425 39.443625,29.34125 40.05975,29.413325 C40.1667,29.37845 40.220175,29.27615 40.19925,29.087825 C39.364575,29.0297 38.66475,29.134325 37.978875,29.2529 C37.93005,28.76 38.429925,28.91345 38.67405,28.76 C38.4927,28.381025 38.28345,28.022975 38.392725,27.30455 C38.620575,27.54635 39.146025,27.227825 39.090225,26.655875 C38.9019,26.5838 38.732175,26.562875 38.392725,26.335025 C38.313675,25.48175 38.63685,25.102775 38.536875,24.2216 C38.871675,24.07745 39.1344,23.842625 39.6459,23.8961 C39.671475,24.30065 39.429675,24.40295 39.229725,24.5471 C39.3669,24.767975 39.59475,24.870275 39.783075,25.0307 C39.27855,25.870025 40.36665,26.0165 40.19925,26.9744 C40.336425,27.199925 40.568925,27.30455 40.7526,27.4673 C40.229475,27.93695 40.3155,28.39265 40.19925,29.087825 C40.857225,29.21105 40.378275,28.004375 41.164125,28.278725 C41.057175,27.716075 41.322225,27.590525 41.447775,27.30455 C41.8965,27.227825 42.19875,26.995325 42.6963,26.9744 C42.68235,26.725625 42.7149,26.4164 42.4173,26.49545 C42.419625,26.014175 42.675375,25.837475 42.97065,25.3562 C42.73815,25.04 42.001125,25.30505 41.86395,24.870275 C41.903475,24.1193 41.86395,23.4683 41.58495,23.084675 C41.866275,22.3337 41.95695,21.359525 42.833475,21.3014 L42.833475,20.652725 C42.996225,20.6783 43.23105,20.62715 43.24965,20.815475 C43.64955,20.36675 43.92855,19.77155 44.082,19.0322 C44.6307,18.476525 45.2538,18.0185 45.749025,17.40935 C45.986175,17.47445 46.10475,17.169875 46.162875,17.40935 C46.544175,17.095475 46.8906,16.7444 47.274225,16.43285 L48.52275,16.43285 C48.822675,16.6793 49.031925,17.0327 49.217925,17.40935 C49.734075,17.4512 50.110725,17.662775 50.32695,18.058025 C51.208125,18.137075 52.359,18.6602 51.99165,19.67855 C52.824,19.79015 52.854225,18.96245 52.824,18.058025 C52.989075,18.2417 53.309925,18.239375 53.6517,18.21845 L53.6517,19.192625 C54.351525,18.98105 54.690975,18.3533 55.32105,18.058025 C56.1999,18.137075 56.816025,17.899925 57.401925,18.058025 C57.560025,17.32565 56.6277,17.88365 56.8416,17.076875 C57.815775,17.104775 57.750675,17.4884 58.648125,17.40935 C59.11545,16.8188 59.652525,16.30265 60.03615,15.621425 C60.6825,15.40985 60.656925,15.979475 60.87315,16.272425 C61.473,16.490975 61.1661,15.644675 61.70085,15.784175 C61.679925,16.1864 61.675275,16.570025 61.84035,16.760675 C62.191425,16.73975 62.1147,16.2143 62.121675,15.784175 C62.861025,15.672575 63.000525,16.26545 63.5004,16.43285 C63.62595,15.69815 62.8122,16.053875 62.8122,15.463325 C62.682,14.8751 63.353925,15.23315 63.646875,15.137825 C63.995625,15.119225 63.865425,14.533325 64.060725,14.3264 C64.530375,14.389175 64.646625,14.045075 64.888425,13.835825 C65.697525,13.9172 66.195075,13.635875 66.5601,13.1918 C66.9972,13.045325 66.841425,13.612625 67.111125,13.6754 C67.641225,13.756775 67.390125,12.92675 68.08065,13.1918 C68.055075,12.612875 68.180625,12.217625 68.496825,12.05255 C69.03855,11.961875 68.980425,12.566375 69.32685,12.70355 C69.936,12.705875 70.5777,12.757025 70.998525,12.538475 C71.1822,13.01975 71.63325,13.19645 71.82855,13.6754 C71.82855,14.161325 71.4705,14.2241 71.4147,14.6519 C72.188925,14.46125 72.453975,14.896025 72.79575,14.975075 C72.97245,15.00995 73.184025,14.91695 73.351425,14.975075 C73.6746,15.08435 73.983825,15.27965 74.365125,15.328475 C77.443425,18.3533 80.052075,21.847775 82.0725,25.7003 L82.0725,25.7003 Z M85.09965,33.1217 C85.069425,33.184475 85.04385,33.25655 85.004325,33.310025 C84.6858,33.356525 84.84855,32.840375 84.5928,32.81945 C84.102225,32.724125 84.1371,33.589025 83.753475,33.142625 C83.744175,32.48 83.9976,32.128925 83.897625,31.361675 C84.158025,31.389575 84.38355,31.468625 84.5928,31.55465 C84.771825,32.073125 84.94155,32.593925 85.09965,33.1217 L85.09965,33.1217 Z M80.15205,47.748275 C80.3799,47.357675 80.517075,46.981025 80.982075,47.260025 C80.986725,46.827575 80.9286,46.334675 81.121575,46.125425 C81.5145,46.153325 81.712125,46.40675 81.679575,46.934525 C81.926025,47.2391 82.497975,47.162375 82.3701,47.9087 C81.7098,47.831975 81.321525,48.083075 81.121575,48.552725 C80.6868,48.441125 80.94255,48.12725 80.982075,47.748275 C80.544975,47.664575 80.44035,48.09935 80.15205,47.748275 L80.15205,47.748275 Z M80.57055,54.4001 C80.056725,54.732575 80.038125,54.216425 79.73355,53.914175 C79.49175,54.062975 79.42665,54.416375 79.456875,54.886025 C78.392025,54.281525 78.884925,52.47035 79.59405,51.8054 C79.8312,52.2797 80.675175,52.054175 80.707725,52.774925 C80.517075,52.984175 80.191575,52.984175 80.014875,52.774925 C80.038125,53.5073 80.493825,53.723525 80.57055,54.4001 L80.57055,54.4001 Z M78.764025,52.6145 C78.303675,52.83305 78.522225,53.8421 78.06885,54.0746 C78.071175,54.225725 78.2409,54.20015 78.34785,54.235025 C78.336225,54.541925 77.885175,54.34895 77.931675,54.72095 C77.0319,54.96275 77.164425,53.99555 76.266975,54.235025 C76.3158,53.3678 75.708975,53.2655 75.5718,52.6145 C75.815925,51.059075 77.6643,51.384575 77.792175,49.691975 C78.4269,49.6478 78.698925,50.0384 79.038375,50.34065 C79.1058,50.85215 78.86865,51.0056 78.6222,51.156725 C78.884925,51.538025 78.447825,52.086725 78.764025,52.6145 L78.764025,52.6145 Z M77.931675,56.504225 C76.415775,56.71115 75.788025,55.871825 74.458125,55.8602 C74.34885,55.29755 74.616225,55.172 74.7441,54.886025 C75.583425,55.1999 76.378575,55.5626 77.513175,55.532375 C77.43645,56.1113 78.006075,55.9346 77.931675,56.504225 L77.931675,56.504225 Z M78.9012,43.042475 C78.838425,42.628625 78.7059,42.293825 78.485025,42.065975 C78.633825,41.69165 79.108125,41.224325 79.456875,41.577725 C79.42665,42.251975 79.475475,43.005275 78.9012,43.042475 L78.9012,43.042475 Z M80.4264,44.3375 C80.51475,45.148925 80.042775,45.2954 79.8684,45.7976 C79.535925,45.5465 79.261575,45.221 79.038375,44.82575 C79.029075,44.0213 80.052075,43.74695 80.4264,44.3375 L80.4264,44.3375 Z M83.753475,52.12625 C83.72325,52.802825 82.6956,52.960925 82.232925,52.6145 C82.195725,51.854225 83.297775,51.798425 83.753475,52.12625 L83.753475,52.12625 Z M83.204775,37.85075 C83.0862,37.7624 82.97925,37.676375 82.78395,37.685675 C82.38405,37.922825 82.04925,38.229725 81.953925,38.824925 C81.726075,38.550575 81.377325,38.41805 81.400575,37.85075 L82.232925,37.85075 C82.29105,37.397375 81.474975,37.978625 81.535425,37.527575 C81.544725,36.671975 82.43985,36.84635 82.925775,36.5534 C83.42565,36.020975 83.66745,35.830325 84.1743,35.579225 C84.1557,35.3909 84.20685,35.2886 84.311475,35.253725 C84.0999,34.439975 84.3417,34.063325 84.1743,33.310025 L84.725325,33.310025 C84.702075,34.528325 84.976425,35.393225 85.004325,36.5534 C84.56025,37.16255 83.6442,37.229975 83.204775,37.85075 L83.204775,37.85075 Z M83.776725,29.36915 C83.9976,29.9039 84.20685,30.4433 84.40215,30.992 C83.95575,30.7316 83.82555,30.10385 83.776725,29.36915 L83.776725,29.36915 Z M71.1357,50.180225 C71.486775,50.0012 71.840175,50.73125 71.82855,50.0198 C72.105225,50.022125 72.007575,50.459225 72.3819,50.34065 C72.2889,50.8382 72.726,51.0986 72.93525,51.47525 C73.128225,51.81935 73.62345,52.28435 74.048925,52.6145 C74.034975,53.39105 74.648775,54.104825 74.3256,54.72095 C73.67925,55.067375 73.481625,54.002525 72.79575,53.914175 C73.077075,51.68915 71.1357,52.07045 71.1357,50.180225 L71.1357,50.180225 Z M66.413625,48.22955 C66.70425,48.54575 66.9972,48.854975 67.111125,49.366475 C66.785625,49.417625 66.8484,49.93145 66.413625,49.85705 C65.888175,49.389725 66.618225,49.1921 66.413625,48.22955 L66.413625,48.22955 Z M56.1534,61.372775 C56.02785,61.44485 55.89765,61.51925 55.86975,61.702925 L55.86975,62.507375 C55.500075,63.246725 55.61865,63.5699 55.32105,64.2953 C54.79095,64.172075 54.658425,64.49525 54.2097,64.45805 C53.691225,63.89075 54.0888,63.242075 53.793525,62.507375 C53.9958,62.2586 54.08415,61.8773 54.2097,61.535525 C54.27945,61.024025 53.96325,60.963575 54.07485,60.40325 C54.405,59.92895 54.723525,59.429075 55.32105,59.264 C55.421025,58.619975 55.630275,58.11545 55.86975,57.643475 C56.448675,57.56675 55.91625,58.782725 56.430075,58.77575 C56.40915,59.98475 55.89765,60.66365 56.1534,61.372775 L56.1534,61.372775 Z M24.861225,76.13885 C24.833325,75.606425 25.5099,75.49715 25.41225,76.13885 L24.861225,76.13885 L24.861225,76.13885 Z M30.132,23.252075 C29.813475,23.368325 29.7135,23.735675 29.576325,24.05885 C29.115975,24.103025 29.28105,23.4311 28.883475,23.410175 L27.911625,23.410175 C27.167625,22.3151 27.93255,20.462075 26.9421,19.67855 C26.781675,19.206575 27.604725,19.076375 27.21645,18.867125 C27.48615,18.536975 27.86745,18.337025 28.1883,18.058025 C27.993,17.41865 27.056025,17.65115 26.9421,16.923425 C27.36525,16.92575 27.855825,17.0141 27.7698,16.43285 C27.437325,15.849275 27.36525,16.909475 26.8026,16.5956 C26.721225,16.072475 26.893275,15.8423 26.9421,15.463325 C26.76075,15.082025 26.553825,14.723975 26.6631,13.99625 C25.84935,14.142725 25.414575,13.835825 24.99375,13.514975 C24.568275,13.394075 24.73335,13.961375 24.303225,13.835825 C23.8452,13.61495 23.322075,13.47545 23.1942,12.863975 C23.57085,12.54545 24.405525,12.766325 24.99375,12.70355 C24.968175,11.8154 24.366,12.440825 24.02655,12.538475 C24.028875,12.106025 23.326725,12.106025 23.331375,12.538475 C23.075625,12.4757 23.080275,12.078125 22.64085,12.217625 C22.8222,11.557325 23.27325,11.524775 23.610375,11.729375 C23.987025,11.301575 24.73335,11.30855 25.1379,10.920275 C25.19835,10.404125 24.452025,10.859825 24.5799,10.2716 C26.014425,10.101875 26.670075,9.032375 28.051125,8.80685 C28.981125,9.078875 29.5461,8.785925 30.548175,8.971925 C30.78765,8.8859 30.39705,8.19305 30.40635,7.837325 C30.66675,7.376975 31.440975,7.5281 32.073375,7.51415 C32.6523,7.107275 34.012425,7.61645 34.570425,7.181675 C34.81455,7.277 35.1447,7.2677 35.2656,7.51415 C35.509725,7.084025 36.063075,7.3235 36.5118,7.51415 C37.2744,7.43045 37.890525,7.521125 38.1765,7.995425 C38.0091,8.720825 36.876825,8.316275 36.78615,9.134675 C37.06515,9.395075 37.718475,8.711525 38.313675,8.80685 C38.750775,8.73245 38.681025,9.246275 39.006525,9.297425 C39.10185,9.6206 39.838875,9.195125 39.7017,9.7787 C39.7854,10.422725 38.9391,9.971675 38.597325,10.10885 C38.104425,10.0205 38.2509,10.6808 37.760325,10.59245 C37.6557,11.092325 37.9998,11.073725 37.8975,11.56895 C37.3767,11.394575 37.499925,11.96885 37.06515,11.8898 C37.4325,12.21995 38.1393,12.152525 38.1765,12.863975 C37.6743,12.817475 37.267425,12.891875 36.92565,13.026725 C37.13955,13.914875 37.518525,15.54935 36.37695,15.621425 C36.495525,15.91205 36.760575,16.035275 36.6513,16.5956 C36.444375,16.5119 36.2979,16.3538 36.09795,16.272425 C35.705025,16.528175 36.8466,16.85135 36.37695,17.244275 C35.649225,17.281475 35.360925,16.8095 34.844775,16.5956 C34.468125,16.481675 34.5681,16.9211 34.291425,16.923425 C34.67505,16.9676 35.258625,17.6186 35.53995,17.244275 C35.928225,17.81855 34.765725,17.955725 34.709925,18.54395 C34.00545,18.69275 33.7125,19.327475 33.040575,19.5158 C32.78715,19.704125 32.57325,19.9436 32.35005,20.1668 C31.766475,19.778525 31.766475,20.489975 31.24335,20.1668 C30.882975,20.178425 31.041075,20.796875 30.68535,20.815475 C30.8202,22.00355 29.95995,22.024475 30.132,23.252075 L30.132,23.252075 Z M45.47235,10.75985 C45.656025,10.73195 45.986175,11.29925 46.023375,10.920275 C46.404675,11.557325 47.26725,11.63405 47.134725,12.863975 C46.1838,13.1081 45.97455,12.485 45.604875,12.05255 C45.4398,12.612875 45.31425,13.231325 45.19335,13.835825 C44.7981,13.87535 44.4354,13.859075 44.502825,13.352225 C43.995975,13.454525 43.758825,13.240625 43.526325,13.026725 C43.540275,12.287375 44.191275,12.287375 44.223825,11.56895 C43.56585,11.501525 43.544925,12.180425 42.97065,12.217625 C42.712575,11.906075 42.954375,11.803775 42.97065,11.403875 C42.875325,10.9784 42.340575,11.0621 42.28245,10.59245 C42.326625,9.055625 43.64955,9.818225 43.944825,10.59245 C44.307525,10.455275 43.67745,9.883325 44.082,9.6206 C44.665575,9.4811 45.105,9.999575 44.777175,10.4297 C44.89575,10.669175 45.121275,10.77845 45.47235,10.75985 L45.47235,10.75985 Z M45.330525,9.297425 C46.455825,9.32765 47.669475,9.381125 48.943575,9.6206 C49.10865,10.362275 48.453,10.1321 48.38325,10.59245 C47.060325,10.790075 46.34655,10.273925 45.47235,9.94145 C45.363075,9.799625 45.325875,9.57875 45.330525,9.297425 L45.330525,9.297425 Z M38.118375,27.7928 C37.844025,28.016 37.323225,27.943925 37.00935,28.115975 C36.79545,27.878825 36.886125,27.28595 36.86985,26.8163 C37.107,26.5373 37.4139,27.055775 37.425525,26.335025 L38.118375,26.335025 C38.0835,27.0767 37.974225,27.111575 38.118375,27.7928 L38.118375,27.7928 Z M37.06515,21.6269 C36.635025,21.5339 36.7908,20.759675 36.09795,20.9759 C35.97705,20.34815 36.430425,20.401625 36.5118,20.001725 C36.177,19.93895 36.211875,20.299325 35.8143,20.1668 C35.8236,19.573925 36.5397,19.81805 36.37695,19.0322 C36.858225,18.99965 36.825675,19.5809 37.206975,19.67855 C37.774275,19.415825 37.983525,19.736675 38.597325,19.5158 C38.555475,20.215625 39.0135,20.32025 38.86935,21.13865 C38.694975,21.3665 38.192775,21.21305 38.1765,21.6269 C38.030025,21.45485 37.18605,21.2921 37.06515,21.6269 L37.06515,21.6269 Z M55.73955,13.99625 C56.560275,13.607975 57.32985,13.1639 58.37145,13.026725 C58.503975,13.0244 58.480725,12.8291 58.51095,12.70355 L59.206125,12.70355 C59.13405,13.542875 58.694625,13.94045 57.815775,13.835825 C57.081075,14.221775 56.71605,15.03785 55.73955,15.137825 C55.5768,16.29335 56.2371,16.500275 56.430075,17.244275 C56.1906,17.24195 56.0697,17.3675 56.0139,17.569775 C55.5024,17.300075 55.0746,16.937375 54.62355,16.5956 C54.658425,16.095725 55.007175,15.965525 55.18155,15.621425 C55.06995,14.7356 55.8,14.835575 55.73955,13.99625 L55.73955,13.99625 Z M55.73955,10.4297 C55.690725,9.595025 56.9718,9.246275 56.9811,10.2716 C56.462625,10.204175 56.211525,10.93655 55.73955,10.4297 L55.73955,10.4297 Z M64.888425,10.2716 C65.655675,9.8624 66.9228,10.129775 67.2483,10.75985 C66.990225,11.81075 65.844,11.022575 64.7559,11.245775 C64.83495,10.9598 64.586175,10.2902 64.888425,10.2716 L64.888425,10.2716 Z M19.17195,21.6269 C19.006875,22.642925 18.007125,20.838725 18.0606,22.11515 C17.551425,22.11515 17.105025,22.038425 17.091075,21.46415 C17.709525,21.6455 17.588625,20.9666 17.78625,20.652725 C18.207075,20.53415 18.19545,20.93405 18.6186,20.815475 C18.97665,21.215375 18.620925,21.447875 19.17195,21.6269 L19.17195,21.6269 Z M21.5295,44.50025 C21.65505,45.18845 21.1947,45.1931 20.6925,45.148925 L20.6925,44.50025 L21.5295,44.50025 L21.5295,44.50025 Z M17.64675,44.01665 C17.039925,43.912025 16.9818,43.17035 16.3959,43.042475 C15.71235,42.833225 15.714675,43.433075 15.152025,43.36565 C15.12645,42.9611 15.36825,42.86345 15.426375,42.554225 L17.5026,42.554225 C17.574675,43.0169 18.035025,43.023875 18.33495,43.205225 C18.3396,43.526075 18.718575,43.409825 18.6186,43.8539 C19.453275,43.898075 20.2182,43.744625 20.420475,44.82575 C20.029875,44.85365 19.46955,44.688575 19.45095,45.148925 C19.146375,45.014075 18.97665,44.730425 18.4791,44.82575 C18.4047,44.414225 18.239625,44.198 18.7488,44.177075 C18.65115,43.809725 17.974575,44.1143 17.64675,44.01665 L17.64675,44.01665 Z M17.923425,44.99315 C17.430525,45.2024 17.411925,44.97455 16.9539,45.148925 L16.9539,44.50025 C17.393325,44.5235 18.0141,44.34215 17.923425,44.99315 L17.923425,44.99315 Z M17.091075,42.23105 L17.091075,41.577725 C17.444475,41.59865 17.6328,41.819525 17.64675,42.23105 L17.091075,42.23105 L17.091075,42.23105 Z M18.0606,41.577725 L18.4791,41.577725 C18.597675,41.76605 18.66045,42.0125 18.6186,42.391475 C18.104775,42.50075 18.007125,42.13805 18.0606,41.577725 L18.0606,41.577725 Z M18.7488,43.042475 L18.7488,42.23105 C19.109175,42.251975 19.290525,42.465875 19.309125,42.879725 C19.51605,42.907625 19.820625,42.8216 19.867125,43.042475 C20.0136,43.6121 19.016175,43.47725 19.309125,42.879725 C19.123125,42.930875 19.044075,43.107575 18.7488,43.042475 L18.7488,43.042475 Z M85.283325,56.1485 L85.283325,55.206875 C84.767175,54.514025 83.95575,54.16295 83.34195,53.584025 C82.99785,53.374775 82.67235,53.94905 82.651425,53.584025 C82.5282,53.06555 83.1048,53.36315 83.0583,52.93535 C83.49075,52.816775 83.330325,53.38175 83.753475,53.26085 C84.10455,53.291075 84.1929,53.012075 84.311475,52.774925 L85.283325,52.774925 C85.566975,52.8749 85.785525,53.04695 85.9971,53.23295 C85.79715,54.216425 85.5507,55.18595 85.283325,56.1485 L85.283325,56.1485 Z" id="Fill-1" sketch:type="MSShapeGroup"></path>
            <path d="M20.0043,13.835825 C19.964775,13.7963 19.7904,13.9172 19.867125,13.99625 C19.90665,14.045075 20.07405,13.924175 20.0043,13.835825" id="Fill-2" sketch:type="MSShapeGroup"></path>
            <path d="M78.34785,35.253725 C78.140925,35.2235 78.2223,34.8608 78.210675,34.602725 C77.68755,34.5353 77.57595,34.946825 77.376,35.253725 C77.736375,35.1212 78.1386,35.746625 78.34785,35.253725" id="Fill-3" sketch:type="MSShapeGroup"></path>
            <path d="M70.2987,15.300575 C70.34055,15.347075 70.5126,15.2192 70.44285,15.137825 C70.403325,15.091325 70.226625,15.216875 70.2987,15.300575" id="Fill-4" sketch:type="MSShapeGroup"></path>
            <path d="M70.7172,15.137825 C70.756725,15.179675 70.924125,15.058775 70.8567,14.975075 C70.81485,14.933225 70.64745,15.0518 70.7172,15.137825" id="Fill-5" sketch:type="MSShapeGroup"></path>
            <path d="M61.1475,17.732525 C61.103325,18.160325 61.4358,18.1487 61.70085,18.21845 C61.8264,17.693 61.2498,17.992925 61.1475,17.732525" id="Fill-6" sketch:type="MSShapeGroup"></path>
            <path d="M6.968025,40.936025 L6.968025,40.77095 C6.805275,40.8035 6.888975,40.936025 6.968025,40.936025" id="Fill-7" sketch:type="MSShapeGroup"></path>
            <path d="M43.391475,33.310025 L43.391475,32.984525 C43.2171,33.026375 43.24965,33.3077 43.391475,33.310025" id="Fill-8" sketch:type="MSShapeGroup"></path>
            <path d="M46.995225,20.1668 C46.54185,21.257225 45.54675,21.722225 45.47235,23.252075 C45.581625,23.552 45.697875,23.842625 45.749025,24.2216 C45.442125,24.8912 45.228225,25.6724 44.916675,26.335025 C43.67745,26.995325 43.944825,24.781925 43.24965,24.70985 C43.275225,25.437575 43.489125,25.9421 43.80765,26.335025 C43.48215,26.3792 43.48215,26.767475 43.80765,26.8163 C43.819275,26.4164 44.265675,26.78375 44.223825,26.9744 C44.5842,26.962775 44.665575,26.5838 45.056175,26.49545 C45.37005,26.4164 45.7095,26.55125 46.162875,26.49545 C46.599975,26.08625 46.41165,24.944675 46.720875,24.38435 C47.348625,24.0821 46.96035,24.97025 47.274225,25.0307 L47.274225,23.410175 C46.7976,23.3195 46.4256,23.1056 46.162875,22.7615 C46.03965,21.373475 47.16495,21.4409 47.274225,20.327225 C47.241675,20.204 47.1603,20.141225 46.995225,20.1668" id="Fill-9" sketch:type="MSShapeGroup"></path>
            <path d="M24.5799,27.4673 C24.54735,27.418475 24.368325,27.54635 24.442725,27.6254 C24.4776,27.674225 24.656625,27.548675 24.5799,27.4673" id="Fill-10" sketch:type="MSShapeGroup"></path>
            <path d="M74.7441,43.8539 C74.34885,44.32355 75.192825,44.270075 75.01845,44.99315 C75.1998,45.15125 75.527625,45.148925 75.708975,45.311675 C75.52065,44.3096 75.4509,44.804825 75.708975,44.177075 C75.104475,44.386325 75.141675,43.400525 74.7441,43.8539" id="Fill-11" sketch:type="MSShapeGroup"></path>
            <path d="M50.18745,19.5158 C50.152575,19.8041 50.203725,21.164225 51.0198,20.9759 C51.408075,20.8178 50.8152,20.54345 51.15465,20.327225 C51.487125,20.169125 52.03815,20.276075 51.99165,19.67855 C51.538275,19.443725 50.8245,19.527425 50.18745,19.5158" id="Fill-12" sketch:type="MSShapeGroup"></path>
            <path d="M48.799425,17.569775 C48.83895,17.6186 49.008675,17.4884 48.943575,17.40935 C48.901725,17.36285 48.72735,17.486075 48.799425,17.569775" id="Fill-13" sketch:type="MSShapeGroup"></path>
            <path d="M51.2988,40.936025 C51.333675,40.977875 51.50805,40.85465 51.43365,40.77095 C51.398775,40.72445 51.222075,40.85 51.2988,40.936025" id="Fill-14" sketch:type="MSShapeGroup"></path>
            <path d="M51.43365,20.815475 C51.473175,20.85965 51.645225,20.73875 51.5778,20.652725 C51.53595,20.60855 51.3639,20.72945 51.43365,20.815475" id="Fill-15" sketch:type="MSShapeGroup"></path>
            <path d="M61.1475,17.732525 C61.2777,17.05595 60.73365,17.69765 61.1475,17.732525" id="Fill-16" sketch:type="MSShapeGroup"></path>
            <path d="M47.692725,23.8961 C48.10425,23.89145 48.539025,23.912375 48.52275,23.410175 C48.180975,23.4962 47.688075,23.4032 47.692725,23.8961" id="Fill-17" sketch:type="MSShapeGroup"></path>
            <path d="M71.1357,14.812325 C71.16825,14.8565 71.34495,14.7356 71.27055,14.6519 C71.235675,14.607725 71.0613,14.7263 71.1357,14.812325" id="Fill-18" sketch:type="MSShapeGroup"></path>
            <path d="M36.09795,9.297425 C36.332775,9.088175 36.63735,8.962625 36.6513,8.486 C36.06075,8.585975 34.761075,8.30465 34.291425,8.971925 C35.040075,8.906825 35.6748,8.9789 36.09795,9.297425" id="Fill-19" sketch:type="MSShapeGroup"></path>
            <path d="M35.677125,16.272425 C35.72595,15.8423 36.02355,15.705125 36.09795,15.300575 C35.677125,15.2006 35.30745,15.979475 35.677125,16.272425" id="Fill-20" sketch:type="MSShapeGroup"></path>
            <path d="M6.823875,40.285025 C6.582075,40.13855 6.591375,39.685175 6.270525,39.634025 C6.1566,40.117625 6.64485,40.68725 6.823875,40.285025" id="Fill-21" sketch:type="MSShapeGroup"></path>
            <path d="M6.270525,39.308525 C6.270525,39.215525 6.16125,39.12485 6.131025,39.308525 C6.131025,39.401525 6.24495,39.4922 6.270525,39.308525" id="Fill-22" sketch:type="MSShapeGroup"></path>
        </g>
    </g>
</svg>