<?xml version="1.0" encoding="UTF-8" standalone="no"?>
<svg width="128px" height="128px" viewBox="0 0 128 128" version="1.1" xmlns="http://www.w3.org/2000/svg" xmlns:xlink="http://www.w3.org/1999/xlink" xmlns:sketch="http://www.bohemiancoding.com/sketch/ns">
    <title>Untitled 2</title>
    <description>Created with Sketch (http://www.bohemiancoding.com/sketch)</description>
    <defs></defs>
    <g id="Page-1" stroke="none" stroke-width="1" fill="none" fill-rule="evenodd" sketch:type="MSPage">
        <path d="M43.3032037,93.6835236 C43.2143941,93.5105178 43.1440384,93.4228616 43.1300826,93.2292104 C42.9607676,93.0382121 42.8509666,92.8331425 42.8035631,92.5844756 C42.7152148,92.1204741 42.7748441,92.0001774 43.1270839,91.6606247 L43.1344654,91.2409127 L43.2216603,91.5373293 L43.3844011,91.2826648 C43.3271939,91.0176199 43.2156628,90.830889 43.2308873,90.7259322 L43.0945588,91.1312271 C42.962959,90.4606567 42.6085279,89.9076149 42.3573235,89.2856015 C42.1719766,88.8260981 42.0131573,88.3545997 41.8283872,87.8945197 C41.7298892,87.6487361 41.5992122,87.4117182 41.5060197,87.1644353 C41.4338187,86.9722836 41.3848004,86.7567184 41.3259784,86.5591458 C41.114104,85.8766957 40.9959987,85.2745202 40.7287625,84.7352035 L40.6757074,84.3705074 C40.7890838,84.1530968 40.6525246,83.8300373 40.5957787,83.6236991 C40.4160834,82.9704293 40.244577,82.6253404 39.7797681,82.1353881 C39.6648923,82.0141687 39.4952313,81.8671138 39.3233789,81.8231703 C39.2237276,81.5816543 39.095934,81.5956101 39.0743659,81.5958407 C38.7922511,81.4113012 38.6094417,81.1371448 38.3524705,80.9404949 C38.3366693,80.9284998 37.9070383,80.6911359 37.8801647,80.6791408 C37.7239982,80.6097078 37.5394587,80.6420022 37.4147792,80.506135 L37.5971272,80.2589674 C37.8538678,80.1684278 38.4568506,79.9931152 38.6044822,79.7858543 C38.7110538,79.3398454 38.5172873,79.9577067 37.7258435,79.9908085 L37.7538705,79.5238082 C37.760214,79.4193127 37.719154,79.3122798 37.7273429,79.2208175 C37.7457969,79.008597 37.9070383,78.7911864 37.869669,78.5746986 C38.097806,78.4314498 38.2039162,78.4151872 38.309219,78.3965026 L38.4984873,78.4789687 C38.438166,78.1657129 38.2950325,78.0886677 38.2487823,78.01762 C38.2530498,77.9247735 38.2226008,77.6992893 38.1344832,77.6398907 C38.0303337,77.4900677 37.9648222,76.9442921 38.0209914,76.8422187 L38.3992974,76.8081942 C38.4413954,76.5928597 38.399874,76.3369265 38.2655062,76.2236654 C38.4800334,76.0659995 38.3824581,75.5928863 38.516826,75.343758 C38.5457756,75.2860894 39.2352613,75.2146957 39.3349126,75.2007399 L39.1594847,75.0766371 L38.5849902,75.1099696 C38.4490077,74.9430767 38.6000994,74.5846087 38.6267423,74.5122923 L38.8907491,74.3199098 L38.8712571,73.9617879 L39.0808248,73.6803652 L39.2910845,73.5506108 L39.2444882,73.1859147 C39.236184,73.0619272 39.146221,72.9141803 39.1301891,72.8069167 L39.2996194,72.567246 L39.4488657,72.2990871 L39.6242936,72.3815531 L39.955888,72.5130375 C39.7883031,72.3417618 39.6232556,72.0167416 39.4027309,71.7901041 C39.6806935,71.1616317 39.6770027,70.8403024 39.7295964,70.2850692 L39.7552013,71.0000444 L39.9861063,70.9594457 C40.1118239,70.9238065 40.1381207,70.7978583 40.1820642,70.7330388 L40.3190848,70.2240558 L40.2038629,69.8385989 L39.9738806,69.7693966 L39.9610782,69.4050464 L40.0903711,69.1784089 L39.8602735,68.95131 L40.0305112,68.6081818 C40.0790681,68.6067978 40.186793,68.5802702 40.2137819,68.5325206 L39.896028,68.3468278 C39.8752673,68.1487938 39.8707692,67.9557194 39.8222122,67.8579135 L40.0400841,67.3360127 L40.3655657,67.3026803 C40.1261257,67.2218289 39.8192134,66.8559793 39.8654636,66.566137 L40.4541446,66.477558 L39.9676524,66.3802135 L40.0425062,66.0921012 L39.9077924,65.8307471 L40.0969454,65.8447029 C39.9480451,65.628907 39.8169067,65.5723918 39.7321339,65.5759673 C39.8278637,64.9148545 39.6387107,64.2381713 39.5725072,63.7061209 L39.4165713,63.7888176 C39.8908378,62.8681962 39.9193261,61.7238207 40.6963527,60.9798958 C40.8584015,61.0195718 40.8384481,61.1909629 40.8384481,61.2618953 L41.0011889,61.1179545 L41.2903392,61.3492055 C41.4379708,61.3722729 41.0784648,60.9971964 40.9953067,60.8980064 C40.9435203,60.7074694 41.0661237,60.5571851 41.0981875,60.3825646 C41.124369,59.9018392 41.2164081,59.417769 41.4054457,59.277173 L41.2293258,59.2355363 C41.3263244,58.8932155 41.7497272,58.2026918 42.0731327,58.1033865 C41.983631,57.929458 42.3965381,57.4839105 42.4756594,57.390026 C42.8207483,57.1045665 43.0232804,56.8339854 43.2511867,56.5193456 C43.2835964,55.8367802 43.6705527,55.8597323 43.7763169,55.5792322 C43.8129941,55.481657 43.820145,55.3478658 43.8655878,55.2561728 C43.9310994,55.1243424 44.0576243,55.0106199 44.1244045,54.8790202 C44.2293613,54.6724513 44.2981023,54.433934 44.3915254,54.2205602 C44.4267032,54.1401702 44.4752602,54.0502072 44.5437705,53.9969214 C44.7517234,53.6594448 44.8502214,53.3833276 44.9721328,53.1300471 C45.1238012,52.8144846 45.4707354,52.3595947 45.4365956,51.9870556 C45.5902248,51.5353952 45.9015198,51.4108311 46.0551489,51.0197227 L46.2936662,50.7607907 C46.4749763,50.7340325 46.7333316,50.5446488 46.8484381,50.410973 C47.0580058,50.172225 47.2637673,49.7443241 47.5029766,49.551019 C47.5938623,49.4775492 47.7389565,49.4594413 47.8148484,49.361174 C47.8083895,49.2798613 47.8303035,49.0859795 47.9057341,49.0316556 C47.7097762,48.8875995 47.8980065,48.3770018 47.9412579,48.2317923 L48.2091862,47.6225813 C48.3748104,47.2047146 49.0255428,46.6515575 49.3415667,46.2997791 L49.5837747,46.297357 L49.8162945,46.4880094 C50.0279382,46.5153443 50.1280509,46.7735843 50.1582692,46.8366737 C50.1097123,46.2517988 49.869811,46.1206605 49.3339544,45.9684154 L49.6527464,45.2917321 C49.8830747,45.0216124 49.9417814,44.8225405 50.0333591,44.6524181 C50.1463895,44.4421584 50.2516924,44.3414691 50.3453462,44.069504 C50.3235474,43.9945348 50.4285043,43.3886686 50.4285043,43.3886686 L50.5829408,43.4660598 C50.6211174,43.3612183 50.7419907,43.1897119 50.8539831,43.1506126 C50.8178826,42.7492392 50.9347192,42.1269951 51.2437075,41.8494939 C51.2341345,41.7161641 51.2844215,41.5108639 51.3615821,41.4006016 C51.6144012,41.333706 51.9139319,40.7384508 51.8398854,40.4882844 C51.9462263,40.3825202 52.0363046,40.1940593 52.0631782,40.0479271 C52.126729,39.987029 52.3696291,39.9712278 52.4500191,39.9721505 C52.3440242,39.7774614 52.3396414,39.5668557 52.4823135,39.4035382 C52.7210615,39.2913151 52.8593508,39.0592567 52.8374367,38.9146239 L53.0448129,38.7488844 C53.3177007,38.3494717 53.5812462,38.3009147 53.7750127,38.0530551 C53.8040776,38.0159166 53.9168774,37.7041602 53.9551693,37.6424548 C54.0490538,37.4917091 54.1993382,37.3657609 54.2964521,37.2163992 C54.3081011,37.1986373 54.4090212,36.7583952 54.4287438,36.7051095 C54.5009449,36.511689 54.6275851,36.3178072 54.6860611,36.1215033 C54.7432683,35.9302743 54.722969,35.6903729 54.7881345,35.5037574 C54.8900925,35.211839 55.0777461,34.8970838 55.2119986,34.6154304 C55.3618216,34.1266314 55.5424397,33.8928429 55.6994136,33.6722029 C55.7498159,33.6012705 55.9381615,33.636333 56.0102473,33.6272214 C56.1607623,33.6080754 56.3435717,33.5158057 56.49178,33.5164977 C56.6369895,33.5171897 56.8313327,33.6123429 56.969968,33.5297615 L56.7368715,33.32573 L56.6089626,33.1425745 L56.7672052,32.5823818 C57.0351335,32.5497414 57.161543,32.3267946 57.2598103,32.0962356 C57.5502294,31.9125035 58.2495187,31.8509134 58.5699254,31.8988937 C58.5812284,31.9006237 58.9256253,32.0817031 58.9588424,32.098773 C58.96657,32.1028098 59.4549076,32.0841252 59.4938916,32.0828565 C59.3801691,31.8730582 59.1983977,31.8878213 58.9997871,31.8804397 L58.7831838,31.7830952 L58.6228652,31.6807911 C58.8217065,31.3713414 59.0792544,31.1832265 59.3204244,30.9223338 C59.5078474,30.7196863 59.3947016,30.2951302 59.5891601,30.0698766 C59.666782,29.980029 59.786502,29.8988316 59.8794638,29.819941 C59.905876,29.7973349 60.0116402,29.7613497 60.0495861,29.7458945 C60.2037919,29.7427804 60.3589204,29.6253671 60.4561497,29.6401303 C60.5777151,29.3753161 60.6206205,29.191584 60.6845173,29.0308039 C60.8016999,28.7782155 60.9116162,28.0332526 61.0139203,27.973508 C61.0668601,27.7601342 60.9923523,27.4364981 61.0319129,27.2542653 C60.9476014,26.9437776 61.074703,26.7319032 61.1983445,26.6373267 L61.433863,26.7163327 L61.5957964,26.7129879 C61.6288982,26.654858 61.7502329,26.4466743 61.7502329,26.4466743 L61.7243974,26.1087364 C61.8416953,25.9065503 61.802942,25.696752 61.8908289,25.4860309 C61.9397319,25.369079 62.0080115,25.2518965 62.0648727,25.1380587 C62.0689095,25.1298697 62.321498,24.8959659 62.3382219,24.879934 L62.5560938,24.8965426 C62.5897723,24.7727858 62.3896622,24.7169626 62.3223053,24.7050829 C62.4169972,24.3691057 62.5761625,24.0759185 62.9158305,23.9266722 C63.0150205,23.5939244 63.1542324,23.5073062 63.2493856,23.4138831 C63.3774099,23.2098516 63.5110857,23.1083549 63.5233114,23.0866715 C63.6304597,22.8956731 63.7098116,22.6503509 63.7966605,22.4473575 C63.8291856,22.1954611 63.7051982,22.0459841 63.8131538,21.853025 C63.9912344,21.5351557 64.2205247,21.2661894 64.4595033,20.9946857 C64.5913337,20.844978 65.0511831,20.7102642 65.2155386,20.6084214 C65.417494,20.4832806 65.5903844,20.2938969 65.7923398,20.1688714 C65.9546193,20.0684127 66.1647636,20.0213552 66.3399608,19.9157063 C66.5608315,19.8135176 66.7182667,19.8288574 66.8421389,19.7941409 C67.0451323,19.7372797 67.2903392,19.6465093 67.4837596,19.5627745 C67.5962134,19.5141022 67.7264291,19.3743136 67.855376,19.3754669 C67.9455697,19.3885001 68.263439,19.0924295 68.2798169,19.0832025 C68.4456717,18.9892027 68.691686,18.9520641 68.8709199,18.8759416 C68.9538474,18.8407638 69.0278938,18.7660253 69.1108213,18.7302707 C69.3544134,18.6250832 69.6562508,18.4990197 69.9106847,18.42728 C70.2353588,18.3357022 70.5243938,18.4072113 70.8406484,18.477221 C70.9142335,18.4934835 71.0336075,18.4723768 71.1094993,18.4705314 L71.3258719,18.2749195 C71.6635792,18.1441272 72.107858,18.3271673 72.4580217,18.2099847 C72.6236459,18.1546229 72.7952676,18.0064146 72.957547,17.9327141 C73.1373577,17.8510554 73.3483094,17.8128788 73.5244293,17.7254532 C73.7811699,17.5978903 74.5647707,16.9797983 74.5580811,16.6964148 L74.2938436,16.4775049 L74.6118283,16.2335667 L74.734893,15.9361121 C74.8413493,15.6786795 74.9566864,15.6922893 75.0901316,15.4993302 C75.0985512,15.4869891 75.2800919,15.0978415 75.2867815,15.0781188 C75.3277262,14.7748974 75.4201112,14.6048904 75.4872375,14.4504539 L75.7863068,14.5378795 C76.0605786,14.3278504 76.0892976,14.2302752 76.1745318,13.9393948 C76.3178959,13.8650023 77.1137224,13.5075724 77.1320611,13.3723972 L77.3733464,13.4772387 C77.5057535,13.4430989 77.6505017,13.3793174 77.7652622,13.304925 C77.8456522,13.0782874 78.1788613,13.2382601 78.2482943,13.2658257 L78.548863,13.2409128 L78.8219815,13.0786334 L79.1376593,13.2359533 C79.2414628,13.2313398 79.3897864,13.2738993 79.486439,13.3058477 C79.6648656,13.6021489 79.8156113,13.5308705 79.9549386,13.636404 C80.484567,14.0375468 80.5031363,14.366027 80.6375041,14.9608209 L80.9745193,15.0307152 L81.2204182,15.7375015 C81.3291812,15.8137394 81.5874211,15.9481072 81.7290552,15.9314986 L81.9763381,15.7741787 C82.0310079,15.7060144 82.2007843,15.5265498 82.2951301,15.5127093 L82.0861391,15.8832877 L81.9460044,16.2745114 C81.952002,16.4439418 82.4102366,16.6776149 82.5598289,16.7582356 L82.652906,17.0487699 L82.9238331,16.9862572 L83.1681172,17.1928261 L83.3792996,17.2668726 L83.6042071,17.2968602 L83.6829824,17.6431024 L83.419783,17.680587 L83.3864505,18.0369789 C83.4821804,17.8963829 83.7384596,17.7713574 83.899701,17.7422924 C83.920577,17.6447172 84.0043118,17.4638685 84.0956589,17.409314 L84.2941542,17.1945561 C84.5483573,17.3869386 84.6936822,17.7526728 84.8433898,17.7590163 L85.0771783,17.6399883 C85.0907881,17.7230311 85.1586063,17.9059559 85.2452246,17.9447092 L85.5508681,17.9522061 C85.5802791,18.0563556 85.6064606,18.1615431 85.6311428,18.2668459 L85.8239866,18.2843772 C85.9691961,17.9000737 86.5661813,18.0344415 86.7745956,18.2768803 C86.9695155,18.1932608 87.3406705,18.2375503 87.5096395,18.3643059 L88.1172358,18.2918741 L88.3082342,18.1969516 L88.1629093,18.487486 L88.3672868,18.5739889 C88.382742,18.6762929 88.3518316,18.8719048 88.2704036,18.9469893 C88.3404132,19.1009645 88.1809019,19.34744 88.2014319,19.445592 C88.2479128,19.6687694 88.3714389,19.9900988 88.5715489,20.1190458 C88.6445574,20.5329909 88.5613993,21.1025259 88.9000292,21.2288202 C89.0671528,21.3167071 89.1827207,21.3222433 89.3348504,21.2904102 C89.6679442,21.2207466 89.7828201,21.0906462 90.0895016,21.32282 L90.2031087,21.5508416 L90.3861489,21.4426553 L90.601022,21.5924783 C90.5991766,21.832149 90.4035648,21.9004286 90.299646,21.9105782 C90.1936511,22.0253387 90.0892709,22.1736624 89.9718577,22.2711223 C89.7359932,22.382192 89.6580252,22.4922237 89.5587199,22.5482775 C89.4688722,22.5991412 89.312821,22.6278602 89.2153611,22.6595779 C88.7083388,22.8247408 88.4021186,22.9589932 88.2313043,23.4782412 C88.0322323,23.5240301 87.9777931,23.7038408 87.8300462,23.7995706 C87.4885328,24.021018 87.5196738,23.7345205 87.3405552,24.2416581 C87.1233753,24.749949 86.9582124,24.9414088 86.7109295,25.1424415 L86.4503828,25.3538545 C86.4252393,25.3828042 86.3086334,25.6350466 86.2742629,25.6877557 C86.1944496,25.8097824 86.0844179,25.916008 86.0031052,26.0373427 C85.7147622,26.4684731 85.4299947,28.3845697 85.4758989,29.0218076 C85.5083087,29.4743908 85.6626298,29.890066 85.8117608,30.3128921 C85.8167203,30.3268479 85.6081907,30.489358 85.6081907,30.489358 L85.8548969,30.5901627 C85.8971103,30.821183 85.9757703,30.9575116 85.9768083,30.9681226 C86.0225972,31.3697267 86.055699,31.779635 86.1152129,32.1793937 C86.1704595,32.5517021 86.5416145,33.335303 86.814387,33.6045 C86.92488,33.7136089 87.125336,33.7448653 87.2708915,33.785118 L86.7282301,33.8093388 C86.6296168,34.1772644 86.6510695,34.3315856 86.8190004,34.4436933 L87.006654,34.3920223 C86.8040066,34.8480655 87.1037679,35.8976338 86.9165757,36.0227747 C86.6572977,36.0514937 86.3618038,36.1626787 86.1333209,36.2842441 C86.0019518,36.3961212 86.0138316,36.7262162 86.0568523,36.8769619 C86.2101354,36.9518157 86.3491168,37.2220507 86.3800271,37.37914 L86.5717175,37.4214687 C86.1834926,37.5536451 85.8031105,37.8971193 85.5731282,38.1157986 C85.5242252,38.5772626 85.1261966,38.7180893 85.018241,38.9716005 C84.888948,39.2752833 84.7813384,39.547479 84.7353189,39.8781507 C84.7104061,40.0573847 84.7232085,40.2501131 84.6914908,40.4276171 C84.6409731,40.7120386 84.5388997,41.0165287 84.429214,41.2822656 L84.2315261,41.7611456 C84.2167629,41.8246964 84.2442132,42.2622857 84.2442132,42.2622857 C84.2415604,42.3621677 84.1427164,42.5325207 84.2049985,42.6236371 C84.1833151,42.7051804 84.1386796,42.9090966 84.0663632,42.9773762 C83.970172,43.0680312 83.6310807,43.3466859 83.6077826,43.4727494 C83.5731814,43.6612104 83.5544968,43.959703 83.4865632,44.1328241 C83.2171355,44.4661486 83.09211,44.6529948 82.7737794,44.6406537 C82.6604029,44.6863272 82.4973162,45.0595584 82.4581015,45.1650919 C82.3396502,45.2370623 81.751892,45.5841119 81.7288245,45.6104088 C81.4169528,45.9681847 81.2290685,46.2708295 81.0649437,46.7325242 C81.3973454,47.4687215 81.3425603,47.4504982 81.1239963,48.2226806 C81.0679425,48.4204839 80.4026776,48.8671848 80.2438583,49.0776752 L80.05459,49.4151518 C80.0009582,49.5108816 79.9212602,49.6431734 79.9183767,49.7635854 C79.9430589,50.1423527 79.9521705,50.2702617 79.9977287,50.3597633 C80.3029109,50.9597473 80.2526239,50.980854 80.7287358,51.4336678 C80.8298865,51.529859 80.8408435,51.8630682 80.7929786,51.9862483 L80.5689938,52.1878577 C80.0543593,52.4768927 79.6796288,53.0025995 79.7454863,53.6214989 L79.8718959,53.8837756 C79.6787061,54.4559634 79.7487157,54.8073958 79.6527552,55.3446364 C79.6005075,55.6370161 79.5603701,55.940699 79.4945126,56.2297339 C79.4407655,56.4653678 79.2743339,56.7102286 79.1947513,56.9413644 C79.1398508,57.100645 79.1044422,57.2776876 79.0606141,57.441005 C79.0165553,57.6045532 78.8181753,57.7178143 78.7981067,57.9262286 C78.7743472,58.1701667 78.7654663,58.478117 78.7760773,58.7229778 C78.7827668,58.8743002 78.846433,59.0327735 78.8526612,59.1840959 C78.856352,59.2737129 78.7548552,59.4911235 78.7248676,59.5539822 C78.6426322,59.7258346 78.5667403,59.8839619 78.4663969,60.0462413 C78.2303017,60.4284688 78.0969719,60.5772537 78.2980046,61.0063081 C78.2549839,61.1275274 78.1838208,61.2603959 78.1587927,61.3827686 C78.097664,61.6807999 78.0917818,62.0010913 78.0211954,62.2960084 C78.0140445,62.3262268 77.9010141,62.4906976 77.8827908,62.5349871 C77.7899444,62.7602406 77.7358512,63.1285122 77.7118611,63.3648381 C77.6900624,63.5787886 77.7287003,63.8124617 77.6989433,64.0242208 C77.6967519,64.0395607 77.4870689,64.9185453 77.4658469,64.9639882 C77.3852262,65.1360713 77.2422081,65.3071163 77.1760045,65.4827748 C77.1223727,65.6251009 77.1344831,65.8152919 77.0897323,65.9632695 C77.0607827,66.0592301 76.9703583,66.1542679 76.9444075,66.2502285 C76.8951585,66.4340759 76.9462529,66.6838963 76.9746258,66.8652063 C76.9950405,66.994038 77.0447508,67.1904572 77.1995333,67.2294411 C76.8910063,67.8864017 76.8470629,68.0622909 76.7741698,68.6663118 C76.6933184,69.1172802 76.5528377,69.3555668 76.472217,69.5369922 C76.3662222,70.0264832 76.4001313,69.9296 76.1467355,70.3055992 C76.1327797,70.6090513 76.141776,70.9406457 76.1037147,71.2406377 C76.0899896,71.3489393 76.0016413,71.4670446 75.9858401,71.5760382 C75.9850328,72.0092447 75.891033,72.2586037 75.8285202,72.4817812 C75.8259828,72.4907775 75.5966925,72.5898521 75.5966925,72.5898521 C75.4763958,72.6603231 74.9789465,73.3327389 74.9601466,73.4156663 C74.9294669,73.5515335 74.9088215,73.7256927 74.8610719,73.8545243 C74.8471161,73.8921242 74.7320096,74.0225706 74.7240513,74.0527889 C74.6550797,74.3161037 74.6315509,74.6263607 74.5878381,74.8965958 C74.7297029,75.3085802 74.2977651,75.5560938 74.1948843,75.6633574 C73.9383744,75.9309396 74.1916549,76.6883589 74.3524349,76.9438308 L74.1375618,77.5608847 C74.1773531,77.6253582 74.3206019,78.1612147 74.3206019,78.1612147 L74.4682335,78.2792047 L74.2230266,78.5172606 L74.0413705,78.4541712 C73.9738983,78.6071083 73.8278814,78.908715 73.7047013,79.028435 L73.3536149,79.018516 C73.2282434,79.1031735 72.9283667,79.3600294 72.8965337,79.5231162 C72.6190324,79.914686 72.7530542,79.9610515 72.6867353,80.2773061 C72.6376017,80.5117866 72.5554816,80.7523799 72.4917001,80.983977 C72.4622892,81.0903179 72.3630992,81.1772821 72.3403778,81.3261824 L72.1761376,81.5658531 C71.9557283,81.6593915 72.0421158,82.063879 72.0087834,82.1695279 C71.8761456,82.5899319 71.5709634,82.9237177 71.2974989,83.2566962 L71.1014257,83.2966029 C70.8149282,83.6052452 70.7437651,84.1978476 70.5572649,84.5711941 C70.4260112,84.8338168 70.161197,85.2456859 69.9760808,85.4735922 C69.9692759,85.4818965 69.7237231,85.6151109 69.6981182,85.6292974 C69.6888912,85.7051893 69.6356055,85.8958416 69.5606363,85.9381704 C69.2597216,85.896995 68.9710326,85.9894954 68.7314773,86.1834926 L68.5184495,86.356037 C68.4547834,86.4188958 68.3644744,86.774365 68.37324,86.8365317 C68.4227196,87.1901555 68.7511999,87.775261 68.5577795,88.1376505 C68.4340227,88.1684455 68.2983862,88.3115789 68.2937727,88.3217286 C68.2459077,88.4264548 68.2389875,88.5800839 68.202887,88.692307 C68.1453337,88.8707336 68.0060064,89.121246 67.9017416,89.2815647 C67.4629989,89.6467222 67.1685431,90.000346 66.8559793,90.2704657 C66.6977367,90.4072556 66.4346526,90.5320504 66.2534579,90.6441581 C66.0847196,90.7488843 65.8220968,90.7864842 65.6382494,90.879792 C65.3947726,91.0036641 65.2115018,91.2884316 64.9874016,91.439408 L64.5545412,91.7022615 C64.4140605,91.7878417 64.3821121,91.8013361 64.3545465,91.8211741 C64.3326324,91.8369753 64.0529398,92.0927932 64.0529398,92.0927932 C63.9620541,92.2223168 63.8468322,92.4721372 63.7865109,92.6205761 C63.5852475,93.116872 63.6664449,94.0228456 63.3838688,94.3587075 C63.220782,94.5524739 62.9800733,94.7018356 62.8216,94.8980241 C62.8143338,94.9072511 62.5972692,95.324195 62.5898876,95.3435717 C62.471321,95.6584422 62.3928917,95.9979949 62.2872428,96.3182862 C62.202816,96.5746808 62.0814813,96.8346508 62.0125097,97.0943901 C61.9254301,97.4219477 61.8766424,97.7783396 61.8104389,98.1116641 C61.6388172,98.5167283 61.5218653,98.90726 61.3730803,99.2713795 C61.3276375,99.3824492 61.214261,99.4885594 61.175623,99.6003211 L60.6480708,101.124502 C60.6353837,101.161179 60.5226992,101.282168 60.5057447,101.323459 C60.4358503,101.494158 60.3706848,101.727139 60.3272027,101.90718 C60.1296301,102.725382 60.3492321,104.126037 60.4762184,104.957503 C60.4530356,105.028089 60.3688394,105.273411 60.3665327,105.293826 C60.3539609,105.412046 60.3966357,105.55172 60.3915609,105.672478 C60.3849867,105.826568 60.2810678,106.010416 60.2870654,106.160239 C60.2936396,106.327132 60.3451953,106.524012 60.3717229,106.690559 L60.255117,106.986053 C60.3170531,107.125265 60.3391978,107.340138 60.3058653,107.488808 C59.7016138,108.123162 60.4530356,108.568825 60.4656073,108.831679 C60.446692,108.874238 60.22709,109.358078 60.2275514,109.367189 C60.2411612,109.72831 60.216479,110.09958 60.3485401,110.441901 C60.3837179,110.533133 60.5122036,110.682956 60.4742576,110.787451 C60.2984838,110.884565 60.0792278,111.174292 60.074499,111.383514 L59.8995324,111.444297 C59.7982664,112.026634 59.0631072,112.146931 59.0158189,112.216825 C59.0319662,112.42224 58.9685307,112.639882 58.9292007,112.838146 C58.8044059,113.466849 59.0987464,113.791062 59.4191531,114.291395 L59.5039259,114.752744 C59.4238819,114.876616 59.2846699,114.875924 59.2216958,114.861737 L58.9635712,114.336492 L58.7691127,114.314808 C58.6716528,114.17352 58.4771943,113.91182 58.3294474,113.81609 L58.0744369,113.787025 L57.8814777,113.586339 L57.6803297,113.558196 C57.5991323,113.471694 57.3603843,113.439284 57.2520827,113.444935 L56.7578629,113.077702 L56.3062025,113.473885 C56.2657191,113.711595 56.1889046,114.296354 55.8859138,114.325419 C55.6477425,114.156335 55.5605476,114.039614 55.4718533,113.924507 C55.2095765,113.593605 55.4899612,113.047599 55.4249111,112.636652 C55.3489039,112.155235 55.0291892,112.050739 54.8527233,111.765741 L54.7422303,111.46275 C54.5917153,111.049843 54.6070551,110.929777 54.9722126,110.644318 C54.9272311,110.553086 54.9071625,110.362549 54.9541047,110.266358 C55.3189162,110.139487 55.2484452,109.662222 55.0663278,109.413093 C55.2394489,109.24597 55.4574362,109.150009 55.484079,109.050243 C55.4297552,108.850017 55.2672451,107.993293 55.0600996,107.919592 C55.033226,107.821094 54.9963181,107.614525 55.0081978,107.515451 C54.8387675,106.797131 54.5633423,106.140862 54.5478871,105.508122 C54.3636936,105.327735 54.3412029,105.032356 54.1949553,104.83859 C54.1827296,104.822327 53.7882764,104.480468 53.7469857,104.444137 C53.6818202,104.045416 53.5999308,103.365273 53.4366134,103.224331 L53.4381127,102.907154 C53.3370774,102.736454 52.9689211,102.121015 52.8107938,102.003141 C52.6656996,101.894954 52.4753933,101.913754 52.3418328,101.663473 C52.2429888,101.478472 52.2433349,101.250335 52.1223462,101.056568 C52.0049329,100.868684 51.8020548,100.647006 51.6274343,100.517944 C51.5105977,100.431672 51.348549,100.381385 51.2247922,100.302379 C51.079006,100.209301 50.9495977,100.081393 50.8024274,99.9910835 C50.6238855,99.8813978 50.4182393,99.7903968 50.2319697,99.6932829 C49.9252881,99.5328489 49.6291023,99.3139389 49.3130784,99.1671147 C49.0036287,99.0231739 48.6164418,98.8945729 48.4132177,98.5985023 C48.5355904,98.5471773 49.0394986,98.8733509 49.1585265,98.9388624 L49.3069655,98.8148749 C49.3031594,98.6801611 48.9250841,98.4005837 48.8043261,98.3452219 L48.6157498,98.4069273 L48.3191025,98.5017345 C48.103076,98.3487973 47.9621339,98.2201964 47.9104629,98.0597624 L48.0732036,97.8538855 C47.8744777,97.7666906 47.814387,97.4932261 47.7917809,97.3643945 L47.6297322,97.5009537 L47.4626086,97.2671652 C47.4044787,97.2263359 47.3526923,97.1558649 47.3081721,97.1013104 L47.3473867,97.4177956 C47.1915662,97.5349782 46.9605458,97.0424884 46.8980331,96.9273819 L46.6896188,96.8375342 L46.7419819,97.2987676 L47.1111762,97.5412064 C46.5517909,97.47062 46.3549103,97.1146895 45.8754536,96.8416864 L45.6928748,96.9101967 C45.6123695,96.5724894 45.5484727,96.4900233 45.4642765,96.4197829 C45.2962303,96.2791869 45.0768589,96.1295946 44.92842,95.971698 C44.7118168,95.7410236 44.5155129,95.4491052 44.3182863,95.1992849 C44.278149,95.1486518 44.2023724,95.112782 44.1640805,95.0612263 C43.8943068,94.7017203 43.5532548,93.9466077 43.142193,93.745229 L43.3032037,93.6835236 Z" id="Shape" fill="#FFFFFF" sketch:type="MSShapeGroup"></path>
    </g>
</svg>