<?xml version="1.0" encoding="UTF-8" standalone="no"?>
<svg width="128px" height="128px" viewBox="0 0 128 128" version="1.1" xmlns="http://www.w3.org/2000/svg" xmlns:xlink="http://www.w3.org/1999/xlink" xmlns:sketch="http://www.bohemiancoding.com/sketch/ns">
    <title>Untitled 2</title>
    <description>Created with Sketch (http://www.bohemiancoding.com/sketch)</description>
    <defs></defs>
    <g id="Page-1" stroke="none" stroke-width="1" fill="none" fill-rule="evenodd" sketch:type="MSPage">
        <g id="Star-1-+-Oval-10" sketch:type="MSLayerGroup" transform="translate(15.000000, 15.000000)" fill="#FFFFFF">
            <path d="M39.2454837,98.039264 L32.7991596,88.1122925 L21.2214914,90.5734827 L19.0647476,78.9352521 L7.426517,76.7785081 L9.88770926,65.2008446 L-0.0392640929,58.7545157 L6.6651603,48.9999963 L-0.0392623873,39.2454757 L9.88770823,32.7991579 L7.42652185,21.2214847 L19.0647457,19.0647498 L21.2214789,7.42652572 L32.7991711,9.88770276 L39.2455039,-0.0392680077 L49.0000005,6.6651603 L58.7545206,-0.0392631238 L65.2008485,9.88771087 L76.7785221,7.42652638 L78.9352622,19.0647577 L90.5734921,21.2215055 L88.1122999,32.7991775 L98.0392696,39.2455119 L91.3348397,49.0000074 L98.0392615,58.7545286 L88.1122865,65.2008549 L90.5734691,76.7785289 L78.9352374,78.935267 L76.7784878,90.5734966 L65.2008348,88.1122948 L58.7545035,98.0392665 L48.9999981,91.3348397 L39.2454837,98.039264 Z M85,49 C85,29.117748 68.882252,13 49,13 C29.117748,13 13,29.117748 13,49 C13,68.882252 29.117748,85 49,85 C68.882252,85 85,68.882252 85,49 Z" id="Star-1" sketch:type="MSShapeGroup"></path>
            <path d="M49,82 C67.2253976,82 82,67.2253976 82,49 C82,30.7746024 67.2253976,16 49,16 C30.7746024,16 16,30.7746024 16,49 C16,67.2253976 30.7746024,82 49,82 Z M30.7352729,59 L32.7147585,59 L35.2979171,62.795184 L35.2979171,59 L37.2961213,59 L37.2961213,65.860345 L35.2979171,65.860345 L32.7287975,62.0932388 L32.7287975,65.860345 L30.7352729,65.860345 L30.7352729,59 Z M38.3443595,63.3894977 C38.3443595,62.631393 38.600177,62.006668 39.1118197,61.5153038 C39.6234623,61.0239397 40.3144815,60.7782613 41.184898,60.7782613 C42.1801054,60.7782613 42.9319592,61.0668359 43.4404821,61.6439938 C43.8491723,62.1088399 44.0535143,62.6813095 44.0535143,63.3614199 C44.0535143,64.1257641 43.8000366,64.752049 43.2930736,65.2402934 C42.7861106,65.7285377 42.0849523,65.9726562 41.1895777,65.9726562 C40.3909159,65.9726562 39.7451328,65.7698741 39.2522087,65.3643037 C38.6469729,64.8620203 38.3443595,64.2037583 38.3443595,63.3894977 Z M40.2536506,63.3848181 C40.2536506,63.8278257 40.3433427,64.1553969 40.5227297,64.3675414 C40.7021166,64.5796859 40.9275167,64.6857566 41.1989369,64.6857566 C41.4734769,64.6857566 41.6988771,64.5812458 41.8751442,64.3722211 C42.0514113,64.1631963 42.1395436,63.8278258 42.1395436,63.3660995 C42.1395436,62.9355709 42.0506314,62.6150191 41.8728044,62.4044345 C41.6949774,62.1938499 41.4750367,62.0885591 41.2129758,62.0885591 C40.9353161,62.0885591 40.7060163,62.1954097 40.5250695,62.4091141 C40.3441227,62.6228185 40.2536506,62.9480499 40.2536506,63.3848181 Z M44.8116152,63.9510539 L46.8472564,63.9510539 L46.8472564,65.860345 L44.8116152,65.860345 L44.8116152,63.9510539 Z M58.6015625,31.0273438 L58.6015625,65.9726562 L48.9453125,65.9726562 L48.9453125,43.0742188 C47.3828047,44.2617247 45.8711011,45.2226526 44.4101562,45.9570312 C42.9492114,46.6914099 41.1171985,47.3945279 38.9140625,48.0664062 L38.9140625,40.2382812 C42.1640787,39.191401 44.687491,37.9336011 46.484375,36.4648438 C48.281259,34.9960864 49.6874949,33.1836045 50.703125,31.0273438 L58.6015625,31.0273438 Z" id="Oval-10" sketch:type="MSShapeGroup"></path>
        </g>
    </g>
</svg>