<?xml version="1.0" encoding="UTF-8" standalone="no"?>
<svg width="128px" height="128px" viewBox="0 0 128 128" version="1.1" xmlns="http://www.w3.org/2000/svg" xmlns:xlink="http://www.w3.org/1999/xlink" xmlns:sketch="http://www.bohemiancoding.com/sketch/ns">
    <title>Untitled 2 1</title>
    <description>Created with Sketch (http://www.bohemiancoding.com/sketch)</description>
    <defs></defs>
    <g id="Page-1" stroke="none" stroke-width="1" fill="none" fill-rule="evenodd" sketch:type="MSPage">
        <path d="M77.2989258,18.3885958 C77.2989258,18.3885958 64.6860787,17.9790793 58.4837607,37.0011978 C52.9988785,56.3149316 61.4663927,77.6517879 61.4663927,77.6517879 C61.4663927,77.6517879 64.5424673,84.5615125 69.8542613,84.5615102 C75.1660553,84.5615081 81.3997312,73.1659244 81.3997312,73.1659244 C81.3997312,73.1659244 89.6364605,57.7209575 91.3504087,44.3373688 C93.064357,30.9537801 88.3658953,19.000675 77.2989258,18.3885958 Z M33.070766,39.5153634 C33.070766,39.5153634 26.6401725,43.0304284 36.2772835,60.7481161 C45.9143958,78.4658031 53.6939479,82.8249862 53.6939479,82.8249862 C53.6939479,82.8249862 57.0334185,84.7609377 57.0334171,79.2779369 C57.0334156,73.7949361 49.0030128,55.4871195 49.0030128,55.4871195 C49.0030128,55.4871195 39.4819197,36.8732632 33.070766,39.5153634 Z M58.8833681,85.0327361 C58.8833681,85.0327361 57.6697021,86.7567942 55.7791561,87.1497191 C53.6745066,87.5871425 50.427853,86.4024515 47.2169455,82.3784696 C47.1216217,90.1053428 51.9097623,98.3186599 55.1733484,101.420447 C58.4369348,104.522234 61.9965275,102.885423 61.9965268,97.5109161 C61.9965261,92.1364089 58.8833681,85.0327361 58.8833681,85.0327361 Z M83.5614496,76.4210237 C83.5614496,76.4210237 78.1035341,85.9325218 72.5195653,87.920525 C66.9355966,89.9085283 63.6494335,86.1222287 63.2248662,85.6744577 C68.453461,104.942058 83.1682389,115.732502 93.3522088,107.279099 C100.836383,100.814011 92.953981,87.2466735 92.1198976,86.1441783 C89.6866318,81.7379604 83.5614496,76.4210237 83.5614496,76.4210237 Z" id="MSN" stroke="#F5811F" stroke-width="1.5" sketch:type="MSShapeGroup"></path>
    </g>
</svg>