<?xml version="1.0" encoding="UTF-8" standalone="no"?>
<svg width="128px" height="128px" viewBox="0 0 128 128" version="1.1" xmlns="http://www.w3.org/2000/svg" xmlns:xlink="http://www.w3.org/1999/xlink" xmlns:sketch="http://www.bohemiancoding.com/sketch/ns">
    <title>Untitled 2 1</title>
    <description>Created with Sketch (http://www.bohemiancoding.com/sketch)</description>
    <defs></defs>
    <g id="Page-1" stroke="none" stroke-width="1" fill="none" fill-rule="evenodd" sketch:type="MSPage">
        <path d="M99.5501754,99.7014865 C98.9151797,100.315061 83.8440403,103.439313 83.8440403,103.439313 C78.2561504,104.723018 72.0265016,105.36486 65.1549073,105.36486 C50.8076223,105.36486 39.7075209,100.796451 31.8542702,91.659496 C25.2847239,83.9572693 22,74.8582066 22,64.3620349 C22,52.8086949 26.0020774,42.9922787 34.0063521,34.9124919 C42.6147231,26.3041209 53.8658463,22 67.7600591,22 C73.6499972,22 79.4265805,22.7928644 85.0899825,24.3786169 C90.3003123,25.8133454 100.041286,30.6041261 100.041289,31.4012003 C100.041292,32.1982744 88.923212,43.0866636 88.2938339,42.4690505 C87.6644559,41.8514374 88.1240806,36.7247715 88.1240806,36.7247715 C80.7994141,29.626641 74.1030818,26.077629 65.2681747,26.077629 C56.2067316,26.077629 48.7122754,29.1924534 42.7845813,35.4221956 C36.8568872,41.6519377 33.8930847,49.6749702 33.8930847,59.4915336 C33.8930847,70.6673135 37.4798521,80.2194415 44.6534946,88.1482043 C52.3557213,96.6055512 62.134382,100.834161 73.9897702,100.834161 C78.8980519,100.834161 87.2729644,98.839446 87.9654779,98.0024745 C88.6579915,97.1655029 88.3747392,80.5754647 88.3747392,80.5754647 C88.3747392,80.5754647 71.8563371,80.8047636 71.2713508,80.345142 C70.6863644,79.8855205 80.3327486,75.8020497 80.3327486,75.8020497 C80.3327486,75.8020497 103.573287,75.8020465 104.754714,75.8020497 C105.936141,75.8020529 101.400499,78.6337365 101.400499,78.6337365 C100.796402,79.2378328 100.418848,79.8419199 100.267824,80.4460161 C100.1168,81.8052326 100.041289,83.617494 100.041289,85.8828548 C100.041289,85.8828548 100.185171,99.0879118 99.5501754,99.7014865 Z" id="G" stroke="#F5811F" stroke-width="1.5" sketch:type="MSShapeGroup"></path>
    </g>
</svg>