<?xml version="1.0" encoding="UTF-8" standalone="no"?>
<svg width="128px" height="128px" viewBox="0 0 128 128" version="1.1" xmlns="http://www.w3.org/2000/svg" xmlns:xlink="http://www.w3.org/1999/xlink" xmlns:sketch="http://www.bohemiancoding.com/sketch/ns">
    <title>Slice 1</title>
    <description>Created with Sketch (http://www.bohemiancoding.com/sketch)</description>
    <defs></defs>
    <g id="Page-1" stroke="none" stroke-width="1" fill="none" fill-rule="evenodd" sketch:type="MSPage">
        <g id="Oval-39-+-Oval-21" sketch:type="MSLayerGroup" transform="translate(33.000000, 16.000000)" fill="#FFFFFF">
            <path d="M22.3769218,86.9699583 C24.8442383,91.6245117 27.3261719,95.5 30,95.5 C32.5351562,95.5 35.1967088,91.3957723 37.3935547,86.9699554 C39.5904005,82.5441385 60,48 60,30.5 C60,13.9314567 46.5685433,0.5 30,0.5 C13.4314567,0.5 0,13.9314567 0,30.5 C0,48 19.9096056,82.3154045 22.3769218,86.9699583 Z M30,51.5 C41.5979803,51.5 51,42.0979803 51,30.5 C51,18.9020197 41.5979803,9.5 30,9.5 C18.4020197,9.5 9,18.9020197 9,30.5 C9,42.0979803 18.4020197,51.5 30,51.5 Z" id="Oval-39" sketch:type="MSShapeGroup"></path>
            <circle id="Oval-21" sketch:type="MSShapeGroup" cx="30" cy="31" r="13"></circle>
        </g>
    </g>
</svg>