<?xml version="1.0" encoding="UTF-8" standalone="no"?>
<svg width="128px" height="128px" viewBox="0 0 128 128" version="1.1" xmlns="http://www.w3.org/2000/svg" xmlns:xlink="http://www.w3.org/1999/xlink" xmlns:sketch="http://www.bohemiancoding.com/sketch/ns">
    <title>Slice 1</title>
    <description>Created with Sketch (http://www.bohemiancoding.com/sketch)</description>
    <defs></defs>
    <g id="Page-1" stroke="none" stroke-width="1" fill="none" fill-rule="evenodd" sketch:type="MSPage">
        <g id="Imported-Layers" sketch:type="MSLayerGroup" transform="translate(21.000000, 23.000000)" fill="#FFFFFF">
            <path d="M67.103,57.961 L77.197,57.961 C79.412,54.76 81.292,51.356 82.769,47.804 L74.921,47.804 C72.924,51.565 70.253,55.015 67.103,57.961" id="Fill-4" sketch:type="MSShapeGroup"></path>
            <path d="M35.848,40.687 C33.76,48.597 38.481,55.009 46.393,55.009 C54.301,55.009 62.406,48.597 64.497,40.687 C66.58,32.776 61.863,26.362 53.947,26.362 C46.039,26.362 37.935,32.776 35.848,40.687" id="Fill-7" sketch:type="MSShapeGroup"></path>
            <path d="M42.889,68.273 C27.653,68.273 18.566,55.923 22.585,40.687 C26.609,25.452 42.211,13.1 57.443,13.1 C67.506,13.1 74.857,18.503 77.558,26.549 L86.103,26.549 C84.246,10.779 71.945,-0.427 54.056,-0.427 C30.912,-0.427 7.199,18.337 1.092,41.483 C-5.012,64.629 8.8,83.392 31.948,83.392 C47.29,83.392 62.88,75.141 73.429,62.836 L60.717,62.836 C55.24,66.236 49.042,68.273 42.889,68.273 L42.889,68.273 Z" id="Clip-2" sketch:type="MSShapeGroup"></path>
        </g>
    </g>
</svg>