<?xml version="1.0" encoding="UTF-8" standalone="no"?>
<svg width="400px" height="250px" viewBox="0 0 400 250" version="1.1" xmlns="http://www.w3.org/2000/svg" xmlns:xlink="http://www.w3.org/1999/xlink" xmlns:sketch="http://www.bohemiancoding.com/sketch/ns">
    <title>Untitled</title>
    <description>Created with Sketch (http://www.bohemiancoding.com/sketch)</description>
    <defs></defs>
    <g id="Page-1" stroke="none" stroke-width="1" fill="none" fill-rule="evenodd" sketch:type="MSPage">
        <g id="Group" sketch:type="MSLayerGroup">
            <rect id="Rectangle-1" fill="#F9F9F9" sketch:type="MSShapeGroup" x="0" y="0" width="400" height="250"></rect>
            <rect id="Rectangle-4" fill="#D4D4D4" sketch:type="MSShapeGroup" x="210" y="27" width="30" height="7"></rect>
            <rect id="Rectangle-4" fill="#D4D4D4" sketch:type="MSShapeGroup" x="40" y="20" width="60.2666016" height="20"></rect>
            <rect id="Rectangle-4" fill="#2779B7" sketch:type="MSShapeGroup" x="40" y="60" width="220" height="40"></rect>
            <rect id="Rectangle-4" fill="#2779B7" sketch:type="MSShapeGroup" x="280" y="60" width="80" height="80"></rect>
            <path d="M280,190 L280,250 L320,250 L360,250 L360,190 L280,190 Z" id="Rectangle-4" fill="#D4D4D4" sketch:type="MSShapeGroup"></path>
            <rect id="Rectangle-4" fill="#D4D4D4" sketch:type="MSShapeGroup" x="40" y="113" width="60.3652344" height="7"></rect>
            <rect id="Rectangle-4" fill="#D4D4D4" sketch:type="MSShapeGroup" x="330" y="27" width="30" height="7"></rect>
            <rect id="Rectangle-4" fill="#D4D4D4" sketch:type="MSShapeGroup" x="290" y="27" width="30" height="7"></rect>
            <rect id="Rectangle-4" fill="#D4D4D4" sketch:type="MSShapeGroup" x="250" y="27" width="30" height="7"></rect>
            <rect id="Rectangle-4" fill="#D4D4D4" sketch:type="MSShapeGroup" x="40" y="126" width="220.496094" height="7"></rect>
            <rect id="Rectangle-4" fill="#D4D4D4" sketch:type="MSShapeGroup" x="40" y="147" width="60.3652344" height="7"></rect>
            <rect id="Rectangle-4" fill="#D4D4D4" sketch:type="MSShapeGroup" x="40" y="160" width="220.496094" height="7"></rect>
            <rect id="Rectangle-4" fill="#D4D4D4" sketch:type="MSShapeGroup" x="40" y="173" width="220.496094" height="7"></rect>
            <rect id="Rectangle-4" fill="#D4D4D4" sketch:type="MSShapeGroup" x="280" y="160" width="40.0283203" height="7"></rect>
            <rect id="Rectangle-4" fill="#D4D4D4" sketch:type="MSShapeGroup" x="280" y="173" width="80.0566406" height="7"></rect>
            <rect id="Rectangle-4" fill="#D4D4D4" sketch:type="MSShapeGroup" x="40" y="190" width="220.496094" height="60"></rect>
        </g>
    </g>
</svg>