<?xml version="1.0" encoding="UTF-8" standalone="no"?>
<svg width="128px" height="128px" viewBox="0 0 128 128" version="1.1" xmlns="http://www.w3.org/2000/svg" xmlns:xlink="http://www.w3.org/1999/xlink" xmlns:sketch="http://www.bohemiancoding.com/sketch/ns">
    <title>Untitled</title>
    <description>Created with Sketch (http://www.bohemiancoding.com/sketch)</description>
    <defs></defs>
    <g id="Page-1" stroke="none" stroke-width="1" fill="none" fill-rule="evenodd" sketch:type="MSPage">
        <g id="Oval-29-+-WWW." sketch:type="MSLayerGroup">
            <path d="M63.6659341,128 C99.0121598,128 127.665934,99.3462257 127.665934,64 C127.665934,28.6537743 99.0121598,0 63.6659341,0 C28.3197083,0 -0.334065934,28.6537743 -0.334065934,64 C-0.334065934,99.3462257 28.3197083,128 63.6659341,128 Z" id="Oval-29" fill="#359900" sketch:type="MSShapeGroup"></path>
            <path d="M32.7925125,72.137546 L29.0349298,58.2011949 L25.2297827,72.137546 C24.9338253,73.1945365 24.6986485,73.9529159 24.524245,74.4127068 C24.3498416,74.8724977 24.0459613,75.2847178 23.6125952,75.6493796 C23.1792291,76.0140413 22.6031778,76.1963695 21.8844242,76.1963695 C21.3030794,76.1963695 20.8247984,76.0880296 20.4495667,75.8713465 C20.074335,75.6546634 19.7704548,75.3481408 19.5379169,74.9517693 C19.305379,74.5553978 19.1151235,74.0850441 18.9671448,73.5406939 C18.8191661,72.9963438 18.6870443,72.4916384 18.5707753,72.0265625 L14.7022092,56.3778952 C14.4696712,55.4688833 14.353404,54.7765649 14.353404,54.3009191 C14.353404,53.6984345 14.564799,53.1910866 14.9875952,52.7788603 C15.4103914,52.366634 15.9335939,52.1605239 16.5572184,52.1605239 C17.4133807,52.1605239 17.9894319,52.4353373 18.2853893,52.9849724 C18.5813467,53.5346075 18.8403055,54.3326234 19.0622735,55.3790441 L22.1063912,68.9507353 L25.5151687,56.251057 C25.7688465,55.2786257 25.996096,54.5387433 26.1969242,54.0313879 C26.3977524,53.5240324 26.7254146,53.0853879 27.1799206,52.7154412 C27.6344265,52.3454945 28.2527567,52.1605239 29.0349298,52.1605239 C29.8276727,52.1605239 30.4433605,52.3534218 30.8820116,52.7392233 C31.3206626,53.1250249 31.6245429,53.5451724 31.7936614,53.9996783 C31.9627799,54.4541843 32.1900294,55.2046363 32.4754169,56.251057 L35.915904,68.9507353 L38.9600217,55.3790441 C39.1080003,54.6708604 39.2480495,54.1159487 39.3801733,53.7142923 C39.5122971,53.3126359 39.7395467,52.9532645 40.0619288,52.6361673 C40.384311,52.3190701 40.8520223,52.1605239 41.4650768,52.1605239 C42.0781313,52.1605239 42.5986914,52.3639915 43.0267726,52.7709329 C43.4548538,53.1778743 43.6688912,53.6878646 43.6688912,54.3009191 C43.6688912,54.7342853 43.5526239,55.4266037 43.320086,56.3778952 L39.4515198,72.0265625 C39.1872722,73.0835531 38.9679499,73.8577871 38.7935465,74.3492877 C38.619143,74.8407883 38.3231901,75.2715055 37.9056788,75.6414522 C37.4881676,76.0113989 36.8989041,76.1963695 36.1378709,76.1963695 C35.4191173,76.1963695 34.8430661,76.0166838 34.4097,75.657307 C33.9763338,75.2979302 33.675096,74.8936374 33.5059775,74.4444164 C33.3368591,73.9951954 33.0990397,73.2262463 32.7925125,72.137546 Z M63.2495437,72.137546 L59.491961,58.2011949 L55.6868139,72.137546 C55.3908566,73.1945365 55.1556797,73.9529159 54.9812763,74.4127068 C54.8068728,74.8724977 54.5029926,75.2847178 54.0696264,75.6493796 C53.6362603,76.0140413 53.0602091,76.1963695 52.3414555,76.1963695 C51.7601107,76.1963695 51.2818296,76.0880296 50.906598,75.8713465 C50.5313663,75.6546634 50.2274861,75.3481408 49.9949481,74.9517693 C49.7624102,74.5553978 49.5721548,74.0850441 49.4241761,73.5406939 C49.2761974,72.9963438 49.1440756,72.4916384 49.0278066,72.0265625 L45.1592404,56.3778952 C44.9267025,55.4688833 44.8104353,54.7765649 44.8104353,54.3009191 C44.8104353,53.6984345 45.0218302,53.1910866 45.4446264,52.7788603 C45.8674227,52.366634 46.3906252,52.1605239 47.0142496,52.1605239 C47.870412,52.1605239 48.4464632,52.4353373 48.7424206,52.9849724 C49.0383779,53.5346075 49.2973367,54.3326234 49.5193048,55.3790441 L52.5634224,68.9507353 L55.9722,56.251057 C56.2258777,55.2786257 56.4531273,54.5387433 56.6539555,54.0313879 C56.8547837,53.5240324 57.1824459,53.0853879 57.6369518,52.7154412 C58.0914578,52.3454945 58.709788,52.1605239 59.491961,52.1605239 C60.2847039,52.1605239 60.9003917,52.3534218 61.3390428,52.7392233 C61.7776939,53.1250249 62.0815741,53.5451724 62.2506926,53.9996783 C62.4198111,54.4541843 62.6470607,55.2046363 62.9324481,56.251057 L66.3729353,68.9507353 L69.4170529,55.3790441 C69.5650316,54.6708604 69.7050807,54.1159487 69.8372046,53.7142923 C69.9693284,53.3126359 70.196578,52.9532645 70.5189601,52.6361673 C70.8413422,52.3190701 71.3090535,52.1605239 71.9221081,52.1605239 C72.5351626,52.1605239 73.0557226,52.3639915 73.4838038,52.7709329 C73.911885,53.1778743 74.1259224,53.6878646 74.1259224,54.3009191 C74.1259224,54.7342853 74.0096552,55.4266037 73.7771173,56.3778952 L69.9085511,72.0265625 C69.6443034,73.0835531 69.4249812,73.8577871 69.2505777,74.3492877 C69.0761743,74.8407883 68.7802214,75.2715055 68.3627101,75.6414522 C67.9451988,76.0113989 67.3559354,76.1963695 66.5949022,76.1963695 C65.8761486,76.1963695 65.3000974,76.0166838 64.8667312,75.657307 C64.4333651,75.2979302 64.1321273,74.8936374 63.9630088,74.4444164 C63.7938903,73.9951954 63.556071,73.2262463 63.2495437,72.137546 Z M93.706575,72.137546 L89.9489923,58.2011949 L86.1438452,72.137546 C85.8478878,73.1945365 85.612711,73.9529159 85.4383075,74.4127068 C85.2639041,74.8724977 84.9600238,75.2847178 84.5266577,75.6493796 C84.0932916,76.0140413 83.5172403,76.1963695 82.7984867,76.1963695 C82.2171419,76.1963695 81.7388609,76.0880296 81.3636292,75.8713465 C80.9883975,75.6546634 80.6845173,75.3481408 80.4519794,74.9517693 C80.2194415,74.5553978 80.029186,74.0850441 79.8812073,73.5406939 C79.7332286,72.9963438 79.6011068,72.4916384 79.4848378,72.0265625 L75.6162717,56.3778952 C75.3837337,55.4688833 75.2674665,54.7765649 75.2674665,54.3009191 C75.2674665,53.6984345 75.4788615,53.1910866 75.9016577,52.7788603 C76.3244539,52.366634 76.8476564,52.1605239 77.4712809,52.1605239 C78.3274432,52.1605239 78.9034944,52.4353373 79.1994518,52.9849724 C79.4954092,53.5346075 79.754368,54.3326234 79.976336,55.3790441 L83.0204537,68.9507353 L86.4292312,56.251057 C86.682909,55.2786257 86.9101585,54.5387433 87.1109867,54.0313879 C87.3118149,53.5240324 87.6394771,53.0853879 88.0939831,52.7154412 C88.548489,52.3454945 89.1668192,52.1605239 89.9489923,52.1605239 C90.7417352,52.1605239 91.357423,52.3534218 91.7960741,52.7392233 C92.2347251,53.1250249 92.5386054,53.5451724 92.7077239,53.9996783 C92.8768424,54.4541843 93.1040919,55.2046363 93.3894794,56.251057 L96.8299665,68.9507353 L99.8740842,55.3790441 C100.022063,54.6708604 100.162112,54.1159487 100.294236,53.7142923 C100.42636,53.3126359 100.653609,52.9532645 100.975991,52.6361673 C101.298373,52.3190701 101.766085,52.1605239 102.379139,52.1605239 C102.992194,52.1605239 103.512754,52.3639915 103.940835,52.7709329 C104.368916,53.1778743 104.582954,53.6878646 104.582954,54.3009191 C104.582954,54.7342853 104.466686,55.4266037 104.234149,56.3778952 L100.365582,72.0265625 C100.101335,73.0835531 99.8820124,73.8577871 99.707609,74.3492877 C99.5332055,74.8407883 99.2372526,75.2715055 98.8197413,75.6414522 C98.4022301,76.0113989 97.8129666,76.1963695 97.0519334,76.1963695 C96.3331798,76.1963695 95.7571286,76.0166838 95.3237625,75.657307 C94.8903963,75.2979302 94.5891585,74.8936374 94.42004,74.4444164 C94.2509216,73.9951954 94.0131022,73.2262463 93.706575,72.137546 Z M108.229553,76.1963695 C107.574219,76.1963695 107.008737,75.9849745 106.533092,75.5621783 C106.057446,75.1393821 105.819626,74.5474762 105.819626,73.786443 C105.819626,73.1416788 106.046876,72.586767 106.501382,72.1216912 C106.955888,71.6566153 107.516085,71.4240809 108.181989,71.4240809 C108.847893,71.4240809 109.416017,71.6539729 109.886377,72.1137638 C110.356738,72.5735547 110.591915,73.1311089 110.591915,73.786443 C110.591915,74.5369063 110.356738,75.1261697 109.886377,75.5542509 C109.416017,75.9823321 108.863747,76.1963695 108.229553,76.1963695 Z" id="WWW." fill="#FFFFFF" sketch:type="MSShapeGroup"></path>
        </g>
    </g>
</svg>