<?xml version="1.0" encoding="UTF-8" standalone="no"?>
<svg width="128px" height="128px" viewBox="0 0 128 128" version="1.1" xmlns="http://www.w3.org/2000/svg" xmlns:xlink="http://www.w3.org/1999/xlink" xmlns:sketch="http://www.bohemiancoding.com/sketch/ns">
    <title>Untitled</title>
    <description>Created with Sketch (http://www.bohemiancoding.com/sketch)</description>
    <defs></defs>
    <g id="Page-1" stroke="none" stroke-width="1" fill="none" fill-rule="evenodd" sketch:type="MSPage">
        <g id="Oval-29-+-Path" sketch:type="MSLayerGroup">
            <path d="M64,128 C99.3462257,128 128,99.3462257 128,64 C128,28.6537743 99.3462257,0 64,0 C28.6537743,0 0,28.6537743 0,64 C0,99.3462257 28.6537743,128 64,128 Z" id="Oval-29" fill="#2C7AB5" sketch:type="MSShapeGroup"></path>
            <path d="M69.6753435,102.835413 L53.7589721,102.835413 L53.7589721,64.3082881 L45.8047845,64.3082881 L45.8047845,51.0323552 L53.7589721,51.0323552 L53.7589721,43.0612871 C53.7589721,32.2303364 58.2482507,25.7900474 71.006224,25.7900474 L81.6283918,25.7900474 L81.6283918,39.0686457 L74.9890927,39.0686457 C70.0218343,39.0686457 69.694889,40.9237047 69.694889,44.3868372 L69.6753434,51.0323554 L81.7030206,51.0323554 L80.2957344,64.3082883 L69.6753434,64.3082883 L69.6753434,102.835413 L69.6753435,102.835413 Z" id="Path" fill="#FFFFFF" sketch:type="MSShapeGroup"></path>
        </g>
    </g>
</svg>