<?xml version="1.0" encoding="UTF-8" standalone="no"?>
<svg width="128px" height="128px" viewBox="0 0 128 128" version="1.1" xmlns="http://www.w3.org/2000/svg" xmlns:xlink="http://www.w3.org/1999/xlink" xmlns:sketch="http://www.bohemiancoding.com/sketch/ns">
    <title>Untitled</title>
    <description>Created with Sketch (http://www.bohemiancoding.com/sketch)</description>
    <defs></defs>
    <g id="Page-1" stroke="none" stroke-width="1" fill="none" fill-rule="evenodd" sketch:type="MSPage">
        <g id="Oval-29-+-Fill-2" sketch:type="MSLayerGroup">
            <path d="M64.2461538,128 C99.5923796,128 128.246154,99.3462257 128.246154,64 C128.246154,28.6537743 99.5923796,0 64.2461538,0 C28.8999281,0 0.246153846,28.6537743 0.246153846,64 C0.246153846,99.3462257 28.8999281,128 64.2461538,128 Z" id="Oval-29" fill="#F99D1C" sketch:type="MSShapeGroup"></path>
            <path d="M80.1064471,20.4063492 L49.0940501,20.4063492 C45.3388827,20.4063492 42.2945954,23.5149588 42.2945954,27.3447993 L42.2945954,103.057318 C42.2945954,106.887158 45.3388827,109.995768 49.0940501,109.995768 L80.1064471,109.995768 C83.8595658,109.995768 86.9038532,106.887158 86.9038532,103.057318 L86.9038532,27.3447993 C86.9038532,23.5149588 83.8595658,20.4063492 80.1064471,20.4063492 L80.1064471,20.4063492 Z M58.7513654,25.7601819 L70.4429858,25.7601819 C70.7707691,25.7601819 71.0391417,26.0361311 71.0391417,26.370615 C71.0391417,26.7071894 70.7707691,26.9810481 70.4429858,26.9810481 L58.7513654,26.9810481 C58.4235821,26.9810481 58.1572582,26.7071894 58.1572582,26.370615 C58.1572582,26.0361311 58.4235821,25.7601819 58.7513654,25.7601819 L58.7513654,25.7601819 Z M64.5941027,104.884436 C62.4286843,104.884436 60.6627518,103.082404 60.6627518,100.866448 C60.6627518,98.6463113 62.4286843,96.8505509 64.5941027,96.8505509 C66.7738616,96.8505509 68.5336481,98.6463113 68.5336481,100.866448 C68.5336481,103.082404 66.7738616,104.884436 64.5941027,104.884436 L64.5941027,104.884436 Z M48.2362684,34.0685414 L80.9154699,34.0685414 L80.9154699,92.4410193 L48.2362684,92.4410193 L48.2362684,34.0685414 Z" id="Fill-2" fill="#FFFFFF" sketch:type="MSShapeGroup"></path>
        </g>
    </g>
</svg>