<?xml version="1.0" encoding="UTF-8" standalone="no"?>
<svg width="128px" height="128px" viewBox="0 0 128 128" version="1.1" xmlns="http://www.w3.org/2000/svg" xmlns:xlink="http://www.w3.org/1999/xlink" xmlns:sketch="http://www.bohemiancoding.com/sketch/ns">
    <title>Untitled</title>
    <description>Created with Sketch (http://www.bohemiancoding.com/sketch)</description>
    <defs></defs>
    <g id="Page-1" stroke="none" stroke-width="1" fill="none" fill-rule="evenodd" sketch:type="MSPage">
        <g id="Oval-29-+-Youtube" sketch:type="MSLayerGroup">
            <path d="M63.8860764,128.020426 C99.2323022,128.020426 127.886076,99.3666519 127.886076,64.0204261 C127.886076,28.6742004 99.2323022,0.0204261126 63.8860764,0.0204261126 C28.5398507,0.0204261126 -0.113923559,28.6742004 -0.113923559,64.0204261 C-0.113923559,99.3666519 28.5398507,128.020426 63.8860764,128.020426 Z" id="Oval-29" fill="#D64038" sketch:type="MSShapeGroup"></path>
            <path d="M29.757172,39.4128839 C37.8388861,38.7391253 37.3662967,38.3982866 64.4963233,38.3976604 C91.6263498,38.3970342 91.6263498,39.0255935 99.6249388,39.0780872 C102.205471,39.3349129 102.315421,41.7912533 102.315421,41.7912533 C102.315421,41.7912533 102.993672,51.9650135 102.993672,65.5300267 C102.993671,79.0950399 102.315421,89.268946 102.315421,89.268946 C102.315421,89.268946 102.287603,91.701627 99.8282815,91.9819487 C91.6263498,92.163619 91.6263498,92.6602024 64.4963231,92.6601994 C37.3662964,92.6601965 37.8226584,92.1771973 29.8452648,91.9819487 C27.2412194,91.7513035 27.0885468,89.268946 27.0885468,89.268946 C27.0885468,89.268946 26.4102953,79.0950399 26.4102961,65.5300267 C26.4102976,51.9650135 27.0885468,42.1257244 27.0885468,42.1257244 C27.0885468,42.1257244 27.1839258,39.5813087 29.757172,39.4128839 Z M73.0495686,65.4551406 L56.3543996,57.0883553 L56.3543996,73.969504 L73.0495686,65.4551406 Z" id="Youtube" fill="#FFFFFF" sketch:type="MSShapeGroup"></path>
        </g>
    </g>
</svg>