<?xml version="1.0" encoding="UTF-8" standalone="no"?>
<svg width="128px" height="128px" viewBox="0 0 128 128" version="1.1" xmlns="http://www.w3.org/2000/svg" xmlns:xlink="http://www.w3.org/1999/xlink" xmlns:sketch="http://www.bohemiancoding.com/sketch/ns">
    <title>Untitled</title>
    <description>Created with Sketch (http://www.bohemiancoding.com/sketch)</description>
    <defs></defs>
    <g id="Page-1" stroke="none" stroke-width="1" fill="none" fill-rule="evenodd" sketch:type="MSPage">
        <g id="Oval-4-+-Oval-5-+-x30-+-x30" sketch:type="MSLayerGroup" transform="translate(23.000000, 21.000000)" fill="#5E6A73">
            <g id="Oval-4-+-Oval-5" transform="translate(0.461538, 0.461538)" sketch:type="MSShapeGroup">
                <path d="M40.6637266,34.7874808 C50.5802488,34.7874808 58.6191775,27.0000384 58.6191775,17.3937404 C58.6191775,7.78744236 50.5802488,0 40.6637266,0 C30.7472044,0 22.7082756,7.78744236 22.7082756,17.3937404 C22.7082756,27.0000384 30.7472044,34.7874808 40.6637266,34.7874808 Z" id="Oval-4"></path>
                <path d="M79.5418776,79.8328062 C79.5418776,54.3264286 61.7358229,33.6494265 39.7709388,33.6494265 C17.8060547,33.6494265 1.13686838e-13,54.3264286 1.13686838e-13,79.8328062" id="Oval-5"></path>
            </g>
            <g id="x30-+-x30" transform="translate(42.000000, 69.000000)" sketch:type="MSShapeGroup">
                <path d="M-0.13671875,4.65234375 L5.5234375,4.65234375 L7.50390625,8.12109375 L9.80078125,4.65234375 L15.0625,4.65234375 L10.8203125,10.5820312 L15.3671875,17.0976562 L9.80078125,17.0976562 L7.50390625,13.0898438 L4.796875,17.0976562 L-0.37109375,17.0976562 L4.15234375,10.5820312 L-0.13671875,4.65234375 Z M21.1210938,4.88671875 L16.609375,4.078125 C16.9843769,2.64061781 17.7050728,1.53906633 18.7714844,0.7734375 C19.837896,0.00780867187 21.3476465,-0.375 23.3007812,-0.375 C25.54298,-0.375 27.1640575,0.0429645703 28.1640625,0.87890625 C29.1640675,1.71484793 29.6640625,2.76561867 29.6640625,4.03125 C29.6640625,4.77344121 29.4609395,5.44530949 29.0546875,6.046875 C28.6484355,6.64844051 28.0351604,7.17577898 27.2148438,7.62890625 C27.8789096,7.79296957 28.386717,7.98437391 28.7382812,8.203125 C29.3085966,8.55468926 29.7519515,9.01757525 30.0683594,9.59179688 C30.3847672,10.1660185 30.5429688,10.8515585 30.5429688,11.6484375 C30.5429688,12.6484425 30.2812526,13.6074173 29.7578125,14.5253906 C29.2343724,15.443364 28.4804737,16.1503881 27.4960938,16.6464844 C26.5117138,17.1425806 25.218758,17.390625 23.6171875,17.390625 C22.0546797,17.390625 20.8222701,17.2070331 19.9199219,16.8398438 C19.0175736,16.4726544 18.2753935,15.9355504 17.6933594,15.2285156 C17.1113252,14.5214808 16.6640641,13.6328179 16.3515625,12.5625 L21.1210938,11.9296875 C21.3085947,12.8906298 21.5996074,13.5566388 21.9941406,13.9277344 C22.3886738,14.29883 22.890622,14.484375 23.5,14.484375 C24.1406282,14.484375 24.673826,14.2500023 25.0996094,13.78125 C25.5253928,13.3124977 25.7382812,12.6875039 25.7382812,11.90625 C25.7382812,11.109371 25.5332052,10.4921897 25.1230469,10.0546875 C24.7128886,9.61718531 24.1562535,9.3984375 23.453125,9.3984375 C23.0781231,9.3984375 22.5625033,9.49218656 21.90625,9.6796875 L22.1523438,6.26953125 C22.4179701,6.30859395 22.6249993,6.328125 22.7734375,6.328125 C23.3984406,6.328125 23.9199198,6.12890824 24.3378906,5.73046875 C24.7558615,5.33202926 24.9648438,4.85937773 24.9648438,4.3125 C24.9648438,3.78905988 24.8085953,3.37109531 24.4960938,3.05859375 C24.1835922,2.74609219 23.753909,2.58984375 23.2070312,2.58984375 C22.6445284,2.58984375 22.1875018,2.75976393 21.8359375,3.09960938 C21.4843732,3.43945482 21.2460944,4.03515199 21.1210938,4.88671875 Z M32.5,8.4375 C32.5,5.17185867 33.0878847,2.88672527 34.2636719,1.58203125 C35.439459,0.277337227 37.2304567,-0.375 39.6367188,-0.375 C40.7929745,-0.375 41.7421838,-0.232423301 42.484375,0.052734375 C43.2265662,0.337892051 43.8320289,0.70898209 44.3007812,1.16601562 C44.7695336,1.62304916 45.1386705,2.10351311 45.4082031,2.60742188 C45.6777357,3.11133064 45.8945304,3.69921539 46.0585938,4.37109375 C46.3789079,5.65235016 46.5390625,6.9882743 46.5390625,8.37890625 C46.5390625,11.4961093 46.011724,13.7773365 44.9570312,15.2226562 C43.9023385,16.667976 42.0859504,17.390625 39.5078125,17.390625 C38.0624928,17.390625 36.8945357,17.1601586 36.0039062,16.6992188 C35.1132768,16.2382789 34.3828154,15.5625045 33.8125,14.671875 C33.3984354,14.0390593 33.076173,13.1738336 32.8457031,12.0761719 C32.6152332,10.9785101 32.5,9.76563164 32.5,8.4375 Z M37.234375,8.44921875 C37.234375,10.6367297 37.4277324,12.1308554 37.8144531,12.9316406 C38.2011738,13.7324259 38.7617151,14.1328125 39.4960938,14.1328125 C39.9804712,14.1328125 40.4003888,13.9628923 40.7558594,13.6230469 C41.1113299,13.2832014 41.373046,12.7460974 41.5410156,12.0117188 C41.7089852,11.2773401 41.7929688,10.1328203 41.7929688,8.578125 C41.7929688,6.29686359 41.5996113,4.7636758 41.2128906,3.97851562 C40.8261699,3.19335545 40.2460976,2.80078125 39.4726562,2.80078125 C38.6835898,2.80078125 38.113283,3.20116787 37.7617188,4.00195312 C37.4101545,4.80273838 37.234375,6.28514543 37.234375,8.44921875 Z" id="x30" stroke="#FFFFFF" stroke-width="5"></path>
                <path d="M-0.13671875,4.5546875 L5.5234375,4.5546875 L7.50390625,8.0234375 L9.80078125,4.5546875 L15.0625,4.5546875 L10.8203125,10.484375 L15.3671875,17 L9.80078125,17 L7.50390625,12.9921875 L4.796875,17 L-0.37109375,17 L4.15234375,10.484375 L-0.13671875,4.5546875 Z M21.1210938,4.7890625 L16.609375,3.98046875 C16.9843769,2.54296156 17.7050728,1.44141008 18.7714844,0.67578125 C19.837896,-0.0898475781 21.3476465,-0.47265625 23.3007812,-0.47265625 C25.54298,-0.47265625 27.1640575,-0.0546916797 28.1640625,0.78125 C29.1640675,1.61719168 29.6640625,2.66796242 29.6640625,3.93359375 C29.6640625,4.67578496 29.4609395,5.34765324 29.0546875,5.94921875 C28.6484355,6.55078426 28.0351604,7.07812273 27.2148438,7.53125 C27.8789096,7.69531332 28.386717,7.88671766 28.7382812,8.10546875 C29.3085966,8.45703301 29.7519515,8.919919 30.0683594,9.49414062 C30.3847672,10.0683622 30.5429688,10.7539023 30.5429688,11.5507813 C30.5429688,12.5507863 30.2812526,13.509761 29.7578125,14.4277344 C29.2343724,15.3457077 28.4804737,16.0527319 27.4960938,16.5488281 C26.5117138,17.0449244 25.218758,17.2929688 23.6171875,17.2929688 C22.0546797,17.2929688 20.8222701,17.1093768 19.9199219,16.7421875 C19.0175736,16.3749982 18.2753935,15.8378942 17.6933594,15.1308594 C17.1113252,14.4238246 16.6640641,13.5351616 16.3515625,12.4648438 L21.1210938,11.8320313 C21.3085947,12.7929736 21.5996074,13.4589825 21.9941406,13.8300781 C22.3886738,14.2011737 22.890622,14.3867188 23.5,14.3867188 C24.1406282,14.3867188 24.673826,14.1523461 25.0996094,13.6835938 C25.5253928,13.2148414 25.7382812,12.5898477 25.7382812,11.8085938 C25.7382812,11.0117148 25.5332052,10.3945334 25.1230469,9.95703125 C24.7128886,9.51952906 24.1562535,9.30078125 23.453125,9.30078125 C23.0781231,9.30078125 22.5625033,9.39453031 21.90625,9.58203125 L22.1523438,6.171875 C22.4179701,6.2109377 22.6249993,6.23046875 22.7734375,6.23046875 C23.3984406,6.23046875 23.9199198,6.03125199 24.3378906,5.6328125 C24.7558615,5.23437301 24.9648438,4.76172148 24.9648438,4.21484375 C24.9648438,3.69140363 24.8085953,3.27343906 24.4960938,2.9609375 C24.1835922,2.64843594 23.753909,2.4921875 23.2070312,2.4921875 C22.6445284,2.4921875 22.1875018,2.66210768 21.8359375,3.00195312 C21.4843732,3.34179857 21.2460944,3.93749574 21.1210938,4.7890625 Z M32.5,8.33984375 C32.5,5.07420242 33.0878847,2.78906902 34.2636719,1.484375 C35.439459,0.179680977 37.2304567,-0.47265625 39.6367188,-0.47265625 C40.7929745,-0.47265625 41.7421838,-0.330079551 42.484375,-0.044921875 C43.2265662,0.240235801 43.8320289,0.61132584 44.3007812,1.06835938 C44.7695336,1.52539291 45.1386705,2.00585686 45.4082031,2.50976562 C45.6777357,3.01367439 45.8945304,3.60155914 46.0585938,4.2734375 C46.3789079,5.55469391 46.5390625,6.89061805 46.5390625,8.28125 C46.5390625,11.3984531 46.011724,13.6796803 44.9570312,15.125 C43.9023385,16.5703197 42.0859504,17.2929688 39.5078125,17.2929688 C38.0624928,17.2929688 36.8945357,17.0625023 36.0039062,16.6015625 C35.1132768,16.1406227 34.3828154,15.4648482 33.8125,14.5742188 C33.3984354,13.9414031 33.076173,13.0761774 32.8457031,11.9785156 C32.6152332,10.8808539 32.5,9.66797539 32.5,8.33984375 Z M37.234375,8.3515625 C37.234375,10.5390734 37.4277324,12.0331991 37.8144531,12.8339844 C38.2011738,13.6347696 38.7617151,14.0351562 39.4960938,14.0351562 C39.9804712,14.0351562 40.4003888,13.8652361 40.7558594,13.5253906 C41.1113299,13.1855452 41.373046,12.6484412 41.5410156,11.9140625 C41.7089852,11.1796838 41.7929688,10.035164 41.7929688,8.48046875 C41.7929688,6.19920734 41.5996113,4.66601955 41.2128906,3.88085938 C40.8261699,3.0956992 40.2460976,2.703125 39.4726562,2.703125 C38.6835898,2.703125 38.113283,3.10351162 37.7617188,3.90429688 C37.4101545,4.70508213 37.234375,6.18748918 37.234375,8.3515625 Z" id="x30"></path>
            </g>
        </g>
    </g>
</svg>