<?xml version="1.0" encoding="UTF-8" standalone="no"?>
<svg width="128px" height="128px" viewBox="0 0 128 128" version="1.1" xmlns="http://www.w3.org/2000/svg" xmlns:xlink="http://www.w3.org/1999/xlink" xmlns:sketch="http://www.bohemiancoding.com/sketch/ns">
    <title>Untitled</title>
    <description>Created with Sketch (http://www.bohemiancoding.com/sketch)</description>
    <defs></defs>
    <g id="Page-1" stroke="none" stroke-width="1" fill="none" fill-rule="evenodd" sketch:type="MSPage">
        <g id="Imported-Layers-+-Oval-10" sketch:type="MSLayerGroup" transform="translate(19.000000, 18.000000)" fill="#5E6A73">
            <path d="M61.0394562,52.6126658 C64.9921751,47.1190981 67.3770557,40.4159151 67.3770557,33.1238727 C67.3770557,14.5895225 52.3071618,-0.5 33.7728117,-0.5 C15.2384615,-0.5 0.153846154,14.5895225 0.153846154,33.1238727 C0.153846154,51.6606764 15.2384615,66.7354775 33.7728117,66.7354775 C39.5976127,66.7354775 44.9979443,65.1136605 49.7775199,62.4932361 L76.9018568,89.6077586 C79.8142573,92.5299735 84.5472149,92.5299735 87.4645225,89.6077586 C90.3769231,86.6830902 90.3769231,81.9648541 87.4645225,79.0426393 L61.0394562,52.6126658 Z M9.14034579,33.5165657 C9.14034579,20.2578857 19.9192687,9.5 33.1648004,9.5 C46.4050728,9.5 57.181366,20.2578857 57.181366,33.5165657 C57.181366,46.7620974 46.4050728,57.5226127 33.1648004,57.5226127 C19.9192687,57.5226127 9.14034579,46.7620974 9.14034579,33.5165657 L9.14034579,33.5165657 Z" id="Imported-Layers" sketch:type="MSShapeGroup"></path>
            <path d="M44.3865709,46.2713365 C41.3033775,50.3582253 36.4065035,53 30.8926096,53 C21.5630785,53 14,45.4369215 14,36.1073904 C14,30.5934965 16.6417747,25.6966225 20.7286635,22.6134291 C18.595081,25.4415729 17.3300151,28.961738 17.3300151,32.7773753 C17.3300151,42.1069064 24.8930936,49.6699849 34.2226247,49.6699849 C38.038262,49.6699849 41.5584271,48.404919 44.3865709,46.2713365 Z" id="Oval-10" sketch:type="MSShapeGroup"></path>
        </g>
    </g>
</svg>