<?xml version="1.0" encoding="UTF-8" standalone="no"?>
<svg width="128px" height="128px" viewBox="0 0 128 128" version="1.1" xmlns="http://www.w3.org/2000/svg" xmlns:xlink="http://www.w3.org/1999/xlink" xmlns:sketch="http://www.bohemiancoding.com/sketch/ns">
    <title>Untitled</title>
    <description>Created with Sketch (http://www.bohemiancoding.com/sketch)</description>
    <defs></defs>
    <g id="Page-1" stroke="none" stroke-width="1" fill="none" fill-rule="evenodd" sketch:type="MSPage">
        <g id="Group" sketch:type="MSLayerGroup" transform="translate(14.000000, 14.000000)">
            <path d="M50,100 C77.6142389,100 100,77.6142389 100,50 C100,22.3857611 77.6142389,0 50,0 C22.3857611,0 0,22.3857611 0,50 C0,77.6142389 22.3857611,100 50,100 Z" id="Oval-3" stroke="#5E6A73" stroke-width="7" sketch:type="MSShapeGroup"></path>
            <path d="M3.5,53 C5.43299672,53 7,51.4329967 7,49.5 C7,47.5670033 5.43299672,46 3.5,46 C1.56700328,46 0,47.5670033 0,49.5 C0,51.4329967 1.56700328,53 3.5,53 Z" id="Oval-4" fill="#5E6A73" sketch:type="MSShapeGroup"></path>
            <path d="M96.5,53 C98.4329967,53 100,51.4329967 100,49.5 C100,47.5670033 98.4329967,46 96.5,46 C94.5670033,46 93,47.5670033 93,49.5 C93,51.4329967 94.5670033,53 96.5,53 Z" id="Path" fill="#5E6A73" sketch:type="MSShapeGroup"></path>
            <path id="Line" stroke="#5E6A73" stroke-width="7" stroke-linecap="round" sketch:type="MSShapeGroup"></path>
            <path d="M50.5,15.5 L50.5,49.5" id="Path" stroke="#5E6A73" stroke-width="7" stroke-linecap="round" sketch:type="MSShapeGroup"></path>
            <path d="M29.2375,49.7375 L50.2375,49.7375" id="Path" stroke="#5E6A73" stroke-width="7" stroke-linecap="round" sketch:type="MSShapeGroup"></path>
            <path d="M50.5,7 C52.4329967,7 54,5.43299672 54,3.5 C54,1.56700328 52.4329967,0 50.5,0 C48.5670033,0 47,1.56700328 47,3.5 C47,5.43299672 48.5670033,7 50.5,7 Z" id="Oval-4" fill="#5E6A73" sketch:type="MSShapeGroup"></path>
            <path d="M50.5,100 C52.4329967,100 54,98.4329967 54,96.5 C54,94.5670033 52.4329967,93 50.5,93 C48.5670033,93 47,94.5670033 47,96.5 C47,98.4329967 48.5670033,100 50.5,100 Z" id="Path" fill="#5E6A73" sketch:type="MSShapeGroup"></path>
        </g>
    </g>
</svg>