<?xml version="1.0" encoding="UTF-8" standalone="no"?>
<svg width="740px" height="440px" viewBox="0 0 740 440" version="1.1" xmlns="http://www.w3.org/2000/svg" xmlns:xlink="http://www.w3.org/1999/xlink" xmlns:sketch="http://www.bohemiancoding.com/sketch/ns">
    <title>Untitled</title>
    <description>Created with Sketch (http://www.bohemiancoding.com/sketch)</description>
    <defs></defs>
    <g id="Page-1" stroke="none" stroke-width="1" fill="none" fill-rule="evenodd" sketch:type="MSPage">
        <g id="Group" sketch:type="MSLayerGroup" transform="translate(87.023078, 44.706742)">
            <rect id="Rectangle-1" fill="#F9F9F9" sketch:type="MSShapeGroup" x="0" y="0" width="563.859943" height="352.929944"></rect>
            <rect id="Rectangle-30" fill="#EAEAEA" sketch:type="MSShapeGroup" x="46.6812153" y="75.0456701" width="329.225413" height="142.709799" rx="3"></rect>
            <rect id="Rectangle-30" fill="#EAEAEA" sketch:type="MSShapeGroup" x="386.962706" y="75.0026111" width="128.987569" height="235.022124" rx="3"></rect>
            <rect id="Rectangle-1" fill="#359900" sketch:type="MSShapeGroup" x="129.687787" y="28.2343955" width="14.0964986" height="28.2343955"></rect>
            <rect id="Rectangle-1" fill="#2779B7" sketch:type="MSShapeGroup" x="56.3859943" y="28.2343955" width="14.0964986" height="28.2343955"></rect>
            <rect id="Rectangle-1" fill="#2779B7" sketch:type="MSShapeGroup" x="111.362339" y="42.3515933" width="14.0964986" height="28.2343955"></rect>
            <rect id="Rectangle-1" fill="#D83132" sketch:type="MSShapeGroup" x="74.7114425" y="42.3515933" width="14.0964986" height="14.1171978"></rect>
            <rect id="Rectangle-1" fill="#D83132" sketch:type="MSShapeGroup" x="148.013235" y="42.3515933" width="14.0964986" height="14.1171978"></rect>
            <rect id="Rectangle-1" fill="#F99D1C" sketch:type="MSShapeGroup" x="93.0368906" y="42.3515933" width="14.0964986" height="14.1171978"></rect>
            <rect id="Rectangle-1" fill="#D4D4D4" sketch:type="MSShapeGroup" x="197.35098" y="28.2343955" width="310.122969" height="28.2343955" rx="3"></rect>
            <g id="Oval-1-+-Line" transform="translate(482.100251, 33.881275)" stroke="#979797" stroke-width="2" sketch:type="MSShapeGroup">
                <path d="M5.63859943,11.2937582 C8.75271206,11.2937582 11.2771989,8.76556448 11.2771989,5.64687911 C11.2771989,2.52819374 8.75271206,0 5.63859943,0 C2.5244868,0 0,2.52819374 0,5.64687911 C0,8.76556448 2.5244868,11.2937582 5.63859943,11.2937582 Z" id="Oval-1"></path>
                <path d="M10.5723739,10.5878983 L16.9548354,16.9797318" id="Line" stroke-linecap="round"></path>
            </g>
            <rect id="Rectangle-4" fill="#2779B7" sketch:type="MSShapeGroup" x="56.3859943" y="84.7031866" width="84.9548063" height="9.88203844"></rect>
            <rect id="Rectangle-4" fill="#2779B7" sketch:type="MSShapeGroup" x="56.3859943" y="103.055544" width="310.16289" height="9.88203844"></rect>
            <rect id="Rectangle-4" fill="#65A2CF" sketch:type="MSShapeGroup" x="394.70196" y="84.7031866" width="56.3859943" height="9.88203844"></rect>
            <rect id="Rectangle-4" fill="#65A2CF" sketch:type="MSShapeGroup" x="394.70196" y="103.055544" width="112.771989" height="9.88203844"></rect>
            <rect id="Rectangle-4" fill="#65A2CF" sketch:type="MSShapeGroup" x="394.70196" y="131.289939" width="56.3859943" height="9.88203844"></rect>
            <rect id="Rectangle-4" fill="#65A2CF" sketch:type="MSShapeGroup" x="394.70196" y="149.642296" width="112.771989" height="9.88203844"></rect>
            <rect id="Rectangle-4" fill="#65A2CF" sketch:type="MSShapeGroup" x="394.70196" y="226.182729" width="56.3859943" height="9.88203844"></rect>
            <rect id="Rectangle-4" fill="#65A2CF" sketch:type="MSShapeGroup" x="394.70196" y="244.535086" width="112.771989" height="9.88203844"></rect>
            <rect id="Rectangle-4" fill="#65A2CF" sketch:type="MSShapeGroup" x="394.70196" y="272.769481" width="56.3859943" height="9.88203844"></rect>
            <rect id="Rectangle-4" fill="#65A2CF" sketch:type="MSShapeGroup" x="394.70196" y="291.121838" width="112.771989" height="9.88203844"></rect>
            <rect id="Rectangle-4" fill="#65A2CF" sketch:type="MSShapeGroup" x="394.70196" y="179.288412" width="56.3859943" height="9.88203844"></rect>
            <rect id="Rectangle-4" fill="#65A2CF" sketch:type="MSShapeGroup" x="394.70196" y="197.640769" width="112.771989" height="9.88203844"></rect>
            <rect id="Rectangle-4" fill="#2779B7" sketch:type="MSShapeGroup" x="56.3859943" y="131.289939" width="84.9548063" height="9.88203844"></rect>
            <rect id="Rectangle-4" fill="#2779B7" sketch:type="MSShapeGroup" x="56.3859943" y="149.642296" width="310.16289" height="9.88203844"></rect>
            <rect id="Rectangle-4" fill="#2779B7" sketch:type="MSShapeGroup" x="56.3859943" y="179.288412" width="84.9548063" height="9.88203844"></rect>
            <rect id="Rectangle-4" fill="#2779B7" sketch:type="MSShapeGroup" x="56.3859943" y="197.640769" width="310.16289" height="9.88203844"></rect>
            <rect id="Rectangle-4" fill="#D4D4D4" sketch:type="MSShapeGroup" x="56.3859943" y="225.875164" width="56.3859943" height="9.88203844"></rect>
            <rect id="Rectangle-4" fill="#9B9B9B" sketch:type="MSShapeGroup" x="211.447479" y="38.116434" width="56.3859943" height="9.88203844"></rect>
            <rect id="Rectangle-4" fill="#D4D4D4" sketch:type="MSShapeGroup" x="56.3859943" y="244.227521" width="253.736974" height="9.88203844"></rect>
            <rect id="Rectangle-4" fill="#D4D4D4" sketch:type="MSShapeGroup" x="56.3859943" y="273.873637" width="56.3859943" height="9.88203844"></rect>
            <rect id="Rectangle-4" fill="#D4D4D4" sketch:type="MSShapeGroup" x="56.3859943" y="292.225994" width="253.736974" height="9.88203844"></rect>
        </g>
        <circle id="Oval-2" fill="#D64038" sketch:type="MSShapeGroup" cx="134.011406" cy="187.014252" r="5.3700947"></circle>
        <path d="M133.340144,187 L81.940167,187" id="Line" stroke="#D83132" stroke-width="2" stroke-linecap="square" fill="#D64038" sketch:type="MSShapeGroup"></path>
        <ellipse id="Oval-2" fill="#D64038" sketch:type="MSShapeGroup" cx="602.552169" cy="225.947438" rx="5.3700947" ry="5.3700947"></ellipse>
        <path d="M655.951948,226 L603.209447,226" id="Line" stroke="#D83132" stroke-width="2" stroke-linecap="square" fill="#D64038" sketch:type="MSShapeGroup"></path>
        <path d="M20.691668,177.466224 C20.9279533,177.76695 21.148125,178.019342 21.3521896,178.223407 C21.5562542,178.427471 21.8086461,178.615423 22.109373,178.787267 C22.4100998,178.959111 22.565831,179.152432 22.5765712,179.367237 C22.5873114,179.582042 22.3778798,179.657222 21.9482701,179.592781 C21.7764262,179.571301 21.5669946,179.592781 21.319969,179.657222 C21.0729434,179.721664 20.6540802,179.888135 20.0633669,180.156641 C19.4726535,180.425147 18.6349271,180.8279 17.5501626,181.364912 C16.465398,181.901924 15.020857,182.63225 13.2164961,183.555911 C12.9587303,183.08334 12.7170785,182.728918 12.4915334,182.492632 C12.2659882,182.256347 11.9169356,182.020065 11.4443649,181.78378 C13.6353745,181.160846 15.4826686,180.48959 16.9863026,179.769994 C18.4899366,179.050398 19.7250461,178.282482 20.691668,177.466224 Z M36.8986137,183.265926 C35.6957065,182.406706 34.4391169,181.61731 33.1288073,180.897714 C31.8184976,180.178118 30.3685865,179.485382 28.7790306,178.819487 L29.6812065,177.466224 C30.4759845,177.852872 31.2331602,178.212665 31.9527565,178.545613 C32.6723528,178.87856 33.3704582,179.211503 34.0470935,179.54445 C34.7237288,179.877398 35.3896139,180.21034 36.0447687,180.543288 C36.6999235,180.876235 37.3711786,181.214548 38.0585542,181.558236 L36.8986137,183.265926 Z M24.1714893,165.673496 C22.1952846,165.673496 20.4983516,165.678866 19.0806395,165.689606 C17.6629275,165.700346 16.4439282,165.716456 15.4236051,165.737937 C14.403282,165.759417 13.5655556,165.791637 12.9104007,165.834598 C12.2552459,165.877559 11.7021317,165.92052 11.2510415,165.963481 L11.2510415,164.062467 C12.1317414,164.16987 13.4259213,164.24505 15.1336199,164.288011 C16.8413186,164.330972 18.7584232,164.352452 20.8849914,164.352452 L29.6167653,164.352452 C31.7433335,164.352452 33.6604381,164.330972 35.3681368,164.288011 C37.0758354,164.24505 38.3700153,164.16987 39.2507152,164.062467 L39.2507152,165.963481 C38.799625,165.92052 38.2357707,165.877559 37.5591354,165.834598 C36.8825001,165.791637 36.0179235,165.759417 34.9653797,165.737937 C33.9128358,165.716456 32.6616163,165.700346 31.2116835,165.689606 C29.7617506,165.678866 28.0379675,165.673496 26.0402823,165.673496 L26.0402823,167.832274 C27.4579944,167.832274 28.6662536,167.826904 29.6650962,167.816163 C30.6639388,167.805423 31.5016652,167.783943 32.1783005,167.751722 C32.8549358,167.719501 33.4134201,167.681911 33.8537701,167.63895 C34.29412,167.595989 34.6646529,167.542289 34.9653797,167.477847 C34.9653797,168.01486 34.9600096,168.492793 34.9492694,168.911663 C34.9385291,169.330532 34.922419,169.722545 34.9009385,170.087713 C34.879458,170.452882 34.8633479,170.823415 34.8526077,171.199323 C34.8418674,171.575232 34.8364974,171.999465 34.8364974,172.472035 C34.8364974,173.288294 34.8579776,174.0938 34.9009385,174.888578 C34.9438995,175.683356 35.0190801,176.574783 35.1264825,177.562885 C34.8472362,177.519924 34.4605932,177.476964 33.966542,177.434003 C33.4724909,177.391042 32.838826,177.358822 32.0655285,177.337341 C31.292231,177.315861 30.3524738,177.299751 29.2462288,177.28901 C28.1399838,177.27827 26.8243237,177.2729 25.2992092,177.2729 C23.5807703,177.2729 22.1362293,177.27827 20.9655428,177.28901 C19.7948563,177.299751 18.8228789,177.321231 18.0495814,177.353452 C17.2762839,177.385672 16.6640992,177.423263 16.213009,177.466224 C15.7619188,177.509184 15.396756,177.552145 15.1175097,177.595106 C15.1819511,176.585523 15.2249114,175.699466 15.2463919,174.936909 C15.2678724,174.174352 15.2786125,173.363475 15.2786125,172.504256 C15.2786125,171.580595 15.2678724,170.748239 15.2463919,170.007162 C15.2249114,169.266085 15.1819511,168.433729 15.1175097,167.510068 C15.7189633,167.61747 16.7876014,167.698021 18.3234562,167.751722 C19.859311,167.805423 21.8086358,167.832274 24.1714893,167.832274 L24.1714893,165.673496 Z M26.0402823,175.951857 L32.999925,175.951857 L32.999925,173.148667 L26.0402823,173.148667 L26.0402823,175.951857 Z M24.1714893,173.148667 L17.0185232,173.148667 L17.0185232,175.951857 L24.1714893,175.951857 L24.1714893,173.148667 Z M24.1714893,169.217758 L17.0185232,169.217758 L17.0185232,171.763183 L24.1714893,171.763183 L24.1714893,169.217758 Z M26.0402823,171.763183 L32.999925,171.763183 L32.999925,169.217758 L26.0402823,169.217758 L26.0402823,171.763183 Z M31.2922349,157.489471 C32.5810641,157.467991 33.746363,157.435771 34.7881665,157.39281 C35.8299701,157.349849 36.6301062,157.285408 37.1885989,157.199486 L37.1885989,159.293823 C36.6301062,159.207901 35.8299701,159.143461 34.7881665,159.1005 C33.746363,159.057539 32.5810641,159.025318 31.2922349,159.003838 L31.2922349,162.838086 C31.0559495,162.816605 30.7767074,162.800495 30.4545001,162.789755 C30.1322928,162.779014 29.7295397,162.768274 29.2462288,162.757534 C28.7629179,162.746794 28.1829534,162.736054 27.5063181,162.725314 C26.8296828,162.714573 26.0080665,162.709203 25.0414447,162.709203 L22.5926815,162.709203 C21.9053059,162.709203 21.3199715,162.714573 20.8366605,162.725314 C20.3533496,162.736054 19.9505965,162.752164 19.6283892,162.773644 C19.3061819,162.795125 19.0376799,162.816605 18.822875,162.838086 L18.822875,159.003838 C17.5125653,159.025318 16.3418964,159.057539 15.3108331,159.1005 C14.2797697,159.143461 13.4850037,159.207901 12.926511,159.293823 L12.926511,157.199486 C13.4850037,157.285408 14.2797697,157.355219 15.3108331,157.40892 C16.3418964,157.462621 17.5125653,157.489471 18.822875,157.489471 C18.8013945,156.501369 18.7745443,155.728083 18.7423236,155.16959 C18.7101029,154.611098 18.6617725,154.192235 18.597331,153.912988 C19.2847066,154.106313 20.0579925,154.170753 20.9172119,154.106312 C21.0890558,154.084831 21.1964566,154.133161 21.2394176,154.251304 C21.2823786,154.369447 21.1964579,154.503698 20.9816531,154.654061 C20.7238872,154.804425 20.5950062,155.083667 20.5950062,155.491796 L20.5950062,157.489471 L29.4878831,157.489471 L29.4878831,156.055656 C29.4878831,155.679747 29.477143,155.373655 29.4556625,155.13737 C29.434182,154.901084 29.4127018,154.702393 29.3912214,154.541289 C29.3697409,154.380186 29.3375206,154.235195 29.2945597,154.106312 C29.6597279,154.170753 30.057111,154.219083 30.4867207,154.251304 C30.9163304,154.283525 31.2922333,154.278155 31.6144406,154.235194 C31.7433235,154.213713 31.8292441,154.256674 31.8722051,154.364076 C31.9151661,154.471479 31.8399855,154.6111 31.6466611,154.782944 C31.4962977,154.933307 31.399637,155.078298 31.356676,155.217921 C31.3137151,155.357544 31.2922349,155.545496 31.2922349,155.781781 L31.2922349,157.489471 Z M20.5950062,159.003838 L20.5950062,161.291498 L29.4878831,161.291498 L29.4878831,159.003838 L20.5950062,159.003838 Z M67.250389,174.244167 C67.5081548,174.351569 67.6209257,174.48582 67.5887049,174.646924 C67.5564842,174.808027 67.3900129,174.931538 67.0892861,175.01746 C66.9818837,175.038941 66.8530027,175.098011 66.7026393,175.194673 C66.5522759,175.291336 66.3321042,175.490027 66.0421177,175.790754 C65.7521311,176.091481 65.3547481,176.531824 64.8499566,177.111797 C64.3451652,177.69177 63.6953903,178.465056 62.9006123,179.431678 L61.2573633,178.40062 C61.6654925,178.056932 62.0843557,177.648809 62.5139655,177.176238 C62.9435752,176.703668 63.3516983,176.214994 63.738347,175.710203 C64.1249958,175.205411 64.4579383,174.705997 64.7371847,174.211946 C65.016431,173.717895 65.2204925,173.288292 65.3493755,172.923123 C65.6930632,173.266811 66.0152657,173.535313 66.3159925,173.728638 C66.6167193,173.921962 66.9281817,174.093803 67.250389,174.244167 Z M52.8155744,179.496119 C52.2785623,178.65838 51.6502675,177.793804 50.9306712,176.902364 C50.2110749,176.010923 49.443159,175.178567 48.6269006,174.40527 L49.9479439,173.27755 C50.3345926,173.642718 50.7373457,174.040101 51.1562152,174.469711 C51.5750847,174.89932 51.9832078,175.334294 52.3805968,175.774644 C52.7779858,176.214994 53.1592587,176.649967 53.5244269,177.079577 C53.8895952,177.509186 54.2117977,177.906569 54.491044,178.271738 L52.8155744,179.496119 Z M56.875366,165.995701 C55.6294978,165.995701 54.4373487,166.011811 53.298883,166.044032 C52.1604172,166.076253 51.2475102,166.113843 50.5601347,166.156804 L50.5601347,164.577996 C49.7438762,165.136489 48.8309692,165.727193 47.8213864,166.350128 C46.8118035,166.973062 45.6626147,167.628207 44.3737856,168.315582 C44.2449027,167.928933 44.0354711,167.563771 43.7454845,167.220083 C43.4554979,166.876395 43.074225,166.597153 42.6016543,166.382348 C43.826042,165.931258 44.9806008,165.453324 46.0653654,164.948533 C47.15013,164.443741 48.1704377,163.885257 49.1263194,163.273063 C50.082201,162.660869 50.9897379,161.984244 51.8489574,161.243167 C52.7081768,160.502091 53.5351631,159.669734 54.3299411,158.746073 C55.1676801,157.757971 55.8443053,156.855804 56.3598369,156.039546 C56.8753686,155.223287 57.2405314,154.33186 57.4553362,153.365239 C57.884946,153.773368 58.2608488,154.06872 58.5830561,154.251304 C58.9052634,154.433888 59.238206,154.557399 59.5818937,154.621841 C59.7966986,154.664802 59.8987294,154.761462 59.8879891,154.911826 C59.8772489,155.062189 59.753738,155.16959 59.5174526,155.234031 C59.4100502,155.276992 59.2865392,155.352173 59.1469161,155.459575 C59.0072929,155.566978 58.883782,155.685119 58.7763795,155.814002 C59.9363258,157.145792 61.0210741,158.305721 62.0306569,159.293823 C63.0402398,160.281925 64.0712877,161.162612 65.1238315,161.93591 C66.1763753,162.709207 67.2826037,163.407312 68.44255,164.030247 C69.6024963,164.653181 70.9020462,165.243885 72.3412387,165.802378 C71.997551,166.038663 71.7236789,166.280315 71.5196143,166.527341 C71.3155496,166.774366 71.106118,167.123419 70.8913132,167.574509 C69.7743279,167.016016 68.7755003,166.479012 67.8948003,165.963481 C67.0141004,165.447949 66.1978542,164.932425 65.4460372,164.416893 L65.4460372,166.156804 C64.7586616,166.113843 63.8242745,166.076253 62.6428477,166.044032 C61.461421,166.011811 60.2048314,165.995701 58.8730412,165.995701 L58.8730412,170.281037 C59.968546,170.281037 60.9673737,170.275667 61.8695541,170.264927 C62.7717345,170.254186 63.6094609,170.238076 64.3827584,170.216596 C65.1560559,170.195115 65.8810114,170.168265 66.5576468,170.136044 C67.2342821,170.103824 67.884057,170.066233 68.5069911,170.023272 L68.5069911,172.117609 C67.884057,172.074648 67.2342821,172.037058 66.5576468,172.004837 C65.8810114,171.972616 65.1560559,171.945766 64.3827584,171.924286 C63.6094609,171.902805 62.7717345,171.886695 61.8695541,171.875955 C60.9673737,171.865215 59.968546,171.859845 58.8730412,171.859845 L58.8730412,180.462736 L64.640523,180.462736 C66.101196,180.462736 67.3201953,180.441256 68.2975574,180.398295 C69.2749196,180.355334 70.1609763,180.280154 70.9557543,180.172751 L70.9557543,182.299309 C70.1180154,182.256348 69.2588088,182.218757 68.3781089,182.186537 C67.4974089,182.154316 66.5415416,182.132836 65.5104783,182.122096 C64.479415,182.111355 63.3463363,182.100615 62.1112084,182.089875 C60.8760804,182.079135 59.4852398,182.073765 57.9386448,182.073765 C56.3920498,182.073765 55.0012091,182.079135 53.7660812,182.089875 C52.5309532,182.100615 51.3978746,182.116725 50.3668112,182.138206 C49.3357479,182.159686 48.3798806,182.186537 47.4991807,182.218757 C46.6184807,182.250978 45.7592742,182.299308 44.9215352,182.36375 L44.9215352,180.172751 C45.7163132,180.280154 46.6184801,180.355334 47.628063,180.398295 C48.6376458,180.441256 49.8512751,180.462736 51.2689872,180.462736 L56.875366,180.462736 L56.875366,171.859845 C55.7369003,171.859845 54.6951123,171.865215 53.7499709,171.875955 C52.8048295,171.886695 51.9295128,171.902805 51.1239946,171.924286 C50.3184764,171.945766 49.5666706,171.972616 48.8685548,172.004837 C48.170439,172.037058 47.4991839,172.074648 46.8547693,172.117609 L46.8547693,170.023272 C47.4991839,170.066233 48.170439,170.103824 48.8685548,170.136044 C49.5666706,170.168265 50.3184764,170.195115 51.1239946,170.216596 C51.9295128,170.238076 52.8048295,170.254186 53.7499709,170.264927 C54.6951123,170.275667 55.7369003,170.281037 56.875366,170.281037 L56.875366,165.995701 Z M51.0112226,164.255791 C51.4193519,164.277271 51.8919155,164.298751 52.4289276,164.320232 C52.9659398,164.341712 53.5351641,164.357822 54.1366177,164.368563 C54.7380713,164.379303 55.3663661,164.384673 56.021521,164.384673 L57.9708653,164.384673 L60.0168714,164.384673 C60.7149872,164.384673 61.3808723,164.379303 62.0145466,164.368563 C62.648221,164.357822 63.2389255,164.341712 63.7866779,164.320232 C64.3344303,164.298751 64.8123639,164.277271 65.2204932,164.255791 C64.5545981,163.78322 63.9263033,163.294546 63.3355899,162.789755 C62.7448766,162.284963 62.1595421,161.742589 61.579569,161.162616 C60.9995959,160.582643 60.4088913,159.959718 59.8074377,159.293823 C59.2059841,158.627928 58.5615792,157.886862 57.8742036,157.070604 C57.4016329,157.77946 56.9236993,158.450715 56.4403884,159.084389 C55.9570774,159.718064 55.4469235,160.324878 54.9099114,160.904851 C54.3728992,161.484825 53.7875647,162.048679 53.1538904,162.596431 C52.5202161,163.144184 51.8060006,163.697298 51.0112226,164.255791 Z M15.020848,199.204367 C15.020848,200.106547 15.0154779,200.938904 15.0047377,201.701461 C14.9939974,202.464018 14.9778873,203.199714 14.9564068,203.90857 L18.6939927,203.90857 C19.1880439,203.90857 19.6498674,203.89783 20.0794772,203.876349 C20.5090869,203.854869 20.9064699,203.822649 21.2716382,203.779688 C21.2286772,203.994492 21.196457,204.305955 21.1749765,204.714084 C21.153496,205.122213 21.1427559,205.541076 21.1427559,205.970686 L21.1427559,212.608123 C21.1427559,213.166616 21.153496,213.77343 21.1749765,214.428585 C21.196457,215.08374 21.2286772,215.733515 21.2716382,216.37793 L19.2417424,216.37793 L19.2417424,205.584039 L14.8919657,205.584039 C14.8490047,206.872869 14.7738241,208.027427 14.6664217,209.04775 C14.5590193,210.068074 14.4247682,211.007831 14.2636646,211.86705 C14.102561,212.72627 13.9038694,213.542516 13.6675841,214.315813 C13.4312987,215.089111 13.1627967,215.862397 12.8620699,216.635694 C12.5828236,216.399409 12.249881,216.211457 11.8632323,216.071834 C11.4765835,215.932211 11.0469802,215.84092 10.5744095,215.797959 C11.0899412,214.874299 11.5249145,213.939911 11.8793426,212.99477 C12.2337706,212.049629 12.5130127,210.93803 12.7170773,209.659941 C12.9211419,208.381852 13.0661331,206.846021 13.152055,205.0524 C13.2379769,203.258779 13.2809373,201.040952 13.2809373,198.398853 C13.2809373,197.324828 13.2755672,196.2723 13.264827,195.241237 C13.2540867,194.210174 13.2326066,193.259676 13.2003859,192.389717 C13.1681651,191.519757 13.1305748,190.746471 13.0876139,190.069836 C13.0446529,189.3932 12.9909525,188.861566 12.926511,188.474918 C13.8286914,188.732683 14.6556778,188.840084 15.4074948,188.797123 C15.6652606,188.775643 15.8156218,188.850823 15.8585827,189.022667 C15.9015437,189.194511 15.7726627,189.387833 15.4719359,189.602638 C15.4074945,189.645599 15.348424,189.80133 15.2947228,190.069836 C15.2410216,190.338342 15.1980612,190.767945 15.1658405,191.358659 C15.1336198,191.949372 15.1013995,192.749508 15.0691788,193.759091 C15.0369581,194.768674 15.020848,196.036003 15.020848,197.561118 L18.597331,197.561118 L18.597331,192.244724 C18.597331,191.342544 18.5704808,190.601478 18.5167796,190.021505 C18.4630784,189.441532 18.3825278,188.936748 18.2751253,188.507138 C18.6832546,188.636021 19.1128579,188.727312 19.5639481,188.781013 C20.0150383,188.834714 20.4231614,188.850824 20.7883297,188.829344 C21.0460955,188.807863 21.1749765,188.866934 21.1749765,189.006557 C21.1749765,189.14618 21.0890558,189.269691 20.9172119,189.377094 C20.5735242,189.591898 20.4016828,189.967801 20.4016828,190.504813 L20.4016828,197.561118 C20.9601755,197.561118 21.5079197,197.545008 22.0449318,197.512787 C22.581944,197.480566 23.0115473,197.442976 23.3337545,197.400015 L23.3337545,199.36547 C23.1189497,199.343989 22.8504476,199.322509 22.5282403,199.301029 C22.206033,199.279548 21.8569804,199.263438 21.4810719,199.252698 C21.1051634,199.241957 20.7185204,199.231217 20.3211314,199.220477 C19.9237424,199.209737 19.5639497,199.204367 19.2417424,199.204367 L15.020848,199.204367 Z M26.6202525,198.559955 L26.6202525,200.589851 C26.6202525,202.372732 26.561182,203.930044 26.4430394,205.261834 C26.3248967,206.593624 26.1476853,207.812623 25.9114,208.918868 C25.6751147,210.025113 25.3636523,211.077641 24.9770035,212.076484 C24.5903548,213.075326 24.1285312,214.133225 23.5915191,215.25021 C23.2693118,214.949483 22.9309992,214.723941 22.5765712,214.573578 C22.2221432,214.423214 21.7979099,214.294333 21.3038587,214.186931 C21.9482733,213.284751 22.4906475,212.409434 22.9309974,211.560955 C23.3713474,210.712476 23.7311402,209.719018 24.0103865,208.580552 C24.2896328,207.442086 24.4936944,206.078096 24.6225773,204.48854 C24.7514602,202.898984 24.8159007,200.912069 24.8159007,198.527735 C24.8159007,196.852257 24.7836804,195.289575 24.719239,193.839642 C24.6547975,192.389709 24.5688769,191.224411 24.4614744,190.343711 C26.2873158,190.32223 27.8768479,190.26853 29.2301185,190.182608 C30.5833892,190.096686 31.7755383,189.973175 32.8066016,189.812071 C33.8376649,189.650968 34.7344618,189.463016 35.497019,189.248211 C36.2595763,189.033406 36.9845318,188.775644 37.6719074,188.474918 C37.9941147,189.269696 38.4129779,189.924841 38.9285095,190.440372 C39.2077559,190.719619 39.2990466,190.91831 39.2023844,191.036453 C39.1057222,191.154595 38.9070307,191.170706 38.6063039,191.084784 C38.4129795,191.041823 38.1874378,191.009602 37.9296719,190.988122 C37.6719061,190.966641 37.3497036,190.966641 36.9630549,190.988122 C36.5764061,191.009602 36.0984725,191.057933 35.5292396,191.133115 C34.9600067,191.208296 34.2780115,191.310327 33.4832335,191.43921 C32.6240141,191.589573 31.6412966,191.713084 30.5350515,191.809746 C29.4288065,191.906409 28.1238865,191.997699 26.6202525,192.083621 L26.6202525,196.852265 L32.2588519,196.852265 L33.7409981,196.852265 C34.1706078,196.852265 34.594841,196.841525 35.0137105,196.820045 C35.43258,196.798564 35.8621833,196.777084 36.3025332,196.755604 C36.7428832,196.734123 37.2530371,196.701903 37.8330102,196.658942 C37.5967249,198.33442 37.355073,199.848771 37.1080474,201.202042 C36.8610219,202.555313 36.5817797,203.774312 36.2703127,204.859077 C35.9588456,205.943841 35.609793,206.926559 35.2231442,207.807259 C34.8364955,208.687958 34.4068922,209.504205 33.9343215,210.256022 C34.7935409,211.222644 35.722558,212.07648 36.7214006,212.817557 C37.7202432,213.558634 38.7996215,214.143968 39.9595677,214.573578 C39.5514385,214.809863 39.1809057,215.115956 38.8479581,215.491864 C38.5150106,215.867773 38.2303984,216.249045 37.9941131,216.635694 C36.8986083,215.905358 35.9266309,215.153552 35.0781516,214.380254 C34.2296724,213.606957 33.4617566,212.779971 32.774381,211.899271 C32.0010835,212.822932 31.1257668,213.676768 30.1484047,214.460806 C29.1710426,215.244844 28.0701842,216.05572 26.8457965,216.893459 C26.5665502,216.50681 26.2658279,216.179238 25.9436206,215.910731 C25.6214133,215.642225 25.2240302,215.400574 24.7514595,215.185769 C26.2336131,214.476913 27.5385331,213.735847 28.6662586,212.962549 C29.7939841,212.189252 30.7659615,211.297825 31.58222,210.288242 C31.1526103,209.643828 30.7713374,208.940352 30.4383898,208.177795 C30.1054423,207.415238 29.7886099,206.561401 29.4878831,205.61626 C29.1871563,204.671119 28.9025441,203.61859 28.634038,202.458644 C28.3655319,201.298698 28.0916598,199.999148 27.8124135,198.559955 L26.6202525,198.559955 Z M29.4878831,198.559955 C29.6382465,199.505097 29.8261979,200.455594 30.051743,201.411476 C30.2772881,202.367357 30.52431,203.291004 30.7928161,204.182445 C31.0613222,205.073885 31.3566744,205.906241 31.6788817,206.679539 C32.001089,207.452836 32.3555117,208.118721 32.7421605,208.677214 C33.4939775,207.452826 34.1169022,206.024395 34.6109534,204.391878 C35.1050046,202.759361 35.4701674,200.815407 35.7064527,198.559955 L29.4878831,198.559955 Z M47.6602835,197.69 C47.2306738,198.441817 46.7420001,199.231213 46.1942477,200.058212 C45.6464953,200.885211 45.0933811,201.653126 44.5348884,202.361983 C44.2556421,202.039775 43.9602898,201.776643 43.6488228,201.572579 C43.3373557,201.368514 42.9560828,201.202043 42.5049926,201.07316 C43.3427316,200.364304 44.180458,199.429917 45.0181969,198.26997 C45.8559359,197.110024 46.6238518,195.874915 47.3219676,194.564605 C48.0200834,193.254295 48.6215279,191.944005 49.1263194,190.633696 C49.6311108,189.323386 49.9909035,188.152717 50.2057084,187.121654 C50.6353181,187.4009 51.016591,187.615702 51.3495386,187.766065 C51.6824861,187.916429 52.0315388,188.034569 52.396707,188.120491 C52.9766802,188.249374 53.0089004,188.528616 52.4933687,188.958226 C52.3644858,189.065629 52.2248648,189.19988 52.0745014,189.360983 C51.924138,189.522087 51.7361865,189.790589 51.5106414,190.166497 C51.2850963,190.542406 51.0112242,191.04182 50.6890169,191.664754 C50.3668096,192.287688 49.9694266,193.093194 49.4968559,194.081297 L49.4968559,217.022341 L47.3058573,217.022341 C47.4132597,215.969797 47.4991804,214.783018 47.5636218,213.461968 C47.6280633,212.140918 47.6602835,210.535276 47.6602835,208.644993 L47.6602835,197.69 Z M62.1273186,212.801447 C62.5998893,211.813344 63.0617129,210.680266 63.5128031,209.402177 C63.9638933,208.124088 64.3827565,206.792318 64.7694052,205.406826 C65.156054,204.021335 65.4889965,202.630494 65.7682428,201.234263 C66.0474892,199.838031 66.2622908,198.527741 66.4126542,197.303353 C66.8207834,197.5826 67.287977,197.808141 67.8142489,197.979985 C68.3405208,198.151829 68.7754942,198.24849 69.1191819,198.26997 C69.3554673,198.291451 69.4843483,198.377372 69.5058287,198.527735 C69.5273092,198.678098 69.3876882,198.8392 69.0869614,199.011043 C68.8291955,199.161407 68.6143939,199.403059 68.44255,199.736006 C68.2707061,200.068954 68.1096049,200.482447 67.9592415,200.976498 C67.7873976,201.51351 67.5672259,202.200876 67.2987198,203.038614 C67.0302138,203.876353 66.7241214,204.810741 66.3804336,205.841804 C66.0367459,206.872867 65.660843,207.984466 65.2527137,209.176633 C64.8445845,210.3688 64.4257213,211.577059 63.9961116,212.801447 C65.4997456,212.801447 66.7187449,212.796077 67.6531461,212.785336 C68.5875472,212.774596 69.344723,212.758486 69.9246961,212.737005 C70.5046693,212.715525 70.9772329,212.688675 71.3424011,212.656454 C71.7075694,212.624233 72.0834723,212.586643 72.470121,212.543682 L72.470121,214.863563 C71.6538625,214.756161 70.3757928,214.67024 68.6358734,214.605798 C66.895954,214.541357 64.6512769,214.509137 61.9017747,214.509137 C60.3551797,214.509137 59.0019293,214.519877 57.8419831,214.541357 C56.6820368,214.562838 55.6724691,214.589688 54.8132497,214.621909 C53.9540302,214.654129 53.2290747,214.69172 52.6383613,214.734681 C52.0476479,214.777642 51.5589742,214.820602 51.1723255,214.863563 L51.1723255,212.479241 C51.5160132,212.522202 51.9670967,212.565162 52.5255893,212.608123 C53.084082,212.651084 53.6855266,212.688674 54.3299411,212.720895 C54.9743557,212.753116 55.6509809,212.779966 56.3598369,212.801447 C57.068693,212.822927 57.7667983,212.833667 58.4541739,212.833667 L62.1273186,212.801447 Z M62.997274,193.404665 C64.1142593,193.404665 65.0916067,193.393925 65.9293457,193.372444 C66.7670846,193.350964 67.4920402,193.324113 68.104234,193.291893 C68.7164279,193.259672 69.2480619,193.227452 69.6991522,193.195231 C70.1502424,193.16301 70.5583655,193.12542 70.9235337,193.082459 L70.9235337,195.370119 C70.1072753,195.241236 68.9634565,195.149946 67.4920432,195.096244 C66.0206299,195.042543 64.1250055,195.015693 61.805113,195.015693 C59.6785448,195.015693 57.8312507,195.042543 56.2631752,195.096244 C54.6950997,195.149946 53.5029506,195.241236 52.6866922,195.370119 L52.6866922,193.082459 C53.4814701,193.189861 54.5447383,193.270412 55.8765284,193.324113 C57.2083186,193.377814 58.9374718,193.404665 61.0640399,193.404665 C60.6988716,192.352121 60.3444489,191.433844 60.0007611,190.649806 C59.6570734,189.865768 59.2489502,189.033412 58.7763795,188.152712 L60.6773931,187.314977 C60.8921979,187.851989 61.1016295,188.362143 61.3056941,188.845454 C61.5097588,189.328765 61.7030802,189.812069 61.8856644,190.29538 C62.0682485,190.778691 62.2508299,191.272734 62.433414,191.777526 C62.6159982,192.282317 62.8039496,192.824691 62.997274,193.404665 Z M58.6474973,211.351521 C58.0890046,209.07459 57.4607098,206.980274 56.762594,205.06851 C56.0644782,203.156747 55.2321219,201.298713 54.2655,199.494352 L56.0698518,198.624397 C56.6498249,199.977667 57.1492388,201.164446 57.5681082,202.184769 C57.9869777,203.205093 58.3628806,204.16633 58.6958281,205.06851 C59.0287757,205.970691 59.3509781,206.867488 59.6624452,207.758928 C59.9739122,208.650368 60.3122248,209.643825 60.6773931,210.73933 L58.6474973,211.351521 Z" id="黃金" fill="#FFFFFF" sketch:type="MSShapeGroup"></path>
        <path d="M695.938115,209.643831 C694.756689,209.579389 693.731011,209.531059 692.861051,209.498838 C691.991091,209.466618 691.088925,209.439767 690.154523,209.418287 C689.220122,209.396806 688.151484,209.380696 686.948577,209.369956 C685.74567,209.359216 684.220578,209.353846 682.373256,209.353846 C680.268168,209.353846 678.512165,209.359216 677.105193,209.369956 C675.698221,209.380696 674.473852,209.391436 673.432048,209.402177 C672.390245,209.412917 671.423638,209.439767 670.532197,209.482728 C669.640757,209.525689 668.65804,209.579389 667.584015,209.643831 L667.584015,207.356171 C668.615079,207.420612 669.581686,207.468942 670.483866,207.501163 C671.386047,207.533384 672.379504,207.554864 673.464269,207.565604 C674.549034,207.576345 675.794883,207.587085 677.201855,207.597825 C678.608827,207.608565 680.33261,207.613935 682.373256,207.613935 L685.643644,207.613935 C686.578045,207.613935 687.415771,207.608565 688.156848,207.597825 C688.897925,207.587085 689.56918,207.576345 690.170634,207.565604 C690.772087,207.554864 691.368162,207.538754 691.958875,207.517273 C692.549589,207.495793 693.161773,207.474313 693.795448,207.452832 C694.429122,207.431352 695.143337,207.399132 695.938115,207.356171 L695.938115,209.643831 Z M728.223125,206.067348 C728.051281,206.389555 727.95462,206.701018 727.93314,207.001744 C727.911659,207.302471 727.922399,207.635414 727.96536,208.000582 C726.63357,208.086504 725.564932,208.113354 724.759414,208.081133 C723.953895,208.048913 723.341711,207.930772 722.922841,207.726707 C722.503972,207.522643 722.23547,207.22729 722.117327,206.840642 C721.999184,206.453993 721.940114,205.949209 721.940114,205.326275 L722.036776,199.075485 L717.268131,199.075485 C717.311092,200.342833 717.300352,201.443692 717.235911,202.378093 C717.171469,203.312494 717.015738,204.15022 716.768713,204.891297 C716.521687,205.632374 716.167264,206.308999 715.705434,206.921193 C715.243603,207.533387 714.647529,208.161682 713.917192,208.806096 C713.723868,208.54833 713.476846,208.295938 713.176119,208.048913 C712.875393,207.801887 712.55319,207.592456 712.209502,207.420612 C712.9828,206.969522 713.616465,206.475478 714.110516,205.938466 C714.604567,205.401453 714.96973,204.757049 715.206015,204.005232 C715.4423,203.253414 715.565811,202.356618 715.576552,201.314814 C715.587292,200.27301 715.496001,199.011051 715.302677,197.528897 C715.624884,197.571858 715.936346,197.604079 716.237073,197.625559 C716.5378,197.64704 716.860003,197.66315 717.20369,197.67389 C717.547378,197.68463 717.923281,197.69537 718.33141,197.70611 C718.739539,197.716851 719.201363,197.722221 719.716895,197.722221 C720.790919,197.722221 721.666236,197.706111 722.342871,197.67389 C723.019506,197.641669 723.658541,197.593339 724.259995,197.528897 C724.152592,198.08739 724.050562,199.005667 723.953899,200.283756 C723.857237,201.561845 723.787427,203.006386 723.744466,204.617422 C723.744466,205.025552 723.792796,205.363864 723.889458,205.63237 C723.98612,205.900876 724.190182,206.094198 724.501649,206.21234 C724.813116,206.330483 725.2642,206.378813 725.854913,206.357333 C726.445626,206.335853 727.235022,206.239192 728.223125,206.067348 Z M707.118653,217.860076 C706.882367,217.000856 706.597755,216.18998 706.264807,215.427423 C705.93186,214.664866 705.550587,213.89695 705.120977,213.123652 L706.732006,212.543682 C707.183096,213.359941 707.564369,214.106376 707.875836,214.783012 C708.187303,215.459647 708.504135,216.249043 708.826343,217.151223 L707.118653,217.860076 Z M705.153198,199.494352 C705.368003,198.785496 705.523734,198.135721 705.620396,197.545008 C705.717058,196.954294 705.786869,196.304519 705.82983,195.595663 C706.130557,195.767507 706.479609,195.907128 706.876998,196.014531 C707.274387,196.121933 707.63418,196.197114 707.956387,196.240075 C708.235634,196.283036 708.396735,196.363586 708.439696,196.481729 C708.482657,196.599872 708.364516,196.755603 708.08527,196.948927 C707.999348,197.013369 707.913427,197.093919 707.827505,197.190581 C707.741583,197.287244 707.650292,197.426865 707.55363,197.609449 C707.456968,197.792033 707.349567,198.033685 707.231424,198.334412 C707.113282,198.635138 706.968291,199.021781 706.796447,199.494352 C707.80603,199.494352 708.745787,199.478242 709.615747,199.446021 C710.485706,199.4138 711.275102,199.37621 711.983958,199.333249 C711.940997,199.784339 711.908777,200.348194 711.887297,201.024829 C711.865816,201.701464 711.855076,202.555301 711.855076,203.586364 L711.855076,221.114353 C711.855076,221.629885 711.790636,222.064858 711.661753,222.419286 C711.53287,222.773714 711.291218,223.079807 710.93679,223.337572 C710.582362,223.595338 710.099058,223.81551 709.486864,223.998094 C708.87467,224.180678 708.085274,224.336409 707.118653,224.465292 C707.032731,223.92828 706.91459,223.487937 706.764226,223.144249 C706.613863,222.800561 706.388321,222.446139 706.087594,222.08097 C706.989775,222.145412 707.70399,222.161522 708.230262,222.129301 C708.756534,222.09708 709.159287,222.01653 709.438533,221.887647 C709.71778,221.758764 709.894991,221.576183 709.970173,221.339897 C710.045354,221.103612 710.082945,220.81363 710.082945,220.469942 L710.082945,210.70711 L703.832155,210.70711 C703.832155,212.554432 703.794564,214.122483 703.719383,215.411313 C703.644201,216.700142 703.50995,217.843961 703.316625,218.842803 C703.123301,219.841646 702.865539,220.770663 702.543332,221.629882 C702.221125,222.489102 701.802261,223.412749 701.28673,224.400851 C700.921561,224.100124 700.577879,223.863843 700.255671,223.691999 C699.933464,223.520155 699.579041,223.402014 699.192393,223.337572 C699.729405,222.607236 700.175118,221.88228 700.529546,221.162684 C700.883974,220.443088 701.173957,219.610731 701.399502,218.66559 C701.625047,217.720449 701.786148,216.61422 701.88281,215.346872 C701.979472,214.079523 702.027803,212.543691 702.027803,210.73933 C701.082661,210.760811 700.234195,210.825251 699.482378,210.932654 L699.482378,208.967199 C699.869027,209.03164 700.26641,209.079971 700.674539,209.112192 C701.082668,209.144412 701.533752,209.182003 702.027803,209.224964 L702.027803,203.586364 C702.027803,202.555301 702.017063,201.701464 701.995582,201.024829 C701.974102,200.348194 701.941881,199.784339 701.89892,199.333249 C702.457413,199.37621 702.983677,199.40843 703.477728,199.429911 C703.971779,199.451391 704.530264,199.472871 705.153198,199.494352 Z M710.082945,209.224964 L710.082945,200.944278 L703.832155,200.944278 L703.832155,209.224964 L710.082945,209.224964 Z M707.021991,208.032803 C706.742744,207.066181 706.452762,206.185494 706.152035,205.390716 C705.851309,204.595938 705.518366,203.854872 705.153198,203.167497 L706.732006,202.458644 C707.118654,203.210461 707.462337,203.967637 707.763064,204.730194 C708.063791,205.492752 708.364513,206.357328 708.66524,207.32395 L707.021991,208.032803 Z M714.690486,211.544844 C714.454201,211.566325 714.228659,211.582435 714.013854,211.593175 C713.799049,211.603916 713.584248,211.620026 713.369443,211.641506 L713.369443,209.61161 C714.357545,209.697532 715.388593,209.761973 716.462617,209.804934 C717.536642,209.847895 718.65361,209.869375 719.813556,209.869375 C720.952022,209.869375 722.068991,209.847895 723.164495,209.804934 C724.26,209.761973 725.291048,209.697532 726.25767,209.61161 C725.871021,210.793037 725.505858,211.829455 725.162171,212.720895 C724.818483,213.612335 724.46943,214.428582 724.115002,215.169658 C723.760574,215.910735 723.379301,216.5981 722.971172,217.231775 C722.563043,217.865449 722.079739,218.504484 721.521246,219.148899 C722.530829,219.836274 723.594097,220.443089 724.711083,220.969361 C725.828068,221.495633 727.181318,221.898386 728.770874,222.177632 C728.534589,222.478359 728.314417,222.789821 728.110353,223.112028 C727.906288,223.434236 727.718337,223.820879 727.546493,224.271969 C725.956937,223.799398 724.587576,223.224804 723.43837,222.548169 C722.289164,221.871533 721.231266,221.157318 720.264644,220.405501 C719.448386,221.200279 718.465668,221.962825 717.316462,222.693161 C716.167256,223.423498 714.926777,224.100123 713.594987,224.723057 C713.401662,224.357889 713.186861,224.051796 712.950575,223.804771 C712.71429,223.557745 712.359867,223.283873 711.887297,222.983146 C713.240567,222.553536 714.518637,222.032642 715.721544,221.420449 C716.924451,220.808255 717.966239,220.083299 718.846939,219.24556 C718.052161,218.278938 717.273505,217.11901 716.510948,215.765739 C715.748391,214.412468 715.141576,213.005518 714.690486,211.544844 Z M716.365956,211.383742 C716.774085,212.62961 717.311089,213.843239 717.976984,215.024666 C718.642879,216.206093 719.351724,217.23714 720.103541,218.11784 C720.554632,217.688231 720.952015,217.247887 721.295703,216.796797 C721.63939,216.345707 721.950853,215.851663 722.230099,215.314651 C722.509345,214.777639 722.772477,214.186934 723.019503,213.54252 C723.266528,212.898105 723.50818,212.17852 723.744466,211.383742 L716.365956,211.383742 Z M671.514925,240.822601 C671.514925,241.724781 671.509555,242.557138 671.498814,243.319695 C671.488074,244.082252 671.471964,244.817948 671.450484,245.526804 L675.188069,245.526804 C675.682121,245.526804 676.143944,245.516064 676.573554,245.494583 C677.003164,245.473103 677.400547,245.440882 677.765715,245.397921 C677.722754,245.612726 677.690534,245.924189 677.669053,246.332318 C677.647573,246.740447 677.636833,247.15931 677.636833,247.58892 L677.636833,254.226357 C677.636833,254.78485 677.647573,255.391664 677.669053,256.046819 C677.690534,256.701974 677.722754,257.351749 677.765715,257.996164 L675.735819,257.996164 L675.735819,247.202273 L671.386042,247.202273 C671.343081,248.491102 671.267901,249.645661 671.160498,250.665984 C671.053096,251.686307 670.918845,252.626065 670.757741,253.485284 C670.596638,254.344504 670.397946,255.16075 670.161661,255.934047 C669.925375,256.707345 669.656873,257.480631 669.356147,258.253928 C669.0769,258.017643 668.743958,257.829691 668.357309,257.690068 C667.97066,257.550445 667.541057,257.459154 667.068486,257.416193 C667.584018,256.492532 668.018991,255.558145 668.373419,254.613004 C668.727847,253.667863 669.007089,252.556264 669.211154,251.278175 C669.415219,250.000086 669.56021,248.464254 669.646132,246.670634 C669.732054,244.877013 669.775014,242.659186 669.775014,240.017087 C669.775014,238.943062 669.769644,237.890534 669.758904,236.859471 C669.748163,235.828408 669.726683,234.87791 669.694463,234.007951 C669.662242,233.137991 669.624652,232.364705 669.581691,231.68807 C669.53873,231.011434 669.485029,230.4798 669.420588,230.093152 C670.322768,230.350917 671.149754,230.458318 671.901571,230.415357 C672.159337,230.393877 672.309698,230.469057 672.352659,230.640901 C672.39562,230.812745 672.266739,231.006067 671.966013,231.220871 C671.901571,231.263832 671.842501,231.419564 671.788799,231.68807 C671.735098,231.956576 671.692138,232.386179 671.659917,232.976892 C671.627696,233.567606 671.595476,234.367742 671.563256,235.377325 C671.531035,236.386908 671.514925,237.654237 671.514925,239.179352 L675.091408,239.179352 L675.091408,233.862958 C675.091408,232.960778 675.064558,232.219712 675.010856,231.639739 C674.957155,231.059766 674.876604,230.554982 674.769202,230.125372 C675.177331,230.254255 675.606935,230.345546 676.058025,230.399247 C676.509115,230.452948 676.917238,230.469058 677.282406,230.447578 C677.540172,230.426097 677.669053,230.485168 677.669053,230.624791 C677.669053,230.764414 677.583133,230.887925 677.411289,230.995327 C677.067601,231.210132 676.89576,231.586035 676.89576,232.123047 L676.89576,239.179352 C677.454252,239.179352 678.001996,239.163242 678.539009,239.131021 C679.076021,239.0988 679.505624,239.06121 679.827831,239.018249 L679.827831,240.983704 C679.613026,240.962223 679.344524,240.940743 679.022317,240.919262 C678.70011,240.897782 678.351057,240.881672 677.975149,240.870932 C677.59924,240.860191 677.212597,240.849451 676.815208,240.838711 C676.417819,240.827971 676.058026,240.822601 675.735819,240.822601 L671.514925,240.822601 Z M683.114329,240.178189 L683.114329,242.208085 C683.114329,243.990966 683.055259,245.548277 682.937116,246.880068 C682.818973,248.211858 682.641762,249.430857 682.405477,250.537102 C682.169191,251.643347 681.857729,252.695875 681.47108,253.694718 C681.084431,254.69356 680.622608,255.751458 680.085596,256.868444 C679.763389,256.567717 679.425076,256.342175 679.070648,256.191812 C678.71622,256.041448 678.291987,255.912567 677.797935,255.805165 C678.44235,254.902985 678.984724,254.027668 679.425074,253.179189 C679.865424,252.330709 680.225217,251.337252 680.504463,250.198786 C680.78371,249.06032 680.987771,247.69633 681.116654,246.106774 C681.245537,244.517218 681.309977,242.530303 681.309977,240.145969 C681.309977,238.470491 681.277757,236.907809 681.213316,235.457876 C681.148874,234.007943 681.062954,232.842644 680.955551,231.961945 C682.781392,231.940464 684.370925,231.886764 685.724195,231.800842 C687.077466,231.71492 688.269615,231.591409 689.300678,231.430305 C690.331742,231.269201 691.228538,231.08125 691.991096,230.866445 C692.753653,230.65164 693.478609,230.393878 694.165984,230.093152 C694.488191,230.88793 694.907055,231.543075 695.422586,232.058606 C695.701833,232.337853 695.793123,232.536544 695.696461,232.654687 C695.599799,232.772829 695.401107,232.78894 695.100381,232.703018 C694.907056,232.660057 694.681514,232.627836 694.423749,232.606356 C694.165983,232.584875 693.84378,232.584875 693.457132,232.606356 C693.070483,232.627836 692.592549,232.676167 692.023316,232.751348 C691.454083,232.82653 690.772088,232.928561 689.97731,233.057444 C689.118091,233.207807 688.135373,233.331318 687.029128,233.42798 C685.922883,233.524643 684.617963,233.615933 683.114329,233.701855 L683.114329,238.470499 L688.752929,238.470499 L690.235075,238.470499 C690.664684,238.470499 691.088918,238.459759 691.507787,238.438279 C691.926657,238.416798 692.35626,238.395318 692.79661,238.373838 C693.23696,238.352357 693.747114,238.320137 694.327087,238.277176 C694.090802,239.952654 693.84915,241.467005 693.602124,242.820276 C693.355099,244.173547 693.075856,245.392546 692.764389,246.47731 C692.452922,247.562075 692.10387,248.544793 691.717221,249.425492 C691.330572,250.306192 690.900969,251.122439 690.428398,251.874256 C691.287618,252.840878 692.216635,253.694714 693.215477,254.435791 C694.21432,255.176868 695.293698,255.762202 696.453644,256.191812 C696.045515,256.428097 695.674982,256.734189 695.342035,257.110098 C695.009087,257.486006 694.724475,257.867279 694.48819,258.253928 C693.392685,257.523592 692.420708,256.771786 691.572228,255.998488 C690.723749,255.225191 689.955833,254.398205 689.268458,253.517505 C688.49516,254.441166 687.619844,255.295002 686.642481,256.07904 C685.665119,256.863078 684.564261,257.673954 683.339873,258.511693 C683.060627,258.125044 682.759905,257.797471 682.437697,257.528965 C682.11549,257.260459 681.718107,257.018807 681.245536,256.804003 C682.72769,256.095147 684.03261,255.354081 685.160335,254.580783 C686.288061,253.807486 687.260038,252.916059 688.076297,251.906476 C687.646687,251.262062 687.265414,250.558586 686.932467,249.796029 C686.599519,249.033472 686.282687,248.179635 685.98196,247.234494 C685.681233,246.289352 685.396621,245.236824 685.128115,244.076878 C684.859609,242.916932 684.585737,241.617382 684.30649,240.178189 L683.114329,240.178189 Z M685.98196,240.178189 C686.132323,241.123331 686.320275,242.073828 686.54582,243.02971 C686.771365,243.985591 687.018387,244.909238 687.286893,245.800679 C687.555399,246.692119 687.850751,247.524475 688.172958,248.297773 C688.495166,249.07107 688.849588,249.736955 689.236237,250.295448 C689.988054,249.07106 690.610979,247.642629 691.10503,246.010112 C691.599081,244.377595 691.964244,242.43364 692.200529,240.178189 L685.98196,240.178189 Z M704.15436,239.308234 C703.724751,240.060051 703.236077,240.849447 702.688324,241.676446 C702.140572,242.503445 701.587458,243.27136 701.028965,243.980216 C700.749719,243.658009 700.454367,243.394877 700.142899,243.190813 C699.831432,242.986748 699.45016,242.820277 698.999069,242.691394 C699.836808,241.982538 700.674535,241.048151 701.512274,239.888204 C702.350013,238.728258 703.117928,237.493149 703.816044,236.182839 C704.51416,234.872529 705.115605,233.562239 705.620396,232.25193 C706.125188,230.94162 706.48498,229.770951 706.699785,228.739888 C707.129395,229.019134 707.510668,229.233936 707.843615,229.384299 C708.176563,229.534662 708.525615,229.652803 708.890784,229.738725 C709.470757,229.867608 709.502977,230.14685 708.987445,230.57646 C708.858563,230.683863 708.718941,230.818114 708.568578,230.979217 C708.418215,231.140321 708.230263,231.408823 708.004718,231.784731 C707.779173,232.16064 707.505301,232.660054 707.183094,233.282988 C706.860886,233.905922 706.463503,234.711428 705.990933,235.69953 L705.990933,258.640575 L703.799934,258.640575 C703.907336,257.588031 703.993257,256.401252 704.057699,255.080202 C704.12214,253.759152 704.15436,252.15351 704.15436,250.263227 L704.15436,239.308234 Z M718.621395,254.419681 C719.093966,253.431578 719.55579,252.2985 720.00688,251.020411 C720.45797,249.742322 720.876833,248.410551 721.263482,247.02506 C721.650131,245.639569 721.983073,244.248728 722.26232,242.852497 C722.541566,241.456265 722.756368,240.145975 722.906731,238.921587 C723.31486,239.200834 723.782054,239.426375 724.308326,239.598219 C724.834598,239.770063 725.269571,239.866724 725.613259,239.888204 C725.849544,239.909685 725.978425,239.995605 725.999905,240.145969 C726.021386,240.296332 725.881765,240.457433 725.581038,240.629277 C725.323272,240.779641 725.108471,241.021293 724.936627,241.35424 C724.764783,241.687188 724.603682,242.100681 724.453318,242.594732 C724.281474,243.131744 724.061303,243.819109 723.792797,244.656848 C723.52429,245.494587 723.218198,246.428974 722.87451,247.460038 C722.530823,248.491101 722.15492,249.6027 721.74679,250.794867 C721.338661,251.987034 720.919798,253.195293 720.490188,254.419681 C721.993822,254.419681 723.212822,254.41431 724.147223,254.40357 C725.081624,254.39283 725.8388,254.37672 726.418773,254.355239 C726.998746,254.333759 727.47131,254.306909 727.836478,254.274688 C728.201646,254.242467 728.577549,254.204877 728.964198,254.161916 L728.964198,256.481797 C728.147939,256.374394 726.869869,256.288474 725.12995,256.224032 C723.390031,256.159591 721.145354,256.127371 718.395851,256.127371 C716.849256,256.127371 715.496006,256.138111 714.33606,256.159591 C713.176114,256.181072 712.166546,256.207922 711.307326,256.240143 C710.448107,256.272363 709.723151,256.309954 709.132438,256.352915 C708.541725,256.395876 708.053051,256.438836 707.666402,256.481797 L707.666402,254.097475 C708.01009,254.140436 708.461173,254.183396 709.019666,254.226357 C709.578159,254.269318 710.179603,254.306908 710.824018,254.339129 C711.468432,254.37135 712.145058,254.3982 712.853914,254.419681 C713.56277,254.441161 714.260875,254.451901 714.948251,254.451901 L718.621395,254.419681 Z M719.491351,235.022898 C720.608336,235.022898 721.585683,235.012158 722.423422,234.990678 C723.261161,234.969197 723.986117,234.942347 724.598311,234.910126 C725.210505,234.877906 725.742139,234.845686 726.193229,234.813465 C726.644319,234.781244 727.052442,234.743654 727.41761,234.700693 L727.41761,236.988353 C726.601352,236.85947 725.457533,236.76818 723.98612,236.714478 C722.514707,236.660777 720.619082,236.633927 718.29919,236.633927 C716.172622,236.633927 714.325327,236.660777 712.757252,236.714478 C711.189176,236.76818 709.997027,236.85947 709.180769,236.988353 L709.180769,234.700693 C709.975547,234.808095 711.038815,234.888646 712.370605,234.942347 C713.702395,234.996048 715.431548,235.022898 717.558117,235.022898 C717.192948,233.970355 716.838526,233.052078 716.494838,232.26804 C716.15115,231.484002 715.743027,230.651646 715.270456,229.770946 L717.17147,228.933211 C717.386275,229.470223 717.595706,229.980377 717.799771,230.463688 C718.003835,230.946999 718.197157,231.430303 718.379741,231.913614 C718.562325,232.396925 718.744907,232.890968 718.927491,233.39576 C719.110075,233.900551 719.298026,234.442925 719.491351,235.022898 Z M715.141574,252.969755 C714.583081,250.692823 713.954787,248.598507 713.256671,246.686744 C712.558555,244.774981 711.726199,242.916947 710.759577,241.112586 L712.563929,240.242631 C713.143902,241.595901 713.643315,242.78268 714.062185,243.803003 C714.481054,244.823326 714.856957,245.784564 715.189905,246.686744 C715.522852,247.588925 715.845055,248.485721 716.156522,249.377162 C716.467989,250.268602 716.806302,251.262059 717.17147,252.357564 L715.141574,252.969755 Z" id="一般" fill="#FFFFFF" sketch:type="MSShapeGroup"></path>
    </g>
</svg>