<?xml version="1.0" encoding="UTF-8" standalone="no"?>
<svg width="400px" height="250px" viewBox="0 0 400 250" version="1.1" xmlns="http://www.w3.org/2000/svg" xmlns:xlink="http://www.w3.org/1999/xlink" xmlns:sketch="http://www.bohemiancoding.com/sketch/ns">
    <title>Untitled</title>
    <description>Created with Sketch (http://www.bohemiancoding.com/sketch)</description>
    <defs></defs>
    <g id="Page-1" stroke="none" stroke-width="1" fill="none" fill-rule="evenodd" sketch:type="MSPage">
        <g id="Group" sketch:type="MSLayerGroup">
            <rect id="Rectangle-1" fill="#F9F9F9" sketch:type="MSShapeGroup" x="0" y="0" width="400" height="250"></rect>
            <rect id="Rectangle-1" fill="#359900" sketch:type="MSShapeGroup" x="92" y="20" width="10" height="20"></rect>
            <rect id="Rectangle-1" fill="#2779B7" sketch:type="MSShapeGroup" x="40" y="20" width="10" height="20"></rect>
            <rect id="Rectangle-1" fill="#2779B7" sketch:type="MSShapeGroup" x="79" y="30" width="10" height="20"></rect>
            <rect id="Rectangle-1" fill="#D83132" sketch:type="MSShapeGroup" x="53" y="30" width="10" height="10"></rect>
            <rect id="Rectangle-1" fill="#D83132" sketch:type="MSShapeGroup" x="105" y="30" width="10" height="10"></rect>
            <rect id="Rectangle-1" fill="#F99D1C" sketch:type="MSShapeGroup" x="66" y="30" width="10" height="10"></rect>
            <rect id="Rectangle-1" fill="#D4D4D4" sketch:type="MSShapeGroup" x="140" y="20" width="220" height="20" rx="3"></rect>
            <g id="Oval-1-+-Line" transform="translate(342.000000, 24.000000)" stroke="#979797" stroke-width="2" sketch:type="MSShapeGroup">
                <path d="M4,8 C6.20913911,8 8,6.20913911 8,4 C8,1.79086089 6.20913911,0 4,0 C1.79086089,0 0,1.79086089 0,4 C0,6.20913911 1.79086089,8 4,8 Z" id="Oval-1"></path>
                <path d="M7.5,7.5 L12.0276928,12.0276928" id="Line" stroke-linecap="round"></path>
            </g>
            <rect id="Rectangle-4" fill="#2779B7" sketch:type="MSShapeGroup" x="40" y="60" width="60.2666016" height="7"></rect>
            <rect id="Rectangle-4" fill="#2779B7" sketch:type="MSShapeGroup" x="40" y="73" width="220.02832" height="7"></rect>
            <rect id="Rectangle-4" fill="#2779B7" sketch:type="MSShapeGroup" x="280" y="60" width="40" height="7"></rect>
            <rect id="Rectangle-4" fill="#2779B7" sketch:type="MSShapeGroup" x="280" y="73" width="80" height="7"></rect>
            <rect id="Rectangle-4" fill="#2779B7" sketch:type="MSShapeGroup" x="280" y="93" width="40" height="7"></rect>
            <rect id="Rectangle-4" fill="#2779B7" sketch:type="MSShapeGroup" x="280" y="106" width="80" height="7"></rect>
            <rect id="Rectangle-4" fill="#2779B7" sketch:type="MSShapeGroup" x="280" y="127" width="40" height="7"></rect>
            <rect id="Rectangle-4" fill="#2779B7" sketch:type="MSShapeGroup" x="280" y="140" width="80" height="7"></rect>
            <rect id="Rectangle-4" fill="#2779B7" sketch:type="MSShapeGroup" x="40" y="93" width="60.2666016" height="7"></rect>
            <rect id="Rectangle-4" fill="#2779B7" sketch:type="MSShapeGroup" x="40" y="106" width="220.02832" height="7"></rect>
            <rect id="Rectangle-4" fill="#2779B7" sketch:type="MSShapeGroup" x="40" y="127" width="60.2666016" height="7"></rect>
            <rect id="Rectangle-4" fill="#2779B7" sketch:type="MSShapeGroup" x="40" y="140" width="220.02832" height="7"></rect>
            <rect id="Rectangle-4" fill="#D4D4D4" sketch:type="MSShapeGroup" x="40" y="160" width="40" height="7"></rect>
            <rect id="Rectangle-4" fill="#9B9B9B" sketch:type="MSShapeGroup" x="150" y="27" width="40" height="7"></rect>
            <rect id="Rectangle-4" fill="#D4D4D4" sketch:type="MSShapeGroup" x="40" y="173" width="180" height="7"></rect>
            <rect id="Rectangle-4" fill="#D4D4D4" sketch:type="MSShapeGroup" x="40" y="194" width="40" height="7"></rect>
            <rect id="Rectangle-4" fill="#D4D4D4" sketch:type="MSShapeGroup" x="40" y="207" width="180" height="7"></rect>
        </g>
    </g>
</svg>