<?xml version="1.0" encoding="UTF-8" standalone="no"?>
<svg width="128px" height="128px" viewBox="0 0 128 128" version="1.1" xmlns="http://www.w3.org/2000/svg" xmlns:xlink="http://www.w3.org/1999/xlink" xmlns:sketch="http://www.bohemiancoding.com/sketch/ns">
    <title>Untitled</title>
    <description>Created with Sketch (http://www.bohemiancoding.com/sketch)</description>
    <defs></defs>
    <g id="Page-1" stroke="none" stroke-width="1" fill="none" fill-rule="evenodd" sketch:type="MSPage">
        <g id="Group-+-Rectangle-40-+-AD" sketch:type="MSLayerGroup" transform="translate(17.000000, 28.000000)">
            <g id="Group" transform="translate(73.620009, 55.839796) rotate(-25.000000) translate(-73.620009, -55.839796) translate(55.120009, 30.839796)" fill="#2C7AB5" sketch:type="MSShapeGroup">
                <path d="M23.5429313,50.4348783 C30.9027818,50.4348783 36.8691188,44.4685412 36.8691188,37.1086907 C36.8691188,29.7488402 30.9027818,23.7825032 23.5429313,23.7825032 C16.1830808,23.7825032 10.2167438,29.7488402 10.2167438,37.1086907 C10.2167438,44.4685412 16.1830808,50.4348783 23.5429313,50.4348783 Z" id="Oval-39"></path>
                <rect id="Rectangle-7" x="30.2060251" y="19.6115361" width="6.66309376" height="21.1298001" rx="6"></rect>
                <rect id="Rectangle-7" x="23.5429313" y="17.1229152" width="6.66309376" height="21.1298001" rx="6"></rect>
                <rect id="Rectangle-7" x="16.8798375" y="14.812053" width="6.66309376" height="21.1298001" rx="6"></rect>
                <rect id="Rectangle-7" transform="translate(9.921763, 35.585262) rotate(-37.000000) translate(-9.921763, -35.585262) " x="6.59021617" y="23.338297" width="6.66309376" height="24.2732509" rx="6"></rect>
                <rect id="Rectangle-7" x="10.2167438" y="0.239571911" width="6.66309376" height="39.1613907" rx="6"></rect>
            </g>
            <path d="M64.3918451,60.1021432 L5.00304926,60.1021432 C2.23449786,60.1021432 0,57.8657187 0,55.1069492 L0,4.99519392 C0,2.24638328 2.23994145,0 5.00304926,0 L76.9481226,0 C79.716674,0 81.9511719,2.23642449 81.9511719,4.99519392 L81.9511719,43.5505382 C81.1828208,43.1823153 80.2027618,42.8720703 79.081543,42.8720703 C77.6048476,42.8720705 76.5771265,43.4102235 75.9409576,43.9102118 L75.9409576,21.8347512 C75.9409576,19.0699303 73.6931113,16.8286001 70.9390447,16.8286001 L11.0019129,16.8286001 C8.23943268,16.8286001 6,19.0756712 6,21.8347512 L6,49.0857777 C6,51.8505987 8.24784621,54.0919288 11.0019129,54.0919288 L61.5072053,54.0919288 L64.3918451,60.1021432 Z" id="Rectangle-40" fill="#2779B7" sketch:type="MSShapeGroup"></path>
            <path d="M33.0929987,43.7611117 L32.1359674,41.2454867 L23.9875299,41.2454867 L23.0304987,43.8157992 C22.6567989,44.8184084 22.3377916,45.4951594 22.0734674,45.8460726 C21.8091432,46.1969858 21.3762048,46.3724398 20.7746393,46.3724398 C20.2642201,46.3724398 19.8130527,46.1855927 19.4211237,45.8118929 C19.0291946,45.4381932 18.833233,45.0143693 18.833233,44.5404086 C18.833233,44.2669697 18.8788055,43.9844204 18.9699518,43.6927523 C19.0610981,43.4010842 19.2114872,42.9954893 19.4211237,42.4759554 L24.5480768,29.4603304 C24.6939108,29.0866307 24.8693648,28.6377419 25.074444,28.1136508 C25.2795231,27.5895596 25.4982709,27.1543426 25.730694,26.8079867 C25.963117,26.4616308 26.2684525,26.1813602 26.6467096,25.9671664 C27.0249667,25.7529726 27.4920844,25.6458773 28.0480768,25.6458773 C28.6131838,25.6458773 29.0848587,25.7529726 29.4631158,25.9671664 C29.8413729,26.1813602 30.1467084,26.4570736 30.3791315,26.7943148 C30.6115545,27.1315561 30.8075161,27.4938572 30.9670221,27.8812289 C31.1265281,28.2686006 31.3293256,28.785848 31.5754205,29.4329867 L36.8117487,42.3665804 C37.221907,43.3509604 37.426983,44.066448 37.426983,44.5130648 C37.426983,44.9779109 37.2333001,45.4040134 36.8459283,45.7913851 C36.4585566,46.1787569 35.9914389,46.3724398 35.4445612,46.3724398 C35.1255491,46.3724398 34.8521144,46.3154742 34.6242487,46.2015414 C34.3963829,46.0876085 34.2049786,45.9326622 34.0500299,45.7366976 C33.8950812,45.5407331 33.7287417,45.2399549 33.5510065,44.8343539 C33.3732712,44.4287529 33.2206035,44.0710091 33.0929987,43.7611117 Z M25.0539362,38.1966586 L31.0422174,38.1966586 L28.020733,29.9251742 L25.0539362,38.1966586 Z M42.9230768,25.9876742 L48.2140924,25.9876742 C49.5904014,25.9876742 50.7707281,26.1152771 51.755108,26.3704867 C52.739488,26.6256963 53.6327082,27.1042071 54.4347955,27.8060336 C56.5220456,29.5925008 57.5656549,32.3086195 57.5656549,35.9544711 C57.5656549,37.1576021 57.4608383,38.2558984 57.2512018,39.2493929 C57.0415653,40.2428875 56.7180008,41.1383864 56.2804987,41.9359164 C55.8429965,42.7334464 55.2824552,43.4466554 54.598858,44.0755648 C54.0610949,44.5586402 53.4732102,44.9460061 52.8351862,45.2376742 C52.1971621,45.5293423 51.5112966,45.7344184 50.777569,45.8529086 C50.0438413,45.9713987 49.2167012,46.0306429 48.2961237,46.0306429 L43.005108,46.0306429 C42.2668231,46.0306429 41.7108391,45.9189904 41.3371393,45.695682 C40.9634395,45.4723736 40.7196268,45.1579236 40.605694,44.7523226 C40.4917611,44.3467216 40.4347955,43.8203597 40.4347955,43.1732211 L40.4347955,28.4759554 C40.4347955,27.6009511 40.6307571,26.9674939 41.0226862,26.5755648 C41.4146152,26.1836358 42.0480724,25.9876742 42.9230768,25.9876742 Z M44.4953424,29.2005648 L44.4953424,42.8040804 L47.5715143,42.8040804 C48.2459968,42.8040804 48.7746374,42.7858515 49.1574518,42.7493929 C49.5402662,42.7129344 49.9367466,42.6217895 50.3469049,42.4759554 C50.7570632,42.3301214 51.1125284,42.1250453 51.4133112,41.8607211 C52.7713909,40.7122778 53.4504205,38.734433 53.4504205,35.9271273 C53.4504205,33.9492528 53.1519209,32.4681479 52.5549127,31.4837679 C51.9579045,30.499388 51.2219093,29.8727667 50.3469049,29.6038851 C49.4719005,29.3350036 48.4146194,29.2005648 47.1750299,29.2005648 L44.4953424,29.2005648 Z" id="AD" fill="#2779B7" sketch:type="MSShapeGroup"></path>
        </g>
    </g>
</svg>