<?xml version="1.0" encoding="UTF-8" standalone="no"?>
<svg width="128px" height="128px" viewBox="0 0 128 128" version="1.1" xmlns="http://www.w3.org/2000/svg" xmlns:xlink="http://www.w3.org/1999/xlink" xmlns:sketch="http://www.bohemiancoding.com/sketch/ns">
    <title>Untitled</title>
    <description>Created with Sketch (http://www.bohemiancoding.com/sketch)</description>
    <defs></defs>
    <g id="Page-1" stroke="none" stroke-width="1" fill="none" fill-rule="evenodd" sketch:type="MSPage">
        <g id="Oval-4-+-Oval-17-+-FB-App" sketch:type="MSLayerGroup" transform="translate(15.000000, 22.000000)">
            <g id="Oval-4-+-Oval-17" transform="translate(0.350739, 17.633542)" sketch:type="MSShapeGroup">
                <path d="M28.4929877,27.4824246 C36.2776996,27.4824246 42.5884548,21.3690924 42.5884548,13.8279141 C42.5884548,6.28673572 36.2776996,0.173403474 28.4929877,0.173403474 C20.7082758,0.173403474 14.3975207,6.28673572 14.3975207,13.8279141 C14.3975207,21.3690924 20.7082758,27.4824246 28.4929877,27.4824246 Z" id="Oval-4" fill="#2779B7"></path>
                <path d="M56.194117,63.7293952 C56.194117,43.7062665 43.6146362,27.4743154 28.0970585,27.4743154 C12.5794808,27.4743154 0,43.7062665 0,63.7293952 C0,63.7293952 10.8165882,66.6998644 27.7554847,66.699865 C44.6943813,66.6998656 55.803861,63.9195807 55.803861,63.9195807" id="Oval-5" fill="#2779B7"></path>
                <path d="M19.1347218,15.9834388 C19.1347218,15.9834388 20.2005699,15.2133699 20.2899711,15.690429 C20.9802723,19.3739886 24.2131343,22.1615171 28.0970585,22.1615171 C32.005966,22.1615171 35.2554081,19.3380117 35.9171509,15.6192348 C35.9980761,15.1644611 37.0593952,15.9834388 37.0593952,15.9834388" id="Oval-17" stroke="#FFFFFF" stroke-width="2" stroke-linecap="round"></path>
            </g>
            <path d="M53.6838507,56.449839 L56.9969596,58.3335046 C58.0697195,58.9434215 58.9459946,58.4370441 58.954168,57.2035098 L59.1078405,34.0111616 C59.1160169,32.7771658 58.2526004,31.2821513 57.1802416,30.6724625 L42.7402482,22.4626147 L42.7402482,22.4626147 C45.1226343,24.9935134 46.5753854,28.359857 46.5753854,32.0548942 C46.5753854,37.4315781 43.4994118,42.1123045 38.9591685,44.5357896 C44.7717143,46.5149857 49.8771516,50.7408055 53.6838507,56.449839 Z M58.6068074,0.497214929 L37.3481729,12.9594275 C36.2170642,13.6225047 36.2174872,14.6978132 37.3481729,15.3606425 L58.6068074,27.822855 C59.737916,28.4859322 61.5722284,28.4856843 62.702914,27.822855 L83.9615486,15.3606425 C85.0926572,14.6975653 85.0922342,13.6222568 83.9615486,12.9594275 L62.702914,0.497214929 C61.5718054,-0.165862277 59.737493,-0.165614331 58.6068074,0.497214929 Z M62.120021,34.0436727 L62.2736935,57.2360209 C62.2818699,58.4700167 63.1585431,58.9757045 64.2309019,58.3660157 L84.3929009,46.9029259 C85.4656608,46.2930091 86.3286731,44.7977611 86.3204997,43.5642268 L86.1668272,20.3718786 C86.1586507,19.1378828 85.2819775,18.632195 84.2096188,19.2418838 L64.0476198,30.7049736 C62.9748599,31.3148904 62.1118476,32.8101384 62.120021,34.0436727 Z" id="FB-App" fill="#2779B7" sketch:type="MSShapeGroup"></path>
        </g>
    </g>
</svg>