<?xml version="1.0" encoding="UTF-8" standalone="no"?>
<svg width="128px" height="128px" viewBox="0 0 128 128" version="1.1" xmlns="http://www.w3.org/2000/svg" xmlns:xlink="http://www.w3.org/1999/xlink" xmlns:sketch="http://www.bohemiancoding.com/sketch/ns">
    <title>Untitled</title>
    <description>Created with Sketch (http://www.bohemiancoding.com/sketch)</description>
    <defs></defs>
    <g id="Page-1" stroke="none" stroke-width="1" fill="none" fill-rule="evenodd" sketch:type="MSPage">
        <g id="Imported-Layers-+-Star-1" sketch:type="MSLayerGroup" transform="translate(19.000000, 20.000000)" fill="#2779B7">
            <path d="M44.7399342,13.5471862 C40.3967633,5.38477349 32.6437596,-0.0205703021 23.851487,0.0939496935 C10.4812775,0.262866687 -0.194849135,13.0833802 0.00269785734,28.7210856 C0.0399168559,31.7816325 0.500859838,34.7276594 1.31108881,37.4761393 C3.19780574,46.4459179 16.8256852,61.1445594 29.3570357,72.9401189 C35.4437735,78.6689817 45.6704091,86.7168744 45.6704091,86.7168744 C49.976361,83.5904785 55.6937717,78.4141747 61.6259075,72.5364359 C73.850917,60.4202204 87.1037435,45.380882 88.7728725,36.3710213 C89.5086635,33.6053634 89.8951684,30.6478845 89.8550864,27.5816116 C89.6575394,11.9524952 78.6550309,-0.60175928 65.2876844,-0.429979287 C56.4954117,-0.318322291 48.874106,5.2759795 44.7399342,13.5471862 Z M44.8970955,52.1380557 L32.8408199,58.4764163 L35.1433631,45.0515542 L25.3896298,35.5440144 L38.8689594,33.5853516 L44.8970962,21.3710102 L50.9252367,33.5853546 L64.4045653,35.5440242 L54.650828,45.0515568 L56.9533717,58.4764166 L44.8970955,52.1380557 Z" id="Imported-Layers" sketch:type="MSShapeGroup"></path>
        </g>
    </g>
</svg>