<?xml version="1.0" encoding="UTF-8" standalone="no"?>
<svg width="128px" height="128px" viewBox="0 0 128 128" version="1.1" xmlns="http://www.w3.org/2000/svg" xmlns:xlink="http://www.w3.org/1999/xlink" xmlns:sketch="http://www.bohemiancoding.com/sketch/ns">
    <title>Untitled</title>
    <description>Created with Sketch (http://www.bohemiancoding.com/sketch)</description>
    <defs></defs>
    <g id="Page-1" stroke="none" stroke-width="1" fill="none" fill-rule="evenodd" sketch:type="MSPage">
        <path d="M105.336697,39.7383975 C105.336697,35.8716233 102.294453,33.4628837 98.5339412,34.3601671 L45.7843099,46.9465863 C43.0955451,47.5881438 40.9158706,50.3461968 40.9158706,53.1134173 L40.9158706,75.4770222 C40.9158706,78.2413114 43.0776876,81.0418059 45.7579029,81.7355908 L98.5642985,95.4047463 C102.304591,96.3729366 105.336697,94.0288887 105.336697,90.156396 L105.336697,39.7383975 Z M38.2316695,48.8421901 C29.6334977,48.8421901 22.6633031,55.8123847 22.6633031,64.4105565 C22.6633031,73.0087282 29.6334977,79.9789228 38.2316695,79.9789228 L38.2316695,48.8421901 Z M50.2471228,85.0616 C48.6514785,84.6264242 47.3579532,85.6200764 47.3579532,87.2743625 L47.3579532,107.19857 C47.3579532,109.954894 49.5932999,112.189336 52.366662,112.189336 L54.1597292,112.189336 C56.9259627,112.189336 59.168438,109.954296 59.168438,107.192005 L59.168438,90.4980463 C59.168438,88.8393362 57.8820264,87.1438464 56.2792684,86.7067306 L50.2471228,85.0616 Z" id="Path-85" fill="#2C7AB5" sketch:type="MSShapeGroup" transform="translate(64.000000, 73.000000) rotate(-30.000000) translate(-64.000000, -73.000000) "></path>
    </g>
</svg>