<?xml version="1.0" encoding="UTF-8" standalone="no"?>
<svg width="160px" height="160px" viewBox="0 0 160 160" version="1.1" xmlns="http://www.w3.org/2000/svg" xmlns:xlink="http://www.w3.org/1999/xlink" xmlns:sketch="http://www.bohemiancoding.com/sketch/ns">
    <title>Untitled</title>
    <description>Created with Sketch (http://www.bohemiancoding.com/sketch)</description>
    <defs></defs>
    <g id="Page-1" stroke="none" stroke-width="1" fill="none" fill-rule="evenodd" sketch:type="MSPage">
        <g id="Oval-29-+-Line-+-Line" sketch:type="MSLayerGroup" transform="translate(10.000000, 10.000000)">
            <path d="M70,140 C108.659934,140 140,108.659934 140,70 C140,31.3400656 108.659934,0 70,0 C31.3400656,0 0,31.3400656 0,70 C0,108.659934 31.3400656,140 70,140 Z" id="Oval-29" fill="#F79C31" sketch:type="MSShapeGroup"></path>
            <g id="Line-+-Line" transform="translate(22.500000, 29.000000)" fill="#FFFFFF" sketch:type="MSShapeGroup">
                <path d="M19.6285013,46.9729262 L19.6285007,56.7939676 L19.6285007,56.7939676 L7.51721409,56.7939701 L5.32181497,56.7939705 L5.32181563,62.7939636 L7.51721475,62.7939631 L19.6285004,62.7939606 L19.6284997,73.9125015 L19.6284996,76.1500656 L25.6284975,76.1500658 L25.6284977,73.9125017 L25.6284983,62.7939594 L36.789203,62.7939571 L38.9846021,62.7939566 L38.9846014,56.7939636 L36.7892023,56.793964 L25.6284987,56.7939663 L25.6284993,46.830388 C35.8111892,45.1554494 43.5792152,36.3128281 43.5792152,25.6558862 C43.5792152,13.8038404 33.9712346,4.19585983 22.1191888,4.19585983 C10.267143,4.19585983 0.659162414,13.8038404 0.659162414,25.6558862 C0.659162414,36.6654834 8.94980757,45.7386956 19.6285013,46.9729262 Z M6.97347898,25.6558862 C6.97347898,17.2911412 13.7544438,10.5101764 22.1191888,10.5101764 C30.4839338,10.5101764 37.2648986,17.2911412 37.2648986,25.6558862 C37.2648986,34.0206312 30.4839338,40.801596 22.1191888,40.801596 C13.7544438,40.801596 6.97347898,34.0206312 6.97347898,25.6558862 Z" id="Line"></path>
                <path d="M70.5,15.365382 L70.5,36.1208009 L70.5,36.1208009 C81.1166287,37.4126722 89.3408376,46.4572006 89.3408376,57.4225968 C89.3408376,69.2746427 79.732857,78.8826232 67.8808112,78.8826232 C56.0287654,78.8826232 46.4207848,69.2746427 46.4207848,57.4225968 C46.4207848,46.7208714 54.2542349,37.8487472 64.5,36.2273594 L64.5,15.4953243 L64.5,15.4953243 L54.7720779,25.2232464 L50.5294373,20.9806057 L67.5,4.01004297 L67.7071068,4.21714975 L67.7720779,4.15217859 L84.7426407,21.1227413 L80.5,25.365382 L70.5,15.365382 Z M52.6558862,57.4225968 C52.6558862,49.0141024 59.4723168,42.1976718 67.8808112,42.1976718 C76.2893056,42.1976718 83.1057362,49.0141024 83.1057362,57.4225968 C83.1057362,65.8310912 76.2893056,72.6475219 67.8808112,72.6475219 C59.4723168,72.6475219 52.6558862,65.8310912 52.6558862,57.4225968 Z" id="Line" transform="translate(67.500000, 41.383355) rotate(13.000000) translate(-67.500000, -41.383355) "></path>
            </g>
        </g>
    </g>
</svg>