<?xml version="1.0" encoding="UTF-8" standalone="no"?>
<svg width="160px" height="160px" viewBox="0 0 160 160" version="1.1" xmlns="http://www.w3.org/2000/svg" xmlns:xlink="http://www.w3.org/1999/xlink" xmlns:sketch="http://www.bohemiancoding.com/sketch/ns">
    <title>Untitled</title>
    <description>Created with Sketch (http://www.bohemiancoding.com/sketch)</description>
    <defs></defs>
    <g id="Page-1" stroke="none" stroke-width="1" fill="none" fill-rule="evenodd" sketch:type="MSPage">
        <g id="Oval-29-+-Rectangle-14" sketch:type="MSLayerGroup" transform="translate(10.000000, 10.000000)">
            <path d="M70,140 C108.659934,140 140,108.659934 140,70 C140,31.3400656 108.659934,0 70,0 C31.3400656,0 0,31.3400656 0,70 C0,108.659934 31.3400656,140 70,140 Z" id="Oval-29" fill="#D64038" sketch:type="MSShapeGroup"></path>
            <path d="M63.5909091,55.5795455 L74.3782107,55.5795455 L74.3782107,55.5795455 C74.3084461,56.2822088 74.2727273,56.9948876 74.2727273,57.7159091 C74.2727273,69.5147202 83.8375525,79.0795455 95.6363636,79.0795455 C100.445771,79.0795455 104.883996,77.4903268 108.454545,74.8083832 L108.454545,99.6526969 C108.454545,101.851126 106.666519,103.647727 104.460877,103.647727 L46.2209415,103.647727 C44.0158278,103.647727 42.2272727,101.859091 42.2272727,99.6526969 L42.2272727,92.9654307 L25.8012149,101.17846 C24.3223912,101.917871 23.1235677,101.171138 23.1235677,99.511676 L23.1235677,59.71464 C23.1235677,58.054689 24.3252813,57.3098896 25.8012149,58.0478564 L42.2272727,66.2608853 L42.2272727,66.2608853 L42.2272727,59.5745759 C42.2272727,57.3761463 44.0152991,55.5795455 46.2209415,55.5795455 L50.7727273,55.5795455 L50.7727273,54.3050273 C50.7727273,52.6436047 52.1182433,51.3068182 53.7780214,51.3068182 L60.585615,51.3068182 C62.2433661,51.3068182 63.5909091,52.6491621 63.5909091,54.3050273 L63.5909091,55.5795455 L63.5909091,55.5795455 Z M51.7077883,63.0568182 C50.6014278,63.0568182 49.7045455,63.9581678 49.7045455,65.0596591 L49.7045455,73.8721591 C49.7045455,74.9782976 50.6061278,75.875 51.7077883,75.875 L66.9285754,75.875 C68.0349358,75.875 68.9318182,74.9736503 68.9318182,73.8721591 L68.9318182,65.0596591 C68.9318182,63.9535206 68.0302358,63.0568182 66.9285754,63.0568182 L51.7077883,63.0568182 Z M95.6363636,76.9431818 C106.255294,76.9431818 114.863636,68.3348391 114.863636,57.7159091 C114.863636,47.0969791 106.255294,38.4886364 95.6363636,38.4886364 C85.0174336,38.4886364 76.4090909,47.0969791 76.4090909,57.7159091 C76.4090909,68.3348391 85.0174336,76.9431818 95.6363636,76.9431818 Z M95.6363636,63.0568182 C98.5860664,63.0568182 100.977273,60.6656119 100.977273,57.7159091 C100.977273,54.7662063 98.5860664,52.375 95.6363636,52.375 C92.6866608,52.375 90.2954545,54.7662063 90.2954545,57.7159091 C90.2954545,60.6656119 92.6866608,63.0568182 95.6363636,63.0568182 Z" id="Rectangle-14" fill="#FFFFFF" sketch:type="MSShapeGroup"></path>
        </g>
    </g>
</svg>