<?xml version="1.0" encoding="UTF-8" standalone="no"?>
<svg width="160px" height="160px" viewBox="0 0 160 160" version="1.1" xmlns="http://www.w3.org/2000/svg" xmlns:xlink="http://www.w3.org/1999/xlink" xmlns:sketch="http://www.bohemiancoding.com/sketch/ns">
    <title>Untitled</title>
    <description>Created with Sketch (http://www.bohemiancoding.com/sketch)</description>
    <defs></defs>
    <g id="Page-1" stroke="none" stroke-width="1" fill="none" fill-rule="evenodd" sketch:type="MSPage">
        <g id="Oval-29-+-multi-screen" sketch:type="MSLayerGroup" transform="translate(10.000000, 10.000000)">
            <path d="M70,140 C108.659934,140 140,108.659934 140,70 C140,31.3400656 108.659934,0 70,0 C31.3400656,0 0,31.3400656 0,70 C0,108.659934 31.3400656,140 70,140 Z" id="Oval-29" fill="#2C7AB5" sketch:type="MSShapeGroup"></path>
            <g id="multi-screen" transform="translate(20.942308, 36.500000)" fill="#FFFFFF" sketch:type="MSShapeGroup">
                <g id="Rectangle-26-+-Rectangle-26" transform="translate(0.175858, 9.427607)">
                    <path d="M43.8345909,42.3552149 L43.9906146,42.3552149 L43.9906146,48.5885192 L6.75926799,48.5885192 C3.29606311,48.5885192 0.515523426,45.7977738 0.515523426,42.3552149 L25.5506485,42.3552149 C25.7094196,43.3013783 26.5329894,44.0223806 27.5204953,44.0223806 L41.8643469,44.0223806 C42.8548858,44.0223806 43.6770261,43.3067065 43.8345909,42.3552149 Z" id="Rectangle-26"></path>
                    <path d="M7.06561193,2.72287014 L7.06561193,38.1496616 C7.06561193,39.6540663 8.29036832,40.8725318 9.79353384,40.8725318 L43.7404578,40.8725318 L43.7404582,17.6320763 L53.8251415,17.6320758 L53.8251415,2.72429492 C53.8251415,1.22013753 52.5919407,0 51.0937833,0 L9.79697013,0 C8.28869726,0 7.06561193,1.21013464 7.06561193,2.72287014 Z M51.0937833,2.73076923 C51.09025,2.73076923 51.0943723,17.6320759 51.0943723,17.6320759 L43.7404582,17.6320764 L43.7404578,38.1417625 L9.79353384,38.1417626 C9.79539147,38.1417626 9.79638116,2.72287014 9.79638116,2.72287014 C9.79638116,2.7248422 51.0937833,2.73076923 51.0937833,2.73076923 Z" id="Rectangle-26"></path>
                </g>
                <path d="M63.8703989,58.0659203 L86.6617865,58.0659203 C88.6680553,58.0659203 90.2920579,56.4526462 90.2920579,54.4396652 L90.2920579,3.57139437 C90.2920579,1.56479664 88.678393,-0.0548607389 86.6617865,-0.0548607389 L53.9642923,-0.0548607389 C51.9580236,-0.0548607389 50.334021,1.55841332 50.334021,3.57139437 L50.334021,27.6137038 L63.8703992,27.6137045 L63.8703989,58.0659203 Z M53.967723,27.5810204 L53.9713608,5.38764081 C53.9713608,5.38632349 86.6619332,5.39369159 86.6619332,5.39369159 C86.6689284,5.39369159 86.659776,50.8001261 86.659776,50.8001261 C86.659776,50.8009674 63.6884369,50.7962038 63.6884369,50.7962038 L63.5268958,27.5825369 C63.5233459,27.5825369 53.967723,27.5810204 53.967723,27.5810204 Z M70.3130394,56.2496459 C71.3161401,56.2496459 72.1293138,55.4364722 72.1293138,54.4333715 C72.1293138,53.4302708 71.3161401,52.6170971 70.3130394,52.6170971 C69.3099387,52.6170971 68.496765,53.4302708 68.496765,54.4333715 C68.496765,55.4364722 69.3099387,56.2496459 70.3130394,56.2496459 Z" id="Rectangle-26"></path>
                <path d="M45.5249768,70.0480175 L62.080398,70.0480175 C63.6328111,70.0480175 64.8894338,68.7996963 64.8894338,67.2420894 L64.8894338,27.8811765 C64.8894338,26.3285089 63.6408102,25.0752484 62.080398,25.0752484 L45.5249768,25.0752484 C43.9725638,25.0752484 42.715941,26.3235696 42.715941,27.8811765 L42.715941,67.2420894 C42.715941,68.794757 43.9645646,70.0480175 45.5249768,70.0480175 Z M44.9048253,29.2865539 C44.9048253,29.2855346 62.3914255,29.2912359 62.3914255,29.2912359 C62.3951673,29.2912359 62.3902716,64.4258824 62.3902716,64.4258824 C62.3902716,64.4269017 44.9036713,64.4212004 44.9036713,64.4212004 C44.8999295,64.4212004 44.9048253,29.2865539 44.9048253,29.2865539 Z M53.8026874,68.6426185 C54.5788679,68.6426185 55.2080865,68.0133999 55.2080865,67.2372194 C55.2080865,66.4610389 54.5788679,65.8318204 53.8026874,65.8318204 C53.0265069,65.8318204 52.3972884,66.4610389 52.3972884,67.2372194 C52.3972884,68.0133999 53.0265069,68.6426185 53.8026874,68.6426185 Z" id="Rectangle-26"></path>
            </g>
        </g>
    </g>
</svg>