<?xml version="1.0" encoding="UTF-8" standalone="no"?>
<svg width="160px" height="160px" viewBox="0 0 160 160" version="1.1" xmlns="http://www.w3.org/2000/svg" xmlns:xlink="http://www.w3.org/1999/xlink" xmlns:sketch="http://www.bohemiancoding.com/sketch/ns">
    <title>Untitled</title>
    <description>Created with Sketch (http://www.bohemiancoding.com/sketch)</description>
    <defs></defs>
    <g id="Page-1" stroke="none" stroke-width="1" fill="none" fill-rule="evenodd" sketch:type="MSPage">
        <g id="Oval-29-+-Oval-39" sketch:type="MSLayerGroup" transform="translate(10.000000, 10.000000)">
            <path d="M70,140 C108.659934,140 140,108.659934 140,70 C140,31.3400656 108.659934,0 70,0 C31.3400656,0 0,31.3400656 0,70 C0,108.659934 31.3400656,140 70,140 Z" id="Oval-29" fill="#2C7AB5" sketch:type="MSShapeGroup"></path>
            <path d="M62.3769218,108.469958 C64.8442383,113.124512 67.3261719,117 70,117 C72.5351562,117 75.1967088,112.895772 77.3935547,108.469955 C79.5904005,104.044139 100,69.5 100,52 C100,35.4314567 86.5685433,22 70,22 C53.4314567,22 40,35.4314567 40,52 C40,69.5 59.9096056,103.815404 62.3769218,108.469958 Z M70,73 C81.5979803,73 91,63.5979803 91,52 C91,40.4020197 81.5979803,31 70,31 C58.4020197,31 49,40.4020197 49,52 C49,63.5979803 58.4020197,73 70,73 Z" id="Oval-39" fill="#FFFFFF" sketch:type="MSShapeGroup"></path>
        </g>
    </g>
</svg>