<?xml version="1.0" encoding="UTF-8" standalone="no"?>
<svg width="128px" height="128px" viewBox="0 0 128 128" version="1.1" xmlns="http://www.w3.org/2000/svg" xmlns:xlink="http://www.w3.org/1999/xlink" xmlns:sketch="http://www.bohemiancoding.com/sketch/ns">
    <title>Untitled</title>
    <description>Created with Sketch (http://www.bohemiancoding.com/sketch)</description>
    <defs></defs>
    <g id="Page-1" stroke="none" stroke-width="1" fill="none" fill-rule="evenodd" sketch:type="MSPage">
        <g id="Youtube-+-Oval-1-+-Line" sketch:type="MSLayerGroup" transform="translate(14.645833, 18.000000)">
            <path d="M25.8144932,60.5126902 C25.7904765,62.2433469 25.7763816,64.0702346 25.7763814,65.9745466 C25.7763806,78.8389363 26.4196009,88.4873673 26.4196009,88.4873673 C26.4196009,88.4873673 26.5643881,90.8415127 29.0339364,91.0602452 C36.5993031,91.2454093 36.1665119,91.703462 61.8952916,91.7034647 C87.6240712,91.7034676 87.6240712,91.2325324 95.4023788,91.0602452 C97.7346776,90.7944019 97.7610597,88.4873673 97.7610597,88.4873673 C97.7610597,88.4873673 98.4042784,78.8389363 98.4042792,65.9745466 C98.4042792,53.110157 97.7610597,43.4618644 97.7610597,43.4618644 C97.7610597,43.4618644 97.6567878,41.1323922 95.2095386,40.8888314 C88.51324,40.8448845 87.7282996,40.3751962 69.9361536,40.2660948 L69.9361536,40.2660948 C65.3706898,49.4468102 55.8850697,55.7567552 44.923518,55.7567552 C40.7126694,55.7567552 36.7196225,54.8256028 33.1396244,53.1582587 C33.0443591,53.2798173 32.940698,53.3969341 32.8286416,53.5088262 L25.8144932,60.5126902 Z M26.1252958,49.3984187 C26.1382169,49.0956215 26.1510787,48.8035406 26.163797,48.5225554 C26.3103546,48.6554847 26.4583341,48.7868786 26.6077101,48.9167117 L26.1252958,49.3984187 Z M70.0067679,65.9035283 L54.1738927,57.9688817 L54.1738927,73.9781307 L70.0067679,65.9035283 Z" id="Youtube" fill="#FFFFFF" sketch:type="MSShapeGroup"></path>
            <g id="Oval-1-+-Line" transform="translate(33.062500, 40.729167) rotate(-270.000000) translate(-33.062500, -40.729167) translate(-0.958333, 7.666667)" sketch:type="MSShapeGroup">
                <path d="M21.4096276,42.8821307 C33.233839,42.8821307 42.8192552,33.2826393 42.8192552,21.4410653 C42.8192552,9.59949134 33.233839,0 21.4096276,0 C9.58541619,0 -7.10542736e-15,9.59949134 -7.10542736e-15,21.4410653 C-7.10542736e-15,33.2826393 9.58541619,42.8821307 21.4096276,42.8821307 Z" id="Oval-1" stroke="#FFFFFF" stroke-width="7"></path>
                <path d="M37.0781042,40.1358149 L61.3121584,64.4054542 C62.8038675,65.8993537 65.2241814,65.9011294 66.718081,64.4094203 C68.2119805,62.9177112 68.2137561,60.4973972 66.722047,59.0034977 L42.4879929,34.7338584 C40.9962838,33.2399589 38.5759698,33.2381832 37.0820703,34.7298923 C35.5881708,36.2216014 35.5863951,38.6419154 37.0781042,40.1358149" id="Line" fill="#FFFFFF"></path>
            </g>
        </g>
    </g>
</svg>