<?xml version="1.0" encoding="UTF-8" standalone="no"?>
<svg width="128px" height="128px" viewBox="0 0 128 128" version="1.1" xmlns="http://www.w3.org/2000/svg" xmlns:xlink="http://www.w3.org/1999/xlink" xmlns:sketch="http://www.bohemiancoding.com/sketch/ns">
    <title>Untitled</title>
    <description>Created with Sketch (http://www.bohemiancoding.com/sketch)</description>
    <defs></defs>
    <g id="Page-1" stroke="none" stroke-width="1" fill="none" fill-rule="evenodd" sketch:type="MSPage">
        <g id="Rectangle-40-+-AD-+-Line-+-Line-+-Line-+-Line-+-Line-+-Line" sketch:type="MSLayerGroup" transform="translate(15.000000, 22.297872)">
            <g id="Rectangle-40-+-AD" transform="translate(21.893617, 0.000000)" fill="#FFFFFF" sketch:type="MSShapeGroup">
                <path d="M4.99057886,0 C2.23435827,0 0,2.23009123 0,4.99545055 L0,57.6642306 C0,60.4231418 2.23517101,62.6596812 4.99057886,62.6596812 L71.0704854,62.6596812 C73.826706,62.6596812 76.0610643,60.4295899 76.0610643,57.6642306 L76.0610643,4.99545055 C76.0610643,2.23653939 73.8258933,0 71.0704854,0 L4.99057886,0 Z M10.5680907,17.5447107 C7.80703643,17.5447107 5.56875973,19.7871064 5.56875973,22.5440067 L5.56875973,51.3944171 C5.56875973,54.155452 7.80324877,56.393713 10.5680907,56.393713 L65.4834934,56.393713 C68.2445477,56.393713 70.4828244,54.1513173 70.4828244,51.3944171 L70.4828244,22.5440067 C70.4828244,19.7829718 68.2483353,17.5447107 65.4834934,17.5447107 L10.5680907,17.5447107 Z" id="Rectangle-40"></path>
                <path d="M32.4773784,45.5425566 L31.49044,42.9483183 L23.0873638,42.9483183 L22.1004253,45.5989531 C21.7150474,46.6328938 21.3860712,47.3307933 21.1134868,47.6926726 C20.8409025,48.0545518 20.3944348,48.2354888 19.7740703,48.2354888 C19.2477005,48.2354888 18.7824342,48.0428027 18.3782573,47.6574248 C17.9740805,47.2720469 17.7719951,46.8349785 17.7719951,46.3462065 C17.7719951,46.0642227 17.8189917,45.7728438 17.9129863,45.472061 C18.006981,45.1712783 18.1620697,44.7530085 18.3782573,44.2172392 L23.6654278,30.794876 C23.8158191,30.4094981 23.996756,29.9465816 24.2082439,29.4061125 C24.4197318,28.8656435 24.6453155,28.416826 24.8850017,28.0596465 C25.124688,27.702467 25.4395652,27.4134379 25.8296428,27.1925505 C26.2197205,26.9716632 26.7014356,26.8612212 27.2748028,26.8612212 C27.8575693,26.8612212 28.3439842,26.9716632 28.7340618,27.1925505 C29.1241394,27.4134379 29.4390166,27.6977673 29.6787029,28.0455474 C29.9183892,28.3933274 30.1204745,28.7669504 30.2849651,29.1664275 C30.4494557,29.5659046 30.6585905,30.099316 30.912376,30.7666777 L36.3123394,44.1044463 C36.7353151,45.1195881 36.9467998,45.8574347 36.9467998,46.3180083 C36.9467998,46.7973808 36.7470643,47.236799 36.3475872,47.6362761 C35.9481101,48.0357532 35.4663949,48.2354888 34.9024273,48.2354888 C34.5734461,48.2354888 34.2914665,48.176743 34.05648,48.0592497 C33.8214935,47.9417565 33.6241078,47.781968 33.4643169,47.5798796 C33.3045261,47.3777912 33.1329885,47.0676137 32.949699,46.6493376 C32.7664095,46.2310616 32.6089709,45.8621383 32.4773784,45.5425566 Z M24.1870952,39.8042143 L30.3625103,39.8042143 L27.2466045,31.2742461 L24.1870952,39.8042143 Z M42.6146465,27.2136992 L48.0710064,27.2136992 C49.490325,27.2136992 50.7075369,27.3452897 51.7226787,27.6084746 C52.7378205,27.8716595 53.6589539,28.3651238 54.4861065,29.0888823 C56.638583,30.9311767 57.7148052,33.7321741 57.7148052,37.4919585 C57.7148052,38.7326873 57.606713,39.8653054 57.3905254,40.8898467 C57.1743378,41.9143879 56.8406619,42.8378711 56.3894878,43.660324 C55.9383137,44.4827768 55.3602555,45.2182736 54.6552959,45.8668364 C54.1007277,46.3650079 53.4944716,46.764479 52.8365093,47.0652617 C52.178547,47.3660445 51.4712482,47.5775292 50.7145916,47.6997222 C49.957935,47.8219152 49.1049467,47.8830107 48.1556011,47.8830107 L42.6992412,47.8830107 C41.9378849,47.8830107 41.3645264,47.7678691 40.9791485,47.5375823 C40.5937706,47.3072955 40.3423387,46.9830189 40.2248455,46.5647429 C40.1073522,46.1464669 40.0486065,45.6036562 40.0486065,44.9362944 L40.0486065,29.7797392 C40.0486065,28.877391 40.2506918,28.2241382 40.6548687,27.8199614 C41.0590455,27.4157846 41.7122982,27.2136992 42.6146465,27.2136992 Z M44.2360454,30.5269927 L44.2360454,44.5556182 L47.4083477,44.5556182 C48.1039078,44.5556182 48.6490684,44.5368195 49.0438457,44.4992217 C49.4386231,44.4616238 49.8474935,44.3676306 50.2704693,44.2172392 C50.693445,44.0668479 51.0600185,43.8553632 51.3702007,43.5827788 C52.7707204,42.3984467 53.4709697,40.3587943 53.4709697,37.4637602 C53.4709697,35.4240772 53.163142,33.8966877 52.5474773,32.8815459 C51.9318126,31.8664041 51.1728175,31.2202008 50.2704693,30.9429167 C49.368121,30.6656326 48.2777999,30.5269927 46.9994732,30.5269927 L44.2360454,30.5269927 Z" id="AD"></path>
            </g>
            <g id="Line-+-Line-+-Line" stroke="#FFFFFF" stroke-width="4" sketch:type="MSShapeGroup">
                <path d="M8.34042553,4.17021277 L8.34042553,59.9468085" id="Line" stroke-linecap="square"></path>
                <path d="M15.1170213,2.08510638 L0.521276596,2.08510638" id="Line" stroke-linecap="round"></path>
                <path d="M15.1170213,60.4680851 L0.521276596,60.4680851" id="Line" stroke-linecap="round"></path>
            </g>
            <g id="Line-+-Line-+-Line" transform="translate(24.021277, 68.808511)" stroke="#FFFFFF" stroke-width="4" sketch:type="MSShapeGroup">
                <path d="M70.3297872,7.29787234 L1.5212766,7.29789312" id="Line" stroke-linecap="square"></path>
                <path d="M0.478723404,14.5957447 L0.478723404,0" id="Line" stroke-linecap="round"></path>
                <path d="M72.4148936,14.5957447 L72.4148936,0" id="Line" stroke-linecap="round"></path>
            </g>
        </g>
    </g>
</svg>