<?xml version="1.0" encoding="UTF-8" standalone="no"?>
<svg width="128px" height="128px" viewBox="0 0 128 128" version="1.1" xmlns="http://www.w3.org/2000/svg" xmlns:xlink="http://www.w3.org/1999/xlink" xmlns:sketch="http://www.bohemiancoding.com/sketch/ns">
    <title>Untitled</title>
    <description>Created with Sketch (http://www.bohemiancoding.com/sketch)</description>
    <defs></defs>
    <g id="Page-1" stroke="none" stroke-width="1" fill="none" fill-rule="evenodd" sketch:type="MSPage">
        <g id="Group" sketch:type="MSLayerGroup" transform="translate(16.000000, 17.777778)">
            <rect id="Rectangle-124" fill="#FFFFFF" sketch:type="MSShapeGroup" x="43.5555556" y="67.5555556" width="8.88888889" height="20.4444444"></rect>
            <rect id="Rectangle-125" fill="#FFFFFF" sketch:type="MSShapeGroup" x="37.3333333" y="83.5555556" width="21.3333333" height="8.88888889" rx="3"></rect>
            <path d="M48.4444444,12.8888889 L48.4444444,0.4127388" id="Line" stroke="#FFFFFF" stroke-width="5" stroke-linecap="round" sketch:type="MSShapeGroup"></path>
            <path d="M83.5555556,47.1111111 L96.0317056,47.1111111" id="Line" stroke="#FFFFFF" stroke-width="5" stroke-linecap="round" sketch:type="MSShapeGroup"></path>
            <path d="M-0.0317056444,47.1111111 L12.4444444,47.1111111" id="Line" stroke="#FFFFFF" stroke-width="5" stroke-linecap="round" sketch:type="MSShapeGroup"></path>
            <path d="M8.06691856,79.7610481 L16.8888889,70.9390778" id="Line" stroke="#FFFFFF" stroke-width="5" stroke-linecap="round" sketch:type="MSShapeGroup"></path>
            <path d="M78.2556815,21.2998741 L87.0776518,12.4779037" id="Line" stroke="#FFFFFF" stroke-width="5" stroke-linecap="round" sketch:type="MSShapeGroup"></path>
            <path d="M9.87815561,12.4779037 L18.7001259,21.2998741" id="Line" stroke="#FFFFFF" stroke-width="5" stroke-linecap="round" sketch:type="MSShapeGroup"></path>
            <path d="M79.1111111,70.9390778 L87.9330814,79.7610481" id="Line" stroke="#FFFFFF" stroke-width="5" stroke-linecap="round" sketch:type="MSShapeGroup"></path>
            <path d="M42.8122694,54.3474935 L41.9748671,52.1463216 L34.8449843,52.1463216 L34.0075819,54.3953451 C33.6805946,55.2726281 33.4014633,55.8647852 33.1701796,56.1718343 C32.9388959,56.4788834 32.5600748,56.6324056 32.033705,56.6324056 C31.5870882,56.6324056 31.1923167,56.4689144 30.8493788,56.1419271 C30.5064409,55.8149398 30.3349745,55.4440939 30.3349745,55.0293783 C30.3349745,54.7901192 30.3748504,54.5428886 30.4546034,54.287679 C30.5343564,54.0324694 30.6659469,53.6775739 30.8493788,53.2229818 L35.3354628,41.8343099 C35.4630676,41.5073226 35.6165898,41.1145449 35.7960341,40.6559652 C35.9754783,40.1973854 36.1668827,39.8165705 36.3702528,39.5135091 C36.573623,39.2104477 36.8407915,38.9652109 37.1717665,38.7777913 C37.5027415,38.5903718 37.9114695,38.4966634 38.3979628,38.4966634 C38.8924314,38.4966634 39.305147,38.5903718 39.636122,38.7777913 C39.9670969,38.9652109 40.2342655,39.2064601 40.4376356,39.5015462 C40.6410058,39.7966323 40.8124722,40.1136458 40.9520399,40.452596 C41.0916077,40.7915463 41.2690555,41.2441378 41.4843886,41.8103841 L46.0661757,53.1272786 C46.4250642,53.9886111 46.6045058,54.6146628 46.6045058,55.0054525 C46.6045058,55.4121928 46.4350332,55.7850325 46.0960829,56.1239827 C45.7571326,56.462933 45.3484046,56.6324056 44.8698866,56.6324056 C44.5907511,56.6324056 44.3514957,56.5825607 44.1521132,56.4828695 C43.9527307,56.3831782 43.7852519,56.2476001 43.6496718,56.0761312 C43.5140917,55.9046622 43.3685446,55.6414813 43.2130263,55.2865804 C43.0575079,54.9316795 42.9239236,54.6186537 42.8122694,54.3474935 Z M35.7780897,49.478597 L41.0178358,49.478597 L38.374037,42.2410482 L35.7780897,49.478597 Z M51.4135878,38.7957357 L56.0432265,38.7957357 C57.2474968,38.7957357 58.2802827,38.9073882 59.1416151,39.1306966 C60.0029476,39.354005 60.7845153,39.772702 61.4863417,40.3868001 C63.3126855,41.949959 64.2258436,44.3265628 64.2258436,47.5166829 C64.2258436,48.5694226 64.1341291,49.5304319 63.9506972,50.3997396 C63.7672653,51.2690473 63.4841463,52.0526088 63.1013319,52.7504476 C62.7185175,53.4482864 62.2280439,54.0723443 61.6298964,54.62264 C61.1593537,55.0453309 60.6449545,55.3842761 60.0866835,55.6394857 C59.5284125,55.8946953 58.9282801,56.0741369 58.2862684,56.1778158 C57.6442568,56.2814947 56.9205091,56.3333333 56.1150038,56.3333333 L51.4853651,56.3333333 C50.8393658,56.3333333 50.3528798,56.2356374 50.0258925,56.0402425 C49.6989052,55.8448477 49.4855691,55.5697039 49.3858778,55.2148031 C49.2861866,54.8599022 49.2363417,54.3993355 49.2363417,53.8330892 L49.2363417,40.9729818 C49.2363417,40.2073529 49.4078081,39.6530779 49.750746,39.31014 C50.0936839,38.9672021 50.647959,38.7957357 51.4135878,38.7957357 Z M52.7893202,41.607015 L52.7893202,53.5100911 L55.4809706,53.5100911 C56.0711428,53.5100911 56.5337033,53.4941408 56.8686659,53.4622396 C57.2036285,53.4303384 57.5505489,53.3505866 57.9094374,53.2229818 C58.2683259,53.095377 58.579358,52.9159354 58.8425429,52.6846517 C60.0308626,51.6797639 60.6250136,49.9491497 60.6250136,47.4927572 C60.6250136,45.762117 60.3638264,44.4661501 59.8414442,43.6048177 C59.3190621,42.7434853 58.6750662,42.1951916 57.9094374,41.9599202 C57.1438086,41.7246489 56.2186876,41.607015 55.1340468,41.607015 L52.7893202,41.607015 Z" id="AD" fill="#FFFFFF" sketch:type="MSShapeGroup"></path>
            <path d="M20.4444444,32.9970484 L20.4444444,60.336285 C20.4444444,65.3052176 24.4756256,69.3333333 29.4437779,69.3333333 L65.6673333,69.3333333 C70.6375279,69.3333333 74.6666667,65.3103024 74.6666667,60.336285 L74.6666667,32.9970484 C74.6666667,28.0281158 70.6354856,24 65.6673333,24 L29.4437779,24 C24.4735833,24 20.4444444,28.0230309 20.4444444,32.9970484 Z M65.6673333,29 C67.8752267,29 69.6666667,30.7907044 69.6666667,32.9970484 L69.6666667,60.336285 C69.6666667,62.546401 67.8785824,64.3333333 65.6673333,64.3333333 L29.4437779,64.3333333 C27.2358844,64.3333333 25.4444444,62.542629 25.4444444,60.336285 L25.4444444,32.9970484 C25.4444444,30.7869324 27.2325287,29 29.4437779,29 L65.6673333,29 Z" id="Rectangle-123" fill="#FFFFFF" sketch:type="MSShapeGroup"></path>
        </g>
    </g>
</svg>