<?xml version="1.0" encoding="UTF-8" standalone="no"?>
<svg width="128px" height="128px" viewBox="0 0 128 128" version="1.1" xmlns="http://www.w3.org/2000/svg" xmlns:xlink="http://www.w3.org/1999/xlink" xmlns:sketch="http://www.bohemiancoding.com/sketch/ns">
    <title>Untitled</title>
    <description>Created with Sketch (http://www.bohemiancoding.com/sketch)</description>
    <defs></defs>
    <g id="Page-1" stroke="none" stroke-width="1" fill="none" fill-rule="evenodd" sketch:type="MSPage">
        <g id="FB-App-+-Star-1" sketch:type="MSLayerGroup" transform="translate(-5.000000, 10.000000)" fill="#FFFFFF">
            <path d="M64.1971829,0.917935253 L24.950473,23.9250969 C22.8622725,25.1492394 22.8630533,27.1344244 24.950473,28.3581092 L64.1971829,51.3652708 C66.2853834,52.5894134 69.6718062,52.5889556 71.7592259,51.3652708 L111.005936,28.3581092 C113.094136,27.1339666 113.093355,25.1487817 111.005936,23.9250969 L71.7592259,0.917935253 C69.6710254,-0.30620728 66.2846025,-0.305749534 64.1971829,0.917935253 Z M70.6831156,62.8498573 L70.9668187,105.6665 C70.9819137,107.944646 72.6003873,108.878224 74.5801265,107.752644 L111.802278,86.5900171 C113.782758,85.4640167 115.376012,82.703559 115.360923,80.4262648 L115.077219,37.609622 C115.062124,35.331476 113.443651,34.3978984 111.463912,35.5234777 L74.2417596,56.6861051 C72.2612798,57.8121054 70.6680263,60.5725632 70.6831156,62.8498573 Z M24.0030042,86.5299966 L61.2251561,107.692624 C63.205636,108.818624 64.8233746,107.883774 64.838464,105.60648 L65.1221671,62.7898368 C65.1372621,60.5116908 63.5432623,57.7516639 61.563523,56.6260846 L24.3413711,35.4634572 C22.3608913,34.3374568 20.7431526,35.2723073 20.7280632,37.5496015 L20.4443602,80.3662443 C20.4292652,82.6443903 22.0232649,85.4044173 24.0030042,86.5299966 Z M31.8230147,80.6391248 L33.6224242,71.1711019 L26,59.4061188 L36.5339325,63.8662102 L41.2448483,57 L45.955767,69.2245129 L56.4896988,76.7459516 L48.8672714,79.8410152 L50.6666813,91.3557244 L41.2448478,81.0440724 L31.8230147,80.6391248 Z" id="FB-App" sketch:type="MSShapeGroup"></path>
        </g>
    </g>
</svg>