<?xml version="1.0" encoding="UTF-8" standalone="no"?>
<svg width="580px" height="400px" viewBox="0 0 580 400" version="1.1" xmlns="http://www.w3.org/2000/svg" xmlns:xlink="http://www.w3.org/1999/xlink" xmlns:sketch="http://www.bohemiancoding.com/sketch/ns">
    <title>Untitled</title>
    <description>Created with Sketch (http://www.bohemiancoding.com/sketch)</description>
    <defs></defs>
    <g id="Page-1" stroke="none" stroke-width="1" fill="none" fill-rule="evenodd" sketch:type="MSPage">
        <g id="Group" sketch:type="MSLayerGroup" transform="translate(14.000000, 8.000000)">
            <g id="link-ad" transform="translate(0.000000, 53.715264)" sketch:type="MSShapeGroup">
                <path d="M0,9.73981619 L0,178.169085 C0,183.548236 4.21023892,187.908901 9.42655174,187.908901 L225.938247,187.908901 C231.144388,187.908901 235.364799,183.540628 235.364799,178.169085 L235.364799,9.73981619 C235.364799,4.36066424 231.15456,0 225.938247,0 L9.42655174,0 C4.22041097,0 0,4.36827233 0,9.73981619 Z" id="Rectangle-49" fill="#FFFFFF"></path>
                <g id="Rectangle-50-+-Rectangle-49-+-Group" transform="translate(8.768299, 7.942215)">
                    <g id="Rectangle-50-+-Rectangle-49">
                        <path d="M0,8.77153037 L0,160.456369 C0,165.300751 3.91650132,169.227899 8.76888534,169.227899 L210.175114,169.227899 C215.018035,169.227899 218.943999,165.293899 218.943999,160.456369 L218.943999,8.77153037 C218.943999,3.92714791 215.027498,0 210.175114,0 L8.76888534,0 C3.92596369,0 0,3.93399964 0,8.77153037 Z" id="Rectangle-49" fill="#CFCFCF"></path>
                        <path d="M210.175114,10.9622988 C208.968843,10.9622988 207.983626,9.97604905 207.983626,8.77153037 L207.983626,160.456369 C207.983626,159.243587 208.960791,158.2656 210.175114,158.2656 L8.76888534,158.2656 C9.97515595,158.2656 10.9603734,159.25185 10.9603734,160.456369 L10.9603734,8.77153037 C10.9603734,9.98431151 9.98320826,10.9622988 8.76888534,10.9622988 L210.175114,10.9622988 Z" id="Path" fill="#FFFFFF"></path>
                        <rect id="Rectangle-50" fill="#CFCFCF" x="5.48018669" y="3.732536" width="206.006856" height="28.1102196"></rect>
                    </g>
                    <g id="Group" transform="translate(21.569910, 44.149591)" fill="#D8D8D8">
                        <rect id="Rectangle-4" x="87.4444523" y="58.5634033" width="86.8254843" height="13.0607212"></rect>
                        <rect id="Rectangle-4" x="87.4444523" y="29.8298166" width="62.6804509" height="13.0607212"></rect>
                        <rect id="Rectangle-4" x="87.4444523" y="87.2969901" width="78.3505636" height="13.0607212"></rect>
                        <rect id="Rectangle-4" x="87.4444523" y="0" width="78.3505636" height="13.0607212"></rect>
                        <rect id="Rectangle-3" x="0" y="0" width="78.3505636" height="70.5278947"></rect>
                    </g>
                </g>
            </g>
            <g id="link-ad" transform="translate(178.654086, 0.000000)" sketch:type="MSShapeGroup">
                <path d="M0,9.73981619 L0,178.169085 C0,183.548236 4.21023892,187.908901 9.42655174,187.908901 L225.938247,187.908901 C231.144388,187.908901 235.364799,183.540628 235.364799,178.169085 L235.364799,9.73981619 C235.364799,4.36066424 231.15456,0 225.938247,0 L9.42655174,0 C4.22041097,0 0,4.36827233 0,9.73981619 Z" id="Rectangle-49" fill="#FFFFFF"></path>
                <g id="Rectangle-50-+-Rectangle-49-+-Group" transform="translate(8.768299, 7.942215)">
                    <g id="Rectangle-50-+-Rectangle-49">
                        <path d="M0,8.77153037 L0,160.456369 C0,165.300751 3.91650132,169.227899 8.76888534,169.227899 L210.175114,169.227899 C215.018035,169.227899 218.943999,165.293899 218.943999,160.456369 L218.943999,8.77153037 C218.943999,3.92714791 215.027498,0 210.175114,0 L8.76888534,0 C3.92596369,0 0,3.93399964 0,8.77153037 Z" id="Rectangle-49" fill="#CFCFCF"></path>
                        <path d="M210.175114,10.9622988 C208.968843,10.9622988 207.983626,9.97604905 207.983626,8.77153037 L207.983626,160.456369 C207.983626,159.243587 208.960791,158.2656 210.175114,158.2656 L8.76888534,158.2656 C9.97515595,158.2656 10.9603734,159.25185 10.9603734,160.456369 L10.9603734,8.77153037 C10.9603734,9.98431151 9.98320826,10.9622988 8.76888534,10.9622988 L210.175114,10.9622988 Z" id="Path" fill="#FFFFFF"></path>
                        <rect id="Rectangle-50" fill="#CFCFCF" x="5.48018669" y="3.732536" width="206.006856" height="28.1102196"></rect>
                    </g>
                    <g id="Group" transform="translate(21.569910, 44.149591)" fill="#D8D8D8">
                        <rect id="Rectangle-4" x="87.4444523" y="58.5634033" width="86.8254843" height="13.0607212"></rect>
                        <rect id="Rectangle-4" x="87.4444523" y="29.8298166" width="62.6804509" height="13.0607212"></rect>
                        <rect id="Rectangle-4" x="87.4444523" y="87.2969901" width="78.3505636" height="13.0607212"></rect>
                        <rect id="Rectangle-4" x="87.4444523" y="0" width="78.3505636" height="13.0607212"></rect>
                        <rect id="Rectangle-3" x="0" y="0" width="78.3505636" height="70.5278947"></rect>
                    </g>
                </g>
            </g>
            <g id="link-ad" transform="translate(314.235048, 96.089695)" sketch:type="MSShapeGroup">
                <path d="M0,9.73981619 L0,178.169085 C0,183.548236 4.21023892,187.908901 9.42655174,187.908901 L225.938247,187.908901 C231.144388,187.908901 235.364799,183.540628 235.364799,178.169085 L235.364799,9.73981619 C235.364799,4.36066424 231.15456,0 225.938247,0 L9.42655174,0 C4.22041097,0 0,4.36827233 0,9.73981619 Z" id="Rectangle-49" fill="#FFFFFF"></path>
                <g id="Rectangle-50-+-Rectangle-49-+-Group" transform="translate(8.768299, 7.942215)">
                    <g id="Rectangle-50-+-Rectangle-49">
                        <path d="M0,8.77153037 L0,160.456369 C0,165.300751 3.91650132,169.227899 8.76888534,169.227899 L210.175114,169.227899 C215.018035,169.227899 218.943999,165.293899 218.943999,160.456369 L218.943999,8.77153037 C218.943999,3.92714791 215.027498,0 210.175114,0 L8.76888534,0 C3.92596369,0 0,3.93399964 0,8.77153037 Z" id="Rectangle-49" fill="#CFCFCF"></path>
                        <path d="M210.175114,10.9622988 C208.968843,10.9622988 207.983626,9.97604905 207.983626,8.77153037 L207.983626,160.456369 C207.983626,159.243587 208.960791,158.2656 210.175114,158.2656 L8.76888534,158.2656 C9.97515595,158.2656 10.9603734,159.25185 10.9603734,160.456369 L10.9603734,8.77153037 C10.9603734,9.98431151 9.98320826,10.9622988 8.76888534,10.9622988 L210.175114,10.9622988 Z" id="Path" fill="#FFFFFF"></path>
                        <rect id="Rectangle-50" fill="#CFCFCF" x="5.48018669" y="3.732536" width="206.006856" height="28.1102196"></rect>
                    </g>
                    <g id="Group" transform="translate(21.569910, 44.149591)" fill="#D8D8D8">
                        <rect id="Rectangle-4" x="87.4444523" y="58.5634033" width="86.8254843" height="13.0607212"></rect>
                        <rect id="Rectangle-4" x="87.4444523" y="29.8298166" width="62.6804509" height="13.0607212"></rect>
                        <rect id="Rectangle-4" x="87.4444523" y="87.2969901" width="78.3505636" height="13.0607212"></rect>
                        <rect id="Rectangle-4" x="87.4444523" y="0" width="78.3505636" height="13.0607212"></rect>
                        <rect id="Rectangle-3" x="0" y="0" width="78.3505636" height="70.5278947"></rect>
                    </g>
                </g>
            </g>
            <g id="link-ad" transform="translate(221.399542, 198.683089)" sketch:type="MSShapeGroup">
                <path d="M0,9.73981619 L0,178.169085 C0,183.548236 4.21023892,187.908901 9.42655174,187.908901 L225.938247,187.908901 C231.144388,187.908901 235.364799,183.540628 235.364799,178.169085 L235.364799,9.73981619 C235.364799,4.36066424 231.15456,0 225.938247,0 L9.42655174,0 C4.22041097,0 0,4.36827233 0,9.73981619 Z" id="Rectangle-49" fill="#FFFFFF"></path>
                <g id="Rectangle-50-+-Rectangle-49-+-Group" transform="translate(8.768299, 7.942215)">
                    <g id="Rectangle-50-+-Rectangle-49" transform="translate(0.000000, -0.000000)">
                        <path d="M0,8.77153037 L0,160.456369 C0,165.300751 3.91650132,169.227899 8.76888534,169.227899 L210.175114,169.227899 C215.018035,169.227899 218.943999,165.293899 218.943999,160.456369 L218.943999,8.77153037 C218.943999,3.92714791 215.027498,0 210.175114,0 L8.76888534,0 C3.92596369,0 0,3.93399964 0,8.77153037 Z" id="Rectangle-49" fill="#CFCFCF"></path>
                        <path d="M210.175114,10.9622988 C208.968843,10.9622988 207.983626,9.97604905 207.983626,8.77153037 L207.983626,160.456369 C207.983626,159.243587 208.960791,158.2656 210.175114,158.2656 L8.76888534,158.2656 C9.97515595,158.2656 10.9603734,159.25185 10.9603734,160.456369 L10.9603734,8.77153037 C10.9603734,9.98431151 9.98320826,10.9622988 8.76888534,10.9622988 L210.175114,10.9622988 Z" id="Path" fill="#FFFFFF"></path>
                        <rect id="Rectangle-50" fill="#CFCFCF" x="5.48018669" y="3.732536" width="206.006856" height="28.1102196"></rect>
                    </g>
                    <g id="Group" transform="translate(21.569910, 44.149591)" fill="#D8D8D8">
                        <rect id="Rectangle-4" x="87.4444523" y="58.5634033" width="86.8254843" height="13.0607212"></rect>
                        <rect id="Rectangle-4" x="87.4444523" y="29.8298166" width="62.6804509" height="13.0607212"></rect>
                        <rect id="Rectangle-4" x="87.4444523" y="87.2969901" width="78.3505636" height="13.0607212"></rect>
                        <rect id="Rectangle-4" x="87.4444523" y="-1.98746012e-13" width="78.3505636" height="13.0607212"></rect>
                        <rect id="Rectangle-3" x="0" y="0.93236715" width="78.3505636" height="70.5278947"></rect>
                    </g>
                </g>
            </g>
            <g id="link-ad" transform="translate(45.542066, 176.114476)" sketch:type="MSShapeGroup">
                <path d="M0,9.73981619 L0,178.169085 C0,183.548236 4.21023892,187.908901 9.42655174,187.908901 L225.938247,187.908901 C231.144388,187.908901 235.364799,183.540628 235.364799,178.169085 L235.364799,9.73981619 C235.364799,4.36066424 231.15456,0 225.938247,0 L9.42655174,0 C4.22041097,0 0,4.36827233 0,9.73981619 Z" id="Rectangle-49" fill="#FFFFFF"></path>
                <g id="Rectangle-50-+-Rectangle-49-+-Group" transform="translate(8.768299, 7.942215)">
                    <g id="Rectangle-50-+-Rectangle-49">
                        <path d="M0,8.77153037 L0,160.456369 C0,165.300751 3.91650132,169.227899 8.76888534,169.227899 L210.175114,169.227899 C215.018035,169.227899 218.943999,165.293899 218.943999,160.456369 L218.943999,8.77153037 C218.943999,3.92714791 215.027498,0 210.175114,0 L8.76888534,0 C3.92596369,0 0,3.93399964 0,8.77153037 Z" id="Rectangle-49" fill="#CFCFCF"></path>
                        <path d="M210.175114,10.9622988 C208.968843,10.9622988 207.983626,9.97604905 207.983626,8.77153037 L207.983626,160.456369 C207.983626,159.243587 208.960791,158.2656 210.175114,158.2656 L8.76888534,158.2656 C9.97515595,158.2656 10.9603734,159.25185 10.9603734,160.456369 L10.9603734,8.77153037 C10.9603734,9.98431151 9.98320826,10.9622988 8.76888534,10.9622988 L210.175114,10.9622988 Z" id="Path" fill="#FFFFFF"></path>
                        <rect id="Rectangle-50" fill="#CFCFCF" x="5.48018669" y="3.732536" width="206.006856" height="28.1102196"></rect>
                    </g>
                    <g id="Group" transform="translate(21.569910, 44.149591)" fill="#D8D8D8">
                        <rect id="Rectangle-4" x="87.4444523" y="58.5634033" width="86.8254843" height="13.0607212"></rect>
                        <rect id="Rectangle-4" x="87.4444523" y="29.8298166" width="62.6804509" height="13.0607212"></rect>
                        <rect id="Rectangle-4" x="87.4444523" y="87.2969901" width="78.3505636" height="13.0607212"></rect>
                        <rect id="Rectangle-4" x="87.4444523" y="0" width="78.3505636" height="13.0607212"></rect>
                        <rect id="Rectangle-3" x="0" y="0" width="78.3505636" height="70.5278947"></rect>
                    </g>
                </g>
            </g>
            <g id="link-ad" transform="translate(145.445298, 121.353791)" sketch:type="MSShapeGroup">
                <path d="M0,9.73981619 L0,178.169085 C0,183.548236 4.21023892,187.908901 9.42655174,187.908901 L225.938247,187.908901 C231.144388,187.908901 235.364799,183.540628 235.364799,178.169085 L235.364799,9.73981619 C235.364799,4.36066424 231.15456,0 225.938247,0 L9.42655174,0 C4.22041097,0 0,4.36827233 0,9.73981619 Z" id="Rectangle-49" fill="#FFFFFF"></path>
                <g id="Rectangle-50-+-Rectangle-49-+-Group" transform="translate(8.768299, 7.942215)">
                    <g id="Rectangle-50-+-Rectangle-49" transform="translate(0.000000, -0.000000)">
                        <path d="M0,8.77153037 L0,160.456369 C0,165.300751 3.91650132,169.227899 8.76888534,169.227899 L210.175114,169.227899 C215.018035,169.227899 218.943999,165.293899 218.943999,160.456369 L218.943999,8.77153037 C218.943999,3.92714791 215.027498,0 210.175114,0 L8.76888534,0 C3.92596369,0 0,3.93399964 0,8.77153037 Z" id="Rectangle-49" fill="#2779B7"></path>
                        <path d="M210.175114,10.9622988 C208.968843,10.9622988 207.983626,9.97604905 207.983626,8.77153037 L207.983626,160.456369 C207.983626,159.243587 208.960791,158.2656 210.175114,158.2656 L8.76888534,158.2656 C9.97515595,158.2656 10.9603734,159.25185 10.9603734,160.456369 L10.9603734,8.77153037 C10.9603734,9.98431151 9.98320826,10.9622988 8.76888534,10.9622988 L210.175114,10.9622988 Z" id="Path" fill="#FFFFFF"></path>
                        <rect id="Rectangle-50" fill="#2779B7" x="5.48018669" y="3.732536" width="206.006856" height="28.1102196"></rect>
                    </g>
                    <g id="Group" transform="translate(21.569910, 44.149591)" fill="#2779B7">
                        <rect id="Rectangle-4" x="87.4444523" y="58.5634033" width="86.8254843" height="13.0607212"></rect>
                        <rect id="Rectangle-4" x="87.4444523" y="29.8298166" width="62.6804509" height="13.0607212"></rect>
                        <rect id="Rectangle-4" x="87.4444523" y="87.2969901" width="78.3505636" height="13.0607212"></rect>
                        <rect id="Rectangle-4" x="87.4444523" y="-1.98746012e-13" width="78.3505636" height="13.0607212"></rect>
                        <rect id="Rectangle-3" x="0" y="-1.98746012e-13" width="78.3505636" height="71.6241246"></rect>
                    </g>
                </g>
            </g>
        </g>
    </g>
</svg>