<?xml version="1.0" encoding="UTF-8" standalone="no"?>
<svg width="350px" height="300px" viewBox="0 0 350 300" version="1.1" xmlns="http://www.w3.org/2000/svg" xmlns:xlink="http://www.w3.org/1999/xlink" xmlns:sketch="http://www.bohemiancoding.com/sketch/ns">
    <title>Untitled</title>
    <description>Created with Sketch (http://www.bohemiancoding.com/sketch)</description>
    <defs></defs>
    <g id="Page-1" stroke="none" stroke-width="1" fill="none" fill-rule="evenodd" sketch:type="MSPage">
        <path d="M174.659074,29.0651306 C290.526896,32.5952966 290.526896,35.3173883 324.687536,36.558666 C335.708558,37.984224 336.178139,48.5023397 336.178139,48.5023397 C336.178139,48.5023397 339.074835,92.0511185 339.074835,150.013975 C339.074831,207.976831 336.178139,251.536465 336.178139,251.536465 C336.178139,251.536465 336.05933,261.943515 325.555979,263.491179 C290.526896,265.441376 290.526896,267.591922 174.659074,271.533721 C58.7912513,275.47552 60.7402974,273.185549 26.6701789,273.418241 C15.5487349,272.713372 14.8966956,261.171112 14.8966956,261.171112 C14.8966956,261.171112 11.9999964,213.829131 12,150.591577 C12.0000062,87.3540228 14.8966956,41.5605807 14.8966956,41.5605807 C14.8966956,41.5605807 15.3040434,29.7195998 26.2939491,29.2569211 C60.8096031,27.1658248 58.7912525,25.5351372 174.659074,29.0651306 Z M145.632713,118.839057 L145.632713,182.428022 L205.279465,150.250252 L145.632713,118.839057 Z" id="Youtube" stroke="#FFFFFF" stroke-width="5" sketch:type="MSShapeGroup"></path>
    </g>
</svg>