<?xml version="1.0" encoding="UTF-8" standalone="no"?>
<svg width="400px" height="250px" viewBox="0 0 400 250" version="1.1" xmlns="http://www.w3.org/2000/svg" xmlns:xlink="http://www.w3.org/1999/xlink" xmlns:sketch="http://www.bohemiancoding.com/sketch/ns">
    <title>Untitled</title>
    <description>Created with Sketch (http://www.bohemiancoding.com/sketch)</description>
    <defs></defs>
    <g id="Page-1" stroke="none" stroke-width="1" fill="none" fill-rule="evenodd" sketch:type="MSPage">
        <g id="Group" sketch:type="MSLayerGroup">
            <rect id="Rectangle-1" fill="#4A4A4A" sketch:type="MSShapeGroup" x="0" y="0" width="400" height="250"></rect>
            <g id="Imported-Layers" transform="translate(9.000000, 68.230769)" fill="#555555" sketch:type="MSShapeGroup">
                <path d="M-0.462033898,66.4943419 L8.17232203,66.4943419 L8.17232203,151.523179 L-0.462033898,151.523179 L-0.462033898,66.4943419 Z" id="Fill-1"></path>
                <path d="M12.3953559,75.2929231 L21.1193729,75.2929231 L21.1193729,151.523179 L12.3953559,151.523179 L12.3953559,75.2929231 Z" id="Fill-2"></path>
                <path d="M25.3513729,88.9745812 L34.0753898,88.9745812 L34.0753898,151.523179 L25.3513729,151.523179 L25.3513729,88.9745812 Z" id="Fill-3"></path>
                <path d="M38.3073898,59.6580342 L47.0314068,59.6580342 L47.0314068,151.523179 L38.3073898,151.523179 L38.3073898,59.6580342 Z" id="Fill-4"></path>
                <path d="M51.2544407,39.1310256 L59.9784576,39.1310256 L59.9784576,151.523179 L51.2544407,151.523179 L51.2544407,39.1310256 Z" id="Fill-5"></path>
                <path d="M64.2014915,24.4727521 L72.9255085,24.4727521 L72.9255085,151.523179 L64.2014915,151.523179 L64.2014915,24.4727521 Z" id="Fill-6"></path>
                <path d="M77.1575085,20.5572479 L85.8815254,20.5572479 L85.8815254,151.514137 L77.1575085,151.514137 L77.1575085,20.5572479 Z" id="Fill-7"></path>
                <path d="M90.1135254,17.6274017 L98.8375424,17.6274017 L98.8375424,151.523179 L90.1135254,151.523179 L90.1135254,17.6274017 Z" id="Fill-8"></path>
                <path d="M103.060576,1.99251282 L111.784593,1.99251282 L111.784593,151.523179 L103.060576,151.523179 L103.060576,1.99251282 Z" id="Fill-9"></path>
                <path d="M116.016593,43.0374872 L124.74061,43.0374872 L124.74061,151.523179 L116.016593,151.523179 L116.016593,43.0374872 Z" id="Fill-10"></path>
                <path d="M128.963644,108.515932 L137.687661,108.515932 L137.687661,151.514137 L128.963644,151.514137 L128.963644,108.515932 Z" id="Fill-11"></path>
                <path d="M141.910695,68.4475726 L150.634712,68.4475726 L150.634712,151.523179 L141.910695,151.523179 L141.910695,68.4475726 Z" id="Fill-12"></path>
                <path d="M154.866712,40.107641 L163.590729,40.107641 L163.590729,151.523179 L154.866712,151.523179 L154.866712,40.107641 Z" id="Fill-13"></path>
                <path d="M167.813763,15.6741709 L176.53778,15.6741709 L176.53778,151.523179 L167.813763,151.523179 L167.813763,15.6741709 Z" id="Fill-14"></path>
                <path d="M180.76978,10.791094 L189.493797,10.791094 L189.493797,151.523179 L180.76978,151.523179 L180.76978,10.791094 Z" id="Fill-15"></path>
                <path d="M193.716831,15.6741709 L202.440847,15.6741709 L202.440847,151.523179 L193.716831,151.523179 L193.716831,15.6741709 Z" id="Fill-16"></path>
                <path d="M206.672847,10.791094 L215.396864,10.791094 L215.396864,151.523179 L206.672847,151.523179 L206.672847,10.791094 Z" id="Fill-17"></path>
                <path d="M219.619898,27.4025983 L228.343915,27.4025983 L228.343915,151.523179 L219.619898,151.523179 L219.619898,27.4025983 Z" id="Fill-18"></path>
                <path d="M232.575915,22.5195214 L241.299932,22.5195214 L241.299932,151.523179 L232.575915,151.523179 L232.575915,22.5195214 Z" id="Fill-19"></path>
                <path d="M245.522966,31.3090598 L254.246983,31.3090598 L254.246983,151.514137 L245.522966,151.514137 L245.522966,31.3090598 Z" id="Fill-20"></path>
                <path d="M258.478983,10.791094 L267.203,10.791094 L267.203,151.523179 L258.478983,151.523179 L258.478983,10.791094 Z" id="Fill-21"></path>
                <path d="M271.426034,38.1544103 L280.150051,38.1544103 L280.150051,151.523179 L271.426034,151.523179 L271.426034,38.1544103 Z" id="Fill-22"></path>
                <path d="M284.382051,101.679624 L293.106068,101.679624 L293.106068,151.523179 L284.382051,151.523179 L284.382051,101.679624 Z" id="Fill-23"></path>
                <path d="M297.329102,65.5177265 L306.053119,65.5177265 L306.053119,151.523179 L297.329102,151.523179 L297.329102,65.5177265 Z" id="Fill-24"></path>
                <path d="M310.285119,0.0392820513 L319.009136,0.0392820513 L319.009136,151.523179 L310.285119,151.523179 L310.285119,0.0392820513 Z" id="Fill-25"></path>
                <path d="M323.241136,49.8828376 L331.965153,49.8828376 L331.965153,151.523179 L323.241136,151.523179 L323.241136,49.8828376 Z" id="Fill-26"></path>
                <path d="M336.188186,42.0608718 L344.912203,42.0608718 L344.912203,151.523179 L336.188186,151.523179 L336.188186,42.0608718 Z" id="Fill-27"></path>
                <path d="M349.144203,100.703009 L357.86822,100.703009 L357.86822,151.523179 L349.144203,151.523179 L349.144203,100.703009 Z" id="Fill-28"></path>
                <path d="M362.091254,57.6957607 L370.815271,57.6957607 L370.815271,151.514137 L362.091254,151.514137 L362.091254,57.6957607 Z" id="Fill-29"></path>
                <path d="M375.038305,100.703009 L383.762322,100.703009 L383.762322,151.523179 L375.038305,151.523179 L375.038305,100.703009 Z" id="Fill-30"></path>
            </g>
            <g id="Oval-4-+-Oval-5" transform="translate(98.492611, 37.000000)" fill="#616161" sketch:type="MSShapeGroup">
                <path d="M101.253695,91.2857143 C126.46155,91.2857143 146.896552,70.8507123 146.896552,45.6428571 C146.896552,20.435002 126.46155,0 101.253695,0 C76.0458394,0 55.6108374,20.435002 55.6108374,45.6428571 C55.6108374,70.8507123 76.0458394,91.2857143 101.253695,91.2857143 Z" id="Oval-4"></path>
                <path d="M202.1959,212.475369 C202.1959,145.544168 156.932809,91.2857143 101.09795,91.2857143 C45.2630912,91.2857143 0,145.544168 0,212.475369" id="Oval-5"></path>
            </g>
            <rect id="Rectangle-3" fill="#9B9B9B" sketch:type="MSShapeGroup" x="20" y="20" width="40" height="40"></rect>
            <rect id="Rectangle-4" fill="#9B9B9B" sketch:type="MSShapeGroup" x="81" y="29.76" width="279" height="20.0361"></rect>
            <g id="Rectangle-4-+-Rectangle-4-+-Oval-2" transform="translate(0.000000, 223.000000)" sketch:type="MSShapeGroup">
                <rect id="Rectangle-4" fill="#9B9B9B" x="0" y="4" width="400" height="7"></rect>
                <rect id="Rectangle-4" fill="#D83132" x="0" y="4" width="120" height="7"></rect>
                <circle id="Oval-2" stroke="#979797" stroke-width="3" fill="#FFFFFF" cx="120.5" cy="7.5" r="7.5"></circle>
            </g>
        </g>
    </g>
</svg>