<?xml version="1.0" encoding="UTF-8" standalone="no"?>
<svg width="400px" height="250px" viewBox="0 0 400 250" version="1.1" xmlns="http://www.w3.org/2000/svg" xmlns:xlink="http://www.w3.org/1999/xlink" xmlns:sketch="http://www.bohemiancoding.com/sketch/ns">
    <title>Untitled</title>
    <description>Created with Sketch (http://www.bohemiancoding.com/sketch)</description>
    <defs></defs>
    <g id="Page-1" stroke="none" stroke-width="1" fill="none" fill-rule="evenodd" sketch:type="MSPage">
        <g id="Group" sketch:type="MSLayerGroup">
            <rect id="Rectangle-1" fill="#F9F9F9" sketch:type="MSShapeGroup" x="0" y="0" width="400" height="250"></rect>
            <rect id="Rectangle-1" fill="#D83132" sketch:type="MSShapeGroup" x="41" y="20" width="60" height="21"></rect>
            <rect id="Rectangle-1" fill="#D4D4D4" sketch:type="MSShapeGroup" x="121" y="20" width="240" height="21" rx="3"></rect>
            <g id="Oval-1-+-Line" transform="translate(343.000000, 24.000000)" stroke="#979797" stroke-width="2" sketch:type="MSShapeGroup">
                <path d="M4,8 C6.20913911,8 8,6.20913911 8,4 C8,1.79086089 6.20913911,0 4,0 C1.79086089,0 0,1.79086089 0,4 C0,6.20913911 1.79086089,8 4,8 Z" id="Oval-1"></path>
                <path d="M7.5,7.5 L12.0276928,12.0276928" id="Line" stroke-linecap="round"></path>
            </g>
            <path d="M41,59.5 L41,140.185 L201,140.185 L361,140.185 L361,59.5 L41,59.5 Z" id="Rectangle-1" fill="#D83132" sketch:type="MSShapeGroup"></path>
            <path d="M249.828901,140.185 L266.395224,140.185 L280.594312,137.493761 L283.310817,140.185 L306.730397,140.185 L308.289776,127.957454 L337.704986,112.796149 L307.778581,98.6706159 L302.449099,66.0099814 L279.767174,90.1066618 L247.058164,85.0826101 L262.96637,114.100692 L249.828901,140.185 Z" id="Rectangle-1" fill="#FFFFFF" sketch:type="MSShapeGroup"></path>
            <rect id="Rectangle-66" fill="#D83132" sketch:type="MSShapeGroup" x="40" y="189" width="220" height="60.5"></rect>
            <rect id="Rectangle-4" fill="#D83132" sketch:type="MSShapeGroup" x="40" y="160" width="160" height="7"></rect>
            <rect id="Rectangle-4" fill="#D83132" sketch:type="MSShapeGroup" x="40" y="172" width="220" height="7"></rect>
            <rect id="Rectangle-66" fill="#D83132" sketch:type="MSShapeGroup" x="280" y="160" width="80" height="89.5"></rect>
            <path d="M304.288926,249.72625 L314.533889,249.72625 L323.314904,248.061931 L324.994847,249.72625 L339.478009,249.72625 L340.442361,242.164478 L358.633346,232.788408 L340.126227,224.052881 L336.830364,203.854857 L322.803384,218.756751 L302.575444,215.649772 L312.413413,233.595165 L304.288926,249.72625 Z" id="Rectangle-1" fill="#F8F8F8" sketch:type="MSShapeGroup"></path>
            <path d="M186.288926,249.72625 L196.533889,249.72625 L205.314904,248.061931 L206.994847,249.72625 L221.478009,249.72625 L222.442361,242.164478 L240.633346,232.788408 L222.126227,224.052881 L218.830364,203.854857 L204.803384,218.756751 L184.575444,215.649772 L194.413413,233.595165 L186.288926,249.72625 Z" id="Rectangle-1" fill="#F8F8F8" sketch:type="MSShapeGroup"></path>
        </g>
    </g>
</svg>