<?xml version="1.0" encoding="UTF-8" standalone="no"?>
<svg width="400px" height="250px" viewBox="0 0 400 250" version="1.1" xmlns="http://www.w3.org/2000/svg" xmlns:xlink="http://www.w3.org/1999/xlink" xmlns:sketch="http://www.bohemiancoding.com/sketch/ns">
    <title>Untitled</title>
    <description>Created with Sketch (http://www.bohemiancoding.com/sketch)</description>
    <defs></defs>
    <g id="Page-1" stroke="none" stroke-width="1" fill="none" fill-rule="evenodd" sketch:type="MSPage">
        <g id="Group" sketch:type="MSLayerGroup">
            <rect id="Rectangle-1" fill="#4A4A4A" sketch:type="MSShapeGroup" x="0" y="0" width="400" height="250"></rect>
            <g id="Oval-4-+-Oval-5" transform="translate(98.492611, 37.000000)" fill="#616161" sketch:type="MSShapeGroup">
                <path d="M101.253695,91.2857143 C126.46155,91.2857143 146.896552,70.8507123 146.896552,45.6428571 C146.896552,20.435002 126.46155,0 101.253695,0 C76.0458394,0 55.6108374,20.435002 55.6108374,45.6428571 C55.6108374,70.8507123 76.0458394,91.2857143 101.253695,91.2857143 Z" id="Oval-4"></path>
                <path d="M202.1959,212.475369 C202.1959,145.544168 156.932809,91.2857143 101.09795,91.2857143 C45.2630912,91.2857143 0,145.544168 0,212.475369" id="Oval-5"></path>
            </g>
            <rect id="Rectangle-3" fill="#9B9B9B" sketch:type="MSShapeGroup" x="20" y="20" width="40" height="40"></rect>
            <rect id="Rectangle-4" fill="#9B9B9B" sketch:type="MSShapeGroup" x="81" y="29.76" width="279" height="20.0361"></rect>
            <g id="Rectangle-4-+-Rectangle-4-+-Oval-2" transform="translate(0.000000, 223.000000)" sketch:type="MSShapeGroup">
                <rect id="Rectangle-4" fill="#9B9B9B" x="0" y="4" width="400" height="7"></rect>
                <rect id="Rectangle-4" fill="#D83132" x="0" y="4" width="120" height="7"></rect>
                <circle id="Oval-2" stroke="#979797" stroke-width="3" fill="#FFFFFF" cx="120.5" cy="7.5" r="7.5"></circle>
            </g>
            <rect id="Rectangle-54" stroke="#979797" fill="#9B9B9B" sketch:type="MSShapeGroup" x="300" y="185" width="100" height="30"></rect>
            <g id="Line-+-Line" transform="translate(376.000000, 197.000000)" stroke="#FFFFFF" stroke-width="2" stroke-linecap="round" sketch:type="MSShapeGroup">
                <path d="M-0.357142857,-0.357142857 L4.69361986,4.69361986 L-0.27225983,9.65949956" id="Line"></path>
                <path d="M4.64285714,-0.357142857 L9.69361986,4.69361986 L4.72774017,9.65949956" id="Line"></path>
            </g>
            <path d="M315.03,206.49 L313.952,206.49 C313.970667,206.293999 313.987,206.116667 314.001,205.958 C314.015,205.799333 314.026667,205.640667 314.036,205.482 C314.045333,205.323333 314.052333,205.162334 314.057,204.999 C314.061667,204.835666 314.064,204.656001 314.064,204.46 L314.064,197.642 C314.064,197.305998 314.054667,197.014335 314.036,196.767 C314.017333,196.519665 313.994,196.307334 313.966,196.13 C314.227335,196.176667 314.558665,196.211667 314.96,196.235 C315.361335,196.258333 315.855997,196.27 316.444,196.27 C317.032003,196.27 317.524331,196.256 317.921,196.228 C318.317669,196.2 318.646665,196.167334 318.908,196.13 C318.88,196.298001 318.859,196.510332 318.845,196.767 C318.831,197.023668 318.824,197.315332 318.824,197.642 L318.824,203.676 C318.824,203.993335 318.828667,204.312998 318.838,204.635 C318.847333,204.957002 318.875333,205.313998 318.922,205.706 L317.83,205.706 L317.83,204.558 L315.03,204.558 L315.03,206.49 Z M317.83,200.862 L316.864,200.862 L316.864,203.69 L317.83,203.69 L317.83,200.862 Z M315.03,203.69 L316.052,203.69 L316.052,200.862 L315.03,200.862 L315.03,203.69 Z M315.03,197.166 L315.03,200.022 L316.052,200.022 L316.052,197.166 L315.03,197.166 Z M317.83,197.166 L316.864,197.166 L316.864,200.022 L317.83,200.022 L317.83,197.166 Z M325.222,196.382 C324.979332,197.12867 324.680668,197.816997 324.326,198.447 C323.971332,199.077003 323.565336,199.629998 323.108,200.106 C323.901337,200.675336 324.876661,201.011333 326.034,201.114 C325.847332,201.356668 325.705,201.578332 325.607,201.779 C325.509,201.979668 325.436667,202.182666 325.39,202.388 C325.287333,202.350666 325.187,202.315667 325.089,202.283 C324.991,202.250333 324.890667,202.215334 324.788,202.178 C324.76,202.308667 324.736667,202.469666 324.718,202.661 C324.699333,202.852334 324.69,203.059999 324.69,203.284 L324.69,205.594 C324.69,205.911335 324.697,206.221665 324.711,206.525 C324.725,206.828335 324.750666,207.129332 324.788,207.428 L323.612,207.428 L323.612,206.35 L321.05,206.35 L321.05,207.47 L319.944,207.47 C319.990667,207.124665 320.021,206.816668 320.035,206.546 C320.049,206.275332 320.056,205.990668 320.056,205.692 L320.056,203.284 C320.056,202.891998 320.028,202.556001 319.972,202.276 L319.762,202.381 C319.696666,202.413667 319.631334,202.448666 319.566,202.486 C319.500666,202.355333 319.421334,202.210667 319.328,202.052 C319.234666,201.893333 319.132001,201.739334 319.02,201.59 C319.468002,201.412666 319.913664,201.195668 320.357,200.939 C320.800336,200.682332 321.217998,200.404668 321.61,200.106 C321.143331,199.564664 320.793335,198.906671 320.56,198.132 C320.438666,198.365334 320.322001,198.572999 320.21,198.755 C320.097999,198.937001 319.976667,199.135332 319.846,199.35 C319.715333,199.228666 319.582334,199.130667 319.447,199.056 C319.311666,198.981333 319.150668,198.906667 318.964,198.832 C319.178668,198.579999 319.374666,198.318668 319.552,198.048 C319.729334,197.777332 319.894999,197.481002 320.049,197.159 C320.203001,196.836998 320.349999,196.482335 320.49,196.095 C320.630001,195.707665 320.765333,195.266669 320.896,194.772 C321.092001,194.874667 321.306666,194.968 321.54,195.052 C321.773334,195.136 321.955333,195.192 322.086,195.22 C322.198001,195.238667 322.258667,195.271333 322.268,195.318 C322.277333,195.364667 322.216667,195.425333 322.086,195.5 C321.992666,195.556 321.892334,195.653999 321.785,195.794 C321.677666,195.934001 321.558667,196.129999 321.428,196.382 L325.222,196.382 Z M323.612,203.172 L321.05,203.172 L321.05,205.454 L323.612,205.454 L323.612,203.172 Z M322.31,200.82 C321.955332,201.100001 321.591335,201.356665 321.218,201.59 C320.844665,201.823334 320.494668,202.019333 320.168,202.178 C320.270667,202.187333 320.382666,202.196667 320.504,202.206 C320.625334,202.215333 320.769999,202.224667 320.938,202.234 C321.106001,202.243333 321.304332,202.250333 321.533,202.255 C321.761668,202.259667 322.029998,202.262 322.338,202.262 C323.010003,202.262 323.527998,202.252667 323.892,202.234 C324.256002,202.215333 324.531332,202.192 324.718,202.164 C324.241998,201.977332 323.805669,201.776668 323.409,201.562 C323.012331,201.347332 322.646002,201.100001 322.31,200.82 Z M322.366,199.476 C322.627335,199.205332 322.879332,198.885669 323.122,198.517 C323.364668,198.148331 323.593332,197.726002 323.808,197.25 L321.134,197.25 C321.395335,198.127338 321.805997,198.86933 322.366,199.476 Z M332.656,197.166 C332.656,196.745998 332.651333,196.358668 332.642,196.004 C332.632667,195.649332 332.618667,195.397334 332.6,195.248 C332.768001,195.266667 332.945332,195.283 333.132,195.297 C333.318668,195.311 333.528665,195.320333 333.762,195.325 C333.995335,195.329667 334.263665,195.334333 334.567,195.339 C334.870335,195.343667 335.231998,195.346 335.652,195.346 C336.072002,195.346 336.438332,195.343667 336.751,195.339 C337.063668,195.334333 337.338999,195.329667 337.577,195.325 C337.815001,195.320333 338.022666,195.311 338.2,195.297 C338.377334,195.283 338.540666,195.266667 338.69,195.248 C338.671333,195.462668 338.657333,195.730998 338.648,196.053 C338.638667,196.375002 338.634,196.745998 338.634,197.166 L338.634,199.784 C338.774001,199.784 338.918666,199.781667 339.068,199.777 C339.217334,199.772333 339.347999,199.760667 339.46,199.742 C339.432,199.994001 339.418,200.418664 339.418,201.016 L339.418,204.418 C339.418,204.679335 339.397,204.891666 339.355,205.055 C339.313,205.218334 339.226667,205.353666 339.096,205.461 C338.965333,205.568334 338.778668,205.654666 338.536,205.72 C338.293332,205.785334 337.966669,205.846 337.556,205.902 C337.556,205.668666 337.523334,205.458668 337.458,205.272 C337.392666,205.085332 337.266668,204.912667 337.08,204.754 C337.360001,204.782 337.581666,204.793667 337.745,204.789 C337.908334,204.784333 338.036666,204.761 338.13,204.719 C338.223334,204.677 338.284,204.616334 338.312,204.537 C338.34,204.457666 338.354,204.357334 338.354,204.236 L338.354,200.666 L332.908,200.666 L332.908,205.454 L331.732,205.454 C331.778667,205.127332 331.816,204.821668 331.844,204.537 C331.872,204.252332 331.886,203.918669 331.886,203.536 L331.886,201.03 L331.886,200.561 C331.886,200.434999 331.881333,200.325334 331.872,200.232 C331.862667,200.138666 331.853333,200.054667 331.844,199.98 C331.834667,199.905333 331.825333,199.826 331.816,199.742 C331.918667,199.760667 332.044666,199.772333 332.194,199.777 C332.343334,199.781667 332.497333,199.784 332.656,199.784 L332.656,197.166 Z M337.654,198.468 L335.918,198.468 L335.918,199.784 L337.654,199.784 L337.654,198.468 Z M337.64,196.27 L333.678,196.27 L333.678,199.784 L334.896,199.784 L334.896,198.482 C334.896,198.332666 334.889,198.162334 334.875,197.971 C334.861,197.779666 334.84,197.604667 334.812,197.446 C335.008001,197.492667 335.208666,197.525333 335.414,197.544 C335.619334,197.562667 335.871332,197.572 336.17,197.572 L337.64,197.572 L337.64,196.27 Z M337.318,201.562 C337.308667,201.646 337.301667,201.732333 337.297,201.821 C337.292333,201.909667 337.287667,202.009999 337.283,202.122 C337.278333,202.234001 337.276,202.366999 337.276,202.521 L337.276,203.074 L337.276,204.558 L335.54,204.558 L334.532,204.558 C334.251999,204.558 334.009334,204.562667 333.804,204.572 C333.813333,204.385332 333.818,204.180001 333.818,203.956 L333.818,203.074 L333.818,202.514 L333.818,202.122 C333.818,202.009999 333.815667,201.912 333.811,201.828 C333.806333,201.744 333.804,201.655334 333.804,201.562 C333.906667,201.571333 334.013999,201.580667 334.126,201.59 C334.238001,201.599333 334.359333,201.606333 334.49,201.611 C334.620667,201.615667 334.772332,201.618 334.945,201.618 L335.54,201.618 L336.156,201.618 C336.333334,201.618 336.489666,201.615667 336.625,201.611 C336.760334,201.606333 336.883999,201.599333 336.996,201.59 C337.108001,201.580667 337.215333,201.571333 337.318,201.562 Z M336.366,202.402 L334.714,202.402 L334.714,203.746 L336.366,203.746 L336.366,202.402 Z M329.646,197.95 C329.459332,197.529998 329.256334,197.128669 329.037,196.746 C328.817666,196.363331 328.624001,196.064668 328.456,195.85 L329.38,195.304 C329.594668,195.602668 329.806999,195.919998 330.017,196.256 C330.227001,196.592002 330.443999,196.955998 330.668,197.348 L329.646,197.95 Z M330.486,204.852 C330.756668,205.038668 331.034332,205.208999 331.319,205.363 C331.603668,205.517001 331.930331,205.647666 332.299,205.755 C332.667669,205.862334 333.085331,205.946333 333.552,206.007 C334.018669,206.067667 334.571663,206.105 335.211,206.119 C335.850337,206.133 336.582996,206.123667 337.409,206.091 C338.235004,206.058333 339.189328,205.995334 340.272,205.902 C340.159999,206.116668 340.071334,206.314999 340.006,206.497 C339.940666,206.679001 339.894,206.909999 339.866,207.19 C338.755328,207.218 337.777671,207.229667 336.933,207.225 C336.088329,207.220333 335.344003,207.199334 334.7,207.162 C334.055997,207.124666 333.500669,207.066334 333.034,206.987 C332.567331,206.907666 332.154335,206.809667 331.795,206.693 C331.435665,206.576333 331.118335,206.434001 330.843,206.266 C330.567665,206.097999 330.299335,205.906668 330.038,205.692 C329.860666,205.981335 329.662334,206.256665 329.443,206.518 C329.223666,206.779335 328.974001,207.045332 328.694,207.316 C328.572666,207.138666 328.428001,206.984667 328.26,206.854 C328.091999,206.723333 327.910001,206.606667 327.714,206.504 C328.087335,206.223999 328.409332,205.955668 328.68,205.699 C328.950668,205.442332 329.179332,205.174001 329.366,204.894 C329.552668,204.613999 329.706666,204.310668 329.828,203.984 C329.949334,203.657332 330.052,203.284002 330.136,202.864 L329.73,202.864 C329.533999,202.864 329.340334,202.880333 329.149,202.913 C328.957666,202.945667 328.768668,203.013333 328.582,203.116 C328.544666,202.817332 328.505,202.584001 328.463,202.416 C328.421,202.247999 328.348667,202.080001 328.246,201.912 C328.432668,201.865333 328.588999,201.793 328.715,201.695 C328.841001,201.597 328.959999,201.450001 329.072,201.254 L329.716,199.798 L328.918,199.798 C328.777999,199.798 328.605334,199.807333 328.4,199.826 C328.194666,199.844667 328.026667,199.868 327.896,199.896 L327.896,198.776 C328.120001,198.794667 328.390665,198.808667 328.708,198.818 C329.025335,198.827333 329.314665,198.832 329.576,198.832 C329.809334,198.832 330.012332,198.829667 330.185,198.825 C330.357668,198.820333 330.506999,198.815667 330.633,198.811 C330.759001,198.806333 330.868666,198.799333 330.962,198.79 C331.055334,198.780667 331.148666,198.766667 331.242,198.748 L329.716,201.996 L330.43,201.996 C330.560667,201.996 330.709999,201.991333 330.878,201.982 C331.046001,201.972667 331.195333,201.958667 331.326,201.94 C331.195333,202.57467 331.062334,203.125331 330.927,203.592 C330.791666,204.058669 330.644667,204.478665 330.486,204.852 Z M348.966,194.632 C349.022,194.846668 349.087333,195.061332 349.162,195.276 C349.236667,195.490668 349.325333,195.700666 349.428,195.906 C350.762673,195.906 351.807996,195.896667 352.564,195.878 C353.320004,195.859333 353.809999,195.836 354.034,195.808 L354.034,196.788 C353.819332,196.76 353.478669,196.736667 353.012,196.718 C352.545331,196.699333 351.99467,196.69 351.36,196.69 L351.36,197.474 C351.724002,197.474 352.071665,197.467 352.403,197.453 C352.734335,197.439 353.072665,197.418 353.418,197.39 L353.418,198.356 C353.072665,198.328 352.736668,198.307 352.41,198.293 C352.083332,198.279 351.733335,198.272 351.36,198.272 C351.36,198.626668 351.364667,198.918332 351.374,199.147 C351.383333,199.375668 351.397333,199.583332 351.416,199.77 C351.229332,199.751333 350.926002,199.732667 350.506,199.714 C350.085998,199.695333 349.619336,199.686 349.106,199.686 L348.203,199.686 C347.946332,199.686 347.715334,199.690667 347.51,199.7 C347.304666,199.709333 347.118001,199.718667 346.95,199.728 C346.781999,199.737333 346.623334,199.751333 346.474,199.77 C346.53,199.396665 346.558,198.897336 346.558,198.272 C345.89533,198.272 345.237337,198.3 344.584,198.356 L344.584,197.39 C344.910668,197.418 345.232665,197.439 345.55,197.453 C345.867335,197.467 346.203332,197.474 346.558,197.474 L346.558,196.69 L344.136,196.69 C344.164,198.034007 344.178,199.172662 344.178,200.106 L350.534,200.106 C351.364671,200.106 352.09733,200.096667 352.732,200.078 C353.36667,200.059333 353.833332,200.026667 354.132,199.98 L354.132,201.016 C353.823998,200.969333 353.350337,200.932 352.711,200.904 C352.071663,200.876 351.336671,200.862 350.506,200.862 L349.652,200.862 L349.652,201.478 C350.053335,201.478 350.417332,201.475667 350.744,201.471 C351.070668,201.466333 351.371665,201.461667 351.647,201.457 C351.922335,201.452333 352.178999,201.445333 352.417,201.436 C352.655001,201.426667 352.885999,201.412667 353.11,201.394 C353.091333,201.664668 353.079667,201.951665 353.075,202.255 C353.070333,202.558335 353.068,202.910665 353.068,203.312 C353.068,203.722669 353.070333,204.109998 353.075,204.474 C353.079667,204.838002 353.091333,205.155332 353.11,205.426 C352.773998,205.407333 352.412335,205.391 352.025,205.377 C351.637665,205.363 351.178003,205.356 350.646,205.356 C350.944668,205.430667 351.266665,205.523999 351.612,205.636 C351.957335,205.748001 352.288665,205.862333 352.606,205.979 C352.923335,206.095667 353.207999,206.209999 353.46,206.322 C353.712001,206.434001 353.903333,206.527333 354.034,206.602 L353.348,207.386 C352.955998,207.124665 352.461336,206.875001 351.864,206.637 C351.266664,206.398999 350.62267,206.200667 349.932,206.042 L350.534,205.356 L347.678,205.356 C347.808667,205.458667 347.934666,205.554333 348.056,205.643 C348.177334,205.731667 348.275333,205.794666 348.35,205.832 C348.471334,205.888 348.522667,205.939333 348.504,205.986 C348.485333,206.032667 348.424667,206.051333 348.322,206.042 C348.275333,206.032667 348.172667,206.056 348.014,206.112 C347.855333,206.168 347.696667,206.238 347.538,206.322 C347.323332,206.434001 347.120334,206.536666 346.929,206.63 C346.737666,206.723334 346.539334,206.814333 346.334,206.903 C346.128666,206.991667 345.909334,207.082666 345.676,207.176 C345.442665,207.269334 345.172002,207.371999 344.864,207.484 C344.798666,207.315999 344.717,207.169001 344.619,207.043 C344.521,206.916999 344.388001,206.788667 344.22,206.658 C344.864003,206.499333 345.442664,206.305668 345.956,206.077 C346.469336,205.848332 346.903332,205.608001 347.258,205.356 C346.837998,205.356 346.460002,205.360667 346.124,205.37 C345.787998,205.379333 345.475335,205.393333 345.186,205.412 C345.204667,205.141332 345.221,204.821669 345.235,204.453 C345.249,204.084331 345.256,203.704002 345.256,203.312 C345.256,202.919998 345.249,202.567668 345.235,202.255 C345.221,201.942332 345.204667,201.655335 345.186,201.394 C345.419334,201.412667 345.654999,201.426667 345.893,201.436 C346.131001,201.445333 346.389999,201.452333 346.67,201.457 C346.950001,201.461667 347.253332,201.466333 347.58,201.471 C347.906668,201.475667 348.275331,201.478 348.686,201.478 L348.686,200.862 L344.164,200.862 C344.154667,201.655337 344.124334,202.336664 344.073,202.906 C344.021666,203.475336 343.944667,203.988664 343.842,204.446 C343.739333,204.903336 343.611001,205.332665 343.457,205.734 C343.302999,206.135335 343.114001,206.559998 342.89,207.008 C342.731333,206.849333 342.577334,206.716334 342.428,206.609 C342.278666,206.501666 342.092001,206.382667 341.868,206.252 C342.166668,205.831998 342.409332,205.339669 342.596,204.775 C342.782668,204.210331 342.931999,203.489338 343.044,202.612 C343.081334,202.350665 343.107,201.996002 343.121,201.548 C343.135,201.099998 343.142,200.57967 343.142,199.987 C343.142,199.39433 343.132667,198.74567 343.114,198.041 C343.095333,197.33633 343.067334,196.592004 343.03,195.808 C343.272668,195.836 343.816329,195.859333 344.661,195.878 C345.505671,195.896667 346.669993,195.906 348.154,195.906 C348.088666,195.728666 348.023334,195.560667 347.958,195.402 C347.892666,195.243333 347.808667,195.084667 347.706,194.926 L348.966,194.632 Z M348.686,203.76 L346.236,203.76 L346.236,204.53 L348.686,204.53 L348.686,203.76 Z M349.652,204.53 L352.06,204.53 L352.06,203.76 L349.652,203.76 L349.652,204.53 Z M348.686,202.262 L346.236,202.262 L346.236,203.018 L348.686,203.018 L348.686,202.262 Z M349.652,203.018 L352.06,203.018 L352.06,202.262 L349.652,202.262 L349.652,203.018 Z M347.524,198.272 L347.524,198.944 L350.38,198.944 L350.38,198.272 L347.524,198.272 Z M350.38,197.474 L350.38,196.69 L347.524,196.69 L347.524,197.474 L350.38,197.474 Z M359.256,207.47 L357.954,207.47 C357.991334,207.227332 358.017,206.991668 358.031,206.763 C358.045,206.534332 358.052,206.270668 358.052,205.972 L358.052,203.284 C358.052,203.069332 358.047333,202.847668 358.038,202.619 C358.028667,202.390332 358.01,202.196667 357.982,202.038 C358.159334,202.066 358.345999,202.089333 358.542,202.108 C358.738001,202.126667 358.985332,202.143 359.284,202.157 C359.582668,202.171 359.953664,202.182667 360.397,202.192 C360.840336,202.201333 361.397997,202.206 362.07,202.206 C362.742003,202.206 363.304331,202.201333 363.757,202.192 C364.209669,202.182667 364.587665,202.171 364.891,202.157 C365.194335,202.143 365.443999,202.126667 365.64,202.108 C365.836001,202.089333 366.013333,202.066 366.172,202.038 C366.144,202.187334 366.125333,202.371666 366.116,202.591 C366.106667,202.810334 366.102,203.041332 366.102,203.284 L366.102,205.832 C366.102,206.102668 366.109,206.359332 366.123,206.602 C366.137,206.844668 366.158,207.115332 366.186,207.414 L364.884,207.414 L364.884,206.28 L359.256,206.28 L359.256,207.47 Z M364.884,203.102 L359.256,203.102 L359.256,205.286 L364.884,205.286 L364.884,203.102 Z M361.636,196.424 C361.636,196.106665 361.633667,195.850001 361.629,195.654 C361.624333,195.457999 361.619667,195.297001 361.615,195.171 C361.610333,195.044999 361.601,194.944667 361.587,194.87 C361.573,194.795333 361.556667,194.73 361.538,194.674 C361.846002,194.720667 362.142332,194.751 362.427,194.765 C362.711668,194.779 362.965999,194.776667 363.19,194.758 C363.274,194.748667 363.320667,194.765 363.33,194.807 C363.339333,194.849 363.302,194.893333 363.218,194.94 C363.087333,195.014667 362.989334,195.128999 362.924,195.283 C362.858666,195.437001 362.826,195.579333 362.826,195.71 L362.826,196.984 C363.712671,196.974667 364.48033,196.963 365.129,196.949 C365.77767,196.935 366.335331,196.909334 366.802,196.872 L366.802,198.02 C366.325998,197.992 365.766003,197.968667 365.122,197.95 C364.477997,197.931333 363.712671,197.917333 362.826,197.908 L362.826,199.896 C364.002006,199.886667 365.019329,199.872667 365.878,199.854 C366.736671,199.835333 367.501997,199.802667 368.174,199.756 L368.174,200.946 C367.42733,200.899333 366.561672,200.866667 365.577,200.848 C364.592328,200.829333 363.400007,200.82 362,200.82 C360.599993,200.82 359.407672,200.829333 358.423,200.848 C357.438328,200.866667 356.57267,200.899333 355.826,200.946 L355.826,199.756 C356.190002,199.784 356.574998,199.805 356.981,199.819 C357.387002,199.833 357.825664,199.847 358.297,199.861 C358.768336,199.875 359.279331,199.884333 359.83,199.889 C360.380669,199.893667 360.982663,199.896 361.636,199.896 L361.636,197.908 L358.752,197.908 C358.658666,198.094668 358.558334,198.285999 358.451,198.482 C358.343666,198.678001 358.234001,198.869332 358.122,199.056 C357.935332,198.972 357.727668,198.897334 357.499,198.832 C357.270332,198.766666 357.053334,198.724667 356.848,198.706 C357.118668,198.435332 357.361332,198.129668 357.576,197.789 C357.790668,197.448332 357.944666,197.152001 358.038,196.9 C358.280668,196.218663 358.457999,195.607336 358.57,195.066 C358.654,195.103334 358.756666,195.143 358.878,195.185 C358.999334,195.227 359.122999,195.264333 359.249,195.297 C359.375001,195.329667 359.493999,195.355333 359.606,195.374 C359.718001,195.392667 359.811333,195.402 359.886,195.402 C359.960667,195.402 360.007333,195.420666 360.026,195.458 C360.044667,195.495334 360.021334,195.537333 359.956,195.584 C359.872,195.658667 359.750667,195.835999 359.592,196.116 C359.433333,196.396001 359.288667,196.685332 359.158,196.984 L361.636,196.984 L361.636,196.424 Z" id="略過廣告" fill="#FFFFFF" sketch:type="MSShapeGroup"></path>
        </g>
    </g>
</svg>