<?xml version="1.0" encoding="UTF-8" standalone="no"?>
<svg width="400px" height="250px" viewBox="0 0 400 250" version="1.1" xmlns="http://www.w3.org/2000/svg" xmlns:xlink="http://www.w3.org/1999/xlink" xmlns:sketch="http://www.bohemiancoding.com/sketch/ns">
    <title>Untitled</title>
    <description>Created with Sketch (http://www.bohemiancoding.com/sketch)</description>
    <defs></defs>
    <g id="Page-1" stroke="none" stroke-width="1" fill="none" fill-rule="evenodd" sketch:type="MSPage">
        <g id="Group" sketch:type="MSLayerGroup">
            <rect id="Rectangle-1" fill="#F9F9F9" sketch:type="MSShapeGroup" x="0" y="0" width="400" height="250"></rect>
            <rect id="Rectangle-1" fill="#D83132" sketch:type="MSShapeGroup" x="41" y="20" width="60" height="21"></rect>
            <rect id="Rectangle-1" fill="#D4D4D4" sketch:type="MSShapeGroup" x="121" y="20" width="240" height="21" rx="3"></rect>
            <g id="Oval-1-+-Line" transform="translate(343.000000, 24.000000)" stroke="#979797" stroke-width="2" sketch:type="MSShapeGroup">
                <path d="M4,8 C6.20913911,8 8,6.20913911 8,4 C8,1.79086089 6.20913911,0 4,0 C1.79086089,0 0,1.79086089 0,4 C0,6.20913911 1.79086089,8 4,8 Z" id="Oval-1"></path>
                <path d="M7.5,7.5 L12.0276928,12.0276928" id="Line" stroke-linecap="round"></path>
            </g>
            <path d="M41,59.5 L41,140.185 L201,140.185 L361,140.185 L361,59.5 L41,59.5 Z" id="Rectangle-1" fill="#D83132" sketch:type="MSShapeGroup"></path>
            <g transform="translate(40.000000, 160.000000)" sketch:type="MSShapeGroup">
                <rect id="Rectangle-66" fill="#D4D4D4" x="0" y="48.5" width="80" height="41"></rect>
                <rect id="Rectangle-66" fill="#D4D4D4" x="100" y="0" width="120" height="89.5"></rect>
                <rect id="Rectangle-4" fill="#B8B8B8" x="0" y="0" width="45" height="7"></rect>
                <rect id="Rectangle-4" fill="#B8B8B8" x="0" y="12" width="80" height="7"></rect>
                <rect id="Rectangle-4" fill="#B8B8B8" x="0" y="24" width="60" height="7"></rect>
                <rect id="Rectangle-4" fill="#B8B8B8" x="0" y="36" width="70" height="7"></rect>
            </g>
            <g transform="translate(280.000000, 160.000000)" sketch:type="MSShapeGroup">
                <rect id="Rectangle-66" fill="#D4D4D4" x="0" y="48.5" width="80" height="41"></rect>
                <rect id="Rectangle-4" fill="#B8B8B8" x="0" y="0" width="45" height="7"></rect>
                <rect id="Rectangle-4" fill="#B8B8B8" x="0" y="12" width="80" height="7"></rect>
                <rect id="Rectangle-4" fill="#B8B8B8" x="0" y="24" width="60" height="7"></rect>
                <rect id="Rectangle-4" fill="#B8B8B8" x="0" y="36" width="70" height="7"></rect>
            </g>
            <polygon id="Star-1" fill="#FFFFFF" sketch:type="MSShapeGroup" points="199.999999 119.818015 181.262186 129.669069 184.840789 108.804203 169.681577 94.0276244 190.631095 90.9834788 200 72 209.368911 90.9834835 230.318428 94.0276396 215.15921 108.804207 218.737814 129.669069 "></polygon>
        </g>
    </g>
</svg>