<?xml version="1.0" encoding="UTF-8" standalone="no"?>
<svg width="400px" height="250px" viewBox="0 0 400 250" version="1.1" xmlns="http://www.w3.org/2000/svg" xmlns:xlink="http://www.w3.org/1999/xlink" xmlns:sketch="http://www.bohemiancoding.com/sketch/ns">
    <title>Untitled</title>
    <description>Created with Sketch (http://www.bohemiancoding.com/sketch)</description>
    <defs></defs>
    <g id="Page-1" stroke="none" stroke-width="1" fill="none" fill-rule="evenodd" sketch:type="MSPage">
        <g id="Group" sketch:type="MSLayerGroup">
            <rect id="Rectangle-1" fill="#4A4A4A" sketch:type="MSShapeGroup" x="0" y="0" width="400" height="250"></rect>
            <g id="Oval-4-+-Oval-5" transform="translate(99.000000, 37.000000)" fill="#616161" sketch:type="MSShapeGroup">
                <path d="M101.253695,91.2857143 C126.46155,91.2857143 146.896552,70.8507123 146.896552,45.6428571 C146.896552,20.435002 126.46155,0 101.253695,0 C76.0458394,0 55.6108374,20.435002 55.6108374,45.6428571 C55.6108374,70.8507123 76.0458394,91.2857143 101.253695,91.2857143 Z" id="Oval-4"></path>
                <path d="M202.1959,212.475369 C202.1959,145.544168 156.932809,91.2857143 101.09795,91.2857143 C45.2630912,91.2857143 0,145.544168 0,212.475369" id="Oval-5"></path>
            </g>
            <g id="Rectangle-4-+-Rectangle-4-+-Oval-2" transform="translate(0.000000, 223.000000)" sketch:type="MSShapeGroup">
                <rect id="Rectangle-4" fill="#9B9B9B" x="0" y="4" width="400" height="7"></rect>
                <rect id="Rectangle-4" fill="#D83132" x="0" y="4" width="120" height="7"></rect>
                <circle id="Oval-2" stroke="#979797" stroke-width="3" fill="#FFFFFF" cx="120.5" cy="7.5" r="7.5"></circle>
            </g>
            <rect id="Rectangle-54" stroke="#979797" fill="#9B9B9B" sketch:type="MSShapeGroup" x="70" y="160" width="280" height="50"></rect>
            <path d="M150,168 L150,175 L290,175 L290,168 L150,168 Z M150,181 L150,188 L330,188 L330,181 L150,181 Z M150,194 L150,201 L250,201 L250,194 L150,194 Z M90,168 L90,201 L140,201 L140,168 L90,168 Z" id="Rectangle-4" fill="#D4D4D4" sketch:type="MSShapeGroup"></path>
            <rect id="Rectangle-63" fill="#D83132" sketch:type="MSShapeGroup" x="50" y="160" width="10" height="10"></rect>
            <rect id="Rectangle-63" fill="#9B9B9B" sketch:type="MSShapeGroup" x="50" y="180" width="10" height="10"></rect>
            <rect id="Rectangle-63" fill="#9B9B9B" sketch:type="MSShapeGroup" x="50" y="200" width="10" height="10"></rect>
        </g>
    </g>
</svg>