<?xml version="1.0" encoding="UTF-8" standalone="no"?>
<svg width="400px" height="250px" viewBox="0 0 400 250" version="1.1" xmlns="http://www.w3.org/2000/svg" xmlns:xlink="http://www.w3.org/1999/xlink" xmlns:sketch="http://www.bohemiancoding.com/sketch/ns">
    <title>Untitled</title>
    <description>Created with Sketch (http://www.bohemiancoding.com/sketch)</description>
    <defs></defs>
    <g id="Page-1" stroke="none" stroke-width="1" fill="none" fill-rule="evenodd" sketch:type="MSPage">
        <g id="ytb-first-ad" sketch:type="MSLayerGroup">
            <g id="Page-1" sketch:type="MSShapeGroup">
                <g id="Group-+-Star-4-+-1-+-st">
                    <g id="Group">
                        <rect id="Rectangle-1" fill="#F9F9F9" x="0" y="0" width="400" height="250"></rect>
                        <rect id="Rectangle-1" opacity="0.5" fill="#D83132" x="41" y="20" width="60" height="21"></rect>
                        <rect id="Rectangle-1" opacity="0.5" fill="#D4D4D4" x="121" y="20" width="240" height="21" rx="3"></rect>
                        <g id="Oval-1-+-Line" transform="translate(343.000000, 24.000000)" stroke="#979797" stroke-width="2">
                            <path d="M4,8 C6.20913911,8 8,6.20913911 8,4 C8,1.79086089 6.20913911,0 4,0 C1.79086089,0 0,1.79086089 0,4 C0,6.20913911 1.79086089,8 4,8 L4,8 Z" id="Oval-1"></path>
                            <path d="M7.5,7.5 L12.0276928,12.0276928" id="Line"></path>
                        </g>
                        <path d="M41,59.5 L41,140.185 L201,140.185 L361,140.185 L361,59.5 L41,59.5 L41,59.5 Z" id="Rectangle-1" opacity="0.5" fill="#D4D4D4"></path>
                        <g transform="translate(40.000000, 160.000000)">
                            <rect id="Rectangle-66" fill="#D4D4D4" x="0" y="49" width="80" height="41"></rect>
                            <rect id="Rectangle-4" fill="#B8B8B8" x="0" y="0" width="45" height="7"></rect>
                            <rect id="Rectangle-4" fill="#B8B8B8" x="0" y="12" width="80" height="7"></rect>
                            <rect id="Rectangle-4" fill="#B8B8B8" x="0" y="24" width="60" height="7"></rect>
                            <rect id="Rectangle-4" fill="#B8B8B8" x="0" y="36" width="70" height="7"></rect>
                        </g>
                        <g transform="translate(280.000000, 160.000000)">
                            <rect id="Rectangle-66" fill="#D4D4D4" x="0" y="49" width="80" height="41"></rect>
                            <rect id="Rectangle-4" fill="#B8B8B8" x="0" y="0" width="45" height="7"></rect>
                            <rect id="Rectangle-4" fill="#B8B8B8" x="0" y="12" width="80" height="7"></rect>
                            <rect id="Rectangle-4" fill="#B8B8B8" x="0" y="24" width="60" height="7"></rect>
                            <rect id="Rectangle-4" fill="#B8B8B8" x="0" y="36" width="70" height="7"></rect>
                        </g>
                        <rect id="Rectangle-66" opacity="0.5" fill="#D4D4D4" x="140" y="160" width="120" height="89.5"></rect>
                    </g>
                    <g id="Star-4-+-1-+-st" transform="translate(94.000000, 23.000000)" fill="#D83132">
                        <path d="M106.499996,188.42705 L84.149488,212.650866 L73.5839995,181.430537 L43.3130904,194.469331 L46.3594847,161.650769 L13.4022716,161.250004 L29.5338032,132.507837 L-0.411103362,118.736814 L26.0162771,99.0408222 L4.26142373,74.2806755 L36.4151186,67.0364764 L26.6119304,35.5684607 L58.932289,42.0286306 L62.7758577,9.29384244 L89.6743397,28.3413966 L106.500001,0 L123.3257,28.341405 L150.224238,9.29388518 L154.067744,42.0286544 L186.388071,35.5684626 L176.584892,67.0364948 L208.738593,74.2807267 L186.983725,99.0408433 L213.411103,118.736816 L183.46619,132.507857 L199.597702,161.250051 L166.640501,161.650785 L169.686908,194.469332 L139.415972,181.430549 L128.850447,212.65088 L106.499996,188.42705 Z" id="Star-4"></path>
                    </g>
                </g>
            </g>
        </g>
        <path d="M200.003906,89.6367188 L200.003906,177 L175.863281,177 L175.863281,119.753906 C171.957012,122.722671 168.177753,125.124991 164.525391,126.960938 C160.873029,128.796884 156.292996,130.554679 150.785156,132.234375 L150.785156,112.664062 C158.910197,110.046862 165.218728,106.902362 169.710938,103.230469 C174.203147,99.5585754 177.718737,95.0273707 180.257812,89.6367188 L200.003906,89.6367188 Z" id="1" fill="#FFFFFF" sketch:type="MSShapeGroup"></path>
        <path d="M214.4,114.936 L206.816,114.936 C206.816,117.784014 207.607992,119.927993 209.192,121.368 C210.776008,122.808007 213.375982,123.528 216.992,123.528 C218.624008,123.528 220.087994,123.336002 221.384,122.952 C222.680006,122.567998 223.767996,121.992004 224.648,121.224 C225.528004,120.455996 226.207998,119.544005 226.688,118.488 C227.168002,117.431995 227.408,116.264006 227.408,114.984 C227.408,113.319992 227.096003,111.984005 226.472,110.976 C225.847997,109.967995 225.072005,109.168003 224.144,108.576 C223.215995,107.983997 222.216005,107.528002 221.144,107.208 C220.071995,106.887998 219.072005,106.584001 218.144,106.296 C217.215995,106.007999 216.440003,105.680002 215.816,105.312 C215.191997,104.943998 214.88,104.392004 214.88,103.656 C214.88,103.015997 215.087998,102.520002 215.504,102.168 C215.920002,101.815998 216.447997,101.64 217.088,101.64 C217.824004,101.64 218.391998,101.839998 218.792,102.24 C219.192002,102.640002 219.392,103.399994 219.392,104.52 L226.88,104.52 C226.88,99.0799728 223.632032,96.36 217.136,96.36 C215.375991,96.36 213.848006,96.5679979 212.552,96.984 C211.255994,97.4000021 210.184004,97.9759963 209.336,98.712 C208.487996,99.4480037 207.856002,100.303995 207.44,101.28 C207.023998,102.256005 206.816,103.319994 206.816,104.472 C206.816,106.104008 207.127997,107.423995 207.752,108.432 C208.376003,109.440005 209.151995,110.247997 210.08,110.856 C211.008005,111.464003 212.007995,111.943998 213.08,112.296 C214.152005,112.648002 215.151995,112.983998 216.08,113.304 C217.008005,113.624002 217.783997,113.991998 218.408,114.408 C219.032003,114.824002 219.344,115.415996 219.344,116.184 C219.344,116.888004 219.096002,117.431998 218.6,117.816 C218.103998,118.200002 217.520003,118.392 216.848,118.392 C216.047996,118.392 215.440002,118.088003 215.024,117.48 C214.799999,117.191999 214.64,116.824002 214.544,116.376 C214.448,115.927998 214.4,115.448003 214.4,114.936 Z M228.32,97.032 L228.32,102.84 L231.2,102.84 L231.2,116.664 C231.2,118.104007 231.335999,119.263996 231.608,120.144 C231.880001,121.024004 232.311997,121.687998 232.904,122.136 C233.496003,122.584002 234.255995,122.863999 235.184,122.976 C236.112005,123.088001 237.231993,123.144 238.544,123.144 C239.280004,123.144 240.047996,123.12 240.848,123.072 C241.648004,123.024 242.447996,123 243.248,123 L243.248,117.24 L241.904,117.24 C241.199996,117.24 240.680002,117.088002 240.344,116.784 C240.007998,116.479998 239.84,115.960004 239.84,115.224 L239.84,102.84 L243.248,102.84 L243.248,97.032 L239.84,97.032 L239.84,89.4 L231.2,89.4 L231.2,97.032 L228.32,97.032 Z" id="st" fill="#FFFFFF" sketch:type="MSShapeGroup"></path>
    </g>
</svg>