<?xml version="1.0" encoding="UTF-8" standalone="no"?>
<svg width="128px" height="128px" viewBox="0 0 128 128" version="1.1" xmlns="http://www.w3.org/2000/svg" xmlns:xlink="http://www.w3.org/1999/xlink" xmlns:sketch="http://www.bohemiancoding.com/sketch/ns">
    <title>Untitled</title>
    <description>Created with Sketch (http://www.bohemiancoding.com/sketch)</description>
    <defs></defs>
    <g id="Page-1" stroke="none" stroke-width="1" fill="none" fill-rule="evenodd" sketch:type="MSPage">
        <path d="M66.653909,41.5107527 L61.3612368,41.5107527 L61.3612368,41.5107527 L40.1913711,20.340887 C39.0701884,19.2197043 37.2523922,19.2197043 36.1312096,20.340887 C35.0100269,21.4620696 35.0100269,23.2798659 36.1312096,24.4010485 L53.2409138,41.5107527 L30.7141567,41.5107527 C27.9561977,41.5107527 25.7204301,43.7396048 25.7204301,46.5184378 L25.7204301,103.492315 C25.7204301,106.257983 27.9496407,108.5 30.7141567,108.5 L97.2858433,108.5 C100.043802,108.5 102.27957,106.271148 102.27957,103.492315 L102.27957,46.5184378 C102.27957,43.7527697 100.050359,41.5107527 97.2858433,41.5107527 L74.774232,41.5107527 L87.6923233,28.5926614 C88.8135059,27.4714788 88.8135059,25.6536825 87.6923233,24.5324999 C86.5711407,23.4113172 84.7533444,23.4113172 83.6321618,24.5324999 L66.653909,41.5107527 Z M37.0426633,48.5 C34.2759328,48.5 32.0330546,50.731989 32.0330546,53.4966023 L32.0330546,93.9335052 C32.0330546,96.6930525 34.274563,98.9301075 37.0426633,98.9301075 L90.5280257,98.9301075 C93.2947562,98.9301075 95.5376344,96.6981186 95.5376344,93.9335052 L95.5376344,53.4966023 C95.5376344,50.737055 93.296126,48.5 90.5280257,48.5 L37.0426633,48.5 Z" id="Rectangle-43" fill="#D64038" sketch:type="MSShapeGroup"></path>
    </g>
</svg>