<?xml version="1.0" encoding="UTF-8" standalone="no"?>
<svg width="400px" height="250px" viewBox="0 0 400 250" version="1.1" xmlns="http://www.w3.org/2000/svg" xmlns:xlink="http://www.w3.org/1999/xlink" xmlns:sketch="http://www.bohemiancoding.com/sketch/ns">
    <title>Untitled</title>
    <description>Created with Sketch (http://www.bohemiancoding.com/sketch)</description>
    <defs></defs>
    <g id="Page-1" stroke="none" stroke-width="1" fill="none" fill-rule="evenodd" sketch:type="MSPage">
        <g id="Group" sketch:type="MSLayerGroup">
            <rect id="Rectangle-1" fill="#F9F9F9" sketch:type="MSShapeGroup" x="0" y="0" width="400" height="250"></rect>
            <rect id="Rectangle-1" fill="#D83132" sketch:type="MSShapeGroup" x="41" y="20" width="60" height="21"></rect>
            <rect id="Rectangle-1" fill="#D4D4D4" sketch:type="MSShapeGroup" x="121" y="20" width="240" height="21" rx="3"></rect>
            <g id="Oval-1-+-Line" transform="translate(343.000000, 24.000000)" stroke="#979797" stroke-width="2" sketch:type="MSShapeGroup">
                <path d="M4,8 C6.20913911,8 8,6.20913911 8,4 C8,1.79086089 6.20913911,0 4,0 C1.79086089,0 0,1.79086089 0,4 C0,6.20913911 1.79086089,8 4,8 Z" id="Oval-1"></path>
                <path d="M7.5,7.5 L12.0276928,12.0276928" id="Line" stroke-linecap="round"></path>
            </g>
            <polygon id="Star-1" fill="#D83132" sketch:type="MSShapeGroup" points="133 35 128.297718 37.4721362 129.195774 32.2360681 125.391548 28.5278642 130.64886 27.7639315 133 23 135.351142 27.7639327 140.608453 28.527868 136.804226 32.2360691 137.702281 37.4721363 "></polygon>
            <path d="M41,59.5 L41,110.485 L201,110.485 L361,110.485 L361,59.5 L41,59.5 Z" id="Rectangle-1" fill="#D83132" sketch:type="MSShapeGroup"></path>
            <path d="M41,119.5 L41,170.485 L201,170.485 L361,170.485 L361,119.5 L41,119.5 Z" id="Rectangle-1" fill="#D4D4D4" sketch:type="MSShapeGroup"></path>
            <path d="M41,179 L41,229.985 L201,229.985 L361,229.985 L361,179 L41,179 Z" id="Rectangle-1" fill="#D4D4D4" sketch:type="MSShapeGroup"></path>
            <polygon id="Star-1" fill="#FFFFFF" sketch:type="MSShapeGroup" points="332 91.5 324.358792 95.5172214 325.818133 87.0086107 319.636265 80.9827794 328.179397 79.7413886 332 72 335.820606 79.7413906 344.363737 80.9827855 338.181867 87.0086123 339.641207 95.5172216 "></polygon>
            <rect id="Rectangle-66" fill="#4A4A4A" sketch:type="MSShapeGroup" x="48" y="65" width="72" height="41"></rect>
            <rect id="Rectangle-66" fill="#4A4A4A" sketch:type="MSShapeGroup" x="48" y="125" width="72" height="41"></rect>
            <rect id="Rectangle-66" fill="#4A4A4A" sketch:type="MSShapeGroup" x="48" y="184.5" width="72" height="41"></rect>
            <rect id="Rectangle-4" fill="#FFFFFF" sketch:type="MSShapeGroup" x="127" y="76" width="45" height="7"></rect>
            <rect id="Rectangle-4" fill="#FFFFFF" sketch:type="MSShapeGroup" x="127" y="88" width="173" height="7"></rect>
            <rect id="Rectangle-4" fill="#FFFFFF" sketch:type="MSShapeGroup" x="127" y="136" width="45" height="7"></rect>
            <rect id="Rectangle-4" fill="#FFFFFF" sketch:type="MSShapeGroup" x="127" y="148" width="173" height="7"></rect>
            <rect id="Rectangle-4" fill="#FFFFFF" sketch:type="MSShapeGroup" x="127" y="196" width="45" height="7"></rect>
            <rect id="Rectangle-4" fill="#FFFFFF" sketch:type="MSShapeGroup" x="127" y="208" width="173" height="7"></rect>
        </g>
    </g>
</svg>