<?xml version="1.0" encoding="UTF-8" standalone="no"?>
<svg width="128px" height="128px" viewBox="0 0 128 128" version="1.1" xmlns="http://www.w3.org/2000/svg" xmlns:xlink="http://www.w3.org/1999/xlink" xmlns:sketch="http://www.bohemiancoding.com/sketch/ns">
    <title>Untitled</title>
    <description>Created with Sketch (http://www.bohemiancoding.com/sketch)</description>
    <defs></defs>
    <g id="Page-1" stroke="none" stroke-width="1" fill="none" fill-rule="evenodd" sketch:type="MSPage">
        <g id="Group" sketch:type="MSLayerGroup" transform="translate(20.565934, 21.500000)" fill="#D64038">
            <path d="M17.7517725,7.47252747 L3.00934492,7.47252747 C1.34732961,7.47252747 0,8.80941266 0,10.4714863 L0,74.5285137 C0,76.1847929 1.34434147,77.5274725 3.00934492,77.5274725 L17.7517724,77.5274725 L17.7517724,77.5274725 C17.8216102,76.4827714 18.6920944,75.6593407 19.7556694,75.6593407 L66.1783966,75.6593407 C67.2441361,75.6593407 68.1125434,76.4840717 68.1822934,77.5274725 L83.6836496,77.5274725 C85.3456649,77.5274725 86.6929945,76.1905873 86.6929945,74.5285137 L86.6929945,10.4714863 C86.6929945,8.81520706 85.348653,7.47252747 83.6836496,7.47252747 L68.1822936,7.47252747 C68.1124557,8.51722863 67.2419715,9.34065934 66.1783966,9.34065934 L19.7556694,9.34065934 C18.6899298,9.34065934 17.8215225,8.51592832 17.7517725,7.47252747 L17.7517725,7.47252747 Z M6.37968829,11.8509615 C5.2744261,11.8509615 4.37843407,12.7550332 4.37843407,13.8601083 L4.37843407,17.7229961 C4.37843407,18.8326172 5.27436085,19.7321429 6.37968829,19.7321429 L12.8854216,19.7321429 C13.9906838,19.7321429 14.8866758,18.8280711 14.8866758,17.7229961 L14.8866758,13.8601083 C14.8866758,12.7504872 13.990749,11.8509615 12.8854216,11.8509615 L6.37968829,11.8509615 Z M73.8075729,11.8509615 C72.7023107,11.8509615 71.8063187,12.7550332 71.8063187,13.8601083 L71.8063187,17.7229961 C71.8063187,18.8326172 72.7022455,19.7321429 73.8075729,19.7321429 L80.3133062,19.7321429 C81.4185684,19.7321429 82.3145604,18.8280711 82.3145604,17.7229961 L82.3145604,13.8601083 C82.3145604,12.7504872 81.4186337,11.8509615 80.3133062,11.8509615 L73.8075729,11.8509615 Z M6.37968829,29.3646978 C5.2744261,29.3646978 4.37843407,30.2687695 4.37843407,31.3738446 L4.37843407,35.2367324 C4.37843407,36.3463535 5.27436085,37.2458791 6.37968829,37.2458791 L12.8854216,37.2458791 C13.9906838,37.2458791 14.8866758,36.3418074 14.8866758,35.2367324 L14.8866758,31.3738446 C14.8866758,30.2642235 13.990749,29.3646978 12.8854216,29.3646978 L6.37968829,29.3646978 Z M73.8075729,29.3646978 C72.7023107,29.3646978 71.8063187,30.2687695 71.8063187,31.3738446 L71.8063187,35.2367324 C71.8063187,36.3463535 72.7022455,37.2458791 73.8075729,37.2458791 L80.3133062,37.2458791 C81.4185684,37.2458791 82.3145604,36.3418074 82.3145604,35.2367324 L82.3145604,31.3738446 C82.3145604,30.2642235 81.4186337,29.3646978 80.3133062,29.3646978 L73.8075729,29.3646978 Z M6.37968829,46.8784341 C5.2744261,46.8784341 4.37843407,47.7825058 4.37843407,48.8875808 L4.37843407,52.7504686 C4.37843407,53.8600897 5.27436085,54.7596154 6.37968829,54.7596154 L12.8854216,54.7596154 C13.9906838,54.7596154 14.8866758,53.8555437 14.8866758,52.7504686 L14.8866758,48.8875808 C14.8866758,47.7779597 13.990749,46.8784341 12.8854216,46.8784341 L6.37968829,46.8784341 Z M73.8075729,46.8784341 C72.7023107,46.8784341 71.8063187,47.7825058 71.8063187,48.8875808 L71.8063187,52.7504686 C71.8063187,53.8600897 72.7022455,54.7596154 73.8075729,54.7596154 L80.3133062,54.7596154 C81.4185684,54.7596154 82.3145604,53.8555437 82.3145604,52.7504686 L82.3145604,48.8875808 C82.3145604,47.7779597 81.4186337,46.8784341 80.3133062,46.8784341 L73.8075729,46.8784341 Z M6.37968829,65.2678571 C5.2744261,65.2678571 4.37843407,66.1719289 4.37843407,67.2770039 L4.37843407,71.1398917 C4.37843407,72.2495128 5.27436085,73.1490385 6.37968829,73.1490385 L12.8854216,73.1490385 C13.9906838,73.1490385 14.8866758,72.2449668 14.8866758,71.1398917 L14.8866758,67.2770039 C14.8866758,66.1673828 13.990749,65.2678571 12.8854216,65.2678571 L6.37968829,65.2678571 Z M73.8075729,65.2678571 C72.7023107,65.2678571 71.8063187,66.1719289 71.8063187,67.2770039 L71.8063187,71.1398917 C71.8063187,72.2495128 72.7022455,73.1490385 73.8075729,73.1490385 L80.3133062,73.1490385 C81.4185684,73.1490385 82.3145604,72.2449668 82.3145604,71.1398917 L82.3145604,67.2770039 C82.3145604,66.1673828 81.4186337,65.2678571 80.3133062,65.2678571 L73.8075729,65.2678571 Z M34.5896291,51.2568681 L34.5896291,33.7431319 L52.1033654,42.5 L34.5896291,51.2568681 Z" id="Rectangle-45" sketch:type="MSShapeGroup"></path>
        </g>
    </g>
</svg>